#N canvas 31 481 309 122 10;
#X declare -path controlabstractions;
#X declare -path externals;
#X obj 77 9 cnv 15 148 60 empty empty FORMULS 33 29 0 20 -204786 -13381
0;
#N canvas 31 626 268 182 TRIPES_______________ 0;
#N canvas 162 378 417 365 OPEN_STAGE_CONTROL_RECEIVE_ 0;
#X obj 36 86 oscparse;
#X obj 36 109 list trim;
#X obj 36 18 loadbang;
#X obj 105 175 s o-s-c-messages;
#X obj 36 63 netreceive -u -b;
#X msg 36 318 \; pd quit;
#X msg 36 40 listen 8888;
#X obj 36 295 del 500;
#X msg 49 253 pd quit;
#X obj 49 274 s to-faust;
#X obj 36 152 route pd GET;
#X obj 279 195 tgl 15 0 empty empty empty 17 7 0 10 -262144 -1 -1 0
1;
#X obj 279 216 s inter-act-overide;
#N canvas 47 74 450 300 INTERFACE_ACTIVE_MESSAGE_SEND 0;
#X obj 193 151 i;
#X obj 219 151 + 1;
#X obj 46 114 t f b;
#X obj 46 73 route root;
#X obj 243 242 array get interface-active;
#X obj 193 172 mod 2;
#X obj 46 226 array define interface-active 2;
#X obj 46 204 tabwrite interface-active;
#X obj 243 200 sel 1;
#X obj 243 221 del 2;
#X obj 243 263 s inter-act;
#X obj 46 94 - 1;
#X obj 46 16 inlet;
#X connect 0 0 1 0;
#X connect 0 0 5 0;
#X connect 1 0 0 1;
#X connect 2 0 7 0;
#X connect 2 1 0 0;
#X connect 3 0 11 0;
#X connect 4 0 10 0;
#X connect 5 0 7 1;
#X connect 5 0 8 0;
#X connect 8 0 9 0;
#X connect 9 0 4 0;
#X connect 11 0 2 0;
#X connect 12 0 3 0;
#X restore 70 217 pd INTERFACE_ACTIVE_MESSAGE_SEND;
#X text 209 174 <- parameter messages;
#X connect 0 0 1 0;
#X connect 1 0 10 0;
#X connect 2 0 6 0;
#X connect 4 0 0 0;
#X connect 6 0 4 0;
#X connect 7 0 5 0;
#X connect 8 0 9 0;
#X connect 10 0 7 0;
#X connect 10 0 8 0;
#X connect 10 1 13 0;
#X connect 10 2 3 0;
#X connect 11 0 12 0;
#X restore 36 49 pd OPEN_STAGE_CONTROL_RECEIVE_;
#N canvas 301 281 242 132 GLOBAL_OSC_MESSAGES________ 0;
#N canvas 108 55 296 306 GLOBAL_MESSAGES_RECEIVE___ 0;
#X obj 65 264 outlet;
#X obj 78 84 spigot 0;
#X obj 123 62 r OSC-monitor;
#X obj 78 106 print OSC-in;
#X obj 63 38 r o-s-c-messages;
#N canvas 536 32 576 404 MASTER_AMP_&_CONTROLS 0;
#X obj 317 181 s master-noise;
#X obj 317 131 f.seq.automater \$0 \$0-master-noise;
#X obj 317 160 f.util.rescale 2.7 1 0;
#X obj 368 109 s resetglobal;
#X obj 121 295 s automateRecord;
#X obj 121 272 tgl 15 0 empty empty empty 17 7 0 10 -262144 -1 -1 0
1;
#X obj 181 266 s xglobal;
#X obj 230 238 s yglobal;
#X obj 60 322 s \$0-master-amp;
#X obj 62 22 inlet;
#X obj 270 208 s quantiseglobal;
#X obj 62 73 route master-amp recordglobal xglobal yglobal quantiseglobal
noiseglobal resetglobal;
#X connect 1 0 2 0;
#X connect 2 0 0 0;
#X connect 5 0 4 0;
#X connect 9 0 11 0;
#X connect 11 0 8 0;
#X connect 11 1 5 0;
#X connect 11 2 6 0;
#X connect 11 3 7 0;
#X connect 11 4 10 0;
#X connect 11 5 1 0;
#X connect 11 6 3 0;
#X restore 63 204 pd MASTER_AMP_&_CONTROLS;
#N canvas 643 441 404 323 PARAMETER_EVOLVE_____ 0;
#X obj 19 152 s evolution-active;
#X obj 248 102 s jump-active;
#X obj 170 103 s set-value;
#X obj 19 25 inlet;
#X obj 343 269 outlet;
#X obj 94 107 * 1000;
#X obj 94 128 s evolution-time;
#X obj 19 75 route evolveglobal evolvetime set-value jump-active;
#X connect 3 0 7 0;
#X connect 5 0 6 0;
#X connect 7 0 0 0;
#X connect 7 1 5 0;
#X connect 7 2 2 0;
#X connect 7 3 1 0;
#X connect 7 4 4 0;
#X restore 63 181 pd PARAMETER_EVOLVE_____;
#N canvas 225 536 250 229 MASTER_BUS_FX________ 0;
#X obj 23 15 inlet;
#X obj 23 173 outlet;
#N canvas 114 23 1117 810 ROLLINGFREEZER________ 0;
#X msg 77 287 rollingfreezerfreeze \$1;
#X obj 259 158 s \$0-master-bus-fx;
#X obj 168 264 s \$0-master-bus-fx;
#X obj 77 308 s \$0-master-bus-fx;
#X msg 259 137 rollingfreezerfilter \$1 \$2;
#X msg 168 243 rollingfreezerinput \$1 \$2;
#X obj 168 158 unpack s f;
#X obj 168 180 list fromsymbol;
#X obj 168 200 f.util.asci2char;
#X obj 168 221 pack f f;
#X obj 77 18 inlet;
#X obj 973 727 outlet;
#X obj 647 158 loadbang;
#X msg 647 179 1;
#X msg 468 584 rollingfreezertranspose \$1;
#X msg 698 266 rollingfreezerdrylevel \$1;
#X obj 698 286 s \$0-master-bus-fx;
#X obj 468 606 s \$0-master-bus-fx;
#X obj 468 558 f.seq.automater \$0 \$0-rollingfreezertranspose 0.5
;
#X obj 698 241 f.seq.automater \$0 \$0-rollingfreezerdrylevel 1;
#X obj 77 93 route rollingfreezerfreeze rollingfreezerinput rollingfreezerfilter
;
#X msg 481 465 chaos \$1;
#X msg 583 422 rollingfreezerwetlevel \$1;
#X obj 583 443 s \$0-master-bus-fx;
#X obj 583 400 f.seq.automater \$0 \$0-rollingfreezerwetlevel 0;
#X msg 596 306 chaos \$1;
#X obj 468 83 route rollingfreezertranspose rollingfreezertransposechaos
rollingfreezerwetlevel rollingfreezerwetlevelchaos rollingfreezerdrylevel
rollingfreezerdrylevelchaos;
#X msg 707 152 chaos \$1;
#X obj 498 530 f.util.lfoparse x \$0 rollingfreezertranspose;
#X obj 607 376 f.util.lfoparse x \$0 rollingfreezerwetlevel;
#X obj 720 217 f.util.lfoparse x \$0 rollingfreezerdrylevel;
#X obj 788 139 s \$0-freeze-lfo;
#X obj 498 507 r \$0-freeze-lfo;
#X obj 492 486 f.util.trigslewmessage \$0;
#X obj 607 355 r \$0-freeze-lfo;
#X obj 720 197 r \$0-freeze-lfo;
#X obj 606 327 f.util.trigslewmessage \$0;
#X obj 717 173 f.util.trigslewmessage \$0;
#X connect 0 0 3 0;
#X connect 4 0 1 0;
#X connect 5 0 2 0;
#X connect 6 0 7 0;
#X connect 6 1 9 1;
#X connect 7 0 8 0;
#X connect 8 0 9 0;
#X connect 9 0 5 0;
#X connect 10 0 20 0;
#X connect 12 0 13 0;
#X connect 13 0 15 0;
#X connect 14 0 17 0;
#X connect 15 0 16 0;
#X connect 18 0 14 0;
#X connect 19 0 15 0;
#X connect 20 0 0 0;
#X connect 20 1 6 0;
#X connect 20 2 4 0;
#X connect 20 3 26 0;
#X connect 21 0 18 0;
#X connect 22 0 23 0;
#X connect 24 0 22 0;
#X connect 25 0 24 0;
#X connect 26 0 18 0;
#X connect 26 1 21 0;
#X connect 26 2 24 0;
#X connect 26 3 25 0;
#X connect 26 4 19 0;
#X connect 26 5 27 0;
#X connect 26 6 11 0;
#X connect 26 6 31 0;
#X connect 27 0 19 0;
#X connect 28 1 18 0;
#X connect 29 1 24 0;
#X connect 30 1 19 0;
#X connect 32 0 28 0;
#X connect 33 0 18 0;
#X connect 34 0 29 0;
#X connect 35 0 30 0;
#X connect 36 0 24 0;
#X connect 37 0 19 0;
#X restore 23 82 pd ROLLINGFREEZER________;
#N canvas 480 23 610 557 REPEATER______________ 0;
#X obj 34 41 inlet;
#X obj 507 489 outlet;
#X obj 34 99 route repeaterparallel repeaterlevel repeaterbeatdivision
repeaterhold repeaterrandom;
#X msg 101 390 level \$1;
#X msg 34 433 parallel \$1;
#X obj 101 411 s \$0-master-bus-fx;
#X obj 34 454 s \$0-master-bus-fx;
#X msg 169 321 capture \$1;
#X msg 256 298 beatdivision \$1;
#N canvas 384 282 505 457 REPEATER____ 0;
#X obj 58 39 inlet;
#X obj 58 127 route 0 1 2 3 4;
#X obj 58 170 sel 0 1;
#X msg 71 259 stop;
#X obj 58 79 fudiformat;
#X obj 58 103 fudiparse;
#X obj 58 282 del 4;
#X msg 58 303 0;
#X msg 92 303 1;
#X obj 58 324 change;
#X obj 58 395 outlet;
#X obj 253 220 sel 1;
#X msg 253 241 1;
#X obj 294 221 sel 1;
#X obj 335 220 sel 1;
#X obj 376 221 sel 1;
#X obj 417 220 sel 1;
#X msg 294 242 2;
#X msg 335 241 3;
#X msg 376 242 4;
#X msg 417 241 5;
#X obj 268 384 outlet;
#X obj 103 214 r \$0-repeater-hold;
#X obj 58 234 spigot 1;
#X obj 77 193 t b b;
#X connect 0 0 4 0;
#X connect 1 0 2 0;
#X connect 1 0 11 0;
#X connect 1 1 2 0;
#X connect 1 1 13 0;
#X connect 1 2 2 0;
#X connect 1 2 14 0;
#X connect 1 3 2 0;
#X connect 1 3 15 0;
#X connect 1 4 2 0;
#X connect 1 4 16 0;
#X connect 2 0 23 0;
#X connect 2 1 24 0;
#X connect 3 0 6 0;
#X connect 4 0 5 0;
#X connect 5 0 1 0;
#X connect 6 0 7 0;
#X connect 7 0 9 0;
#X connect 8 0 9 0;
#X connect 9 0 10 0;
#X connect 11 0 12 0;
#X connect 12 0 21 0;
#X connect 13 0 17 0;
#X connect 14 0 18 0;
#X connect 15 0 19 0;
#X connect 16 0 20 0;
#X connect 17 0 21 0;
#X connect 18 0 21 0;
#X connect 19 0 21 0;
#X connect 20 0 21 0;
#X connect 22 0 23 1;
#X connect 23 0 6 0;
#X connect 24 0 3 0;
#X connect 24 1 8 0;
#X restore 169 273 pd REPEATER____;
#X obj 169 342 s \$0-master-bus-fx;
#X obj 256 319 s \$0-master-bus-fx;
#X obj 101 369 f.seq.automater \$0 \$0-repeaterlevel 1;
#X obj 237 222 == 0;
#X obj 237 243 s \$0-repeater-hold;
#N canvas 0 23 290 447 RANDOM_BEAT_DIV___ 0;
#X obj 67 99 r link;
#X obj 67 120 i;
#X obj 67 141 change;
#X obj 67 162 bng 15 250 50 0 empty empty empty 17 7 0 10 -262144 -1
-1;
#X obj 67 183 f.gen.weighted 60 80;
#X obj 67 226 spigot;
#X obj 67 203 + 3;
#X msg 155 321 0;
#X msg 127 320 1;
#X obj 127 341 t a;
#X obj 155 33 inlet;
#X obj 155 84 t f f;
#X obj 155 296 sel 0;
#X obj 67 371 outlet;
#X obj 127 372 outlet;
#X obj 83 299 del 4;
#X obj 66 247 t f b b b;
#X msg 94 277 stop;
#X connect 0 0 1 0;
#X connect 1 0 2 0;
#X connect 2 0 3 0;
#X connect 3 0 4 0;
#X connect 4 0 6 0;
#X connect 5 0 16 0;
#X connect 6 0 5 0;
#X connect 7 0 9 0;
#X connect 8 0 9 0;
#X connect 9 0 14 0;
#X connect 10 0 11 0;
#X connect 11 0 12 0;
#X connect 11 1 5 1;
#X connect 12 0 7 0;
#X connect 15 0 8 0;
#X connect 16 0 13 0;
#X connect 16 1 15 0;
#X connect 16 2 7 0;
#X connect 16 3 17 0;
#X connect 17 0 15 0;
#X restore 305 213 pd RANDOM_BEAT_DIV___;
#X connect 0 0 2 0;
#X connect 2 0 4 0;
#X connect 2 1 12 0;
#X connect 2 2 9 0;
#X connect 2 3 13 0;
#X connect 2 4 15 0;
#X connect 2 5 1 0;
#X connect 3 0 5 0;
#X connect 4 0 6 0;
#X connect 7 0 10 0;
#X connect 8 0 11 0;
#X connect 9 0 7 0;
#X connect 9 1 8 0;
#X connect 12 0 3 0;
#X connect 13 0 14 0;
#X connect 15 0 8 0;
#X connect 15 1 7 0;
#X restore 23 104 pd REPEATER______________;
#N canvas 0 23 593 647 REVERB_FILTER_LIMITER_ 0;
#X obj 23 19 inlet;
#X obj 305 110 f.seq.automater \$0 \$0-limiter-level;
#X obj 249 185 f.seq.automater \$0 \$0-pre-limiter-level;
#X obj 192 277 * 99;
#X obj 192 298 + 1;
#X obj 192 256 f.seq.automater \$0 \$0-djfilter-resonance 0;
#X obj 136 363 f.seq.automater \$0 \$0-djfilter-cutoff;
#X msg 193 317 djfilterresonance \$1;
#X msg 136 384 djfiltercutoff \$1;
#X obj 135 405 s \$0-master-bus-fx;
#X obj 193 338 s \$0-master-bus-fx;
#X obj 23 499 f.seq.automater \$0 \$0-reverb-bypass;
#X obj 79 427 f.seq.automater \$0 \$0-reverb-limiter-send;
#X msg 23 520 reverbbypass \$1;
#X obj 23 541 s \$0-master-bus-fx;
#X obj 23 74 route reverbbypassglobal reverblimitersend djfiltercutoff
djfilterresonance prelimiterlevel limiterlevel;
#X obj 305 154 s \$0-master-bus-fx;
#X obj 249 228 s \$0-master-bus-fx;
#X obj 79 470 s \$0-master-bus-fx;
#X msg 249 207 drylimiterlevel \$1;
#X msg 305 133 limiterlevel \$1;
#X msg 79 449 reverblimiterlevel \$1;
#X obj 437 608 outlet;
#X connect 0 0 15 0;
#X connect 1 0 20 0;
#X connect 2 0 19 0;
#X connect 3 0 4 0;
#X connect 4 0 7 0;
#X connect 5 0 3 0;
#X connect 6 0 8 0;
#X connect 7 0 10 0;
#X connect 8 0 9 0;
#X connect 11 0 13 0;
#X connect 12 0 21 0;
#X connect 13 0 14 0;
#X connect 15 0 11 0;
#X connect 15 1 12 0;
#X connect 15 2 6 0;
#X connect 15 3 5 0;
#X connect 15 4 2 0;
#X connect 15 5 1 0;
#X connect 15 6 22 0;
#X connect 19 0 17 0;
#X connect 20 0 16 0;
#X connect 21 0 18 0;
#X restore 23 59 pd REVERB_FILTER_LIMITER_;
#X connect 0 0 4 0;
#X connect 2 0 3 0;
#X connect 3 0 1 0;
#X connect 4 0 2 0;
#X restore 63 157 pd MASTER_BUS_FX________;
#N canvas 421 166 486 504 TEMPO_&_PITCH________ 0;
#X obj 99 364 s \$0-bpm;
#X obj 153 169 s \$0-tempolock;
#X obj 99 215 / 240;
#X obj 99 254 * 240;
#X obj 99 275 i;
#X obj 108 345 s bpmglobal;
#X obj 99 234 f.seq.automater \$0 \$0-bpm 1;
#X msg 118 302 bpm \$1;
#N canvas 21 290 267 297 TEMPO_LOCK 0;
#X obj 110 51 r \$0-tempolock;
#X obj 43 119 f.util.switch;
#X obj 43 161 f;
#X obj 110 72 t f f;
#X obj 110 93 sel 0;
#X obj 43 27 inlet;
#X obj 43 232 outlet;
#X connect 0 0 3 0;
#X connect 1 0 2 0;
#X connect 1 1 6 0;
#X connect 2 0 6 0;
#X connect 3 0 4 0;
#X connect 3 1 1 1;
#X connect 4 0 2 0;
#X connect 5 0 1 0;
#X restore 99 190 pd TEMPO_LOCK;
#X obj 118 323 s \$0-master-bus-fx;
#X obj 203 140 s \$0-tempo-half-time;
#X obj 49 390 s master-seq-on-off;
#X obj 61 370 tgl 15 0 empty empty empty 17 7 0 10 -262144 -1 -1 0
1;
#N canvas 349 442 476 425 pitch-gamut-parse 0;
#X obj 32 12 inlet;
#N canvas 0 23 474 651 DEPRECATED 0;
#X obj 44 237 array set master-pitch-gamut;
#X obj 44 43 unpack f f;
#X obj 44 65 - 1;
#X obj 72 152 + 12;
#X obj 44 131 until;
#X obj 44 152 f;
#X msg 78 109 0;
#X obj 44 87 t b b f;
#X obj 44 173 +;
#X obj 44 216 f;
#X obj 44 194 t b f;
#X msg 44 109 11;
#X obj 267 169 array set master-pitch-gamut;
#X obj 267 79 unpack f f;
#X obj 267 101 - 1;
#X obj 267 148 f;
#X obj 267 126 t b f;
#X obj 73 442 until;
#X obj 73 463 f;
#X obj 98 462 + 1;
#X obj 112 531 array get master-pitch-gamut;
#X msg 105 422 0;
#X msg 194 510 1;
#X obj 112 509 t f f;
#X obj 112 576 f;
#X obj 112 618 list;
#X obj 112 597 list prepend;
#X obj 112 552 sel 1;
#X obj 73 395 t b b b b;
#X msg 73 421 13;
#X obj 73 488 sel 12;
#X connect 1 0 2 0;
#X connect 1 1 9 1;
#X connect 2 0 7 0;
#X connect 3 0 5 1;
#X connect 4 0 5 0;
#X connect 5 0 3 0;
#X connect 5 0 8 0;
#X connect 6 0 5 1;
#X connect 7 0 11 0;
#X connect 7 1 6 0;
#X connect 7 2 8 1;
#X connect 8 0 10 0;
#X connect 9 0 0 0;
#X connect 10 0 9 0;
#X connect 10 1 0 1;
#X connect 11 0 4 0;
#X connect 13 0 14 0;
#X connect 13 1 15 1;
#X connect 14 0 16 0;
#X connect 15 0 12 0;
#X connect 16 0 15 0;
#X connect 16 1 12 1;
#X connect 17 0 18 0;
#X connect 18 0 19 0;
#X connect 18 0 30 0;
#X connect 19 0 18 1;
#X connect 20 0 27 0;
#X connect 21 0 18 1;
#X connect 22 0 20 1;
#X connect 23 0 20 0;
#X connect 23 1 24 1;
#X connect 24 0 26 0;
#X connect 25 0 26 1;
#X connect 26 0 25 0;
#X connect 27 0 24 0;
#X connect 28 0 29 0;
#X connect 28 1 21 0;
#X connect 28 2 22 0;
#X connect 28 3 26 1;
#X connect 28 3 25 1;
#X connect 29 0 17 0;
#X connect 30 1 23 0;
#X restore 316 34 pd DEPRECATED;
#X obj 32 272 tabwrite master-pitch-gamut;
#X obj 32 245 unpack f f;
#X msg 32 217 \$1 0;
#X msg 55 190 \$1 1;
#X msg 79 168 \$1 2;
#X msg 103 146 \$1 3;
#X msg 134 126 \$1 4;
#X msg 149 209 \$1 5;
#X msg 180 186 \$1 6;
#X msg 208 163 \$1 7;
#X msg 236 143 \$1 8;
#X msg 271 121 \$1 9;
#X msg 309 137 \$1 10;
#X msg 367 135 \$1 11;
#X obj 387 375 outlet;
#X obj 32 73 route pitchgamut0 pitchgamut1 pitchgamut2 pitchgamut3
pitchgamut4 pitchgamut5 pitchgamut6 pitchgamut7 pitchgamut8 pitchgamut9
pitchgamut10 pitchgamut11;
#X obj 32 295 array define master-pitch-gamut 12;
#X connect 0 0 17 0;
#X connect 3 0 2 0;
#X connect 3 1 2 1;
#X connect 4 0 3 0;
#X connect 5 0 3 0;
#X connect 6 0 3 0;
#X connect 7 0 3 0;
#X connect 8 0 3 0;
#X connect 9 0 3 0;
#X connect 10 0 3 0;
#X connect 11 0 3 0;
#X connect 12 0 3 0;
#X connect 13 0 3 0;
#X connect 14 0 3 0;
#X connect 15 0 3 0;
#X connect 17 0 4 0;
#X connect 17 1 5 0;
#X connect 17 2 6 0;
#X connect 17 3 7 0;
#X connect 17 4 8 0;
#X connect 17 5 9 0;
#X connect 17 6 10 0;
#X connect 17 7 11 0;
#X connect 17 8 12 0;
#X connect 17 9 13 0;
#X connect 17 10 14 0;
#X connect 17 11 15 0;
#X connect 17 12 16 0;
#X coords 0 425 1 424 85 60 0;
#X restore 309 98 pd pitch-gamut-parse;
#X obj 257 121 f.util.masterkey \$0;
#X obj 47 20 inlet;
#X obj 388 466 outlet;
#X obj 47 58 route seqonglobal tempoglobal tempohold tempohalftime
pitchroot;
#X connect 2 0 6 0;
#X connect 3 0 4 0;
#X connect 4 0 0 0;
#X connect 4 0 5 0;
#X connect 4 0 7 0;
#X connect 6 0 3 0;
#X connect 7 0 9 0;
#X connect 8 0 2 0;
#X connect 12 0 11 0;
#X connect 13 0 16 0;
#X connect 15 0 17 0;
#X connect 17 0 11 0;
#X connect 17 1 8 0;
#X connect 17 2 1 0;
#X connect 17 3 10 0;
#X connect 17 4 14 0;
#X connect 17 5 13 0;
#X restore 63 134 pd TEMPO_&_PITCH________;
#X connect 1 0 3 0;
#X connect 2 0 1 1;
#X connect 4 0 1 0;
#X connect 4 0 8 0;
#X connect 6 0 5 0;
#X connect 7 0 6 0;
#X connect 8 0 7 0;
#X restore 20 41 pd GLOBAL_MESSAGES_RECEIVE___;
#N canvas 278 246 650 385 GLOBAL_MESSAGES__SEND_____ 0;
#X obj 37 76 r \$0-beat-gui;
#X obj 37 98 oscformat beat;
#X obj 175 76 r automateRecord;
#X obj 175 98 oscformat automation-record;
#X obj 410 116 oscformat evolution-activate;
#X obj 410 94 r evolution-active;
#X obj 40 12 inlet;
#X obj 407 166 r \$0-evolution-gui;
#X obj 407 188 oscformat evolution-gui;
#X obj 407 252 r master-seq-on-off;
#X obj 407 274 oscformat master-seq-on-off;
#X obj 25 226 r \$0-scale-root-note-gui;
#X obj 210 245 r \$0-pitch-gamut-gui;
#X msg 210 267 \$1 \$2;
#X obj 210 289 oscformat pitch-gamut;
#X obj 412 71 s OSC-out;
#X obj 412 27 r \$0-evolution-time-label;
#X obj 412 49 oscformat evolution-time-label;
#X obj 25 290 oscformat key;
#X msg 25 268 1 \$1 1;
#X obj 25 247 + 1;
#X obj 37 120 s OSC-out-global;
#X obj 175 120 s OSC-out-global;
#X obj 410 138 s OSC-out-global;
#X obj 407 210 s OSC-out-global;
#X obj 407 296 s OSC-out-global;
#X obj 210 311 s OSC-out-global;
#X obj 25 312 s OSC-out-global;
#X obj 37 146 r \$0-bpm;
#X obj 37 168 oscformat tempoglobal;
#X obj 37 191 s to-o-s-c-interface;
#X connect 0 0 1 0;
#X connect 1 0 21 0;
#X connect 2 0 3 0;
#X connect 3 0 22 0;
#X connect 4 0 23 0;
#X connect 5 0 4 0;
#X connect 7 0 8 0;
#X connect 8 0 24 0;
#X connect 9 0 10 0;
#X connect 10 0 25 0;
#X connect 11 0 20 0;
#X connect 12 0 13 0;
#X connect 13 0 14 0;
#X connect 14 0 26 0;
#X connect 16 0 17 0;
#X connect 17 0 15 0;
#X connect 18 0 27 0;
#X connect 19 0 18 0;
#X connect 20 0 19 0;
#X connect 28 0 29 0;
#X connect 29 0 30 0;
#X restore 20 67 pd GLOBAL_MESSAGES__SEND_____;
#X connect 0 0 1 0;
#X restore 36 68 pd GLOBAL_OSC_MESSAGES________;
#N canvas 59 109 288 247 INIT_&_DECLARE_____________ 0;
#X obj 65 100 loadbang;
#X msg 65 130 \; pd dsp 1 \;;
#N canvas 0 75 415 248 INIT_PARAMETER_SET 0;
#X obj 62 153 s resetglobal;
#X obj 62 60 loadbang;
#X msg 62 122 1;
#X obj 62 81 del 5000;
#X msg 95 124 0;
#X obj 95 101 del 10;
#X msg 159 132 110;
#X obj 159 153 s \$0-bpm;
#X connect 1 0 3 0;
#X connect 1 0 6 0;
#X connect 2 0 0 0;
#X connect 3 0 2 0;
#X connect 3 0 5 0;
#X connect 4 0 0 0;
#X connect 5 0 4 0;
#X connect 6 0 7 0;
#X restore 64 171 pd INIT_PARAMETER_SET;
#X obj 66 37 declare -path controlabstractions;
#X obj 66 57 declare -path externals;
#X connect 0 0 1 0;
#X restore 36 30 pd INIT_&_DECLARE_____________;
#N canvas 0 473 291 114 ABLETON_LINK_&_TIMING______ 0;
#N canvas 255 234 550 214 AUTOMATER_TIMING 0;
#X obj 126 105 loadbang;
#X obj 126 142 metro 10;
#X obj 32 40 inlet;
#X obj 32 100 i;
#X obj 32 121 change;
#X obj 32 142 t b;
#X obj 32 163 s masterClock;
#X obj 331 164 s master-gui-update-throttle;
#X obj 126 164 s master-param-update-throttle;
#X obj 331 142 metro 40;
#X text 394 140 25fps;
#X connect 0 0 1 0;
#X connect 0 0 9 0;
#X connect 1 0 8 0;
#X connect 2 0 3 0;
#X connect 3 0 4 0;
#X connect 4 0 5 0;
#X connect 5 0 6 0;
#X connect 9 0 7 0;
#X restore 81 56 pd AUTOMATER_TIMING;
#N canvas 544 208 354 390 SEQUENCER_TIMING 0;
#X obj 37 38 r \$0-bpm;
#X obj 37 75 t f f;
#X floatatom 138 286 5 0 0 1 beat_time - -;
#X obj 159 310 s link;
#X obj 64 219 abl_link~ 1 0 4 110;
#X msg 64 197 tempo \$1;
#X obj 138 265 spigot 1;
#X obj 201 204 r master-seq-on-off;
#X obj 138 331 outlet;
#X msg 37 260 60000 \$1;
#X obj 37 281 /;
#X obj 37 302 * 16;
#X obj 37 323 s recordtime;
#X obj 64 116 f;
#X obj 64 176 change;
#X obj 102 49 i;
#X obj 102 70 change;
#X obj 102 91 t b;
#X obj 102 28 r link;
#X obj 64 155 / 1;
#X obj 228 248 sel 1;
#X obj 201 227 t f f;
#X msg 228 269 reset 0 0;
#X obj 79 135 r \$0-tempo-half-time;
#X connect 0 0 1 0;
#X connect 1 0 9 0;
#X connect 1 1 13 0;
#X connect 2 0 3 0;
#X connect 2 0 8 0;
#X connect 4 2 6 0;
#X connect 5 0 4 0;
#X connect 6 0 2 0;
#X connect 7 0 21 0;
#X connect 9 0 10 0;
#X connect 10 0 11 0;
#X connect 11 0 12 0;
#X connect 13 0 19 0;
#X connect 14 0 5 0;
#X connect 15 0 16 0;
#X connect 16 0 17 0;
#X connect 17 0 13 0;
#X connect 18 0 15 0;
#X connect 19 0 14 0;
#X connect 20 0 22 0;
#X connect 21 0 6 1;
#X connect 21 1 20 0;
#X connect 22 0 4 0;
#X connect 23 0 19 1;
#X restore 81 32 pd SEQUENCER_TIMING;
#X connect 1 0 0 0;
#X restore 36 87 pd ABLETON_LINK_&_TIMING______;
#N canvas 331 189 251 178 FORMULS_MESSAGES___________ 0;
#X obj 78 42 f.formuls \$0 1;
#X obj 78 62 f.formuls \$0 2;
#X obj 78 82 f.formuls \$0 3;
#X obj 78 102 f.formuls \$0 4;
#X obj 78 122 f.formuls \$0 5;
#X obj 78 142 f.formuls \$0 6;
#X restore 36 106 pd FORMULS_MESSAGES___________;
#N canvas 139 552 508 262 O-S-C_&_FORMULS_SEND_______ 0;
#X obj 33 24 r to-o-s-c-interface;
#X obj 33 73 list prepend send;
#X obj 33 94 list trim;
#X obj 33 162 netsend -u -b;
#X obj 214 35 r to-faust;
#X obj 214 59 list prepend send;
#X obj 214 80 list trim;
#X msg 234 152 connect localhost 51984;
#X msg 310 177 disconnect;
#X obj 214 204 netsend;
#X obj 214 225 tgl 15 0 empty empty empty 17 7 0 10 -262144 -1 -1 1
1;
#X obj 236 110 loadbang;
#X obj 236 131 del 2000;
#N canvas 0 111 225 212 GET_INTERFACE 0;
#X obj 37 106 oscformat GET;
#X obj 37 86 list;
#X msg 38 64 127.0.0.1:8888 root;
#X obj 37 127 outlet;
#X obj 38 43 r master-gui-update-throttle;
#X connect 0 0 3 0;
#X connect 1 0 0 0;
#X connect 2 0 1 0;
#X connect 4 0 2 0;
#X restore 49 46 pd GET_INTERFACE;
#N canvas 0 23 249 300 CONNECT___ 0;
#X msg 78 133 disconnect;
#X obj 59 65 sel 1 0;
#X obj 68 88 loadbang;
#X msg 59 111 connect 127.0.0.1 8889;
#X obj 59 35 tgl 15 1 empty empty empty 17 7 0 10 -262144 -1 -1 1 1
;
#X obj 59 260 outlet;
#X connect 0 0 5 0;
#X connect 1 0 3 0;
#X connect 1 1 0 0;
#X connect 2 0 3 0;
#X connect 3 0 5 0;
#X connect 4 0 1 0;
#X restore 50 137 pd CONNECT___;
#X obj 290 15 r \$0-master-bus-fx;
#X obj 290 36 list prepend fmasterbusfx;
#X connect 0 0 1 0;
#X connect 1 0 2 0;
#X connect 2 0 3 0;
#X connect 4 0 5 0;
#X connect 5 0 6 0;
#X connect 6 0 9 0;
#X connect 7 0 9 0;
#X connect 8 0 9 0;
#X connect 9 0 10 0;
#X connect 11 0 12 0;
#X connect 12 0 7 0;
#X connect 13 0 1 0;
#X connect 14 0 3 0;
#X connect 15 0 16 0;
#X connect 16 0 5 0;
#X restore 36 126 pd O-S-C_&_FORMULS_SEND_______;
#X restore 77 75 pd TRIPES_______________;
