#N canvas 521 91 252 152 12;
#X declare -path audioabstractions;
#X declare -path externals;
#X obj 158 70 loadbang;
#X msg 158 94 \; pd dsp 1;
#N canvas 0 54 274 312 MESSAGE_RECEIVE 0;
#X msg 58 94 listen 51984;
#X obj 58 29 loadbang;
#X obj 58 63 del 1000;
#X obj 58 125 netreceive;
#X obj 111 197 s \$0-formuls;
#X obj 58 159 route pd;
#X msg 58 242 \; pd quit;
#X connect 0 0 3 0;
#X connect 1 0 2 0;
#X connect 2 0 0 0;
#X connect 3 0 5 0;
#X connect 5 0 6 0;
#X connect 5 1 4 0;
#X restore 16 76 pd MESSAGE_RECEIVE;
#N canvas 921 103 286 301 AUDIO__________ 0;
#X obj 66 80 f.formuls~ 1;
#X obj 66 48 r \$0-formuls;
#N canvas 780 463 484 333 MASTER_BUS_FX_+_AUDIO_OUT 0;
#X obj 39 19 inlet;
#X obj 39 301 s \$0-reverb-bypass;
#X obj 39 73 route fmasterbusfx;
#N canvas 341 258 630 510 MASTER_BUS_FX____________ 0;
#X obj 62 42 inlet~;
#X obj 106 444 outlet~;
#X obj 174 40 inlet~;
#X obj 218 444 outlet~;
#X obj 312 201 *~;
#X obj 414 200 *~;
#X obj 432 83 r \$0-reverb-bypass;
#X obj 432 107 == 0;
#X obj 432 156 lop~ 100;
#X obj 432 132 sig~ 1;
#X obj 312 446 outlet~;
#X obj 414 447 outlet~;
#X obj 18 42 inlet;
#X obj 312 56 catch~ rev-l;
#X obj 414 56 catch~ rev-r;
#X obj 469 108 tgl 15 0 empty empty empty 17 7 0 10 -262144 -1 -1 0
1;
#X obj 312 380 *~;
#X obj 414 380 *~;
#X obj 432 287 == 0;
#X obj 432 336 lop~ 100;
#X obj 432 312 sig~ 1;
#X obj 469 288 tgl 15 0 empty empty empty 17 7 0 10 -262144 -1 -1 0
1;
#X obj 18 335 fmasterbusfx~;
#X obj 432 262 route reverblimiterlevel;
#N canvas 674 409 766 411 CONV_REV____ 0;
#X obj 415 214 array define -k \$0-rev-r;
#X obj 415 188 array define -k \$0-rev-l;
#X obj 13 239 partconv~ \$0-rev-l 2048;
#X obj 187 239 partconv~ \$0-rev-r 2048;
#X obj 13 28 inlet~;
#X obj 187 31 inlet~;
#X obj 187 363 outlet~;
#X obj 13 362 outlet~;
#X obj 415 152 soundfiler;
#X obj 415 103 \$0;
#X obj 415 70 loadbang;
#X obj 388 80 bng 15 250 50 0 empty empty empty 17 7 0 10 -262144 -1
-1;
#X msg 415 126 read -resize norm-rev-ir.wav \$1-rev-l \$1-rev-r;
#X msg 26 214 set \$1-rev-l;
#X msg 197 215 set \$1-rev-r;
#X obj 13 125 hip~ 150;
#X obj 187 122 hip~ 150;
#X obj 13 322 lop~ 6000;
#X obj 187 319 lop~ 6000;
#X obj 187 96 *~ 0.1;
#X obj 13 99 *~ 0.1;
#X obj 13 74 flib.fx.delay~ 50 0;
#X obj 187 71 flib.fx.delay~ 50 0;
#X obj 121 181 pipe 2000;
#X connect 2 0 17 0;
#X connect 3 0 18 0;
#X connect 4 0 21 0;
#X connect 5 0 22 0;
#X connect 9 0 12 0;
#X connect 9 0 23 0;
#X connect 10 0 9 0;
#X connect 11 0 9 0;
#X connect 12 0 8 0;
#X connect 13 0 2 0;
#X connect 14 0 3 0;
#X connect 15 0 2 0;
#X connect 16 0 3 0;
#X connect 17 0 7 0;
#X connect 18 0 6 0;
#X connect 19 0 16 0;
#X connect 20 0 15 0;
#X connect 21 0 20 0;
#X connect 22 0 19 0;
#X connect 23 0 13 0;
#X connect 23 0 14 0;
#X restore 312 231 pd CONV_REV____;
#X obj 39 88 s \$0-to-rev-control;
#X obj 432 235 r \$0-to-rev-control;
#X obj 174 302 hip~ 5;
#X obj 62 305 hip~ 5;
#N canvas 0 23 618 367 REPEATER____ 0;
#X msg 183 199 capture \$1;
#X msg 40 200 beatdivision \$1;
#X msg 442 201 capture \$1;
#X msg 298 200 beatdivision \$1;
#X obj 40 296 outlet;
#X obj 299 290 outlet;
#X obj 40 9 inlet;
#X obj 502 301 outlet reject;
#X obj 39 58 route beatdivisionl beatdivisionl capturel capturer;
#X connect 0 0 4 0;
#X connect 1 0 4 0;
#X connect 2 0 5 0;
#X connect 3 0 5 0;
#X connect 6 0 8 0;
#X connect 8 0 1 0;
#X connect 8 1 3 0;
#X connect 8 2 0 0;
#X connect 8 3 2 0;
#X connect 8 4 7 0;
#X restore 18 246 pd REPEATER____;
#X obj 130 337 fmasterbusfx~;
#X connect 0 0 28 0;
#X connect 2 0 27 0;
#X connect 4 0 24 0;
#X connect 5 0 24 1;
#X connect 6 0 7 0;
#X connect 7 0 9 0;
#X connect 7 0 15 0;
#X connect 8 0 5 1;
#X connect 8 0 4 1;
#X connect 9 0 8 0;
#X connect 12 0 25 0;
#X connect 12 0 29 0;
#X connect 13 0 4 0;
#X connect 14 0 5 0;
#X connect 16 0 10 0;
#X connect 17 0 11 0;
#X connect 18 0 20 0;
#X connect 18 0 21 0;
#X connect 19 0 17 1;
#X connect 19 0 16 1;
#X connect 20 0 19 0;
#X connect 22 1 1 0;
#X connect 23 0 18 0;
#X connect 24 0 16 0;
#X connect 24 0 22 2;
#X connect 24 1 17 0;
#X connect 24 1 30 2;
#X connect 26 0 23 0;
#X connect 27 0 30 1;
#X connect 28 0 22 1;
#X connect 29 0 22 0;
#X connect 29 1 30 0;
#X connect 29 2 22 0;
#X connect 29 2 30 0;
#X connect 30 1 3 0;
#X restore 232 201 pd MASTER_BUS_FX____________;
#N canvas 328 23 645 407 AUDIO_RECEIVES_&_MULTI_OUT 0;
#X obj 49 107 r~ 1-l;
#X obj 171 99 r~ 1-r;
#X obj 59 128 r~ 2-l;
#X obj 180 120 r~ 2-r;
#X obj 68 149 r~ 3-l;
#X obj 187 141 r~ 3-r;
#X obj 78 169 r~ 4-l;
#X obj 88 190 r~ 5-l;
#X obj 97 211 r~ 6-l;
#X obj 197 162 r~ 4-r;
#X obj 206 183 r~ 5-r;
#X obj 213 204 r~ 6-r;
#X obj 49 358 outlet~;
#X obj 170 358 outlet~;
#X text 15 12 receive audio sends from formulssynth~ abstraction;
#X obj 298 43 r~ 1-l;
#X obj 318 66 r~ 1-r;
#X obj 341 89 r~ 2-l;
#X obj 361 113 r~ 2-r;
#X obj 386 136 r~ 3-l;
#X obj 406 157 r~ 3-r;
#X obj 428 178 r~ 4-l;
#X obj 473 225 r~ 5-l;
#X obj 517 273 r~ 6-l;
#X obj 449 201 r~ 4-r;
#X obj 495 250 r~ 5-r;
#X obj 539 298 r~ 6-r;
#X obj 297 338 dac~ 5 6 7 8 9 10 11 12 13 14 15 16;
#X connect 0 0 12 0;
#X connect 1 0 13 0;
#X connect 2 0 12 0;
#X connect 3 0 13 0;
#X connect 4 0 12 0;
#X connect 5 0 13 0;
#X connect 6 0 12 0;
#X connect 7 0 12 0;
#X connect 8 0 12 0;
#X connect 9 0 13 0;
#X connect 10 0 13 0;
#X connect 11 0 13 0;
#X connect 15 0 27 0;
#X connect 16 0 27 1;
#X connect 17 0 27 2;
#X connect 18 0 27 3;
#X connect 19 0 27 4;
#X connect 20 0 27 5;
#X connect 21 0 27 6;
#X connect 22 0 27 8;
#X connect 23 0 27 10;
#X connect 24 0 27 7;
#X connect 25 0 27 9;
#X connect 26 0 27 11;
#X restore 239 135 pd AUDIO_RECEIVES_&_MULTI_OUT;
#N canvas 554 261 886 617 ROLLINGFREEZER___________ 0;
#X obj 457 193 flib.fx.rollingfreezer~;
#X obj 686 56 inlet~;
#X obj 457 518 outlet~;
#X obj 9 36 inlet;
#X obj 363 521 outlet;
#X obj 552 515 outlet~;
#X text 350 554 message reject;
#X obj 782 55 inlet~;
#X obj 686 524 outlet~;
#X obj 686 414 *~;
#X obj 723 355 lop~ 100;
#X obj 723 379 *~;
#X obj 782 521 outlet~;
#X obj 782 415 *~;
#X obj 723 331 sig~ 1;
#X msg 127 275 transpose \$1;
#X obj 127 299 s \$0-freeze;
#X obj 540 166 r \$0-freeze;
#X obj 245 214 s \$0-freeze;
#X msg 245 190 freeze \$1 \$2;
#X text 484 545 wet signal;
#X text 750 545 dry signal;
#X obj 9 378 s \$0-freeze;
#X msg 9 354 level \$1;
#N canvas 0 23 1033 417 INPUT_SELECT 0;
#X obj 40 378 outlet~;
#X obj 49 211 *~;
#X obj 67 160 sig~;
#X obj 67 184 lop~ 100;
#X obj 121 35 r \$0-freeze;
#X obj 121 89 route 0 1 2 3 4 5;
#X obj 216 210 *~;
#X obj 234 159 sig~;
#X obj 234 183 lop~ 100;
#X obj 379 212 *~;
#X obj 397 161 sig~;
#X obj 397 185 lop~ 100;
#X obj 539 212 *~;
#X obj 557 161 sig~;
#X obj 557 185 lop~ 100;
#X obj 697 212 *~;
#X obj 715 161 sig~;
#X obj 715 185 lop~ 100;
#X obj 855 212 *~;
#X obj 873 161 sig~;
#X obj 873 185 lop~ 100;
#X obj 121 59 route input;
#X obj 49 127 r~ 1-m;
#X obj 48 270 throw~ \$0-rol-fre-out;
#X obj 216 270 throw~ \$0-rol-fre-out;
#X obj 379 271 throw~ \$0-rol-fre-out;
#X obj 539 271 throw~ \$0-rol-fre-out;
#X obj 697 271 throw~ \$0-rol-fre-out;
#X obj 855 271 throw~ \$0-rol-fre-out;
#X obj 216 126 r~ 2-m;
#X obj 379 128 r~ 3-m;
#X obj 539 128 r~ 4-m;
#X obj 697 127 r~ 5-m;
#X obj 855 128 r~ 6-m;
#X obj 40 351 catch~ \$0-rol-fre-out;
#X connect 1 0 23 0;
#X connect 2 0 3 0;
#X connect 3 0 1 1;
#X connect 4 0 21 0;
#X connect 5 0 2 0;
#X connect 5 1 7 0;
#X connect 5 2 10 0;
#X connect 5 3 13 0;
#X connect 5 4 16 0;
#X connect 5 5 19 0;
#X connect 6 0 24 0;
#X connect 7 0 8 0;
#X connect 8 0 6 1;
#X connect 9 0 25 0;
#X connect 10 0 11 0;
#X connect 11 0 9 1;
#X connect 12 0 26 0;
#X connect 13 0 14 0;
#X connect 14 0 12 1;
#X connect 15 0 27 0;
#X connect 16 0 17 0;
#X connect 17 0 15 1;
#X connect 18 0 28 0;
#X connect 19 0 20 0;
#X connect 20 0 18 1;
#X connect 21 0 5 0;
#X connect 22 0 1 0;
#X connect 29 0 6 0;
#X connect 30 0 9 0;
#X connect 31 0 12 0;
#X connect 32 0 15 0;
#X connect 33 0 18 0;
#X connect 34 0 0 0;
#X restore 457 130 pd INPUT_SELECT;
#X msg 304 132 input \$1 \$2;
#X obj 304 156 s \$0-freeze;
#X obj 68 329 s \$0-dry-level;
#X obj 723 303 r \$0-dry-level;
#X obj 128 180 - 0.5;
#X obj 127 227 i;
#X obj 128 204 * 7;
#X obj 127 251 * 12;
#X obj 9 70 route rollingfreezerwetlevel rollingfreezerdrylevel rollingfreezertranspose
rollingfreezerrepeatersend rollingfreezerfreeze rollingfreezerinput
;
#X obj 186 244 s \$0-repeater-send;
#X obj 457 347 *~;
#X obj 475 321 f.audio.crossfade~;
#X obj 475 296 r \$0-repeater-send;
#X obj 580 347 *~;
#X connect 0 0 35 0;
#X connect 0 0 38 0;
#X connect 1 0 9 0;
#X connect 3 0 33 0;
#X connect 7 0 13 0;
#X connect 9 0 8 0;
#X connect 10 0 11 0;
#X connect 10 0 11 1;
#X connect 11 0 9 1;
#X connect 11 0 13 1;
#X connect 13 0 12 0;
#X connect 14 0 10 0;
#X connect 15 0 16 0;
#X connect 17 0 0 1;
#X connect 19 0 18 0;
#X connect 23 0 22 0;
#X connect 24 0 0 0;
#X connect 25 0 26 0;
#X connect 28 0 14 0;
#X connect 29 0 31 0;
#X connect 30 0 32 0;
#X connect 31 0 30 0;
#X connect 32 0 15 0;
#X connect 33 0 23 0;
#X connect 33 1 27 0;
#X connect 33 2 29 0;
#X connect 33 3 34 0;
#X connect 33 4 19 0;
#X connect 33 5 25 0;
#X connect 33 6 4 0;
#X connect 35 0 2 0;
#X connect 35 0 5 0;
#X connect 36 0 35 1;
#X connect 36 1 38 1;
#X connect 37 0 36 0;
#X connect 38 0 8 0;
#X connect 38 0 12 0;
#X restore 232 169 pd ROLLINGFREEZER___________;
#N canvas 0 23 467 295 AUDIO_SAFETY_____________ 0;
#X obj 41 31 inlet~;
#X obj 41 205 *~;
#X obj 41 229 outlet~;
#X obj 261 137 sig~ 0;
#X obj 261 161 lop~ 100;
#X obj 108 32 inlet~;
#X obj 108 206 *~;
#X obj 108 230 outlet~;
#X obj 176 31 inlet~;
#X obj 176 205 *~;
#X obj 176 229 outlet~;
#X obj 243 32 inlet~;
#X obj 243 206 *~;
#X obj 243 230 outlet~;
#X obj 261 65 loadbang;
#X obj 261 89 del 5000;
#X msg 261 113 0.2;
#X obj 327 76 r \$0-master-amp;
#X obj 327 100 * 0.2;
#X connect 0 0 1 0;
#X connect 1 0 2 0;
#X connect 3 0 4 0;
#X connect 4 0 1 1;
#X connect 4 0 6 1;
#X connect 4 0 9 1;
#X connect 4 0 12 1;
#X connect 5 0 6 0;
#X connect 6 0 7 0;
#X connect 8 0 9 0;
#X connect 9 0 10 0;
#X connect 11 0 12 0;
#X connect 12 0 13 0;
#X connect 14 0 15 0;
#X connect 15 0 16 0;
#X connect 16 0 3 0;
#X connect 17 0 18 0;
#X connect 18 0 3 0;
#X restore 232 227 pd AUDIO_SAFETY_____________;
#X obj 232 253 dac~ 1 2 3 4, f 28;
#X obj 39 102 route reverbbypass masteramp;
#X obj 135 277 s \$0-master-amp;
#X connect 0 0 2 0;
#X connect 2 0 8 0;
#X connect 3 0 6 0;
#X connect 3 1 6 1;
#X connect 3 2 6 2;
#X connect 3 3 6 3;
#X connect 4 0 5 1;
#X connect 4 1 5 2;
#X connect 5 0 3 0;
#X connect 5 1 3 1;
#X connect 5 2 3 2;
#X connect 5 3 3 1;
#X connect 5 4 3 2;
#X connect 6 0 7 0;
#X connect 6 1 7 1;
#X connect 6 2 7 2;
#X connect 6 3 7 3;
#X connect 8 0 1 0;
#X connect 8 1 9 0;
#X connect 8 2 5 0;
#X restore 66 236 pd MASTER_BUS_FX_+_AUDIO_OUT;
#X obj 66 104 f.formuls~ 2;
#X obj 66 128 f.formuls~ 3;
#X obj 66 152 f.formuls~ 4;
#X obj 66 176 f.formuls~ 5;
#X obj 66 200 f.formuls~ 6;
#X connect 0 0 3 0;
#X connect 1 0 0 0;
#X connect 3 0 4 0;
#X connect 4 0 5 0;
#X connect 5 0 6 0;
#X connect 6 0 7 0;
#X connect 7 0 2 0;
#X restore 16 100 pd AUDIO__________;
#X obj 15 16 declare -path audioabstractions;
#X obj 15 39 declare -path externals;
#X connect 0 0 1 0;
