#N canvas 153 90 554 246 10;
#X text 254 34 \$1 = \$0 \; \$2 = instance;
#X obj 29 151 r \$0-formuls-param-out;
#X text 179 13 <- parse incoming messages;
#X text 168 146 <- retreive parameter value from faust DSP then format
and send to GUI;
#X obj 29 16 f.util.oscinparse \$2 \$1;
#N canvas 0 25 227 298 MESSAGE_THROTTLE 0;
#X obj 49 220 spigot;
#X obj 82 73 r inter-act;
#X obj 82 94 unpack f f;
#X obj 139 114 == \$2;
#X obj 82 115 == \$2;
#X obj 82 159 >= 1;
#X obj 82 136 +;
#X floatatom 82 180 5 0 0 0 - - -;
#X obj 82 200 change;
#X obj 49 20 inlet;
#X obj 49 261 outlet;
#X connect 0 0 10 0;
#X connect 1 0 2 0;
#X connect 2 0 4 0;
#X connect 2 1 3 0;
#X connect 3 0 6 1;
#X connect 4 0 6 0;
#X connect 5 0 7 0;
#X connect 6 0 5 0;
#X connect 7 0 8 0;
#X connect 8 0 0 1;
#X connect 9 0 0 0;
#X restore 29 66 pd MESSAGE_THROTTLE;
#X obj 29 89 s to-o-s-c-interface;
#X obj 29 45 r \$2-message-collect;
#X obj 30 181 f.util.oscoutparse \$2 \$1 formuls flooper;
#X connect 5 0 6 0;
#X connect 7 0 5 0;
