#N canvas 204 386 570 313 12;
#X obj 37 37 inlet;
#X obj 255 246 outlet;
#X text 254 48 \$1 = instance \; \$2 = \$0 \; \$3 = parameter;
#X obj 140 149 s \$2-\$3\$1-lfodepth;
#X obj 37 176 s \$2-\$3\$1-lfofreq;
#X obj 37 108 route \$3\$1lfofreq \$3\$1lfodepth;
#X connect 0 0 5 0;
#X connect 5 0 4 0;
#X connect 5 1 3 0;
#X connect 5 2 1 0;
