#N canvas 125 241 333 322 10;
#X obj 109 151 == 0;
#X obj 209 151 spigot;
#X obj 209 194 pipe;
#X obj 227 98 t f f;
#X obj 64 223 t a;
#X obj 64 172 spigot 1;
#X obj 209 130 pack f f;
#X obj 209 172 unpack f f;
#X obj 64 23 inlet;
#X obj 64 274 outlet;
#X obj 155 18 inlet;
#X connect 0 0 5 1;
#X connect 1 0 7 0;
#X connect 2 0 4 0;
#X connect 3 0 1 1;
#X connect 3 1 6 1;
#X connect 4 0 9 0;
#X connect 5 0 4 0;
#X connect 6 0 1 0;
#X connect 7 0 2 0;
#X connect 7 1 2 1;
#X connect 8 0 5 0;
#X connect 8 0 6 0;
#X connect 10 0 3 0;
#X connect 10 0 0 0;
