#N canvas 904 166 536 712 10;
#X obj 37 11 inlet;
#X obj 37 370 s \$0-record;
#X obj 94 332 s \$0-tempo;
#X obj 123 289 s \$0-reverse;
#X obj 152 267 s \$0-trigger;
#X obj 65 350 s \$0-value;
#X obj 94 311 max 0.01;
#X text 36 502 receives tick in from "master-time-in" \, spaced at
10ms apart;
#N canvas 2 63 450 614 TEST_UNIT___ 0;
#X obj 115 55 tgl 15 0 empty empty empty 17 7 0 10 -262144 -1 -1 0
1;
#X msg 115 75 record \$1;
#X obj 113 144 hsl 128 15 0 127 0 0 empty empty empty -2 -8 0 10 -262144
-1 -1 0 1;
#X msg 110 164 value \$1;
#X floatatom 111 231 5 0 0 0 - - -;
#X msg 111 250 tempo \$1;
#X obj 111 318 tgl 15 0 empty empty empty 17 7 0 10 -262144 -1 -1 0
1;
#X msg 111 338 reverse \$1;
#X obj 111 388 tgl 15 0 empty empty empty 17 7 0 10 -262144 -1 -1 0
1;
#X msg 111 408 note-trigger-on \$1;
#X obj 111 489 bng 15 250 50 0 empty empty empty 17 7 0 10 -262144
-1 -1;
#X msg 111 508 trigger bang;
#X obj 115 97 s \$0-test-u;
#X obj 110 186 s \$0-test-u;
#X obj 111 272 s \$0-test-u;
#X obj 111 360 s \$0-test-u;
#X obj 111 430 s \$0-test-u;
#X obj 111 530 s \$0-test-u;
#X connect 0 0 1 0;
#X connect 1 0 12 0;
#X connect 2 0 3 0;
#X connect 3 0 13 0;
#X connect 4 0 5 0;
#X connect 5 0 14 0;
#X connect 6 0 7 0;
#X connect 7 0 15 0;
#X connect 8 0 9 0;
#X connect 9 0 16 0;
#X connect 10 0 11 0;
#X connect 11 0 17 0;
#X restore 402 66 pd TEST_UNIT___;
#X obj 80 31 r \$0-test-u;
#X obj 38 467 outlet;
#X obj 152 245 t b;
#X obj 233 466 outlet;
#X text 39 539 \$1 = \$0 \; \$2 = array size \; record (0/1) = activates
sequencer recording \; value = value to be stored to sequencer array
\; tempo (0.001+) = controls sequencer array read speed \; reverse
(0/1) = reverses the sequencer array read direction \; note-trigger-on
(0/1) = activates "note triggering" of sequencer array \; trigger (bang)
= triggers one pass through the sequencer array \; float (0/1) = controls
master on/off of sequencer;
#X text 216 26 \$3 = automate/seq mode (0/1);
#N canvas 400 38 427 833 AUTOMATER_PLAYBACK_MODULE_____ 0;
#X obj 49 156 i 0;
#X obj 79 156 + 1;
#X msg 76 265 0;
#X obj 49 245 moses;
#X obj 49 341 spigot 1;
#X obj 117 341 spigot 0;
#X obj 117 383 pack f f;
#X obj 117 427 -;
#X obj 94 319 == 0;
#X obj 49 449 t a;
#X msg 117 405 \$2 \$1;
#X obj 49 204 * 1;
#X obj 162 292 r \$0-reverse;
#X obj 162 362 r \$0-length;
#X obj 49 641 tabread4 \$0-this;
#X obj 49 803 outlet;
#X obj 76 225 r \$0-length;
#X obj 64 182 r \$0-tempo;
#X obj 76 288 s \$0-zeros;
#X obj 64 134 r \$0-zeros;
#X obj 186 55 t b b;
#X msg 186 77 1;
#X msg 258 77 0;
#X obj 186 29 r \$0-trigger;
#X obj 258 99 s \$0-zeros;
#X obj 123 801 outlet seq_done;
#X obj 123 672 r \$0-zeros;
#X obj 105 59 r \$0-zeros;
#X obj 49 112 spigot 0;
#X obj 186 99 s \$0-ones;
#X obj 95 36 r \$0-ones;
#X obj 131 691 r \$0-ones;
#X obj 120 80 r \$0-stop;
#N canvas 0 23 450 300 deprecated 0;
#X obj 131 100 r \$0-value;
#X obj 131 160 spigot;
#X msg 131 181 0;
#X obj 174 161 r \$0-reset;
#X msg 174 182 1;
#X obj 116 207 f 1;
#X obj 164 142 f;
#X obj 286 71 r automateRecord;
#X obj 253 52 r \$0-value;
#X obj 253 121 spigot;
#X obj 116 54 r \$0-seq-play;
#X obj 286 92 t b f;
#X obj 116 79 t b f f;
#X obj 215 87 sel 0;
#X connect 0 0 1 0;
#X connect 1 0 2 0;
#X connect 2 0 5 1;
#X connect 3 0 4 0;
#X connect 4 0 5 1;
#X connect 6 0 1 1;
#X connect 7 0 11 0;
#X connect 8 0 9 0;
#X connect 9 0 4 0;
#X connect 10 0 12 0;
#X connect 11 0 5 0;
#X connect 11 1 9 1;
#X connect 12 0 5 0;
#X connect 12 1 6 0;
#X connect 12 2 13 0;
#X connect 13 0 4 0;
#X restore 301 369 pd deprecated;
#X obj 94 462 r \$0-seq-play;
#X obj 104 525 spigot;
#X obj 104 482 r \$0-value;
#X msg 104 503 1;
#X obj 163 530 r \$0-reset;
#X obj 231 531 r \$0-seq-reset;
#X obj 94 572 f;
#X obj 123 729 f;
#X msg 163 551 0;
#X obj 137 504 r \$0-record;
#X obj 49 618 spigot 1;
#X obj 230 558 r \$0-value;
#X obj 230 666 f;
#X obj 230 579 t b;
#X obj 254 622 sel 0;
#X msg 254 643 1;
#X obj 336 412 r \$0-seq-play;
#X obj 336 454 &&;
#X obj 336 431 f;
#X obj 336 475 == 0;
#X obj 163 572 t f f;
#X obj 245 601 r \$0-record;
#X obj 49 598 spigot 1;
#X obj 142 111 tgl 15 0 empty empty empty 17 7 0 10 -262144 -1 -1 0
1;
#X obj 49 7 r \$1-param-throttle;
#X connect 0 0 1 0;
#X connect 0 0 11 0;
#X connect 1 0 0 1;
#X connect 2 0 18 0;
#X connect 3 0 4 0;
#X connect 3 0 5 0;
#X connect 3 1 2 0;
#X connect 4 0 9 0;
#X connect 5 0 6 0;
#X connect 6 0 10 0;
#X connect 7 0 9 0;
#X connect 8 0 4 1;
#X connect 9 0 56 0;
#X connect 10 0 7 0;
#X connect 11 0 3 0;
#X connect 12 0 8 0;
#X connect 12 0 5 1;
#X connect 13 0 6 1;
#X connect 14 0 15 0;
#X connect 16 0 3 1;
#X connect 17 0 11 1;
#X connect 19 0 0 1;
#X connect 20 0 21 0;
#X connect 20 1 22 0;
#X connect 21 0 29 0;
#X connect 22 0 24 0;
#X connect 23 0 20 0;
#X connect 26 0 41 0;
#X connect 27 0 28 1;
#X connect 28 0 0 0;
#X connect 30 0 28 1;
#X connect 31 0 41 0;
#X connect 32 0 28 1;
#X connect 32 0 57 0;
#X connect 34 0 40 0;
#X connect 35 0 40 0;
#X connect 36 0 37 0;
#X connect 37 0 35 0;
#X connect 38 0 42 0;
#X connect 39 0 42 0;
#X connect 40 0 56 1;
#X connect 41 0 25 0;
#X connect 42 0 54 0;
#X connect 43 0 35 1;
#X connect 44 0 14 0;
#X connect 45 0 47 0;
#X connect 46 0 44 1;
#X connect 47 0 46 0;
#X connect 48 0 49 0;
#X connect 49 0 46 0;
#X connect 50 0 52 0;
#X connect 51 0 53 0;
#X connect 52 0 51 0;
#X connect 54 0 40 0;
#X connect 55 0 46 1;
#X connect 55 0 48 0;
#X connect 56 0 44 0;
#X connect 58 0 28 0;
#X restore 38 421 pd AUTOMATER_PLAYBACK_MODULE_____;
#N canvas 602 348 287 423 SEQUENCER_PLAYBACK_MODULE_____ 0;
#X obj 42 375 outlet;
#X obj 42 91 spigot;
#X obj 155 104 r \$0-reverse;
#X obj 177 146 r \$0-length;
#X obj 133 167 pack f f;
#X obj 133 208 -;
#X msg 133 187 \$2 \$1;
#X obj 42 241 t a;
#X obj 42 39 r \$0-beat;
#X obj 42 298 sel -1;
#X obj 75 323 pack f f;
#X obj 75 344 line 0 10;
#X obj 120 303 r \$0-seq-trans-time;
#X obj 75 71 r \$0-seq-play;
#X obj 164 52 r \$0-mode;
#X obj 42 273 tabread \$0-this-2;
#X obj 183 365 print;
#X obj 42 125 f.util.switch;
#X connect 1 0 17 0;
#X connect 2 0 17 1;
#X connect 3 0 4 1;
#X connect 4 0 6 0;
#X connect 5 0 7 0;
#X connect 6 0 5 0;
#X connect 7 0 15 0;
#X connect 8 0 1 0;
#X connect 9 1 10 0;
#X connect 10 0 11 0;
#X connect 11 0 0 0;
#X connect 11 0 16 0;
#X connect 12 0 10 1;
#X connect 13 0 1 1;
#X connect 15 0 9 0;
#X connect 17 0 7 0;
#X connect 17 1 4 0;
#X restore 252 422 pd SEQUENCER_PLAYBACK_MODULE_____;
#N canvas 2 58 335 390 AUTOMATER_RECORD_MODULE_______ 0;
#X obj 55 282 tabwrite \$0-this;
#X obj 55 184 f;
#X obj 55 111 tgl 15 0 empty empty empty 17 7 0 10 -262144 -1 -1 0
1;
#X obj 55 206 t a b;
#X obj 87 229 i;
#X obj 116 228 + 1;
#X msg 105 206 0;
#X obj 55 131 metro 10;
#X obj 55 58 r \$0-record;
#X obj 55 90 t f b;
#X obj 73 162 r \$0-value;
#X obj 176 281 s \$0-length;
#X obj 87 250 min \$1;
#X obj 55 309 array define \$0-this \$2;
#X connect 1 0 3 0;
#X connect 2 0 7 0;
#X connect 3 0 0 0;
#X connect 3 1 4 0;
#X connect 4 0 5 0;
#X connect 4 0 12 0;
#X connect 5 0 4 1;
#X connect 6 0 4 1;
#X connect 7 0 1 0;
#X connect 8 0 9 0;
#X connect 9 0 2 0;
#X connect 9 1 6 0;
#X connect 10 0 1 1;
#X connect 12 0 0 1;
#X connect 12 0 11 0;
#X restore 38 399 pd AUTOMATER_RECORD_MODULE_______;
#N canvas 370 381 327 336 SEQUENCER_RECORD_MODULE_______ 0;
#X obj 66 73 spigot;
#X obj 66 148 pack f f;
#X obj 66 190 unpack f f;
#X obj 66 226 tabwrite \$0-this-2;
#X obj 111 84 r \$0-seq-step;
#X obj 99 53 r \$0-seq-record;
#X obj 66 293 array define \$0-this-2 65;
#X obj 111 105 unpack f f;
#X obj 66 169 spigot;
#X obj 150 146 r \$0-seq-step-clear;
#X obj 66 252 r \$0-seq-reset;
#X msg 66 274 const -1;
#X obj 158 252 loadbang;
#X obj 66 32 r \$0-seq-value;
#X obj 111 126 - 1;
#X connect 0 0 1 0;
#X connect 1 0 8 0;
#X connect 2 0 3 0;
#X connect 2 1 3 1;
#X connect 4 0 7 0;
#X connect 5 0 0 1;
#X connect 7 0 14 0;
#X connect 7 1 8 1;
#X connect 8 0 2 0;
#X connect 10 0 11 0;
#X connect 11 0 6 0;
#X connect 12 0 11 0;
#X connect 13 0 0 0;
#X connect 14 0 1 1;
#X restore 252 399 pd SEQUENCER_RECORD_MODULE_______;
#X obj 209 225 s \$0-seq-step;
#X obj 267 184 s \$0-mode;
#X obj 277 166 \$3;
#X obj 277 146 loadbang;
#X obj 238 203 s \$0-beat;
#X obj 180 245 s \$0-seq-record;
#X obj 444 190 s \$0-stop;
#X msg 444 169 0;
#X obj 353 107 s \$0-seq-reset;
#X obj 324 128 s \$0-seq-trans-time;
#X obj 402 87 s \$0-seq-value;
#X obj 266 107 s \$0-seq-play;
#X obj 37 53 route record value tempo reverse trigger seqrecord seqstep
beat mode seqplay seqtranstime seqreset seqvalue active;
#X obj 452 142 r \$1-reset;
#X connect 0 0 31 0;
#X connect 6 0 2 0;
#X connect 9 0 31 0;
#X connect 11 0 4 0;
#X connect 15 0 10 0;
#X connect 15 1 12 0;
#X connect 16 0 10 0;
#X connect 21 0 20 0;
#X connect 22 0 21 0;
#X connect 26 0 25 0;
#X connect 26 0 30 0;
#X connect 31 0 1 0;
#X connect 31 1 5 0;
#X connect 31 2 6 0;
#X connect 31 3 3 0;
#X connect 31 4 11 0;
#X connect 31 5 24 0;
#X connect 31 6 19 0;
#X connect 31 7 23 0;
#X connect 31 8 20 0;
#X connect 31 9 30 0;
#X connect 31 10 28 0;
#X connect 31 11 27 0;
#X connect 31 12 29 0;
#X connect 31 13 25 0;
#X connect 32 0 26 0;
