#N canvas 1300 581 423 620 12;
#X msg 88 149 chaostrig \$1;
#X msg 48 59 looptrig \$1;
#X msg 155 278 active \$1;
#X msg 67 104 trig bang;
#X msg 113 192 ctrig bang;
#X obj 67 83 r \$1-value-send;
#X obj 113 172 r \$1-value-send;
#X msg 165 322 slew \$1;
#X obj 165 301 r \$1-slew;
#X msg 179 367 lfofreq \$1;
#X msg 196 415 lfodepth \$1;
#X msg 132 234 reset bang;
#X obj 132 213 r \$1-reset;
#X obj 44 540 outlet;
#X text 239 26 \$1 = \$0;
#X obj 48 39 r \$1-\$3\$2-trig;
#X text 239 45 \$2 = instance no.;
#X text 236 63 \$3 = parameter name;
#X obj 88 128 r \$1-\$3\$2-chaostrig;
#X obj 155 257 r \$1-\$3\$2-act;
#X obj 179 346 r \$1-\$3\$2-lfofreq;
#X obj 196 394 r \$1-\$3\$2-lfodepth;
#X connect 0 0 13 0;
#X connect 1 0 13 0;
#X connect 2 0 13 0;
#X connect 3 0 13 0;
#X connect 4 0 13 0;
#X connect 5 0 3 0;
#X connect 6 0 4 0;
#X connect 7 0 13 0;
#X connect 8 0 7 0;
#X connect 9 0 13 0;
#X connect 10 0 13 0;
#X connect 11 0 13 0;
#X connect 12 0 11 0;
#X connect 15 0 1 0;
#X connect 18 0 0 0;
#X connect 19 0 2 0;
#X connect 20 0 9 0;
#X connect 21 0 10 0;
