#N canvas 437 188 794 543 10;
#X text 418 26 \$1 = \$0;
#X obj 8 498 outlet;
#X text 418 41 \$2 = synth instance (only used in Pd \, not faust external)
;
#X obj 177 16 inlet chaos;
#X obj 7 20 inlet value;
#X msg 24 197 chaos \$1;
#X obj 18 329 list trim;
#X obj 18 351 s to-faust;
#X obj 22 48 s \$0-spigot;
#N canvas 562 172 228 293 MESSAGE_STOP 0;
#X msg 142 120 0;
#X msg 98 169 1;
#X obj 53 201 spigot 1;
#X obj 98 77 t b b b;
#X msg 136 96 stop;
#X obj 53 29 inlet;
#X obj 53 242 outlet;
#X obj 98 28 inlet;
#X obj 98 139 t b b;
#X obj 98 118 del 20;
#X obj 53 178 list;
#X connect 0 0 2 1;
#X connect 1 0 2 1;
#X connect 2 0 6 0;
#X connect 3 0 9 0;
#X connect 3 1 0 0;
#X connect 3 2 4 0;
#X connect 4 0 9 0;
#X connect 5 0 10 0;
#X connect 7 0 3 0;
#X connect 8 0 10 0;
#X connect 8 1 1 0;
#X connect 9 0 8 0;
#X connect 10 0 2 0;
#X restore 8 430 pd MESSAGE_STOP;
#X obj 95 408 r \$0-spigot;
#X obj 200 499 outlet;
#N canvas 31 98 299 326 SCALE___ 0;
#X obj 70 275 outlet;
#X obj 183 52 loadbang;
#X msg 183 117 0;
#X msg 210 117 1;
#X obj 183 138 t a;
#X obj 183 96 sel 0;
#X obj 70 162 f.util.switch;
#X obj 183 75 \$6;
#X obj 183 185 pow \$6;
#X obj 70 16 inlet;
#X connect 1 0 7 0;
#X connect 2 0 4 0;
#X connect 3 0 4 0;
#X connect 4 0 6 1;
#X connect 5 0 2 0;
#X connect 5 1 3 0;
#X connect 6 0 0 0;
#X connect 6 1 8 0;
#X connect 7 0 5 0;
#X connect 8 0 0 0;
#X connect 9 0 6 0;
#X restore 18 272 pd SCALE___;
#N canvas 108 204 358 574 X_TRIGS_&_LFO 0;
#X msg 88 142 chaostrig \$1;
#X msg 48 59 looptrig \$1;
#X msg 155 265 active \$1;
#X msg 67 101 trig bang;
#X msg 113 182 ctrig bang;
#X obj 67 80 r \$1-value-send;
#X obj 113 162 r \$1-value-send;
#X msg 165 307 slew \$1;
#X obj 165 286 r \$1-slew;
#X msg 179 352 lfofreq \$1;
#X msg 196 400 lfodepth \$1;
#X msg 132 224 reset bang;
#X obj 132 203 r \$1-reset;
#X obj 44 540 outlet;
#X obj 48 39 r \$1-\$4\$2-trig;
#X obj 88 121 r \$1-\$4\$2-chaostrig;
#X obj 155 244 r \$1-\$4\$2-act;
#X obj 179 331 r \$1-\$4\$2-lfofreq;
#X obj 196 379 r \$1-\$4\$2-lfodepth;
#X connect 0 0 13 0;
#X connect 1 0 13 0;
#X connect 2 0 13 0;
#X connect 3 0 13 0;
#X connect 4 0 13 0;
#X connect 5 0 3 0;
#X connect 6 0 4 0;
#X connect 7 0 13 0;
#X connect 8 0 7 0;
#X connect 9 0 13 0;
#X connect 10 0 13 0;
#X connect 11 0 13 0;
#X connect 12 0 11 0;
#X connect 14 0 1 0;
#X connect 15 0 0 0;
#X connect 16 0 2 0;
#X connect 17 0 9 0;
#X connect 18 0 10 0;
#X restore 30 220 pd X_TRIGS_&_LFO;
#N canvas 0 23 341 336 X_QUANTISATION 0;
#X obj 37 37 inlet;
#X obj 37 288 outlet;
#X obj 265 49 loadbang;
#X msg 265 114 0;
#X msg 296 117 1;
#X obj 265 135 t a;
#X obj 150 135 moses 1;
#X obj 189 157 ==;
#X obj 150 229 int;
#X obj 265 93 sel 0;
#X obj 37 175 f.util.switch;
#X obj 150 114 r quantiseglobal;
#X obj 265 72 \$6;
#X obj 150 208 * \$6;
#X obj 150 250 / \$6;
#X connect 0 0 10 0;
#X connect 2 0 12 0;
#X connect 3 0 5 0;
#X connect 4 0 5 0;
#X connect 5 0 7 1;
#X connect 6 0 10 1;
#X connect 6 1 7 0;
#X connect 7 0 10 1;
#X connect 8 0 14 0;
#X connect 9 0 3 0;
#X connect 9 1 4 0;
#X connect 10 0 1 0;
#X connect 10 1 13 0;
#X connect 11 0 6 0;
#X connect 12 0 9 0;
#X connect 13 0 8 0;
#X connect 14 0 1 0;
#X restore 8 174 pd X_QUANTISATION;
#X obj 8 73 unpack f f;
#X obj 177 67 unpack f f;
#X text 418 59 \$3 = xy name;
#X text 419 76 \$4 = x paramname;
#X text 420 95 \$5 = x parameter default value;
#X text 419 115 \$6 = x quantisation steps;
#X text 420 133 \$7 = x exponential scaling (if no value \, then linear
scaling);
#X text 422 253 eg: \$0 0 op1 op1freq 0 0 2.7 waveshape 0 4 2.7;
#N canvas 0 23 341 336 Y_QUANTISATION 0;
#X obj 37 37 inlet;
#X obj 37 288 outlet;
#X obj 265 49 loadbang;
#X msg 265 114 0;
#X msg 296 117 1;
#X obj 265 135 t a;
#X obj 150 135 moses 1;
#X obj 189 157 ==;
#X obj 150 229 int;
#X obj 265 93 sel 0;
#X obj 37 175 f.util.switch;
#X obj 150 114 r quantiseglobal;
#X obj 265 72 \$10;
#X obj 150 208 * \$10;
#X obj 150 250 / \$10;
#X connect 0 0 10 0;
#X connect 2 0 12 0;
#X connect 3 0 5 0;
#X connect 4 0 5 0;
#X connect 5 0 7 1;
#X connect 6 0 10 1;
#X connect 6 1 7 0;
#X connect 7 0 10 1;
#X connect 8 0 14 0;
#X connect 9 0 3 0;
#X connect 9 1 4 0;
#X connect 10 0 1 0;
#X connect 10 1 13 0;
#X connect 11 0 6 0;
#X connect 12 0 9 0;
#X connect 13 0 8 0;
#X connect 14 0 1 0;
#X restore 219 175 pd Y_QUANTISATION;
#N canvas 31 98 299 326 SCALE___ 0;
#X obj 70 275 outlet;
#X obj 183 52 loadbang;
#X msg 183 117 0;
#X msg 210 117 1;
#X obj 183 138 t a;
#X obj 183 96 sel 0;
#X obj 70 162 f.util.switch;
#X obj 70 16 inlet;
#X obj 183 75 \$11;
#X obj 183 185 pow \$11;
#X connect 1 0 8 0;
#X connect 2 0 4 0;
#X connect 3 0 4 0;
#X connect 4 0 6 1;
#X connect 5 0 2 0;
#X connect 5 1 3 0;
#X connect 6 0 0 0;
#X connect 6 1 9 0;
#X connect 7 0 6 0;
#X connect 8 0 5 0;
#X connect 9 0 0 0;
#X restore 219 270 pd SCALE___;
#N canvas 215 258 358 574 Y_TRIGS_&_LFO 0;
#X msg 88 142 chaostrig \$1;
#X msg 48 59 looptrig \$1;
#X msg 155 265 active \$1;
#X msg 67 101 trig bang;
#X msg 113 182 ctrig bang;
#X obj 67 80 r \$1-value-send;
#X obj 113 162 r \$1-value-send;
#X msg 165 307 slew \$1;
#X obj 165 286 r \$1-slew;
#X msg 179 352 lfofreq \$1;
#X msg 196 400 lfodepth \$1;
#X msg 132 224 reset bang;
#X obj 132 203 r \$1-reset;
#X obj 44 540 outlet;
#X obj 48 39 r \$1-\$8\$2-trig;
#X obj 88 121 r \$1-\$8\$2-chaostrig;
#X obj 155 244 r \$1-\$8\$2-act;
#X obj 179 331 r \$1-\$8\$2-lfofreq;
#X obj 196 379 r \$1-\$8\$2-lfodepth;
#X connect 0 0 13 0;
#X connect 1 0 13 0;
#X connect 2 0 13 0;
#X connect 3 0 13 0;
#X connect 4 0 13 0;
#X connect 5 0 3 0;
#X connect 6 0 4 0;
#X connect 7 0 13 0;
#X connect 8 0 7 0;
#X connect 9 0 13 0;
#X connect 10 0 13 0;
#X connect 11 0 13 0;
#X connect 12 0 11 0;
#X connect 14 0 1 0;
#X connect 15 0 0 0;
#X connect 16 0 2 0;
#X connect 17 0 9 0;
#X connect 18 0 10 0;
#X restore 242 218 pd Y_TRIGS_&_LFO;
#X msg 232 197 chaos \$1;
#X obj 200 457 oscformat \$3\$2;
#X obj 218 479 s to-o-s-c-interface;
#X text 420 163 \$8 = y paramname;
#X text 421 182 \$9 = y parameter default value;
#X text 420 202 \$10 = y quantisation steps;
#X text 421 220 \$11 = y exponential scaling (if no value \, then linear
scaling);
#X obj 219 296 list prepend formuls\$2 \$8;
#X obj 219 246 f.seq.automater \$1 \$1-\$8 \$9;
#X obj 71 127 r xglobal;
#X obj 281 129 r yglobal;
#X obj 8 151 f.util.switch;
#X obj 219 150 f.util.switch;
#X obj 200 405 f.util.pak;
#X obj 8 401 f.util.pak;
#X obj 18 298 list prepend formuls\$2 \$4;
#X obj 7 248 f.seq.automater \$1 \$1-\$4 \$5;
#N canvas 562 172 228 293 MESSAGE_STOP 0;
#X msg 142 120 0;
#X msg 98 169 1;
#X obj 53 201 spigot 1;
#X obj 98 77 t b b b;
#X msg 136 96 stop;
#X obj 53 29 inlet;
#X obj 53 242 outlet;
#X obj 98 28 inlet;
#X obj 98 139 t b b;
#X obj 98 118 del 20;
#X obj 53 178 list;
#X connect 0 0 2 1;
#X connect 1 0 2 1;
#X connect 2 0 6 0;
#X connect 3 0 9 0;
#X connect 3 1 0 0;
#X connect 3 2 4 0;
#X connect 4 0 9 0;
#X connect 5 0 10 0;
#X connect 7 0 3 0;
#X connect 8 1 1 0;
#X connect 9 0 8 0;
#X connect 10 0 2 0;
#X restore 210 433 pd MESSAGE_STOP;
#X obj 297 411 r \$0-spigot;
#X connect 3 0 16 0;
#X connect 4 0 8 0;
#X connect 4 0 15 0;
#X connect 5 0 42 0;
#X connect 6 0 7 0;
#X connect 9 0 1 0;
#X connect 10 0 9 1;
#X connect 12 0 41 0;
#X connect 13 0 42 0;
#X connect 14 0 42 0;
#X connect 15 0 37 0;
#X connect 15 1 38 0;
#X connect 16 0 5 0;
#X connect 16 1 26 0;
#X connect 23 0 34 0;
#X connect 24 0 33 0;
#X connect 25 0 34 0;
#X connect 26 0 34 0;
#X connect 27 0 28 0;
#X connect 27 0 11 0;
#X connect 33 0 6 0;
#X connect 34 0 24 0;
#X connect 34 0 40 1;
#X connect 34 1 39 1;
#X connect 35 0 37 1;
#X connect 36 0 38 1;
#X connect 37 0 14 0;
#X connect 38 0 23 0;
#X connect 39 0 27 0;
#X connect 40 0 9 0;
#X connect 41 0 6 0;
#X connect 42 0 12 0;
#X connect 42 0 40 0;
#X connect 42 1 39 0;
#X connect 44 0 43 1;
