#N canvas 89 227 637 407 10;
#X obj 41 212 i;
#X obj 41 233 + 1;
#X obj 41 254 mod 2;
#X obj 56 171 r \$1-reset;
#X obj 41 151 spigot;
#X obj 74 130 r act\$2;
#X obj 135 210 i;
#X obj 135 231 + 1;
#X obj 135 252 mod 2;
#X obj 150 169 r \$1-reset;
#X obj 135 149 spigot;
#X obj 168 128 r trig\$2;
#X obj 246 210 i;
#X obj 246 231 + 1;
#X obj 246 252 mod 2;
#X obj 261 169 r \$1-reset;
#X obj 246 149 spigot;
#X obj 279 128 r chaostrig\$2;
#X obj 41 349 outlet;
#X obj 135 350 outlet;
#X obj 246 350 outlet;
#X obj 47 295 oscformat \$3act\$2;
#X obj 180 293 oscformat \$3trig\$2;
#X obj 312 296 oscformat \$3chaostrig\$2;
#X obj 467 305 list trim;
#X obj 41 77 t a a a;
#X obj 41 11 inlet;
#X obj 41 52 sel 1;
#X msg 56 192 1;
#X msg 150 190 1;
#X msg 261 190 1;
#X obj 467 325 s \$1-OSC-collect-2-\$2;
#X text 148 26 \$1 = \$0 \; \$2 = \$1 \; \$3 = parameter name \;;
#X obj 467 285 list prepend \$3chaostrig;
#X obj 51 275 s \$1-\$3\$2-act;
#X obj 145 273 s \$1-\$3\$2-trig;
#X obj 256 273 s \$1-\$3\$2-chaostrig;
#X obj 47 319 s \$2-message-collect;
#X obj 180 317 s \$2-message-collect;
#X obj 312 320 s \$2-message-collect;
#X connect 0 0 1 0;
#X connect 1 0 0 1;
#X connect 1 0 2 0;
#X connect 2 0 18 0;
#X connect 2 0 21 0;
#X connect 2 0 34 0;
#X connect 3 0 28 0;
#X connect 4 0 0 0;
#X connect 5 0 4 1;
#X connect 6 0 7 0;
#X connect 7 0 6 1;
#X connect 7 0 8 0;
#X connect 8 0 19 0;
#X connect 8 0 22 0;
#X connect 8 0 35 0;
#X connect 9 0 29 0;
#X connect 10 0 6 0;
#X connect 11 0 10 1;
#X connect 12 0 13 0;
#X connect 13 0 12 1;
#X connect 13 0 14 0;
#X connect 14 0 20 0;
#X connect 14 0 23 0;
#X connect 14 0 33 0;
#X connect 14 0 36 0;
#X connect 15 0 30 0;
#X connect 16 0 12 0;
#X connect 17 0 16 1;
#X connect 21 0 37 0;
#X connect 22 0 38 0;
#X connect 23 0 39 0;
#X connect 24 0 31 0;
#X connect 25 0 4 0;
#X connect 25 1 10 0;
#X connect 25 2 16 0;
#X connect 26 0 27 0;
#X connect 27 0 25 0;
#X connect 28 0 0 1;
#X connect 28 0 0 0;
#X connect 29 0 6 1;
#X connect 29 0 6 0;
#X connect 30 0 12 1;
#X connect 30 0 12 0;
#X connect 33 0 24 0;
