#N canvas 1204 232 241 339 10;
#X obj 41 15 r o-s-c-messages;
#N canvas 343 345 543 416 MOD_INPUT_____________ 0;
#X obj 31 22 inlet;
#X obj 31 62 route extmodulationinput\$1 thresholdinput\$1 envsideinput\$1
;
#X obj 467 360 outlet;
#X obj 312 279 r \$0-reset;
#X msg 312 300 reset bang;
#X obj 31 161 list split 1;
#X obj 31 182 list fromsymbol;
#X obj 31 203 f.util.asci2char;
#X obj 146 121 list split 1;
#X obj 146 142 list fromsymbol;
#X obj 146 163 f.util.asci2char;
#X obj 261 80 list split 1;
#X obj 261 101 list fromsymbol;
#X obj 261 122 f.util.asci2char;
#X obj 300 326 s to-faust;
#X obj 31 224 + 1;
#X obj 146 184 + 1;
#X obj 261 143 + 1;
#X obj 261 163 pack f f \$1;
#X obj 146 204 pack f f \$1;
#X obj 31 244 pack f f \$1;
#X msg 146 226 formuls\$3 threshold \$1 \$2;
#X msg 31 266 formuls\$3 extmodulation \$1 \$2;
#X obj 65 340 print me;
#X msg 261 185 formuls\$3 envside \$1 \$2;
#X connect 0 0 1 0;
#X connect 1 0 5 0;
#X connect 1 1 8 0;
#X connect 1 2 11 0;
#X connect 1 3 2 0;
#X connect 3 0 4 0;
#X connect 4 0 14 0;
#X connect 5 0 6 0;
#X connect 5 1 20 1;
#X connect 6 0 7 0;
#X connect 7 0 15 0;
#X connect 8 0 9 0;
#X connect 8 1 19 1;
#X connect 9 0 10 0;
#X connect 10 0 16 0;
#X connect 11 0 12 0;
#X connect 11 1 18 1;
#X connect 12 0 13 0;
#X connect 13 0 17 0;
#X connect 15 0 20 0;
#X connect 16 0 19 0;
#X connect 17 0 18 0;
#X connect 18 0 24 0;
#X connect 19 0 21 0;
#X connect 20 0 22 0;
#X connect 21 0 14 0;
#X connect 21 0 23 0;
#X connect 22 0 14 0;
#X connect 22 0 23 0;
#X connect 24 0 14 0;
#X connect 24 0 23 0;
#X restore 41 193 pd MOD_INPUT_____________;
#N canvas 152 446 1142 432 ENV_MASTER_PAN________ 0;
#X obj 17 27 inlet;
#X obj 1073 373 outlet;
#X obj 595 260 > 0;
#X obj 642 282 s \$0-volume;
#X obj 250 165 s reverb\$1;
#X obj 595 301 moses 1;
#X obj 595 322 pipe 10;
#X obj 595 343 t a;
#X msg 595 364 active \$1;
#X obj 595 281 change;
#X obj 943 70 route reset\$1;
#X obj 943 131 bng 15 250 50 0 empty empty empty 17 7 0 10 -262144
-1 -1;
#X obj 943 181 s \$0-reset;
#X obj 952 161 s \$1-reset;
#X obj 943 112 sel 1;
#X obj 950 91 s \$0-\$1-reset;
#X obj 17 76 route enveloperelease\$1 envelopereleasechaos\$1 envelopedepth\$1
envelopedepthchaos\$1 envside\$1 reverb\$1 reverbchaos\$1;
#X obj 110 214 f.util.oscformat \$0 \$1 envelopedepth 0;
#X obj 201 187 f.util.oscformat \$0 \$1 envelopeside 0;
#X obj 595 240 f.util.oscformat \$0 \$1 volume 0;
#X obj 467 406 f.util.oscformat \$0 \$1 panning 0.5;
#X obj 467 73 route panning\$1 panningchaos\$1 volume\$1 mute\$1 slew\$1
;
#X obj 719 97 f.util.oscformat \$0 \$1 slew 0;
#X obj 656 219 s to-faust;
#X obj 595 385 s to-faust;
#X obj 719 118 * 500;
#X obj 719 139 i;
#X obj 719 159 s \$0-slew;
#X obj 250 144 f.util.oscformat \$0 \$1 reverb 0;
#X obj 893 43 r resetglobal;
#X obj 18 242 f.util.oscformat \$0 \$1 enveloperelease 0 0 2.7;
#X obj 656 178 f.util.oscformat \$0 \$1 mute 0;
#X obj 656 199 i;
#X connect 0 0 16 0;
#X connect 2 0 3 0;
#X connect 5 0 6 0;
#X connect 5 1 7 0;
#X connect 6 0 7 0;
#X connect 7 0 8 0;
#X connect 8 0 24 0;
#X connect 9 0 5 0;
#X connect 10 0 14 0;
#X connect 10 0 15 0;
#X connect 10 1 1 0;
#X connect 11 0 12 0;
#X connect 11 0 13 0;
#X connect 14 0 11 0;
#X connect 16 0 30 0;
#X connect 16 1 30 1;
#X connect 16 2 17 0;
#X connect 16 3 17 1;
#X connect 16 4 18 0;
#X connect 16 5 28 0;
#X connect 16 6 28 1;
#X connect 16 7 21 0;
#X connect 19 0 2 0;
#X connect 21 0 20 0;
#X connect 21 1 20 1;
#X connect 21 2 19 0;
#X connect 21 3 31 0;
#X connect 21 4 22 0;
#X connect 21 5 10 0;
#X connect 22 0 25 0;
#X connect 25 0 26 0;
#X connect 26 0 27 0;
#X connect 28 0 4 0;
#X connect 29 0 15 0;
#X connect 29 0 14 0;
#X connect 31 0 32 0;
#X connect 32 0 23 0;
#X restore 41 171 pd ENV_MASTER_PAN________;
#N canvas 543 170 1377 764 FX____________________ 0;
#X obj 17 7 inlet;
#X obj 969 718 outlet;
#X obj 417 400 route gatethresh\$1 gatethreshchaos\$1 gateattack\$1
gateattackchaos\$1 gatehold\$1 gateholdchaos\$1 gaterelease\$1 gatereleasechaos\$1
;
#X obj 1003 90 unpack f f;
#X obj 1192 112 unpack f f;
#X obj 1219 279 s formuls\$1;
#X obj 1219 257 oscformat amact\$1;
#N canvas 785 321 530 512 AM_QUANTISE 0;
#X floatatom 294 58 5 0 0 0 - - -;
#X text 385 90 bpm to hz;
#X text 383 157 99.9 + 0.1;
#X obj 294 105 /;
#X floatatom 294 129 5 0 0 0 - - -;
#X obj 294 177 /;
#X floatatom 294 201 5 0 0 0 - - -;
#X msg 294 81 60 \$1;
#X msg 294 153 0.5 \$1;
#X obj 282 281 *;
#X obj 282 255 f;
#X obj 294 224 t b f;
#X obj 147 152 sel 0 1 2 3;
#X msg 147 188 1;
#X msg 179 188 2;
#X msg 212 188 4;
#X msg 244 188 8;
#X obj 147 229 t a;
#X msg 335 270 1 3.1;
#X obj 335 294 /;
#X obj 305 345 pow;
#X floatatom 335 318 5 0 0 0 - - -;
#X floatatom 305 373 5 0 0 0 - - -;
#X obj 288 308 / 100;
#X text 31 32 from interface (0-1 / number_of_steps);
#X obj 35 9 inlet;
#X obj 148 112 * 4;
#X obj 148 133 int;
#X obj 294 32 r bpmglobal;
#X obj 338 247 loadbang;
#X obj 148 66 r evenglobal;
#X obj 35 90 f.util.switch;
#X obj 124 431 outlet;
#X floatatom 230 313 5 0 0 0 - - -;
#X obj 232 429 oscformat amfreq;
#X obj 232 450 s \$0-OSC-collect-\$1;
#X connect 0 0 7 0;
#X connect 3 0 4 0;
#X connect 4 0 8 0;
#X connect 5 0 6 0;
#X connect 6 0 11 0;
#X connect 7 0 3 0;
#X connect 8 0 5 0;
#X connect 9 0 23 0;
#X connect 9 0 33 0;
#X connect 10 0 9 0;
#X connect 11 0 10 0;
#X connect 11 1 9 1;
#X connect 12 0 13 0;
#X connect 12 1 14 0;
#X connect 12 2 15 0;
#X connect 12 3 16 0;
#X connect 13 0 17 0;
#X connect 14 0 17 0;
#X connect 15 0 17 0;
#X connect 16 0 17 0;
#X connect 17 0 10 0;
#X connect 18 0 19 0;
#X connect 19 0 21 0;
#X connect 20 0 22 0;
#X connect 21 0 20 1;
#X connect 22 0 34 0;
#X connect 22 0 32 0;
#X connect 23 0 20 0;
#X connect 25 0 31 0;
#X connect 26 0 27 0;
#X connect 27 0 12 0;
#X connect 28 0 0 0;
#X connect 29 0 18 0;
#X connect 30 0 31 1;
#X connect 31 0 34 0;
#X connect 31 0 32 0;
#X connect 31 1 26 0;
#X connect 34 0 35 0;
#X restore 1003 221 pd AM_QUANTISE;
#X obj 800 588 s fx-routing-\$1;
#X obj 1065 158 r xglobal;
#X obj 1122 96 r yglobal;
#X obj 1060 114 f.util.switch;
#X obj 1003 176 f.util.switch;
#X obj 1003 26 route amfreqdepth\$1 amfreqdepthchaos\$1 amwave\$1 amwavechaos\$1
;
#X obj 800 533 route fxpostpre\$1 fxsend\$1 fxsendchaos\$1;
#X obj 257 106 f.util.oscformat \$0 \$1 pitchshift 0.5;
#X obj 1142 65 f.util.oscformat \$0 \$1 amwave 0 4;
#X obj 879 567 f.util.oscformat \$0 \$1 fxsend 1;
#X obj 517 124 r \$2-bpm;
#X obj 495 259 clip 0 1;
#X obj 517 166 /;
#X msg 517 145 120 \$1;
#X obj 495 238 *;
#X obj 517 188 t b f;
#X obj 495 212 f;
#N canvas 0 23 342 300 DELAYMAP 0;
#X obj 54 22 inlet;
#X obj 54 240 outlet;
#X text 134 64 1 \, 3/4 \, 1/2 \, 1/4 \, 1/8;
#X obj 54 53 * 5;
#X obj 54 74 + 1;
#X obj 54 95 i;
#X obj 54 116 sel 1 2 3 4 5;
#X obj 54 198 f;
#X msg 227 158 1;
#X msg 183 158 0.75;
#X msg 143 158 0.5;
#X msg 103 158 0.25;
#X msg 54 157 0.125;
#X connect 0 0 3 0;
#X connect 3 0 4 0;
#X connect 4 0 5 0;
#X connect 5 0 6 0;
#X connect 6 0 12 0;
#X connect 6 1 11 0;
#X connect 6 2 10 0;
#X connect 6 3 9 0;
#X connect 6 4 8 0;
#X connect 6 5 8 0;
#X connect 7 0 1 0;
#X connect 8 0 7 0;
#X connect 9 0 7 0;
#X connect 10 0 7 0;
#X connect 11 0 7 0;
#X connect 12 0 7 0;
#X restore 495 100 pd DELAYMAP;
#X obj 1003 312 oscformat amfreqdepth\$1;
#X obj 1003 333 s \$1-message-collect;
#X obj 14 347 unpack f f;
#X obj 211 372 unpack f f;
#X obj 80 414 r xglobal;
#X obj 133 356 r yglobal;
#X obj 14 432 f.util.switch;
#X obj 71 374 f.util.switch;
#X obj 14 518 s \$1-message-collect;
#X obj 14 451 f.util.oscformat \$0 \$1 saturation 0;
#X obj 97 150 unpack f f;
#X obj 292 175 unpack f f;
#X obj 163 217 r xglobal;
#X obj 216 159 r yglobal;
#X obj 97 235 f.util.switch;
#X obj 154 177 f.util.switch;
#X obj 97 321 s \$1-message-collect;
#X obj 17 40 route distortion\$1 distortionachaos\$1 resonantfilter\$1
resonantfilterchaos\$1 highpass\$1 highpasschaos\$1 pitchshift\$1 pitchshiftchaos\$1
;
#X obj 14 497 oscformat distortion\$1;
#X obj 97 300 oscformat resonantfilter\$1;
#X obj 658 55 unpack f f;
#X obj 872 115 unpack f f;
#X obj 724 157 r xglobal;
#X obj 796 99 r yglobal;
#X obj 658 175 f.util.switch;
#X obj 734 117 f.util.switch;
#X obj 658 261 s \$1-message-collect;
#X obj 734 138 f.util.oscformat \$0 \$1 delayfeedback 0;
#X obj 658 240 oscformat delay\$1;
#X obj 177 128 f.util.oscformat \$0 \$1 highpass 0;
#X obj 97 254 f.util.oscformat \$0 \$1 lowpass 1;
#X obj 14 475 f.util.pak;
#X obj 97 278 f.util.pak;
#X obj 658 218 f.util.pak;
#X obj 1003 289 f.util.pak;
#X obj 495 28 route delaytime\$1 delaytimechaos\$1 delay\$1 delaychaos\$1
;
#X obj 495 287 f.util.oscformat \$0 \$1 delaytime 0;
#X obj 1060 134 f.util.oscformat \$0 \$1 amdepth 0 0 3.1;
#X obj 71 395 f.util.oscformat \$0 \$1 bitcrush 0 10 2.7;
#X text 310 376 <- This may need to be something like 0.6;
#X obj 658 194 f.util.oscformat \$0 \$1 delaysend 0 0 2.7;
#X obj 418 517 f.util.oscformat \$0 \$1 gatethresh 0 0 0.3;
#X obj 503 496 f.util.oscformat \$0 \$1 gateattack 0 0 3;
#X obj 589 476 f.util.oscformat \$0 \$1 gatehold 0 0 3;
#X obj 675 456 f.util.oscformat \$0 \$1 gaterelease 0 0 3;
#X obj 154 198 f.util.oscformat \$0 \$1 filterresonance 0 0 2.7;
#X obj 1003 246 f.util.oscformat \$0 \$1 amfreq 0;
#X obj 1003 198 pow 4;
#X obj 1003 267 pow 0.25;
#X connect 0 0 43 0;
#X connect 2 0 67 0;
#X connect 2 1 67 1;
#X connect 2 2 68 0;
#X connect 2 3 68 1;
#X connect 2 4 69 0;
#X connect 2 5 69 1;
#X connect 2 6 70 0;
#X connect 2 7 70 1;
#X connect 2 8 14 0;
#X connect 3 0 12 0;
#X connect 3 1 11 0;
#X connect 4 0 72 1;
#X connect 4 1 63 1;
#X connect 6 0 5 0;
#X connect 7 0 72 0;
#X connect 9 0 12 1;
#X connect 10 0 11 1;
#X connect 11 0 63 0;
#X connect 12 0 73 0;
#X connect 13 0 3 0;
#X connect 13 1 4 0;
#X connect 13 2 16 0;
#X connect 13 3 16 1;
#X connect 13 4 2 0;
#X connect 14 0 8 0;
#X connect 14 1 17 0;
#X connect 14 2 17 1;
#X connect 14 3 1 0;
#X connect 18 0 21 0;
#X connect 19 0 62 0;
#X connect 20 0 23 0;
#X connect 21 0 20 0;
#X connect 22 0 19 0;
#X connect 23 0 24 0;
#X connect 23 1 22 1;
#X connect 24 0 22 0;
#X connect 25 0 24 0;
#X connect 26 0 27 0;
#X connect 28 0 32 0;
#X connect 28 1 33 0;
#X connect 29 0 35 1;
#X connect 29 1 64 1;
#X connect 30 0 32 1;
#X connect 31 0 33 1;
#X connect 32 0 35 0;
#X connect 33 0 64 0;
#X connect 35 0 57 0;
#X connect 36 0 40 0;
#X connect 36 1 41 0;
#X connect 37 0 56 1;
#X connect 37 1 71 1;
#X connect 38 0 40 1;
#X connect 39 0 41 1;
#X connect 40 0 56 0;
#X connect 41 0 71 0;
#X connect 43 0 28 0;
#X connect 43 1 29 0;
#X connect 43 2 36 0;
#X connect 43 3 37 0;
#X connect 43 4 55 0;
#X connect 43 5 55 1;
#X connect 43 6 15 0;
#X connect 43 7 15 1;
#X connect 43 8 61 0;
#X connect 44 0 34 0;
#X connect 45 0 42 0;
#X connect 46 0 50 0;
#X connect 46 1 51 0;
#X connect 47 0 66 1;
#X connect 47 1 53 1;
#X connect 48 0 50 1;
#X connect 49 0 51 1;
#X connect 50 0 66 0;
#X connect 51 0 53 0;
#X connect 53 0 59 1;
#X connect 54 0 52 0;
#X connect 56 0 58 0;
#X connect 57 0 44 0;
#X connect 58 0 45 0;
#X connect 59 0 54 0;
#X connect 60 0 26 0;
#X connect 61 0 25 0;
#X connect 61 1 62 1;
#X connect 61 2 46 0;
#X connect 61 3 47 0;
#X connect 61 4 13 0;
#X connect 63 0 60 1;
#X connect 64 0 57 1;
#X connect 66 0 59 0;
#X connect 71 0 58 1;
#X connect 72 0 74 0;
#X connect 73 0 7 0;
#X connect 74 0 60 0;
#X restore 41 149 pd FX____________________;
#N canvas 74 78 1238 800 SEQ___________________ 0;
#X obj 43 8 inlet;
#X obj 1089 803 outlet;
#X msg 44 454 \$1;
#X obj 611 216 s \$0-seq-random-vel;
#X obj 1072 38 r \$0-reset;
#X obj 478 649 pow 2.7;
#X obj 478 670 * 100;
#X obj 927 621 s \$0-seq-trigger;
#X obj 927 581 change;
#X msg 44 582 timebase \$1;
#X obj 44 603 s \$0-seq-messages;
#X msg 481 414 randomadd \$1;
#X obj 481 435 s \$0-seq-messages;
#X msg 561 257 randomdrop \$1;
#X obj 561 278 s \$0-seq-messages;
#X msg 677 154 swing \$1;
#X obj 677 175 s \$0-seq-messages;
#X msg 742 91 seqinvert \$1;
#X obj 742 112 s \$0-seq-messages;
#X msg 478 711 delay \$1;
#X obj 478 732 s \$0-seq-messages;
#X msg 545 586 warp \$1;
#X obj 545 607 s \$0-seq-messages;
#X msg 612 521 beatsync \$1;
#X obj 612 542 s \$0-seq-messages;
#X msg 803 730 timebasemultiplier \$1;
#X obj 803 751 s \$0-seq-messages;
#X msg 1072 60 reset bang;
#X obj 1072 81 s \$0-seq-messages;
#X obj 927 601 sel 0;
#X obj 927 561 spigot;
#X obj 803 669 * 4;
#X obj 960 519 r \$0-seq-messages;
#X obj 960 540 route seqon;
#X obj 742 71 f.seq.automater \$0 \$0-seq-inv;
#X obj 677 133 f.seq.automater \$0 \$0-seq-swing;
#X obj 611 195 f.seq.automater \$0 \$0-seq-random-vel;
#X obj 561 237 f.seq.automater \$0 \$0-seq-random-drop;
#X obj 481 349 f.seq.automater \$0 \$0-seq-random-add 0 0;
#X obj 545 565 f.seq.automater \$0 \$0-seq-warp;
#X obj 478 628 f.seq.automater \$0 \$0-seq-delay;
#X obj 927 498 f.seq.automater \$0 \$0-seq-trigger 0 1;
#X obj 803 626 / 4;
#X obj 803 469 route seqtimebasemultiplier\$1 seqtrigger\$1;
#X msg 75 473 chaos \$1;
#X obj 44 541 i;
#X obj 308 453 r \$0-value-send;
#X msg 137 474 chaostrig \$1;
#X obj 44 475 / 8;
#X obj 44 562 clip 1 8;
#X obj 44 521 * 8;
#X msg 308 474 ctrig bang;
#X msg 494 273 chaos \$1;
#X obj 490 393 s seq-messages-\$1;
#X msg 490 372 seqrandomadd \$1;
#X obj 481 40 route seqrandomadd\$1 seqrandomaddchaos\$1 seqrandomvel\$1
seqswing\$1 seqinv\$1;
#X msg 162 248 \$1;
#X obj 337 159 s \$0-sequencer-gui;
#X obj 162 329 i;
#X msg 162 349 seqlength \$1;
#X obj 162 370 s \$0-seq-messages;
#X obj 346 132 s \$0-seq-messages;
#X obj 275 204 s \$0-seq-messages;
#X msg 275 183 seqwrite \$1 \$2;
#X msg 346 111 seqon \$1;
#X obj 346 88 f.seq.automater \$0 \$0-seq-on 0 0;
#X obj 162 267 / 64;
#X obj 162 308 * 64;
#X obj 162 286 f.seq.automater \$0 \$0-seq-length 1 1;
#X obj 275 137 list;
#X obj 275 93 fudiformat;
#X obj 275 114 fudiparse;
#X msg 275 158 \$1 \$2;
#X obj 478 474 route seqdelay\$1 seqwarp\$1 async\$1;
#X msg 497 327 active \$1;
#X msg 636 327 chaostrig \$1;
#X obj 497 306 r \$0-seqrandomadd-act;
#X obj 803 690 f;
#X obj 803 711 clip 0 4;
#X obj 637 306 r \$0-seqrandomadd-chaostrig;
#X obj 137 454 r \$0-seqtimebase-chaos-trig;
#X obj 478 691 i;
#X obj 44 500 f.seq.automater \$0 \$0-seq-time-base 0.125;
#X obj 803 649 f.seq.automater \$0 \$0-seq-time-base-multiplier 0.25
0;
#X obj 612 499 f.seq.automater \$0 \$0-async 0;
#X obj 168 522 r \$0-slew;
#X msg 168 543 slew \$1;
#X msg 170 589 lfofreq \$1;
#X msg 184 633 lfodepth \$1;
#X obj 171 568 r \$0-seqtimebase\$1-lfofreq;
#X obj 185 612 r \$0-seqtimebase\$1-lfodepth;
#X obj 959 670 r \$0-slew;
#X msg 959 691 slew \$1;
#X msg 961 737 lfofreq \$1;
#X msg 975 781 lfodepth \$1;
#X obj 962 716 r \$0-seqtimebasemultiplier\$1-lfofreq;
#X obj 976 760 r \$0-seqtimebasemultiplier\$1-lfodepth;
#X obj 295 310 r \$0-slew;
#X msg 295 331 slew \$1;
#X msg 297 377 lfofreq \$1;
#X msg 311 421 lfodepth \$1;
#X obj 298 356 r \$0-seqlength\$1-lfofreq;
#X obj 312 400 r \$0-seqlength\$1-lfodepth;
#X obj 44 51 route seqtimebase\$1 seqtimebasechaos\$1 seqlength\$1
seqlengthchaos\$1 seqwrite\$1 seqon\$1;
#X msg 200 262 chaos \$1;
#X obj 394 260 r \$0-value-send;
#X msg 262 253 chaostrig \$1;
#X msg 394 281 ctrig bang;
#X obj 262 233 r \$0-seqlength-chaos-trig;
#X connect 0 0 103 0;
#X connect 2 0 48 0;
#X connect 4 0 27 0;
#X connect 5 0 6 0;
#X connect 6 0 81 0;
#X connect 8 0 29 0;
#X connect 9 0 10 0;
#X connect 11 0 12 0;
#X connect 13 0 14 0;
#X connect 15 0 16 0;
#X connect 17 0 18 0;
#X connect 19 0 20 0;
#X connect 21 0 22 0;
#X connect 23 0 24 0;
#X connect 25 0 26 0;
#X connect 27 0 28 0;
#X connect 29 1 7 0;
#X connect 30 0 8 0;
#X connect 31 0 77 0;
#X connect 32 0 33 0;
#X connect 33 0 30 1;
#X connect 34 0 17 0;
#X connect 35 0 15 0;
#X connect 36 0 3 0;
#X connect 37 0 13 0;
#X connect 38 0 11 0;
#X connect 38 0 54 0;
#X connect 39 0 21 0;
#X connect 40 0 5 0;
#X connect 41 0 30 0;
#X connect 42 0 83 0;
#X connect 43 0 42 0;
#X connect 43 1 41 0;
#X connect 43 2 1 0;
#X connect 44 0 82 0;
#X connect 45 0 49 0;
#X connect 46 0 51 0;
#X connect 47 0 82 0;
#X connect 48 0 82 0;
#X connect 49 0 9 0;
#X connect 50 0 45 0;
#X connect 51 0 82 0;
#X connect 52 0 38 0;
#X connect 54 0 53 0;
#X connect 55 0 38 0;
#X connect 55 1 52 0;
#X connect 55 2 36 0;
#X connect 55 3 35 0;
#X connect 55 4 34 0;
#X connect 55 5 73 0;
#X connect 56 0 66 0;
#X connect 58 0 59 0;
#X connect 59 0 60 0;
#X connect 63 0 62 0;
#X connect 64 0 61 0;
#X connect 65 0 64 0;
#X connect 66 0 68 0;
#X connect 67 0 58 0;
#X connect 68 0 67 0;
#X connect 69 0 72 0;
#X connect 70 0 71 0;
#X connect 71 0 69 0;
#X connect 72 0 63 0;
#X connect 73 0 40 0;
#X connect 73 1 39 0;
#X connect 73 2 84 0;
#X connect 73 3 43 0;
#X connect 74 0 38 0;
#X connect 75 0 38 0;
#X connect 76 0 74 0;
#X connect 77 0 78 0;
#X connect 78 0 25 0;
#X connect 79 0 75 0;
#X connect 80 0 47 0;
#X connect 81 0 19 0;
#X connect 82 0 50 0;
#X connect 83 0 31 0;
#X connect 84 0 23 0;
#X connect 85 0 86 0;
#X connect 86 0 82 0;
#X connect 87 0 82 0;
#X connect 88 0 82 0;
#X connect 89 0 87 0;
#X connect 90 0 88 0;
#X connect 91 0 92 0;
#X connect 92 0 83 0;
#X connect 93 0 83 0;
#X connect 94 0 83 0;
#X connect 95 0 93 0;
#X connect 96 0 94 0;
#X connect 97 0 98 0;
#X connect 98 0 68 0;
#X connect 99 0 68 0;
#X connect 100 0 68 0;
#X connect 101 0 99 0;
#X connect 102 0 100 0;
#X connect 103 0 2 0;
#X connect 103 1 44 0;
#X connect 103 2 56 0;
#X connect 103 3 104 0;
#X connect 103 4 70 0;
#X connect 103 5 65 0;
#X connect 103 6 55 0;
#X connect 104 0 68 0;
#X connect 105 0 107 0;
#X connect 106 0 68 0;
#X connect 107 0 68 0;
#X connect 108 0 106 0;
#X restore 41 127 pd SEQ___________________;
#N canvas 816 266 624 464 ADSR_VEL_TRIG_________ 0;
#X obj 37 17 inlet;
#X obj 454 424 outlet;
#X obj 231 290 f;
#X obj 257 246 sel 1;
#X obj 368 156 r \$0-reset;
#X msg 368 177 0;
#X obj 360 199 s \$1-keyboard-active;
#X obj 231 310 f.util.oscformat \$0 \$1 polyphonic 0;
#X obj 295 247 f.util.oscformat \$0 \$1 threshold 1;
#X obj 338 223 f.util.oscformat \$0 \$1 triggerx 0;
#X obj 37 60 route adsron\$1 attack\$1 attackchaos\$1 decay\$1 decaychaos\$1
sustain\$1 sustainchaos\$1 release\$1 releasechaos\$1 polyphonic\$1
velocity\$1 velocitychaos\$1 threshold\$1 thresholdchaos\$1 triggerx\$1
keyboard\$1 chordsize\$1;
#X obj 369 131 s \$0-chord-size;
#X msg 416 98 1;
#X obj 144 356 f.util.oscformat \$0 \$1 sustain 0;
#X obj 319 174 sel 1;
#X msg 319 195 1;
#X obj 37 422 f.util.oscformat \$0 \$1 adsron 0;
#X obj 101 379 f.util.oscformat \$0 \$1 decay 0 0 3.1;
#X obj 187 333 f.util.oscformat \$0 \$1 release 0 0 3.1;
#X obj 252 270 f.util.oscformat \$0 \$1 velocity 0 0 2.7;
#X obj 59 400 f.util.oscformat \$0 \$1 attack 0 0 3.5;
#X connect 0 0 10 0;
#X connect 2 0 7 0;
#X connect 3 0 19 0;
#X connect 4 0 5 0;
#X connect 4 0 12 0;
#X connect 5 0 6 0;
#X connect 9 0 3 0;
#X connect 10 0 16 0;
#X connect 10 1 20 0;
#X connect 10 2 20 1;
#X connect 10 3 17 0;
#X connect 10 4 17 1;
#X connect 10 5 13 0;
#X connect 10 6 13 1;
#X connect 10 7 18 0;
#X connect 10 8 18 1;
#X connect 10 9 2 0;
#X connect 10 10 19 0;
#X connect 10 11 19 1;
#X connect 10 12 8 0;
#X connect 10 13 8 1;
#X connect 10 14 14 0;
#X connect 10 15 6 0;
#X connect 10 16 11 0;
#X connect 10 17 1 0;
#X connect 12 0 11 0;
#X connect 14 0 15 0;
#X connect 15 0 9 0;
#X restore 41 105 pd ADSR_VEL_TRIG_________;
#N canvas 856 78 584 757 GEN_EUC_______________ 0;
#X obj 37 38 inlet;
#X obj 464 726 outlet;
#X obj 38 692 s \$0-gen-range;
#X obj 38 622 f;
#X msg 74 538 chaos \$1;
#X obj 110 426 i;
#X obj 110 488 s \$0-gen-min;
#X obj 38 536 / 24;
#X obj 38 603 * 24;
#X obj 38 584 f;
#X obj 328 147 s \$0-gen-on-off;
#X obj 328 125 f.seq.automater \$0 \$0-gen-on-off 0;
#X obj 110 405 * 8;
#X obj 110 361 / 8;
#X msg 147 361 chaos \$1;
#X obj 183 295 f.seq.automater \$0 \$0-gen-direction 0;
#X obj 183 274 / 4;
#X msg 219 273 chaos \$1;
#N canvas 0 23 450 300 GEN-MAPPING 0;
#X obj 37 37 inlet;
#X obj 37 79 * 4;
#X obj 37 100 i;
#X obj 38 121 + 1;
#X obj 38 142 mod 4;
#X floatatom 38 163 5 0 0 0 - - -;
#X obj 38 183 s \$0-gen-direction;
#X connect 0 0 1 0;
#X connect 1 0 2 0;
#X connect 2 0 3 0;
#X connect 3 0 4 0;
#X connect 4 0 5 0;
#X connect 5 0 6 0;
#X restore 183 316 pd GEN-MAPPING;
#X obj 256 243 s \$0-gen-repeat;
#X msg 292 181 chaos \$1;
#X obj 256 178 / 8;
#X obj 256 223 * 8;
#X obj 55 309 r \$0-value-send;
#X msg 208 362 chaostrig \$1;
#X obj 208 341 r \$0-genstep-chaos-trig;
#X msg 133 539 chaostrig \$1;
#X obj 50 670 s \$1-gen-messages;
#X msg 50 648 genrange \$1;
#X obj 119 468 s \$1-gen-messages;
#X msg 119 446 gensteps \$1;
#X msg 55 330 ctrig bang;
#X obj 38 76 route genrange\$1 genrangechaos\$1 genstepsize\$1 genstepsizechaos\$1
gendirection\$1 gdchaos\$1 genrepeat\$1 genrepeatchaos\$1 genon\$1
;
#X obj 133 518 r \$0-genrange-chaostrig;
#X obj 363 341 r \$0-genstepsize-act;
#X msg 363 362 active \$1;
#X msg 281 538 active \$1;
#X obj 281 517 r \$0-genrange-act;
#X obj 38 562 f.seq.automater \$0 \$0-gen-range 0.0417;
#X obj 110 386 f.seq.automater \$0 \$0-gen-min 0.125;
#X obj 256 202 f.seq.automater \$0 \$0-gen-repeat 0.125;
#X connect 0 0 32 0;
#X connect 3 0 2 0;
#X connect 3 0 28 0;
#X connect 4 0 38 0;
#X connect 5 0 6 0;
#X connect 5 0 30 0;
#X connect 7 0 38 0;
#X connect 8 0 3 0;
#X connect 9 0 8 0;
#X connect 11 0 10 0;
#X connect 12 0 5 0;
#X connect 13 0 39 0;
#X connect 14 0 39 0;
#X connect 15 0 18 0;
#X connect 16 0 15 0;
#X connect 17 0 15 0;
#X connect 20 0 40 0;
#X connect 21 0 40 0;
#X connect 22 0 19 0;
#X connect 23 0 31 0;
#X connect 24 0 39 0;
#X connect 25 0 24 0;
#X connect 26 0 38 0;
#X connect 28 0 27 0;
#X connect 30 0 29 0;
#X connect 31 0 38 0;
#X connect 31 0 39 0;
#X connect 32 0 7 0;
#X connect 32 1 4 0;
#X connect 32 2 13 0;
#X connect 32 3 14 0;
#X connect 32 4 16 0;
#X connect 32 5 17 0;
#X connect 32 6 21 0;
#X connect 32 7 20 0;
#X connect 32 8 11 0;
#X connect 32 9 1 0;
#X connect 33 0 26 0;
#X connect 34 0 35 0;
#X connect 35 0 39 0;
#X connect 36 0 38 0;
#X connect 37 0 36 0;
#X connect 38 0 9 0;
#X connect 39 0 12 0;
#X connect 40 0 22 0;
#X restore 41 84 pd GEN_EUC_______________;
#N canvas 892 177 1047 697 OP1_OP2_NOISE_________ 0;
#X obj 7 10 inlet;
#X obj 7 460 unpack f f;
#X obj 220 484 unpack f f;
#X obj 516 320 unpack f f;
#X obj 723 338 unpack f f;
#X obj 643 87 unpack f f;
#X obj 832 104 unpack f f;
#X obj 821 626 outlet;
#X obj 206 231 unpack f f;
#X obj 431 256 unpack f f;
#X obj 70 541 r xglobal;
#X obj 126 468 r yglobal;
#X obj 272 298 r xglobal;
#X obj 325 240 r yglobal;
#X obj 578 387 r xglobal;
#X obj 635 324 r yglobal;
#X obj 7 558 f.util.switch;
#X obj 64 486 f.util.switch;
#X obj 206 316 f.util.switch;
#X obj 263 258 f.util.switch;
#X obj 516 405 f.util.switch;
#X obj 573 342 f.util.switch;
#X obj 701 113 f.util.switch;
#X obj 643 175 f.util.switch;
#X obj 307 208 s \$0-op1-freq-snap;
#X obj 317 84 loadbang;
#X msg 317 146 0;
#X obj 324 103 r \$0-reset;
#X obj 324 124 del 50;
#X obj 318 168 oscformat freqsnap\$1;
#X obj 318 189 s to-o-s-c-interface;
#X obj 705 157 r xglobal;
#X obj 763 95 r yglobal;
#X obj 516 425 f.util.oscformat \$0 \$1 op2freq 0 8;
#X obj 573 362 f.util.oscformat \$0 \$1 op2depth 0 8;
#X obj 206 335 f.util.oscformat \$0 \$1 op1sliderange 0;
#X obj 64 507 f.util.oscformat \$0 \$1 waveshape 0 4;
#X obj 7 53 route op1\$1 op1chaos\$1 extmodulation\$1 extmodulationchaos\$1
op1slide\$1 op1slidechaos\$1 freqsnap\$1;
#X obj 516 59 route op2\$1 op2chaos\$1 noise\$1 noisechaos\$1;
#N canvas 411 23 767 311 OP1FREQ_PITCH_QUANTISE 0;
#X msg 112 101 active \$1;
#X obj 196 180 oscformat op1pitchgui\$1;
#X obj 44 79 pow 2.7;
#X msg 44 99 chaos \$1;
#X obj 31 134 f.seq.automater \$0 \$0-op1freq 0 0;
#N canvas 799 310 337 312 FREQ_SNAP_NOTE_GEN__ 0;
#X obj 62 139 mtof;
#X obj 62 117 t f f;
#X obj 107 172 i;
#X obj 62 20 inlet;
#X obj 62 268 outlet;
#X obj 107 268 outlet;
#X obj 107 195 pack f s;
#X msg 107 221 symbol \$2:\$1Hz;
#N canvas 563 94 390 784 NOTE_SNAP 0;
#X obj 51 17 inlet;
#X obj 51 736 outlet;
#X obj 158 336 +;
#X obj 139 205 r \$0-value-send;
#X obj 181 429 spigot;
#X obj 87 207 t f f;
#X msg 198 80 stop;
#X obj 214 406 == 0;
#X msg 188 122 1;
#X obj 188 101 del 50;
#X obj 190 267 r \$0-op1-freq-snap;
#X obj 139 226 t b b b;
#X obj 188 16 inlet;
#X obj 233 17 inlet;
#X obj 181 452 f.util.keyselector \$0;
#X obj 158 364 f.util.keyselector \$0;
#X obj 158 494 spigot;
#X obj 191 472 r \$0-op1-freq-snap;
#X msg 96 577 0;
#X obj 96 556 sel 1 0;
#X obj 124 577 del 50;
#X msg 124 598 1;
#X obj 96 620 t a;
#X obj 96 535 r \$0-\$1-reset;
#X obj 51 642 spigot 1;
#N canvas 0 23 450 300 PITCH_LENGTH_CALCULATE 0;
#X obj 41 155 * 127;
#X obj 56 93 r pitch-gamut-length;
#X text 104 133 <- "* 11": total number of octaves covered by the pitch
range;
#X text 87 161 <- total number of pitches covered by the 11 octave
pitch range;
#X obj 68 135 * 10;
#X obj 56 114 t b f;
#X obj 41 135 f;
#X obj 41 30 inlet;
#X obj 41 236 outlet;
#X connect 0 0 8 0;
#X connect 1 0 5 0;
#X connect 4 0 0 1;
#X connect 5 0 6 0;
#X connect 5 1 4 0;
#X connect 6 0 0 0;
#X connect 7 0 6 0;
#X restore 87 181 pd PITCH_LENGTH_CALCULATE;
#X obj 51 145 t f f;
#X obj 188 143 t f f;
#N canvas 0 23 335 382 FREQ_SNAP___ 0;
#X obj 78 189 spigot;
#X obj 125 131 spigot;
#X obj 78 168 f;
#X obj 78 132 * 115;
#X obj 158 103 == 0;
#X obj 158 82 r \$0-op1-freq-snap;
#X obj 78 231 line 0 1;
#X msg 78 210 \$1 20;
#X obj 77 252 change;
#X obj 77 17 inlet;
#X obj 125 17 inlet;
#X obj 77 313 outlet;
#X connect 0 0 7 0;
#X connect 1 0 2 0;
#X connect 2 0 0 0;
#X connect 3 0 2 0;
#X connect 4 0 0 1;
#X connect 4 0 1 1;
#X connect 5 0 4 0;
#X connect 6 0 8 0;
#X connect 7 0 6 0;
#X connect 8 0 11 0;
#X connect 9 0 3 0;
#X connect 10 0 1 0;
#X restore 51 282 pd FREQ_SNAP___;
#N canvas 160 90 303 400 NOTE_GEN______ 0;
#X obj 123 144 r \$0-gen-direction;
#X obj 80 326 outlet;
#X obj 81 43 inlet;
#X obj 113 123 r \$0-gen-min;
#X obj 95 213 r \$0-gen-invert;
#X obj 95 234 sel 0 1;
#X msg 95 255 1;
#X msg 127 253 -1;
#X obj 80 283 * 1;
#X obj 81 186 f.gen.drunk;
#X obj 81 70 t b;
#X obj 93 103 r \$0-gen-range;
#X obj 133 165 r \$0-gen-repeat;
#X connect 0 0 9 4;
#X connect 2 0 10 0;
#X connect 3 0 9 2;
#X connect 3 0 9 3;
#X connect 4 0 5 0;
#X connect 5 0 6 0;
#X connect 5 1 7 0;
#X connect 6 0 8 1;
#X connect 7 0 8 1;
#X connect 8 0 1 0;
#X connect 9 0 8 0;
#X connect 10 0 9 0;
#X connect 11 0 9 0;
#X connect 12 0 9 5;
#X restore 178 314 pd NOTE_GEN______;
#X msg 233 120 1;
#X obj 158 391 spigot 1;
#X obj 158 292 spigot;
#X obj 243 240 f.util.floatint;
#X obj 158 271 i;
#X connect 0 0 26 0;
#X connect 2 0 15 0;
#X connect 3 0 11 0;
#X connect 4 0 14 0;
#X connect 5 0 34 0;
#X connect 5 1 4 0;
#X connect 6 0 9 0;
#X connect 7 0 4 1;
#X connect 8 0 27 0;
#X connect 9 0 8 0;
#X connect 10 0 32 1;
#X connect 11 0 28 1;
#X connect 11 1 34 0;
#X connect 11 2 29 0;
#X connect 12 0 9 0;
#X connect 13 0 6 0;
#X connect 13 0 30 0;
#X connect 14 0 16 0;
#X connect 15 0 31 0;
#X connect 16 0 24 0;
#X connect 17 0 16 1;
#X connect 18 0 22 0;
#X connect 19 0 18 0;
#X connect 19 1 20 0;
#X connect 20 0 21 0;
#X connect 21 0 22 0;
#X connect 22 0 24 1;
#X connect 23 0 19 0;
#X connect 24 0 1 0;
#X connect 25 0 5 0;
#X connect 26 0 28 0;
#X connect 26 1 25 0;
#X connect 27 0 31 1;
#X connect 27 1 7 0;
#X connect 28 0 24 0;
#X connect 29 0 2 1;
#X connect 30 0 27 0;
#X connect 31 0 16 0;
#X connect 32 0 2 0;
#X connect 34 0 32 0;
#X restore 62 96 pd NOTE_SNAP;
#X obj 152 172 f.util.midi2notename;
#X connect 0 0 2 0;
#X connect 0 0 4 0;
#X connect 1 0 0 0;
#X connect 1 1 9 0;
#X connect 2 0 6 0;
#X connect 3 0 8 0;
#X connect 6 0 7 0;
#X connect 7 0 5 0;
#X connect 8 0 1 0;
#X connect 9 0 6 1;
#X restore 61 157 pd FREQ_SNAP_NOTE_GEN__;
#X obj 232 80 r \$0-value-send;
#X msg 375 101 chaostrig \$1;
#X msg 528 101 looptrig \$1;
#X obj 61 178 pack f \$1;
#X obj 31 15 inlet;
#X obj 84 15 inlet;
#X obj 31 252 outlet;
#X obj 61 221 s to-faust;
#X obj 375 80 r \$0-op1freq\$1-chaostrig;
#X obj 528 80 r \$0-op1freq\$1-trig;
#X obj 112 80 r \$0-op1freq\$1-act;
#X msg 232 101 trig bang \, ctrig bang;
#X msg 61 200 formuls\$2 op1freq \$1;
#X obj 513 129 r \$0-slew;
#X msg 513 150 slew \$1;
#X obj 515 175 r \$0-op1freq\$1-lfofreq;
#X msg 515 196 lfofreq \$1;
#X msg 529 240 lfodepth \$1;
#X obj 529 219 r \$0-op1freq\$1-lfodepth;
#X obj 196 201 s to-o-s-c-interface;
#X connect 0 0 4 0;
#X connect 1 0 25 0;
#X connect 2 0 3 0;
#X connect 3 0 4 0;
#X connect 4 0 5 0;
#X connect 4 0 12 0;
#X connect 5 0 9 0;
#X connect 5 1 1 0;
#X connect 6 0 17 0;
#X connect 7 0 4 0;
#X connect 8 0 4 0;
#X connect 9 0 18 0;
#X connect 10 0 4 0;
#X connect 11 0 2 0;
#X connect 14 0 7 0;
#X connect 15 0 8 0;
#X connect 16 0 0 0;
#X connect 17 0 4 0;
#X connect 18 0 13 0;
#X connect 19 0 20 0;
#X connect 20 0 4 0;
#X connect 21 0 22 0;
#X connect 22 0 4 0;
#X connect 23 0 4 0;
#X connect 24 0 23 0;
#X restore 7 582 pd OP1FREQ_PITCH_QUANTISE;
#X obj 7 632 oscformat op1\$1;
#X obj 206 381 oscformat op1slide\$1;
#X obj 516 475 oscformat op2\$1;
#X obj 643 240 oscformat noise\$1;
#X obj 7 653 s \$1-message-collect;
#X obj 206 402 s \$1-message-collect;
#X obj 516 496 s \$1-message-collect;
#X obj 643 261 s \$1-message-collect;
#X obj 7 610 f.util.pak;
#X obj 206 359 f.util.pak;
#X obj 516 453 f.util.pak;
#X obj 643 218 f.util.pak;
#X obj 104 434 f.util.oscformat \$0 \$1 extmodulation 0 0 2.7;
#X obj 263 279 f.util.oscformat \$0 \$1 op1slidetime 0 0 4;
#X obj 702 132 f.util.oscformat \$0 \$1 noise 0 0 4.2;
#X obj 643 194 f.util.oscformat \$0 \$1 noisefilterfreq 0 0 4.2;
#X connect 0 0 37 0;
#X connect 1 0 16 0;
#X connect 1 1 17 0;
#X connect 2 0 39 1;
#X connect 2 1 36 1;
#X connect 3 0 20 0;
#X connect 3 1 21 0;
#X connect 4 0 33 1;
#X connect 4 1 34 1;
#X connect 5 0 23 0;
#X connect 5 1 22 0;
#X connect 6 0 55 1;
#X connect 6 1 54 1;
#X connect 8 0 18 0;
#X connect 8 1 19 0;
#X connect 9 0 35 1;
#X connect 9 1 53 1;
#X connect 10 0 16 1;
#X connect 11 0 17 1;
#X connect 12 0 18 1;
#X connect 13 0 19 1;
#X connect 14 0 20 1;
#X connect 15 0 21 1;
#X connect 16 0 39 0;
#X connect 17 0 36 0;
#X connect 18 0 35 0;
#X connect 19 0 53 0;
#X connect 20 0 33 0;
#X connect 21 0 34 0;
#X connect 22 0 54 0;
#X connect 23 0 55 0;
#X connect 25 0 26 0;
#X connect 26 0 24 0;
#X connect 26 0 29 0;
#X connect 27 0 28 0;
#X connect 28 0 26 0;
#X connect 29 0 30 0;
#X connect 31 0 23 1;
#X connect 32 0 22 1;
#X connect 33 0 50 0;
#X connect 34 0 50 1;
#X connect 35 0 49 0;
#X connect 36 0 48 1;
#X connect 37 0 1 0;
#X connect 37 1 2 0;
#X connect 37 2 52 0;
#X connect 37 3 52 1;
#X connect 37 4 8 0;
#X connect 37 5 9 0;
#X connect 37 6 24 0;
#X connect 37 7 38 0;
#X connect 38 0 3 0;
#X connect 38 1 4 0;
#X connect 38 2 5 0;
#X connect 38 3 6 0;
#X connect 38 4 7 0;
#X connect 39 0 48 0;
#X connect 40 0 44 0;
#X connect 41 0 45 0;
#X connect 42 0 46 0;
#X connect 43 0 47 0;
#X connect 48 0 40 0;
#X connect 49 0 41 0;
#X connect 50 0 42 0;
#X connect 51 0 43 0;
#X connect 53 0 49 1;
#X connect 54 0 51 1;
#X connect 55 0 51 0;
#X restore 41 63 pd OP1_OP2_NOISE_________;
#N canvas 137 483 295 305 SEQUENCER_BEAT________ 0;
#X obj 74 63 r \$0-seq-messages;
#X obj 65 108 f.seq.sequencer;
#X obj 65 32 r link;
#X obj 76 151 s \$0-value-send;
#X obj 83 85 s seq-messages-\$1;
#N canvas 0 23 262 300 CHORDSIZE 0;
#X obj 67 23 inlet;
#X obj 67 263 outlet;
#X obj 106 103 r \$0-chord-size;
#X obj 67 81 i;
#X obj 93 81 + 1;
#X msg 160 206 0;
#X obj 67 186 t b b;
#X obj 67 146 moses 0;
#X obj 133 183 t b b;
#X obj 106 124 - 0;
#X obj 94 207 del 4;
#X connect 0 0 3 0;
#X connect 2 0 9 0;
#X connect 3 0 4 0;
#X connect 3 0 7 0;
#X connect 4 0 3 1;
#X connect 5 0 3 1;
#X connect 6 0 1 0;
#X connect 6 1 10 0;
#X connect 7 0 6 0;
#X connect 7 1 8 0;
#X connect 8 0 1 0;
#X connect 8 1 5 0;
#X connect 9 0 7 1;
#X connect 10 0 3 0;
#X restore 65 129 pd CHORDSIZE;
#X obj 65 234 s to-faust;
#X obj 65 185 f \$1;
#X msg 65 209 formuls\$1 triggerx bang;
#X connect 0 0 1 0;
#X connect 0 0 4 0;
#X connect 1 0 5 0;
#X connect 2 0 1 0;
#X connect 5 0 3 0;
#X connect 5 0 7 0;
#X connect 7 0 8 0;
#X connect 8 0 6 0;
#X restore 41 275 pd SEQUENCER_BEAT________;
#N canvas 0 47 397 426 MIDI_KEYBOARD_IN______ 0;
#X obj 51 12 notein;
#X obj 104 179 / 127;
#X obj 51 86 stripnote;
#X obj 51 112 mtof;
#X obj 51 63 spigot;
#X obj 85 35 r \$2-keyboard-active;
#X obj 52 133 t f b b;
#X obj 218 344 s to-faust;
#X msg 218 270 formuls\$2 triggerx \$1;
#X obj 218 251 pack f \$1;
#X obj 71 205 pack f f \$1;
#X msg 71 225 formuls\$3 velocity \$2;
#X obj 53 251 pack f \$1;
#X msg 53 270 formuls\$2 op1freq \$1;
#X connect 0 0 4 0;
#X connect 0 1 2 1;
#X connect 1 0 10 1;
#X connect 2 0 3 0;
#X connect 2 1 1 0;
#X connect 3 0 6 0;
#X connect 4 0 2 0;
#X connect 5 0 4 1;
#X connect 6 0 12 0;
#X connect 6 1 10 0;
#X connect 6 2 9 0;
#X connect 8 0 7 0;
#X connect 9 0 8 0;
#X connect 10 0 11 0;
#X connect 11 0 7 0;
#X connect 12 0 13 0;
#X connect 13 0 7 0;
#X restore 41 295 pd MIDI_KEYBOARD_IN______;
#N canvas 1348 57 425 807 LFO___________________ 0;
#X obj 37 17 inlet;
#X obj 37 56 f.util.xylfoparse \$1 \$0 op1 op1freq waveshape;
#X obj 37 77 f.util.lfoparse \$1 \$0 extmodulation;
#X obj 37 98 f.util.xylfoparse \$1 \$0 op1slide op1sliderange op1slidetime
;
#X obj 37 161 f.util.lfoparse \$1 \$0 genrange;
#X obj 37 182 f.util.lfoparse \$1 \$0 genstepsize;
#X obj 37 203 f.util.lfoparse \$1 \$0 attack;
#X obj 37 224 f.util.lfoparse \$1 \$0 decay;
#X obj 37 245 f.util.lfoparse \$1 \$0 sustain;
#X obj 37 266 f.util.lfoparse \$1 \$0 release;
#X obj 37 287 f.util.lfoparse \$1 \$0 velocity;
#X obj 37 308 f.util.lfoparse \$1 \$0 seqtimebase;
#X obj 37 329 f.util.lfoparse \$1 \$0 seqlength;
#X obj 37 350 f.util.lfoparse \$1 \$0 seqrandomadd;
#X obj 37 371 f.util.lfoparse \$1 \$0 seqtimebasemultiplier;
#X obj 37 392 f.util.lfoparse \$1 \$0 seqswing;
#X obj 37 413 f.util.lfoparse \$1 \$0 seqdelay;
#X obj 37 434 f.util.lfoparse \$1 \$0 seqwarp;
#X obj 37 477 f.util.lfoparse \$1 \$0 pitchshift;
#X obj 37 550 f.util.lfoparse \$1 \$0 delaysend;
#X obj 37 593 f.util.xylfoparse \$1 \$0 amfreqdepth amfreq amdepth
;
#X obj 37 614 f.util.lfoparse \$1 \$0 amwave;
#X obj 37 635 f.util.lfoparse \$1 \$0 gatethresh;
#X obj 37 656 f.util.lfoparse \$1 \$0 gateattack;
#X obj 37 677 f.util.lfoparse \$1 \$0 gatehold;
#X obj 37 698 f.util.lfoparse \$1 \$0 gaterelease;
#X obj 37 719 f.util.lfoparse \$1 \$0 slew;
#X obj 37 740 f.util.lfoparse \$1 \$0 fxend;
#X obj 37 761 f.util.lfoparse \$1 \$0 reverb;
#X obj 37 782 f.util.lfoparse \$1 \$0 panning;
#X obj 37 455 f.util.xylfoparse \$1 \$0 distortion saturation bitcrush
;
#X obj 37 529 f.util.lfoparse \$1 \$0 highpass;
#X obj 37 119 f.util.xylfoparse \$1 \$0 op2 op2freq op2depth;
#X obj 37 498 f.util.xylfoparse \$1 \$0 resonantfilter lowpass filterresonance
;
#X obj 37 570 f.util.xylfoparse \$1 \$0 delay delaytime delayfeedback
;
#X obj 37 140 f.util.xylfoparse \$1 \$0 noise noisefilterfreq noise
;
#X connect 0 0 1 0;
#X connect 1 0 2 0;
#X connect 2 0 3 0;
#X connect 3 0 32 0;
#X connect 4 0 5 0;
#X connect 5 0 6 0;
#X connect 6 0 7 0;
#X connect 7 0 8 0;
#X connect 8 0 9 0;
#X connect 9 0 10 0;
#X connect 10 0 11 0;
#X connect 11 0 12 0;
#X connect 12 0 13 0;
#X connect 13 0 14 0;
#X connect 14 0 15 0;
#X connect 15 0 16 0;
#X connect 16 0 17 0;
#X connect 17 0 30 0;
#X connect 18 0 33 0;
#X connect 19 0 34 0;
#X connect 20 0 21 0;
#X connect 21 0 22 0;
#X connect 22 0 23 0;
#X connect 23 0 24 0;
#X connect 24 0 25 0;
#X connect 25 0 26 0;
#X connect 26 0 27 0;
#X connect 27 0 28 0;
#X connect 28 0 29 0;
#X connect 30 0 18 0;
#X connect 31 0 19 0;
#X connect 32 0 35 0;
#X connect 33 0 31 0;
#X connect 34 0 20 0;
#X connect 35 0 4 0;
#X restore 41 235 pd LFO___________________;
#N canvas 441 23 999 855 ACT_TRIG_CHAOSTRIG____ 0;
#X obj 30 8 inlet;
#X obj 39 122 t b f;
#X obj 30 147 f;
#X obj 30 171 +;
#X obj 30 196 +;
#X obj 79 122 t b f;
#X obj 30 220 > 0;
#X obj 30 243 change;
#X obj 30 264 s modeselect\$1;
#X obj 220 74 s chaostrig\$1;
#X obj 125 74 s trig\$1;
#X obj 39 74 s act\$1;
#X obj 30 49 route actglobal\$1 trigglobal\$1 chaostrigglobal\$1;
#X obj 334 203 route velocitylabel\$1 thresholdlabel\$1 seqrandomaddlabel\$1
attacklabel\$1 decaylabel\$1 sustainlabel\$1 releaselabel\$1;
#X obj 561 902 s \$0-reverb-chaos-trig;
#X obj 671 874 s \$0-genrange-chaos-trig;
#X obj 739 848 s \$0-genstep-chaos-trig;
#X obj 788 825 s \$0-seqtimebase-chaos-trig;
#X obj 336 173 f.util.xywidgetparse \$0 \$1 op1 op1freq waveshape;
#X obj 399 154 f.util.xywidgetparse \$0 \$1 op2 op2freq op2depth;
#X obj 462 133 f.util.xywidgetparse \$0 \$1 noise noise noisefilterfreq
;
#X obj 588 83 f.util.widgetparse \$0 \$1 extmodulation;
#X obj 334 357 f.util.widgetparse \$0 \$1 velocity;
#X obj 383 338 f.util.widgetparse \$0 \$1 threshold;
#X obj 432 317 f.util.widgetparse \$0 \$1 seqrandomadd;
#X obj 481 298 f.util.widgetparse \$0 \$1 attack;
#X obj 531 279 f.util.widgetparse \$0 \$1 decay;
#X obj 580 258 f.util.widgetparse \$0 \$1 sustain;
#X obj 629 239 f.util.widgetparse \$0 \$1 release;
#X obj 381 658 f.util.widgetparse \$0 \$1 pitchshift;
#X obj 456 599 f.util.widgetparse \$0 \$1 delaysend;
#X obj 329 901 f.util.widgetparse \$0 \$1 fxsend;
#X obj 378 882 f.util.widgetparse \$0 \$1 reverb;
#X obj 429 861 f.util.widgetparse \$0 \$1 panning;
#X obj 476 842 f.util.widgetparse \$0 \$1 genrange;
#X obj 526 823 f.util.widgetparse \$0 \$1 genstepsize;
#X obj 575 802 f.util.widgetparse \$0 \$1 seqtimebase;
#X obj 525 102 f.util.xywidgetparse \$0 \$1 op1slide op1sliderange
op1slidetime;
#X obj 329 757 route fxsendlabel\$1 reverblabel\$1 panninglabel\$1
genrangelabel\$1 genstepsizelabel\$1 seqtimebaselabel\$1;
#X obj 336 48 route op1label\$1 op2label\$1 noiselabel\$1 op1slidelabel\$1
extmodulationlabel\$1;
#X obj 55 29 r automater-out-\$1;
#X obj 900 969 outlet;
#X obj 331 708 f.util.xywidgetparse \$0 \$1 distortion saturation bitcrush
;
#X obj 356 679 f.util.xywidgetparse \$0 \$1 resonantfilter lowpass
filterresonance;
#X obj 406 639 f.util.widgetparse \$0 \$1 highpass;
#X obj 431 619 f.util.xywidgetparse \$0 \$1 delay delaytime delayfeedback
;
#X obj 481 580 f.util.xywidgetparse \$0 \$1 amfreqdepth amfreq amdepth
;
#X obj 506 560 f.util.widgetparse \$0 \$1 amwave;
#X obj 531 541 f.util.widgetparse \$0 \$1 gatethresh;
#X obj 556 520 f.util.widgetparse \$0 \$1 gateattack;
#X obj 581 501 f.util.widgetparse \$0 \$1 gatehold;
#X obj 606 482 f.util.widgetparse \$0 \$1 gaterelease;
#X obj 331 406 route distortionlabel\$1 resonantfilterlabel\$1 pitchshiftlabel\$1
highpasslabel\$1 delaylabel\$1 delaysendlabel\$1 amfreqdepthlabel\$1
amwavelabel\$1 gatethreshlabel\$1 gateattacklabel\$1 gateholdlabel\$1
gatereleaselabel\$1;
#X connect 0 0 12 0;
#X connect 1 0 2 0;
#X connect 1 1 3 1;
#X connect 2 0 3 0;
#X connect 3 0 4 0;
#X connect 4 0 6 0;
#X connect 5 0 2 0;
#X connect 5 1 4 1;
#X connect 6 0 7 0;
#X connect 7 0 8 0;
#X connect 12 0 2 0;
#X connect 12 0 11 0;
#X connect 12 1 1 0;
#X connect 12 1 10 0;
#X connect 12 2 5 0;
#X connect 12 2 9 0;
#X connect 12 3 39 0;
#X connect 13 0 22 0;
#X connect 13 1 23 0;
#X connect 13 2 24 0;
#X connect 13 3 25 0;
#X connect 13 4 26 0;
#X connect 13 5 27 0;
#X connect 13 6 28 0;
#X connect 13 7 52 0;
#X connect 32 2 14 0;
#X connect 34 2 15 0;
#X connect 35 2 16 0;
#X connect 36 2 17 0;
#X connect 38 0 31 0;
#X connect 38 1 32 0;
#X connect 38 2 33 0;
#X connect 38 3 34 0;
#X connect 38 4 35 0;
#X connect 38 5 36 0;
#X connect 38 6 41 0;
#X connect 39 0 18 0;
#X connect 39 1 19 0;
#X connect 39 2 20 0;
#X connect 39 3 37 0;
#X connect 39 4 21 0;
#X connect 39 5 13 0;
#X connect 40 0 12 0;
#X connect 52 0 42 0;
#X connect 52 1 43 0;
#X connect 52 2 29 0;
#X connect 52 3 44 0;
#X connect 52 4 45 0;
#X connect 52 5 30 0;
#X connect 52 6 46 0;
#X connect 52 7 47 0;
#X connect 52 8 48 0;
#X connect 52 9 49 0;
#X connect 52 10 50 0;
#X connect 52 11 51 0;
#X connect 52 12 38 0;
#X restore 41 214 pd ACT_TRIG_CHAOSTRIG____;
#X connect 0 0 7 0;
#X connect 1 0 11 0;
#X connect 2 0 1 0;
#X connect 3 0 2 0;
#X connect 4 0 3 0;
#X connect 5 0 4 0;
#X connect 6 0 5 0;
#X connect 7 0 6 0;
#X connect 11 0 10 0;
