#N canvas 154 134 606 575 10;
#X text 234 26 \$1 = \$0;
#X obj 8 550 outlet;
#X obj 7 388 s \$0-value;
#X obj 8 447 r \$0-value;
#X text 234 41 \$2 = synth instance (only used in Pd \, not faust external)
;
#X obj 111 20 inlet chaos;
#X obj 7 20 inlet value;
#N canvas 0 23 341 336 QUANTISATION 0;
#X obj 37 37 inlet;
#X obj 37 288 outlet;
#X obj 235 49 loadbang;
#X msg 235 114 0;
#X msg 266 117 1;
#X obj 235 135 t a;
#X obj 150 114 r evenglobal;
#X obj 150 135 moses 1;
#X obj 189 157 ==;
#X obj 150 229 int;
#X obj 235 93 sel 0;
#X obj 37 175 f.util.switch;
#X obj 235 72 \$5;
#X obj 150 208 * \$5;
#X obj 150 250 / \$5;
#X connect 0 0 11 0;
#X connect 2 0 12 0;
#X connect 3 0 5 0;
#X connect 4 0 5 0;
#X connect 5 0 8 1;
#X connect 6 0 7 0;
#X connect 7 0 11 1;
#X connect 7 1 8 0;
#X connect 8 0 11 1;
#X connect 9 0 14 0;
#X connect 10 0 3 0;
#X connect 10 1 4 0;
#X connect 11 0 1 0;
#X connect 11 1 13 0;
#X connect 12 0 10 0;
#X connect 13 0 9 0;
#X connect 14 0 1 0;
#X restore 7 51 pd QUANTISATION;
#X text 234 94 \$5 = quantisation steps;
#N canvas 735 322 351 428 READ_VALUE_FROM_FAUST_______ 0;
#X obj 48 38 r faust-value-read;
#X obj 25 147 bng 15 250 50 0 empty empty empty 17 7 0 10 -262144 -1
-1;
#X obj 48 389 s \$0-out-2;
#X obj 82 63 r \$0-act-internal;
#X obj 48 286 spigot;
#X obj 81 266 >= 1;
#X obj 82 126 f;
#X obj 88 84 r \$0-chaos;
#X obj 82 147 +;
#X obj 125 125 > 0;
#X obj 259 54 r evenglobal;
#X obj 226 156 spigot;
#X obj 226 33 r \$0-value;
#X obj 226 177 t b;
#X obj 226 198 del 10;
#X obj 259 115 f;
#X obj 259 136 *;
#X obj 270 74 r \$0-volume;
#X obj 270 95 t b f;
#X obj 88 105 t b b f;
#X obj 48 316 t b;
#X msg 48 364 \$1O;
#X obj 48 339 symbol \$3;
#X obj 81 246 +;
#X obj 81 226 f;
#X obj 90 196 t b f;
#N canvas 1041 439 268 501 EVOLUTION_ACTIVE 0;
#X obj 91 94 r evolution-active;
#X obj 58 115 spigot;
#X obj 58 27 r \$0-input-1;
#X obj 58 48 change;
#X msg 58 69 1;
#X obj 43 211 f;
#X msg 68 186 0;
#X obj 122 217 r evolution-time;
#X obj 107 237 f;
#X obj 43 232 sel 1;
#X msg 62 320 0;
#X obj 62 435 outlet;
#X obj 62 299 del 16000;
#X msg 82 276 stop;
#X msg 43 361 0;
#X obj 70 387 spigot 1;
#X obj 68 139 sel 0;
#X obj 43 340 t b b;
#X msg 70 361 1;
#X obj 43 253 t b b b;
#X obj 68 163 t b b b;
#X connect 0 0 1 1;
#X connect 0 0 16 0;
#X connect 1 0 5 1;
#X connect 2 0 3 0;
#X connect 3 0 4 0;
#X connect 4 0 1 0;
#X connect 4 0 15 1;
#X connect 5 0 9 0;
#X connect 6 0 5 1;
#X connect 7 0 8 1;
#X connect 8 0 12 1;
#X connect 9 0 19 0;
#X connect 10 0 11 0;
#X connect 12 0 10 0;
#X connect 13 0 12 0;
#X connect 14 0 15 1;
#X connect 15 0 11 0;
#X connect 16 0 20 0;
#X connect 17 0 14 0;
#X connect 17 1 18 0;
#X connect 18 0 15 0;
#X connect 19 0 17 0;
#X connect 19 1 12 0;
#X connect 19 2 13 0;
#X connect 20 0 6 0;
#X connect 20 1 5 0;
#X connect 20 2 8 0;
#X restore 90 176 pd EVOLUTION_ACTIVE;
#X connect 0 0 4 0;
#X connect 1 0 20 0;
#X connect 3 0 6 0;
#X connect 4 0 20 0;
#X connect 5 0 4 1;
#X connect 6 0 8 0;
#X connect 7 0 19 0;
#X connect 8 0 24 0;
#X connect 9 0 8 1;
#X connect 10 0 15 0;
#X connect 11 0 13 0;
#X connect 12 0 11 0;
#X connect 13 0 14 0;
#X connect 14 0 20 0;
#X connect 15 0 16 0;
#X connect 16 0 11 1;
#X connect 17 0 18 0;
#X connect 18 0 15 0;
#X connect 18 1 16 1;
#X connect 19 0 20 0;
#X connect 19 1 6 0;
#X connect 19 2 9 0;
#X connect 20 0 22 0;
#X connect 21 0 2 0;
#X connect 22 0 21 0;
#X connect 23 0 5 0;
#X connect 24 0 23 0;
#X connect 25 0 24 0;
#X connect 25 1 23 1;
#X connect 26 0 25 0;
#X restore 7 412 pd READ_VALUE_FROM_FAUST_______;
#X text 234 77 \$4 = parameter default value;
#X msg 111 51 chaos \$1;
#X obj 151 163 r \$1-\$3\$2-chaostrig;
#X msg 151 184 chaostrig \$1;
#X msg 111 101 looptrig \$1;
#X obj 111 81 r \$1-\$3\$2-trig;
#X obj 251 448 r \$0-value;
#X obj 195 245 r \$1-reset;
#X obj 7 368 f.seq.automater \$1 \$1-\$3 \$4;
#X obj 251 469 oscformat \$3\$2;
#X msg 195 266 reset;
#X obj 261 490 s to-o-s-c-interface;
#X obj 18 489 list trim;
#X msg 218 307 active \$1;
#X obj 218 286 r \$1-\$3\$2-act;
#X text 234 59 \$3 = param name;
#X text 234 111 eg: \$0 0 waveshape 0 4;
#X msg 130 143 trig bang;
#X obj 251 549 outlet;
#X obj 26 511 s to-faust;
#X msg 176 224 ctrig bang;
#X obj 130 122 r \$1-value-send;
#X obj 176 204 r \$1-value-send;
#X obj 18 468 list prepend formuls\$2 \$3;
#X msg 228 349 slew \$1;
#X obj 228 328 r \$1-slew;
#X connect 3 0 1 0;
#X connect 3 0 33 0;
#X connect 5 0 11 0;
#X connect 6 0 7 0;
#X connect 7 0 18 0;
#X connect 11 0 18 0;
#X connect 12 0 13 0;
#X connect 13 0 18 0;
#X connect 14 0 18 0;
#X connect 15 0 14 0;
#X connect 16 0 19 0;
#X connect 17 0 20 0;
#X connect 18 0 2 0;
#X connect 19 0 21 0;
#X connect 19 0 28 0;
#X connect 20 0 18 0;
#X connect 22 0 29 0;
#X connect 23 0 18 0;
#X connect 24 0 23 0;
#X connect 27 0 18 0;
#X connect 30 0 18 0;
#X connect 31 0 27 0;
#X connect 32 0 30 0;
#X connect 33 0 22 0;
#X connect 34 0 18 0;
#X connect 35 0 34 0;
