#N canvas 165 168 646 652 10;
#X text 234 26 \$1 = \$0;
#X obj 8 568 outlet;
#X obj 7 388 s \$0-value;
#X obj 8 417 r \$0-value;
#X text 234 41 \$2 = synth instance (only used in Pd \, not faust external)
;
#X obj 111 20 inlet chaos;
#X obj 7 20 inlet value;
#N canvas 196 67 341 336 QUANTISATION 1;
#X obj 37 37 inlet;
#X obj 37 288 outlet;
#X obj 255 49 loadbang;
#X msg 255 114 0;
#X msg 286 117 1;
#X obj 255 135 t a;
#X obj 150 135 moses 1;
#X obj 189 157 ==;
#X obj 150 229 int;
#X obj 255 93 sel 0;
#X obj 37 175 f.util.switch;
#X obj 255 72 \$5;
#X obj 150 208 * \$5;
#X obj 150 250 / \$5;
#X obj 150 114 r quantiseglobal;
#X connect 0 0 10 0;
#X connect 2 0 11 0;
#X connect 3 0 5 0;
#X connect 4 0 5 0;
#X connect 5 0 7 1;
#X connect 6 0 10 1;
#X connect 6 1 7 0;
#X connect 7 0 10 1;
#X connect 8 0 13 0;
#X connect 9 0 3 0;
#X connect 9 1 4 0;
#X connect 10 0 1 0;
#X connect 10 1 12 0;
#X connect 11 0 9 0;
#X connect 12 0 8 0;
#X connect 13 0 1 0;
#X connect 14 0 6 0;
#X restore 7 71 pd QUANTISATION;
#X text 234 94 \$5 = quantisation steps;
#X text 234 77 \$4 = parameter default value;
#X msg 111 51 chaos \$1;
#X obj 151 163 r \$1-\$3\$2-chaostrig;
#X msg 151 184 chaostrig \$1;
#X msg 111 101 looptrig \$1;
#X obj 111 81 r \$1-\$3\$2-trig;
#X obj 7 368 f.seq.automater \$1 \$1-\$3 \$4;
#X obj 18 487 list trim;
#X msg 218 307 active \$1;
#X obj 218 286 r \$1-\$3\$2-act;
#X text 234 59 \$3 = param name;
#X msg 130 143 trig bang;
#X obj 18 509 s to-faust;
#X msg 176 224 ctrig bang;
#X obj 130 122 r \$1-value-send;
#X obj 176 204 r \$1-value-send;
#X obj 18 466 list prepend formuls\$2 \$3;
#X msg 228 349 slew \$1;
#X obj 228 328 r \$1-slew;
#X obj 300 339 r \$1-\$3\$2-lfofreq;
#X msg 300 360 lfofreq \$1;
#X msg 384 391 lfodepth \$1;
#X obj 384 370 r \$1-\$3\$2-lfodepth;
#X obj 27 41 s \$0-spigot;
#N canvas 562 172 228 293 MESSAGE_STOP 0;
#X msg 142 120 0;
#X msg 98 169 1;
#X obj 53 201 spigot 1;
#X obj 98 77 t b b b;
#X msg 136 96 stop;
#X obj 53 29 inlet;
#X obj 53 242 outlet;
#X obj 98 28 inlet;
#X obj 53 178 f;
#X obj 98 139 t b b;
#X obj 98 118 del 20;
#X connect 0 0 2 1;
#X connect 1 0 2 1;
#X connect 2 0 6 0;
#X connect 3 0 10 0;
#X connect 3 1 0 0;
#X connect 3 2 4 0;
#X connect 4 0 10 0;
#X connect 5 0 8 0;
#X connect 7 0 3 0;
#X connect 8 0 2 0;
#X connect 9 0 8 0;
#X connect 9 1 1 0;
#X connect 10 0 9 0;
#X restore 8 530 pd MESSAGE_STOP;
#X obj 95 508 r \$0-spigot;
#X obj 221 509 oscformat \$3\$2;
#X obj 221 530 s to-o-s-c-interface;
#X obj 200 569 outlet;
#N canvas 562 172 228 293 MESSAGE_STOP 0;
#X msg 142 120 0;
#X msg 98 169 1;
#X obj 53 201 spigot 1;
#X obj 98 77 t b b b;
#X msg 136 96 stop;
#X obj 53 29 inlet;
#X obj 53 242 outlet;
#X obj 98 28 inlet;
#X obj 53 178 f;
#X obj 98 139 t b b;
#X obj 98 118 del 20;
#X connect 0 0 2 1;
#X connect 1 0 2 1;
#X connect 2 0 6 0;
#X connect 3 0 10 0;
#X connect 3 1 0 0;
#X connect 3 2 4 0;
#X connect 4 0 10 0;
#X connect 5 0 8 0;
#X connect 7 0 3 0;
#X connect 8 0 2 0;
#X connect 9 0 8 0;
#X connect 9 1 1 0;
#X connect 10 0 9 0;
#X restore 200 473 pd MESSAGE_STOP;
#X obj 287 451 r \$0-spigot;
#X msg 195 266 reset bang;
#X obj 195 245 r \$1-reset;
#N canvas 31 98 299 326 SCALE___ 0;
#X obj 70 275 outlet;
#X obj 183 52 loadbang;
#X msg 183 117 0;
#X msg 210 117 1;
#X obj 183 138 t a;
#X obj 183 96 sel 0;
#X obj 70 162 f.util.switch;
#X obj 183 75 \$6;
#X obj 183 185 pow \$6;
#X obj 70 16 inlet;
#X connect 1 0 7 0;
#X connect 2 0 4 0;
#X connect 3 0 4 0;
#X connect 4 0 6 1;
#X connect 5 0 2 0;
#X connect 5 1 3 0;
#X connect 6 0 0 0;
#X connect 6 1 8 0;
#X connect 7 0 5 0;
#X connect 8 0 0 0;
#X connect 9 0 6 0;
#X restore 18 440 pd SCALE___;
#X text 241 129 \$6 = exponential scaling (if no value \, then linear
scaling);
#X text 234 111 eg: \$0 0 waveshape 0 4 2.7;
#X connect 3 0 42 0;
#X connect 3 0 33 0;
#X connect 5 0 10 0;
#X connect 6 0 7 0;
#X connect 6 0 32 0;
#X connect 7 0 15 0;
#X connect 10 0 15 0;
#X connect 11 0 12 0;
#X connect 12 0 15 0;
#X connect 13 0 15 0;
#X connect 14 0 13 0;
#X connect 15 0 2 0;
#X connect 15 1 38 0;
#X connect 16 0 21 0;
#X connect 17 0 15 0;
#X connect 18 0 17 0;
#X connect 20 0 15 0;
#X connect 22 0 15 0;
#X connect 23 0 20 0;
#X connect 24 0 22 0;
#X connect 25 0 16 0;
#X connect 26 0 15 0;
#X connect 27 0 26 0;
#X connect 28 0 29 0;
#X connect 29 0 15 0;
#X connect 30 0 15 0;
#X connect 31 0 30 0;
#X connect 33 0 1 0;
#X connect 34 0 33 1;
#X connect 35 0 36 0;
#X connect 38 0 35 0;
#X connect 38 0 37 0;
#X connect 39 0 38 1;
#X connect 40 0 15 0;
#X connect 41 0 40 0;
#X connect 42 0 25 0;
