#N canvas 572 686 373 172 10;
#X text 254 34 \$1 = \$0 \; \$2 = instance;
#X text 179 13 <- parse incoming messages;
#X obj 29 16 f.util.oscinparse \$2 \$1;
#N canvas 0 38 317 332 MESSAGE_THROTTLE 0;
#X obj 79 250 spigot;
#X obj 112 73 r inter-act;
#X obj 112 94 unpack f f;
#X obj 169 114 == \$2;
#X obj 112 115 == \$2;
#X obj 112 159 >= 1;
#X obj 112 136 +;
#X floatatom 112 180 5 0 0 0 - - - 0;
#X obj 112 200 change;
#X obj 49 20 inlet;
#X obj 49 291 outlet;
#X obj 129 222 r inter-act-overide;
#N canvas 642 104 520 376 MESSAGE_FILTER 0;
#X obj 50 29 inlet;
#X obj 428 324 outlet;
#X obj 170 252 list trim;
#X obj 190 109 oscformat resonantfilterfreqq\$2;
#X obj 50 70 route waveshape\$1 resonantfilterfreqq\$2 resonantfilterREAL\$2 volume\$2 mute2;
#X obj 170 210 oscformat volume\$2;
#X obj 185 232 oscformat mute\$2;
#X obj 190 130 list trim;
#X obj 172 302 outlet;
#X connect 0 0 4 0;
#X connect 2 0 8 0;
#X connect 3 0 7 0;
#X connect 4 2 3 0;
#X connect 4 3 5 0;
#X connect 4 4 6 0;
#X connect 4 5 1 0;
#X connect 5 0 2 0;
#X connect 6 0 2 0;
#X connect 7 0 1 0;
#X restore 49 46 pd MESSAGE_FILTER;
#X connect 0 0 10 0;
#X connect 1 0 2 0;
#X connect 2 0 4 0;
#X connect 2 1 3 0;
#X connect 3 0 6 1;
#X connect 4 0 6 0;
#X connect 5 0 7 0;
#X connect 6 0 5 0;
#X connect 7 0 8 0;
#X connect 8 0 0 1;
#X connect 9 0 12 0;
#X connect 11 0 0 1;
#X connect 12 0 10 0;
#X connect 12 1 0 0;
#X restore 29 68 pd MESSAGE_THROTTLE;
#X obj 29 91 s to-o-s-c-interface;
#X obj 29 45 r \$2-message-collect;
#X obj 29 116 f.util.reset \$2 \$1;
#X obj 191 79 r to-faust-\$2;
#N canvas 632 182 432 463 MESSAGE_FILTER___ 0;
#X obj 251 390 outlet;
#X obj 50 238 list trim;
#X obj 50 217 oscformat resonantfilter\$2;
#X obj 50 19 inlet;
#X obj 50 75 route formuls\$2;
#X obj 251 341 list prepend formuls\$2;
#X obj 50 259 print here;
#X text 218 218 <- deprecated???;
#X obj 150 138 - 0.5;
#X obj 150 159 * 48;
#X msg 150 180 pitchshift \$1;
#X obj 50 110 route resonantfilter pitchshift, f 34;
#X connect 1 0 5 0;
#X connect 1 0 6 0;
#X connect 2 0 1 0;
#X connect 3 0 4 0;
#X connect 4 0 11 0;
#X connect 5 0 0 0;
#X connect 8 0 9 0;
#X connect 9 0 10 0;
#X connect 10 0 5 0;
#X connect 11 0 2 0;
#X connect 11 1 8 0;
#X connect 11 2 5 0;
#X restore 191 101 pd MESSAGE_FILTER___;
#X obj 191 122 s to-faust;
#X connect 3 0 4 0;
#X connect 5 0 3 0;
#X connect 7 0 8 0;
#X connect 8 0 9 0;
