#N canvas 144 149 924 697 10;
#X obj 28 30 inlet;
#X text 76 4 weighted split points;
#X obj 28 669 outlet;
#X text 290 40 bang triggers random \; float passes number through
to be evaluated;
#X obj 28 72 route bang float list;
#X obj 60 462 sel 0;
#X msg 60 484 100;
#X obj 28 508 moses;
#X obj 28 94 random 100;
#X obj 28 116 s \$0-evaluate;
#X obj 28 411 r \$0-evaluate;
#X obj 134 335 s \$0-1;
#X obj 156 313 s \$0-2;
#X obj 179 292 s \$0-3;
#X obj 202 271 s \$0-4;
#X obj 225 250 s \$0-5;
#X obj 248 229 s \$0-6;
#X obj 271 210 s \$0-7;
#X obj 134 95 t b a;
#X obj 60 440 r \$0-1;
#X obj 230 89 loadbang;
#X obj 134 123 list \$1 \$2 \$3 \$4 \$5 \$6 \$7 \$8 \$9;
#X text 433 124 up to 9 split points/10 regions;
#X obj 134 145 unpack f f f f f f f f f;
#X obj 284 189 s \$0-8;
#X obj 312 168 s \$0-9;
#X obj 28 552 s \$0-output;
#X obj 28 642 r \$0-output;
#X msg 28 530 0;
#X text 445 168 zero indexed;
#X obj 160 462 sel 0;
#X msg 160 484 100;
#X obj 128 508 moses;
#X obj 128 552 s \$0-output;
#X obj 250 462 sel 0;
#X msg 250 484 100;
#X obj 218 508 moses;
#X obj 218 552 s \$0-output;
#X obj 350 462 sel 0;
#X msg 350 484 100;
#X obj 318 508 moses;
#X obj 318 552 s \$0-output;
#X obj 440 462 sel 0;
#X msg 440 484 100;
#X obj 408 508 moses;
#X obj 408 552 s \$0-output;
#X obj 540 462 sel 0;
#X msg 540 484 100;
#X obj 508 508 moses;
#X obj 508 552 s \$0-output;
#X obj 637 462 sel 0;
#X msg 637 484 100;
#X obj 605 508 moses;
#X obj 605 552 s \$0-output;
#X obj 737 462 sel 0;
#X msg 737 484 100;
#X obj 705 508 moses;
#X obj 705 552 s \$0-output;
#X msg 128 530 1;
#X msg 218 530 2;
#X msg 318 530 3;
#X msg 508 530 5;
#X msg 408 530 4;
#X msg 605 530 6;
#X msg 705 530 7;
#X obj 837 462 sel 0;
#X msg 837 484 100;
#X obj 805 508 moses;
#X obj 805 552 s \$0-output;
#X msg 805 530 8;
#X obj 160 440 r \$0-2;
#X obj 250 440 r \$0-3;
#X obj 350 440 r \$0-4;
#X obj 440 440 r \$0-5;
#X obj 540 440 r \$0-6;
#X obj 637 440 r \$0-7;
#X obj 737 440 r \$0-8;
#X obj 837 440 r \$0-9;
#X msg 836 530 9;
#X connect 0 0 4 0;
#X connect 4 0 8 0;
#X connect 4 1 9 0;
#X connect 4 2 18 0;
#X connect 5 0 6 0;
#X connect 5 1 7 1;
#X connect 6 0 7 1;
#X connect 7 0 28 0;
#X connect 7 1 32 0;
#X connect 8 0 9 0;
#X connect 10 0 7 0;
#X connect 18 0 21 0;
#X connect 18 1 21 1;
#X connect 19 0 5 0;
#X connect 20 0 21 0;
#X connect 21 0 23 0;
#X connect 23 0 11 0;
#X connect 23 1 12 0;
#X connect 23 2 13 0;
#X connect 23 3 14 0;
#X connect 23 4 15 0;
#X connect 23 5 16 0;
#X connect 23 6 17 0;
#X connect 23 7 24 0;
#X connect 23 8 25 0;
#X connect 27 0 2 0;
#X connect 28 0 26 0;
#X connect 30 0 31 0;
#X connect 30 1 32 1;
#X connect 31 0 32 1;
#X connect 32 0 58 0;
#X connect 32 1 36 0;
#X connect 34 0 35 0;
#X connect 34 1 36 1;
#X connect 35 0 36 1;
#X connect 36 0 59 0;
#X connect 36 1 40 0;
#X connect 38 0 39 0;
#X connect 38 1 40 1;
#X connect 39 0 40 1;
#X connect 40 0 60 0;
#X connect 40 1 44 0;
#X connect 42 0 43 0;
#X connect 42 1 44 1;
#X connect 43 0 44 1;
#X connect 44 0 62 0;
#X connect 44 1 48 0;
#X connect 46 0 47 0;
#X connect 46 1 48 1;
#X connect 47 0 48 1;
#X connect 48 0 61 0;
#X connect 48 1 52 0;
#X connect 50 0 51 0;
#X connect 50 1 52 1;
#X connect 51 0 52 1;
#X connect 52 0 63 0;
#X connect 52 1 56 0;
#X connect 54 0 55 0;
#X connect 54 1 56 1;
#X connect 55 0 56 1;
#X connect 56 0 64 0;
#X connect 56 1 67 0;
#X connect 58 0 33 0;
#X connect 59 0 37 0;
#X connect 60 0 41 0;
#X connect 61 0 49 0;
#X connect 62 0 45 0;
#X connect 63 0 53 0;
#X connect 64 0 57 0;
#X connect 65 0 66 0;
#X connect 65 1 67 1;
#X connect 66 0 67 1;
#X connect 67 0 69 0;
#X connect 67 1 78 0;
#X connect 69 0 68 0;
#X connect 70 0 30 0;
#X connect 71 0 34 0;
#X connect 72 0 38 0;
#X connect 73 0 42 0;
#X connect 74 0 46 0;
#X connect 75 0 50 0;
#X connect 76 0 54 0;
#X connect 77 0 65 0;
#X connect 78 0 68 0;
