#N canvas 887 89 488 822 10;
#X obj 32 36 inlet;
#X obj 32 789 outlet;
#N canvas 1356 165 373 551 VALUE_READ_EVOLUTION_SEND 0;
#X obj 41 524 outlet;
#X obj 41 270 f;
#X obj 86 99 == 0;
#X obj 41 121 spigot 1;
#X obj 41 351 line 0 5;
#X msg 67 204 bang;
#X obj 67 226 \$3;
#X obj 41 248 t a;
#X obj 41 35 r \$0-input-1;
#X obj 58 143 r \$0-textseq;
#X text 40 7 Reads from the u.seq object/evolution;
#X obj 99 77 r \$0-jump;
#X obj 86 57 r \$0-evolve;
#X obj 67 165 r \$0-reset;
#X obj 80 184 r \$1-reset;
#X obj 212 525 outlet;
#N canvas 537 247 450 300 GUI_THROTTLE 0;
#X obj 121 114 == 0;
#X obj 76 138 spigot 1;
#X obj 76 92 f;
#X obj 76 114 change;
#X obj 121 93 r \$0-record;
#X obj 76 251 outlet;
#X obj 76 67 r \$0-gui-throttle;
#X obj 91 29 inlet;
#X obj 158 31 inlet reset;
#X connect 0 0 1 1;
#X connect 1 0 5 0;
#X connect 2 0 3 0;
#X connect 3 0 1 0;
#X connect 4 0 0 0;
#X connect 6 0 2 0;
#X connect 7 0 2 1;
#X connect 8 0 2 0;
#X restore 212 487 pd GUI_THROTTLE;
#N canvas 92 117 222 347 RECORD_GUI_UPDATE_PAUSE 0;
#X obj 51 304 outlet;
#X obj 84 208 &&;
#X obj 96 122 r \$0-record;
#X obj 84 186 f;
#X obj 84 229 == 0;
#X msg 84 100 1;
#X obj 96 143 t b f b;
#X msg 135 164 0;
#X obj 51 274 spigot;
#X obj 94 274 spigot;
#X obj 84 78 r \$0-input-1;
#X obj 94 253 r \$0-input-1;
#X obj 51 35 inlet;
#X connect 1 0 4 0;
#X connect 1 0 9 1;
#X connect 2 0 6 0;
#X connect 3 0 1 0;
#X connect 4 0 8 1;
#X connect 5 0 3 0;
#X connect 6 0 3 0;
#X connect 6 1 1 1;
#X connect 6 2 7 0;
#X connect 7 0 3 1;
#X connect 8 0 0 0;
#X connect 9 0 0 0;
#X connect 10 0 5 0;
#X connect 11 0 9 0;
#X connect 12 0 8 0;
#X restore 41 437 pd RECORD_GUI_UPDATE_PAUSE;
#N canvas 121 146 443 481 VALUE_JUMP____ 0;
#X obj 110 245 del;
#X obj 110 133 spigot;
#X msg 143 90 0;
#X obj 156 112 r \$0-value-change;
#X msg 156 176 stop;
#X obj 125 314 r \$0-input-1;
#X obj 110 336 f;
#X obj 110 267 t b b;
#X obj 110 155 t b b b;
#X obj 129 223 f;
#X obj 137 288 s \$0-textseq-reset;
#X obj 110 66 sel 0 1;
#X obj 110 41 r \$0-jump;
#X obj 144 201 r \$0-evolve;
#X obj 110 397 outlet;
#X connect 0 0 7 0;
#X connect 1 0 8 0;
#X connect 2 0 1 1;
#X connect 3 0 1 1;
#X connect 4 0 0 0;
#X connect 5 0 6 1;
#X connect 6 0 14 0;
#X connect 7 0 6 0;
#X connect 7 1 10 0;
#X connect 8 0 0 0;
#X connect 8 1 9 0;
#X connect 8 2 4 0;
#X connect 9 0 0 1;
#X connect 11 0 1 0;
#X connect 11 1 2 0;
#X connect 12 0 11 0;
#X connect 13 0 9 1;
#X restore 53 293 pd VALUE_JUMP____;
#N canvas 179 289 373 400 VALUE_EVOLVE___ 0;
#X obj 162 88 t f f;
#X obj 122 169 spigot 0;
#X msg 103 85 0;
#X obj 103 63 sel 1 0;
#X obj 189 112 change;
#X msg 189 134 1;
#X obj 122 262 pack f f 16000;
#X obj 162 64 r \$0-input-1;
#X obj 149 216 s \$0-clear;
#X obj 103 41 r \$0-evolve;
#X obj 203 239 r \$0-evolve-time;
#X msg 122 289 \$1 \, \$2 \$3;
#X obj 122 233 f;
#X obj 122 193 t b b;
#X obj 122 354 outlet;
#X obj 32 17 inlet;
#X connect 0 0 6 1;
#X connect 0 1 4 0;
#X connect 1 0 13 0;
#X connect 2 0 1 1;
#X connect 3 0 2 0;
#X connect 3 1 1 0;
#X connect 4 0 5 0;
#X connect 5 0 1 1;
#X connect 6 0 11 0;
#X connect 7 0 0 0;
#X connect 9 0 3 0;
#X connect 10 0 6 2;
#X connect 11 0 14 0;
#X connect 12 0 6 0;
#X connect 13 0 12 0;
#X connect 13 1 8 0;
#X connect 15 0 12 1;
#X restore 62 317 pd VALUE_EVOLVE___;
#N canvas 275 38 410 785 CHAOS___ 0;
#X obj 43 696 clip 0 1;
#X obj 43 18 inlet;
#X obj 54 628 t b f;
#X obj 188 284 r \$0-chaos-trig;
#X obj 54 566 f;
#X obj 54 316 f.util.switch;
#X obj 54 145 random 200;
#X obj 54 166 - 100;
#X obj 54 288 *;
#X obj 69 228 r \$0-chaos;
#X obj 54 62 r \$0-chaos;
#X obj 54 104 change;
#X obj 160 176 r \$0-reset;
#X msg 160 197 0;
#X obj 160 221 t f f;
#X obj 96 499 r \$0-chaos-trig;
#X obj 62 543 spigot;
#X obj 54 586 pack f f;
#X obj 54 607 line 0 10;
#X obj 99 564 r \$0-slew;
#X obj 142 147 r \$1-reset;
#X obj 43 651 f \$3;
#X obj 54 187 * 0.005;
#X obj 54 123 metro 30;
#X obj 70 254 pow 1.3;
#X obj 43 747 outlet;
#X obj 43 675 + 0;
#X obj 54 83 > 0.01;
#X obj 120 269 > 0.01;
#X obj 89 291 sel 0;
#X obj 62 449 spigot 0;
#X obj 119 396 r \$0-seqposition;
#X obj 119 417 sel 0;
#X obj 107 376 == 1;
#X obj 119 449 spigot 0;
#X obj 164 426 == 2;
#X obj 62 354 r \$0-c-trig;
#X obj 164 351 r \$0-chaos-trig;
#X obj 96 520 > 0;
#X msg 62 471 bang;
#X connect 0 0 25 0;
#X connect 1 0 21 0;
#X connect 2 0 21 0;
#X connect 2 1 26 1;
#X connect 3 0 5 1;
#X connect 4 0 17 0;
#X connect 5 0 4 0;
#X connect 5 1 4 1;
#X connect 6 0 7 0;
#X connect 7 0 22 0;
#X connect 8 0 5 0;
#X connect 9 0 24 0;
#X connect 9 0 28 0;
#X connect 10 0 27 0;
#X connect 11 0 23 0;
#X connect 12 0 13 0;
#X connect 13 0 14 0;
#X connect 13 0 23 0;
#X connect 13 0 24 0;
#X connect 13 0 27 0;
#X connect 14 0 18 0;
#X connect 14 1 5 1;
#X connect 14 1 8 1;
#X connect 15 0 38 0;
#X connect 16 0 4 0;
#X connect 17 0 18 0;
#X connect 18 0 2 0;
#X connect 19 0 17 1;
#X connect 20 0 13 0;
#X connect 21 0 26 0;
#X connect 22 0 8 0;
#X connect 23 0 6 0;
#X connect 24 0 8 1;
#X connect 26 0 0 0;
#X connect 27 0 11 0;
#X connect 28 0 29 0;
#X connect 29 0 13 0;
#X connect 30 0 39 0;
#X connect 31 0 32 0;
#X connect 32 0 34 0;
#X connect 33 0 30 1;
#X connect 34 0 39 0;
#X connect 35 0 34 1;
#X connect 36 0 30 0;
#X connect 37 0 33 0;
#X connect 37 0 35 0;
#X connect 38 0 16 1;
#X connect 39 0 16 0;
#X restore 41 371 pd CHAOS___;
#N canvas 1116 220 396 483 LFO_____ 0;
#X obj 57 17 inlet;
#X obj 57 373 f;
#X obj 57 450 outlet;
#X obj 74 346 t b f;
#X obj 167 262 snapshot~;
#X obj 167 120 osc~ 0.1;
#X obj 167 32 r \$0-lfo-freq;
#X obj 74 132 r \$0-lfo-depth;
#X obj 86 323 change;
#X obj 86 301 *;
#X obj 101 243 * 0.5;
#X obj 184 236 spigot;
#X obj 217 167 r \$0-lfo-depth;
#X obj 57 395 + 0;
#X msg 74 219 0;
#X obj 74 174 t f f;
#X msg 212 100 0.25;
#X obj 184 146 r master-param-update-throttle;
#X obj 167 53 pow 5;
#X obj 167 95 + 0.01;
#X obj 89 55 r \$0-reset;
#X msg 89 76 0;
#X obj 74 153 pow 1.7;
#X obj 167 74 * 9.99;
#X obj 57 416 clip 0 1;
#X obj 217 212 t f f;
#X obj 244 235 change;
#X obj 74 198 moses 0.02;
#X obj 217 191 > 0.02;
#X obj 184 167 t b;
#X connect 0 0 1 0;
#X connect 1 0 13 0;
#X connect 3 0 1 0;
#X connect 3 1 13 1;
#X connect 4 0 9 0;
#X connect 5 0 4 0;
#X connect 6 0 18 0;
#X connect 7 0 22 0;
#X connect 8 0 3 0;
#X connect 9 0 8 0;
#X connect 10 0 9 1;
#X connect 11 0 4 0;
#X connect 12 0 28 0;
#X connect 13 0 24 0;
#X connect 14 0 3 0;
#X connect 15 0 27 0;
#X connect 15 1 10 0;
#X connect 16 0 5 1;
#X connect 17 0 29 0;
#X connect 18 0 23 0;
#X connect 19 0 5 0;
#X connect 20 0 21 0;
#X connect 21 0 5 0;
#X connect 21 0 15 0;
#X connect 22 0 15 0;
#X connect 23 0 19 0;
#X connect 24 0 2 0;
#X connect 25 0 11 1;
#X connect 25 1 26 0;
#X connect 26 0 16 0;
#X connect 27 0 14 0;
#X connect 28 0 25 0;
#X connect 29 0 11 0;
#X restore 41 392 pd LFO_____;
#N canvas 121 146 450 300 EXT_MOD_ 0;
#X obj 43 37 inlet;
#X obj 43 246 outlet;
#X obj 43 162 +;
#X obj 58 76 r \$0-ext-mod;
#X obj 43 183 clip 0 1;
#X obj 58 97 t b f;
#X obj 43 135 f \$3;
#X connect 0 0 6 0;
#X connect 2 0 4 0;
#X connect 3 0 5 0;
#X connect 4 0 1 0;
#X connect 5 0 6 0;
#X connect 5 1 2 1;
#X connect 6 0 2 0;
#X restore 41 414 pd EXT_MOD_;
#N canvas 196 67 341 336 QUANTISATION 0;
#X obj 37 37 inlet;
#X obj 37 288 outlet;
#X obj 255 49 loadbang;
#X msg 255 114 0;
#X msg 286 117 1;
#X obj 255 135 t a;
#X obj 150 135 moses 1;
#X obj 189 157 ==;
#X obj 150 229 int;
#X obj 255 93 sel 0;
#X obj 37 175 f.util.switch;
#X obj 255 72 \$4;
#X obj 150 208 * \$4;
#X obj 150 250 / \$4;
#X obj 150 113 r \$0-quantise;
#X connect 0 0 10 0;
#X connect 2 0 11 0;
#X connect 3 0 5 0;
#X connect 4 0 5 0;
#X connect 5 0 7 1;
#X connect 6 0 10 1;
#X connect 6 1 7 0;
#X connect 7 0 10 1;
#X connect 8 0 13 0;
#X connect 9 0 3 0;
#X connect 9 1 4 0;
#X connect 10 0 1 0;
#X connect 10 1 12 0;
#X connect 11 0 9 0;
#X connect 12 0 8 0;
#X connect 13 0 1 0;
#X connect 14 0 6 0;
#X restore 41 458 pd QUANTISATION;
#X connect 1 0 4 0;
#X connect 2 0 3 1;
#X connect 3 0 7 0;
#X connect 4 0 19 0;
#X connect 4 0 20 0;
#X connect 5 0 6 0;
#X connect 6 0 7 0;
#X connect 6 0 16 1;
#X connect 7 0 1 0;
#X connect 8 0 3 0;
#X connect 9 0 7 0;
#X connect 11 0 2 0;
#X connect 12 0 2 0;
#X connect 13 0 5 0;
#X connect 14 0 5 0;
#X connect 16 0 15 0;
#X connect 17 0 23 0;
#X connect 18 0 4 0;
#X connect 19 0 4 0;
#X connect 20 0 21 0;
#X connect 21 0 22 0;
#X connect 22 0 17 0;
#X connect 23 0 0 0;
#X connect 23 0 16 0;
#X restore 32 740 pd VALUE_READ_EVOLUTION_SEND;
#N canvas 583 381 857 447 TIMING_+_SCHEDULING______ 0;
#X obj 47 304 spigot;
#X msg 111 277 1;
#X obj 15 89 t b b;
#X msg 80 277 0;
#X msg 551 111 bang;
#X obj 111 204 sel 0;
#X obj 111 180 spigot;
#X msg 160 156 1;
#X obj 84 132 t b f;
#X msg 129 156 0;
#X msg 689 119 tempo \$1;
#X obj 343 114 sel 1;
#X msg 262 159 1;
#X obj 689 94 r global-tempo-disabled;
#X obj 502 178 r \$0-clear;
#X obj 122 256 r \$0-to-spigot;
#X obj 160 130 r \$0-in-1;
#X obj 262 89 r \$0-in-2;
#X obj 470 89 r \$0-in-3;
#X obj 262 181 s \$0-record-on-off;
#X obj 47 394 s \$0-textseq-in;
#X obj 689 141 s \$0-textseq-tempo;
#X obj 470 205 s \$0-textseq-reset;
#X obj 92 347 == 0;
#X obj 47 370 spigot 1;
#X text 349 20 timing + scheduling;
#X obj 80 234 r \$0-clear;
#X obj 84 108 r \$0-record;
#X obj 343 89 r \$0-record;
#X obj 551 88 r \$0-record;
#X obj 15 66 r \$0-clockin;
#X obj 92 325 r \$0-loop-trig;
#X obj 484 158 r \$0-reset;
#X obj 262 136 f.util.onebang;
#X obj 470 132 f.util.onebang;
#X obj 163 232 r \$0-reset;
#X connect 0 0 24 0;
#X connect 1 0 0 1;
#X connect 2 0 3 0;
#X connect 2 1 0 0;
#X connect 3 0 0 1;
#X connect 4 0 34 1;
#X connect 5 0 1 0;
#X connect 6 0 5 0;
#X connect 7 0 6 1;
#X connect 8 0 9 0;
#X connect 8 1 6 0;
#X connect 9 0 6 1;
#X connect 10 0 21 0;
#X connect 11 0 33 1;
#X connect 11 1 19 0;
#X connect 12 0 19 0;
#X connect 13 0 10 0;
#X connect 14 0 22 0;
#X connect 15 0 1 0;
#X connect 16 0 7 0;
#X connect 17 0 33 0;
#X connect 18 0 34 0;
#X connect 23 0 24 1;
#X connect 23 0 0 1;
#X connect 24 0 20 0;
#X connect 26 0 3 0;
#X connect 27 0 8 0;
#X connect 28 0 11 0;
#X connect 29 0 4 0;
#X connect 30 0 2 0;
#X connect 31 0 23 0;
#X connect 32 0 22 0;
#X connect 33 0 12 0;
#X connect 34 0 22 0;
#X connect 35 0 3 0;
#X restore 32 699 pd TIMING_+_SCHEDULING______;
#N canvas 820 197 313 622 VALUE_IN_LOGIC___________ 0;
#X obj 42 26 inlet;
#X obj 42 457 spigot;
#X obj 42 385 t a a;
#X obj 69 411 s \$0-input-1;
#X obj 42 481 t b b b a;
#X obj 42 575 s \$0-in-1;
#X obj 62 555 s \$0-in-2;
#X obj 102 514 s \$0-in-4;
#X obj 82 534 s \$0-in-3;
#X obj 42 228 spigot 1;
#X obj 115 202 == 0;
#X obj 115 339 f;
#X obj 115 316 t b b;
#X obj 124 131 change;
#X msg 124 153 1;
#X obj 115 294 spigot;
#X msg 148 251 0;
#X obj 124 175 s \$0-value-change;
#X obj 161 274 r \$0-value-change;
#X obj 124 110 spigot;
#X obj 115 227 sel 1 0;
#X obj 142 340 s \$0-textseq-reset;
#X obj 75 435 r \$0-record;
#X obj 115 53 r \$0-set;
#X obj 157 83 r \$0-jump;
#X obj 42 59 t f f f;
#X connect 0 0 25 0;
#X connect 1 0 4 0;
#X connect 2 0 1 0;
#X connect 2 1 3 0;
#X connect 4 0 5 0;
#X connect 4 1 6 0;
#X connect 4 2 8 0;
#X connect 4 3 7 0;
#X connect 9 0 2 0;
#X connect 10 0 9 1;
#X connect 10 0 20 0;
#X connect 11 0 2 0;
#X connect 12 0 11 0;
#X connect 12 1 21 0;
#X connect 13 0 14 0;
#X connect 14 0 17 0;
#X connect 15 0 12 0;
#X connect 16 0 15 1;
#X connect 18 0 15 1;
#X connect 19 0 13 0;
#X connect 20 0 15 0;
#X connect 20 1 16 0;
#X connect 22 0 1 1;
#X connect 23 0 10 0;
#X connect 23 0 19 1;
#X connect 24 0 19 1;
#X connect 25 0 9 0;
#X connect 25 1 11 1;
#X connect 25 2 19 0;
#X restore 32 678 pd VALUE_IN_LOGIC___________;
#X obj 46 612 s \$0-evolve;
#X obj 103 530 s \$0-clockin;
#X obj 147 471 s \$0-reverse;
#X obj 32 634 s \$0-record;
#X obj 89 549 s \$0-set;
#X obj 75 569 s \$0-jump;
#X obj 132 491 s \$0-tempo;
#X obj 60 589 s \$0-evolve-time;
#X obj 32 656 r \$0-value-in;
#X text 48 12 automater: records automation and syncs to a 'master-clock';
#N canvas 60 223 366 612 SEQ_RECORD_OBJECT________ 0;
#X obj 61 536 s \$0-textseq;
#X obj 82 147 r \$0-textseq-in;
#X obj 105 280 r \$0-textseq-reset;
#X obj 73 103 r \$0-in-4;
#X msg 61 83 record \$1;
#X msg 73 125 value \$1;
#X msg 82 169 trigger bang;
#X msg 101 257 tempo \$1;
#X msg 94 214 reverse \$1;
#X msg 112 458 trigger bang;
#X text 48 15 u.seq: array based sequencer;
#X obj 101 235 r \$0-tempo;
#X obj 94 192 r \$0-reverse;
#X obj 112 341 r \$0-trig;
#X obj 214 338 r \$0-loop-trig;
#X obj 238 434 r \$0-active;
#X msg 238 455 active \$1;
#X obj 61 512 f.seq.record \$0 6000;
#X obj 112 436 spigot 0;
#X obj 178 532 s \$0-to-spigot;
#X obj 61 62 r \$0-record-on-off;
#X msg 105 302 active 0;
#X obj 169 383 r \$0-seqposition;
#X obj 169 404 sel 0;
#X obj 157 363 == 1;
#X obj 169 436 spigot 0;
#X obj 214 413 == 2;
#X obj 112 482 spigot;
#X obj 228 280 r \$0-read-resolution;
#X msg 228 301 readresolution \$1;
#X connect 1 0 6 0;
#X connect 2 0 21 0;
#X connect 3 0 5 0;
#X connect 4 0 17 0;
#X connect 5 0 17 0;
#X connect 6 0 17 0;
#X connect 7 0 17 0;
#X connect 8 0 17 0;
#X connect 9 0 27 0;
#X connect 11 0 7 0;
#X connect 12 0 8 0;
#X connect 13 0 18 0;
#X connect 14 0 24 0;
#X connect 14 0 26 0;
#X connect 15 0 16 0;
#X connect 15 0 27 1;
#X connect 16 0 17 0;
#X connect 17 0 0 0;
#X connect 17 1 19 0;
#X connect 18 0 9 0;
#X connect 20 0 4 0;
#X connect 21 0 17 0;
#X connect 22 0 23 0;
#X connect 23 0 25 0;
#X connect 24 0 18 1;
#X connect 25 0 9 0;
#X connect 26 0 25 1;
#X connect 27 0 17 0;
#X connect 28 0 29 0;
#X connect 29 0 17 0;
#X restore 32 719 pd SEQ_RECORD_OBJECT________;
#X obj 161 452 s \$0-chaos;
#X obj 48 61 f.seq.automatermessage \$1;
#X obj 175 433 s \$0-chaos-trig;
#X obj 262 316 s \$0-active;
#X obj 247 335 s \$0-value-in;
#X obj 233 354 s \$0-reset;
#X obj 218 374 s \$0-trig;
#X obj 204 394 s \$0-loop-trig;
#X obj 190 414 s \$0-c-trig;
#X obj 260 664 r automateRecord;
#X obj 260 728 spigot;
#X obj 363 684 t b;
#X msg 363 705 1;
#X obj 260 705 moses 1;
#X obj 260 684 t f b;
#X obj 363 663 r \$0-in-1;
#X obj 260 789 outlet;
#X msg 260 749 1;
#X text 82 32 \$1 = \$0 \, \$2 = param address \, \$3 = default val \, \$4 = quant div;
#X obj 276 296 s \$0-slew;
#X obj 290 276 s \$0-lfo-freq;
#X obj 305 257 s \$0-lfo-depth;
#X obj 197 790 outlet;
#X obj 118 511 s \$0-param-throttle;
#X obj 348 200 s \$0-gui-throttle;
#X obj 333 219 s \$0-mod-depth;
#X obj 319 238 s \$0-ext-mod;
#X obj 362 181 s \$0-seqposition;
#X obj 368 158 s \$0-quantise;
#X obj 32 81 route record evolve evolvetime jump set clockin paramthrottle tempo reverse chaos chaostrig ctrig looptrig trig reset float active slew lfofreq lfodepth extmod moddepth guithrottle seqposition quantise readresolution;
#X obj 375 136 s \$0-read-resolution;
#X connect 0 0 45 0;
#X connect 2 0 1 0;
#X connect 2 1 38 0;
#X connect 13 0 4 0;
#X connect 17 0 45 0;
#X connect 25 0 30 0;
#X connect 26 0 33 0;
#X connect 27 0 28 0;
#X connect 28 0 26 1;
#X connect 29 0 26 1;
#X connect 30 0 29 0;
#X connect 30 1 26 0;
#X connect 31 0 27 0;
#X connect 33 0 32 0;
#X connect 45 0 8 0;
#X connect 45 1 5 0;
#X connect 45 2 12 0;
#X connect 45 3 10 0;
#X connect 45 4 9 0;
#X connect 45 5 6 0;
#X connect 45 6 39 0;
#X connect 45 7 11 0;
#X connect 45 8 7 0;
#X connect 45 9 16 0;
#X connect 45 10 18 0;
#X connect 45 11 24 0;
#X connect 45 12 23 0;
#X connect 45 13 22 0;
#X connect 45 14 21 0;
#X connect 45 15 20 0;
#X connect 45 16 19 0;
#X connect 45 17 35 0;
#X connect 45 18 36 0;
#X connect 45 19 37 0;
#X connect 45 20 42 0;
#X connect 45 21 41 0;
#X connect 45 22 40 0;
#X connect 45 23 43 0;
#X connect 45 24 44 0;
#X connect 45 25 46 0;
