#N canvas 353 69 924 822 10;
#X obj 25 36 inlet;
#X obj 32 789 outlet;
#N canvas 1071 179 373 513 VALUE_READ_EVOLUTION_SEND 0;
#X obj 41 464 outlet;
#X obj 41 226 f;
#X obj 86 99 == 0;
#X obj 41 121 spigot 1;
#X obj 41 261 line 0 5;
#X msg 239 136 bang;
#X obj 239 158 \$3;
#X obj 41 204 t a;
#X obj 41 35 r \$0-input-1;
#X obj 58 153 r \$0-textseq;
#X text 40 7 Reads from the u.seq object/evolution;
#X obj 99 77 r \$0-jump;
#X obj 86 57 r \$0-evolve;
#X obj 239 97 r \$0-reset;
#X obj 252 116 r \$1-reset;
#X obj 152 465 outlet;
#N canvas 537 247 450 300 GUI_THROTTLE 0;
#X obj 121 114 == 0;
#X obj 76 138 spigot 1;
#X obj 76 92 f;
#X obj 76 114 change;
#X obj 121 93 r \$0-record;
#X obj 76 251 outlet;
#X obj 76 67 r \$0-gui-throttle;
#X obj 91 29 inlet;
#X obj 158 31 inlet reset;
#X connect 0 0 1 1;
#X connect 1 0 5 0;
#X connect 2 0 3 0;
#X connect 3 0 1 0;
#X connect 4 0 0 0;
#X connect 6 0 2 0;
#X connect 7 0 2 1;
#X connect 8 0 2 0;
#X restore 152 407 pd GUI_THROTTLE;
#N canvas 92 117 222 347 RECORD_GUI_UPDATE_PAUSE 0;
#X obj 51 304 outlet;
#X obj 84 208 &&;
#X obj 96 122 r \$0-record;
#X obj 84 186 f;
#X obj 84 229 == 0;
#X msg 84 100 1;
#X obj 96 143 t b f b;
#X msg 135 164 0;
#X obj 51 274 spigot;
#X obj 94 274 spigot;
#X obj 84 78 r \$0-input-1;
#X obj 94 253 r \$0-input-1;
#X obj 51 35 inlet;
#X connect 1 0 4 0;
#X connect 1 0 9 1;
#X connect 2 0 6 0;
#X connect 3 0 1 0;
#X connect 4 0 8 1;
#X connect 5 0 3 0;
#X connect 6 0 3 0;
#X connect 6 1 1 1;
#X connect 6 2 7 0;
#X connect 7 0 3 1;
#X connect 8 0 0 0;
#X connect 9 0 0 0;
#X connect 10 0 5 0;
#X connect 11 0 9 0;
#X connect 12 0 8 0;
#X restore 41 347 pd RECORD_GUI_UPDATE_PAUSE;
#N canvas 121 146 443 481 VALUE_JUMP____ 0;
#X obj 110 245 del;
#X obj 110 133 spigot;
#X msg 143 90 0;
#X obj 156 112 r \$0-value-change;
#X msg 156 176 stop;
#X obj 125 314 r \$0-input-1;
#X obj 110 336 f;
#X obj 110 267 t b b;
#X obj 110 155 t b b b;
#X obj 129 223 f;
#X obj 137 288 s \$0-textseq-reset;
#X obj 110 66 sel 0 1;
#X obj 110 41 r \$0-jump;
#X obj 144 201 r \$0-evolve;
#X obj 110 397 outlet;
#X connect 0 0 7 0;
#X connect 1 0 8 0;
#X connect 2 0 1 1;
#X connect 3 0 1 1;
#X connect 4 0 0 0;
#X connect 5 0 6 1;
#X connect 6 0 14 0;
#X connect 7 0 6 0;
#X connect 7 1 10 0;
#X connect 8 0 0 0;
#X connect 8 1 9 0;
#X connect 8 2 4 0;
#X connect 9 0 0 1;
#X connect 11 0 1 0;
#X connect 11 1 2 0;
#X connect 12 0 11 0;
#X connect 13 0 9 1;
#X restore 103 228 pd VALUE_JUMP____;
#N canvas 179 289 373 400 VALUE_EVOLVE___ 0;
#X obj 187 88 t f f;
#X obj 147 169 spigot 0;
#X msg 128 85 0;
#X obj 128 63 sel 1 0;
#X obj 214 112 change;
#X msg 214 134 1;
#X obj 102 262 pack f f 16000;
#X obj 187 64 r \$0-input-1;
#X obj 174 216 s \$0-clear;
#X obj 128 41 r \$0-evolve;
#X obj 183 239 r \$0-evolve-time;
#X msg 102 289 \$1 \, \$2 \$3;
#X obj 102 233 f;
#X obj 147 193 t b b;
#X obj 102 354 outlet;
#X obj 117 17 inlet;
#X connect 0 0 6 1;
#X connect 0 1 4 0;
#X connect 1 0 13 0;
#X connect 2 0 1 1;
#X connect 3 0 2 0;
#X connect 3 1 1 0;
#X connect 4 0 5 0;
#X connect 5 0 1 1;
#X connect 6 0 11 0;
#X connect 7 0 0 0;
#X connect 9 0 3 0;
#X connect 10 0 6 2;
#X connect 11 0 14 0;
#X connect 12 0 6 0;
#X connect 13 0 12 0;
#X connect 13 1 8 0;
#X connect 15 0 12 1;
#X restore 104 260 pd VALUE_EVOLVE___;
#N canvas 55 37 370 785 CHAOS___ 0;
#X obj 43 696 clip 0 1;
#X obj 43 18 inlet;
#X obj 54 628 t b f;
#X obj 167 264 r \$0-chaos-trig;
#X obj 54 536 f;
#X obj 54 286 f.util.switch;
#X obj 54 145 random 200;
#X obj 54 166 - 100;
#X obj 54 255 *;
#X obj 69 213 r \$0-chaos;
#X obj 54 42 r \$0-chaos;
#X obj 54 104 change;
#X obj 114 561 r \$0-reset;
#X msg 114 582 0;
#X obj 95 469 r \$0-chaos-trig;
#X obj 62 513 spigot;
#X obj 54 556 pack f f;
#X obj 54 607 line 0 10;
#X obj 99 534 r \$0-slew;
#X obj 43 651 f \$3;
#X obj 54 187 * 0.005;
#X obj 54 123 metro 30;
#X obj 69 234 pow 1.3;
#X obj 43 747 outlet;
#X obj 43 675 + 0;
#X obj 54 63 > 0.01;
#X obj 62 419 spigot 0;
#X obj 129 366 r \$0-seqposition;
#X obj 129 387 sel 0;
#X obj 107 346 == 1;
#X obj 129 419 spigot 0;
#X obj 174 396 == 2;
#X obj 174 321 r \$0-chaos-trig;
#X obj 95 490 > 0;
#X msg 62 445 bang;
#X obj 62 319 r \$0-trig;
#X obj 111 89 sel 0;
#X msg 111 110 0;
#X connect 0 0 23 0;
#X connect 1 0 19 0;
#X connect 2 0 19 0;
#X connect 2 1 24 1;
#X connect 3 0 5 1;
#X connect 4 0 16 0;
#X connect 5 0 4 0;
#X connect 5 1 4 1;
#X connect 6 0 7 0;
#X connect 7 0 20 0;
#X connect 8 0 5 0;
#X connect 9 0 22 0;
#X connect 10 0 25 0;
#X connect 11 0 21 0;
#X connect 12 0 13 0;
#X connect 13 0 17 0;
#X connect 14 0 33 0;
#X connect 15 0 4 0;
#X connect 16 0 17 0;
#X connect 17 0 2 0;
#X connect 18 0 16 1;
#X connect 19 0 24 0;
#X connect 20 0 8 0;
#X connect 21 0 6 0;
#X connect 22 0 8 1;
#X connect 24 0 0 0;
#X connect 25 0 11 0;
#X connect 25 0 36 0;
#X connect 26 0 34 0;
#X connect 27 0 28 0;
#X connect 28 0 30 0;
#X connect 29 0 26 1;
#X connect 30 0 34 0;
#X connect 31 0 30 1;
#X connect 32 0 29 0;
#X connect 32 0 31 0;
#X connect 33 0 15 1;
#X connect 34 0 15 0;
#X connect 35 0 26 0;
#X connect 36 0 37 0;
#X connect 37 0 8 0;
#X restore 41 281 pd CHAOS___;
#N canvas 1015 230 412 483 LFO_____ 0;
#X obj 57 17 inlet;
#X obj 57 373 f;
#X obj 57 450 outlet;
#X obj 74 346 t b f;
#X obj 177 262 snapshot~;
#X obj 177 120 osc~ 0.1;
#X obj 177 32 r \$0-lfo-freq;
#X obj 74 162 r \$0-lfo-depth;
#X obj 86 323 change;
#X obj 86 301 *;
#X obj 101 225 * 0.5;
#X obj 194 236 spigot;
#X obj 227 167 r \$0-lfo-depth;
#X obj 57 395 + 0;
#X msg 74 269 0;
#X obj 74 204 t f f;
#X msg 222 100 0.25;
#X obj 177 53 pow 5;
#X obj 177 95 + 0.01;
#X obj 74 183 pow 1.7;
#X obj 177 74 * 9.99;
#X obj 57 416 clip 0 1;
#X obj 227 212 t f f;
#X obj 254 235 change;
#X obj 74 248 moses 0.02;
#X obj 227 191 > 0.02;
#X obj 194 167 t b;
#X obj 194 146 r \$0-param-throttle;
#X connect 0 0 1 0;
#X connect 1 0 13 0;
#X connect 3 0 1 0;
#X connect 3 1 13 1;
#X connect 4 0 9 0;
#X connect 5 0 4 0;
#X connect 6 0 17 0;
#X connect 7 0 19 0;
#X connect 8 0 3 0;
#X connect 9 0 8 0;
#X connect 10 0 9 1;
#X connect 11 0 4 0;
#X connect 12 0 25 0;
#X connect 13 0 21 0;
#X connect 14 0 3 0;
#X connect 15 0 24 0;
#X connect 15 1 10 0;
#X connect 16 0 5 1;
#X connect 17 0 20 0;
#X connect 18 0 5 0;
#X connect 19 0 15 0;
#X connect 20 0 18 0;
#X connect 21 0 2 0;
#X connect 22 0 11 1;
#X connect 22 1 23 0;
#X connect 23 0 16 0;
#X connect 24 0 14 0;
#X connect 25 0 22 0;
#X connect 26 0 11 0;
#X connect 27 0 26 0;
#X restore 41 302 pd LFO_____;
#N canvas 121 146 328 300 EXT_MOD_ 0;
#X obj 43 37 inlet;
#X obj 43 246 outlet;
#X obj 43 162 +;
#X obj 58 76 r \$0-ext-mod;
#X obj 43 183 clip 0 1;
#X obj 58 97 t b f;
#X obj 43 135 f \$3;
#X connect 0 0 6 0;
#X connect 2 0 4 0;
#X connect 3 0 5 0;
#X connect 4 0 1 0;
#X connect 5 0 6 0;
#X connect 5 1 2 1;
#X connect 6 0 2 0;
#X restore 41 324 pd EXT_MOD_;
#N canvas 196 67 341 336 QUANTISATION 0;
#X obj 37 37 inlet;
#X obj 37 288 outlet;
#X obj 255 49 loadbang;
#X msg 255 114 0;
#X msg 286 117 1;
#X obj 255 135 t a;
#X obj 150 135 moses 1;
#X obj 189 157 ==;
#X obj 150 229 int;
#X obj 255 93 sel 0;
#X obj 37 175 f.util.switch;
#X obj 255 72 \$4;
#X obj 150 208 * \$4;
#X obj 150 250 / \$4;
#X obj 150 113 r \$0-quantise;
#X connect 0 0 10 0;
#X connect 2 0 11 0;
#X connect 3 0 5 0;
#X connect 4 0 5 0;
#X connect 5 0 7 1;
#X connect 6 0 10 1;
#X connect 6 1 7 0;
#X connect 7 0 10 1;
#X connect 8 0 13 0;
#X connect 9 0 3 0;
#X connect 9 1 4 0;
#X connect 10 0 1 0;
#X connect 10 1 12 0;
#X connect 11 0 9 0;
#X connect 12 0 8 0;
#X connect 13 0 1 0;
#X connect 14 0 6 0;
#X restore 41 368 pd QUANTISATION;
#X connect 1 0 4 0;
#X connect 2 0 3 1;
#X connect 3 0 7 0;
#X connect 4 0 19 0;
#X connect 4 0 20 0;
#X connect 5 0 6 0;
#X connect 6 0 7 0;
#X connect 6 0 16 1;
#X connect 7 0 1 0;
#X connect 8 0 3 0;
#X connect 9 0 7 0;
#X connect 11 0 2 0;
#X connect 12 0 2 0;
#X connect 13 0 5 0;
#X connect 14 0 5 0;
#X connect 16 0 15 0;
#X connect 17 0 23 0;
#X connect 18 0 4 0;
#X connect 19 0 4 0;
#X connect 20 0 21 0;
#X connect 21 0 22 0;
#X connect 22 0 17 0;
#X connect 23 0 0 0;
#X connect 23 0 16 0;
#X restore 32 740 pd VALUE_READ_EVOLUTION_SEND;
#N canvas 69 507 857 447 TIMING_+_SCHEDULING______ 0;
#X obj 47 304 spigot;
#X msg 111 277 1;
#X obj 15 89 t b b;
#X msg 80 277 0;
#X msg 551 111 bang;
#X obj 111 204 sel 0;
#X obj 111 180 spigot;
#X msg 160 156 1;
#X obj 84 132 t b f;
#X msg 129 156 0;
#X msg 689 119 tempo \$1;
#X obj 343 114 sel 1;
#X msg 262 159 1;
#X obj 689 94 r global-tempo-disabled;
#X obj 502 178 r \$0-clear;
#X obj 122 256 r \$0-to-spigot;
#X obj 160 130 r \$0-in-1;
#X obj 262 89 r \$0-in-2;
#X obj 470 89 r \$0-in-3;
#X obj 262 181 s \$0-record-on-off;
#X obj 47 394 s \$0-textseq-in;
#X obj 689 141 s \$0-textseq-tempo;
#X obj 470 205 s \$0-textseq-reset;
#X obj 92 347 == 0;
#X obj 47 370 spigot 1;
#X text 349 20 timing + scheduling;
#X obj 80 234 r \$0-clear;
#X obj 84 108 r \$0-record;
#X obj 343 89 r \$0-record;
#X obj 551 88 r \$0-record;
#X obj 15 66 r \$0-clockin;
#X obj 92 325 r \$0-loop-trig;
#X obj 484 158 r \$0-reset;
#X obj 262 136 f.util.onebang;
#X obj 470 132 f.util.onebang;
#X obj 163 232 r \$0-reset;
#X connect 0 0 24 0;
#X connect 1 0 0 1;
#X connect 2 0 3 0;
#X connect 2 1 0 0;
#X connect 3 0 0 1;
#X connect 4 0 34 1;
#X connect 5 0 1 0;
#X connect 6 0 5 0;
#X connect 7 0 6 1;
#X connect 8 0 9 0;
#X connect 8 1 6 0;
#X connect 9 0 6 1;
#X connect 10 0 21 0;
#X connect 11 0 33 1;
#X connect 11 1 19 0;
#X connect 12 0 19 0;
#X connect 13 0 10 0;
#X connect 14 0 22 0;
#X connect 15 0 1 0;
#X connect 16 0 7 0;
#X connect 17 0 33 0;
#X connect 18 0 34 0;
#X connect 23 0 24 1;
#X connect 23 0 0 1;
#X connect 24 0 20 0;
#X connect 26 0 3 0;
#X connect 27 0 8 0;
#X connect 28 0 11 0;
#X connect 29 0 4 0;
#X connect 30 0 2 0;
#X connect 31 0 23 0;
#X connect 32 0 22 0;
#X connect 33 0 12 0;
#X connect 34 0 22 0;
#X connect 35 0 3 0;
#X restore 32 699 pd TIMING_+_SCHEDULING______;
#N canvas 820 197 313 622 VALUE_IN_LOGIC___________ 0;
#X obj 42 26 inlet;
#X obj 42 457 spigot;
#X obj 42 385 t a a;
#X obj 69 411 s \$0-input-1;
#X obj 42 481 t b b b a;
#X obj 42 575 s \$0-in-1;
#X obj 62 555 s \$0-in-2;
#X obj 102 514 s \$0-in-4;
#X obj 82 534 s \$0-in-3;
#X obj 42 228 spigot 1;
#X obj 115 202 == 0;
#X obj 115 339 f;
#X obj 115 316 t b b;
#X obj 124 131 change;
#X msg 124 153 1;
#X obj 115 294 spigot;
#X msg 148 251 0;
#X obj 124 175 s \$0-value-change;
#X obj 161 274 r \$0-value-change;
#X obj 124 110 spigot;
#X obj 115 227 sel 1 0;
#X obj 142 340 s \$0-textseq-reset;
#X obj 75 435 r \$0-record;
#X obj 115 53 r \$0-set;
#X obj 157 83 r \$0-jump;
#X obj 42 59 t f f f;
#X connect 0 0 25 0;
#X connect 1 0 4 0;
#X connect 2 0 1 0;
#X connect 2 1 3 0;
#X connect 4 0 5 0;
#X connect 4 1 6 0;
#X connect 4 2 8 0;
#X connect 4 3 7 0;
#X connect 9 0 2 0;
#X connect 10 0 9 1;
#X connect 10 0 20 0;
#X connect 11 0 2 0;
#X connect 12 0 11 0;
#X connect 12 1 21 0;
#X connect 13 0 14 0;
#X connect 14 0 17 0;
#X connect 15 0 12 0;
#X connect 16 0 15 1;
#X connect 18 0 15 1;
#X connect 19 0 13 0;
#X connect 20 0 15 0;
#X connect 20 1 16 0;
#X connect 22 0 1 1;
#X connect 23 0 10 0;
#X connect 23 0 19 1;
#X connect 24 0 19 1;
#X connect 25 0 9 0;
#X connect 25 1 11 1;
#X connect 25 2 19 0;
#X restore 32 678 pd VALUE_IN_LOGIC___________;
#X obj 753 17 s \$0-set;
#X obj 32 656 r \$0-value-in;
#X text 48 12 automater: records automation and syncs to a 'master-clock';
#N canvas 60 223 366 629 SEQ_RECORD_OBJECT________ 0;
#X obj 61 566 s \$0-textseq;
#X obj 82 127 r \$0-textseq-in;
#X obj 105 260 r \$0-textseq-reset;
#X obj 73 83 r \$0-in-4;
#X msg 61 63 record \$1;
#X msg 73 105 value \$1;
#X msg 82 149 trigger bang;
#X msg 101 237 tempo \$1;
#X msg 94 194 reverse \$1;
#X msg 112 468 trigger bang;
#X text 48 15 u.seq: array based sequencer;
#X obj 101 215 r \$0-tempo;
#X obj 94 172 r \$0-reverse;
#X obj 112 351 r \$0-trig;
#X obj 214 348 r \$0-loop-trig;
#X obj 157 492 r \$0-active;
#X msg 157 513 active \$1;
#X obj 61 542 f.seq.record \$0 6000;
#X obj 112 446 spigot 0;
#X obj 178 562 s \$0-to-spigot;
#X obj 61 42 r \$0-record-on-off;
#X msg 105 282 active 0;
#X obj 169 393 r \$0-seqposition;
#X obj 169 414 sel 0;
#X obj 157 373 == 1;
#X obj 169 446 spigot 0;
#X obj 214 423 == 2;
#X obj 112 512 spigot;
#X obj 115 305 r \$0-param-throttle;
#X msg 115 326 paramthrottle bang;
#X connect 1 0 6 0;
#X connect 2 0 21 0;
#X connect 3 0 5 0;
#X connect 4 0 17 0;
#X connect 5 0 17 0;
#X connect 6 0 17 0;
#X connect 7 0 17 0;
#X connect 8 0 17 0;
#X connect 9 0 27 0;
#X connect 11 0 7 0;
#X connect 12 0 8 0;
#X connect 13 0 18 0;
#X connect 14 0 24 0;
#X connect 14 0 26 0;
#X connect 15 0 16 0;
#X connect 15 0 27 1;
#X connect 16 0 17 0;
#X connect 17 0 0 0;
#X connect 17 1 19 0;
#X connect 18 0 9 0;
#X connect 20 0 4 0;
#X connect 21 0 17 0;
#X connect 22 0 23 0;
#X connect 23 0 25 0;
#X connect 24 0 18 1;
#X connect 25 0 9 0;
#X connect 26 0 25 1;
#X connect 27 0 17 0;
#X connect 28 0 29 0;
#X connect 29 0 17 0;
#X restore 32 719 pd SEQ_RECORD_OBJECT________;
#X obj 41 61 f.seq.automatermessage \$1;
#X obj 260 728 spigot;
#X obj 363 684 t b;
#X msg 363 705 1;
#X obj 260 705 moses 1;
#X obj 260 684 t f b;
#X obj 363 663 r \$0-in-1;
#X obj 260 789 outlet;
#X msg 260 749 1;
#X text 82 32 \$1 = \$0 \, \$2 = param address \, \$3 = default val \, \$4 = quant div;
#X obj 197 790 outlet;
#X obj 260 664 r \$0-record;
#X text 549 87 record = record mode button -> activate/deactivate automation recording;
#X text 549 168 evolvetime = sets parameter evolve time;
#X text 549 122 evolve = evolve mode button -> allows the value to be evolved to to be set and prevents parameter from updating until evolve button has been released;
#X text 549 192 jump = jump mode button -> allows the value to be jumped to to be set and prevents parameter updating until jump button has been released;
#X text 549 262 clockin = receives a bang every beat from the master clock \, which is used to trigger the start of automation playback \, ensuring that playback always starts on a beat.;
#X text 549 308 paramthrottle = receives a bang from the master parameter throttle every 10ms to control automation read back speed;
#X text 549 343 tempo = controls the speed at which the automation is read. This does skip stored values if the tempo increases \, but interpolates values if decreased.;
#X text 549 389 reverse = reverse the read back of the automation;
#N canvas 1023 50 276 309 reset 0;
#X obj 41 24 r \$0-reset;
#X msg 41 45 0;
#X obj 41 246 s \$0-chaos;
#X obj 55 225 s \$0-chaos-trig;
#X obj 72 205 s \$0-loop-trig;
#X obj 81 184 s \$0-active;
#X obj 96 161 s \$0-slew;
#X obj 109 141 s \$0-lfo-freq;
#X obj 124 122 s \$0-lfo-depth;
#X obj 136 100 s \$0-quantise;
#X connect 0 0 1 0;
#X connect 1 0 2 0;
#X connect 1 0 3 0;
#X connect 1 0 4 0;
#X connect 1 0 5 0;
#X connect 1 0 6 0;
#X connect 1 0 8 0;
#X connect 1 0 7 0;
#X connect 1 0 9 0;
#X restore 220 516 pd reset;
#X text 549 413 chaos = receive the chaos (random value) amount;
#X text 549 437 chaostrig = sets whether chaos (random value) is continuous or triggered by the sequencer;
#X text 549 238 set = sets the parameters current value ??? Not sure;
#X text 205 60 <- move this out of the abstraction???;
#X text 549 472 looptrig = determines whether automation runs freely \, is triggered by sequence step or at the beginning of each sequence cycle;
#X text 549 518 trig = receives a bang each time a step of the sequence is triggered;
#X text 549 553 reset = resets all values;
#X text 549 577 float(value-in) = sets the parameter value as controlled by the UI in open stage control;
#X text 549 612 active = activate/deactivate automation read back;
#X text 549 636 slew = sets chaos slew;
#X obj 700 45 s \$0-read-resolution;
#X obj 160 453 s \$0-evolve;
#X obj 32 612 s \$0-clockin;
#X obj 233 342 s \$0-reverse;
#X obj 206 385 s \$0-record;
#X obj 191 406 s \$0-jump;
#X obj 61 573 s \$0-tempo;
#X obj 174 430 s \$0-evolve-time;
#X obj 278 279 s \$0-chaos;
#X obj 292 260 s \$0-chaos-trig;
#X obj 219 363 s \$0-active;
#X obj 125 495 s \$0-value-in;
#X obj 111 515 s \$0-reset;
#X obj 244 321 s \$0-trig;
#X obj 261 300 s \$0-loop-trig;
#X obj 310 239 s \$0-slew;
#X obj 325 218 s \$0-lfo-freq;
#X obj 340 199 s \$0-lfo-depth;
#X obj 47 593 s \$0-param-throttle;
#X obj 76 553 s \$0-gui-throttle;
#X obj 354 180 s \$0-ext-mod;
#X obj 93 534 s \$0-seqposition;
#X obj 140 475 s \$0-quantise;
#X obj 25 90 route clockin paramthrottle tempo guithrottle seqposition reset float quantise evolve evolvetime jump record active reverse trig looptrig chaos chaostrig slew lfofreq lfodepth extmod set;
#X connect 0 0 63 0;
#X connect 2 0 1 0;
#X connect 2 1 19 0;
#X connect 6 0 4 0;
#X connect 9 0 63 0;
#X connect 10 0 17 0;
#X connect 11 0 12 0;
#X connect 12 0 10 1;
#X connect 13 0 10 1;
#X connect 14 0 13 0;
#X connect 14 1 10 0;
#X connect 15 0 11 0;
#X connect 17 0 16 0;
#X connect 20 0 14 0;
#X connect 63 0 42 0;
#X connect 63 1 58 0;
#X connect 63 2 46 0;
#X connect 63 3 59 0;
#X connect 63 4 61 0;
#X connect 63 5 52 0;
#X connect 63 6 51 0;
#X connect 63 7 62 0;
#X connect 63 8 41 0;
#X connect 63 9 47 0;
#X connect 63 10 45 0;
#X connect 63 11 44 0;
#X connect 63 12 50 0;
#X connect 63 13 43 0;
#X connect 63 14 53 0;
#X connect 63 15 54 0;
#X connect 63 16 48 0;
#X connect 63 17 49 0;
#X connect 63 18 55 0;
#X connect 63 19 56 0;
#X connect 63 20 57 0;
#X connect 63 21 60 0;
