#N canvas 506 264 934 624 12;
#X obj 39 21 inlet;
#X obj 39 253 s \$0-1;
#X obj 61 230 s \$0-2;
#X obj 84 208 s \$0-3;
#X obj 106 185 s \$0-4;
#X obj 129 163 s \$0-5;
#X obj 151 141 s \$0-6;
#X obj 77 340 r \$0-1;
#X obj 194 339 r \$0-2;
#X obj 331 338 r \$0-3;
#X obj 458 337 r \$0-4;
#X obj 596 336 r \$0-5;
#X obj 743 335 r \$0-6;
#X msg 170 78 0;
#X obj 39 79 route 1 2 3 4 5 6;
#X obj 38 310 r 1-m-val;
#X obj 155 309 r 2-m-val;
#X obj 292 308 r 3-m-val;
#X obj 419 307 r 4-m-val;
#X obj 557 306 r 5-m-val;
#X obj 704 305 r 6-m-val;
#X obj 38 382 spigot;
#X obj 155 381 spigot;
#X obj 292 380 spigot;
#X obj 419 379 spigot;
#X obj 557 378 spigot;
#X obj 704 377 spigot;
#X obj 37 552 outlet;
#X obj 39 50 route reset;
#X obj 37 488 expr $f1 + $f2 + $f3 + $f4 + $f5 + $f6;
#X obj 204 382 moses 1;
#X obj 345 382 moses 1;
#X obj 471 379 moses 1;
#X obj 609 378 moses 1;
#X obj 756 377 moses 1;
#X obj 7 382 t b;
#X obj 91 365 moses 1;
#X obj 37 445 f;
#X obj 241 21 inlet;
#X obj 37 525 * 0;
#X obj 241 93 * 2;
#X obj 241 69 pow 3;
#X connect 0 0 28 0;
#X connect 7 0 21 1;
#X connect 7 0 36 0;
#X connect 8 0 22 1;
#X connect 8 0 30 0;
#X connect 9 0 23 1;
#X connect 9 0 31 0;
#X connect 10 0 24 1;
#X connect 10 0 32 0;
#X connect 11 0 25 1;
#X connect 11 0 33 0;
#X connect 12 0 26 1;
#X connect 12 0 34 0;
#X connect 13 0 6 0;
#X connect 13 0 5 0;
#X connect 13 0 4 0;
#X connect 13 0 3 0;
#X connect 13 0 2 0;
#X connect 13 0 1 0;
#X connect 14 0 1 0;
#X connect 14 1 2 0;
#X connect 14 2 3 0;
#X connect 14 3 4 0;
#X connect 14 4 5 0;
#X connect 14 5 6 0;
#X connect 15 0 21 0;
#X connect 15 0 35 0;
#X connect 16 0 22 0;
#X connect 17 0 23 0;
#X connect 18 0 24 0;
#X connect 19 0 25 0;
#X connect 20 0 26 0;
#X connect 21 0 37 1;
#X connect 22 0 29 1;
#X connect 23 0 29 2;
#X connect 24 0 29 3;
#X connect 25 0 29 4;
#X connect 26 0 29 5;
#X connect 28 0 13 0;
#X connect 28 1 14 0;
#X connect 29 0 39 0;
#X connect 30 0 29 1;
#X connect 31 0 29 2;
#X connect 32 0 29 3;
#X connect 33 0 29 4;
#X connect 34 0 29 5;
#X connect 35 0 37 0;
#X connect 36 0 37 1;
#X connect 37 0 29 0;
#X connect 38 0 41 0;
#X connect 39 0 27 0;
#X connect 40 0 39 1;
#X connect 41 0 40 0;
