#N canvas 760 590 339 290 10;
#X obj 65 33 inlet;
#X obj 65 244 outlet;
#X obj 158 32 inlet;
#X obj 94 134 == 0;
#X obj 65 134 f;
#X obj 125 135 i;
#X obj 66 155 spigot 1;
#X obj 125 156 spigot;
#X text 207 76 floatint selector;
#X obj 113 33 inlet;
#X obj 113 94 t f f;
#X obj 65 95 t a a;
#X connect 0 0 11 0;
#X connect 2 0 3 0;
#X connect 2 0 7 1;
#X connect 3 0 6 1;
#X connect 4 0 6 0;
#X connect 5 0 7 0;
#X connect 6 0 1 0;
#X connect 7 0 1 0;
#X connect 9 0 10 0;
#X connect 10 0 4 1;
#X connect 10 1 5 1;
#X connect 11 0 4 0;
#X connect 11 1 5 0;
