#N canvas 150 286 645 512 12;
#X obj 70 188 del 10;
#X msg 70 212 0;
#X obj 133 164 del 10;
#X msg 133 188 0;
#X obj 203 138 del 10;
#X msg 203 162 0;
#X obj 266 114 del 10;
#X msg 266 138 0;
#X obj 331 90 del 10;
#X msg 331 114 0;
#X obj 394 66 del 10;
#X msg 394 90 0;
#X obj 70 36 inlet;
#X obj 398 399 outlet;
#X obj 70 238 oscformat \$1 0;
#X obj 133 214 oscformat \$1 1;
#X obj 203 188 oscformat \$1 2;
#X obj 266 164 oscformat \$1 3;
#X obj 331 141 oscformat \$1 4;
#X obj 394 116 oscformat \$1 5;
#X connect 0 0 1 0;
#X connect 0 0 2 0;
#X connect 1 0 14 0;
#X connect 2 0 3 0;
#X connect 2 0 4 0;
#X connect 3 0 15 0;
#X connect 4 0 5 0;
#X connect 4 0 6 0;
#X connect 5 0 16 0;
#X connect 6 0 7 0;
#X connect 6 0 8 0;
#X connect 7 0 17 0;
#X connect 8 0 9 0;
#X connect 8 0 10 0;
#X connect 9 0 18 0;
#X connect 10 0 11 0;
#X connect 11 0 19 0;
#X connect 12 0 0 0;
#X connect 14 0 13 0;
#X connect 15 0 13 0;
#X connect 16 0 13 0;
#X connect 17 0 13 0;
#X connect 18 0 13 0;
#X connect 19 0 13 0;
