#N canvas 999 443 241 339 10;
#X obj 41 15 r o-s-c-messages;
#N canvas 1181 491 331 415 ENV_MASTER_PAN________ 0;
#X obj 17 27 inlet;
#X obj 17 350 outlet;
#N canvas 1119 473 335 339 MUTE_MESSAGE_ASSEMBLE 0;
#X obj 58 226 list trim;
#X obj 65 173 s to-o-s-c-interface;
#X obj 166 76 r \$1-reset;
#X obj 58 205 list prepend formuls\$1 mute;
#X obj 65 152 oscformat mute\$1;
#X obj 166 97 del 200;
#X obj 58 36 route mute\$1;
#X obj 58 11 inlet;
#X obj 236 301 outlet;
#X obj 58 248 s to-faust-\$1;
#N canvas 92 219 297 486 FADECONTROL 0;
#X obj 86 99 == 0;
#X obj 41 121 spigot 1;
#X obj 41 351 line 0 5;
#N canvas 347 276 373 400 VALUE_EVOLVE___ 0;
#X obj 162 88 t f f;
#X obj 122 169 spigot 0;
#X msg 103 85 0;
#X obj 103 63 sel 1 0;
#X obj 189 112 change;
#X msg 189 134 1;
#X obj 122 262 pack f f 16000;
#X obj 149 216 s \$0-clear;
#X msg 122 289 \$1 \, \$2 \$3;
#X obj 122 233 f;
#X obj 122 193 t b b;
#X obj 122 354 outlet;
#X obj 32 17 inlet;
#X obj 188 20 inlet;
#X obj 103 41 r evolution-active;
#X obj 203 239 r evolution-time;
#X connect 0 0 6 1;
#X connect 0 1 4 0;
#X connect 1 0 10 0;
#X connect 2 0 1 1;
#X connect 3 0 2 0;
#X connect 3 1 1 0;
#X connect 4 0 5 0;
#X connect 5 0 1 1;
#X connect 6 0 8 0;
#X connect 8 0 11 0;
#X connect 9 0 6 0;
#X connect 10 0 9 0;
#X connect 10 1 7 0;
#X connect 12 0 9 1;
#X connect 13 0 0 0;
#X connect 14 0 3 0;
#X connect 15 0 6 2;
#X restore 62 317 pd VALUE_EVOLVE___;
#X obj 41 415 outlet;
#X obj 41 35 inlet;
#X msg 185 194 0;
#X obj 41 248 f;
#X obj 188 35 inlet;
#X obj 86 77 r evolution-active;
#X connect 0 0 1 1;
#X connect 1 0 7 0;
#X connect 2 0 3 0;
#X connect 2 0 4 0;
#X connect 3 0 2 0;
#X connect 5 0 1 0;
#X connect 5 0 3 1;
#X connect 6 0 7 0;
#X connect 7 0 2 0;
#X connect 8 0 6 0;
#X connect 9 0 0 0;
#X restore 85 119 pd FADECONTROL;
#X connect 0 0 9 0;
#X connect 2 0 5 0;
#X connect 3 0 0 0;
#X connect 4 0 1 0;
#X connect 5 0 10 1;
#X connect 6 0 3 0;
#X connect 6 0 4 0;
#X connect 6 0 10 0;
#X connect 6 1 8 0;
#X connect 7 0 6 0;
#X connect 10 0 4 0;
#X connect 10 0 3 0;
#X restore 17 228 pd MUTE_MESSAGE_ASSEMBLE;
#X obj 108 143 s reverb\$1;
#X obj 17 164 f.util.oscformat \$0 \$1 panning 0.5;
#N canvas 771 87 293 291 VOLUME_TO_FAUST_ACTIVE 0;
#X obj 74 71 > 0;
#X obj 121 93 s \$0-volume;
#X obj 74 112 moses 1;
#X obj 74 133 pipe 10;
#X obj 74 154 t a;
#X msg 74 175 active \$1;
#X obj 74 92 change;
#X obj 74 30 inlet;
#X obj 74 196 s to-faust-\$1;
#X connect 0 0 1 0;
#X connect 0 0 6 0;
#X connect 2 0 3 0;
#X connect 2 1 4 0;
#X connect 3 0 4 0;
#X connect 4 0 5 0;
#X connect 5 0 8 0;
#X connect 6 0 2 0;
#X connect 7 0 0 0;
#X restore 108 206 pd VOLUME_TO_FAUST_ACTIVE;
#N canvas 0 31 199 247 SLEW_MAP__ 0;
#X obj 46 59 inlet;
#X obj 46 120 i;
#X obj 46 140 s \$0-slew;
#X obj 46 99 * 1000;
#X connect 0 0 3 0;
#X connect 1 0 2 0;
#X connect 3 0 1 0;
#X restore 102 271 pd SLEW_MAP__;
#N canvas 0 34 330 313 RESET________________ 0;
#X obj 37 37 inlet;
#X obj 37 84 route reset\$1;
#X obj 37 173 bng 15 250 50 0 empty empty empty 17 7 0 10 #fcfcfc #000000 #000000;
#X obj 37 223 s \$0-reset;
#X obj 46 203 s \$1-reset;
#X obj 37 154 sel 1;
#X obj 60 132 s \$0-\$1-reset;
#X obj 60 107 r resetglobal;
#X obj 198 247 outlet;
#X connect 0 0 1 0;
#X connect 1 0 5 0;
#X connect 1 0 6 0;
#X connect 1 1 8 0;
#X connect 2 0 3 0;
#X connect 2 0 4 0;
#X connect 5 0 2 0;
#X connect 7 0 6 0;
#X connect 7 0 5 0;
#X restore 17 293 pd RESET________________;
#X obj 17 185 f.util.oscformat \$0 \$1 volume 0 0 2.7;
#N canvas 589 279 545 455 envelopesidechain 0;
#X obj 53 37 inlet;
#X obj 53 58 route envelopesidechain\$1 envelopesidechainmod\$1 envelopesidechainmoddepth\$1;
#X obj 243 97 t f f;
#X obj 243 158 abs;
#X obj 53 317 list trim;
#X obj 418 390 outlet;
#X obj 127 101 list split 1;
#X obj 127 122 list fromsymbol;
#X obj 127 143 f.util.asci2char;
#X obj 127 164 + 1;
#X obj 53 339 s to-faust-\$1;
#X obj 127 184 pack f f;
#X obj 53 251 list prepend formuls\$1 enveloperelease;
#X obj 127 210 list prepend formuls\$1 envsidesource;
#X obj 243 180 list prepend formuls\$1 envelopedepth;
#X obj 270 146 list prepend formuls\$1 envelopeside;
#X obj 53 222 pow 2.7;
#X obj 270 125 <= 0;
#X connect 0 0 1 0;
#X connect 1 0 16 0;
#X connect 1 1 6 0;
#X connect 1 2 2 0;
#X connect 1 3 5 0;
#X connect 2 0 3 0;
#X connect 2 1 17 0;
#X connect 3 0 14 0;
#X connect 4 0 10 0;
#X connect 6 0 7 0;
#X connect 6 1 11 1;
#X connect 7 0 8 0;
#X connect 8 0 9 0;
#X connect 9 0 11 0;
#X connect 11 0 13 0;
#X connect 12 0 4 0;
#X connect 13 0 4 0;
#X connect 14 0 4 0;
#X connect 15 0 4 0;
#X connect 16 0 12 0;
#X connect 17 0 15 0;
#X restore 17 100 pd envelopesidechain;
#X obj 17 249 f.util.oscformat \$0 \$1 chaosslew 0;
#X obj 17 122 f.util.oscformat \$0 \$1 reverb 0 0 2;
#X connect 0 0 9 0;
#X connect 2 0 10 0;
#X connect 4 0 8 0;
#X connect 7 0 1 0;
#X connect 8 0 2 0;
#X connect 8 1 5 0;
#X connect 9 0 11 0;
#X connect 10 0 7 0;
#X connect 10 1 6 0;
#X connect 11 0 4 0;
#X connect 11 1 3 0;
#X restore 41 171 pd ENV_MASTER_PAN________;
#N canvas 1033 121 479 581 FX____________________ 0;
#X obj 17 7 inlet;
#X obj 17 466 outlet;
#N canvas 977 86 646 916 AM_FREQ_DEPTH__________ 0;
#X obj 100 8 inlet;
#N canvas 686 43 379 567 AM_QUANTISE 0;
#X text 240 259 bpm to hz;
#X text 238 326 99.9 + 0.1;
#X obj 163 289 /;
#X obj 163 333 /;
#X msg 163 265 60 \$1;
#X msg 163 309 0.5 \$1;
#X obj 148 409 *;
#X obj 148 429 / 100;
#X text 41 32 from interface (0-1 / number_of_steps);
#X obj 35 9 inlet;
#X obj 163 246 r bpmglobal;
#X obj 35 170 f.util.switch;
#X obj 35 519 outlet;
#X obj 234 489 oscformat amfreq;
#X obj 234 510 s \$0-OSC-collect-\$1;
#X msg 188 407 1 3.1;
#X obj 188 428 /;
#X obj 148 460 pow;
#X obj 188 385 loadbang;
#X obj 148 85 r to-o-s-c-interface;
#X obj 148 106 oscparse;
#X obj 148 127 list trim;
#X obj 148 148 route amfreqquantise\$1;
#X obj 148 215 f.util.listgetvalue;
#X obj 259 172 r resetglobal;
#X msg 259 193 0.5 1 2 4 8 16;
#X obj 148 389 f;
#X obj 163 358 t b f;
#X connect 2 0 5 0;
#X connect 3 0 27 0;
#X connect 4 0 2 0;
#X connect 5 0 3 0;
#X connect 6 0 7 0;
#X connect 7 0 17 0;
#X connect 9 0 11 0;
#X connect 10 0 4 0;
#X connect 11 0 12 0;
#X connect 11 1 23 0;
#X connect 13 0 14 0;
#X connect 15 0 16 0;
#X connect 16 0 17 1;
#X connect 17 0 12 0;
#X connect 18 0 15 0;
#X connect 19 0 20 0;
#X connect 20 0 21 0;
#X connect 21 0 22 0;
#X connect 22 0 11 1;
#X connect 23 0 26 0;
#X connect 24 0 25 0;
#X connect 25 0 23 1;
#X connect 26 0 6 0;
#X connect 27 0 26 0;
#X connect 27 1 6 1;
#X restore 100 723 pd AM_QUANTISE;
#X obj 319 832 oscformat amfreqdepth\$1;
#X obj 319 853 s \$1-message-collect;
#X obj 319 809 f.util.pak;
#X obj 100 786 f.util.oscformat \$0 \$1 amfreq 0 0 3.1;
#X obj 143 596 unpack f f;
#X obj 253 618 pack f \$1;
#X obj 187 506 unpack f f;
#X obj 313 529 pack f \$1;
#X obj 231 420 unpack f f;
#X obj 357 440 pack f \$1;
#X msg 357 463 amdepthlfodepth\$2 \$1;
#X msg 313 551 amdepthlfofreq\$2 \$1;
#X msg 253 641 amdepthchaos\$2 \$1;
#X obj 143 660 s \$0-am-x;
#X obj 253 662 s \$0-am-y;
#X obj 313 572 s \$0-am-y;
#X obj 357 484 s \$0-am-y;
#X obj 187 572 s \$0-am-x;
#X obj 231 484 s \$0-am-x;
#X obj 185 764 r \$0-am-x;
#X obj 213 702 r \$0-am-y;
#X obj 539 893 outlet;
#X obj 100 743 pack f \$1;
#X msg 100 764 amfreq\$2 \$1;
#X obj 187 530 pack f \$1;
#X obj 231 442 pack f \$1;
#X msg 231 463 amfreqlfodepth\$2 \$1;
#X msg 187 551 amfreqlfofreq\$2 \$1;
#X msg 143 639 amfreqchaos\$2 \$1;
#X obj 143 617 pack f \$1;
#X obj 53 158 spigot;
#X obj 86 137 r automateRecord;
#X msg 53 178 0;
#X obj 53 199 s amfreqdepth\$1-act-gui;
#X obj 363 260 list append \$1;
#X obj 100 59 route amfreqdepth\$1 amfreqdepthchaos\$1 amfreqdepthlfofreq\$1 amfreqdepthlfodepth\$1 amfreqdepthlabel\$1 amfreqdepthxmod\$1 amfreqdepthymod\$1 amfreqdepthmoddepth\$1;
#N canvas 266 291 372 295 AM_SPLIT_____ 0;
#X obj 51 57 unpack f f;
#X obj 113 129 r xglobal;
#X obj 246 91 r yglobal;
#X obj 184 109 f.util.switch;
#X obj 51 147 f.util.switch;
#X obj 184 131 pack f \$1;
#X msg 184 152 amdepth\$2 \$1;
#X obj 51 23 inlet;
#X obj 51 209 outlet;
#X obj 184 213 outlet;
#X connect 0 0 4 0;
#X connect 0 1 3 0;
#X connect 1 0 4 1;
#X connect 2 0 3 1;
#X connect 3 0 5 0;
#X connect 4 0 8 0;
#X connect 5 0 6 0;
#X connect 6 0 9 0;
#X connect 7 0 0 0;
#X restore 100 687 pd AM_SPLIT_____;
#X msg 363 282 amdepthmod\$3 \$1 \$2;
#X obj 407 105 unpack f f;
#X obj 464 128 list append \$1;
#X obj 407 194 list append \$1;
#X obj 464 170 s \$0-am-y;
#X obj 407 236 s \$0-am-x;
#X obj 319 325 list append \$1;
#X obj 363 303 s \$0-am-y;
#X msg 319 346 amfreqmod\$3 \$1 \$2;
#N canvas 63 88 325 308 ACT_TRIG_REV_CHOASTRIG 0;
#X obj 49 242 s \$0-am-x;
#X obj 68 150 list trim;
#X obj 68 129 list prepend amdepthlabel\$1;
#X obj 68 171 s \$0-am-y;
#X obj 49 220 list trim;
#X obj 49 199 list prepend amfreqlabel\$1;
#X obj 88 107 f.util.widgetparse \$1 amfreqdepth;
#X obj 49 20 inlet;
#X obj 49 84 t a a a;
#X connect 1 0 3 0;
#X connect 2 0 1 0;
#X connect 4 0 0 0;
#X connect 5 0 4 0;
#X connect 7 0 8 0;
#X connect 8 0 5 0;
#X connect 8 1 2 0;
#X connect 8 2 6 0;
#X restore 275 389 pd ACT_TRIG_REV_CHOASTRIG;
#X obj 319 367 s \$0-am-x;
#X obj 193 725 f.util.oscformat \$0 \$1 amdepth 0 0 1.5;
#X msg 407 215 amfreqmoddepth\$2 \$1;
#X msg 464 149 amdepthmoddepth\$2 \$1;
#X connect 0 0 37 0;
#X connect 1 0 24 0;
#X connect 2 0 3 0;
#X connect 4 0 2 0;
#X connect 5 2 4 0;
#X connect 6 0 31 0;
#X connect 6 1 7 0;
#X connect 7 0 14 0;
#X connect 8 0 26 0;
#X connect 8 1 9 0;
#X connect 9 0 13 0;
#X connect 10 0 27 0;
#X connect 10 1 11 0;
#X connect 11 0 12 0;
#X connect 12 0 18 0;
#X connect 13 0 17 0;
#X connect 14 0 16 0;
#X connect 21 0 5 0;
#X connect 22 0 50 0;
#X connect 24 0 25 0;
#X connect 25 0 5 0;
#X connect 26 0 29 0;
#X connect 27 0 28 0;
#X connect 28 0 20 0;
#X connect 29 0 19 0;
#X connect 30 0 15 0;
#X connect 31 0 30 0;
#X connect 32 0 34 0;
#X connect 33 0 32 1;
#X connect 34 0 35 0;
#X connect 36 0 39 0;
#X connect 37 0 32 0;
#X connect 37 0 38 0;
#X connect 37 1 6 0;
#X connect 37 2 8 0;
#X connect 37 3 10 0;
#X connect 37 4 48 0;
#X connect 37 5 45 0;
#X connect 37 6 36 0;
#X connect 37 7 40 0;
#X connect 37 8 23 0;
#X connect 38 0 1 0;
#X connect 38 1 50 0;
#X connect 39 0 46 0;
#X connect 40 0 42 0;
#X connect 40 1 41 0;
#X connect 41 0 52 0;
#X connect 42 0 51 0;
#X connect 45 0 47 0;
#X connect 47 0 49 0;
#X connect 50 2 4 1;
#X connect 51 0 44 0;
#X connect 52 0 43 0;
#X restore 17 45 pd AM_FREQ_DEPTH__________;
#N canvas 313 38 325 357 FXSEND________ 0;
#X obj 41 17 inlet;
#X obj 41 81 route fxsend\$1;
#X obj 41 232 == 0;
#X obj 249 315 outlet;
#X obj 41 253 pack f \$1;
#X obj 62 115 r \$1-reset;
#X obj 88 182 pack f \$1;
#X msg 88 203 fxsend\$2 \$1;
#X obj 88 224 s \$1-message-collect;
#X msg 41 274 formuls\$2 fxsend \$1;
#X msg 62 136 0;
#X obj 41 303 s to-faust-\$2;
#X connect 0 0 1 0;
#X connect 1 0 2 0;
#X connect 1 1 3 0;
#X connect 2 0 4 0;
#X connect 4 0 9 0;
#X connect 5 0 10 0;
#X connect 6 0 7 0;
#X connect 7 0 8 0;
#X connect 9 0 11 0;
#X connect 10 0 2 0;
#X connect 10 0 6 0;
#X restore 17 419 pd FXSEND________;
#N canvas 79 247 509 492 DELAY_TIME_________________ 0;
#X obj 37 17 inlet;
#X obj 165 174 r \$2-bpm;
#X obj 150 309 clip 0 1;
#X obj 165 216 /;
#X msg 165 195 120 \$1;
#X obj 150 288 *;
#X obj 165 238 t b f;
#X obj 150 262 f;
#X obj 37 59 route delaytime\$1;
#X obj 136 449 outlet;
#X obj 150 330 pack f \$1;
#X msg 150 351 delaytime\$2 \$1;
#X obj 37 112 f.util.switch;
#X obj 136 388 f.util.oscformat \$0 \$1 delaytime 0 0 1;
#X obj 150 25 r to-o-s-c-interface;
#X obj 150 46 oscparse;
#X obj 150 67 list trim;
#X obj 150 88 route delaytimequantise\$1;
#X obj 150 153 f.util.listgetvalue;
#X msg 261 131 0.125 0.25 0.5 0.75 1;
#X obj 261 110 r resetglobal;
#X connect 0 0 8 0;
#X connect 1 0 4 0;
#X connect 2 0 10 0;
#X connect 3 0 6 0;
#X connect 4 0 3 0;
#X connect 5 0 2 0;
#X connect 6 0 7 0;
#X connect 6 1 5 1;
#X connect 7 0 5 0;
#X connect 8 0 12 0;
#X connect 8 1 13 0;
#X connect 10 0 11 0;
#X connect 11 0 13 0;
#X connect 12 0 2 0;
#X connect 12 1 18 0;
#X connect 13 0 9 0;
#X connect 14 0 15 0;
#X connect 15 0 16 0;
#X connect 16 0 17 0;
#X connect 17 0 12 1;
#X connect 18 0 7 0;
#X connect 19 0 18 1;
#X connect 20 0 19 0;
#X restore 17 357 pd DELAY_TIME_________________;
#N canvas 527 83 555 745 RESONANT_FILTER____ 0;
#X obj 66 8 inlet;
#X obj 66 180 list split 2;
#X obj 448 715 outlet;
#X obj 267 471 t b a;
#X obj 226 495 unpack f f;
#X obj 294 544 unpack f f;
#X obj 226 576 pack f f f f \$1;
#X obj 226 618 s \$1-message-collect;
#X obj 66 407 list trim;
#X obj 180 266 list trim;
#X obj 111 321 r automateRecord;
#X obj 66 362 spigot 1;
#X obj 111 342 == 0;
#X obj 66 237 unpack f f;
#X msg 110 261 1 \$1;
#X obj 110 282 -;
#X obj 66 301 pack f f;
#X msg 248 522 1 \$1;
#X obj 248 543 -;
#X msg 226 597 resonantfilterREAL\$5 \$1 \$2 \$3 \$4;
#X obj 66 29 route resonantfilterfreqq\$1 resonantfilterfreqqchaos\$1 resonantfilterfreqqlfofreq\$1 resonantfilterfreqqlfodepth\$1 resonantfilterfreqqlabel\$1;
#X obj 180 286 f.util.oscformatxy \$0 \$1 resonantfilterfreqq lowpass 1 0 1 lowpassresonance 0 0 2.7;
#X obj 294 81 list prepend resonantfilterfreqqlabel\$1;
#X obj 237 103 list prepend resonantfilterfreqqlfodepth\$1;
#X obj 180 125 list prepend resonantfilterfreqqlfofreq\$1;
#X obj 123 148 list prepend resonantfilterfreqqchaos\$1;
#X obj 100 202 list prepend resonantfilterfreqq\$1;
#X obj 66 386 list prepend resonantfilterfreqq\$1;
#X obj 66 429 f.util.oscformatxy \$0 \$1 resonantfilterfreqq highpass 0 0 1 highpassresonance 0 0 2.7;
#X obj 374 157 r \$0-freq-follow;
#X obj 374 259 spigot;
#X obj 383 176 r \$0-filter-pitch-track-on;
#X obj 383 197 t f f;
#X obj 383 217 sel 1;
#X obj 374 238 f;
#X connect 0 0 20 0;
#X connect 1 0 13 0;
#X connect 1 1 26 0;
#X connect 3 0 6 0;
#X connect 3 1 5 0;
#X connect 4 0 6 0;
#X connect 4 1 17 0;
#X connect 5 0 6 2;
#X connect 5 1 6 3;
#X connect 6 0 19 0;
#X connect 8 0 28 0;
#X connect 9 0 21 0;
#X connect 10 0 12 0;
#X connect 11 0 27 0;
#X connect 12 0 11 1;
#X connect 13 0 16 0;
#X connect 13 1 14 0;
#X connect 14 0 15 0;
#X connect 15 0 16 1;
#X connect 16 0 11 0;
#X connect 17 0 18 0;
#X connect 18 0 6 1;
#X connect 19 0 7 0;
#X connect 20 0 1 0;
#X connect 20 1 25 0;
#X connect 20 2 24 0;
#X connect 20 3 23 0;
#X connect 20 4 22 0;
#X connect 20 5 2 0;
#X connect 21 1 3 0;
#X connect 22 0 9 0;
#X connect 23 0 9 0;
#X connect 24 0 9 0;
#X connect 25 0 9 0;
#X connect 26 0 9 0;
#X connect 27 0 8 0;
#X connect 28 1 4 0;
#X connect 29 0 34 0;
#X connect 30 0 21 1;
#X connect 31 0 32 0;
#X connect 32 0 33 0;
#X connect 32 1 30 1;
#X connect 33 0 34 0;
#X connect 33 1 21 1;
#X connect 34 0 30 0;
#X restore 17 242 pd RESONANT_FILTER____;
#X obj 17 87 f.util.oscformat \$0 \$1 amphasereset 0;
#X obj 17 66 f.util.oscformat \$0 \$1 amwave 0 3;
#X obj 17 378 f.util.oscformatxy \$0 \$1 delayfeedbacksend delayfeedback 0 0 1 delaysend 0 0 2.7;
#X obj 17 337 f.util.oscformat \$0 \$1 delayreverser 0;
#N canvas 97 125 450 300 MESSAGE_HACK 0;
#X obj 147 56 inlet;
#X obj 147 77 list prepend formuls\$1 delayreverse;
#X obj 147 138 s to-faust-\$1;
#X obj 147 98 list trim;
#X connect 0 0 1 0;
#X connect 1 0 3 0;
#X connect 3 0 2 0;
#X restore 255 337 pd MESSAGE_HACK;
#N canvas 201 47 646 953 PITCHSHIFT_PITCHSHIFT_MIX_____ 0;
#X obj 100 8 inlet;
#X obj 319 883 s \$1-message-collect;
#X obj 319 839 f.util.pak;
#X obj 143 626 unpack f f;
#X obj 283 648 pack f \$1;
#X obj 187 536 unpack f f;
#X obj 343 559 pack f \$1;
#X obj 231 450 unpack f f;
#X obj 387 470 pack f \$1;
#X obj 539 913 outlet;
#X obj 187 560 pack f \$1;
#X obj 231 472 pack f \$1;
#X obj 143 647 pack f \$1;
#X obj 53 188 spigot;
#X obj 86 167 r automateRecord;
#X msg 53 208 0;
#X obj 349 287 list append \$1;
#X obj 407 135 unpack f f;
#X obj 464 158 list append \$1;
#X obj 407 224 list append \$1;
#X obj 308 353 list append \$1;
#N canvas 63 88 350 308 ACT_TRIG_REV_CHOASTRIG 0;
#X obj 68 150 list trim;
#X obj 49 220 list trim;
#X obj 49 20 inlet;
#X obj 49 84 t a a a;
#X obj 88 107 f.util.widgetparse \$1 pitchshiftpitchmix;
#X obj 68 129 list prepend pitchshiftmixlabel\$1;
#X obj 49 199 list prepend pitchshiftlabel\$1;
#X obj 49 242 s \$0-ps-x;
#X obj 68 171 s \$0-ps-y;
#X connect 0 0 8 0;
#X connect 1 0 7 0;
#X connect 2 0 3 0;
#X connect 3 0 6 0;
#X connect 3 1 5 0;
#X connect 3 2 4 0;
#X connect 5 0 0 0;
#X connect 6 0 1 0;
#X restore 266 419 pd ACT_TRIG_REV_CHOASTRIG;
#X obj 100 59 route pitchshiftpitchmix\$1 pitchshiftpitchmixchaos\$1 pitchshiftpitchmixlfofreq\$1 pitchshiftpitchmixlfodepth\$1 pitchshiftpitchmixlabel\$1 pitchshiftpitchmixxmod\$1 pitchshiftpitchmixymod\$1 pitchshiftpitchmixmoddepth\$1;
#X obj 53 228 s pitchshiftpitchmix\$1-act-gui;
#X obj 193 755 f.util.oscformat \$0 \$1 pitchshiftmix 0 0 1.5;
#X obj 319 862 oscformat pitchshiftpitchmix\$1;
#X obj 185 784 r \$0-ps-x;
#X obj 213 732 r \$0-ps-y;
#X msg 143 669 pitchshiftchaos\$2 \$1;
#X msg 283 671 pitchshiftmixchaos\$2 \$1;
#X msg 187 581 pitchshiftlfofreq\$2 \$1;
#X msg 343 581 pitchshiftmixlfofreq\$2 \$1;
#X msg 231 493 pitchshiftlfodepth\$2 \$1;
#X msg 387 493 pitchshiftmixlfodepth\$2 \$1;
#X obj 308 395 s \$0-ps-x;
#X msg 308 374 pitchshiftmod\$3 \$1 \$2;
#X msg 349 309 pitchshiftmixmod\$3 \$1 \$2;
#X msg 407 245 pitchshiftmoddepth\$2 \$1;
#X msg 464 179 pitchshiftmixmoddepth\$2 \$1;
#X obj 407 266 s \$0-ps-x;
#X obj 231 514 s \$0-ps-x;
#X obj 187 602 s \$0-ps-x;
#X obj 143 690 s \$0-ps-x;
#X obj 283 692 s \$0-ps-y;
#X obj 343 602 s \$0-ps-y;
#X obj 387 514 s \$0-ps-y;
#X obj 349 330 s \$0-ps-y;
#X obj 464 200 s \$0-ps-y;
#N canvas 266 291 372 295 PS_SPLIT_____ 0;
#X obj 51 57 unpack f f;
#X obj 113 129 r xglobal;
#X obj 246 91 r yglobal;
#X obj 184 109 f.util.switch;
#X obj 51 147 f.util.switch;
#X obj 184 131 pack f \$1;
#X obj 51 23 inlet;
#X obj 51 229 outlet;
#X obj 184 233 outlet;
#X obj 51 169 pack f \$1;
#X msg 184 152 pitchshiftmix\$2 \$1;
#X msg 51 188 pitchshift\$2 \$1;
#X connect 0 0 4 0;
#X connect 0 1 3 0;
#X connect 1 0 4 1;
#X connect 2 0 3 1;
#X connect 3 0 5 0;
#X connect 4 0 9 0;
#X connect 5 0 10 0;
#X connect 6 0 0 0;
#X connect 9 0 11 0;
#X connect 10 0 8 0;
#X connect 11 0 7 0;
#X restore 100 717 pd PS_SPLIT_____;
#X obj 100 806 f.util.oscformat \$0 \$1 pitchshift 0.5 4 0;
#X connect 0 0 22 0;
#X connect 2 0 25 0;
#X connect 3 0 12 0;
#X connect 3 1 4 0;
#X connect 4 0 29 0;
#X connect 5 0 10 0;
#X connect 5 1 6 0;
#X connect 6 0 31 0;
#X connect 7 0 11 0;
#X connect 7 1 8 0;
#X connect 8 0 33 0;
#X connect 10 0 30 0;
#X connect 11 0 32 0;
#X connect 12 0 28 0;
#X connect 13 0 15 0;
#X connect 14 0 13 1;
#X connect 15 0 23 0;
#X connect 16 0 36 0;
#X connect 17 0 19 0;
#X connect 17 1 18 0;
#X connect 18 0 38 0;
#X connect 19 0 37 0;
#X connect 20 0 35 0;
#X connect 22 0 13 0;
#X connect 22 0 48 0;
#X connect 22 1 3 0;
#X connect 22 2 5 0;
#X connect 22 3 7 0;
#X connect 22 4 21 0;
#X connect 22 5 20 0;
#X connect 22 6 16 0;
#X connect 22 7 17 0;
#X connect 22 8 9 0;
#X connect 24 2 2 1;
#X connect 25 0 1 0;
#X connect 26 0 49 0;
#X connect 27 0 24 0;
#X connect 28 0 42 0;
#X connect 29 0 43 0;
#X connect 30 0 41 0;
#X connect 31 0 44 0;
#X connect 32 0 40 0;
#X connect 33 0 45 0;
#X connect 35 0 34 0;
#X connect 36 0 46 0;
#X connect 37 0 39 0;
#X connect 38 0 47 0;
#X connect 48 0 49 0;
#X connect 48 1 24 0;
#X connect 49 2 2 0;
#X restore 17 108 pd PITCHSHIFT_PITCHSHIFT_MIX_____;
#X obj 180 491 f.util.oscformat \$0 \$1 gateattack 0 0 3;
#X obj 180 470 f.util.oscformat \$0 \$1 gatehold 0 0 0.1;
#X obj 17 134 f.util.oscformatxy \$0 \$1 saturationbitcrush saturation 0 0 1 bitcrush 0 0 1;
#X obj 192 231 f.util.oscformat \$0 \$1 filtertype 0 0 1;
#X obj 17 166 f.util.oscformatxy \$0 \$1 chorusphaser chorus 0 0 2.7 phaser 0 0 1;
#X obj 17 293 f.util.oscformatxy \$0 \$1 gatethreshrelease gatethresh 0 0 1 gaterelease 0 0 3;
#N canvas 76 370 450 300 FILTER_PITCH_TRACK__ 0;
#X obj 77 47 inlet;
#X obj 77 68 route filterpitchtrack\$1;
#X obj 226 243 outlet;
#X obj 77 89 s \$0-filter-pitch-track-on;
#X obj 47 164 oscformat filterpitchtrack \$1;
#X obj 47 185 s to-o-s-c-interface;
#X obj 91 117 r \$1-reset;
#X msg 91 138 0;
#X connect 0 0 1 0;
#X connect 1 0 3 0;
#X connect 1 0 4 0;
#X connect 1 1 2 0;
#X connect 4 0 5 0;
#X connect 6 0 7 0;
#X connect 7 0 4 0;
#X connect 7 0 3 0;
#X restore 17 268 pd FILTER_PITCH_TRACK__;
#X obj 27 198 -f.util.oscformatxy \$0 \$1 filter filterfreq 1 0 1 filterq 0 0 2.7;
#X connect 0 0 2 0;
#X connect 2 0 7 0;
#X connect 3 0 1 0;
#X connect 4 0 8 0;
#X connect 5 0 18 0;
#X connect 6 0 11 0;
#X connect 7 0 6 0;
#X connect 8 0 3 0;
#X connect 9 0 4 0;
#X connect 9 2 10 0;
#X connect 11 0 14 0;
#X connect 13 0 12 0;
#X connect 14 0 16 0;
#X connect 16 0 5 0;
#X connect 17 0 9 0;
#X connect 18 0 17 0;
#X restore 41 149 pd FX____________________;
#N canvas 893 149 549 562 SEQ___________________ 0;
#X obj 44 8 inlet;
#X obj 44 518 outlet;
#X obj 295 72 r \$0-reset;
#X msg 295 94 reset bang;
#X obj 295 115 s \$0-seq-messages;
#X obj 44 156 f.util.controlparse \$2 \$1 seqtimebase;
#N canvas 105 456 450 300 SEQTIMEBASE___ 0;
#X msg 53 98 \$1;
#X msg 168 226 timebase \$1;
#X obj 168 247 s \$0-seq-messages;
#X obj 168 185 i;
#X obj 53 119 / 8;
#X obj 168 206 clip 1 8;
#X obj 168 165 * 8;
#X obj 53 144 f.seq.automater \$0 \$0-seq-time-base 0.5;
#X obj 53 22 inlet;
#X obj 53 73 route float;
#X msg 137 110 seqposition \$1;
#X obj 137 89 r \$0-seqpos-\$1;
#X connect 0 0 4 0;
#X connect 1 0 2 0;
#X connect 3 0 5 0;
#X connect 4 0 7 0;
#X connect 5 0 1 0;
#X connect 6 0 3 0;
#X connect 7 1 6 0;
#X connect 8 0 9 0;
#X connect 9 0 0 0;
#X connect 9 1 7 0;
#X connect 10 0 7 0;
#X connect 11 0 10 0;
#X restore 277 156 pd SEQTIMEBASE___;
#X obj 44 204 f.util.controlparse \$2 \$1 seqlength;
#N canvas 0 38 418 330 SEQLENGTH___ 0;
#X obj 53 22 inlet;
#X obj 53 73 route float;
#X obj 171 180 i;
#X msg 171 240 seqlength \$1;
#X obj 171 261 s \$0-seq-messages;
#N canvas 234 115 318 363 SEQ_ACTIVE_CLEAR___ 0;
#X obj 41 8 inlet;
#X obj 42 320 s to-o-s-c-interface;
#X obj 112 254 pack f \$1;
#X obj 42 299 oscformat;
#X obj 41 117 until;
#X obj 41 138 i;
#X obj 66 138 + 1;
#X obj 41 93 t f b;
#X msg 79 113 0;
#X obj 41 208 t b f;
#X obj 41 29 t b f;
#X obj 85 207 t b f;
#X obj 41 177 moses;
#X msg 41 229 1;
#X msg 85 228 0;
#X msg 112 275 set aseqwrite\$2-\$1;
#X msg 41 72 128;
#X connect 0 0 10 0;
#X connect 2 0 15 0;
#X connect 3 0 1 0;
#X connect 4 0 5 0;
#X connect 5 0 6 0;
#X connect 5 0 12 0;
#X connect 6 0 5 1;
#X connect 7 0 4 0;
#X connect 7 1 8 0;
#X connect 8 0 5 1;
#X connect 9 0 13 0;
#X connect 9 1 2 0;
#X connect 10 0 16 0;
#X connect 10 1 12 1;
#X connect 11 0 14 0;
#X connect 11 1 2 0;
#X connect 12 0 9 0;
#X connect 12 1 11 0;
#X connect 13 0 3 0;
#X connect 14 0 3 0;
#X connect 15 0 3 0;
#X connect 16 0 7 0;
#X restore 185 221 pd SEQ_ACTIVE_CLEAR___;
#X msg 137 110 seqposition \$1;
#X obj 137 89 r \$0-seqpos-\$1;
#X obj 171 159 * 128;
#X obj 171 201 clip 1 128;
#X obj 53 108 / 128;
#X obj 53 137 f.seq.automater \$0 \$0-seq-length 0.125 128;
#X connect 0 0 1 0;
#X connect 1 0 10 0;
#X connect 1 1 11 0;
#X connect 2 0 9 0;
#X connect 3 0 4 0;
#X connect 6 0 11 0;
#X connect 7 0 6 0;
#X connect 8 0 2 0;
#X connect 9 0 3 0;
#X connect 9 0 5 0;
#X connect 10 0 11 0;
#X connect 11 1 8 0;
#X restore 265 205 pd SEQLENGTH___;
#N canvas 0 25 262 310 SEQON________________________ 0;
#X obj 53 20 inlet;
#X obj 179 269 outlet;
#X obj 53 148 s \$0-seq-messages;
#X msg 53 127 seqon \$1;
#X obj 53 104 f.seq.automater \$0 \$0-seq-on 0 0;
#X obj 53 61 route seqon\$1;
#X connect 0 0 5 0;
#X connect 3 0 2 0;
#X connect 4 0 3 0;
#X connect 5 0 4 0;
#X connect 5 1 1 0;
#X restore 44 83 pd SEQON________________________;
#N canvas 0 38 492 294 SEQWRITE_____________________ 0;
#X obj 86 240 s \$0-seq-messages;
#X obj 53 20 inlet;
#X obj 283 229 outlet;
#X obj 53 124 list prepend all;
#X obj 53 145 list trim;
#X msg 311 172 seqwrite \$1 \$2;
#X obj 311 126 list;
#X obj 311 82 fudiformat;
#X obj 311 103 fudiparse;
#X msg 311 147 \$1 \$2;
#X obj 311 54 route seqwritestep\$1;
#X obj 53 198 list split 1;
#X obj 86 219 list trim;
#X obj 53 174 clone f.util.seqwriteparse 128 \$1;
#X connect 1 0 3 0;
#X connect 1 0 2 0;
#X connect 3 0 4 0;
#X connect 4 0 13 0;
#X connect 6 0 9 0;
#X connect 7 0 8 0;
#X connect 8 0 6 0;
#X connect 9 0 5 0;
#X connect 10 0 7 0;
#X connect 11 1 12 0;
#X connect 12 0 0 0;
#X connect 13 0 11 0;
#X restore 44 128 pd SEQWRITE_____________________;
#N canvas 0 38 604 297 UNUSED___ 0;
#X msg 91 81 seqinvert \$1;
#X obj 91 102 s \$0-seq-messages;
#X obj 91 61 f.seq.automater \$0 \$0-seq-inv;
#X obj 26 154 f.util.controlparse \$2 \$1 seqrandomvelocity;
#N canvas 0 25 348 225 SEQRANDOMVEL___ 0;
#X obj 53 22 inlet;
#X obj 53 73 route float;
#X obj 53 130 s \$0-seq-random-vel;
#X obj 53 109 f.seq.automater \$0 \$0-seq-random-vel;
#X connect 0 0 1 0;
#X connect 1 0 3 0;
#X connect 1 1 3 0;
#X connect 3 0 2 0;
#X restore 296 154 pd SEQRANDOMVEL___;
#X obj 26 180 f.util.controlparse \$2 \$1 seqtrigger;
#N canvas 0 25 336 275 SEQTRIGGER_____ 0;
#X obj 53 22 inlet;
#X obj 53 73 route float;
#X obj 53 222 s \$0-seq-trigger;
#X obj 53 182 change;
#X obj 53 202 sel 0;
#X obj 53 162 spigot;
#X obj 86 120 r \$0-seq-messages;
#X obj 86 141 route seqon;
#X obj 53 99 f.seq.automater \$0 \$0-seq-trigger 0 1;
#X connect 0 0 1 0;
#X connect 1 0 8 0;
#X connect 1 1 8 0;
#X connect 3 0 4 0;
#X connect 4 1 2 0;
#X connect 5 0 3 0;
#X connect 6 0 7 0;
#X connect 7 0 5 1;
#X connect 8 0 5 0;
#X restore 254 180 pd SEQTRIGGER_____;
#X text 416 154 <- what does this do?!;
#X text 375 184 <- not currently implemented?;
#X connect 0 0 1 0;
#X connect 2 0 0 0;
#X connect 3 1 4 0;
#X connect 5 1 6 0;
#X restore 182 488 pd UNUSED___;
#N canvas 0 38 348 225 SEQSWING___ 0;
#X obj 53 22 inlet;
#X obj 53 73 route float;
#X msg 53 130 swing \$1;
#X obj 53 151 s \$0-seq-messages;
#X obj 53 109 f.seq.automater \$0 \$0-seq-swing;
#X obj 163 134 oscformat seqswing\$1;
#X obj 163 155 s \$1-message-collect;
#X connect 0 0 1 0;
#X connect 1 0 4 0;
#X connect 1 1 4 0;
#X connect 2 0 3 0;
#X connect 4 0 2 0;
#X connect 4 1 5 0;
#X connect 5 0 6 0;
#X restore 258 321 pd SEQSWING___;
#X obj 44 321 f.util.controlparse \$2 \$1 seqswing;
#X obj 44 345 f.util.controlparse \$2 \$1 seqdelay;
#X obj 44 369 f.util.controlparse \$2 \$1 seqwarp;
#N canvas 386 25 262 310 SEQASYNC_____________________ 0;
#X obj 53 20 inlet;
#X obj 179 269 outlet;
#X msg 53 119 beatsync \$1;
#X obj 53 140 s \$0-seq-messages;
#X obj 53 61 route seqasync\$1;
#X obj 53 97 f.seq.automater \$0 \$0-seqasync 0;
#X connect 0 0 4 0;
#X connect 2 0 3 0;
#X connect 4 0 5 0;
#X connect 4 1 1 0;
#X connect 5 0 2 0;
#X restore 44 105 pd SEQASYNC_____________________;
#N canvas 0 38 348 225 SEQWARP___ 0;
#X obj 53 22 inlet;
#X obj 53 73 route float;
#X msg 53 126 warp \$1;
#X obj 53 147 s \$0-seq-messages;
#X obj 53 105 f.seq.automater \$0 \$0-seq-warp;
#X obj 163 155 s \$1-message-collect;
#X obj 163 134 oscformat seqwarp\$1;
#X connect 0 0 1 0;
#X connect 1 0 4 0;
#X connect 1 1 4 0;
#X connect 2 0 3 0;
#X connect 4 0 2 0;
#X connect 4 1 6 0;
#X connect 6 0 5 0;
#X restore 252 369 pd SEQWARP___;
#N canvas 0 38 348 225 SEQDELAY___ 0;
#X obj 53 22 inlet;
#X obj 53 65 route float;
#X obj 53 112 pow 2.7;
#X obj 53 133 * 100;
#X msg 53 174 delay \$1;
#X obj 53 195 s \$0-seq-messages;
#X obj 53 91 f.seq.automater \$0 \$0-seq-delay;
#X obj 53 154 i;
#X obj 144 150 s \$1-message-collect;
#X obj 144 129 oscformat seqdelay\$1;
#X connect 0 0 1 0;
#X connect 1 0 6 0;
#X connect 1 1 6 0;
#X connect 2 0 3 0;
#X connect 3 0 7 0;
#X connect 4 0 5 0;
#X connect 6 0 2 0;
#X connect 6 1 9 0;
#X connect 7 0 4 0;
#X connect 9 0 8 0;
#X restore 258 344 pd SEQDELAY___;
#X obj 44 180 f.util.controlparse \$2 \$1 seqtimebasemultiply;
#N canvas 0 38 555 485 SEQTIMEBASEMULTIPLY__ 0;
#X obj 53 22 inlet;
#X obj 53 73 route float;
#X obj 210 422 s \$0-seq-messages;
#X obj 210 271 i;
#X obj 210 382 clip 0 5;
#X obj 210 250 * 6;
#X obj 53 102 sel 0.25 0.5 1 2 3 4;
#X msg 53 128 1;
#X msg 82 128 2;
#X msg 110 126 3;
#X msg 140 128 4;
#X msg 166 127 5;
#X msg 201 127 6;
#X obj 53 159 t a;
#X obj 53 180 / 6;
#X obj 210 351 t a;
#X obj 210 294 sel 1 2 3 4 5 6;
#X msg 210 320 0.25;
#X msg 239 320 0.5;
#X msg 267 318 1;
#X msg 297 320 2;
#X msg 323 319 3;
#X msg 358 319 4;
#X obj 53 226 f.seq.automater \$0 \$0-seq-time-base-multiply 0.5 0;
#X msg 210 401 timebasemultiply \$1;
#X msg 160 188 seqposition \$1;
#X obj 160 167 r \$0-seqpos-\$1;
#X connect 0 0 1 0;
#X connect 1 0 6 0;
#X connect 1 1 23 0;
#X connect 3 0 16 0;
#X connect 4 0 24 0;
#X connect 5 0 3 0;
#X connect 6 0 7 0;
#X connect 6 1 8 0;
#X connect 6 2 9 0;
#X connect 6 3 10 0;
#X connect 6 4 11 0;
#X connect 6 5 12 0;
#X connect 7 0 13 0;
#X connect 8 0 13 0;
#X connect 9 0 13 0;
#X connect 10 0 13 0;
#X connect 11 0 13 0;
#X connect 12 0 13 0;
#X connect 13 0 14 0;
#X connect 14 0 23 0;
#X connect 15 0 4 0;
#X connect 16 0 17 0;
#X connect 16 1 18 0;
#X connect 16 2 19 0;
#X connect 16 3 20 0;
#X connect 16 4 21 0;
#X connect 16 5 22 0;
#X connect 17 0 15 0;
#X connect 18 0 15 0;
#X connect 19 0 15 0;
#X connect 20 0 15 0;
#X connect 21 0 15 0;
#X connect 22 0 15 0;
#X connect 23 1 5 0;
#X connect 24 0 2 0;
#X connect 25 0 23 0;
#X connect 26 0 25 0;
#X restore 335 181 pd SEQTIMEBASEMULTIPLY__;
#X obj 44 226 f.util.controlparse \$2 \$1 seqcycle;
#N canvas 0 38 328 307 SEQCYCLE_____ 0;
#X obj 53 22 inlet;
#X obj 53 53 route float;
#X obj 150 180 i;
#X obj 150 261 s \$0-seq-messages;
#X obj 53 79 i;
#X msg 150 240 seqcycle \$1;
#X obj 53 108 / 8;
#X obj 150 159 * 8;
#X obj 150 222 clip 1 8;
#X obj 150 200 + 1;
#X obj 53 137 f.seq.automater \$0 \$0-seq-cycle 0;
#X msg 137 110 seqposition \$1;
#X obj 137 89 r \$0-seqpos-\$1;
#X connect 0 0 1 0;
#X connect 1 0 4 0;
#X connect 1 1 10 0;
#X connect 2 0 9 0;
#X connect 4 0 6 0;
#X connect 5 0 3 0;
#X connect 6 0 10 0;
#X connect 7 0 2 0;
#X connect 8 0 5 0;
#X connect 9 0 8 0;
#X connect 10 1 7 0;
#X connect 11 0 10 0;
#X connect 12 0 11 0;
#X restore 265 227 pd SEQCYCLE_____;
#X obj 44 254 f.util.oscformatxy \$2 \$1 seqrandomadddrop seqrandomadd 0 0 0 seqrandomdrop 0 0 0;
#N canvas 740 287 360 245 SEQRANDOMADDDROP 0;
#X obj 109 28 inlet;
#X obj 109 179 s \$0-seq-messages;
#X obj 134 136 s \$0-seq-messages;
#X msg 109 158 randomadd \$1;
#X msg 134 115 randomdrop \$2;
#X obj 109 89 route seqrandomadddrop\$1;
#X obj 109 49 oscparse;
#X obj 109 70 list trim;
#X connect 0 0 6 0;
#X connect 3 0 1 0;
#X connect 4 0 2 0;
#X connect 5 0 3 0;
#X connect 5 0 4 0;
#X connect 6 0 7 0;
#X connect 7 0 5 0;
#X restore 413 254 pd SEQRANDOMADDDROP;
#N canvas 330 171 360 245 FLAMSPREADHITS 0;
#X obj 109 18 inlet;
#X obj 109 199 s \$0-flam-hits;
#X obj 134 156 s \$0-flam-spread;
#X obj 108 51 oscparse;
#X obj 107 75 list trim;
#X msg 109 178 \$1;
#X msg 134 135 \$2;
#X obj 109 99 route flamhitsspread\$1;
#X connect 0 0 3 0;
#X connect 3 0 4 0;
#X connect 4 0 7 0;
#X connect 5 0 1 0;
#X connect 6 0 2 0;
#X connect 7 0 5 0;
#X connect 7 0 6 0;
#X restore 378 293 pd FLAMSPREADHITS;
#X obj 44 284 f.util.oscformatxy \$2 \$1 flamhitsspread flamhits 0 0 0 flamspread 0 0 0;
#X connect 0 0 9 0;
#X connect 2 0 3 0;
#X connect 3 0 4 0;
#X connect 5 0 19 0;
#X connect 5 1 6 0;
#X connect 7 0 21 0;
#X connect 7 1 8 0;
#X connect 9 0 16 0;
#X connect 10 0 5 0;
#X connect 13 0 14 0;
#X connect 13 1 12 0;
#X connect 14 0 15 0;
#X connect 14 1 18 0;
#X connect 15 0 1 0;
#X connect 15 1 17 0;
#X connect 16 0 10 0;
#X connect 19 0 7 0;
#X connect 19 1 20 0;
#X connect 21 0 23 0;
#X connect 21 1 22 0;
#X connect 23 0 26 0;
#X connect 23 2 24 0;
#X connect 26 0 13 0;
#X connect 26 2 25 0;
#X restore 41 127 pd SEQ___________________;
#N canvas 818 238 452 397 ADSR_VEL_TRIG_________ 0;
#X obj 37 17 inlet;
#X obj 37 367 outlet;
#X obj 37 63 f.util.oscformat \$0 \$1 adsron 0;
#N canvas 303 286 370 384 KEYBOARD___ 0;
#X obj 50 24 inlet;
#X obj 50 165 stripnote;
#X obj 50 135 unpack f f;
#X obj 89 206 s \$0-one-bang;
#X obj 50 186 t f b b;
#X obj 138 115 s \$0-clear;
#X obj 69 226 s \$0-timer;
#X obj 50 247 s \$0-midi-note;
#X obj 50 89 route keyboard\$1 recordclear\$1;
#X obj 227 322 outlet;
#N canvas 300 410 671 631 QLIST_GUBBINS 0;
#X obj 253 537 qlist;
#X obj 342 280 timer;
#X obj 415 215 f.util.onebang;
#X msg 415 281 clear;
#X msg 311 278 -1;
#X msg 280 461 rewind;
#X msg 345 513 tempo 1;
#X obj 49 67 r \$0-key-seq;
#X obj 311 301 pack f f \$0;
#X msg 311 324 add \$2 \$3-key-seq \$1;
#X obj 49 88 sel -1;
#X obj 240 80 r automateRecord;
#X obj 240 101 sel 1 0;
#X msg 319 201 1;
#X obj 286 225 spigot;
#X obj 259 145 t b b;
#X msg 259 166 0;
#X obj 226 312 r link;
#X obj 226 333 i;
#X obj 226 354 change;
#X msg 286 396 1;
#X obj 253 418 spigot;
#X obj 226 375 t b b;
#X msg 226 396 0;
#X obj 253 439 t b b;
#X obj 115 177 spigot;
#X obj 148 153 r automateRecord;
#X obj 286 255 t b b b;
#X obj 342 246 t b b;
#X obj 439 258 r resetGlobal;
#X obj 116 131 * 12;
#X obj 101 151 +;
#X obj 116 108 r \$0-transposition;
#X obj 101 246 s \$0-to-freq;
#X obj 101 225 / 132;
#X obj 101 203 f;
#X obj 311 347 s \$0-to-qlist;
#X obj 253 512 r \$0-to-qlist;
#X obj 415 302 s \$0-to-qlist;
#X obj 253 481 s \$0-to-qlist;
#X obj 280 558 s \$0-qlist-done;
#X obj 294 375 r \$0-qlist-done;
#X obj 319 180 t b;
#X obj 415 171 r \$0-one-bang;
#X obj 428 239 r \$0-clear;
#X obj 240 124 s \$0-one-bang-reset;
#X obj 496 191 r \$0-one-bang-reset;
#X obj 342 224 r \$0-timer;
#X obj 101 88 r \$0-midi-note;
#X obj 319 158 r \$0-midi-note;
#X connect 0 1 40 0;
#X connect 1 0 8 1;
#X connect 2 0 3 0;
#X connect 2 0 1 0;
#X connect 3 0 38 0;
#X connect 4 0 8 0;
#X connect 5 0 39 0;
#X connect 6 0 0 0;
#X connect 7 0 10 0;
#X connect 8 0 9 0;
#X connect 9 0 36 0;
#X connect 10 1 35 0;
#X connect 11 0 12 0;
#X connect 12 0 45 0;
#X connect 12 1 15 0;
#X connect 13 0 14 1;
#X connect 14 0 27 0;
#X connect 15 0 16 0;
#X connect 15 1 14 0;
#X connect 16 0 14 1;
#X connect 17 0 18 0;
#X connect 18 0 19 0;
#X connect 19 0 22 0;
#X connect 20 0 21 1;
#X connect 21 0 24 0;
#X connect 22 0 23 0;
#X connect 22 1 21 0;
#X connect 23 0 21 1;
#X connect 24 0 39 0;
#X connect 24 1 5 0;
#X connect 25 0 8 0;
#X connect 26 0 25 1;
#X connect 27 0 20 0;
#X connect 27 1 4 0;
#X connect 27 2 1 1;
#X connect 28 0 1 0;
#X connect 28 1 1 1;
#X connect 29 0 3 0;
#X connect 30 0 31 1;
#X connect 31 0 25 0;
#X connect 31 0 35 0;
#X connect 32 0 30 0;
#X connect 34 0 33 0;
#X connect 35 0 34 0;
#X connect 37 0 0 0;
#X connect 41 0 20 0;
#X connect 42 0 13 0;
#X connect 43 0 2 0;
#X connect 44 0 3 0;
#X connect 46 0 2 1;
#X connect 47 0 28 0;
#X connect 48 0 31 0;
#X connect 49 0 42 0;
#X restore 49 273 pd QLIST_GUBBINS;
#X text 160 271 <- records keyboard performance;
#X connect 0 0 8 0;
#X connect 1 0 4 0;
#X connect 2 0 1 0;
#X connect 2 1 1 1;
#X connect 4 0 7 0;
#X connect 4 1 6 0;
#X connect 4 2 3 0;
#X connect 8 0 2 0;
#X connect 8 1 5 0;
#X connect 8 2 9 0;
#X restore 37 304 pd KEYBOARD___;
#N canvas 0 58 354 414 KEYBOARD_TRANSPOSE___ 0;
#X obj 55 176 i;
#X obj 55 197 + 1;
#X obj 55 155 t b f;
#X obj 55 218 clip -3 4;
#X obj 55 263 oscformat transposition\$1;
#X obj 55 288 s to-o-s-c-interface;
#X obj 64 240 s \$0-transposition;
#X obj 55 28 inlet;
#X obj 55 67 route transposeup\$1 transposedown\$1;
#X msg 55 89 1;
#X msg 158 88 -1;
#X obj 55 124 i;
#X obj 274 343 outlet;
#X connect 0 0 1 0;
#X connect 1 0 3 0;
#X connect 2 0 0 0;
#X connect 2 1 1 1;
#X connect 3 0 0 1;
#X connect 3 0 6 0;
#X connect 3 0 4 0;
#X connect 4 0 5 0;
#X connect 7 0 8 0;
#X connect 8 0 9 0;
#X connect 8 1 10 0;
#X connect 8 2 12 0;
#X connect 9 0 11 0;
#X connect 10 0 11 0;
#X connect 11 0 2 0;
#X restore 37 324 pd KEYBOARD_TRANSPOSE___;
#X obj 37 126 f.util.oscformat \$0 \$1 sustain 0;
#X obj 37 168 f.util.oscformat \$0 \$1 polyphonic 0;
#X obj 37 240 f.util.oscformat \$0 \$1 threshold 1;
#N canvas 69 227 238 250 CHORDSIZE 0;
#X obj 37 37 inlet;
#X obj 37 156 s \$0-chord-size;
#X msg 51 135 1;
#X obj 51 113 r \$0-reset;
#X obj 37 88 route chordsize\$1;
#X obj 146 218 outlet;
#X connect 0 0 4 0;
#X connect 2 0 1 0;
#X connect 3 0 2 0;
#X connect 4 0 1 0;
#X connect 4 1 5 0;
#X restore 37 283 pd CHORDSIZE;
#N canvas 0 38 327 314 TRIGGERX_________ 0;
#X obj 57 66 route triggerx\$1;
#X obj 57 87 sel 1;
#X obj 57 45 inlet;
#X obj 190 270 outlet;
#X obj 57 108 \$1;
#X msg 57 131 triggerx\$1 bang;
#X obj 57 152 s to-faust-\$2;
#X connect 0 0 1 0;
#X connect 0 1 3 0;
#X connect 1 0 4 0;
#X connect 2 0 0 0;
#X connect 4 0 5 0;
#X connect 5 0 6 0;
#X restore 37 261 pd TRIGGERX_________;
#X obj 37 219 f.util.oscformat \$0 \$1 velocity 1 0 2.7;
#N canvas 505 406 471 503 ATTACK_____ 0;
#X obj 155 184 r \$2-bpm;
#X obj 155 226 /;
#X msg 155 205 120 \$1;
#X obj 140 298 *;
#X obj 155 248 t b f;
#X obj 140 272 f;
#X obj 140 362 pack f \$1;
#X obj 27 122 f.util.switch;
#X obj 140 35 r to-o-s-c-interface;
#X obj 140 56 oscparse;
#X obj 140 77 list trim;
#X obj 108 422 f.util.oscformat \$0 \$1 attack 0 0 3.5;
#X msg 140 383 attack\$2 \$1;
#X obj 27 29 inlet;
#X obj 27 69 route attack\$1;
#X obj 140 98 route attackquantise\$1;
#X obj 108 483 outlet;
#X obj 140 163 f.util.listgetvalue;
#X obj 251 120 r resetglobal;
#X msg 251 141 0.125 0.25 0.5 0.75 1 2 4;
#X obj 140 319 spigot;
#X obj 140 341 clip 0 1;
#X connect 0 0 2 0;
#X connect 1 0 4 0;
#X connect 2 0 1 0;
#X connect 3 0 20 0;
#X connect 4 0 5 0;
#X connect 4 1 3 1;
#X connect 5 0 3 0;
#X connect 6 0 12 0;
#X connect 7 0 5 1;
#X connect 7 0 21 0;
#X connect 7 1 17 0;
#X connect 8 0 9 0;
#X connect 9 0 10 0;
#X connect 10 0 15 0;
#X connect 11 0 16 0;
#X connect 12 0 11 0;
#X connect 13 0 14 0;
#X connect 14 0 7 0;
#X connect 14 1 11 0;
#X connect 15 0 7 1;
#X connect 15 0 20 1;
#X connect 17 0 5 0;
#X connect 18 0 19 0;
#X connect 19 0 17 1;
#X connect 20 0 21 0;
#X connect 21 0 6 0;
#X restore 37 83 pd ATTACK_____;
#N canvas 505 406 471 503 DECAY______ 0;
#X obj 155 184 r \$2-bpm;
#X obj 140 339 clip 0 1;
#X obj 155 226 /;
#X msg 155 205 120 \$1;
#X obj 140 298 *;
#X obj 155 248 t b f;
#X obj 140 272 f;
#X obj 140 360 pack f \$1;
#X obj 27 122 f.util.switch;
#X obj 140 35 r to-o-s-c-interface;
#X obj 140 56 oscparse;
#X obj 140 77 list trim;
#X obj 27 29 inlet;
#X obj 108 479 outlet;
#X obj 140 163 f.util.listgetvalue;
#X obj 251 120 r resetglobal;
#X obj 140 98 route decayquantise\$1;
#X obj 27 69 route decay\$1;
#X msg 140 381 decay\$2 \$1;
#X obj 108 418 f.util.oscformat \$0 \$1 decay 0 0 3.1;
#X msg 251 141 0.125 0.25 0.5 0.75 1 2 4;
#X obj 140 319 spigot;
#X connect 0 0 3 0;
#X connect 1 0 7 0;
#X connect 2 0 5 0;
#X connect 3 0 2 0;
#X connect 4 0 21 0;
#X connect 5 0 6 0;
#X connect 5 1 4 1;
#X connect 6 0 4 0;
#X connect 7 0 18 0;
#X connect 8 0 1 0;
#X connect 8 0 6 1;
#X connect 8 1 14 0;
#X connect 9 0 10 0;
#X connect 10 0 11 0;
#X connect 11 0 16 0;
#X connect 12 0 17 0;
#X connect 14 0 6 0;
#X connect 15 0 20 0;
#X connect 16 0 8 1;
#X connect 16 0 21 1;
#X connect 17 0 8 0;
#X connect 17 1 19 0;
#X connect 18 0 19 0;
#X connect 19 0 13 0;
#X connect 20 0 14 1;
#X restore 37 104 pd DECAY______;
#N canvas 505 406 471 503 RELEASE____ 0;
#X obj 155 184 r \$2-bpm;
#X obj 140 339 clip 0 1;
#X obj 155 226 /;
#X msg 155 205 120 \$1;
#X obj 140 298 *;
#X obj 155 248 t b f;
#X obj 140 272 f;
#X obj 140 360 pack f \$1;
#X obj 27 122 f.util.switch;
#X obj 140 35 r to-o-s-c-interface;
#X obj 140 56 oscparse;
#X obj 140 77 list trim;
#X obj 27 29 inlet;
#X obj 108 469 outlet;
#X obj 140 163 f.util.listgetvalue;
#X obj 251 120 r resetglobal;
#X obj 27 69 route release\$1;
#X obj 140 98 route releasequantise\$1;
#X msg 140 381 release\$2 \$1;
#X obj 108 418 f.util.oscformat \$0 \$1 release 0 0 3.1;
#X msg 251 141 0.125 0.25 0.5 0.75 1 2 4;
#X obj 140 319 spigot;
#X connect 0 0 3 0;
#X connect 1 0 7 0;
#X connect 2 0 5 0;
#X connect 3 0 2 0;
#X connect 4 0 21 0;
#X connect 5 0 6 0;
#X connect 5 1 4 1;
#X connect 6 0 4 0;
#X connect 7 0 18 0;
#X connect 8 0 1 0;
#X connect 8 0 6 1;
#X connect 8 1 14 0;
#X connect 9 0 10 0;
#X connect 10 0 11 0;
#X connect 11 0 17 0;
#X connect 12 0 16 0;
#X connect 14 0 6 0;
#X connect 15 0 20 0;
#X connect 16 0 8 0;
#X connect 16 1 19 0;
#X connect 17 0 8 1;
#X connect 17 0 21 1;
#X connect 18 0 19 0;
#X connect 19 0 13 0;
#X connect 20 0 14 1;
#X connect 21 0 1 0;
#X restore 37 146 pd RELEASE____;
#X obj 37 189 f.util.oscformat \$0 \$1 globalmonophonic 0;
#X obj 293 189 s \$1-globalmonophonic;
#X obj 256 168 s \$0-monopoly;
#X connect 0 0 2 0;
#X connect 2 0 11 0;
#X connect 3 0 4 0;
#X connect 4 0 1 0;
#X connect 5 0 13 0;
#X connect 6 0 14 0;
#X connect 6 2 16 0;
#X connect 7 0 9 0;
#X connect 8 0 3 0;
#X connect 9 0 8 0;
#X connect 10 0 7 0;
#X connect 11 0 12 0;
#X connect 12 0 5 0;
#X connect 13 0 6 0;
#X connect 14 0 10 0;
#X connect 14 2 15 0;
#X restore 41 105 pd ADSR_VEL_TRIG_________;
#N canvas 725 428 411 420 GEN_EUC_______________ 0;
#X obj 38 29 inlet;
#X obj 296 392 outlet;
#X obj 38 353 s \$0-gen-on-off;
#X obj 38 331 f.seq.automater \$0 genonoff\$1 0;
#N canvas 348 423 414 353 GENRANGE_______ 0;
#X obj 84 221 s \$0-gen-range;
#X obj 85 95 / 24;
#X obj 84 142 * 24;
#X obj 84 161 i;
#X obj 84 202 change;
#X obj 84 121 f.seq.automater \$0 genrange\$1 0.0417;
#X obj 84 182 clip 1 24;
#X obj 190 147 * 24;
#X obj 190 252 s \$1-gen-messages;
#X msg 190 230 genrange \$1;
#X obj 190 166 i;
#X obj 190 207 change;
#X obj 190 187 clip 1 24;
#X obj 85 13 inlet;
#X obj 305 301 outlet reject;
#X obj 85 59 route float;
#X msg 163 76 seqposition \$1;
#X obj 163 55 r \$0-seqpos-\$1;
#X connect 1 0 5 0;
#X connect 2 0 3 0;
#X connect 3 0 6 0;
#X connect 4 0 0 0;
#X connect 5 0 2 0;
#X connect 5 1 7 0;
#X connect 6 0 4 0;
#X connect 7 0 10 0;
#X connect 9 0 8 0;
#X connect 10 0 12 0;
#X connect 11 0 9 0;
#X connect 12 0 11 0;
#X connect 13 0 15 0;
#X connect 15 0 1 0;
#X connect 15 1 5 0;
#X connect 16 0 5 0;
#X connect 17 0 16 0;
#X restore 252 89 pd GENRANGE_______;
#X obj 38 89 f.util.controlparse \$2 \$1 genrange;
#X obj 38 115 f.util.controlparse \$2 \$1 genstepsize;
#X obj 38 146 f.util.controlparse \$2 \$1 gendirection;
#X obj 38 175 f.util.controlparse \$2 \$1 genrepeat;
#N canvas 116 367 350 319 GENSTEPSIZE____ 0;
#X obj 65 23 inlet;
#X obj 65 69 route float;
#X obj 65 172 i;
#X obj 65 151 * 8;
#X obj 65 106 / 8;
#X obj 65 236 s \$0-gen-step-size;
#X obj 65 213 change;
#X obj 65 131 f.seq.automater \$0 genstepsize\$1 0.125;
#X obj 65 193 clip 1 8;
#X obj 191 173 i;
#X obj 191 152 * 8;
#X obj 191 257 s \$1-gen-messages;
#X msg 191 235 gensteps \$1;
#X obj 191 214 change;
#X obj 191 194 clip 1 8;
#X msg 137 110 seqposition \$1;
#X obj 137 89 r \$0-seqpos-\$1;
#X connect 0 0 1 0;
#X connect 1 0 4 0;
#X connect 1 1 7 0;
#X connect 2 0 8 0;
#X connect 3 0 2 0;
#X connect 4 0 7 0;
#X connect 6 0 5 0;
#X connect 7 0 3 0;
#X connect 7 1 10 0;
#X connect 8 0 6 0;
#X connect 9 0 14 0;
#X connect 10 0 9 0;
#X connect 12 0 11 0;
#X connect 13 0 12 0;
#X connect 14 0 13 0;
#X connect 15 0 7 0;
#X connect 16 0 15 0;
#X restore 269 114 pd GENSTEPSIZE____;
#N canvas 43 40 350 208 GENDIRECTION___ 0;
#X obj 65 23 inlet;
#X obj 65 69 route float;
#N canvas 0 38 280 223 GEN-MAPPING 0;
#X obj 61 33 inlet;
#X obj 61 172 s \$0-gen-direction;
#X msg 74 130 gendirection \$1;
#X obj 74 151 s \$1-gen-messages;
#X obj 61 55 * 3;
#X obj 61 76 i;
#X obj 61 96 change;
#X connect 0 0 4 0;
#X connect 2 0 3 0;
#X connect 4 0 5 0;
#X connect 5 0 6 0;
#X connect 6 0 2 0;
#X connect 6 0 1 0;
#X restore 65 141 pd GEN-MAPPING;
#X obj 65 120 f.seq.automater \$0 gendirection\$1 0.25;
#X obj 65 91 / 3;
#X msg 160 81 seqposition \$1;
#X obj 160 60 r \$0-seqpos-\$1;
#X connect 0 0 1 0;
#X connect 1 0 4 0;
#X connect 1 1 3 0;
#X connect 3 0 2 0;
#X connect 3 1 2 0;
#X connect 4 0 3 0;
#X connect 5 0 3 0;
#X connect 6 0 5 0;
#X restore 274 145 pd GENDIRECTION___;
#N canvas 347 40 350 278 GENREPEAT______ 0;
#X obj 65 23 inlet;
#X obj 65 63 route float;
#X obj 65 250 s \$0-gen-repeat;
#X obj 65 89 / 8;
#X obj 65 140 * 8;
#X msg 75 207 genrepeat \$1;
#X obj 75 228 s \$1-gen-messages;
#X obj 65 113 f.seq.automater \$0 genrepeat\$1 0.125;
#X obj 65 161 i;
#X obj 65 181 change;
#X msg 155 79 seqposition \$1;
#X obj 155 58 r \$0-seqpos-\$1;
#X connect 0 0 1 0;
#X connect 1 0 3 0;
#X connect 1 1 7 0;
#X connect 3 0 7 0;
#X connect 4 0 8 0;
#X connect 5 0 6 0;
#X connect 7 0 4 0;
#X connect 7 1 4 0;
#X connect 8 0 9 0;
#X connect 9 0 2 0;
#X connect 9 0 5 0;
#X connect 10 0 7 0;
#X connect 11 0 10 0;
#X restore 257 175 pd GENREPEAT______;
#X obj 38 229 route genonoff\$1 chordsize\$1;
#X obj 129 258 r \$1-reset;
#X msg 129 279 1;
#X obj 120 301 s \$0-chord-size;
#X obj 38 202 f.util.controlparse \$2 \$1 chordsize;
#N canvas 294 137 350 278 CHORDSIZE_____ 0;
#X obj 65 23 inlet;
#X obj 65 63 route float;
#X obj 65 161 i;
#X obj 65 201 change;
#X obj 65 228 s \$0-chord-size;
#X obj 65 113 f.seq.automater \$0 chordsize\$1 0.125;
#X msg 177 209 chordsize \$1;
#X obj 177 230 s \$1-gen-messages;
#X obj 65 89 / 8;
#X obj 65 140 * 8;
#X obj 65 182 max 1;
#X msg 153 67 seqposition \$1;
#X obj 153 46 r \$0-seqpos-\$1;
#X connect 0 0 1 0;
#X connect 1 0 8 0;
#X connect 1 1 5 0;
#X connect 2 0 10 0;
#X connect 3 0 4 0;
#X connect 3 0 6 0;
#X connect 5 0 9 0;
#X connect 5 1 9 0;
#X connect 6 0 7 0;
#X connect 8 0 5 0;
#X connect 9 0 2 0;
#X connect 10 0 3 0;
#X connect 11 0 5 0;
#X connect 12 0 11 0;
#X restore 257 202 pd CHORDSIZE_____;
#X connect 0 0 5 0;
#X connect 3 0 2 0;
#X connect 5 0 6 0;
#X connect 5 1 4 0;
#X connect 6 0 7 0;
#X connect 6 1 9 0;
#X connect 7 0 8 0;
#X connect 7 1 10 0;
#X connect 8 0 16 0;
#X connect 8 1 11 0;
#X connect 12 0 3 0;
#X connect 12 2 1 0;
#X connect 13 0 14 0;
#X connect 14 0 15 0;
#X connect 16 0 12 0;
#X connect 16 1 17 0;
#X restore 41 84 pd GEN_EUC_______________;
#N canvas 244 118 441 403 OSC_FM__NOISE_________ 0;
#X obj 17 10 inlet;
#X obj 17 366 outlet;
#N canvas 0 38 283 344 FREQSNAP________________________________ 0;
#X obj 56 81 loadbang;
#X msg 56 143 0;
#X obj 63 100 r \$0-reset;
#X obj 63 121 del 50;
#X obj 57 165 oscformat freqsnap\$1;
#X obj 57 186 s to-o-s-c-interface;
#X obj 46 15 inlet;
#X obj 46 56 route freqsnap\$1;
#X obj 191 295 outlet;
#X obj 46 205 s \$0-osc-freq-snap;
#X connect 0 0 1 0;
#X connect 1 0 4 0;
#X connect 1 0 9 0;
#X connect 2 0 3 0;
#X connect 3 0 1 0;
#X connect 4 0 5 0;
#X connect 6 0 7 0;
#X connect 7 0 9 0;
#X connect 7 1 8 0;
#X restore 17 110 pd FREQSNAP________________________________;
#X text 302 225 or 4.2;
#N canvas 633 69 604 787 OSCFREQWAVE_____________________________ 0;
#X obj 87 18 inlet;
#N canvas 101 114 430 567 OP1FREQ_PITCH_QUANTISE 0;
#N canvas 756 556 389 312 FREQ_SNAP_NOTE_GEN__ 0;
#X obj 62 119 mtof;
#X obj 62 20 inlet;
#X obj 62 268 outlet;
#N canvas 1050 242 390 613 NOTE_SNAP 0;
#X obj 51 17 inlet;
#X obj 51 546 outlet;
#X obj 157 256 +;
#X obj 138 135 r \$0-value-send;
#X obj 78 116 t f f;
#X obj 138 156 t b b b;
#X obj 157 290 f.util.keyselector \$0;
#X obj 157 334 spigot;
#X msg 96 417 0;
#X obj 96 396 sel 1 0;
#X obj 124 417 del 50;
#X msg 124 438 1;
#X obj 96 460 t a;
#X obj 96 375 r \$0-\$1-reset;
#X obj 51 482 spigot 1;
#N canvas 0 38 450 300 PITCH_LENGTH_CALCULATE 0;
#X text 104 133 <- "* 11": total number of octaves covered by the pitch range;
#X text 87 161 <- total number of pitches covered by the 11 octave pitch range;
#X obj 41 135 f;
#X obj 41 30 inlet;
#X obj 41 236 outlet;
#X obj 41 155 * 132;
#X obj 63 60 r pitch-gamut-length;
#X obj 82 112 * 11;
#X obj 63 81 t b f;
#X connect 2 0 5 0;
#X connect 3 0 2 0;
#X connect 5 0 4 0;
#X connect 6 0 8 0;
#X connect 7 0 5 1;
#X connect 8 0 2 0;
#X connect 8 1 7 0;
#X restore 78 91 pd PITCH_LENGTH_CALCULATE;
#X obj 51 65 t f f;
#N canvas 0 48 318 300 FREQ_SNAP___ 0;
#X obj 58 179 spigot;
#X obj 105 121 spigot;
#X obj 58 158 f;
#X obj 138 93 == 0;
#X obj 58 17 inlet;
#X obj 105 17 inlet;
#X obj 58 253 outlet;
#X obj 58 122 * 132;
#X obj 138 72 r \$0-osc-freq-snap;
#X connect 0 0 6 0;
#X connect 1 0 2 0;
#X connect 2 0 0 0;
#X connect 3 0 0 1;
#X connect 3 0 1 1;
#X connect 4 0 7 0;
#X connect 5 0 1 0;
#X connect 7 0 2 0;
#X connect 8 0 3 0;
#X restore 51 202 pd FREQ_SNAP___;
#N canvas 160 90 532 400 NOTE_GEN______ 0;
#X obj 123 144 r \$0-gen-direction;
#X obj 80 336 outlet;
#X obj 81 23 inlet;
#X obj 95 213 r \$0-gen-invert;
#X obj 95 234 sel 0 1;
#X msg 95 255 1;
#X msg 127 253 -1;
#X obj 80 283 * 1;
#X obj 81 186 f.gen.drunk;
#X obj 81 80 t b;
#X obj 93 103 r \$0-gen-range;
#X obj 133 165 r \$0-gen-repeat;
#X obj 113 123 r \$0-gen-step-size;
#X connect 0 0 8 4;
#X connect 2 0 9 0;
#X connect 3 0 4 0;
#X connect 4 0 5 0;
#X connect 4 1 6 0;
#X connect 5 0 7 1;
#X connect 6 0 7 1;
#X connect 7 0 1 0;
#X connect 8 0 7 0;
#X connect 9 0 8 0;
#X connect 10 0 8 0;
#X connect 11 0 8 5;
#X connect 12 0 8 2;
#X connect 12 0 8 3;
#X restore 180 234 pd NOTE_GEN______;
#X obj 157 212 spigot;
#X obj 157 191 i;
#X obj 190 188 r \$0-osc-freq-snap;
#X obj 190 312 r \$0-osc-freq-snap;
#X connect 0 0 16 0;
#X connect 2 0 6 0;
#X connect 3 0 5 0;
#X connect 4 0 20 0;
#X connect 4 1 6 0;
#X connect 5 0 17 1;
#X connect 5 1 20 0;
#X connect 5 2 18 0;
#X connect 6 0 7 0;
#X connect 7 0 14 0;
#X connect 8 0 12 0;
#X connect 9 0 8 0;
#X connect 9 1 10 0;
#X connect 10 0 11 0;
#X connect 11 0 12 0;
#X connect 12 0 14 1;
#X connect 13 0 9 0;
#X connect 14 0 1 0;
#X connect 15 0 4 0;
#X connect 16 0 17 0;
#X connect 16 1 15 0;
#X connect 17 0 14 0;
#X connect 18 0 2 1;
#X connect 19 0 2 0;
#X connect 20 0 19 0;
#X connect 21 0 19 1;
#X connect 22 0 7 1;
#X restore 62 76 pd NOTE_SNAP;
#X obj 124 168 i;
#X obj 124 268 outlet;
#X obj 124 211 pack f s;
#X msg 124 237 symbol \$2:\$1Hz;
#X obj 169 188 f.util.midi2notename;
#X obj 124 189 change;
#X obj 62 97 t f f f;
#X obj 308 269 outlet;
#X obj 308 178 / 133;
#X connect 0 0 2 0;
#X connect 0 0 4 0;
#X connect 1 0 3 0;
#X connect 3 0 10 0;
#X connect 4 0 9 0;
#X connect 6 0 7 0;
#X connect 7 0 5 0;
#X connect 8 0 6 1;
#X connect 9 0 6 0;
#X connect 10 0 0 0;
#X connect 10 1 8 0;
#X connect 10 2 12 0;
#X connect 12 0 11 0;
#X restore 31 287 pd FREQ_SNAP_NOTE_GEN__;
#X obj 31 308 pack f \$1;
#X obj 31 15 inlet;
#X obj 84 15 inlet;
#X obj 367 519 outlet;
#X obj 182 379 s to-o-s-c-interface;
#X obj 86 255 r \$0-to-freq;
#X msg 91 384 1;
#X msg 58 447 0;
#X obj 58 426 t b b;
#X obj 85 471 \$1;
#X msg 85 490 formuls\$1 triggerx bang;
#X obj 31 176 f.util.switch;
#X msg 41 210 \$1 20;
#X obj 41 231 line 0 1;
#X obj 31 252 change;
#X obj 91 365 r \$0-to-freq;
#X obj 31 517 s to-faust-\$1;
#X msg 31 330 formuls\$2 oscfreq \$1;
#X obj 145 154 r \$0-osc-freq-snap;
#X obj 182 358 oscformat oscpitchgui\$1;
#X obj 31 134 f.seq.automater \$0 \$0-oscfreq 0 0;
#X msg 80 82 seqposition \$1;
#X obj 80 61 r \$0-seqpos-\$1;
#X obj 31 351 t a a;
#X obj 58 405 spigot;
#X obj 197 46 route quantise;
#X obj 197 67 s \$0-osc-freq-snap;
#X obj 85 448 del 1;
#X obj 213 332 s \$0-freq-follow;
#X msg 213 291 \$1 5;
#X obj 213 312 line 0 1;
#X obj 83 108 f.util.trigslewmessage \$0;
#X obj 197 517 print;
#X connect 0 0 1 0;
#X connect 0 1 20 0;
#X connect 0 2 30 0;
#X connect 1 0 18 0;
#X connect 2 0 21 0;
#X connect 3 0 26 0;
#X connect 3 0 21 0;
#X connect 6 0 0 0;
#X connect 7 0 25 1;
#X connect 8 0 25 1;
#X connect 9 0 8 0;
#X connect 9 1 28 0;
#X connect 10 0 11 0;
#X connect 11 0 17 0;
#X connect 12 0 15 0;
#X connect 12 1 0 0;
#X connect 13 0 14 0;
#X connect 14 0 15 0;
#X connect 15 0 0 0;
#X connect 16 0 7 0;
#X connect 18 0 24 0;
#X connect 19 0 12 1;
#X connect 20 0 5 0;
#X connect 21 0 12 0;
#X connect 21 0 4 0;
#X connect 22 0 21 0;
#X connect 23 0 22 0;
#X connect 24 0 17 0;
#X connect 24 1 25 0;
#X connect 25 0 9 0;
#X connect 26 0 27 0;
#X connect 28 0 10 0;
#X connect 30 0 31 0;
#X connect 31 0 29 0;
#X connect 32 0 21 0;
#X restore 87 564 pd OP1FREQ_PITCH_QUANTISE;
#X obj 87 660 s \$1-message-collect;
#X obj 87 592 f.util.pak;
#X obj 130 399 unpack f f;
#X msg 130 422 chaos \$1;
#X obj 174 309 unpack f f;
#X msg 174 335 lfofreq \$1;
#X obj 218 222 unpack f f;
#X msg 218 255 lfodepth \$1;
#X obj 486 738 outlet;
#X obj 218 276 s \$0-osc-x;
#X obj 174 356 s \$0-osc-x;
#X obj 130 443 s \$0-osc-x;
#X obj 234 541 r \$0-osc-x;
#X obj 297 276 s \$0-osc-y;
#X obj 245 356 s \$0-osc-y;
#X obj 200 443 s \$0-osc-y;
#X obj 279 482 r \$0-osc-y;
#N canvas 768 365 228 293 MESSAGE_STOP 0;
#X msg 142 120 0;
#X msg 98 169 1;
#X obj 53 201 spigot 1;
#X obj 98 77 t b b b;
#X msg 136 96 stop;
#X obj 53 29 inlet;
#X obj 53 242 outlet;
#X obj 98 28 inlet;
#X obj 98 139 t b b;
#X obj 98 118 del 20;
#X obj 53 178 list;
#X connect 0 0 2 1;
#X connect 1 0 2 1;
#X connect 2 0 6 0;
#X connect 3 0 9 0;
#X connect 3 1 0 0;
#X connect 3 2 4 0;
#X connect 4 0 9 0;
#X connect 5 0 10 0;
#X connect 7 0 3 0;
#X connect 8 0 10 0;
#X connect 8 1 1 0;
#X connect 9 0 8 0;
#X connect 10 0 2 0;
#X restore 87 615 pd MESSAGE_STOP;
#X obj 87 639 oscformat oscfreqwave\$1;
#X obj 56 157 s \$0-freqwavespigot;
#X obj 174 592 r \$0-freqwavespigot;
#X obj 269 619 spigot;
#X obj 302 598 r automateRecord;
#X msg 269 639 0;
#X obj 269 661 s oscfreqwave\$1-act-gui;
#N canvas 237 262 370 298 FREQ_WAVE_SPLIT___ 0;
#X obj 58 30 inlet;
#X obj 58 82 unpack f f;
#X obj 121 158 r xglobal;
#X obj 251 159 r yglobal;
#X obj 58 180 f.util.switch;
#X obj 189 179 f.util.switch;
#X obj 58 252 outlet;
#X obj 189 251 outlet;
#X connect 0 0 1 0;
#X connect 1 0 4 0;
#X connect 1 1 5 0;
#X connect 2 0 4 1;
#X connect 3 0 5 1;
#X connect 4 0 6 0;
#X connect 5 0 7 0;
#X restore 87 476 pd FREQ_WAVE_SPLIT___;
#X obj 87 49 route oscfreqwave\$1 oscfreqwavechaos\$1 oscfreqwavelfofreq\$1 oscfreqwavelfodepth\$1 oscfreqwavelabel\$1 oscfreqwavexmod\$1 oscfreqwaveymod\$1 oscfreqwavemoddepth\$1;
#N canvas 92 398 442 347 ACT_TRIG_CHAOSTRIG_REV_QUANT_PARSE___ 0;
#X obj 193 223 s \$0-osc-y;
#X obj 84 14 inlet;
#X msg 91 167 active \$1;
#X msg 139 148 looptrig \$1;
#X msg 237 107 reverse \$1;
#X msg 286 87 quantise \$1;
#X msg 188 128 chaostrig \$1;
#X obj 91 213 s \$0-osc-x;
#X obj 91 66 f.util.widgetparse \$1 oscfreqwave;
#X connect 1 0 8 0;
#X connect 2 0 7 0;
#X connect 2 0 0 0;
#X connect 3 0 7 0;
#X connect 3 0 0 0;
#X connect 4 0 7 0;
#X connect 4 0 0 0;
#X connect 5 0 7 0;
#X connect 5 0 0 0;
#X connect 6 0 7 0;
#X connect 6 0 0 0;
#X connect 8 0 2 0;
#X connect 8 1 3 0;
#X connect 8 2 6 0;
#X connect 8 3 4 0;
#X connect 8 4 5 0;
#X restore 262 196 pd ACT_TRIG_CHAOSTRIG_REV_QUANT_PARSE___;
#N canvas 499 153 307 552 WAVESHAPE 0;
#X obj 170 479 outlet;
#X obj 7 20 inlet value;
#X obj 111 20 inlet messages;
#X obj 7 208 f.seq.automater \$0 \$0-waveshape 0 0;
#X obj 28 171 f.util.trigslewmessage \$0;
#X obj 11 259 pack f \$1;
#X obj 18 468 s to-faust-\$1;
#X obj 11 302 t a a;
#X msg 11 281 formuls\$2 waveshape \$1;
#X msg 77 143 seqposition \$1;
#X obj 77 122 r \$0-seqpos-\$1;
#X connect 1 0 3 0;
#X connect 2 0 3 0;
#X connect 3 0 5 0;
#X connect 3 0 0 0;
#X connect 4 0 3 0;
#X connect 5 0 8 0;
#X connect 7 0 6 0;
#X connect 8 0 7 0;
#X connect 9 0 3 0;
#X connect 10 0 9 0;
#X restore 210 504 pd WAVESHAPE;
#X msg 245 335 lfofreq \$1;
#X msg 297 255 lfodepth \$1;
#X msg 200 422 chaos \$1;
#N canvas 982 500 530 366 MOD_PARSE 0;
#X obj 35 37 inlet;
#X obj 167 35 inlet;
#X obj 290 35 inlet;
#X obj 35 105 list split 1;
#X obj 35 126 list fromsymbol;
#X obj 35 147 f.util.asci2char;
#X obj 35 168 + 1;
#X obj 35 209 f.util.modinput;
#X obj 35 188 pack f f;
#X obj 168 103 list split 1;
#X obj 168 124 list fromsymbol;
#X obj 168 145 f.util.asci2char;
#X obj 168 166 + 1;
#X obj 168 207 f.util.modinput;
#X obj 168 186 pack f f;
#X obj 35 280 outlet;
#X obj 168 278 outlet;
#X obj 290 76 unpack f f;
#X obj 343 126 r \$2-reset;
#X msg 413 147 0;
#X msg 343 147 reset bang;
#X connect 0 0 3 0;
#X connect 1 0 9 0;
#X connect 2 0 17 0;
#X connect 3 0 4 0;
#X connect 3 1 8 1;
#X connect 4 0 5 0;
#X connect 5 0 6 0;
#X connect 6 0 8 0;
#X connect 7 0 15 0;
#X connect 8 0 7 0;
#X connect 9 0 10 0;
#X connect 9 1 14 1;
#X connect 10 0 11 0;
#X connect 11 0 12 0;
#X connect 12 0 14 0;
#X connect 13 0 16 0;
#X connect 14 0 13 0;
#X connect 17 0 7 1;
#X connect 17 1 13 1;
#X connect 18 0 19 0;
#X connect 18 0 20 0;
#X connect 19 0 13 1;
#X connect 19 0 7 1;
#X connect 20 0 13 0;
#X connect 20 0 7 0;
#X restore 306 112 pd MOD_PARSE;
#X msg 306 133 extmod \$1;
#X msg 376 132 extmod \$1;
#X obj 376 153 s \$0-osc-y;
#X obj 306 154 s \$0-osc-x;
#X connect 0 0 28 0;
#X connect 1 0 3 0;
#X connect 3 0 19 0;
#X connect 4 0 5 0;
#X connect 4 1 33 0;
#X connect 5 0 13 0;
#X connect 6 0 7 0;
#X connect 6 1 31 0;
#X connect 7 0 12 0;
#X connect 8 0 9 0;
#X connect 8 1 32 0;
#X connect 9 0 11 0;
#X connect 14 0 1 1;
#X connect 18 0 30 1;
#X connect 19 0 20 0;
#X connect 20 0 2 0;
#X connect 22 0 19 1;
#X connect 22 0 23 0;
#X connect 23 0 25 0;
#X connect 24 0 23 1;
#X connect 25 0 26 0;
#X connect 27 0 1 0;
#X connect 27 1 30 0;
#X connect 28 0 21 0;
#X connect 28 0 27 0;
#X connect 28 1 4 0;
#X connect 28 2 6 0;
#X connect 28 3 8 0;
#X connect 28 4 29 0;
#X connect 28 5 34 0;
#X connect 28 6 34 1;
#X connect 28 7 34 2;
#X connect 28 8 10 0;
#X connect 30 0 3 1;
#X connect 31 0 16 0;
#X connect 32 0 15 0;
#X connect 33 0 17 0;
#X connect 34 0 35 0;
#X connect 34 1 36 0;
#X connect 35 0 38 0;
#X connect 36 0 37 0;
#X restore 17 88 pd OSCFREQWAVE_____________________________;
#X obj 17 164 f.util.oscformatxy \$0 \$1 fmfreqdepth fmfreq 0 10 1 fmdepth 0 0 1;
#X obj 17 195 f.util.oscformatxy \$0 \$1 noisefreqdepth noisefilterfreq 0 0 6 noise 0 0 2.7;
#X obj 17 132 f.util.oscformatxy \$0 \$1 oscsliderangetime oscsliderange 0 0 2.7 oscslidetime 0 0 3.5;
#X connect 0 0 4 0;
#X connect 2 0 7 0;
#X connect 4 0 2 0;
#X connect 5 0 6 0;
#X connect 6 0 1 0;
#X connect 7 0 5 0;
#X restore 41 64 pd OSC_FM__NOISE_________;
#N canvas 424 247 1088 493 ACT_TRIG_MOD_CHAOS_LFO 0;
#X obj 30 8 inlet;
#X obj 172 84 s chaostrig\$1;
#X obj 101 84 s trig\$1;
#X obj 30 84 s act\$1;
#X obj 55 29 r automater-out-\$1;
#X obj 775 448 outlet;
#X obj 272 84 s reverse\$1;
#X obj 30 49 route actglobal\$1 trigglobal\$1 chaostrigglobal\$1 reverseglobal\$1;
#X obj 129 191 t b f;
#X obj 94 250 >= 1;
#X obj 173 190 t b f;
#X obj 218 193 t b f;
#X obj 94 279 sel 0 1;
#X msg 113 301 symbol true;
#X msg 94 323 symbol false;
#X obj 94 350 oscformat modeselector\$1;
#X obj 662 209 oscformat moddepth\$1;
#X obj 538 311 oscformat lfodepth\$1;
#X obj 477 363 oscformat lfofreq\$1;
#X obj 477 66 route lfofreqglobal\$1 lfodepthglobal\$1 chaosglobal\$1 moddepthglobal\$1 modglobal\$1;
#X obj 724 154 oscformat mod\$1;
#X obj 477 391 s to-o-s-c-interface;
#X obj 600 287 s to-o-s-c-interface;
#X obj 724 182 s to-o-s-c-interface;
#X obj 94 381 s to-o-s-c-interface;
#X obj 600 259 oscformat chaos\$1;
#X obj 662 237 s to-o-s-c-interface;
#X obj 538 339 s to-o-s-c-interface;
#X obj 489 316 sel 1;
#X obj 487 338 pipe 30;
#X obj 551 269 sel 1;
#X obj 549 291 pipe 30;
#X obj 611 215 sel 1;
#X obj 609 237 pipe 30;
#X obj 676 163 sel 1;
#X obj 674 185 pipe 30;
#X obj 740 111 sel 1;
#X obj 738 133 pipe 30;
#X obj 270 145 route quantiseglobal\$1;
#X obj 270 196 t b f;
#X obj 94 226 expr $f1 + $f2 + $f3 + $f4 + $f5;
#X obj 280 166 s quantise\$1;
#X connect 0 0 7 0;
#X connect 4 0 7 0;
#X connect 7 0 3 0;
#X connect 7 0 40 0;
#X connect 7 1 2 0;
#X connect 7 1 8 0;
#X connect 7 2 1 0;
#X connect 7 2 10 0;
#X connect 7 3 6 0;
#X connect 7 3 11 0;
#X connect 7 4 19 0;
#X connect 7 4 38 0;
#X connect 8 0 40 0;
#X connect 8 1 40 1;
#X connect 9 0 12 0;
#X connect 10 0 40 0;
#X connect 10 1 40 2;
#X connect 11 0 40 0;
#X connect 11 1 40 3;
#X connect 12 0 14 0;
#X connect 12 1 13 0;
#X connect 13 0 15 0;
#X connect 14 0 15 0;
#X connect 15 0 24 0;
#X connect 16 0 26 0;
#X connect 17 0 27 0;
#X connect 18 0 21 0;
#X connect 19 0 18 0;
#X connect 19 0 28 0;
#X connect 19 1 17 0;
#X connect 19 1 30 0;
#X connect 19 2 25 0;
#X connect 19 2 32 0;
#X connect 19 3 16 0;
#X connect 19 3 34 0;
#X connect 19 4 20 0;
#X connect 19 4 36 0;
#X connect 19 5 5 0;
#X connect 20 0 23 0;
#X connect 25 0 22 0;
#X connect 28 1 29 0;
#X connect 29 0 18 0;
#X connect 30 1 31 0;
#X connect 32 1 33 0;
#X connect 34 1 35 0;
#X connect 36 1 37 0;
#X connect 37 0 20 0;
#X connect 38 0 39 0;
#X connect 38 0 41 0;
#X connect 39 0 40 0;
#X connect 39 1 40 4;
#X connect 40 0 9 0;
#X restore 41 214 pd ACT_TRIG_MOD_CHAOS_LFO;
#N canvas 78 276 523 419 MOD_INPUT_DEPRECATED__ 0;
#X obj 31 22 inlet;
#X obj 467 380 outlet;
#X obj 312 299 r \$0-reset;
#X msg 312 320 reset bang;
#X obj 31 241 list split 1;
#X obj 154 141 list split 1;
#X obj 154 162 list fromsymbol;
#X obj 154 183 f.util.asci2char;
#X obj 277 100 list split 1;
#X obj 277 121 list fromsymbol;
#X obj 277 142 f.util.asci2char;
#X obj 154 204 + 1;
#X obj 277 163 + 1;
#X obj 277 183 pack f f \$1;
#X obj 154 224 pack f f \$1;
#X obj 31 264 pack f f \$1;
#X obj 31 62 route extmodulationsource\$1 thresholdsource\$1 envsidesource\$1, f 62;
#X msg 154 246 formuls\$3 thresholdsource \$1 \$2;
#X msg 31 286 formuls\$3 extmodulationsource \$1 \$2;
#X msg 277 205 formuls\$3 envsidesource \$1 \$2;
#X obj 300 346 s to-faust-\$1;
#N canvas 121 146 450 300 deprecated 0;
#X obj 43 66 list split 1;
#X obj 43 87 list fromsymbol;
#X obj 43 108 f.util.asci2char;
#X obj 43 129 + 1;
#X obj 43 149 pack f f \$1;
#X connect 0 0 1 0;
#X connect 0 1 4 1;
#X connect 1 0 2 0;
#X connect 2 0 3 0;
#X connect 3 0 4 0;
#X restore 46 211 pd deprecated;
#X connect 0 0 16 0;
#X connect 2 0 3 0;
#X connect 3 0 20 0;
#X connect 4 0 15 0;
#X connect 4 1 15 1;
#X connect 5 0 6 0;
#X connect 5 1 14 1;
#X connect 6 0 7 0;
#X connect 7 0 11 0;
#X connect 8 0 9 0;
#X connect 8 1 13 1;
#X connect 9 0 10 0;
#X connect 10 0 12 0;
#X connect 11 0 14 0;
#X connect 12 0 13 0;
#X connect 13 0 19 0;
#X connect 14 0 17 0;
#X connect 15 0 18 0;
#X connect 16 0 4 0;
#X connect 16 1 5 0;
#X connect 16 2 8 0;
#X connect 16 3 1 0;
#X connect 17 0 20 0;
#X connect 18 0 20 0;
#X connect 19 0 20 0;
#X restore 41 193 pd MOD_INPUT_DEPRECATED__;
#N canvas 717 265 370 587 SEQUENCER_BEAT_FLASH__ 0;
#X obj 74 63 r \$0-seq-messages;
#X obj 65 108 f.seq.sequencer;
#X obj 65 12 r link;
#X obj 83 85 s seq-messages-\$1;
#X msg 119 476 formuls\$1 triggerx bang;
#N canvas 721 129 262 300 CHORDSIZE___ 0;
#X obj 67 23 inlet;
#X obj 67 263 outlet;
#X obj 106 103 r \$0-chord-size;
#X obj 67 81 i;
#X obj 93 81 + 1;
#X msg 166 204 0;
#X obj 67 146 moses 0;
#X obj 106 124 i;
#X msg 202 206 stop;
#X obj 94 232 del 11;
#X obj 153 183 t b b b;
#X obj 67 176 t b b;
#X connect 0 0 3 0;
#X connect 2 0 7 0;
#X connect 3 0 4 0;
#X connect 3 0 6 0;
#X connect 4 0 3 1;
#X connect 5 0 3 1;
#X connect 6 0 11 0;
#X connect 6 1 10 0;
#X connect 7 0 6 1;
#X connect 8 0 9 0;
#X connect 9 0 3 0;
#X connect 10 0 1 0;
#X connect 10 1 5 0;
#X connect 10 2 8 0;
#X connect 11 0 1 0;
#X connect 11 1 9 0;
#X restore 119 266 pd CHORDSIZE___;
#N canvas 0 34 346 233 SEQPOS_LED___ 0;
#X obj 70 150 s to-o-s-c-interface;
#X obj 70 44 inlet;
#X obj 70 119 oscformat seqpos\$1;
#X obj 70 93 + 1;
#X connect 1 0 3 0;
#X connect 2 0 0 0;
#X connect 3 0 2 0;
#X restore 123 136 pd SEQPOS_LED___;
#X obj 138 385 s \$0-value-send;
#X obj 145 245 s \$2-value-send;
#X obj 119 501 s to-faust-\$1;
#X msg 65 33 beat \$1;
#X obj 94 157 s \$0-seqpos-\$1;
#N canvas 826 196 304 300 FLAM___ 0;
#X obj 74 100 * 30;
#X obj 74 142 change;
#X obj 174 142 change;
#X obj 174 163 + 5;
#X obj 174 100 * 200;
#X obj 43 187 f.util.drip;
#X obj 43 16 inlet;
#X obj 43 268 outlet;
#X obj 174 75 r \$0-flam-spread;
#X obj 74 75 r \$0-flam-hits;
#X obj 74 121 i 0;
#X obj 174 121 i 0;
#X connect 0 0 10 0;
#X connect 1 0 5 1;
#X connect 2 0 3 0;
#X connect 3 0 5 2;
#X connect 4 0 11 0;
#X connect 5 0 7 0;
#X connect 6 0 5 0;
#X connect 8 0 4 0;
#X connect 9 0 0 0;
#X connect 10 0 1 0;
#X connect 11 0 2 0;
#X restore 119 430 pd FLAM___;
#X obj 119 452 f \$1;
#X obj 92 201 sel 0;
#X obj 67 529 oscformat sequencerstep\$1;
#X obj 67 550 s to-o-s-c-interface;
#X obj 119 407 del 10;
#X obj 158 353 s to-global-trigger;
#X obj 158 311 spigot;
#X obj 191 290 r \$1-globalmonophonic;
#X obj 119 224 t b b;
#X obj 65 179 t f f;
#X obj 119 287 t b b b;
#X obj 158 332 \$1;
#X connect 0 0 1 0;
#X connect 0 0 3 0;
#X connect 1 0 22 0;
#X connect 1 1 11 0;
#X connect 1 2 6 0;
#X connect 2 0 10 0;
#X connect 4 0 9 0;
#X connect 5 0 23 0;
#X connect 10 0 1 0;
#X connect 12 0 13 0;
#X connect 13 0 4 0;
#X connect 14 1 21 0;
#X connect 15 0 16 0;
#X connect 17 0 12 0;
#X connect 19 0 24 0;
#X connect 20 0 19 1;
#X connect 21 0 5 0;
#X connect 21 1 8 0;
#X connect 22 0 15 0;
#X connect 22 1 14 0;
#X connect 23 0 17 0;
#X connect 23 1 7 0;
#X connect 23 2 19 0;
#X connect 24 0 18 0;
#X restore 41 275 pd SEQUENCER_BEAT_FLASH__;
#N canvas 771 180 222 284 POLYPHONY_PARSE_______ 0;
#X obj 58 35 r \$0-monopoly;
#X obj 83 140 r \$0-chord-size;
#X obj 58 64 == 0;
#X obj 58 85 sel 0 1;
#X obj 58 163 f 1;
#X msg 77 112 20;
#X obj 58 247 s to-faust;
#X obj 58 196 pack f \$1;
#X msg 58 216 formuls\$2 polyphony \$1;
#X connect 0 0 2 0;
#X connect 1 0 4 1;
#X connect 2 0 3 0;
#X connect 3 0 4 0;
#X connect 3 1 5 0;
#X connect 4 0 7 0;
#X connect 5 0 7 0;
#X connect 7 0 8 0;
#X connect 8 0 6 0;
#X restore 45 240 pd POLYPHONY_PARSE_______;
#X connect 0 0 6 0;
#X connect 1 0 8 0;
#X connect 2 0 1 0;
#X connect 3 0 2 0;
#X connect 4 0 3 0;
#X connect 5 0 4 0;
#X connect 6 0 5 0;
#X connect 8 0 7 0;
