#N canvas 271 496 304 300 12;
#X obj 61 10 inlet;
#X obj 61 138 i;
#X obj 128 11 inlet list_in;
#X msg 61 186 get \$1;
#X obj 61 264 outlet;
#X obj 61 218 list store;
#X obj 128 45 t a a;
#X obj 160 70 list length;
#X obj 61 114 *;
#X obj 61 161 min;
#X obj 160 93 - 1;
#X connect 0 0 8 0;
#X connect 1 0 9 0;
#X connect 2 0 6 0;
#X connect 3 0 5 0;
#X connect 5 0 4 0;
#X connect 6 0 5 1;
#X connect 6 1 7 0;
#X connect 7 0 8 1;
#X connect 7 0 10 0;
#X connect 8 0 1 0;
#X connect 9 0 3 0;
#X connect 10 0 9 1;
