#N canvas 527 312 241 339 10;
#X obj 41 15 r o-s-c-messages;
#N canvas 78 276 523 419 MOD_INPUT_____________ 0;
#X obj 31 22 inlet;
#X obj 467 380 outlet;
#X obj 312 299 r \$0-reset;
#X msg 312 320 reset bang;
#X obj 31 241 list split 1;
#X obj 154 141 list split 1;
#X obj 154 162 list fromsymbol;
#X obj 154 183 f.util.asci2char;
#X obj 277 100 list split 1;
#X obj 277 121 list fromsymbol;
#X obj 277 142 f.util.asci2char;
#X obj 154 204 + 1;
#X obj 277 163 + 1;
#X obj 277 183 pack f f \$1;
#X obj 154 224 pack f f \$1;
#X obj 31 264 pack f f \$1;
#X obj 31 62 route extmodulationsource\$1 thresholdsource\$1 envsidesource\$1, f 62;
#X msg 154 246 formuls\$3 thresholdsource \$1 \$2;
#X msg 31 286 formuls\$3 extmodulationsource \$1 \$2;
#X msg 277 205 formuls\$3 envsidesource \$1 \$2;
#X obj 300 346 s to-faust-\$1;
#N canvas 121 146 450 300 deprecated 0;
#X obj 43 66 list split 1;
#X obj 43 87 list fromsymbol;
#X obj 43 108 f.util.asci2char;
#X obj 43 129 + 1;
#X obj 43 149 pack f f \$1;
#X connect 0 0 1 0;
#X connect 0 1 4 1;
#X connect 1 0 2 0;
#X connect 2 0 3 0;
#X connect 3 0 4 0;
#X restore 46 211 pd deprecated;
#X connect 0 0 16 0;
#X connect 2 0 3 0;
#X connect 3 0 20 0;
#X connect 4 0 15 0;
#X connect 4 1 15 1;
#X connect 5 0 6 0;
#X connect 5 1 14 1;
#X connect 6 0 7 0;
#X connect 7 0 11 0;
#X connect 8 0 9 0;
#X connect 8 1 13 1;
#X connect 9 0 10 0;
#X connect 10 0 12 0;
#X connect 11 0 14 0;
#X connect 12 0 13 0;
#X connect 13 0 19 0;
#X connect 14 0 17 0;
#X connect 15 0 18 0;
#X connect 16 0 4 0;
#X connect 16 1 5 0;
#X connect 16 2 8 0;
#X connect 16 3 1 0;
#X connect 17 0 20 0;
#X connect 18 0 20 0;
#X connect 19 0 20 0;
#X restore 41 193 pd MOD_INPUT_____________;
#N canvas 842 511 549 415 ENV_MASTER_PAN________ 0;
#X obj 17 27 inlet;
#X obj 17 350 outlet;
#N canvas 1585 512 335 339 MUTE_MESSAGE_ASSEMBLE 0;
#X obj 58 226 list trim;
#X obj 80 183 s to-o-s-c-interface;
#X obj 80 87 r \$1-reset;
#X msg 80 129 0;
#X obj 58 205 list prepend formuls\$1 mute;
#X obj 80 162 oscformat mute\$1;
#X obj 80 108 del 200;
#X obj 58 56 route mute\$1;
#X obj 58 11 inlet;
#X obj 236 301 outlet;
#X obj 58 248 s to-faust-\$1;
#X connect 0 0 10 0;
#X connect 2 0 6 0;
#X connect 3 0 4 0;
#X connect 3 0 5 0;
#X connect 4 0 0 0;
#X connect 5 0 1 0;
#X connect 6 0 3 0;
#X connect 7 0 4 0;
#X connect 7 0 5 0;
#X connect 7 1 9 0;
#X connect 8 0 7 0;
#X restore 17 228 pd MUTE_MESSAGE_ASSEMBLE;
#X obj 108 143 s reverb\$1;
#X obj 17 122 f.util.oscformat \$0 \$1 reverb 0;
#X obj 17 164 f.util.oscformat \$0 \$1 panning 0.5;
#N canvas 0 25 293 291 VOLUME_TO_FAUST_ACTIVE 0;
#X obj 74 71 > 0;
#X obj 121 93 s \$0-volume;
#X obj 74 112 moses 1;
#X obj 74 133 pipe 10;
#X obj 74 154 t a;
#X msg 74 175 active \$1;
#X obj 74 92 change;
#X obj 74 30 inlet;
#X obj 74 196 s to-faust-\$1;
#X connect 0 0 1 0;
#X connect 0 0 6 0;
#X connect 2 0 3 0;
#X connect 2 1 4 0;
#X connect 3 0 4 0;
#X connect 4 0 5 0;
#X connect 5 0 8 0;
#X connect 6 0 2 0;
#X connect 7 0 0 0;
#X restore 108 206 pd VOLUME_TO_FAUST_ACTIVE;
#X obj 17 249 f.util.oscformat \$0 \$1 slew 0;
#N canvas 0 25 199 247 SLEW_MAP__ 0;
#X obj 46 59 inlet;
#X obj 46 99 * 500;
#X obj 46 120 i;
#X obj 46 140 s \$0-slew;
#X connect 0 0 1 0;
#X connect 1 0 2 0;
#X connect 2 0 3 0;
#X restore 102 271 pd SLEW_MAP__;
#N canvas 0 25 330 313 RESET________________ 0;
#X obj 37 37 inlet;
#X obj 37 84 route reset\$1;
#X obj 37 173 bng 15 250 50 0 empty empty empty 17 7 0 10 #fcfcfc #000000 #000000;
#X obj 37 223 s \$0-reset;
#X obj 46 203 s \$1-reset;
#X obj 37 154 sel 1;
#X obj 60 132 s \$0-\$1-reset;
#X obj 60 107 r resetglobal;
#X obj 198 247 outlet;
#X connect 0 0 1 0;
#X connect 1 0 5 0;
#X connect 1 0 6 0;
#X connect 1 1 8 0;
#X connect 2 0 3 0;
#X connect 2 0 4 0;
#X connect 5 0 2 0;
#X connect 7 0 6 0;
#X connect 7 0 5 0;
#X restore 17 293 pd RESET________________;
#X obj 17 185 f.util.oscformat \$0 \$1 volume 0 0 2.7;
#N canvas 582 250 699 586 envelopesidechain 0;
#X obj 53 37 inlet;
#X obj 270 125 >= 0;
#X obj 53 58 route envelopesidechain\$1 envelopesidechainmod\$1 envelopesidechainmoddepth\$1;
#X obj 243 97 t f f;
#X obj 243 158 abs;
#X obj 53 317 list trim;
#X obj 140 472 outlet;
#X obj 302 377 oscformat enveloperelease\$1;
#X obj 343 353 oscformat envsidesource\$1;
#X obj 382 328 oscformat envelopedepth\$1;
#X obj 422 304 oscformat envelopeside\$1;
#X obj 127 101 list split 1;
#X obj 127 122 list fromsymbol;
#X obj 127 143 f.util.asci2char;
#X obj 127 164 + 1;
#X obj 53 339 s to-faust-\$1;
#X obj 127 184 pack f f;
#X obj 53 251 list prepend formuls\$1 enveloperelease;
#X obj 127 210 list prepend formuls\$1 envsidesource;
#X obj 243 180 list prepend formuls\$1 envelopedepth;
#X obj 270 146 list prepend formuls\$1 envelopeside;
#X obj 53 222 pow 2.7;
#X connect 0 0 2 0;
#X connect 1 0 20 0;
#X connect 2 0 7 0;
#X connect 2 0 21 0;
#X connect 2 1 8 0;
#X connect 2 1 11 0;
#X connect 2 2 3 0;
#X connect 2 3 6 0;
#X connect 3 0 4 0;
#X connect 3 1 1 0;
#X connect 3 1 10 0;
#X connect 4 0 9 0;
#X connect 4 0 19 0;
#X connect 5 0 15 0;
#X connect 11 0 12 0;
#X connect 11 1 16 1;
#X connect 12 0 13 0;
#X connect 13 0 14 0;
#X connect 14 0 16 0;
#X connect 16 0 18 0;
#X connect 17 0 5 0;
#X connect 18 0 5 0;
#X connect 19 0 5 0;
#X connect 20 0 5 0;
#X connect 21 0 17 0;
#X restore 17 100 pd envelopesidechain;
#X obj 248 132 f.util.oscformat \$0 \$1 envelopeside 1;
#X obj 248 97 f.util.oscformatxy \$0 \$1 envelopereleasedepth enveloperelease 0 0 4 envelopedepth 0 0 2.7;
#X connect 0 0 11 0;
#X connect 2 0 7 0;
#X connect 4 0 5 0;
#X connect 4 1 3 0;
#X connect 5 0 10 0;
#X connect 7 0 9 0;
#X connect 7 1 8 0;
#X connect 9 0 1 0;
#X connect 10 0 2 0;
#X connect 10 1 6 0;
#X connect 11 0 4 0;
#X connect 13 0 12 0;
#X restore 41 171 pd ENV_MASTER_PAN________;
#N canvas 787 251 437 390 FX____________________ 0;
#X obj 17 7 inlet;
#X obj 17 356 outlet;
#N canvas 360 25 590 855 AM_FREQ_DEPTH__________ 0;
#X obj 20 8 inlet;
#X obj 20 466 unpack f f;
#N canvas 785 321 530 512 AM_QUANTISE 0;
#X floatatom 294 58 5 0 0 0 - - - 0;
#X text 385 90 bpm to hz;
#X text 383 157 99.9 + 0.1;
#X obj 294 105 /;
#X floatatom 294 129 5 0 0 0 - - - 0;
#X obj 294 177 /;
#X floatatom 294 201 5 0 0 0 - - - 0;
#X msg 294 81 60 \$1;
#X msg 294 153 0.5 \$1;
#X obj 282 281 *;
#X obj 282 255 f;
#X obj 294 224 t b f;
#X obj 147 152 sel 0 1 2 3;
#X msg 147 188 1;
#X msg 179 188 2;
#X msg 212 188 4;
#X msg 244 188 8;
#X obj 147 229 t a;
#X floatatom 288 362 5 0 0 0 - - - 0;
#X obj 288 308 / 100;
#X text 31 32 from interface (0-1 / number_of_steps);
#X obj 35 9 inlet;
#X obj 148 112 * 4;
#X obj 148 133 int;
#X obj 294 32 r bpmglobal;
#X obj 35 90 f.util.switch;
#X obj 124 431 outlet;
#X floatatom 230 313 5 0 0 0 - - - 0;
#X obj 232 429 oscformat amfreq;
#X obj 232 450 s \$0-OSC-collect-\$1;
#X msg 338 285 1 3.1;
#X obj 338 306 /;
#X obj 288 329 pow;
#X obj 338 263 loadbang;
#X obj 148 66 r quantiseglobal;
#X connect 0 0 7 0;
#X connect 3 0 4 0;
#X connect 4 0 8 0;
#X connect 5 0 6 0;
#X connect 6 0 11 0;
#X connect 7 0 3 0;
#X connect 8 0 5 0;
#X connect 9 0 19 0;
#X connect 9 0 27 0;
#X connect 10 0 9 0;
#X connect 11 0 10 0;
#X connect 11 1 9 1;
#X connect 12 0 13 0;
#X connect 12 1 14 0;
#X connect 12 2 15 0;
#X connect 12 3 16 0;
#X connect 13 0 17 0;
#X connect 14 0 17 0;
#X connect 15 0 17 0;
#X connect 16 0 17 0;
#X connect 17 0 10 0;
#X connect 18 0 28 0;
#X connect 18 0 26 0;
#X connect 19 0 32 0;
#X connect 21 0 25 0;
#X connect 22 0 23 0;
#X connect 23 0 12 0;
#X connect 24 0 0 0;
#X connect 25 0 28 0;
#X connect 25 0 26 0;
#X connect 25 1 22 0;
#X connect 28 0 29 0;
#X connect 30 0 31 0;
#X connect 31 0 32 1;
#X connect 32 0 18 0;
#X connect 33 0 30 0;
#X connect 34 0 25 1;
#X restore 20 621 pd AM_QUANTISE;
#X obj 82 578 r xglobal;
#X obj 139 472 r yglobal;
#X obj 77 490 f.util.switch;
#X obj 20 596 f.util.switch;
#X obj 132 730 oscformat amfreqdepth\$1;
#X obj 132 751 s \$1-message-collect;
#X obj 132 707 f.util.pak;
#X obj 20 684 f.util.oscformat \$0 \$1 amfreq 0 0 3.1;
#X obj 77 554 f.util.oscformat \$0 \$1 amdepth 0 0 3.1;
#X obj 90 374 unpack f f;
#X obj 200 396 pack f \$1;
#X obj 160 269 unpack f f;
#X obj 286 302 pack f \$1;
#X obj 230 168 unpack f f;
#X obj 356 198 pack f \$1;
#X msg 300 113 active \$1;
#X msg 379 114 looptrig \$1;
#X msg 459 114 chaostrig \$1;
#X obj 20 59 route amfreqdepth\$1 amfreqdepthchaos\$1 amfreqdepthlfofreq\$1 amfreqdepthlfodepth\$1 amfreqdepthlabel\$1;
#X msg 356 221 amdepthlfodepth\$2 \$1;
#X msg 286 324 amdepthlfofreq\$2 \$1;
#X msg 200 419 amdepthchaos\$2 \$1;
#X obj 90 438 s \$0-am-x;
#X obj 200 440 s \$0-am-y;
#X obj 286 345 s \$0-am-y;
#X obj 356 242 s \$0-am-y;
#X obj 459 150 s \$0-am-y;
#X obj 160 345 s \$0-am-x;
#X obj 230 242 s \$0-am-x;
#X obj 300 150 s \$0-am-x;
#X obj 105 662 r \$0-am-x;
#X obj 167 531 r \$0-am-y;
#X obj 484 828 outlet;
#X obj 77 512 pack f \$1;
#X msg 77 533 amdepth\$2 \$1;
#X obj 20 641 pack f \$1;
#X msg 20 662 amfreq\$2 \$1;
#X obj 160 303 pack f \$1;
#X obj 230 200 pack f \$1;
#X msg 230 221 amfreqlfodepth\$2 \$1;
#X msg 160 324 amfreqlfofreq\$2 \$1;
#X msg 90 417 amfreqchaos\$2 \$1;
#X obj 90 395 pack f \$1;
#X obj 300 92 f.util.xywidgetparse \$1 amfreqdepth;
#X connect 0 0 21 0;
#X connect 1 0 6 0;
#X connect 1 1 5 0;
#X connect 2 0 38 0;
#X connect 3 0 6 1;
#X connect 4 0 5 1;
#X connect 5 0 36 0;
#X connect 6 0 2 0;
#X connect 7 0 8 0;
#X connect 9 0 7 0;
#X connect 10 1 9 0;
#X connect 11 1 9 1;
#X connect 12 0 45 0;
#X connect 12 1 13 0;
#X connect 13 0 24 0;
#X connect 14 0 40 0;
#X connect 14 1 15 0;
#X connect 15 0 23 0;
#X connect 16 0 41 0;
#X connect 16 1 17 0;
#X connect 17 0 22 0;
#X connect 18 0 29 0;
#X connect 18 0 32 0;
#X connect 19 0 29 0;
#X connect 19 0 32 0;
#X connect 20 0 29 0;
#X connect 20 0 32 0;
#X connect 21 0 1 0;
#X connect 21 1 12 0;
#X connect 21 2 14 0;
#X connect 21 3 16 0;
#X connect 21 4 46 0;
#X connect 21 5 35 0;
#X connect 22 0 28 0;
#X connect 23 0 27 0;
#X connect 24 0 26 0;
#X connect 33 0 10 0;
#X connect 34 0 11 0;
#X connect 36 0 37 0;
#X connect 37 0 11 0;
#X connect 38 0 39 0;
#X connect 39 0 10 0;
#X connect 40 0 43 0;
#X connect 41 0 42 0;
#X connect 42 0 31 0;
#X connect 43 0 30 0;
#X connect 44 0 25 0;
#X connect 45 0 44 0;
#X connect 46 0 18 0;
#X connect 46 1 19 0;
#X connect 46 2 20 0;
#X restore 17 182 pd AM_FREQ_DEPTH__________;
#X obj 17 266 f.util.oscformat \$0 \$1 gateattack 0 0 3;
#N canvas 313 38 325 357 FXSEND________ 0;
#X obj 41 17 inlet;
#X obj 41 81 route fxsend\$1;
#X obj 41 232 == 0;
#X obj 249 315 outlet;
#X obj 41 253 pack f \$1;
#X obj 62 115 r \$1-reset;
#X obj 88 182 pack f \$1;
#X msg 88 203 fxsend\$2 \$1;
#X obj 88 224 s \$1-message-collect;
#X msg 41 274 formuls\$2 fxsend \$1;
#X msg 62 136 0;
#X obj 41 303 s to-faust-\$2;
#X connect 0 0 1 0;
#X connect 1 0 2 0;
#X connect 1 1 3 0;
#X connect 2 0 4 0;
#X connect 4 0 9 0;
#X connect 5 0 10 0;
#X connect 6 0 7 0;
#X connect 7 0 8 0;
#X connect 9 0 11 0;
#X connect 10 0 2 0;
#X connect 10 0 6 0;
#X restore 17 319 pd FXSEND________;
#X obj 17 88 f.util.oscformat \$0 \$1 chorus 0;
#N canvas 282 25 377 492 DELAY_TIME_________________ 0;
#X obj 37 17 inlet;
#X obj 165 174 r \$2-bpm;
#X obj 150 309 clip 0 1;
#X obj 165 216 /;
#X msg 165 195 120 \$1;
#X obj 150 288 *;
#X obj 165 238 t b f;
#X obj 150 262 f;
#N canvas 0 25 342 300 DELAYMAP 0;
#X obj 54 22 inlet;
#X obj 54 240 outlet;
#X text 134 64 1 \, 3/4 \, 1/2 \, 1/4 \, 1/8;
#X obj 54 53 * 5;
#X obj 54 74 + 1;
#X obj 54 95 i;
#X obj 54 116 sel 1 2 3 4 5;
#X obj 54 198 f;
#X msg 227 158 1;
#X msg 183 158 0.75;
#X msg 143 158 0.5;
#X msg 103 158 0.25;
#X msg 54 157 0.125;
#X connect 0 0 3 0;
#X connect 3 0 4 0;
#X connect 4 0 5 0;
#X connect 5 0 6 0;
#X connect 6 0 12 0;
#X connect 6 1 11 0;
#X connect 6 2 10 0;
#X connect 6 3 9 0;
#X connect 6 4 8 0;
#X connect 6 5 8 0;
#X connect 7 0 1 0;
#X connect 8 0 7 0;
#X connect 9 0 7 0;
#X connect 10 0 7 0;
#X connect 11 0 7 0;
#X connect 12 0 7 0;
#X restore 150 150 pd DELAYMAP;
#X obj 136 388 f.util.oscformat \$0 \$1 delaytime 0;
#X obj 37 59 route delaytime\$1;
#X obj 136 449 outlet;
#X obj 150 330 pack f \$1;
#X msg 150 351 delaytime\$2 \$1;
#X obj 37 112 f.util.switch;
#X obj 150 88 r quantiseglobal;
#X connect 0 0 10 0;
#X connect 1 0 4 0;
#X connect 2 0 12 0;
#X connect 3 0 6 0;
#X connect 4 0 3 0;
#X connect 5 0 2 0;
#X connect 6 0 7 0;
#X connect 6 1 5 1;
#X connect 7 0 5 0;
#X connect 8 0 7 0;
#X connect 9 0 11 0;
#X connect 10 0 14 0;
#X connect 10 1 9 0;
#X connect 12 0 13 0;
#X connect 13 0 9 0;
#X connect 14 0 2 0;
#X connect 14 1 8 0;
#X connect 15 0 14 1;
#X restore 17 129 pd DELAY_TIME_________________;
#N canvas 527 83 539 745 RESONANT_FILTER____ 0;
#X obj 66 8 inlet;
#X obj 66 180 list split 2;
#X obj 448 715 outlet;
#X obj 267 471 t b a;
#X obj 226 495 unpack f f;
#X obj 294 544 unpack f f;
#X obj 226 576 pack f f f f \$1;
#X obj 226 618 s \$1-message-collect;
#X obj 66 407 list trim;
#X obj 180 236 list trim;
#X obj 111 321 r automateRecord;
#X obj 66 362 spigot 1;
#X obj 111 342 == 0;
#X obj 66 237 unpack f f;
#X msg 110 261 1 \$1;
#X obj 110 282 -;
#X obj 66 301 pack f f;
#X msg 248 522 1 \$1;
#X obj 248 543 -;
#X msg 226 597 resonantfilterREAL\$5 \$1 \$2 \$3 \$4;
#X obj 66 29 route resonantfilterfreqq\$1 resonantfilterfreqqchaos\$1 resonantfilterfreqqlfofreq\$1 resonantfilterfreqqlfodepth\$1 resonantfilterfreqqlabel\$1;
#X obj 180 256 f.util.oscformatxy \$0 \$1 resonantfilterfreqq lowpass 1 0 1 lowpassresonance 0 0 2.7;
#X obj 294 81 list prepend resonantfilterfreqqlabel\$1;
#X obj 237 103 list prepend resonantfilterfreqqlfodepth\$1;
#X obj 180 125 list prepend resonantfilterfreqqlfofreq\$1;
#X obj 123 148 list prepend resonantfilterfreqqchaos\$1;
#X obj 100 202 list prepend resonantfilterfreqq\$1;
#X obj 66 386 list prepend resonantfilterfreqq\$1;
#X obj 66 429 f.util.oscformatxy \$0 \$1 resonantfilterfreqq highpass 0 0 1 highpassresonance 0 0 2.7;
#X connect 0 0 20 0;
#X connect 1 0 13 0;
#X connect 1 1 26 0;
#X connect 3 0 6 0;
#X connect 3 1 5 0;
#X connect 4 0 6 0;
#X connect 4 1 17 0;
#X connect 5 0 6 2;
#X connect 5 1 6 3;
#X connect 6 0 19 0;
#X connect 8 0 28 0;
#X connect 9 0 21 0;
#X connect 10 0 12 0;
#X connect 11 0 27 0;
#X connect 12 0 11 1;
#X connect 13 0 16 0;
#X connect 13 1 14 0;
#X connect 14 0 15 0;
#X connect 15 0 16 1;
#X connect 16 0 11 0;
#X connect 17 0 18 0;
#X connect 18 0 6 1;
#X connect 19 0 7 0;
#X connect 20 0 1 0;
#X connect 20 1 25 0;
#X connect 20 2 24 0;
#X connect 20 3 23 0;
#X connect 20 4 22 0;
#X connect 20 5 2 0;
#X connect 21 1 3 0;
#X connect 22 0 9 0;
#X connect 23 0 9 0;
#X connect 24 0 9 0;
#X connect 25 0 9 0;
#X connect 26 0 9 0;
#X connect 27 0 8 0;
#X connect 28 1 4 0;
#X restore 17 68 pd RESONANT_FILTER____;
#X obj 17 48 f.util.oscformat \$0 \$1 saturation 0 0 1;
#X obj 17 287 f.util.oscformatxy \$0 \$1 gateholdrelease gatehold 0 0 3 gaterelease 0 0 3;
#X obj 17 224 f.util.oscformat \$0 \$1 amphasereset 0;
#X obj 17 203 f.util.oscformat \$0 \$1 amwave 0 3;
#X obj 17 245 f.util.oscformat \$0 \$1 gatethresh 0 0 0.1;
#X obj 17 109 f.util.oscformat \$0 \$1 reversedelay 0;
#X obj 17 150 f.util.oscformatxy \$0 \$1 delayfeedbacksend delayfeedback 0 0 1 delaysend 0 0 2.7;
#X connect 0 0 8 0;
#X connect 2 0 11 0;
#X connect 3 0 9 0;
#X connect 4 0 1 0;
#X connect 5 0 13 0;
#X connect 6 0 14 0;
#X connect 7 0 5 0;
#X connect 8 0 7 0;
#X connect 9 0 4 0;
#X connect 10 0 12 0;
#X connect 11 0 10 0;
#X connect 12 0 3 0;
#X connect 13 0 6 0;
#X connect 14 0 2 0;
#X restore 41 149 pd FX____________________;
#N canvas 844 175 517 541 SEQ___________________ 0;
#X obj 44 8 inlet;
#X obj 44 488 outlet;
#X obj 295 72 r \$0-reset;
#X msg 295 94 reset bang;
#X obj 295 115 s \$0-seq-messages;
#X obj 44 156 f.util.controlparse \$2 \$1 seqtimebase;
#N canvas 175 334 450 300 SEQTIMEBASE___ 0;
#X msg 53 98 \$1;
#X msg 168 226 timebase \$1;
#X obj 168 247 s \$0-seq-messages;
#X obj 168 185 i;
#X obj 53 119 / 8;
#X obj 168 206 clip 1 8;
#X obj 168 165 * 8;
#X obj 53 144 f.seq.automater \$0 \$0-seq-time-base 0.5;
#X obj 53 22 inlet;
#X obj 53 73 route float;
#X connect 0 0 4 0;
#X connect 1 0 2 0;
#X connect 3 0 5 0;
#X connect 4 0 7 0;
#X connect 5 0 1 0;
#X connect 6 0 3 0;
#X connect 7 1 6 0;
#X connect 8 0 9 0;
#X connect 9 0 0 0;
#X connect 9 1 7 0;
#X restore 277 156 pd SEQTIMEBASE___;
#X obj 44 204 f.util.controlparse \$2 \$1 seqlength;
#N canvas 0 23 328 307 SEQLENGTH___ 0;
#X obj 53 22 inlet;
#X obj 53 73 route float;
#X obj 160 180 i;
#X msg 160 220 seqlength \$1;
#X obj 160 241 s \$0-seq-messages;
#X obj 53 108 / 64;
#X obj 160 159 * 64;
#X obj 53 137 f.seq.automater \$0 \$0-seq-length 1 1;
#X obj 160 201 clip 1 64;
#X connect 0 0 1 0;
#X connect 1 0 5 0;
#X connect 1 1 7 0;
#X connect 2 0 8 0;
#X connect 3 0 4 0;
#X connect 5 0 7 0;
#X connect 6 0 2 0;
#X connect 7 1 6 0;
#X connect 8 0 3 0;
#X restore 265 205 pd SEQLENGTH___;
#N canvas 0 25 262 310 SEQON________________________ 0;
#X obj 53 20 inlet;
#X obj 179 269 outlet;
#X obj 53 148 s \$0-seq-messages;
#X msg 53 127 seqon \$1;
#X obj 53 104 f.seq.automater \$0 \$0-seq-on 0 0;
#X obj 53 61 route seqon\$1;
#X connect 0 0 5 0;
#X connect 3 0 2 0;
#X connect 4 0 3 0;
#X connect 5 0 4 0;
#X connect 5 1 1 0;
#X restore 44 83 pd SEQON________________________;
#N canvas 0 25 262 310 SEQWRITE_____________________ 0;
#X obj 53 220 s \$0-seq-messages;
#X msg 53 199 seqwrite \$1 \$2;
#X obj 53 153 list;
#X obj 53 109 fudiformat;
#X obj 53 130 fudiparse;
#X msg 53 174 \$1 \$2;
#X obj 53 20 inlet;
#X obj 53 61 route seqwrite\$1;
#X obj 179 269 outlet;
#X connect 1 0 0 0;
#X connect 2 0 5 0;
#X connect 3 0 4 0;
#X connect 4 0 2 0;
#X connect 5 0 1 0;
#X connect 6 0 7 0;
#X connect 7 0 3 0;
#X connect 7 1 8 0;
#X restore 44 128 pd SEQWRITE_____________________;
#N canvas 0 23 299 341 SEQRANDOMADD___ 0;
#X obj 53 22 inlet;
#X msg 53 252 randomadd \$1;
#X obj 53 273 s \$0-seq-messages;
#X obj 77 231 s seq-messages-\$1;
#X msg 77 210 seqrandomadd \$1;
#X obj 53 73 unpack f f;
#X obj 116 183 s \$0-seq-messages;
#X obj 146 137 s seq-messages-\$1;
#X msg 116 162 randomdrop \$1;
#X msg 146 116 seqrandomdrop \$1;
#X obj 146 62 r \$1-reset;
#X msg 146 83 0;
#X connect 0 0 5 0;
#X connect 1 0 2 0;
#X connect 4 0 3 0;
#X connect 5 0 1 0;
#X connect 5 0 4 0;
#X connect 5 1 9 0;
#X connect 5 1 8 0;
#X connect 8 0 6 0;
#X connect 9 0 7 0;
#X connect 10 0 11 0;
#X connect 11 0 9 0;
#X connect 11 0 8 0;
#X connect 11 0 4 0;
#X connect 11 0 1 0;
#X restore 222 283 pd SEQRANDOMADD___;
#X obj 44 306 f.util.controlparse \$2 \$1 seqrandomvelocity;
#N canvas 0 23 348 225 SEQRANDOMVEL___ 0;
#X obj 53 22 inlet;
#X obj 53 73 route float;
#X obj 53 130 s \$0-seq-random-vel;
#X obj 53 109 f.seq.automater \$0 \$0-seq-random-vel;
#X connect 0 0 1 0;
#X connect 1 0 3 0;
#X connect 1 1 3 0;
#X connect 3 0 2 0;
#X restore 314 306 pd SEQRANDOMVEL___;
#N canvas 0 25 450 300 UNUSED___ 0;
#X msg 91 81 seqinvert \$1;
#X obj 91 102 s \$0-seq-messages;
#X obj 91 61 f.seq.automater \$0 \$0-seq-inv;
#X connect 0 0 1 0;
#X connect 2 0 0 0;
#X restore 399 479 pd UNUSED___;
#N canvas 0 23 348 225 SEQSWING___ 0;
#X obj 53 22 inlet;
#X obj 53 73 route float;
#X msg 53 130 swing \$1;
#X obj 53 151 s \$0-seq-messages;
#X obj 53 109 f.seq.automater \$0 \$0-seq-swing;
#X connect 0 0 1 0;
#X connect 1 0 4 0;
#X connect 1 1 4 0;
#X connect 2 0 3 0;
#X connect 4 0 2 0;
#X restore 258 331 pd SEQSWING___;
#X obj 44 331 f.util.controlparse \$2 \$1 seqswing;
#X obj 44 355 f.util.controlparse \$2 \$1 seqdelay;
#X obj 44 379 f.util.controlparse \$2 \$1 seqwarp;
#N canvas 386 25 262 310 SEQASYNC_____________________ 0;
#X obj 53 20 inlet;
#X obj 179 269 outlet;
#X msg 53 119 beatsync \$1;
#X obj 53 140 s \$0-seq-messages;
#X obj 53 61 route seqasync\$1;
#X obj 53 97 f.seq.automater \$0 \$0-seqasync 0;
#X connect 0 0 4 0;
#X connect 2 0 3 0;
#X connect 4 0 5 0;
#X connect 4 1 1 0;
#X connect 5 0 2 0;
#X restore 44 105 pd SEQASYNC_____________________;
#X obj 44 402 f.util.controlparse \$2 \$1 seqtrigger;
#N canvas 0 25 336 275 SEQTRIGGER_____ 0;
#X obj 53 22 inlet;
#X obj 53 73 route float;
#X obj 53 222 s \$0-seq-trigger;
#X obj 53 182 change;
#X obj 53 202 sel 0;
#X obj 53 162 spigot;
#X obj 86 120 r \$0-seq-messages;
#X obj 86 141 route seqon;
#X obj 53 99 f.seq.automater \$0 \$0-seq-trigger 0 1;
#X connect 0 0 1 0;
#X connect 1 0 8 0;
#X connect 1 1 8 0;
#X connect 3 0 4 0;
#X connect 4 1 2 0;
#X connect 5 0 3 0;
#X connect 6 0 7 0;
#X connect 7 0 5 1;
#X connect 8 0 5 0;
#X restore 272 402 pd SEQTRIGGER_____;
#N canvas 0 23 348 225 SEQWARP___ 0;
#X obj 53 22 inlet;
#X obj 53 73 route float;
#X msg 53 126 warp \$1;
#X obj 53 147 s \$0-seq-messages;
#X obj 53 105 f.seq.automater \$0 \$0-seq-warp;
#X connect 0 0 1 0;
#X connect 1 0 4 0;
#X connect 1 1 4 0;
#X connect 2 0 3 0;
#X connect 4 0 2 0;
#X restore 252 379 pd SEQWARP___;
#N canvas 0 23 348 225 SEQDELAY___ 0;
#X obj 53 22 inlet;
#X obj 53 65 route float;
#X obj 53 112 pow 2.7;
#X obj 53 133 * 100;
#X msg 53 174 delay \$1;
#X obj 53 195 s \$0-seq-messages;
#X obj 53 91 f.seq.automater \$0 \$0-seq-delay;
#X obj 53 154 i;
#X connect 0 0 1 0;
#X connect 1 0 6 0;
#X connect 1 1 6 0;
#X connect 2 0 3 0;
#X connect 3 0 7 0;
#X connect 4 0 5 0;
#X connect 6 0 2 0;
#X connect 7 0 4 0;
#X restore 258 354 pd SEQDELAY___;
#X obj 44 250 f.util.oscformatxy \$2 \$1 seqrandomadddrop seqrandomadd 0 0 1 seqrandomdrop 0 0 1;
#X obj 44 423 f.util.oscformatxy \$0 \$1 flamspreadhits flamspread 0 0 1.4 flamhits 0 0 1.4;
#X obj 44 226 f.util.controlparse \$2 \$1 seqrest;
#N canvas 0 38 328 307 SEQREST_____ 0;
#X obj 53 22 inlet;
#X obj 53 53 route float;
#X obj 159 180 i;
#X obj 159 241 s \$0-seq-messages;
#X obj 53 108 / 7;
#X obj 159 159 * 7;
#X msg 159 220 seqrest \$1;
#X obj 53 137 f.seq.automater \$0 \$0-seq-rest 0;
#X obj 159 201 + 1;
#X obj 53 79 i;
#X connect 0 0 1 0;
#X connect 1 0 9 0;
#X connect 1 1 7 0;
#X connect 2 0 8 0;
#X connect 4 0 7 0;
#X connect 5 0 2 0;
#X connect 6 0 3 0;
#X connect 7 1 5 0;
#X connect 8 0 6 0;
#X connect 9 0 4 0;
#X restore 265 227 pd SEQREST_____;
#X obj 44 180 f.util.controlparse \$2 \$1 seqtimebasemultiply;
#N canvas 0 38 555 485 SEQTIMEBASEMULTIPLY__ 0;
#X obj 53 22 inlet;
#X obj 53 73 route float;
#X obj 210 422 s \$0-seq-messages;
#X obj 210 271 i;
#X obj 210 382 clip 0 5;
#X obj 210 250 * 6;
#X obj 53 102 sel 0.25 0.5 1 2 3 4;
#X msg 53 128 1;
#X msg 82 128 2;
#X msg 110 126 3;
#X msg 140 128 4;
#X msg 166 127 5;
#X msg 201 127 6;
#X obj 53 159 t a;
#X obj 53 180 / 6;
#X obj 210 351 t a;
#X obj 210 294 sel 1 2 3 4 5 6;
#X msg 210 320 0.25;
#X msg 239 320 0.5;
#X msg 267 318 1;
#X msg 297 320 2;
#X msg 323 319 3;
#X msg 358 319 4;
#X obj 53 226 f.seq.automater \$0 \$0-seq-time-base-multiply 0.5 0;
#X msg 210 401 timebasemultiply \$1;
#X connect 0 0 1 0;
#X connect 1 0 6 0;
#X connect 1 1 23 0;
#X connect 3 0 16 0;
#X connect 4 0 24 0;
#X connect 5 0 3 0;
#X connect 6 0 7 0;
#X connect 6 1 8 0;
#X connect 6 2 9 0;
#X connect 6 3 10 0;
#X connect 6 4 11 0;
#X connect 6 5 12 0;
#X connect 7 0 13 0;
#X connect 8 0 13 0;
#X connect 9 0 13 0;
#X connect 10 0 13 0;
#X connect 11 0 13 0;
#X connect 12 0 13 0;
#X connect 13 0 14 0;
#X connect 14 0 23 0;
#X connect 15 0 4 0;
#X connect 16 0 17 0;
#X connect 16 1 18 0;
#X connect 16 2 19 0;
#X connect 16 3 20 0;
#X connect 16 4 21 0;
#X connect 16 5 22 0;
#X connect 17 0 15 0;
#X connect 18 0 15 0;
#X connect 19 0 15 0;
#X connect 20 0 15 0;
#X connect 21 0 15 0;
#X connect 22 0 15 0;
#X connect 23 1 5 0;
#X connect 24 0 2 0;
#X restore 335 181 pd SEQTIMEBASEMULTIPLY__;
#X connect 0 0 9 0;
#X connect 2 0 3 0;
#X connect 3 0 4 0;
#X connect 5 0 28 0;
#X connect 5 1 6 0;
#X connect 7 0 26 0;
#X connect 7 1 8 0;
#X connect 9 0 19 0;
#X connect 10 0 5 0;
#X connect 12 0 16 0;
#X connect 12 1 13 0;
#X connect 16 0 17 0;
#X connect 16 1 15 0;
#X connect 17 0 18 0;
#X connect 17 1 23 0;
#X connect 18 0 20 0;
#X connect 18 1 22 0;
#X connect 19 0 10 0;
#X connect 20 0 25 0;
#X connect 20 1 21 0;
#X connect 24 0 12 0;
#X connect 24 1 11 0;
#X connect 25 0 1 0;
#X connect 26 0 24 0;
#X connect 26 1 27 0;
#X connect 28 0 7 0;
#X connect 28 1 29 0;
#X restore 41 127 pd SEQ___________________;
#N canvas 854 481 355 397 ADSR_VEL_TRIG_________ 0;
#X obj 37 17 inlet;
#X obj 37 347 outlet;
#X obj 37 63 f.util.oscformat \$0 \$1 adsron 0;
#N canvas 303 286 370 384 KEYBOARD___ 0;
#X obj 50 24 inlet;
#X obj 50 165 stripnote;
#X obj 50 135 unpack f f;
#X obj 89 206 s \$0-one-bang;
#X obj 50 186 t f b b;
#X obj 138 115 s \$0-clear;
#X obj 69 226 s \$0-timer;
#X obj 50 247 s \$0-midi-note;
#X obj 50 89 route keyboard\$1 recordclear\$1;
#X obj 227 322 outlet;
#N canvas 0 25 671 631 QLIST_GUBBINS 0;
#X obj 253 537 qlist;
#X obj 342 280 timer;
#X obj 415 215 f.util.onebang;
#X msg 415 281 clear;
#X msg 311 278 -1;
#X msg 280 461 rewind;
#X msg 345 513 tempo 1;
#X obj 49 67 r \$0-key-seq;
#X obj 311 301 pack f f \$0;
#X msg 311 324 add \$2 \$3-key-seq \$1;
#X obj 49 88 sel -1;
#X obj 240 80 r automateRecord;
#X obj 240 101 sel 1 0;
#X msg 319 201 1;
#X obj 286 225 spigot;
#X obj 259 145 t b b;
#X msg 259 166 0;
#X obj 226 312 r link;
#X obj 226 333 i;
#X obj 226 354 change;
#X msg 286 396 1;
#X obj 253 418 spigot;
#X obj 226 375 t b b;
#X msg 226 396 0;
#X obj 253 439 t b b;
#X obj 115 177 spigot;
#X obj 148 153 r automateRecord;
#X obj 286 255 t b b b;
#X obj 342 246 t b b;
#X obj 439 258 r resetGlobal;
#X obj 116 131 * 12;
#X obj 101 151 +;
#X obj 116 108 r \$0-transposition;
#X obj 101 246 s \$0-to-freq;
#X obj 101 225 / 132;
#X obj 101 203 f;
#X obj 311 347 s \$0-to-qlist;
#X obj 253 512 r \$0-to-qlist;
#X obj 415 302 s \$0-to-qlist;
#X obj 253 481 s \$0-to-qlist;
#X obj 280 558 s \$0-qlist-done;
#X obj 294 375 r \$0-qlist-done;
#X obj 319 180 t b;
#X obj 415 171 r \$0-one-bang;
#X obj 428 239 r \$0-clear;
#X obj 240 124 s \$0-one-bang-reset;
#X obj 496 191 r \$0-one-bang-reset;
#X obj 342 224 r \$0-timer;
#X obj 101 88 r \$0-midi-note;
#X obj 319 158 r \$0-midi-note;
#X connect 0 1 40 0;
#X connect 1 0 8 1;
#X connect 2 0 3 0;
#X connect 2 0 1 0;
#X connect 3 0 38 0;
#X connect 4 0 8 0;
#X connect 5 0 39 0;
#X connect 6 0 0 0;
#X connect 7 0 10 0;
#X connect 8 0 9 0;
#X connect 9 0 36 0;
#X connect 10 1 35 0;
#X connect 11 0 12 0;
#X connect 12 0 45 0;
#X connect 12 1 15 0;
#X connect 13 0 14 1;
#X connect 14 0 27 0;
#X connect 15 0 16 0;
#X connect 15 1 14 0;
#X connect 16 0 14 1;
#X connect 17 0 18 0;
#X connect 18 0 19 0;
#X connect 19 0 22 0;
#X connect 20 0 21 1;
#X connect 21 0 24 0;
#X connect 22 0 23 0;
#X connect 22 1 21 0;
#X connect 23 0 21 1;
#X connect 24 0 39 0;
#X connect 24 1 5 0;
#X connect 25 0 8 0;
#X connect 26 0 25 1;
#X connect 27 0 20 0;
#X connect 27 1 4 0;
#X connect 27 2 1 1;
#X connect 28 0 1 0;
#X connect 28 1 1 1;
#X connect 29 0 3 0;
#X connect 30 0 31 1;
#X connect 31 0 25 0;
#X connect 31 0 35 0;
#X connect 32 0 30 0;
#X connect 34 0 33 0;
#X connect 35 0 34 0;
#X connect 37 0 0 0;
#X connect 41 0 20 0;
#X connect 42 0 13 0;
#X connect 43 0 2 0;
#X connect 44 0 3 0;
#X connect 46 0 2 1;
#X connect 47 0 28 0;
#X connect 48 0 31 0;
#X connect 49 0 42 0;
#X restore 49 273 pd QLIST_GUBBINS;
#X text 160 271 <- records keyboard performance;
#X connect 0 0 8 0;
#X connect 1 0 4 0;
#X connect 2 0 1 0;
#X connect 2 1 1 1;
#X connect 4 0 7 0;
#X connect 4 1 6 0;
#X connect 4 2 3 0;
#X connect 8 0 2 0;
#X connect 8 1 5 0;
#X connect 8 2 9 0;
#X restore 37 274 pd KEYBOARD___;
#N canvas 0 58 354 414 KEYBOARD_TRANSPOSE___ 0;
#X obj 55 176 i;
#X obj 55 197 + 1;
#X obj 55 155 t b f;
#X obj 55 218 clip -3 4;
#X obj 55 263 oscformat transposition\$1;
#X obj 55 288 s to-o-s-c-interface;
#X obj 64 240 s \$0-transposition;
#X obj 55 28 inlet;
#X obj 55 67 route transposeup\$1 transposedown\$1;
#X msg 55 89 1;
#X msg 158 88 -1;
#X obj 55 124 i;
#X obj 274 343 outlet;
#X connect 0 0 1 0;
#X connect 1 0 3 0;
#X connect 2 0 0 0;
#X connect 2 1 1 1;
#X connect 3 0 0 1;
#X connect 3 0 6 0;
#X connect 3 0 4 0;
#X connect 4 0 5 0;
#X connect 7 0 8 0;
#X connect 8 0 9 0;
#X connect 8 1 10 0;
#X connect 8 2 12 0;
#X connect 9 0 11 0;
#X connect 10 0 11 0;
#X connect 11 0 2 0;
#X restore 37 294 pd KEYBOARD_TRANSPOSE___;
#X obj 37 84 f.util.oscformat \$0 \$1 attack 0 0 3.5;
#X obj 37 105 f.util.oscformat \$0 \$1 decay 0 0 3.1;
#X obj 37 126 f.util.oscformat \$0 \$1 sustain 0;
#X obj 37 147 f.util.oscformat \$0 \$1 release 0 0 3.1;
#X obj 37 168 f.util.oscformat \$0 \$1 polyphonic 0;
#X obj 37 189 f.util.oscformat \$0 \$1 velocity 0 0 2.7;
#X obj 37 210 f.util.oscformat \$0 \$1 threshold 1;
#N canvas 0 25 238 250 CHORDSIZE 0;
#X obj 37 37 inlet;
#X obj 37 156 s \$0-chord-size;
#X msg 51 135 1;
#X obj 51 113 r \$0-reset;
#X obj 37 88 route chordsize\$1;
#X obj 146 218 outlet;
#X connect 0 0 4 0;
#X connect 2 0 1 0;
#X connect 3 0 2 0;
#X connect 4 0 1 0;
#X connect 4 1 5 0;
#X restore 37 253 pd CHORDSIZE;
#N canvas 0 25 327 314 TRIGGERX_________ 0;
#X obj 57 66 route triggerx\$1;
#X obj 57 87 sel 1;
#X obj 57 45 inlet;
#X obj 190 270 outlet;
#X obj 57 108 \$1;
#X msg 57 131 triggerx\$1 bang;
#X obj 57 152 s to-faust-\$2;
#X connect 0 0 1 0;
#X connect 0 1 3 0;
#X connect 1 0 4 0;
#X connect 2 0 0 0;
#X connect 4 0 5 0;
#X connect 5 0 6 0;
#X restore 37 231 pd TRIGGERX_________;
#X connect 0 0 2 0;
#X connect 2 0 5 0;
#X connect 3 0 4 0;
#X connect 4 0 1 0;
#X connect 5 0 6 0;
#X connect 6 0 7 0;
#X connect 7 0 8 0;
#X connect 8 0 9 0;
#X connect 9 0 10 0;
#X connect 10 0 11 0;
#X connect 11 0 13 0;
#X connect 12 0 3 0;
#X connect 13 0 12 0;
#X restore 41 105 pd ADSR_VEL_TRIG_________;
#N canvas 509 428 411 420 GEN_EUC_______________ 0;
#X obj 38 29 inlet;
#X obj 296 392 outlet;
#X obj 38 353 s \$0-gen-on-off;
#X obj 38 331 f.seq.automater \$0 genonoff\$1 0;
#N canvas 348 423 414 353 GENRANGE_______ 0;
#X obj 84 221 s \$0-gen-range;
#X obj 85 95 / 24;
#X obj 84 142 * 24;
#X obj 84 161 i;
#X obj 84 202 change;
#X obj 84 121 f.seq.automater \$0 genrange\$1 0.0417;
#X obj 84 182 clip 1 24;
#X obj 190 147 * 24;
#X obj 190 252 s \$1-gen-messages;
#X msg 190 230 genrange \$1;
#X obj 190 166 i;
#X obj 190 207 change;
#X obj 190 187 clip 1 24;
#X obj 85 13 inlet;
#X obj 305 301 outlet reject;
#X obj 85 59 route float;
#X connect 1 0 5 0;
#X connect 2 0 3 0;
#X connect 3 0 6 0;
#X connect 4 0 0 0;
#X connect 5 0 2 0;
#X connect 5 1 7 0;
#X connect 6 0 4 0;
#X connect 7 0 10 0;
#X connect 9 0 8 0;
#X connect 10 0 12 0;
#X connect 11 0 9 0;
#X connect 12 0 11 0;
#X connect 13 0 15 0;
#X connect 15 0 1 0;
#X connect 15 1 5 0;
#X restore 252 89 pd GENRANGE_______;
#X obj 38 89 f.util.controlparse \$2 \$1 genrange;
#X obj 38 115 f.util.controlparse \$2 \$1 genstepsize;
#X obj 38 146 f.util.controlparse \$2 \$1 gendirection;
#X obj 38 175 f.util.controlparse \$2 \$1 genrepeat;
#N canvas 116 367 350 319 GENSTEPSIZE____ 0;
#X obj 65 23 inlet;
#X obj 65 69 route float;
#X obj 65 172 i;
#X obj 65 151 * 8;
#X obj 65 106 / 8;
#X obj 65 236 s \$0-gen-step-size;
#X obj 65 213 change;
#X obj 65 131 f.seq.automater \$0 genstepsize\$1 0.125;
#X obj 65 193 clip 1 8;
#X obj 191 173 i;
#X obj 191 152 * 8;
#X obj 191 257 s \$1-gen-messages;
#X msg 191 235 gensteps \$1;
#X obj 191 214 change;
#X obj 191 194 clip 1 8;
#X connect 0 0 1 0;
#X connect 1 0 4 0;
#X connect 1 1 7 0;
#X connect 2 0 8 0;
#X connect 3 0 2 0;
#X connect 4 0 7 0;
#X connect 6 0 5 0;
#X connect 7 0 3 0;
#X connect 7 1 10 0;
#X connect 8 0 6 0;
#X connect 9 0 14 0;
#X connect 10 0 9 0;
#X connect 12 0 11 0;
#X connect 13 0 12 0;
#X connect 14 0 13 0;
#X restore 269 114 pd GENSTEPSIZE____;
#N canvas 43 40 350 208 GENDIRECTION___ 0;
#X obj 65 23 inlet;
#X obj 65 69 route float;
#N canvas 0 38 280 223 GEN-MAPPING 0;
#X obj 61 33 inlet;
#X obj 61 172 s \$0-gen-direction;
#X msg 74 130 gendirection \$1;
#X obj 74 151 s \$1-gen-messages;
#X obj 61 55 * 3;
#X obj 61 76 i;
#X obj 61 96 change;
#X connect 0 0 4 0;
#X connect 2 0 3 0;
#X connect 4 0 5 0;
#X connect 5 0 6 0;
#X connect 6 0 2 0;
#X connect 6 0 1 0;
#X restore 65 141 pd GEN-MAPPING;
#X obj 65 120 f.seq.automater \$0 gendirection\$1 0.25;
#X obj 65 91 / 3;
#X connect 0 0 1 0;
#X connect 1 0 4 0;
#X connect 1 1 3 0;
#X connect 3 0 2 0;
#X connect 3 1 2 0;
#X connect 4 0 3 0;
#X restore 274 145 pd GENDIRECTION___;
#N canvas 347 40 350 278 GENREPEAT______ 0;
#X obj 65 23 inlet;
#X obj 65 63 route float;
#X obj 65 250 s \$0-gen-repeat;
#X obj 65 89 / 8;
#X obj 65 140 * 8;
#X msg 75 207 genrepeat \$1;
#X obj 75 228 s \$1-gen-messages;
#X obj 65 113 f.seq.automater \$0 genrepeat\$1 0.125;
#X obj 65 161 i;
#X obj 65 181 change;
#X connect 0 0 1 0;
#X connect 1 0 3 0;
#X connect 1 1 7 0;
#X connect 3 0 7 0;
#X connect 4 0 8 0;
#X connect 5 0 6 0;
#X connect 7 0 4 0;
#X connect 7 1 4 0;
#X connect 8 0 9 0;
#X connect 9 0 2 0;
#X connect 9 0 5 0;
#X restore 257 175 pd GENREPEAT______;
#X obj 38 229 route genonoff\$1 chordsize\$1;
#X obj 129 258 r \$1-reset;
#X msg 129 279 1;
#X obj 120 301 s \$0-chord-size;
#X obj 38 202 f.util.controlparse \$2 \$1 chordsize;
#N canvas 125 71 350 278 CHORDSIZE_____ 0;
#X obj 65 23 inlet;
#X obj 65 63 route float;
#X obj 65 161 i;
#X obj 65 201 change;
#X obj 65 228 s \$0-chord-size;
#X obj 65 113 f.seq.automater \$0 chordsize\$1 0.125;
#X msg 177 209 chordsize \$1;
#X obj 177 230 s \$1-gen-messages;
#X obj 65 182 + 1;
#X obj 65 89 / 7;
#X obj 65 140 * 7;
#X connect 0 0 1 0;
#X connect 1 0 9 0;
#X connect 1 1 5 0;
#X connect 2 0 8 0;
#X connect 3 0 4 0;
#X connect 3 0 6 0;
#X connect 5 0 10 0;
#X connect 5 1 10 0;
#X connect 6 0 7 0;
#X connect 8 0 3 0;
#X connect 9 0 5 0;
#X connect 10 0 2 0;
#X restore 257 202 pd CHORDSIZE_____;
#X connect 0 0 5 0;
#X connect 3 0 2 0;
#X connect 5 0 6 0;
#X connect 5 1 4 0;
#X connect 6 0 7 0;
#X connect 6 1 9 0;
#X connect 7 0 8 0;
#X connect 7 1 10 0;
#X connect 8 0 16 0;
#X connect 8 1 11 0;
#X connect 12 0 3 0;
#X connect 12 2 1 0;
#X connect 13 0 14 0;
#X connect 14 0 15 0;
#X connect 16 0 12 0;
#X connect 16 1 17 0;
#X restore 41 84 pd GEN_EUC_______________;
#N canvas 162 528 242 315 SEQUENCER_BEAT________ 0;
#X obj 74 63 r \$0-seq-messages;
#X obj 65 108 f.seq.sequencer;
#X obj 65 12 r link;
#X obj 83 85 s seq-messages-\$1;
#X obj 65 222 f \$1;
#X msg 65 246 formuls\$1 triggerx bang;
#N canvas 0 23 262 300 CHORDSIZE___ 0;
#X obj 67 23 inlet;
#X obj 67 263 outlet;
#X obj 106 103 r \$0-chord-size;
#X obj 67 81 i;
#X obj 93 81 + 1;
#X msg 160 206 0;
#X obj 67 186 t b b;
#X obj 67 146 moses 0;
#X obj 133 183 t b b;
#X obj 106 124 - 0;
#X obj 94 207 del 4;
#X connect 0 0 3 0;
#X connect 2 0 9 0;
#X connect 3 0 4 0;
#X connect 3 0 7 0;
#X connect 4 0 3 1;
#X connect 5 0 3 1;
#X connect 6 0 1 0;
#X connect 6 1 10 0;
#X connect 7 0 6 0;
#X connect 7 1 8 0;
#X connect 8 0 1 0;
#X connect 8 1 5 0;
#X connect 9 0 7 1;
#X connect 10 0 3 0;
#X restore 65 186 pd CHORDSIZE___;
#N canvas 0 25 346 233 SEQPOS_LED___ 0;
#X obj 70 150 s to-o-s-c-interface;
#X obj 70 44 inlet;
#X obj 70 119 oscformat seqpos\$1;
#X obj 70 93 + 1;
#X connect 1 0 3 0;
#X connect 2 0 0 0;
#X connect 3 0 2 0;
#X restore 108 132 pd SEQPOS_LED___;
#X obj 105 215 s \$0-value-send;
#X obj 87 165 s \$2-value-send;
#X obj 65 271 s to-faust-\$1;
#X msg 65 33 beat \$1;
#X connect 0 0 1 0;
#X connect 0 0 3 0;
#X connect 1 0 6 0;
#X connect 1 0 9 0;
#X connect 1 1 7 0;
#X connect 2 0 11 0;
#X connect 4 0 5 0;
#X connect 5 0 10 0;
#X connect 6 0 4 0;
#X connect 6 0 8 0;
#X connect 11 0 1 0;
#X restore 41 275 pd SEQUENCER_BEAT________;
#N canvas 39 550 837 493 ACT_TRIG_CHAOSTRIG____ 0;
#X obj 30 8 inlet;
#X obj 172 84 s chaostrig\$1;
#X obj 101 84 s trig\$1;
#X obj 30 84 s act\$1;
#X obj 55 29 r automater-out-\$1;
#X obj 775 448 outlet;
#X obj 272 84 s reverse\$1;
#X obj 30 49 route actglobal\$1 trigglobal\$1 chaostrigglobal\$1 reverseglobal\$1;
#X obj 129 191 t b f;
#X obj 94 226 expr $f1 + $f2 + $f3 + $f4;
#X obj 94 250 >= 1;
#X obj 173 190 t b f;
#X obj 218 193 t b f;
#X obj 94 279 sel 0 1;
#X msg 113 301 symbol true;
#X msg 94 323 symbol false;
#X obj 94 350 oscformat modeselector\$1;
#X obj 618 118 sel 0 1;
#X msg 637 140 symbol true;
#X msg 618 162 symbol false;
#X obj 618 189 oscformat moddepth\$1;
#X obj 618 217 s \$1-message-collect;
#X obj 541 228 sel 0 1;
#X msg 560 250 symbol true;
#X msg 541 272 symbol false;
#X obj 464 105 sel 0 1;
#X msg 483 127 symbol true;
#X msg 464 149 symbol false;
#X obj 464 204 s \$1-message-collect;
#X obj 464 176 oscformat lfodepth\$1;
#X obj 387 222 sel 0 1;
#X msg 406 244 symbol true;
#X msg 387 266 symbol false;
#X obj 387 293 oscformat lfofreq\$1;
#X obj 387 66 route lfofreqglobal\$1 lfodepthglobal\$1 chaosglobal\$1 moddepthglobal\$1 modglobal\$1;
#X obj 682 238 sel 0 1;
#X msg 701 260 symbol true;
#X msg 682 282 symbol false;
#X obj 682 309 oscformat mod\$1;
#X obj 387 321 s to-o-s-c-interface;
#X obj 541 327 s to-o-s-c-interface;
#X obj 682 337 s to-o-s-c-interface;
#X obj 94 381 s to-o-s-c-interface;
#X obj 541 299 oscformat chaos\$1;
#X connect 0 0 7 0;
#X connect 4 0 7 0;
#X connect 7 0 3 0;
#X connect 7 0 9 0;
#X connect 7 1 2 0;
#X connect 7 1 8 0;
#X connect 7 2 1 0;
#X connect 7 2 11 0;
#X connect 7 3 6 0;
#X connect 7 3 12 0;
#X connect 7 4 34 0;
#X connect 8 0 9 0;
#X connect 8 1 9 1;
#X connect 9 0 10 0;
#X connect 10 0 13 0;
#X connect 11 0 9 0;
#X connect 11 1 9 2;
#X connect 12 0 9 0;
#X connect 12 1 9 3;
#X connect 13 0 15 0;
#X connect 13 1 14 0;
#X connect 14 0 16 0;
#X connect 15 0 16 0;
#X connect 16 0 42 0;
#X connect 17 0 19 0;
#X connect 17 1 18 0;
#X connect 18 0 20 0;
#X connect 19 0 20 0;
#X connect 20 0 21 0;
#X connect 22 0 24 0;
#X connect 22 1 23 0;
#X connect 23 0 43 0;
#X connect 24 0 43 0;
#X connect 25 0 27 0;
#X connect 25 1 26 0;
#X connect 26 0 29 0;
#X connect 27 0 29 0;
#X connect 29 0 28 0;
#X connect 30 0 32 0;
#X connect 30 1 31 0;
#X connect 31 0 33 0;
#X connect 32 0 33 0;
#X connect 33 0 39 0;
#X connect 34 0 30 0;
#X connect 34 1 25 0;
#X connect 34 2 22 0;
#X connect 34 3 17 0;
#X connect 34 4 35 0;
#X connect 34 5 5 0;
#X connect 35 0 37 0;
#X connect 35 1 36 0;
#X connect 36 0 38 0;
#X connect 37 0 38 0;
#X connect 38 0 41 0;
#X connect 43 0 40 0;
#X restore 41 214 pd ACT_TRIG_CHAOSTRIG____;
#N canvas 130 266 425 403 OSC_FM__NOISE_________ 0;
#X obj 17 10 inlet;
#X obj 17 366 outlet;
#X obj 17 131 f.util.oscformat \$0 \$1 extmodulation 0 0 2.7;
#N canvas 0 25 283 344 FREQSNAP________________________________ 0;
#X obj 56 81 loadbang;
#X msg 56 143 0;
#X obj 63 100 r \$0-reset;
#X obj 63 121 del 50;
#X obj 57 165 oscformat freqsnap\$1;
#X obj 57 186 s to-o-s-c-interface;
#X obj 46 15 inlet;
#X obj 46 56 route freqsnap\$1;
#X obj 191 295 outlet;
#X obj 46 205 s \$0-osc-freq-snap;
#X connect 0 0 1 0;
#X connect 1 0 4 0;
#X connect 1 0 9 0;
#X connect 2 0 3 0;
#X connect 3 0 1 0;
#X connect 4 0 5 0;
#X connect 6 0 7 0;
#X connect 7 0 9 0;
#X connect 7 1 8 0;
#X restore 17 110 pd FREQSNAP________________________________;
#X obj 17 184 f.util.oscformatxy \$0 \$1 fmfreqdepth fmfreq 0 8 1 fmdepth 0 8 1;
#X text 302 245 or 4.2;
#N canvas 988 38 689 947 OSCFREQWAVE_____________________________ 0;
#X obj 87 18 inlet;
#X obj 87 572 unpack f f;
#X obj 150 738 r xglobal;
#X obj 206 638 r yglobal;
#X obj 87 760 f.util.switch;
#X obj 144 658 f.util.switch;
#N canvas 1313 330 430 567 OP1FREQ_PITCH_QUANTISE 0;
#N canvas 66 438 337 312 FREQ_SNAP_NOTE_GEN__ 0;
#X obj 62 119 mtof;
#X obj 62 97 t f f;
#X obj 62 20 inlet;
#X obj 62 268 outlet;
#N canvas 1050 242 390 613 NOTE_SNAP 0;
#X obj 51 17 inlet;
#X obj 51 546 outlet;
#X obj 157 256 +;
#X obj 138 135 r \$0-value-send;
#X obj 78 116 t f f;
#X obj 138 156 t b b b;
#X obj 157 290 f.util.keyselector \$0;
#X obj 157 334 spigot;
#X msg 96 417 0;
#X obj 96 396 sel 1 0;
#X obj 124 417 del 50;
#X msg 124 438 1;
#X obj 96 460 t a;
#X obj 96 375 r \$0-\$1-reset;
#X obj 51 482 spigot 1;
#N canvas 0 25 450 300 PITCH_LENGTH_CALCULATE 0;
#X text 104 133 <- "* 11": total number of octaves covered by the pitch range;
#X text 87 161 <- total number of pitches covered by the 11 octave pitch range;
#X obj 41 135 f;
#X obj 41 30 inlet;
#X obj 41 236 outlet;
#X obj 41 155 * 132;
#X obj 63 60 r pitch-gamut-length;
#X obj 82 112 * 11;
#X obj 63 81 t b f;
#X connect 2 0 5 0;
#X connect 3 0 2 0;
#X connect 5 0 4 0;
#X connect 6 0 8 0;
#X connect 7 0 5 1;
#X connect 8 0 2 0;
#X connect 8 1 7 0;
#X restore 78 91 pd PITCH_LENGTH_CALCULATE;
#X obj 51 65 t f f;
#N canvas 0 48 318 300 FREQ_SNAP___ 0;
#X obj 58 179 spigot;
#X obj 105 121 spigot;
#X obj 58 158 f;
#X obj 138 93 == 0;
#X obj 58 17 inlet;
#X obj 105 17 inlet;
#X obj 58 253 outlet;
#X obj 58 122 * 132;
#X obj 138 72 r \$0-osc-freq-snap;
#X connect 0 0 6 0;
#X connect 1 0 2 0;
#X connect 2 0 0 0;
#X connect 3 0 0 1;
#X connect 3 0 1 1;
#X connect 4 0 7 0;
#X connect 5 0 1 0;
#X connect 7 0 2 0;
#X connect 8 0 3 0;
#X restore 51 202 pd FREQ_SNAP___;
#N canvas 160 90 303 400 NOTE_GEN______ 0;
#X obj 123 144 r \$0-gen-direction;
#X obj 80 336 outlet;
#X obj 81 23 inlet;
#X obj 95 213 r \$0-gen-invert;
#X obj 95 234 sel 0 1;
#X msg 95 255 1;
#X msg 127 253 -1;
#X obj 80 283 * 1;
#X obj 81 186 f.gen.drunk;
#X obj 81 80 t b;
#X obj 93 103 r \$0-gen-range;
#X obj 133 165 r \$0-gen-repeat;
#X obj 113 123 r \$0-gen-step-size;
#X connect 0 0 8 4;
#X connect 2 0 9 0;
#X connect 3 0 4 0;
#X connect 4 0 5 0;
#X connect 4 1 6 0;
#X connect 5 0 7 1;
#X connect 6 0 7 1;
#X connect 7 0 1 0;
#X connect 8 0 7 0;
#X connect 9 0 8 0;
#X connect 10 0 8 0;
#X connect 11 0 8 5;
#X connect 12 0 8 2;
#X connect 12 0 8 3;
#X restore 180 234 pd NOTE_GEN______;
#X obj 157 212 spigot;
#X obj 157 191 i;
#X obj 190 188 r \$0-osc-freq-snap;
#X obj 190 312 r \$0-osc-freq-snap;
#X connect 0 0 16 0;
#X connect 2 0 6 0;
#X connect 3 0 5 0;
#X connect 4 0 20 0;
#X connect 4 1 6 0;
#X connect 5 0 17 1;
#X connect 5 1 20 0;
#X connect 5 2 18 0;
#X connect 6 0 7 0;
#X connect 7 0 14 0;
#X connect 8 0 12 0;
#X connect 9 0 8 0;
#X connect 9 1 10 0;
#X connect 10 0 11 0;
#X connect 11 0 12 0;
#X connect 12 0 14 1;
#X connect 13 0 9 0;
#X connect 14 0 1 0;
#X connect 15 0 4 0;
#X connect 16 0 17 0;
#X connect 16 1 15 0;
#X connect 17 0 14 0;
#X connect 18 0 2 1;
#X connect 19 0 2 0;
#X connect 20 0 19 0;
#X connect 21 0 19 1;
#X connect 22 0 7 1;
#X restore 62 76 pd NOTE_SNAP;
#X obj 124 168 i;
#X obj 124 270 outlet;
#X obj 124 211 pack f s;
#X msg 124 237 symbol \$2:\$1Hz;
#X obj 169 188 f.util.midi2notename;
#X obj 124 189 change;
#X connect 0 0 3 0;
#X connect 0 0 5 0;
#X connect 1 0 0 0;
#X connect 1 1 9 0;
#X connect 2 0 4 0;
#X connect 4 0 1 0;
#X connect 5 0 10 0;
#X connect 7 0 8 0;
#X connect 8 0 6 0;
#X connect 9 0 7 1;
#X connect 10 0 7 0;
#X restore 31 287 pd FREQ_SNAP_NOTE_GEN__;
#X obj 31 308 pack f \$1;
#X obj 31 15 inlet;
#X obj 84 15 inlet;
#X obj 367 519 outlet;
#X obj 166 330 s to-o-s-c-interface;
#X obj 40 263 r \$0-to-freq;
#X obj 50 405 spigot;
#X msg 83 384 1;
#X msg 50 447 0;
#X obj 50 426 t b b;
#X obj 77 471 \$1;
#X msg 77 490 formuls\$1 triggerx bang;
#X obj 77 448 del 2;
#X obj 31 176 f.util.switch;
#X msg 31 200 \$1 20;
#X obj 31 221 line 0 1;
#X obj 31 242 change;
#X obj 83 365 r \$0-to-freq;
#X obj 83 108 f.util.trigslewmessage \$0;
#X obj 31 517 s to-faust-\$1;
#X msg 31 330 formuls\$2 oscfreq \$1;
#X obj 145 154 r \$0-osc-freq-snap;
#X obj 166 309 oscformat oscpitchgui\$1;
#X obj 31 134 f.seq.automater \$0 \$0-oscfreq 0 0;
#X connect 0 0 1 0;
#X connect 0 1 23 0;
#X connect 1 0 21 0;
#X connect 2 0 24 0;
#X connect 3 0 24 0;
#X connect 6 0 0 0;
#X connect 7 0 10 0;
#X connect 8 0 7 1;
#X connect 9 0 7 1;
#X connect 10 0 9 0;
#X connect 10 1 13 0;
#X connect 11 0 12 0;
#X connect 12 0 20 0;
#X connect 13 0 11 0;
#X connect 14 0 15 0;
#X connect 14 1 0 0;
#X connect 15 0 16 0;
#X connect 16 0 17 0;
#X connect 17 0 0 0;
#X connect 18 0 8 0;
#X connect 19 0 24 0;
#X connect 21 0 7 0;
#X connect 21 0 20 0;
#X connect 22 0 14 1;
#X connect 23 0 5 0;
#X connect 24 0 14 0;
#X connect 24 0 4 0;
#X restore 87 794 pd OP1FREQ_PITCH_QUANTISE;
#X obj 87 910 s \$1-message-collect;
#X obj 87 822 f.util.pak;
#X obj 144 709 f.util.oscformat \$0 \$1 waveshape 0 4;
#X obj 144 595 pack f \$1;
#X msg 144 618 waveshape\$2 \$1;
#X obj 131 479 unpack f f;
#X obj 201 501 pack f \$1;
#X msg 201 524 waveshapechaos\$2 \$1;
#X msg 131 522 chaos \$1;
#X obj 131 500 pow 2.7;
#X obj 176 387 unpack f f;
#X obj 246 407 pack f \$1;
#X msg 176 430 lfofreq \$1;
#X obj 220 302 unpack f f;
#X obj 296 322 pack f \$1;
#X msg 220 345 lfodepth \$1;
#X obj 486 872 outlet;
#X msg 265 240 active \$1;
#X msg 341 241 looptrig \$1;
#X msg 418 241 chaostrig \$1;
#X msg 296 345 waveshapelfodepth\$2 \$1;
#X msg 246 430 waveshapelfofreq\$2 \$1;
#X msg 503 242 reverse \$1;
#X obj 265 219 f.util.xywidgetparse \$1 osc;
#X obj 265 277 s \$0-osc-x;
#X obj 220 366 s \$0-osc-x;
#X obj 176 451 s \$0-osc-x;
#X obj 131 543 s \$0-osc-x;
#X obj 234 771 r \$0-osc-x;
#X obj 418 277 s \$0-osc-y;
#X obj 296 366 s \$0-osc-y;
#X obj 246 451 s \$0-osc-y;
#X obj 201 545 s \$0-osc-y;
#X obj 169 684 r \$0-osc-y;
#X msg 441 537 extmodulationsource\$3 \$1 \$2;
#X obj 549 399 list append \$1;
#X obj 379 149 s \$0-osc-y;
#X obj 516 148 s \$0-osc-y;
#X obj 379 106 list append \$1;
#X obj 516 106 list append \$1;
#X msg 516 127 waveshapemoddepth\$3 \$2;
#X obj 450 433 list split 1;
#X msg 379 128 waveshapemod\$3 \$1 \$2;
#X obj 352 303 pack s;
#X obj 441 474 f.util.asci2char;
#X obj 441 516 pack f f \$1;
#X obj 443 454 list fromsymbol;
#X obj 440 494 + 1;
#X msg 549 421 extmodulation\$3 \$1;
#N canvas 768 365 228 293 MESSAGE_STOP 0;
#X msg 142 120 0;
#X msg 98 169 1;
#X obj 53 201 spigot 1;
#X obj 98 77 t b b b;
#X msg 136 96 stop;
#X obj 53 29 inlet;
#X obj 53 242 outlet;
#X obj 98 28 inlet;
#X obj 98 139 t b b;
#X obj 98 118 del 20;
#X obj 53 178 list;
#X connect 0 0 2 1;
#X connect 1 0 2 1;
#X connect 2 0 6 0;
#X connect 3 0 9 0;
#X connect 3 1 0 0;
#X connect 3 2 4 0;
#X connect 4 0 9 0;
#X connect 5 0 10 0;
#X connect 7 0 3 0;
#X connect 8 0 10 0;
#X connect 8 1 1 0;
#X connect 9 0 8 0;
#X connect 10 0 2 0;
#X restore 87 865 pd MESSAGE_STOP;
#X obj 87 841 t a b;
#X obj 87 49 route oscfreqwave\$1 oscfreqwavechaos\$1 oscfreqwavelfofreq\$1 oscfreqwavelfodepth\$1 oscfreqwavelabel\$1 oscfreqwavexmod\$1 oscfreqwaveymod\$1 oscfreqwavemoddepth\$1;
#X obj 87 889 oscformat oscfreqwave\$1;
#X connect 0 0 58 0;
#X connect 1 0 4 0;
#X connect 1 1 10 0;
#X connect 2 0 4 1;
#X connect 3 0 5 1;
#X connect 4 0 6 0;
#X connect 5 0 9 0;
#X connect 6 0 8 0;
#X connect 8 0 57 0;
#X connect 9 1 8 1;
#X connect 10 0 11 0;
#X connect 11 0 5 0;
#X connect 12 0 16 0;
#X connect 12 1 13 0;
#X connect 13 0 14 0;
#X connect 14 0 39 0;
#X connect 15 0 34 0;
#X connect 16 0 15 0;
#X connect 17 0 19 0;
#X connect 17 1 18 0;
#X connect 18 0 28 0;
#X connect 19 0 33 0;
#X connect 20 0 22 0;
#X connect 20 1 21 0;
#X connect 21 0 27 0;
#X connect 22 0 32 0;
#X connect 24 0 31 0;
#X connect 24 0 36 0;
#X connect 25 0 31 0;
#X connect 25 0 36 0;
#X connect 26 0 31 0;
#X connect 26 0 36 0;
#X connect 27 0 37 0;
#X connect 28 0 38 0;
#X connect 29 0 31 0;
#X connect 29 0 36 0;
#X connect 30 0 24 0;
#X connect 30 1 25 0;
#X connect 30 2 26 0;
#X connect 30 3 29 0;
#X connect 35 0 6 1;
#X connect 40 0 9 0;
#X connect 41 0 23 0;
#X connect 42 0 55 0;
#X connect 45 0 49 0;
#X connect 46 0 47 0;
#X connect 47 0 44 0;
#X connect 48 0 53 0;
#X connect 48 1 52 1;
#X connect 49 0 43 0;
#X connect 51 0 54 0;
#X connect 52 0 41 0;
#X connect 53 0 51 0;
#X connect 54 0 52 0;
#X connect 55 0 23 0;
#X connect 56 0 59 0;
#X connect 57 0 56 0;
#X connect 57 1 56 1;
#X connect 58 0 1 0;
#X connect 58 1 12 0;
#X connect 58 2 17 0;
#X connect 58 3 20 0;
#X connect 58 4 30 0;
#X connect 58 5 48 0;
#X connect 58 6 45 0;
#X connect 58 7 42 0;
#X connect 58 7 46 0;
#X connect 58 8 23 0;
#X connect 59 0 7 0;
#X restore 17 88 pd OSCFREQWAVE_____________________________;
#X obj 17 152 f.util.oscformatxy \$0 \$1 oscsliderangetime oscsliderange 0 0 2.7 oscslidetime 0 0 3;
#X obj 17 215 f.util.oscformatxy \$0 \$1 noisefreqdepth noisefilterfreq 0 0 6 noise 0 0 6;
#X text 299 130 <- deprecated????;
#X connect 0 0 6 0;
#X connect 2 0 7 0;
#X connect 3 0 2 0;
#X connect 4 0 8 0;
#X connect 6 0 3 0;
#X connect 7 0 4 0;
#X connect 8 0 1 0;
#X restore 41 63 pd OSC_FM__NOISE_________;
#X connect 0 0 9 0;
#X connect 1 0 8 0;
#X connect 2 0 1 0;
#X connect 3 0 2 0;
#X connect 4 0 3 0;
#X connect 5 0 4 0;
#X connect 6 0 5 0;
#X connect 9 0 6 0;
