#N canvas 189 91 516 756 12;
#X obj 80 48 inlet;
#X obj 177 108 \$1;
#X obj 177 132 sel 0;
#X msg 177 156 1;
#X obj 320 44 inlet delaytime;
#X obj 177 44 inlet no_of_drips;
#X obj 79 695 outlet;
#X obj 203 699 outlet;
#X obj 186 84 loadbang;
#X obj 203 661 r \$0-counter-value;
#X obj 79 663 r \$0-bang-out;
#X obj 177 180 s \$0-no-of-drips;
#X obj 373 110 s \$0-delay-time;
#X obj 80 270 i;
#X obj 112 270 + 1;
#X msg 146 421 0;
#X msg 181 420 stop;
#X obj 145 478 r \$0-delay-time;
#X obj 103 580 del \$2;
#X obj 103 604 s \$0-del-bang-out;
#X obj 80 632 s \$0-bang-out;
#X obj 89 219 r \$0-del-bang-out;
#X obj 146 445 s \$0-counter-reset;
#X obj 98 243 r \$0-counter-reset;
#X obj 126 338 r \$0-no-of-drips;
#X obj 146 397 t b b;
#X obj 91 296 s \$0-counter-value;
#X obj 80 164 t b b;
#X obj 126 503 i;
#X obj 80 395 t b b b;
#X obj 80 365 moses 1;
#X obj 320 84 moses 10;
#X obj 103 553 spigot;
#X msg 320 136 0;
#X msg 353 136 1;
#X obj 320 160 s \$0-del-spigot;
#X obj 142 529 r \$0-del-spigot;
#X connect 0 0 27 0;
#X connect 1 0 2 0;
#X connect 2 0 3 0;
#X connect 2 1 11 0;
#X connect 3 0 11 0;
#X connect 4 0 31 0;
#X connect 5 0 1 0;
#X connect 8 0 1 0;
#X connect 9 0 7 0;
#X connect 10 0 6 0;
#X connect 13 0 14 0;
#X connect 13 0 26 0;
#X connect 13 0 30 0;
#X connect 14 0 13 1;
#X connect 15 0 22 0;
#X connect 16 0 18 0;
#X connect 17 0 28 1;
#X connect 18 0 19 0;
#X connect 21 0 13 0;
#X connect 23 0 13 1;
#X connect 24 0 30 1;
#X connect 25 0 15 0;
#X connect 25 1 16 0;
#X connect 27 0 13 0;
#X connect 27 1 25 0;
#X connect 28 0 18 1;
#X connect 29 0 20 0;
#X connect 29 1 32 0;
#X connect 29 2 28 0;
#X connect 30 0 29 0;
#X connect 30 1 25 0;
#X connect 31 0 33 0;
#X connect 31 1 12 0;
#X connect 31 1 34 0;
#X connect 32 0 18 0;
#X connect 33 0 35 0;
#X connect 34 0 35 0;
#X connect 36 0 32 1;
