#N canvas 89 71 554 696 12;
#X obj 74 48 inlet;
#X obj 177 108 \$1;
#X obj 74 304 i;
#X obj 104 304 + 1;
#X msg 94 228 0;
#X obj 177 132 sel 0;
#X msg 177 156 1;
#X obj 104 375 sel 0;
#X obj 320 44 inlet delaytime;
#X obj 177 44 inlet no_of_drips;
#X msg 128 227 stop;
#X obj 79 615 outlet;
#X obj 203 619 outlet;
#X obj 186 84 loadbang;
#X obj 136 401 t b;
#X obj 136 454 del \$2;
#X obj 74 532 s \$0-counter-value;
#X obj 203 581 r \$0-counter-value;
#X obj 104 508 s \$0-bang-out;
#X obj 79 583 r \$0-bang-out;
#X obj 136 478 s \$0-del-bang-out;
#X obj 102 273 r \$0-del-bang-out;
#X obj 177 180 s \$0-no-of-drips;
#X obj 104 351 mod 1;
#X obj 320 112 s \$0-delay-time;
#X obj 175 426 r \$0-delay-time;
#X obj 128 251 s \$0-del-clear;
#X obj 169 402 r \$0-del-clear;
#X obj 320 88 max 5;
#X obj 136 328 f;
#X obj 74 199 t b b b b;
#X obj 154 305 r \$0-no-of-drips;
#X connect 0 0 30 0;
#X connect 1 0 5 0;
#X connect 2 0 3 0;
#X connect 2 0 16 0;
#X connect 3 0 2 1;
#X connect 3 0 23 0;
#X connect 4 0 2 1;
#X connect 5 0 6 0;
#X connect 5 1 22 0;
#X connect 6 0 22 0;
#X connect 7 0 18 0;
#X connect 7 1 14 0;
#X connect 8 0 28 0;
#X connect 9 0 1 0;
#X connect 10 0 26 0;
#X connect 13 0 1 0;
#X connect 14 0 15 0;
#X connect 15 0 18 0;
#X connect 15 0 20 0;
#X connect 17 0 12 0;
#X connect 19 0 11 0;
#X connect 21 0 2 0;
#X connect 23 0 7 0;
#X connect 25 0 15 1;
#X connect 27 0 15 0;
#X connect 28 0 24 0;
#X connect 29 0 23 1;
#X connect 30 0 2 0;
#X connect 30 1 4 0;
#X connect 30 2 10 0;
#X connect 30 3 29 0;
#X connect 31 0 29 1;
