#N canvas 642 38 870 916 10;
#X text 470 224 \$1 = \$0;
#X obj 258 868 outlet;
#X text 470 239 \$2 = synth instance (only used in Pd \, not faust external);
#X obj 463 21 inlet chaos;
#X obj 37 15 inlet value;
#X obj 268 699 list trim;
#N canvas 562 172 228 293 MESSAGE_STOP 0;
#X msg 142 120 0;
#X msg 98 169 1;
#X obj 53 201 spigot 1;
#X obj 98 77 t b b b;
#X msg 136 96 stop;
#X obj 53 29 inlet;
#X obj 53 242 outlet;
#X obj 98 28 inlet;
#X obj 98 139 t b b;
#X obj 98 118 del 20;
#X obj 53 178 list;
#X connect 0 0 2 1;
#X connect 1 0 2 1;
#X connect 2 0 6 0;
#X connect 3 0 9 0;
#X connect 3 1 0 0;
#X connect 3 2 4 0;
#X connect 4 0 9 0;
#X connect 5 0 10 0;
#X connect 7 0 3 0;
#X connect 8 0 10 0;
#X connect 8 1 1 0;
#X connect 9 0 8 0;
#X connect 10 0 2 0;
#X restore 258 800 pd MESSAGE_STOP;
#X obj 345 778 r \$0-spigot;
#X obj 450 869 outlet;
#N canvas 31 98 299 326 SCALE___ 0;
#X obj 70 275 outlet;
#X obj 183 52 loadbang;
#X msg 183 117 0;
#X msg 210 117 1;
#X obj 183 138 t a;
#X obj 183 96 sel 0;
#X obj 70 162 f.util.switch;
#X obj 70 16 inlet;
#X obj 183 75 \$7;
#X obj 183 185 pow \$7;
#X connect 1 0 8 0;
#X connect 2 0 4 0;
#X connect 3 0 4 0;
#X connect 4 0 6 1;
#X connect 5 0 2 0;
#X connect 5 1 3 0;
#X connect 6 0 0 0;
#X connect 6 1 9 0;
#X connect 7 0 6 0;
#X connect 8 0 5 0;
#X connect 9 0 0 0;
#X restore 268 642 pd SCALE___;
#N canvas 0 25 341 336 X_QUANTISATION 0;
#X obj 37 37 inlet;
#X obj 37 288 outlet;
#X obj 265 49 loadbang;
#X msg 265 114 0;
#X msg 296 117 1;
#X obj 265 135 t a;
#X obj 150 135 moses 1;
#X obj 189 157 ==;
#X obj 150 229 int;
#X obj 265 93 sel 0;
#X obj 37 175 f.util.switch;
#X obj 150 114 r quantiseglobal;
#X obj 265 72 \$6;
#X obj 150 208 * \$6;
#X obj 150 250 / \$6;
#X connect 0 0 10 0;
#X connect 2 0 12 0;
#X connect 3 0 5 0;
#X connect 4 0 5 0;
#X connect 5 0 7 1;
#X connect 6 0 10 1;
#X connect 6 1 7 0;
#X connect 7 0 10 1;
#X connect 8 0 14 0;
#X connect 9 0 3 0;
#X connect 9 1 4 0;
#X connect 10 0 1 0;
#X connect 10 1 13 0;
#X connect 11 0 6 0;
#X connect 12 0 9 0;
#X connect 13 0 8 0;
#X connect 14 0 1 0;
#X restore 257 544 pd X_QUANTISATION;
#X text 470 257 \$3 = xy name;
#X text 471 274 \$4 = x paramname;
#X text 472 293 \$5 = x parameter default value;
#X text 471 313 \$6 = x quantisation steps;
#X text 472 331 \$7 = x exponential scaling (if no value \, then linear scaling);
#X text 474 451 eg: \$0 0 op1 op1freq 0 0 2.7 waveshape 0 4 2.7;
#N canvas 0 23 341 336 Y_QUANTISATION 0;
#X obj 37 37 inlet;
#X obj 37 288 outlet;
#X obj 265 49 loadbang;
#X msg 265 114 0;
#X msg 296 117 1;
#X obj 265 135 t a;
#X obj 150 135 moses 1;
#X obj 189 157 ==;
#X obj 150 229 int;
#X obj 265 93 sel 0;
#X obj 37 175 f.util.switch;
#X obj 150 114 r quantiseglobal;
#X obj 265 72 \$10;
#X obj 150 208 * \$10;
#X obj 150 250 / \$10;
#X connect 0 0 10 0;
#X connect 2 0 12 0;
#X connect 3 0 5 0;
#X connect 4 0 5 0;
#X connect 5 0 7 1;
#X connect 6 0 10 1;
#X connect 6 1 7 0;
#X connect 7 0 10 1;
#X connect 8 0 14 0;
#X connect 9 0 3 0;
#X connect 9 1 4 0;
#X connect 10 0 1 0;
#X connect 10 1 13 0;
#X connect 11 0 6 0;
#X connect 12 0 9 0;
#X connect 13 0 8 0;
#X connect 14 0 1 0;
#X restore 469 545 pd Y_QUANTISATION;
#N canvas 31 98 299 326 SCALE___ 0;
#X obj 70 275 outlet;
#X obj 183 52 loadbang;
#X msg 183 117 0;
#X msg 210 117 1;
#X obj 183 138 t a;
#X obj 183 96 sel 0;
#X obj 70 162 f.util.switch;
#X obj 70 16 inlet;
#X obj 183 75 \$11;
#X obj 183 185 pow \$11;
#X connect 1 0 8 0;
#X connect 2 0 4 0;
#X connect 3 0 4 0;
#X connect 4 0 6 1;
#X connect 5 0 2 0;
#X connect 5 1 3 0;
#X connect 6 0 0 0;
#X connect 6 1 9 0;
#X connect 7 0 6 0;
#X connect 8 0 5 0;
#X connect 9 0 0 0;
#X restore 469 640 pd SCALE___;
#X obj 450 807 oscformat \$3\$2;
#X text 472 361 \$8 = y paramname;
#X text 473 380 \$9 = y parameter default value;
#X text 472 400 \$10 = y quantisation steps;
#X text 473 418 \$11 = y exponential scaling (if no value \, then linear scaling);
#X obj 469 666 list prepend formuls\$2 \$8;
#X obj 469 616 f.seq.automater \$1 \$1-\$8 \$9;
#X obj 320 497 r xglobal;
#X obj 531 499 r yglobal;
#X obj 257 521 f.util.switch;
#X obj 469 520 f.util.switch;
#X obj 450 775 f.util.pak;
#X obj 258 771 f.util.pak;
#X obj 268 668 list prepend formuls\$2 \$4;
#X obj 257 618 f.seq.automater \$1 \$1-\$4 \$5;
#X obj 470 838 s \$2-message-collect;
#X obj 358 87 s \$0-reject;
#X obj 57 442 unpack f f;
#X msg 317 136 active \$1;
#X msg 393 137 looptrig \$1;
#X msg 470 137 chaostrig \$1;
#X obj 77 377 unpack f f;
#X msg 77 398 chaos \$1;
#X msg 151 398 chaos \$1;
#X obj 77 419 s \$0-x-auto;
#X obj 152 418 s \$0-y-auto;
#X obj 57 463 s \$0-x;
#X obj 114 463 s \$0-y;
#X obj 117 314 unpack f f;
#X obj 117 356 s \$0-x-auto;
#X obj 192 356 s \$0-y-auto;
#X msg 117 335 lfofreq \$1;
#X msg 192 336 lfofreq \$1;
#X obj 157 246 unpack f f;
#X obj 157 288 s \$0-x-auto;
#X obj 235 288 s \$0-y-auto;
#X msg 157 267 lfodepth \$1;
#X msg 235 268 lfodepth \$1;
#X obj 257 498 r \$0-x;
#X obj 469 499 r \$0-y;
#X obj 270 566 r \$0-x-auto;
#X obj 478 567 r \$0-y-auto;
#X obj 317 173 s \$0-x-auto;
#X obj 470 173 s \$0-y-auto;
#X obj 22 843 r \$0-reject;
#X obj 22 864 outlet;
#X obj 485 592 f.util.trigslewmessage \$1;
#X obj 278 595 f.util.trigslewmessage \$1;
#X obj 37 618 spigot;
#X obj 70 597 r automateRecord;
#X obj 37 660 s \$3\$2-act-gui;
#X msg 37 638 0;
#X obj 268 721 s to-faust-\$2;
#N canvas 982 500 530 366 MOD_PARSE 0;
#X obj 35 37 inlet;
#X obj 167 35 inlet;
#X obj 290 35 inlet;
#X obj 35 105 list split 1;
#X obj 35 126 list fromsymbol;
#X obj 35 147 f.util.asci2char;
#X obj 35 168 + 1;
#X obj 35 209 f.util.modinput;
#X obj 35 188 pack f f;
#X obj 168 103 list split 1;
#X obj 168 124 list fromsymbol;
#X obj 168 145 f.util.asci2char;
#X obj 168 166 + 1;
#X obj 168 207 f.util.modinput;
#X obj 168 186 pack f f;
#X obj 35 280 outlet;
#X obj 168 278 outlet;
#X obj 290 76 unpack f f;
#X obj 343 126 r \$2-reset;
#X msg 343 147 reset 0;
#X connect 0 0 3 0;
#X connect 1 0 9 0;
#X connect 2 0 17 0;
#X connect 3 0 4 0;
#X connect 3 1 8 1;
#X connect 4 0 5 0;
#X connect 5 0 6 0;
#X connect 6 0 8 0;
#X connect 7 0 15 0;
#X connect 8 0 7 0;
#X connect 9 0 10 0;
#X connect 9 1 14 1;
#X connect 10 0 11 0;
#X connect 11 0 12 0;
#X connect 12 0 14 0;
#X connect 13 0 16 0;
#X connect 14 0 13 0;
#X connect 17 0 7 1;
#X connect 17 1 13 1;
#X connect 18 0 19 0;
#X connect 19 0 13 1;
#X connect 19 0 7 1;
#X restore 197 178 pd MOD_PARSE;
#X msg 197 199 extmod \$1;
#X obj 197 220 s \$0-x-auto;
#X msg 273 198 extmod \$1;
#X obj 273 219 s \$0-y-auto;
#X obj 37 51 route \$3\$2 \$3chaos\$2 \$3lfofreq\$2 \$3lfodepth\$2 \$3xmod\$2 \$3ymod\$2 \$3moddepth\$2 \$3label\$2;
#X obj 154 543 r \$1-seqpos-\$2;
#X msg 154 564 seqposition \$1;
#X obj 317 115 f.util.widgetparse \$2 \$3;
#X msg 571 137 reverse \$1;
#X obj 37 487 s \$0-spigot;
#X obj 37 577 r \$0-spigot;
#X connect 4 0 77 0;
#X connect 5 0 71 0;
#X connect 6 0 1 0;
#X connect 7 0 6 1;
#X connect 9 0 32 0;
#X connect 10 0 33 0;
#X connect 17 0 25 0;
#X connect 18 0 24 0;
#X connect 19 0 8 0;
#X connect 19 0 34 0;
#X connect 24 0 5 0;
#X connect 25 0 18 0;
#X connect 25 0 31 1;
#X connect 25 1 30 1;
#X connect 26 0 28 1;
#X connect 27 0 29 1;
#X connect 28 0 10 0;
#X connect 29 0 17 0;
#X connect 30 0 19 0;
#X connect 31 0 6 0;
#X connect 32 0 5 0;
#X connect 33 0 9 0;
#X connect 33 0 31 0;
#X connect 33 1 30 0;
#X connect 36 0 45 0;
#X connect 36 1 46 0;
#X connect 37 0 61 0;
#X connect 37 0 62 0;
#X connect 38 0 61 0;
#X connect 38 0 62 0;
#X connect 39 0 61 0;
#X connect 39 0 62 0;
#X connect 40 0 41 0;
#X connect 40 1 42 0;
#X connect 41 0 43 0;
#X connect 42 0 44 0;
#X connect 47 0 50 0;
#X connect 47 1 51 0;
#X connect 50 0 48 0;
#X connect 51 0 49 0;
#X connect 52 0 55 0;
#X connect 52 1 56 0;
#X connect 55 0 53 0;
#X connect 56 0 54 0;
#X connect 57 0 28 0;
#X connect 58 0 29 0;
#X connect 59 0 33 0;
#X connect 60 0 25 0;
#X connect 63 0 64 0;
#X connect 65 0 25 0;
#X connect 66 0 33 0;
#X connect 67 0 70 0;
#X connect 68 0 67 1;
#X connect 70 0 69 0;
#X connect 72 0 73 0;
#X connect 72 1 75 0;
#X connect 73 0 74 0;
#X connect 75 0 76 0;
#X connect 77 0 36 0;
#X connect 77 0 82 0;
#X connect 77 1 40 0;
#X connect 77 2 47 0;
#X connect 77 3 52 0;
#X connect 77 4 72 0;
#X connect 77 5 72 1;
#X connect 77 6 72 2;
#X connect 77 7 80 0;
#X connect 77 8 35 0;
#X connect 78 0 79 0;
#X connect 79 0 33 0;
#X connect 79 0 25 0;
#X connect 80 0 37 0;
#X connect 80 1 38 0;
#X connect 80 2 39 0;
#X connect 80 3 81 0;
#X connect 81 0 61 0;
#X connect 81 0 62 0;
#X connect 83 0 67 0;
