#N canvas 174 473 291 295 10;
#X obj 27 10 inlet;
#X obj 27 206 s scale-root-note;
#X msg 41 74 0;
#X obj 27 102 f 0;
#X obj 27 144 f.seq.automater \$1 \$1-scale-root-note;
#X obj 41 52 r resetglobal;
#X obj 27 123 / 13;
#X obj 27 165 * 13;
#X obj 27 186 i;
#X obj 136 205 s \$1-scale-root-note;
#X obj 136 164 * 13;
#X obj 136 185 i;
#X connect 0 0 3 0;
#X connect 2 0 3 0;
#X connect 3 0 6 0;
#X connect 4 0 7 0;
#X connect 4 1 10 0;
#X connect 5 0 2 0;
#X connect 6 0 4 0;
#X connect 7 0 8 0;
#X connect 8 0 1 0;
#X connect 10 0 11 0;
#X connect 11 0 9 0;
