#N canvas 357 478 1446 529 10;
#X obj 41 283 + 1;
#X obj 41 304 mod 2;
#X obj 56 211 r \$1-reset;
#X obj 41 171 spigot;
#X obj 185 261 + 1;
#X obj 200 189 r \$1-reset;
#X obj 185 169 spigot;
#X obj 398 180 spigot;
#X obj 41 469 outlet;
#X obj 185 470 outlet;
#X obj 398 471 outlet;
#X obj 41 11 inlet;
#X obj 41 52 sel 1;
#X msg 56 232 1;
#X obj 74 150 r act\$1;
#X obj 218 148 r trig\$1;
#X obj 431 159 r chaostrig\$1;
#X obj 49 345 oscformat \$2act\$1;
#X obj 23 192 r \$2\$1-act-gui;
#X obj 696 273 + 1;
#X obj 696 294 mod 2;
#X obj 711 201 r \$1-reset;
#X obj 696 181 spigot;
#X msg 711 222 1;
#X obj 729 160 r reverse\$1;
#X obj 706 337 oscformat \$2reverse\$1;
#X obj 696 465 outlet;
#X obj 41 262 i 1;
#X obj 696 252 i 1;
#X obj 185 282 mod 3;
#X obj 195 309 sel 1 2;
#X obj 195 383 oscformat \$2trigstep\$1;
#X msg 195 354 1;
#X msg 232 333 1;
#X obj 232 357 oscformat \$2trigseq\$1;
#X obj 706 361 s to-o-s-c-interface;
#X obj 195 417 s to-o-s-c-interface;
#X obj 49 369 s to-o-s-c-interface;
#X text 132 39 \$1 = instance \; \$2 = parameter name \;;
#X msg 200 210 0;
#X obj 185 240 i 0;
#X obj 398 281 + 1;
#X obj 413 209 r \$1-reset;
#X obj 398 302 mod 3;
#X obj 408 329 sel 1 2;
#X msg 408 374 1;
#X msg 445 353 1;
#X obj 408 437 s to-o-s-c-interface;
#X msg 413 230 0;
#X obj 398 260 i 0;
#X obj 408 403 oscformat \$2chaostrig\$1;
#X obj 1066 203 + 1;
#X obj 1066 224 mod 2;
#X obj 1081 131 r \$1-reset;
#X msg 1081 152 1;
#X obj 1066 182 i 1;
#X obj 1076 281 s to-o-s-c-interface;
#X obj 1076 257 oscformat \$2chaostrig\$1;
#X obj 445 377 oscformat \$2chaostrigseq\$1;
#X obj 876 263 + 1;
#X obj 876 284 mod 2;
#X obj 891 191 r \$1-reset;
#X obj 876 171 spigot;
#X msg 891 212 1;
#X obj 876 455 outlet;
#X obj 876 242 i 1;
#X obj 886 351 s to-o-s-c-interface;
#X obj 41 77 t a a a a a;
#X obj 909 150 r quantise\$1;
#X obj 886 327 oscformat \$2quantise\$1;
#X connect 0 0 1 0;
#X connect 0 0 27 1;
#X connect 1 0 8 0;
#X connect 1 0 17 0;
#X connect 2 0 13 0;
#X connect 3 0 27 0;
#X connect 4 0 29 0;
#X connect 4 0 40 1;
#X connect 5 0 39 0;
#X connect 6 0 40 0;
#X connect 7 0 49 0;
#X connect 11 0 12 0;
#X connect 12 0 67 0;
#X connect 13 0 27 0;
#X connect 14 0 3 1;
#X connect 15 0 6 1;
#X connect 16 0 7 1;
#X connect 17 0 37 0;
#X connect 18 0 27 0;
#X connect 19 0 20 0;
#X connect 19 0 28 1;
#X connect 20 0 25 0;
#X connect 20 0 26 0;
#X connect 21 0 23 0;
#X connect 22 0 28 0;
#X connect 23 0 28 0;
#X connect 24 0 22 1;
#X connect 25 0 35 0;
#X connect 27 0 0 0;
#X connect 28 0 19 0;
#X connect 29 0 9 0;
#X connect 29 0 30 0;
#X connect 30 0 32 0;
#X connect 30 1 33 0;
#X connect 30 2 31 0;
#X connect 30 2 34 0;
#X connect 31 0 36 0;
#X connect 32 0 31 0;
#X connect 33 0 34 0;
#X connect 34 0 36 0;
#X connect 39 0 30 0;
#X connect 39 0 40 1;
#X connect 40 0 4 0;
#X connect 41 0 43 0;
#X connect 41 0 49 1;
#X connect 42 0 48 0;
#X connect 43 0 44 0;
#X connect 43 0 10 0;
#X connect 44 0 45 0;
#X connect 44 1 46 0;
#X connect 44 2 50 0;
#X connect 44 2 58 0;
#X connect 45 0 50 0;
#X connect 46 0 58 0;
#X connect 48 0 44 0;
#X connect 48 0 49 1;
#X connect 49 0 41 0;
#X connect 50 0 47 0;
#X connect 51 0 52 0;
#X connect 51 0 55 1;
#X connect 52 0 57 0;
#X connect 53 0 54 0;
#X connect 55 0 51 0;
#X connect 57 0 56 0;
#X connect 58 0 47 0;
#X connect 59 0 60 0;
#X connect 59 0 65 1;
#X connect 60 0 64 0;
#X connect 60 0 69 0;
#X connect 61 0 63 0;
#X connect 62 0 65 0;
#X connect 63 0 65 0;
#X connect 65 0 59 0;
#X connect 67 0 3 0;
#X connect 67 1 6 0;
#X connect 67 2 7 0;
#X connect 67 3 22 0;
#X connect 67 4 62 0;
#X connect 68 0 62 1;
#X connect 69 0 66 0;
