#N canvas 181 277 839 679 10;
#X text 429 13 \$1 = \$0;
#X obj 210 645 outlet;
#X obj 7 448 s \$0-value;
#X obj 210 494 r \$0-value;
#X text 429 28 \$2 = synth instance (only used in Pd \, not faust external);
#X obj 7 20 inlet value;
#N canvas 196 67 341 336 QUANTISATION 0;
#X obj 37 37 inlet;
#X obj 37 288 outlet;
#X obj 255 49 loadbang;
#X msg 255 114 0;
#X msg 286 117 1;
#X obj 255 135 t a;
#X obj 150 135 moses 1;
#X obj 189 157 ==;
#X obj 150 229 int;
#X obj 255 93 sel 0;
#X obj 37 175 f.util.switch;
#X obj 255 72 \$5;
#X obj 150 208 * \$5;
#X obj 150 250 / \$5;
#X obj 150 114 r quantiseglobal;
#X connect 0 0 10 0;
#X connect 2 0 11 0;
#X connect 3 0 5 0;
#X connect 4 0 5 0;
#X connect 5 0 7 1;
#X connect 6 0 10 1;
#X connect 6 1 7 0;
#X connect 7 0 10 1;
#X connect 8 0 13 0;
#X connect 9 0 3 0;
#X connect 9 1 4 0;
#X connect 10 0 1 0;
#X connect 10 1 12 0;
#X connect 11 0 9 0;
#X connect 12 0 8 0;
#X connect 13 0 1 0;
#X connect 14 0 6 0;
#X restore 7 331 pd QUANTISATION;
#X text 429 81 \$5 = quantisation steps;
#X text 429 64 \$4 = parameter default value;
#X obj 7 428 f.seq.automater \$1 \$1-\$3 \$4;
#X obj 220 564 list trim;
#X text 429 46 \$3 = param name;
#X obj 220 543 list prepend formuls\$2 \$3;
#X obj 27 291 s \$0-spigot;
#N canvas 562 172 228 293 MESSAGE_STOP 0;
#X msg 142 120 0;
#X msg 98 169 1;
#X obj 53 201 spigot 1;
#X obj 98 77 t b b b;
#X msg 136 96 stop;
#X obj 53 29 inlet;
#X obj 53 242 outlet;
#X obj 98 28 inlet;
#X obj 53 178 f;
#X obj 98 139 t b b;
#X obj 98 118 del 20;
#X connect 0 0 2 1;
#X connect 1 0 2 1;
#X connect 2 0 6 0;
#X connect 3 0 10 0;
#X connect 3 1 0 0;
#X connect 3 2 4 0;
#X connect 4 0 10 0;
#X connect 5 0 8 0;
#X connect 7 0 3 0;
#X connect 8 0 2 0;
#X connect 9 0 8 0;
#X connect 9 1 1 0;
#X connect 10 0 9 0;
#X restore 210 607 pd MESSAGE_STOP;
#X obj 307 585 r \$0-spigot;
#X obj 412 576 oscformat \$3\$2;
#X obj 402 646 outlet;
#N canvas 562 172 228 293 MESSAGE_STOP 0;
#X msg 142 120 0;
#X msg 98 169 1;
#X obj 53 201 spigot 1;
#X obj 98 77 t b b b;
#X msg 136 96 stop;
#X obj 53 29 inlet;
#X obj 53 242 outlet;
#X obj 98 28 inlet;
#X obj 53 178 f;
#X obj 98 139 t b b;
#X obj 98 118 del 20;
#X connect 0 0 2 1;
#X connect 1 0 2 1;
#X connect 2 0 6 0;
#X connect 3 0 10 0;
#X connect 3 1 0 0;
#X connect 3 2 4 0;
#X connect 4 0 10 0;
#X connect 5 0 8 0;
#X connect 7 0 3 0;
#X connect 8 0 2 0;
#X connect 9 0 8 0;
#X connect 9 1 1 0;
#X connect 10 0 9 0;
#X restore 402 550 pd MESSAGE_STOP;
#X obj 489 528 r \$0-spigot;
#N canvas 31 98 299 326 SCALE___ 0;
#X obj 70 275 outlet;
#X obj 183 52 loadbang;
#X msg 183 117 0;
#X msg 210 117 1;
#X obj 183 138 t a;
#X obj 183 96 sel 0;
#X obj 70 162 f.util.switch;
#X obj 183 75 \$6;
#X obj 183 185 pow \$6;
#X obj 70 16 inlet;
#X connect 1 0 7 0;
#X connect 2 0 4 0;
#X connect 3 0 4 0;
#X connect 4 0 6 1;
#X connect 5 0 2 0;
#X connect 5 1 3 0;
#X connect 6 0 0 0;
#X connect 6 1 8 0;
#X connect 7 0 5 0;
#X connect 8 0 0 0;
#X connect 9 0 6 0;
#X restore 220 517 pd SCALE___;
#X text 436 116 \$6 = exponential scaling (if no value \, then linear scaling);
#X text 429 98 eg: \$0 0 waveshape 0 4 2.7;
#X obj 412 596 s \$2-message-collect;
#X msg 52 235 chaos \$1;
#X msg 97 212 lfofreq \$1;
#X msg 142 188 lfodepth \$1;
#X obj 111 20 inlet messages;
#X msg 277 225 active \$1;
#X msg 324 206 looptrig \$1;
#X msg 371 186 chaostrig \$1;
#X obj 322 114 s \$0-reject;
#X obj 16 626 r \$0-reject;
#X obj 16 647 outlet;
#X text 73 650 < message reject;
#X obj 277 144 f.util.widgetparse \$2 \$3;
#X obj 111 41 s \$0-to-automater;
#X obj 86 450 s \$0-value-2;
#X obj 402 527 r \$0-value-2;
#X obj 28 371 f.util.trigslewmessage \$1;
#X obj 277 291 s \$0-auto;
#X obj 20 351 r \$0-auto;
#X obj 212 408 spigot;
#X obj 245 387 r automateRecord;
#X obj 212 367 r \$0-spigot;
#X msg 212 428 0;
#X obj 212 449 s \$3\$2-act-gui;
#X msg 418 165 reverse \$1;
#X obj 220 586 s to-faust-\$2;
#N canvas 1174 500 315 366 MOD_PARSE 0;
#X obj 35 37 inlet;
#X obj 200 35 inlet;
#X obj 35 105 list split 1;
#X obj 35 126 list fromsymbol;
#X obj 35 147 f.util.asci2char;
#X obj 35 168 + 1;
#X obj 35 209 f.util.modinput;
#X obj 35 188 pack f f;
#X obj 35 280 outlet;
#X obj 225 141 r \$2-reset;
#X msg 225 170 0;
#X msg 153 169 reset bang;
#X connect 0 0 2 0;
#X connect 1 0 6 1;
#X connect 2 0 3 0;
#X connect 2 1 7 1;
#X connect 3 0 4 0;
#X connect 4 0 5 0;
#X connect 5 0 7 0;
#X connect 6 0 8 0;
#X connect 7 0 6 0;
#X connect 9 0 10 0;
#X connect 9 0 11 0;
#X connect 10 0 6 1;
#X connect 11 0 6 0;
#X restore 187 145 pd MOD_PARSE;
#X msg 187 166 extmod \$1;
#X obj 7 74 route \$3\$2 \$3chaos\$2 \$3lfofreq\$2 \$3lfodepth\$2 \$3mod\$2 \$3moddepth\$2 \$3label\$2;
#X msg 107 342 seqposition \$1;
#X obj 107 321 r \$1-seqpos-\$2;
#X connect 3 0 20 0;
#X connect 3 0 14 0;
#X connect 5 0 51 0;
#X connect 6 0 9 0;
#X connect 9 0 2 0;
#X connect 9 1 37 0;
#X connect 10 0 48 0;
#X connect 12 0 10 0;
#X connect 14 0 1 0;
#X connect 15 0 14 1;
#X connect 16 0 23 0;
#X connect 18 0 16 0;
#X connect 18 0 17 0;
#X connect 19 0 18 1;
#X connect 20 0 12 0;
#X connect 24 0 40 0;
#X connect 25 0 40 0;
#X connect 26 0 40 0;
#X connect 27 0 36 0;
#X connect 28 0 40 0;
#X connect 29 0 40 0;
#X connect 30 0 40 0;
#X connect 32 0 33 0;
#X connect 35 0 28 0;
#X connect 35 1 29 0;
#X connect 35 2 30 0;
#X connect 35 3 47 0;
#X connect 38 0 18 0;
#X connect 39 0 9 0;
#X connect 41 0 9 0;
#X connect 42 0 45 0;
#X connect 43 0 42 1;
#X connect 44 0 42 0;
#X connect 45 0 46 0;
#X connect 47 0 40 0;
#X connect 49 0 50 0;
#X connect 50 0 40 0;
#X connect 51 0 6 0;
#X connect 51 0 13 0;
#X connect 51 1 24 0;
#X connect 51 2 25 0;
#X connect 51 3 26 0;
#X connect 51 4 49 0;
#X connect 51 5 49 1;
#X connect 51 6 35 0;
#X connect 51 7 31 0;
#X connect 52 0 9 0;
#X connect 53 0 52 0;
