#N canvas 206 37 649 506 12;
#X obj 43 84 r \$1-reset;
#X obj 439 411 s to-o-s-c-interface;
#X text 200 58 \$1 = synth instance \; \$2 = parameter name;
#X obj 43 108 del 10;
#X obj 93 337 del 10;
#X obj 93 387 oscformat \$2lfodepth\$1;
#X msg 43 377 0 0;
#X msg 93 361 0 0;
#X obj 43 415 oscformat \$2lfofreq\$1;
#X obj 202 309 del 10;
#X msg 202 333 0 0;
#X text 153 15 LFO \, MOD \, CHAOS GUI reset;
#X obj 304 287 del 10;
#X msg 304 311 0 0;
#X obj 304 337 oscformat \$2moddepth\$1;
#X obj 202 359 oscformat \$2chaos\$1;
#N canvas 63 88 655 460 X_MOD_CLEAR____ 0;
#X obj 70 188 del 10;
#X obj 70 238 oscformat \$2xmod\$1 0;
#X msg 70 212 0;
#X obj 133 164 del 10;
#X msg 133 188 0;
#X obj 133 214 oscformat \$2xmod\$1 1;
#X obj 203 138 del 10;
#X msg 203 162 0;
#X obj 266 114 del 10;
#X msg 266 138 0;
#X obj 331 90 del 10;
#X msg 331 114 0;
#X obj 394 66 del 10;
#X msg 394 90 0;
#X obj 203 188 oscformat \$2xmod\$1 2;
#X obj 266 164 oscformat \$2xmod\$1 3;
#X obj 331 140 oscformat \$2xmod\$1 4;
#X obj 394 116 oscformat \$2xmod\$1 5;
#X obj 70 36 inlet;
#X obj 398 399 outlet;
#X connect 0 0 2 0;
#X connect 0 0 3 0;
#X connect 1 0 19 0;
#X connect 2 0 1 0;
#X connect 3 0 4 0;
#X connect 3 0 6 0;
#X connect 4 0 5 0;
#X connect 5 0 19 0;
#X connect 6 0 7 0;
#X connect 6 0 8 0;
#X connect 7 0 14 0;
#X connect 8 0 9 0;
#X connect 8 0 10 0;
#X connect 9 0 15 0;
#X connect 10 0 11 0;
#X connect 10 0 12 0;
#X connect 11 0 16 0;
#X connect 12 0 13 0;
#X connect 13 0 17 0;
#X connect 14 0 19 0;
#X connect 15 0 19 0;
#X connect 16 0 19 0;
#X connect 17 0 19 0;
#X connect 18 0 0 0;
#X restore 437 300 pd X_MOD_CLEAR____;
#N canvas 63 88 655 460 Y_MOD_CLEAR____ 0;
#X obj 70 188 del 10;
#X msg 70 212 0;
#X obj 133 164 del 10;
#X msg 133 188 0;
#X obj 203 138 del 10;
#X msg 203 162 0;
#X obj 266 114 del 10;
#X msg 266 138 0;
#X obj 331 90 del 10;
#X msg 331 114 0;
#X obj 394 66 del 10;
#X msg 394 90 0;
#X obj 70 36 inlet;
#X obj 398 399 outlet;
#X obj 70 238 oscformat \$2ymod\$1 0;
#X obj 133 214 oscformat \$2ymod\$1 1;
#X obj 203 188 oscformat \$2ymod\$1 2;
#X obj 266 164 oscformat \$2ymod\$1 3;
#X obj 331 140 oscformat \$2ymod\$1 4;
#X obj 394 116 oscformat \$2ymod\$1 5;
#X connect 0 0 1 0;
#X connect 0 0 2 0;
#X connect 1 0 14 0;
#X connect 2 0 3 0;
#X connect 2 0 4 0;
#X connect 3 0 15 0;
#X connect 4 0 5 0;
#X connect 4 0 6 0;
#X connect 5 0 16 0;
#X connect 6 0 7 0;
#X connect 6 0 8 0;
#X connect 7 0 17 0;
#X connect 8 0 9 0;
#X connect 8 0 10 0;
#X connect 9 0 18 0;
#X connect 10 0 11 0;
#X connect 11 0 19 0;
#X connect 12 0 0 0;
#X connect 14 0 13 0;
#X connect 15 0 13 0;
#X connect 16 0 13 0;
#X connect 17 0 13 0;
#X connect 18 0 13 0;
#X connect 19 0 13 0;
#X restore 456 276 pd Y_MOD_CLEAR____;
#X connect 0 0 3 0;
#X connect 3 0 4 0;
#X connect 3 0 6 0;
#X connect 4 0 7 0;
#X connect 4 0 9 0;
#X connect 5 0 1 0;
#X connect 6 0 8 0;
#X connect 7 0 5 0;
#X connect 8 0 1 0;
#X connect 9 0 10 0;
#X connect 9 0 12 0;
#X connect 10 0 15 0;
#X connect 12 0 13 0;
#X connect 12 0 16 0;
#X connect 12 0 17 0;
#X connect 13 0 14 0;
#X connect 14 0 1 0;
#X connect 15 0 1 0;
#X connect 16 0 1 0;
#X connect 17 0 1 0;
