#N canvas 560 346 411 231 10;
#X obj 33 12 inlet;
#X text 140 48 \$1 = instance;
#X text 140 62 \$2 = \$0;
#X text 137 32 Receive and parse OSC messages from synth;
#N canvas 206 266 669 556 MIX_BUS___ 0;
#X obj 123 37 inlet;
#X obj 176 452 s to-o-s-c-interface;
#X obj 176 429 oscformat panning\$1;
#X obj 244 409 s to-o-s-c-interface;
#X obj 244 386 oscformat enveloperelease\$1;
#X obj 304 366 s to-o-s-c-interface;
#X obj 304 343 oscformat envelopedepth\$1;
#X obj 365 320 s to-o-s-c-interface;
#X obj 365 297 oscformat envelopeside\$1;
#X obj 123 472 s \$2-volume-gui;
#X obj 392 253 oscformat fxsend\$1;
#X obj 392 274 s to-o-s-c-interface;
#X obj 435 232 s to-o-s-c-interface;
#X obj 435 211 oscformat reverb\$1;
#X obj 445 192 r reverb\$1;
#X obj 583 509 outlet;
#X obj 25 78 r \$1-reset;
#X msg 25 99 0;
#X msg 86 100 1;
#X msg 55 101 0.5;
#X obj 25 382 s to-o-s-c-interface;
#X obj 25 361 oscformat freqsnap\$1;
#X obj 157 516 s to-o-s-c-interface;
#X obj 157 493 oscformat volume\$1;
#X obj 443 171 s to-o-s-c-interface;
#X obj 443 150 oscformat slew\$1;
#X connect 2 0 1 0;
#X connect 4 0 3 0;
#X connect 6 0 5 0;
#X connect 8 0 7 0;
#X connect 10 0 11 0;
#X connect 13 0 12 0;
#X connect 14 0 13 0;
#X connect 16 0 17 0;
#X connect 16 0 18 0;
#X connect 16 0 19 0;
#X connect 17 0 4 0;
#X connect 17 0 6 0;
#X connect 17 0 8 0;
#X connect 17 0 13 0;
#X connect 17 0 21 0;
#X connect 17 0 23 0;
#X connect 17 0 25 0;
#X connect 17 0 10 0;
#X connect 18 0 9 0;
#X connect 19 0 2 0;
#X connect 21 0 20 0;
#X connect 23 0 22 0;
#X connect 25 0 24 0;
#X restore 33 63 pd MIX_BUS___;
#N canvas 544 222 890 688 SYNTHESIS_ 0;
#X obj 27 7 inlet;
#X obj 32 622 s to-o-s-c-interface;
#X obj 86 570 s to-o-s-c-interface;
#X obj 109 523 s to-o-s-c-interface;
#X obj 138 480 s to-o-s-c-interface;
#X obj 138 457 oscformat genrange\$1;
#X obj 168 435 s to-o-s-c-interface;
#X obj 168 412 oscformat genstepsize\$1;
#X msg 32 74 0 0;
#X obj 453 665 outlet;
#X obj 373 237 ftom;
#X obj 373 169 t a a;
#X obj 372 362 s to-o-s-c-interface;
#N canvas 0 23 358 494 MIDI2NOTE 0;
#X obj 47 27 inlet;
#X obj 47 48 mod 12;
#X obj 47 89 sel 0 1 2 3 4 5 6 7 8 9 10 11;
#X msg 47 370 C;
#X obj 257 441 t a;
#X obj 257 462 outlet;
#X msg 61 350 C#/Db;
#X msg 75 331 D;
#X msg 90 309 D#/Eb;
#X msg 102 289 E;
#X msg 115 267 F;
#X msg 136 245 F#/Gb;
#X msg 150 222 G;
#X msg 160 201 G#/Ab;
#X msg 175 177 A;
#X msg 188 155 A#/Bb;
#X msg 204 128 B;
#X obj 47 69 i;
#X connect 0 0 1 0;
#X connect 1 0 17 0;
#X connect 2 0 3 0;
#X connect 2 1 6 0;
#X connect 2 2 7 0;
#X connect 2 3 8 0;
#X connect 2 4 9 0;
#X connect 2 5 10 0;
#X connect 2 6 11 0;
#X connect 2 7 12 0;
#X connect 2 8 13 0;
#X connect 2 9 14 0;
#X connect 2 10 15 0;
#X connect 2 11 16 0;
#X connect 3 0 4 0;
#X connect 4 0 5 0;
#X connect 6 0 4 0;
#X connect 7 0 4 0;
#X connect 8 0 4 0;
#X connect 9 0 4 0;
#X connect 10 0 4 0;
#X connect 11 0 4 0;
#X connect 12 0 4 0;
#X connect 13 0 4 0;
#X connect 14 0 4 0;
#X connect 15 0 4 0;
#X connect 16 0 4 0;
#X connect 17 0 2 0;
#X restore 373 258 pd MIDI2NOTE;
#X obj 373 279 pack s f;
#X obj 373 321 symbol;
#X msg 373 300 \$1:\$2Hz;
#X obj 418 197 * 10;
#X obj 418 218 i;
#X obj 418 239 * 0.1;
#X obj 373 341 oscformat op1pitchgui\$1;
#X obj 373 212 change;
#X obj 198 391 s to-o-s-c-interface;
#X obj 210 346 s to-o-s-c-interface;
#X obj 33 52 r \$1-reset;
#X msg 95 78 1;
#X msg 63 77 0;
#X obj 459 81 r \$1-gen-messages;
#X obj 459 244 oscformat genrange\$1;
#X obj 524 216 oscformat genstepsize\$1;
#X obj 459 265 s to-o-s-c-interface;
#X obj 109 500 oscformat extmodulation\$1;
#X obj 222 258 s to-o-s-c-interface;
#X obj 222 237 oscformat chordsize\$1;
#X obj 597 193 oscformat gendirection\$1;
#X obj 660 166 oscformat genrepeat\$1;
#X obj 199 368 oscformat fmfreqdepth\$1;
#X obj 459 113 route genrange gensteps gendirection genrepeat chordsize;
#X obj 723 139 oscformat chordsize\$1;
#X obj 32 599 oscformat oscfreqwave\$1;
#X obj 86 547 oscformat oscsliderangetime\$1;
#X obj 210 323 oscformat noisefreqdepth\$1;
#X obj 210 302 s to-o-s-c-interface;
#X obj 211 279 oscformat amfreqdepth\$1;
#X connect 5 0 4 0;
#X connect 7 0 6 0;
#X connect 8 0 36 0;
#X connect 8 0 39 0;
#X connect 8 0 40 0;
#X connect 8 0 41 0;
#X connect 8 0 43 0;
#X connect 10 0 13 0;
#X connect 11 0 21 0;
#X connect 11 1 17 0;
#X connect 13 0 14 0;
#X connect 14 0 16 0;
#X connect 15 0 20 0;
#X connect 16 0 15 0;
#X connect 17 0 18 0;
#X connect 18 0 19 0;
#X connect 19 0 14 1;
#X connect 20 0 12 0;
#X connect 21 0 10 0;
#X connect 24 0 8 0;
#X connect 24 0 25 0;
#X connect 24 0 26 0;
#X connect 25 0 7 0;
#X connect 25 0 5 0;
#X connect 25 0 33 0;
#X connect 26 0 31 0;
#X connect 26 0 11 0;
#X connect 26 0 34 0;
#X connect 27 0 37 0;
#X connect 28 0 30 0;
#X connect 29 0 30 0;
#X connect 31 0 3 0;
#X connect 33 0 32 0;
#X connect 34 0 30 0;
#X connect 35 0 30 0;
#X connect 36 0 22 0;
#X connect 37 0 28 0;
#X connect 37 1 29 0;
#X connect 37 2 34 0;
#X connect 37 3 35 0;
#X connect 37 4 38 0;
#X connect 38 0 30 0;
#X connect 39 0 1 0;
#X connect 40 0 2 0;
#X connect 41 0 23 0;
#X connect 43 0 42 0;
#X restore 33 84 pd SYNTHESIS_;
#N canvas 219 186 1112 692 SEQUENCER_ 0;
#X obj 97 37 inlet;
#X obj 212 424 s to-o-s-c-interface;
#X obj 212 401 oscformat attack\$1;
#X obj 251 382 s to-o-s-c-interface;
#X obj 251 359 oscformat decay\$1;
#X obj 290 338 s to-o-s-c-interface;
#X obj 290 315 oscformat sustain\$1;
#X obj 329 292 s to-o-s-c-interface;
#X obj 329 269 oscformat release\$1;
#X obj 96 567 s to-o-s-c-interface;
#X obj 96 544 oscformat velocity\$1;
#X obj 137 524 s to-o-s-c-interface;
#X obj 173 473 s to-o-s-c-interface;
#X obj 504 622 outlet;
#X obj 137 501 oscformat threshold\$1;
#X obj 671 292 oscformat seqtimebase\$1;
#X obj 671 313 s to-o-s-c-interface;
#X obj 756 269 s to-o-s-c-interface;
#X obj 841 225 s to-o-s-c-interface;
#X obj 841 204 oscformat seqlength\$1;
#X msg 579 134 1;
#X msg 614 134 64;
#X obj 566 97 r \$1-reset;
#X obj 891 177 s to-o-s-c-interface;
#X obj 408 198 s to-o-s-c-interface;
#X obj 369 246 s to-o-s-c-interface;
#X obj 28 89 r \$1-reset;
#X msg 28 119 0;
#X msg 60 119 1;
#X obj 369 223 oscformat adsron\$1;
#N canvas 0 23 318 363 SEQ_CLEAR____ 0;
#X obj 41 38 inlet;
#X obj 66 297 s to-o-s-c-interface;
#X msg 123 252 set seqwrite\$2 \$1;
#X obj 66 211 unpack f f;
#X obj 123 231 pack f \$1;
#X obj 66 276 oscformat;
#X obj 66 189 r \$2-seq-clear-\$1;
#X msg 41 72 64;
#X obj 41 117 until;
#X obj 41 138 i;
#X obj 66 138 + 1;
#X obj 41 93 t f b;
#X msg 79 113 0;
#X obj 41 159 t b f;
#X msg 41 180 0;
#X connect 0 0 7 0;
#X connect 2 0 5 0;
#X connect 3 0 5 0;
#X connect 3 1 4 0;
#X connect 4 0 2 0;
#X connect 5 0 1 0;
#X connect 6 0 3 0;
#X connect 7 0 11 0;
#X connect 8 0 9 0;
#X connect 9 0 10 0;
#X connect 9 0 13 0;
#X connect 10 0 9 1;
#X connect 11 0 8 0;
#X connect 11 1 12 0;
#X connect 12 0 9 1;
#X connect 13 0 14 0;
#X connect 13 1 4 0;
#X connect 14 0 5 0;
#X restore 566 168 pd SEQ_CLEAR____;
#X msg 648 132 0;
#X obj 408 175 oscformat polyphonic\$1;
#X obj 345 202 pipe 50;
#X obj 672 43 r seq-messages-\$1;
#X obj 638 358 s to-o-s-c-interface;
#X obj 638 337 oscformat seqon\$1;
#X msg 693 131 4;
#X obj 891 156 oscformat seqrandomadddrop\$1;
#X msg 729 132 0 0;
#X obj 341 136 s to-o-s-c-interface;
#X msg 104 115 0 0;
#X obj 173 450 oscformat seqrandomadddrop\$1;
#X obj 342 113 oscformat flamspreadhits\$1;
#X obj 911 127 s to-o-s-c-interface;
#X obj 756 248 oscformat seqtimebasemultiply\$1;
#X obj 672 62 route timebase timebasemultiply seqlength seqrandomadd seqcyclerest;
#X obj 911 106 oscformat seqcyclerest\$1;
#X connect 2 0 1 0;
#X connect 4 0 3 0;
#X connect 6 0 5 0;
#X connect 8 0 7 0;
#X connect 10 0 9 0;
#X connect 14 0 11 0;
#X connect 15 0 16 0;
#X connect 19 0 18 0;
#X connect 20 0 15 0;
#X connect 20 0 45 0;
#X connect 21 0 19 0;
#X connect 22 0 21 0;
#X connect 22 0 20 0;
#X connect 22 0 30 0;
#X connect 22 0 31 0;
#X connect 22 0 37 0;
#X connect 22 0 39 0;
#X connect 26 0 27 0;
#X connect 26 0 28 0;
#X connect 26 0 41 0;
#X connect 27 0 8 0;
#X connect 27 0 4 0;
#X connect 27 0 2 0;
#X connect 27 0 32 0;
#X connect 27 0 33 0;
#X connect 27 0 10 0;
#X connect 27 0 6 0;
#X connect 28 0 14 0;
#X connect 29 0 25 0;
#X connect 31 0 36 0;
#X connect 31 0 47 0;
#X connect 32 0 24 0;
#X connect 33 0 29 0;
#X connect 34 0 46 0;
#X connect 36 0 35 0;
#X connect 37 0 15 0;
#X connect 38 0 23 0;
#X connect 39 0 38 0;
#X connect 41 0 42 0;
#X connect 41 0 43 0;
#X connect 42 0 12 0;
#X connect 43 0 40 0;
#X connect 45 0 17 0;
#X connect 46 0 15 0;
#X connect 46 1 45 0;
#X connect 46 2 19 0;
#X connect 46 3 38 0;
#X connect 46 4 47 0;
#X connect 47 0 44 0;
#X restore 33 105 pd SEQUENCER_;
#N canvas 224 269 904 554 FX________ 0;
#X obj 134 17 inlet;
#X obj 412 290 pack f f;
#X obj 412 376 s to-o-s-c-interface;
#X obj 412 353 oscformat amfreqdepth\$1;
#X obj 508 329 s to-o-s-c-interface;
#X obj 430 270 t b f;
#X obj 508 306 oscformat amwave\$1;
#X obj 429 332 s formuls\$1;
#X obj 421 225 s formuls\$1;
#X obj 430 248 change;
#X msg 429 311 amfreqO;
#X msg 421 204 amdepthO;
#X obj 558 279 s to-o-s-c-interface;
#X obj 558 256 oscformat gatethresh\$1;
#X obj 605 229 s to-o-s-c-interface;
#X obj 605 206 oscformat gateattack\$1;
#X obj 654 179 s to-o-s-c-interface;
#X obj 654 156 oscformat gatehold\$1;
#X obj 702 129 s to-o-s-c-interface;
#X obj 702 106 oscformat gaterelease\$1;
#X obj 51 489 s to-o-s-c-interface;
#X obj 193 199 s to-o-s-c-interface;
#X obj 84 437 s to-o-s-c-interface;
#X obj 114 391 s to-o-s-c-interface;
#X obj 139 300 s to-o-s-c-interface;
#X obj 163 249 s to-o-s-c-interface;
#X obj 39 64 r \$1-reset;
#X obj 340 61 r \$1-reset;
#X msg 340 82 0;
#X obj 720 499 outlet;
#X obj 114 368 oscformat delay\$1;
#X msg 39 85 0 0;
#X obj 139 278 oscformat resonantfilter\$1;
#X obj 163 226 oscformat highpass\$1;
#X msg 69 85 0;
#X obj 194 175 oscformat chorus\$1;
#X obj 84 414 oscformat delaytime\$1;
#X obj 134 346 s to-o-s-c-interface;
#X obj 134 323 oscformat delayreverse\$1;
#X msg 104 86 0 1 1 0;
#X obj 346 421 s to-o-s-c-interface;
#X obj 346 398 oscformat amphasereset\$1;
#X obj 51 466 oscformat saturation\$1;
#X connect 1 0 3 0;
#X connect 3 0 2 0;
#X connect 5 0 1 0;
#X connect 5 0 10 0;
#X connect 5 1 1 1;
#X connect 6 0 4 0;
#X connect 9 0 5 0;
#X connect 10 0 7 0;
#X connect 11 0 8 0;
#X connect 13 0 12 0;
#X connect 15 0 14 0;
#X connect 17 0 16 0;
#X connect 19 0 18 0;
#X connect 26 0 31 0;
#X connect 26 0 34 0;
#X connect 26 0 39 0;
#X connect 27 0 28 0;
#X connect 28 0 11 0;
#X connect 28 0 5 0;
#X connect 28 0 1 0;
#X connect 28 0 6 0;
#X connect 28 0 13 0;
#X connect 28 0 15 0;
#X connect 28 0 17 0;
#X connect 28 0 19 0;
#X connect 28 0 41 0;
#X connect 30 0 23 0;
#X connect 31 0 30 0;
#X connect 32 0 24 0;
#X connect 33 0 25 0;
#X connect 34 0 33 0;
#X connect 34 0 35 0;
#X connect 34 0 36 0;
#X connect 34 0 38 0;
#X connect 34 0 42 0;
#X connect 35 0 21 0;
#X connect 36 0 22 0;
#X connect 38 0 37 0;
#X connect 39 0 32 0;
#X connect 41 0 40 0;
#X connect 42 0 20 0;
#X restore 33 126 pd FX________;
#X text 141 78 \$3 = formuls;
#X text 141 94 \$4 = flooper;
#N canvas 1061 86 326 831 LFO_MOD_CHAOS 0;
#X obj 37 37 inlet;
#X obj 38 188 f.util.lfoguixyreset \$1 amfreqdepth;
#X obj 38 315 f.util.lfoguireset \$1 attack;
#X obj 38 357 f.util.lfoguireset \$1 sustain;
#X obj 38 378 f.util.lfoguireset \$1 release;
#X obj 38 459 f.util.lfoguireset \$1 genrange;
#X obj 38 480 f.util.lfoguireset \$1 genstepsize;
#X obj 38 643 f.util.lfoguireset \$1 amwave;
#X obj 38 664 f.util.lfoguireset \$1 delaytime;
#X obj 38 685 f.util.lfoguireset \$1 gatethresh;
#X obj 38 706 f.util.lfoguireset \$1 reverb;
#X obj 38 761 f.util.lfoguireset \$1 panning;
#X obj 38 247 f.util.lfoguixyreset \$1 seqrandomadddrop;
#X obj 38 101 f.util.lfoguixyreset \$1 fmfreqdepth;
#X obj 38 80 f.util.lfoguixyreset \$1 oscfreqwave;
#X obj 38 143 f.util.lfoguixyreset \$1 noisefreqdepth;
#X obj 38 207 f.util.lfoguixyreset \$1 resonantfilterfreqq;
#X obj 38 227 f.util.lfoguixyreset \$1 delayfeedbacksend;
#X obj 38 603 f.util.lfoguireset \$1 chorus;
#X obj 38 623 f.util.lfoguireset \$1 saturation;
#X obj 38 267 f.util.lfoguixyreset \$1 flamspreadhits;
#X obj 38 781 f.util.lfoguireset \$1 envelopesidechain;
#X obj 38 336 f.util.lfoguireset \$1 decay;
#X obj 38 399 f.util.lfoguireset \$1 chordsize;
#X obj 38 419 f.util.lfoguireset \$1 repeat;
#X obj 38 440 f.util.lfoguireset \$1 gendirection;
#X obj 38 501 f.util.lfoguireset \$1 seqlength;
#X obj 38 522 f.util.lfoguireset \$1 seqcyclerest;
#X obj 38 541 f.util.lfoguireset \$1 seqtimebase;
#X obj 38 562 f.util.lfoguireset \$1 seqtimebasemultiply;
#X obj 38 122 f.util.lfoguixyreset \$1 oscsliderangetime;
#X obj 38 742 f.util.lfoguireset \$1 velocity;
#X restore 33 150 pd LFO_MOD_CHAOS;
#X connect 0 0 4 0;
#X connect 4 0 5 0;
#X connect 5 0 6 0;
#X connect 6 0 7 0;
#X connect 7 0 10 0;
