#N canvas 65 88 485 392 10;
#X obj 80 77 unpack f f f f f f;
#X obj 80 101 +;
#X obj 80 122 > 0;
#X obj 80 143 tgl 16 0 empty empty empty 0 -8 0 10 #fcfcfc #000000 #000000 0 1;
#X obj 122 101 +;
#X obj 122 122 > 0;
#X obj 122 143 tgl 16 0 empty empty empty 0 -8 0 10 #fcfcfc #000000 #000000 0 1;
#X obj 164 101 +;
#X obj 164 122 > 0;
#X obj 164 143 tgl 16 0 empty empty empty 0 -8 0 10 #fcfcfc #000000 #000000 0 1;
#X obj 80 164 change;
#X obj 122 164 change;
#X obj 164 164 change;
#X obj 80 205 sel 1;
#X obj 80 269 +;
#X obj 80 247 f;
#X obj 80 225 del 20;
#X obj 80 290 +;
#X obj 80 185 t f f;
#X obj 80 29 inlet;
#X obj 80 334 outlet;
#X text 135 52 Debounce Multixy input. Accepts up to three touches;
#X connect 0 0 1 0;
#X connect 0 1 1 1;
#X connect 0 2 4 0;
#X connect 0 3 4 1;
#X connect 0 4 7 0;
#X connect 0 5 7 1;
#X connect 1 0 2 0;
#X connect 2 0 3 0;
#X connect 3 0 10 0;
#X connect 4 0 5 0;
#X connect 5 0 6 0;
#X connect 6 0 11 0;
#X connect 7 0 8 0;
#X connect 8 0 9 0;
#X connect 9 0 12 0;
#X connect 10 0 18 0;
#X connect 11 0 14 1;
#X connect 12 0 17 1;
#X connect 13 0 16 0;
#X connect 14 0 17 0;
#X connect 15 0 14 0;
#X connect 16 0 15 0;
#X connect 17 0 20 0;
#X connect 18 0 13 0;
#X connect 18 1 15 1;
#X connect 19 0 0 0;
