#N canvas 43 114 403 291 12;
#X declare -path abstractions;
#X obj 251 74 tgl 15 0 empty empty empty 17 7 0 10 -262144 -1 -1 0
1;
#X obj 251 124 s active;
#X msg 251 94 active \$1;
#N canvas 182 311 482 466 notes 0;
#X obj 54 5 tgl 15 0 empty empty empty 17 7 0 10 -262144 -1 -1 0 1
;
#X obj 54 51 i;
#X obj 81 52 + 1;
#X obj 51 409 print formuls says;
#X msg 51 379 IT'S FORMULS BAYBEE!;
#X msg 67 355 THIS CODE TOOK AGES TO WRITE!;
#X msg 88 331 NOW MY WRIST HAS RSI;
#X msg 107 309 BUT IT SOUNDS QUITE GOOD;
#X msg 123 285 VISIT FORMULS.CO.UK--IT'S THE BEST!;
#X msg 141 262 I MIGHT RELEASE ANOTHER ALBUM SOON;
#X msg 154 236 AND IT'LL BE DAMN NOISIER THAN THIS LULLABY;
#X msg 177 211 MAN I COULD MURDER A BEER RIGHT NOW;
#X msg 196 188 TRIPPY!;
#X obj 55 28 metro 3000;
#X obj 54 97 sel 1 2 3 4 5 6 7 8 9 10;
#X msg 205 164 I'M ALL GROWN UP NOW. I USE GITHUB;
#X obj 54 74 mod 11;
#X msg 115 50 0;
#X connect 0 0 13 0;
#X connect 1 0 2 0;
#X connect 1 0 16 0;
#X connect 2 0 1 1;
#X connect 4 0 3 0;
#X connect 5 0 3 0;
#X connect 6 0 3 0;
#X connect 7 0 3 0;
#X connect 8 0 3 0;
#X connect 10 0 3 0;
#X connect 11 0 3 0;
#X connect 12 0 3 0;
#X connect 13 0 1 0;
#X connect 14 0 4 0;
#X connect 14 1 5 0;
#X connect 14 2 6 0;
#X connect 14 3 7 0;
#X connect 14 4 8 0;
#X connect 14 5 9 0;
#X connect 14 6 10 0;
#X connect 14 7 11 0;
#X connect 14 8 12 0;
#X connect 14 9 15 0;
#X connect 15 0 3 0;
#X connect 16 0 14 0;
#X connect 17 0 1 1;
#X restore 254 174 pd notes;
#N canvas 0 23 450 300 ABLETON_LINK________ 0;
#N canvas 0 23 450 300 link 0;
#X floatatom 165 111 5 0 0 1 beat_time - -;
#X obj 167 138 s link;
#X obj 100 42 abl_link~ 1 0 4 110;
#X msg 312 49 tempo \$1;
#X floatatom 312 30 5 0 0 2 tempo - -;
#X obj 199 16 inlet;
#X obj 165 90 spigot 1;
#X obj 201 72 r master-seq-on-off;
#X connect 0 0 1 0;
#X connect 2 2 6 0;
#X connect 3 0 2 0;
#X connect 4 0 3 0;
#X connect 5 0 4 0;
#X connect 6 0 0 0;
#X connect 7 0 6 1;
#X restore 22 61 pd link;
#X floatatom 22 38 5 0 0 2 tempo - -;
#X connect 1 0 0 0;
#X restore 35 129 pd ABLETON_LINK________;
#N canvas 0 191 242 132 GLOBAL_OSC_IN_______ 0;
#N canvas 382 41 848 743 GLOBAL_MESSAGES_RECEIVE___ 0;
#X obj 55 692 s \$0-bpm;
#X obj 89 576 s \$0-tempolock;
#X obj 226 401 s automateRecord;
#X obj 226 378 tgl 15 0 empty empty empty 17 7 0 10 -262144 -1 -1 0
1;
#X msg 328 301 0;
#X obj 328 323 s masterSync;
#X obj 744 712 outlet;
#X obj 260 375 s holdx;
#X obj 260 354 == 0;
#X obj 294 325 == 0;
#X obj 294 347 s holdy;
#X obj 346 281 s swingAmount;
#X obj 355 234 s fade-out-time;
#X obj 36 68 spigot 0;
#X obj 81 46 r OSC-monitor;
#X obj 36 90 print OSC-in;
#X obj 355 187 + 16000;
#X obj 355 165 * 44000;
#X obj 355 209 i;
#X obj 346 257 * 0.083;
#X obj 123 557 s \$0-master-amp;
#X obj 157 532 s \$0-master-fx;
#N canvas 952 281 120 99 automate-record-interface 0;
#X obj 21 12 tgl 70 0 automateRecord empty RECORD 17 7 0 10 -258113
-4160 -1 0 1;
#X restore 490 41 pd automate-record-interface;
#X obj 582 405 s master-seq-on-off;
#N canvas 0 23 563 604 sampler-messages 0;
#X obj 44 72 route sampler-play sampler-fx sampler-random-dropout sampler-repeat-pitch
sampler-duration-envelope;
#X obj 44 483 s sampler-play;
#X obj 116 462 s sampler-fx;
#X obj 327 254 s sampler-repeat;
#X obj 260 273 s sampler-pitch;
#X obj 255 372 s sampler-random;
#X obj 188 441 s sampler-dropout;
#X obj 399 159 s sampler-duration;
#X obj 332 178 s sampler-envelope;
#X obj 188 373 * 100;
#X msg 188 395 100 \$1;
#X obj 188 417 -;
#X obj 399 138 max 0.01;
#X obj 327 232 * 100;
#X obj 260 251 * 100;
#X obj 228 231 * 4;
#X obj 228 253 + 1;
#X obj 228 275 i;
#X obj 228 297 change;
#X obj 228 319 s sampler-pitch-rand;
#X obj 188 351 flib.util.xyunpack;
#X obj 260 203 flib.util.xyunpack;
#X obj 332 115 flib.util.xyunpack;
#X obj 444 537 outlet;
#X obj 44 24 inlet;
#X connect 0 0 1 0;
#X connect 0 1 2 0;
#X connect 0 2 20 0;
#X connect 0 3 21 0;
#X connect 0 4 22 0;
#X connect 0 5 23 0;
#X connect 9 0 10 0;
#X connect 10 0 11 0;
#X connect 11 0 6 0;
#X connect 12 0 7 0;
#X connect 13 0 3 0;
#X connect 14 0 4 0;
#X connect 15 0 16 0;
#X connect 16 0 17 0;
#X connect 17 0 18 0;
#X connect 18 0 19 0;
#X connect 20 0 9 0;
#X connect 20 1 5 0;
#X connect 21 0 14 0;
#X connect 21 0 15 0;
#X connect 21 1 13 0;
#X connect 22 0 8 0;
#X connect 22 1 12 0;
#X connect 24 0 0 0;
#X restore 578 222 pd sampler-messages;
#N canvas 773 321 649 392 scale-selector 0;
#X msg 67 197 1;
#X msg 106 197 2;
#X obj 27 170 sel 1;
#X obj 65 170 sel 1;
#X obj 106 170 sel 1;
#X msg 27 197 0;
#X obj 143 170 sel 1;
#X obj 181 170 sel 1;
#X obj 222 170 sel 1;
#X obj 261 170 sel 1;
#X obj 299 170 sel 1;
#X obj 340 170 sel 1;
#X obj 378 170 sel 1;
#X obj 416 170 sel 1;
#X obj 457 170 sel 1;
#X msg 143 197 3;
#X msg 183 197 4;
#X msg 222 197 5;
#X msg 261 197 6;
#X msg 301 197 7;
#X msg 340 197 8;
#X msg 379 197 9;
#X msg 418 197 10;
#X msg 457 197 11;
#X obj 498 170 sel 1;
#X msg 498 197 12;
#X obj 27 92 route 1;
#X obj 27 135 route 1 2 3 4 5 6 7 8 9 10 11 12 13;
#X obj 27 52 inlet;
#X obj 401 117 r f-loadbang;
#X obj 27 291 s scale-root-note;
#X obj 27 72 flib.util.s2f;
#X obj 27 114 flib.util.s2f;
#X obj 27 250 flib.seq.automater \$0 \$0-scale-root-note;
#X connect 0 0 33 0;
#X connect 1 0 33 0;
#X connect 2 0 5 0;
#X connect 3 0 0 0;
#X connect 4 0 1 0;
#X connect 5 0 33 0;
#X connect 6 0 15 0;
#X connect 7 0 16 0;
#X connect 8 0 17 0;
#X connect 9 0 18 0;
#X connect 10 0 19 0;
#X connect 11 0 20 0;
#X connect 12 0 21 0;
#X connect 13 0 22 0;
#X connect 14 0 23 0;
#X connect 15 0 33 0;
#X connect 16 0 33 0;
#X connect 17 0 33 0;
#X connect 18 0 33 0;
#X connect 19 0 33 0;
#X connect 20 0 33 0;
#X connect 21 0 33 0;
#X connect 22 0 33 0;
#X connect 23 0 33 0;
#X connect 24 0 25 0;
#X connect 25 0 33 0;
#X connect 26 0 32 0;
#X connect 27 0 2 0;
#X connect 27 1 3 0;
#X connect 27 2 4 0;
#X connect 27 3 6 0;
#X connect 27 4 7 0;
#X connect 27 5 8 0;
#X connect 27 6 9 0;
#X connect 27 7 10 0;
#X connect 27 8 11 0;
#X connect 27 9 12 0;
#X connect 27 10 13 0;
#X connect 27 11 14 0;
#X connect 27 12 24 0;
#X connect 28 0 31 0;
#X connect 29 0 5 0;
#X connect 31 0 26 0;
#X connect 32 0 27 0;
#X connect 33 0 30 0;
#X restore 578 331 pd scale-selector;
#N canvas 193 23 729 826 fx-router 0;
#X obj 28 16 inlet;
#X obj 63 548 * 0.9;
#X obj 46 659 r \$0-delay-time-pre;
#X obj 28 731 *;
#N canvas 928 551 310 327 delay-time-base-parse 0;
#X obj 43 17 inlet;
#X obj 43 293 outlet;
#X obj 43 97 i;
#X obj 43 75 * 7;
#X msg 43 117 8 \$1;
#X obj 43 139 -;
#X connect 0 0 3 0;
#X connect 2 0 4 0;
#X connect 3 0 2 0;
#X connect 4 0 5 0;
#X connect 5 0 1 0;
#X restore 28 638 pd delay-time-base-parse;
#X obj 28 753 s \$0-delay-time;
#X obj 63 592 s \$0-delay-feedback;
#X obj 98 526 s \$0-delay-amount;
#X obj 556 760 outlet;
#X obj 275 396 * 1000;
#X obj 310 340 s \$0-freqshift-amount;
#X obj 275 418 s \$0-freqshift-freq;
#X obj 371 204 i;
#X obj 371 182 * 64;
#X obj 371 226 ctlout 10;
#X obj 28 73 route delay-time delay-feedback delay-amount chorus-rate
chorus-amount phaser-rate phaser-amount freqshift-freq freqshift-amount
saturation-amount reverb;
#X obj 46 681 t b f;
#X obj 28 44 route fx;
#X obj 73 704 / 8;
#X obj 28 705 f 1;
#X obj 371 160 flib.seq.automater \$0 \$0-reverb;
#X obj 310 318 flib.seq.automater \$0 \$0-freqshift-amount;
#X obj 275 374 flib.seq.automater \$0 \$0-freqshift-freq;
#X obj 98 504 flib.seq.automater \$0 \$0-delay-amount;
#X obj 63 570 flib.seq.automater \$0 \$0-delay-feedback;
#X obj 28 616 flib.seq.automater \$0 \$0-delay-time;
#X connect 0 0 17 0;
#X connect 1 0 24 0;
#X connect 2 0 16 0;
#X connect 3 0 5 0;
#X connect 4 0 19 0;
#X connect 9 0 11 0;
#X connect 12 0 14 0;
#X connect 13 0 12 0;
#X connect 15 0 25 0;
#X connect 15 1 1 0;
#X connect 15 2 23 0;
#X connect 15 7 22 0;
#X connect 15 8 21 0;
#X connect 15 10 20 0;
#X connect 16 0 19 0;
#X connect 16 1 18 0;
#X connect 17 0 15 0;
#X connect 17 1 8 0;
#X connect 18 0 3 1;
#X connect 19 0 3 0;
#X connect 20 0 13 0;
#X connect 21 0 10 0;
#X connect 22 0 9 0;
#X connect 23 0 7 0;
#X connect 24 0 6 0;
#X connect 25 0 4 0;
#X restore 578 262 pd fx-router;
#X obj 578 288 route scale-selector pitch-gamut;
#N canvas 921 91 519 732 pitch-gamut-parse 0;
#X obj 72 12 inlet;
#X obj 72 88 route 1;
#X obj 72 153 t b a;
#X obj 71 676 s pitch-gamut;
#X msg 72 132 \$1 \$2;
#X msg 168 92 1 1 \, 3 1 \, 4 1 \, 8 1 \, 9 1;
#X msg 168 72 1 1 \, 3 1 \, 4 1 \, 8 1 \, 9 0;
#X msg 168 53 1 1 \, 3 1 \, 4 1 \, 8 0 \, 9 0;
#X obj 84 612 list length;
#X obj 84 654 s pitch-gamut-length;
#X obj 84 634 max 1;
#X obj 112 179 s \$0-pitch-gamut-gui;
#X obj 72 64 flib.util.s2f;
#X obj 72 111 flib.util.s2f;
#N canvas 0 22 474 651 DEPRECATED 0;
#X obj 44 237 array set master-pitch-gamut;
#X obj 44 43 unpack f f;
#X obj 44 65 - 1;
#X obj 72 152 + 12;
#X obj 44 131 until;
#X obj 44 152 f;
#X msg 78 109 0;
#X obj 44 87 t b b f;
#X obj 44 173 +;
#X obj 44 216 f;
#X obj 44 194 t b f;
#X msg 44 109 11;
#X obj 267 169 array set master-pitch-gamut;
#X obj 267 79 unpack f f;
#X obj 267 101 - 1;
#X obj 267 148 f;
#X obj 267 126 t b f;
#X obj 73 442 until;
#X obj 73 463 f;
#X obj 98 462 + 1;
#X obj 112 531 array get master-pitch-gamut;
#X msg 105 422 0;
#X msg 194 510 1;
#X obj 112 509 t f f;
#X obj 112 576 f;
#X obj 112 618 list;
#X obj 112 597 list prepend;
#X obj 112 552 sel 1;
#X obj 73 395 t b b b b;
#X msg 73 421 13;
#X obj 73 488 sel 12;
#X connect 1 0 2 0;
#X connect 1 1 9 1;
#X connect 2 0 7 0;
#X connect 3 0 5 1;
#X connect 4 0 5 0;
#X connect 5 0 3 0;
#X connect 5 0 8 0;
#X connect 6 0 5 1;
#X connect 7 0 11 0;
#X connect 7 1 6 0;
#X connect 7 2 8 1;
#X connect 8 0 10 0;
#X connect 9 0 0 0;
#X connect 10 0 9 0;
#X connect 10 1 0 1;
#X connect 11 0 4 0;
#X connect 13 0 14 0;
#X connect 13 1 15 1;
#X connect 14 0 16 0;
#X connect 15 0 12 0;
#X connect 16 0 15 0;
#X connect 16 1 12 1;
#X connect 17 0 18 0;
#X connect 18 0 19 0;
#X connect 18 0 30 0;
#X connect 19 0 18 1;
#X connect 20 0 27 0;
#X connect 21 0 18 1;
#X connect 22 0 20 1;
#X connect 23 0 20 0;
#X connect 23 1 24 1;
#X connect 24 0 26 0;
#X connect 25 0 26 1;
#X connect 26 0 25 0;
#X connect 27 0 24 0;
#X connect 28 0 29 0;
#X connect 28 1 21 0;
#X connect 28 2 22 0;
#X connect 28 3 26 1;
#X connect 28 3 25 1;
#X connect 29 0 17 0;
#X connect 30 1 23 0;
#X restore 356 34 pd DEPRECATED;
#X obj 99 283 array set master-pitch-gamut;
#X obj 99 198 unpack f f;
#X obj 99 220 - 1;
#X obj 99 262 f;
#X obj 99 240 t b f;
#X obj 279 283 array define master-pitch-gamut 12;
#X obj 72 310 array get master-pitch-gamut;
#X obj 72 365 until;
#X obj 72 473 list store;
#X obj 72 390 f;
#X obj 99 390 + 1;
#X msg 112 364 0, f 2;
#X msg 72 454 get \$1 1;
#X obj 72 411 t f f;
#X obj 72 516 f;
#X obj 99 433 + 1;
#X obj 72 494 sel 1;
#X obj 72 332 t b b l b, f 12;
#X obj 71 582 list;
#X obj 112 494 del 1;
#X obj 72 537 list prepend;
#X obj 72 558 t a a;
#X msg 169 112 1 1 \, 2 1 \, 3 1 \, 4 1 \, 7 1 \, 8 1 \, 10 1 \, 11
1;
#X msg 169 132 1 1 \, 2 0 \, 3 0 \, 4 1 \, 7 1 \, 8 1 \, 10 1 \, 11
1;
#X connect 0 0 12 0;
#X connect 1 0 13 0;
#X connect 2 0 21 0;
#X connect 2 1 11 0;
#X connect 2 1 16 0;
#X connect 4 0 2 0;
#X connect 5 0 2 0;
#X connect 6 0 2 0;
#X connect 7 0 2 0;
#X connect 8 0 10 0;
#X connect 10 0 9 0;
#X connect 12 0 1 0;
#X connect 13 0 4 0;
#X connect 16 0 17 0;
#X connect 16 1 18 1;
#X connect 17 0 19 0;
#X connect 18 0 15 0;
#X connect 19 0 18 0;
#X connect 19 1 15 1;
#X connect 21 0 32 0;
#X connect 22 0 24 0;
#X connect 23 0 31 0;
#X connect 23 1 22 1;
#X connect 23 1 34 0;
#X connect 24 0 25 0;
#X connect 24 0 28 0;
#X connect 25 0 24 1;
#X connect 26 0 24 1;
#X connect 27 0 23 0;
#X connect 28 0 27 0;
#X connect 28 1 30 0;
#X connect 29 0 35 0;
#X connect 30 0 29 1;
#X connect 31 0 29 0;
#X connect 32 0 22 0;
#X connect 32 1 26 0;
#X connect 32 2 23 1;
#X connect 32 3 35 1;
#X connect 33 0 8 0;
#X connect 33 0 3 0;
#X connect 34 0 33 0;
#X connect 35 0 36 0;
#X connect 36 0 33 1;
#X connect 36 0 35 1;
#X connect 36 1 35 1;
#X connect 37 0 2 0;
#X connect 38 0 2 0;
#X restore 688 312 pd pitch-gamut-parse;
#N canvas 533 469 797 326 evolution+feedback 0;
#X obj 19 212 s evolution-active;
#X obj 154 165 i;
#X obj 19 75 route evolution-activate evolution-time;
#X obj 154 100 pow 1.8;
#X obj 154 208 s evolution-time;
#X obj 423 102 s jump-active;
#X obj 319 101 s set-value;
#X obj 154 144 + 15;
#X obj 154 122 * 105;
#X obj 154 187 * 1000;
#X obj 179 232 s \$0-evolution-time-label;
#X obj 20 25 inlet;
#X obj 601 283 outlet;
#X obj 520 163 s master-noise;
#X obj 520 104 flib.seq.automater \$0 \$0-master-noise;
#X obj 319 74 route set-value jump-active masternoise;
#X obj 520 142 specific.rescale 2.7 1 0;
#X connect 1 0 9 0;
#X connect 1 0 10 0;
#X connect 2 0 0 0;
#X connect 2 1 3 0;
#X connect 2 2 15 0;
#X connect 3 0 8 0;
#X connect 7 0 1 0;
#X connect 8 0 7 0;
#X connect 9 0 4 0;
#X connect 11 0 2 0;
#X connect 14 0 16 0;
#X connect 15 0 6 0;
#X connect 15 1 5 0;
#X connect 15 2 14 0;
#X connect 15 3 12 0;
#X connect 16 0 13 0;
#X restore 578 196 pd evolution+feedback;
#X obj 558 406 tgl 15 0 empty empty empty 17 7 0 10 -262144 -1 -1 0
1;
#X obj 184 460 flib.seq.automater \$0 \$0-master-reverb;
#X obj 55 593 / 240;
#X obj 55 652 * 240;
#X obj 55 673 i;
#X obj 55 613 flib.seq.automater \$0 \$0-bpm 1;
#X floatatom 218 558 5 0 0 0 - - -;
#N canvas 718 509 450 300 MESSAGE_OUT 0;
#X obj 72 57 inlet;
#X obj 72 99 list trim;
#X obj 72 78 list prepend send master-reverb;
#X obj 72 119 s \$0-FAUST_MESSAGES;
#X connect 0 0 2 0;
#X connect 1 0 3 0;
#X connect 2 0 1 0;
#X restore 184 504 pd MESSAGE_OUT;
#X obj 21 719 specific.masterkey \$0;
#X obj 184 483 specific.rescale 2.7 1 0;
#X obj 582 384 route masterseqon;
#X obj 21 19 r o-s-c-messages;
#X text 665 263 <- deprecated???;
#X obj 21 111 route key bpm tempo-hold master-amp masterfx masterreverb
recordglobal xhold yhold sync swing-amount fade-out-time;
#X obj 434 92 route evenglobal;
#X obj 434 118 s evenglobal;
#X connect 3 0 2 0;
#X connect 4 0 5 0;
#X connect 8 0 7 0;
#X connect 9 0 10 0;
#X connect 13 0 15 0;
#X connect 14 0 13 1;
#X connect 16 0 18 0;
#X connect 17 0 16 0;
#X connect 18 0 12 0;
#X connect 19 0 11 0;
#X connect 24 0 26 0;
#X connect 26 0 27 0;
#X connect 27 0 25 0;
#X connect 27 1 28 0;
#X connect 27 2 40 0;
#X connect 29 0 24 0;
#X connect 30 0 23 0;
#X connect 31 0 39 0;
#X connect 32 0 35 0;
#X connect 33 0 34 0;
#X connect 34 0 0 0;
#X connect 35 0 33 0;
#X connect 36 0 20 0;
#X connect 39 0 37 0;
#X connect 40 0 23 0;
#X connect 40 1 6 0;
#X connect 41 0 13 0;
#X connect 41 0 43 0;
#X connect 43 0 38 0;
#X connect 43 1 32 0;
#X connect 43 2 1 0;
#X connect 43 3 20 0;
#X connect 43 4 21 0;
#X connect 43 5 31 0;
#X connect 43 6 3 0;
#X connect 43 7 8 0;
#X connect 43 8 9 0;
#X connect 43 9 4 0;
#X connect 43 10 19 0;
#X connect 43 11 17 0;
#X connect 43 12 44 0;
#X connect 44 0 45 0;
#X connect 44 1 29 0;
#X restore 20 41 pd GLOBAL_MESSAGES_RECEIVE___;
#N canvas 62 160 1193 585 GLOBAL_MESSAGES__SEND_____ 0;
#X obj 37 76 r \$0-beat-gui;
#X obj 37 98 oscformat beat;
#X obj 175 76 r automateRecord;
#X obj 175 98 oscformat automation-record;
#X obj 410 116 oscformat evolution-activate;
#X obj 410 94 r evolution-active;
#X obj 40 12 inlet;
#X obj 655 72 r \$0-delay-time-gui;
#X obj 815 72 r \$0-delay-feedback-gui;
#X obj 815 94 oscformat delay-feedback;
#X obj 1004 71 r \$0-delay-amount-gui;
#X obj 1004 93 oscformat delay-amount;
#X obj 655 158 r \$0-freqshift-amount-gui;
#X obj 655 180 oscformat freqshift-amount;
#X obj 655 94 oscformat delay-time;
#X obj 58 471 r \$0-visul-preset;
#X obj 58 519 oscformat formuls-visuals scene-number;
#X obj 58 493 + 0;
#X obj 407 166 r \$0-evolution-gui;
#X obj 407 188 oscformat evolution-gui;
#X obj 407 252 r master-seq-on-off;
#X obj 407 274 oscformat master-seq-on-off;
#X obj 25 226 r \$0-scale-root-note-gui;
#X obj 210 245 r \$0-pitch-gamut-gui;
#X msg 210 267 \$1 \$2;
#X obj 210 289 oscformat pitch-gamut;
#X obj 412 71 s OSC-out;
#X obj 412 27 r \$0-evolution-time-label;
#X obj 412 49 oscformat evolution-time-label;
#X obj 25 290 oscformat key;
#X msg 25 268 1 \$1 1;
#X obj 25 247 + 1;
#X obj 37 120 s OSC-out-global;
#X obj 175 120 s OSC-out-global;
#X obj 410 138 s OSC-out-global;
#X obj 655 116 s OSC-out-global;
#X obj 815 116 s OSC-out-global;
#X obj 1004 115 s OSC-out-global;
#X obj 407 210 s OSC-out-global;
#X obj 407 296 s OSC-out-global;
#X obj 210 311 s OSC-out-global;
#X obj 25 312 s OSC-out-global;
#X obj 58 541 s OSC-out-global;
#X obj 655 202 s OSC-out-global;
#X obj 37 190 s OSC-out-global;
#X obj 37 168 oscformat bpm;
#X obj 351 464 s OSC-out-global;
#X obj 351 420 r \$0-visual-noise-gui;
#X obj 351 442 oscformat formuls-visuals noise;
#X obj 551 464 s OSC-out-global;
#X obj 551 420 r \$0-visual-chaos-gui;
#X obj 551 442 oscformat formuls-visuals chaos;
#X obj 836 200 s OSC-out-global;
#X obj 836 156 r \$0-master-reverb-gui;
#X obj 836 178 oscformat master-reverb;
#X obj 1008 193 s OSC-out-global;
#X obj 1008 171 oscformat master-feedback;
#X obj 767 463 s OSC-out-global;
#X obj 767 419 r \$0-visual-sensitivity-gui;
#X obj 767 441 oscformat formuls-visuals sensitivity;
#X obj 37 146 r \$0-bpm;
#X obj 1008 150 r \$0-master-noise-gui;
#X connect 0 0 1 0;
#X connect 1 0 32 0;
#X connect 2 0 3 0;
#X connect 3 0 33 0;
#X connect 4 0 34 0;
#X connect 5 0 4 0;
#X connect 7 0 14 0;
#X connect 8 0 9 0;
#X connect 9 0 36 0;
#X connect 10 0 11 0;
#X connect 11 0 37 0;
#X connect 12 0 13 0;
#X connect 13 0 43 0;
#X connect 14 0 35 0;
#X connect 15 0 17 0;
#X connect 16 0 42 0;
#X connect 17 0 16 0;
#X connect 18 0 19 0;
#X connect 19 0 38 0;
#X connect 20 0 21 0;
#X connect 21 0 39 0;
#X connect 22 0 31 0;
#X connect 23 0 24 0;
#X connect 24 0 25 0;
#X connect 25 0 40 0;
#X connect 27 0 28 0;
#X connect 28 0 26 0;
#X connect 29 0 41 0;
#X connect 30 0 29 0;
#X connect 31 0 30 0;
#X connect 45 0 44 0;
#X connect 47 0 48 0;
#X connect 48 0 46 0;
#X connect 50 0 51 0;
#X connect 51 0 49 0;
#X connect 53 0 54 0;
#X connect 54 0 52 0;
#X connect 56 0 55 0;
#X connect 58 0 59 0;
#X connect 59 0 57 0;
#X connect 60 0 45 0;
#X connect 61 0 56 0;
#X restore 20 67 pd GLOBAL_MESSAGES__SEND_____;
#X connect 0 0 1 0;
#X restore 35 106 pd GLOBAL_OSC_IN_______;
#N canvas 0 23 450 300 OSCRECEIVE__________ 0;
#X msg 22 51 listen 8888;
#X obj 22 74 netreceive -u -b;
#X obj 22 97 oscparse;
#X obj 22 120 list trim;
#X obj 22 29 loadbang;
#X obj 22 143 s o-s-c-messages;
#X obj 199 60 print;
#X connect 0 0 1 0;
#X connect 1 0 2 0;
#X connect 2 0 3 0;
#X connect 3 0 5 0;
#X connect 4 0 0 0;
#X restore 35 83 pd OSCRECEIVE__________;
#N canvas 4 177 459 271 OSC_OUT_____________ 0;
#X obj 88 130 r to-o-s-c-interface;
#X obj 88 151 list prepend send;
#X obj 88 172 list trim;
#X obj 88 193 netsend -u -b;
#X msg 268 81 connect 127.0.0.1 8889;
#X msg 277 116 disconnect;
#X obj 266 44 inlet;
#X connect 0 0 1 0;
#X connect 1 0 2 0;
#X connect 2 0 3 0;
#X connect 4 0 3 0;
#X connect 5 0 3 0;
#X connect 6 0 4 0;
#X restore 35 173 pd OSC_OUT_____________;
#X obj 205 174 tgl 15 0 empty empty empty 17 7 0 10 -262144 -1 -1 0
1;
#N canvas 666 294 440 500 FORMULS_____________ 0;
#X obj 104 370 dac~;
#X floatatom 201 309 5 0 99 0 - - -;
#X obj 45 268 catch~ \$0-l;
#X obj 154 265 catch~ \$0-r;
#X obj 139 333 rev3~ 100 90 3000 20;
#N canvas 0 23 465 690 compressor 0;
#X obj 28 28 inlet~;
#X obj 176 20 inlet~;
#X obj 27 543 outlet~;
#X obj 177 544 outlet~;
#X obj 58 71 hip~ 5;
#X obj 121 71 hip~ 5;
#X obj 58 97 *~;
#X obj 120 98 *~;
#X obj 87 158 +~;
#X obj 87 281 rmstodb~;
#X obj 86 353 dbtorms~;
#X obj 27 484 *~;
#X obj 177 484 *~;
#X obj 25 272 /~;
#X obj 178 270 /~;
#X obj 201 390 dbtorms;
#X obj 86 417 /~ 0;
#X obj 86 197 sqrt~;
#X obj 86 442 *~ 0.25;
#X obj 310 55 loadbang;
#X obj 27 514 expr~ tanh($v1);
#X obj 177 514 expr~ tanh($v1);
#X obj 310 79 f 48;
#X obj 87 233 lop~ 10;
#X obj 120 123 lop~ 10;
#X obj 57 124 lop~ 10;
#X obj 86 314 expr~ if($v1>$f2 \, $f2+($v1-$f2)/4 \, $f2);
#X obj 202 367 expr (100-$f1)/4+$f1;
#X obj 315 445 env~;
#X obj 315 466 dbtorms;
#X floatatom 315 487 5 0 0 0 - - -;
#X obj 288 536 env~;
#X obj 288 557 dbtorms;
#X floatatom 288 578 5 0 0 0 - - -;
#X connect 0 0 4 0;
#X connect 0 0 13 0;
#X connect 1 0 5 0;
#X connect 1 0 14 0;
#X connect 4 0 6 0;
#X connect 4 0 6 1;
#X connect 5 0 7 0;
#X connect 5 0 7 1;
#X connect 6 0 25 0;
#X connect 7 0 24 0;
#X connect 8 0 17 0;
#X connect 9 0 26 0;
#X connect 10 0 16 0;
#X connect 11 0 20 0;
#X connect 12 0 21 0;
#X connect 13 0 11 0;
#X connect 14 0 12 0;
#X connect 15 0 16 1;
#X connect 16 0 18 0;
#X connect 17 0 23 0;
#X connect 18 0 11 1;
#X connect 18 0 12 1;
#X connect 18 0 28 0;
#X connect 19 0 22 0;
#X connect 20 0 2 0;
#X connect 21 0 31 0;
#X connect 21 0 3 0;
#X connect 22 0 26 1;
#X connect 22 0 27 0;
#X connect 23 0 13 1;
#X connect 23 0 14 1;
#X connect 23 0 9 0;
#X connect 24 0 8 1;
#X connect 25 0 8 0;
#X connect 26 0 10 0;
#X connect 27 0 15 0;
#X connect 28 0 29 0;
#X connect 29 0 30 0;
#X connect 31 0 32 0;
#X connect 32 0 33 0;
#X restore 16 332 pd compressor;
#X obj 227 420 writesf~ 2;
#X msg 274 332 start;
#X msg 324 343 stop;
#X msg 269 376 open thenew4.wav;
#X obj 268 233 -catch~ out2;
#X obj 18 198 throw~ \$0-l;
#X obj 139 198 throw~ \$0-r;
#N canvas 0 23 380 326 AUDIO_RECEIVES__________ 0;
#X obj 49 77 r~ 1-l;
#X obj 171 74 r~ 1-r;
#X obj 59 98 r~ 2-l;
#X obj 180 94 r~ 2-r;
#X obj 68 119 r~ 3-l;
#X obj 187 114 r~ 3-r;
#X obj 78 139 r~ 4-l;
#X obj 88 160 r~ 5-l;
#X obj 97 181 r~ 6-l;
#X obj 98 200 r~ 7-l;
#X obj 107 221 r~ 8-l;
#X obj 197 134 r~ 4-r;
#X obj 206 154 r~ 5-r;
#X obj 213 174 r~ 6-r;
#X obj 216 194 r~ 7-r;
#X obj 223 214 r~ 8-r;
#X obj 49 258 outlet~;
#X obj 170 258 outlet~;
#X text 6 24 receive audio sends from formulssynth~ abstraction;
#X connect 0 0 16 0;
#X connect 1 0 17 0;
#X connect 2 0 16 0;
#X connect 3 0 17 0;
#X connect 4 0 16 0;
#X connect 5 0 17 0;
#X connect 6 0 16 0;
#X connect 7 0 16 0;
#X connect 8 0 16 0;
#X connect 9 0 16 0;
#X connect 10 0 16 0;
#X connect 11 0 17 0;
#X connect 12 0 17 0;
#X connect 13 0 17 0;
#X connect 14 0 17 0;
#X connect 15 0 17 0;
#X restore 18 166 pd AUDIO_RECEIVES__________;
#X obj 18 35 specific.formuls~ \$0 1;
#X obj 18 55 specific.formuls~ \$0 2;
#X obj 18 75 specific.formuls~ \$0 3;
#X obj 18 95 specific.formuls~ \$0 4;
#X obj 18 115 specific.formuls~ \$0 5;
#X obj 18 135 specific.formuls~ \$0 6;
#X connect 1 0 4 2;
#X connect 2 0 4 0;
#X connect 2 0 0 0;
#X connect 3 0 4 1;
#X connect 3 0 0 1;
#X connect 4 0 0 0;
#X connect 4 0 6 0;
#X connect 4 1 0 1;
#X connect 4 1 6 1;
#X connect 5 0 0 0;
#X connect 5 0 6 0;
#X connect 5 1 0 1;
#X connect 5 1 6 1;
#X connect 7 0 6 0;
#X connect 8 0 6 0;
#X connect 9 0 6 0;
#X connect 10 0 4 0;
#X connect 10 0 4 1;
#X connect 10 0 6 0;
#X connect 10 0 6 1;
#X connect 10 0 5 1;
#X connect 10 0 5 0;
#X connect 13 0 11 0;
#X connect 13 1 12 0;
#X restore 35 152 pd FORMULS_____________;
#N canvas 59 109 362 242 INIT________________ 0;
#X obj 23 77 loadbang;
#X obj 23 119 s faust-value-read;
#X obj 23 98 metro 100;
#X obj 157 118 bng 15 250 50 0 empty empty empty 17 7 0 10 -262144
-1 -1;
#X obj 25 44 declare -path abstractions;
#X connect 0 0 2 0;
#X connect 2 0 1 0;
#X connect 2 0 3 0;
#X restore 35 61 pd INIT________________;
#X text 78 12 FORMULS;
#X connect 0 0 2 0;
#X connect 2 0 1 0;
#X connect 8 0 7 0;
