#N canvas 974 172 248 133 12;
#X declare -path abstractions;
#X obj 158 40 loadbang;
#X msg 158 64 \; pd dsp 1;
#N canvas 0 54 274 312 MESSAGE_RECEIVE 0;
#X msg 58 94 listen 51984;
#X obj 58 29 loadbang;
#X obj 58 63 del 1000;
#X obj 58 125 netreceive;
#X obj 111 197 s \$0-formuls;
#X obj 58 159 route pd;
#X msg 58 242 \; pd quit;
#X connect 0 0 3 0;
#X connect 1 0 2 0;
#X connect 2 0 0 0;
#X connect 3 0 5 0;
#X connect 5 0 6 0;
#X connect 5 1 4 0;
#X restore 16 46 pd MESSAGE_RECEIVE;
#X obj 20 16 declare -path abstractions;
#N canvas 661 272 286 306 AUDIO__________ 0;
#X obj 66 80 f.formuls~ 1;
#X obj 66 104 f.formuls~ 2;
#X obj 66 128 f.formuls~ 3;
#X obj 66 152 f.formuls~ 4;
#X obj 66 176 f.formuls~ 5;
#X obj 66 200 f.formuls~ 6;
#X obj 66 48 r \$0-formuls;
#N canvas 823 411 453 300 MASTER_BUS_FX_+_AUDIO_OUT 0;
#X obj 162 193 dac~ 1 2 3 4, f 28;
#X obj 39 28 inlet;
#X obj 39 106 route reverbbypass;
#X obj 39 230 s \$0-reverb-bypass;
#X obj 39 82 route fmasterbusfx;
#N canvas 107 201 475 315 MASTER_BUS_FX____________ 0;
#X obj 94 41 inlet~;
#X obj 98 253 outlet~;
#X obj 144 41 inlet~;
#X obj 160 255 outlet~;
#X obj 240 209 *~;
#X obj 305 209 *~;
#X obj 320 112 r \$0-reverb-bypass;
#X obj 320 136 == 0;
#X obj 320 185 lop~ 100;
#X obj 320 161 sig~ 1;
#X obj 240 255 outlet~;
#X obj 305 256 outlet~;
#X obj 46 41 inlet;
#X obj 240 64 catch~ rev-l;
#X obj 305 88 catch~ rev-r;
#X obj 357 137 tgl 15 0 empty empty empty 17 7 0 10 -262144 -1 -1 0
1;
#X obj 46 148 fmasterbusfx~;
#X connect 0 0 16 1;
#X connect 2 0 16 2;
#X connect 4 0 10 0;
#X connect 5 0 11 0;
#X connect 6 0 7 0;
#X connect 7 0 9 0;
#X connect 7 0 15 0;
#X connect 8 0 5 1;
#X connect 8 0 4 1;
#X connect 9 0 8 0;
#X connect 12 0 16 0;
#X connect 13 0 4 0;
#X connect 14 0 5 0;
#X connect 16 1 1 0;
#X connect 16 2 3 0;
#X restore 162 160 pd MASTER_BUS_FX____________;
#N canvas 328 23 645 407 AUDIO_RECEIVES_&_MULTI_OUT 0;
#X obj 49 107 r~ 1-l;
#X obj 171 99 r~ 1-r;
#X obj 59 128 r~ 2-l;
#X obj 180 120 r~ 2-r;
#X obj 68 149 r~ 3-l;
#X obj 187 141 r~ 3-r;
#X obj 78 169 r~ 4-l;
#X obj 88 190 r~ 5-l;
#X obj 97 211 r~ 6-l;
#X obj 197 162 r~ 4-r;
#X obj 206 183 r~ 5-r;
#X obj 213 204 r~ 6-r;
#X obj 49 358 outlet~;
#X obj 170 358 outlet~;
#X text 15 12 receive audio sends from formulssynth~ abstraction;
#X obj 298 43 r~ 1-l;
#X obj 318 66 r~ 1-r;
#X obj 341 89 r~ 2-l;
#X obj 361 113 r~ 2-r;
#X obj 386 136 r~ 3-l;
#X obj 406 157 r~ 3-r;
#X obj 428 178 r~ 4-l;
#X obj 473 225 r~ 5-l;
#X obj 517 273 r~ 6-l;
#X obj 449 201 r~ 4-r;
#X obj 495 250 r~ 5-r;
#X obj 539 298 r~ 6-r;
#X obj 297 338 dac~ 5 6 7 8 9 10 11 12 13 14 15 16;
#X connect 0 0 12 0;
#X connect 1 0 13 0;
#X connect 2 0 12 0;
#X connect 3 0 13 0;
#X connect 4 0 12 0;
#X connect 5 0 13 0;
#X connect 6 0 12 0;
#X connect 7 0 12 0;
#X connect 8 0 12 0;
#X connect 9 0 13 0;
#X connect 10 0 13 0;
#X connect 11 0 13 0;
#X connect 15 0 27 0;
#X connect 16 0 27 1;
#X connect 17 0 27 2;
#X connect 18 0 27 3;
#X connect 19 0 27 4;
#X connect 20 0 27 5;
#X connect 21 0 27 6;
#X connect 22 0 27 8;
#X connect 23 0 27 10;
#X connect 24 0 27 7;
#X connect 25 0 27 9;
#X connect 26 0 27 11;
#X restore 189 124 pd AUDIO_RECEIVES_&_MULTI_OUT;
#X connect 1 0 4 0;
#X connect 2 0 3 0;
#X connect 2 1 5 0;
#X connect 4 0 2 0;
#X connect 5 0 0 0;
#X connect 5 1 0 1;
#X connect 5 2 0 2;
#X connect 5 3 0 3;
#X connect 6 0 5 1;
#X connect 6 1 5 2;
#X restore 66 236 pd MASTER_BUS_FX_+_AUDIO_OUT;
#X connect 0 0 1 0;
#X connect 1 0 2 0;
#X connect 2 0 3 0;
#X connect 3 0 4 0;
#X connect 4 0 5 0;
#X connect 5 0 7 0;
#X connect 6 0 0 0;
#X restore 16 70 pd AUDIO__________;
#X connect 0 0 1 0;
