#N canvas 974 172 248 133 12;
#X declare -path abstractions;
#X obj 158 40 loadbang;
#X msg 158 64 \; pd dsp 1;
#N canvas 0 54 306 269 MESSAGE_RECEIVE 0;
#X msg 38 94 listen 51984;
#X obj 38 39 loadbang;
#X obj 38 63 del 1000;
#X obj 38 135 netreceive;
#X obj 110 213 s \$0-formuls;
#X obj 38 169 route pd;
#X msg 38 202 \; pd quit;
#X connect 0 0 3 0;
#X connect 1 0 2 0;
#X connect 2 0 0 0;
#X connect 3 0 5 0;
#X connect 5 0 6 0;
#X connect 5 1 4 0;
#X restore 16 46 pd MESSAGE_RECEIVE;
#X obj 20 16 declare -path abstractions;
#N canvas 661 272 253 306 AUDIO__________ 0;
#X obj 66 80 f.formuls~ 1;
#X obj 66 104 f.formuls~ 2;
#X obj 66 128 f.formuls~ 3;
#X obj 66 152 f.formuls~ 4;
#X obj 66 176 f.formuls~ 5;
#X obj 66 200 f.formuls~ 6;
#N canvas 893 377 370 310 MASTER_BUS 0;
#N canvas 107 201 565 415 MASTER_BUS_RECORD___ 0;
#X obj 84 31 inlet~;
#X obj 88 333 outlet~;
#X obj 190 31 inlet~;
#X obj 150 335 outlet~;
#X obj 314 293 *~;
#X obj 379 293 *~;
#X obj 394 196 r \$0-reverb-bypass;
#X obj 394 220 == 0;
#X obj 394 269 lop~ 100;
#X obj 394 245 sig~ 1;
#X obj 84 162 *~;
#X obj 99 75 r \$0-dry-level;
#X msg 99 96 \$1 10;
#X obj 99 117 line~;
#X obj 99 138 *~;
#X obj 190 157 *~;
#X obj 205 70 r \$0-dry-level;
#X msg 205 91 \$1 10;
#X obj 205 112 line~;
#X obj 205 133 *~;
#X obj 50 218 fmasterbus~;
#X obj 314 339 outlet~;
#X obj 379 340 outlet~;
#X obj 29 31 inlet;
#X obj 314 110 catch~ rev-l;
#X obj 379 152 catch~ rev-r;
#X obj 431 221 tgl 15 0 empty empty empty 17 7 0 10 -262144 -1 -1 0
1;
#X connect 0 0 10 0;
#X connect 0 0 20 1;
#X connect 2 0 15 0;
#X connect 2 0 20 2;
#X connect 4 0 21 0;
#X connect 5 0 22 0;
#X connect 6 0 7 0;
#X connect 7 0 9 0;
#X connect 7 0 26 0;
#X connect 8 0 5 1;
#X connect 8 0 4 1;
#X connect 9 0 8 0;
#X connect 11 0 12 0;
#X connect 12 0 13 0;
#X connect 13 0 14 0;
#X connect 13 0 14 1;
#X connect 14 0 10 1;
#X connect 16 0 17 0;
#X connect 17 0 18 0;
#X connect 18 0 19 0;
#X connect 18 0 19 1;
#X connect 19 0 15 1;
#X connect 20 1 1 0;
#X connect 20 2 3 0;
#X connect 23 0 20 0;
#X connect 24 0 4 0;
#X connect 25 0 5 0;
#X restore 172 210 pd MASTER_BUS_RECORD___;
#X obj 172 243 dac~ 1 2 3 4, f 23;
#X obj 29 28 inlet;
#X obj 29 62 route fmasterbus;
#N canvas 328 23 380 326 AUDIO_RECEIVES___ 0;
#X obj 49 77 r~ 1-l;
#X obj 171 74 r~ 1-r;
#X obj 59 98 r~ 2-l;
#X obj 180 94 r~ 2-r;
#X obj 68 119 r~ 3-l;
#X obj 187 114 r~ 3-r;
#X obj 78 139 r~ 4-l;
#X obj 88 160 r~ 5-l;
#X obj 97 181 r~ 6-l;
#X obj 197 134 r~ 4-r;
#X obj 206 154 r~ 5-r;
#X obj 213 174 r~ 6-r;
#X obj 49 258 outlet~;
#X obj 170 258 outlet~;
#X text 6 24 receive audio sends from formulssynth~ abstraction;
#X connect 0 0 12 0;
#X connect 1 0 13 0;
#X connect 2 0 12 0;
#X connect 3 0 13 0;
#X connect 4 0 12 0;
#X connect 5 0 13 0;
#X connect 6 0 12 0;
#X connect 7 0 12 0;
#X connect 8 0 12 0;
#X connect 9 0 13 0;
#X connect 10 0 13 0;
#X connect 11 0 13 0;
#X restore 193 171 pd AUDIO_RECEIVES___;
#X obj 29 86 route reverbbypass;
#X obj 29 160 s \$0-reverb-bypass;
#X connect 0 0 1 0;
#X connect 0 1 1 1;
#X connect 0 2 1 2;
#X connect 0 3 1 3;
#X connect 2 0 3 0;
#X connect 3 0 5 0;
#X connect 4 0 0 1;
#X connect 4 1 0 2;
#X connect 5 0 6 0;
#X connect 5 1 0 0;
#X restore 66 226 pd MASTER_BUS;
#X obj 66 48 r \$0-formuls;
#X connect 0 0 1 0;
#X connect 1 0 2 0;
#X connect 2 0 3 0;
#X connect 3 0 4 0;
#X connect 4 0 5 0;
#X connect 5 0 6 0;
#X connect 7 0 0 0;
#X restore 16 70 pd AUDIO__________;
#X connect 0 0 1 0;
