#N canvas 522 425 514 337 10;
#X obj 19 18 inlet;
#X obj 18 152 throw~ \$0-out-1;
#X obj 19 52 s \$0-to-route;
#X obj 18 98 r \$0-to-route;
#X obj 14 239 catch~ \$0-out-1;
#X obj 14 263 outlet~;
#X obj 132 265 outlet~;
#X obj 132 241 catch~ \$0-out-2;
#X text 15 217 to extfeedback;
#X text 135 217 to envelopefollower;
#X obj 272 99 r \$0-to-route;
#X obj 18 128 f.audio.submodroute~ extmodulationsource;
#X obj 272 129 f.audio.submodroute~ envsidesource;
#X obj 272 153 throw~ \$0-out-2;
#X connect 0 0 2 0;
#X connect 3 0 11 0;
#X connect 4 0 5 0;
#X connect 7 0 6 0;
#X connect 10 0 12 0;
#X connect 11 0 1 0;
#X connect 12 0 13 0;
