#N canvas 308 220 318 309 10;
#X obj 123 201 cos~;
#X obj 49 202 cos~;
#X text 77 108 <-- Range: 0-.25;
#X obj 50 110 f;
#X obj 50 5 inlet;
#X obj 124 246 outlet~;
#X obj 50 246 outlet~;
#X obj 50 85 * 0.25;
#X obj 78 33 loadbang;
#X obj 78 55 \$1;
#X obj 123 179 +~ 0.75;
#X msg 50 131 \$1 10;
#X obj 50 153 vline~;
#X connect 0 0 5 0;
#X connect 1 0 6 0;
#X connect 3 0 11 0;
#X connect 4 0 7 0;
#X connect 7 0 3 0;
#X connect 8 0 9 0;
#X connect 9 0 7 0;
#X connect 10 0 0 0;
#X connect 11 0 12 0;
#X connect 12 0 10 0;
#X connect 12 0 1 0;
