#N canvas 82 47 454 741 10;
#X obj 30 87 route formuls\$1;
#X obj 38 693 outlet;
#X obj 30 19 inlet;
#X text 148 47 \$1 = instance/synth no.;
#X obj 148 504 f.audio.modroute~;
#X obj 105 195 f.trig;
#X obj 30 252 s \$0-reverb;
#X obj 105 224 s \$0-formuls~;
#X obj 119 456 r \$0-formuls~;
#X obj 247 528 *~ 10;
#N canvas 577 96 508 335 MESSAGE_FILTER 0;
#X obj 75 45 inlet;
#X obj 80 266 outlet;
#X obj 75 89 route extmodulationsource thresholdsource envsidesource;
#X connect 0 0 2 0;
#X connect 2 3 1 0;
#X restore 120 482 pd MESSAGE_FILTER;
#X obj 255 296 sel 0;
#X msg 255 319 0;
#X obj 282 369 sig~;
#X obj 282 425 lop~ 100;
#X obj 324 271 s \$0-formuls~;
#X obj 117 113 s \$0-reject;
#X obj 38 644 r \$0-reject;
#X obj 282 449 s~ \$0-output-amp;
#X obj 255 188 route volume;
#X obj 255 213 pipe 10;
#X msg 263 236 volume \$1;
#X obj 120 558 formuls~, f 10;
#N canvas 289 81 429 587 FX_MESSAGE_PARSE 0;
#X obj 87 38 inlet;
#X obj 87 62 route bitcrush phaser;
#X obj 235 486 outlet;
#X obj 119 246 * 16;
#X msg 119 270 bit \$1;
#X obj 87 298 * 79;
#X obj 87 322 + 1;
#X msg 87 346 downsamplingfactor \$1;
#X msg 191 116 phaserdepth \$1;
#X obj 159 119 * 3;
#X obj 159 143 + 0.5;
#X msg 159 167 phaserspeed \$1;
#X msg 119 199 1 \$1;
#X obj 119 223 -;
#X obj 87 171 t f f;
#X obj 159 91 t f f;
#X connect 0 0 1 0;
#X connect 1 0 14 0;
#X connect 1 1 15 0;
#X connect 1 2 2 0;
#X connect 3 0 4 0;
#X connect 4 0 2 0;
#X connect 5 0 6 0;
#X connect 6 0 7 0;
#X connect 7 0 2 0;
#X connect 8 0 2 0;
#X connect 9 0 10 0;
#X connect 10 0 11 0;
#X connect 11 0 2 0;
#X connect 12 0 13 0;
#X connect 13 0 3 0;
#X connect 14 0 5 0;
#X connect 14 1 12 0;
#X connect 15 0 9 0;
#X connect 15 1 8 0;
#X restore 255 167 pd FX_MESSAGE_PARSE;
#X obj 255 272 > 0.001;
#X obj 321 300 r to-global-trigger;
#X obj 321 324 == \$1;
#X obj 30 145 route reverb triggerx globalmonophonic;
#X obj 282 399 *~;
#X obj 322 370 sig~ 1;
#X obj 207 217 sel 1;
#X msg 207 241 1;
#X obj 180 194 t f f;
#X obj 321 348 spigot;
#X obj 180 168 change;
#X msg 27 426 lowpass 1;
#X obj 27 400 r resetglobal;
#X text 113 400 <- hotfix for filter;
#X obj 233 578 r~ \$0-output-amp;
#N canvas 701 121 612 304 AUDIO_ROUTINGS 0;
#X obj 71 167 s~ \$1-l;
#X obj 142 168 s~ \$1-r;
#X obj 368 167 s~ \$1-m;
#N canvas 0 23 301 286 REVERB_SEND__ 0;
#X obj 40 38 inlet~;
#X obj 40 189 *~;
#X obj 58 117 sig~;
#X obj 58 139 lop~ 100;
#X obj 58 163 *~;
#X obj 160 39 inlet~;
#X obj 160 190 *~;
#X obj 178 118 sig~;
#X obj 178 140 lop~ 100;
#X obj 178 164 *~;
#X obj 58 95 r \$0-reverb;
#X obj 178 96 r \$0-reverb;
#X obj 41 212 throw~ rev-l;
#X obj 161 213 throw~ rev-r;
#X connect 0 0 1 0;
#X connect 1 0 12 0;
#X connect 2 0 3 0;
#X connect 3 0 4 0;
#X connect 3 0 4 1;
#X connect 4 0 1 1;
#X connect 5 0 6 0;
#X connect 6 0 13 0;
#X connect 7 0 8 0;
#X connect 8 0 9 0;
#X connect 8 0 9 1;
#X connect 9 0 6 1;
#X connect 10 0 2 0;
#X connect 11 0 7 0;
#X restore 74 219 pd REVERB_SEND__;
#X obj 74 195 r~ \$1-l;
#X obj 167 195 r~ \$1-r;
#X obj 71 132 *~;
#X obj 142 133 *~;
#X obj 368 132 *~;
#X obj 215 134 *~;
#X obj 215 169 s~ \$1-m-l;
#X obj 292 132 *~;
#X obj 292 167 s~ \$1-m-r;
#X obj 421 214 s m-val;
#X obj 421 190 list prepend \$1-m-val;
#X obj 421 166 env~ 4096;
#X obj 71 35 inlet~;
#X obj 142 35 inlet~;
#X obj 215 35 inlet~;
#X obj 292 35 inlet~;
#X obj 383 35 inlet~;
#X connect 4 0 3 0;
#X connect 5 0 3 1;
#X connect 6 0 0 0;
#X connect 7 0 1 0;
#X connect 8 0 2 0;
#X connect 8 0 15 0;
#X connect 9 0 10 0;
#X connect 11 0 12 0;
#X connect 14 0 13 0;
#X connect 15 0 14 0;
#X connect 16 0 6 0;
#X connect 17 0 7 0;
#X connect 18 0 9 0;
#X connect 18 0 8 0;
#X connect 19 0 11 0;
#X connect 19 0 8 0;
#X connect 20 0 8 1;
#X connect 20 0 7 1;
#X connect 20 0 6 1;
#X connect 20 0 9 1;
#X connect 20 0 11 1;
#X restore 134 604 pd AUDIO_ROUTINGS;
#X connect 0 0 27 0;
#X connect 0 1 16 0;
#X connect 2 0 0 0;
#X connect 4 0 22 1;
#X connect 4 1 9 0;
#X connect 5 0 7 0;
#X connect 8 0 4 0;
#X connect 8 0 10 0;
#X connect 9 0 22 2;
#X connect 10 0 22 0;
#X connect 11 0 12 0;
#X connect 11 1 13 0;
#X connect 12 0 13 0;
#X connect 13 0 28 0;
#X connect 14 0 18 0;
#X connect 17 0 1 0;
#X connect 19 0 20 0;
#X connect 19 1 15 0;
#X connect 20 0 21 0;
#X connect 20 0 24 0;
#X connect 21 0 15 0;
#X connect 22 1 39 0;
#X connect 22 2 39 1;
#X connect 22 3 39 2;
#X connect 22 4 39 3;
#X connect 23 0 19 0;
#X connect 24 0 11 0;
#X connect 25 0 26 0;
#X connect 26 0 33 0;
#X connect 27 0 6 0;
#X connect 27 1 5 0;
#X connect 27 2 34 0;
#X connect 27 3 23 0;
#X connect 28 0 14 0;
#X connect 29 0 28 1;
#X connect 30 0 31 0;
#X connect 31 0 29 0;
#X connect 32 0 33 1;
#X connect 32 1 30 0;
#X connect 33 0 29 0;
#X connect 34 0 32 0;
#X connect 35 0 22 0;
#X connect 36 0 35 0;
#X connect 38 0 39 4;
