#N canvas 765 249 912 724 12;
#X obj 30 87 route formuls\$1;
#X obj 28 683 outlet;
#X obj 30 19 inlet;
#X text 148 47 \$1 = instance/synth no.;
#X obj 410 346 f.audio.modroute~;
#X obj 410 620 s~ \$1-l;
#X obj 469 620 s~ \$1-r;
#X obj 528 620 s~ \$1-m;
#X obj 102 495 f.trig;
#N canvas 0 23 301 286 REVERB_SEND__ 0;
#X obj 40 38 inlet~;
#X obj 40 189 *~;
#X obj 58 117 sig~;
#X obj 58 139 lop~ 100;
#X obj 58 163 *~;
#X obj 160 39 inlet~;
#X obj 160 190 *~;
#X obj 178 118 sig~;
#X obj 178 140 lop~ 100;
#X obj 178 164 *~;
#X obj 58 95 r \$0-reverb;
#X obj 178 96 r \$0-reverb;
#X obj 41 212 throw~ rev-l;
#X obj 161 213 throw~ rev-r;
#X connect 0 0 1 0;
#X connect 1 0 12 0;
#X connect 2 0 3 0;
#X connect 3 0 4 0;
#X connect 3 0 4 1;
#X connect 4 0 1 1;
#X connect 5 0 6 0;
#X connect 6 0 13 0;
#X connect 7 0 8 0;
#X connect 8 0 9 0;
#X connect 8 0 9 1;
#X connect 9 0 6 1;
#X connect 10 0 2 0;
#X connect 11 0 7 0;
#X restore 412 681 pd REVERB_SEND__;
#X obj 412 657 r~ \$1-l;
#X obj 473 657 r~ \$1-r;
#X obj 30 562 s \$0-reverb;
#X obj 102 524 s \$0-formuls~;
#X obj 387 298 r \$0-formuls~;
#X obj 526 370 *~ 10;
#N canvas 577 96 508 335 MESSAGE_FILTER 0;
#X obj 75 45 inlet;
#X obj 80 266 outlet;
#X obj 75 89 route extmodulationsource thresholdsource envsidesource;
#X connect 0 0 2 0;
#X connect 2 3 1 0;
#X restore 388 324 pd MESSAGE_FILTER;
#X obj 174 225 > 0.01;
#X obj 238 329 change;
#X obj 174 249 sel 0;
#X msg 174 272 0;
#X obj 410 595 *~;
#X obj 469 595 *~;
#X obj 528 595 *~;
#X obj 174 440 sig~;
#X obj 174 464 lop~ 100;
#X obj 304 254 s \$0-formuls~;
#X obj 132 113 s \$0-reject;
#X obj 28 634 r \$0-reject;
#X obj 174 488 s~ \$0-output-amp;
#X obj 689 560 r~ \$0-output-amp;
#X obj 30 145 route reverb triggerx;
#X obj 174 172 route volume;
#X obj 206 273 t f f;
#X obj 248 306 pipe 10;
#X obj 238 356 t f f;
#X obj 174 196 pipe 10;
#X msg 225 225 volume \$1;
#X obj 594 596 *~;
#X obj 594 621 s~ \$1-m-l;
#X obj 671 594 *~;
#X obj 671 619 s~ \$1-m-r;
#X obj 612 694 s m-val;
#X obj 612 670 list prepend \$1-m-val;
#X obj 388 407 formuls~, f 10;
#X obj 612 646 env~ 4096;
#X connect 0 0 31 0;
#X connect 0 1 27 0;
#X connect 2 0 0 0;
#X connect 4 0 44 1;
#X connect 4 1 15 0;
#X connect 8 0 13 0;
#X connect 10 0 9 0;
#X connect 11 0 9 1;
#X connect 14 0 4 0;
#X connect 14 0 16 0;
#X connect 15 0 44 2;
#X connect 16 0 44 0;
#X connect 17 0 19 0;
#X connect 18 0 35 0;
#X connect 19 0 20 0;
#X connect 19 1 33 0;
#X connect 20 0 24 0;
#X connect 20 0 34 0;
#X connect 21 0 5 0;
#X connect 22 0 6 0;
#X connect 23 0 7 0;
#X connect 23 0 45 0;
#X connect 24 0 25 0;
#X connect 25 0 29 0;
#X connect 28 0 1 0;
#X connect 30 0 23 1;
#X connect 30 0 22 1;
#X connect 30 0 21 1;
#X connect 30 0 38 1;
#X connect 30 0 40 1;
#X connect 31 0 12 0;
#X connect 31 1 8 0;
#X connect 31 2 32 0;
#X connect 32 0 36 0;
#X connect 32 1 26 0;
#X connect 33 0 24 0;
#X connect 33 1 18 0;
#X connect 34 0 18 0;
#X connect 36 0 37 0;
#X connect 36 0 17 0;
#X connect 37 0 26 0;
#X connect 38 0 39 0;
#X connect 40 0 41 0;
#X connect 43 0 42 0;
#X connect 44 1 21 0;
#X connect 44 1 23 0;
#X connect 44 1 38 0;
#X connect 44 2 22 0;
#X connect 44 2 23 0;
#X connect 44 2 40 0;
#X connect 44 3 23 0;
#X connect 44 3 38 0;
#X connect 44 4 40 0;
#X connect 45 0 43 0;
