#N canvas 0 25 292 300 12;
#X obj 70 249 outlet;
#X obj 70 42 inlet;
#X msg 70 208 triggerx \$1;
#X obj 70 95 t b;
#X obj 70 119 i;
#X obj 70 143 + 1;
#X obj 70 167 mod 2;
#X connect 1 0 3 0;
#X connect 2 0 0 0;
#X connect 3 0 4 0;
#X connect 4 0 5 0;
#X connect 5 0 4 1;
#X connect 5 0 6 0;
#X connect 6 0 2 0;
