#N canvas 253 65 373 172 10;
#X text 254 34 \$1 = \$0 \; \$2 = instance;
#X text 179 13 <- parse incoming messages;
#X obj 29 16 f.util.oscinparse \$2 \$1;
#N canvas 0 25 317 332 MESSAGE_THROTTLE 0;
#X obj 49 250 spigot;
#X obj 82 73 r inter-act;
#X obj 82 94 unpack f f;
#X obj 139 114 == \$2;
#X obj 82 115 == \$2;
#X obj 82 159 >= 1;
#X obj 82 136 +;
#X floatatom 82 180 5 0 0 0 - - - 0;
#X obj 82 200 change;
#X obj 49 20 inlet;
#X obj 49 291 outlet;
#X obj 99 222 r inter-act-overide;
#N canvas 642 104 525 218 MESSAGE_FILTER 0;
#X obj 50 29 inlet;
#X obj 381 178 outlet;
#X obj 50 70 route waveshape\$1 resonantfilter\$2 resonantfilterREAL\$2
;
#X obj 268 122 list trim;
#X obj 268 101 oscformat resonantfilter\$2;
#X connect 0 0 2 0;
#X connect 2 2 4 0;
#X connect 2 3 1 0;
#X connect 3 0 1 0;
#X connect 4 0 3 0;
#X restore 49 46 pd MESSAGE_FILTER;
#X connect 0 0 10 0;
#X connect 1 0 2 0;
#X connect 2 0 4 0;
#X connect 2 1 3 0;
#X connect 3 0 6 1;
#X connect 4 0 6 0;
#X connect 5 0 7 0;
#X connect 6 0 5 0;
#X connect 7 0 8 0;
#X connect 8 0 0 1;
#X connect 9 0 12 0;
#X connect 11 0 0 1;
#X connect 12 0 0 0;
#X restore 29 68 pd MESSAGE_THROTTLE;
#X obj 29 91 s to-o-s-c-interface;
#X obj 29 45 r \$2-message-collect;
#X obj 29 116 f.util.reset \$2 \$1;
#X connect 3 0 4 0;
#X connect 5 0 3 0;
