#N canvas 456 152 345 616 10;
#X obj 49 564 outlet;
#X obj 49 31 inlet;
#X obj 49 193 mod 2;
#X obj 49 213 t f f;
#X obj 49 495 f;
#X obj 49 172 t f f;
#X obj 49 235 sel 0 1;
#X msg 127 230 0;
#X obj 127 357 == 0;
#X obj 127 31 inlet swing-amount;
#X obj 94 384 spigot 1;
#X floatatom 127 71 5 0 0 0 - - - 0;
#X obj 165 431 del;
#X obj 127 209 moses 1;
#X obj 165 411 t b;
#X obj 165 389 spigot;
#X msg 164 236 1;
#X obj 127 51 * 100;
#X connect 1 0 5 0;
#X connect 2 0 3 0;
#X connect 3 0 6 0;
#X connect 4 0 0 0;
#X connect 5 0 2 0;
#X connect 5 1 4 1;
#X connect 6 0 4 0;
#X connect 6 1 10 0;
#X connect 6 1 15 0;
#X connect 7 0 8 0;
#X connect 7 0 15 1;
#X connect 8 0 10 1;
#X connect 9 0 17 0;
#X connect 10 0 4 0;
#X connect 11 0 13 0;
#X connect 11 0 12 1;
#X connect 12 0 4 0;
#X connect 13 0 7 0;
#X connect 13 1 16 0;
#X connect 14 0 12 0;
#X connect 15 0 14 0;
#X connect 16 0 8 0;
#X connect 16 0 15 1;
#X connect 17 0 11 0;
