#N canvas 796 95 531 675 10;
#X obj 47 594 outlet;
#X obj 48 24 inlet;
#X obj 95 422 s \$0-random-add;
#X obj 119 403 s \$0-random-drop;
#X obj 143 383 s \$0-euclid;
#X obj 167 363 s \$0-euclid-steps;
#X obj 190 344 s \$0-euclid-offset;
#X obj 71 443 s \$0-seq-write;
#X obj 238 306 s \$0-seq-invert;
#X obj 214 325 s \$0-seq-length;
#N canvas 386 550 311 308 SEQ_WRITE_____________ 0;
#X msg 55 72 \$2 \$1;
#X obj 55 178 unpack;
#X obj 55 210 tabwrite \$0-sequencer;
#X obj 151 93 t f b;
#X obj 151 115 until;
#X obj 151 137 i;
#X obj 181 137 + 1;
#X obj 151 161 t b f;
#X msg 193 114 0;
#X msg 151 183 0;
#X msg 151 71 64;
#X obj 55 237 table \$0-sequencer 64;
#X obj 151 49 r \$0-reset;
#X obj 55 50 r \$0-seq-write;
#X connect 0 0 1 0;
#X connect 1 0 2 0;
#X connect 1 1 2 1;
#X connect 3 0 4 0;
#X connect 3 1 8 0;
#X connect 4 0 5 0;
#X connect 5 0 6 0;
#X connect 5 0 7 0;
#X connect 6 0 5 1;
#X connect 7 0 9 0;
#X connect 7 1 2 1;
#X connect 8 0 5 1;
#X connect 9 0 2 0;
#X connect 10 0 3 0;
#X connect 12 0 10 0;
#X connect 13 0 0 0;
#X restore 47 490 pd SEQ_WRITE_____________;
#N canvas 763 50 379 565 SEQ_READ______________ 0;
#X obj 46 513 outlet;
#X obj 46 387 tabread \$0-sequencer;
#X obj 46 448 == 1;
#X obj 46 311 spigot 0;
#X obj 67 408 r \$0-seq-invert;
#X obj 127 247 r \$0-delay;
#X obj 111 206 r \$0-seq-length;
#X obj 73 187 r \$0-warp;
#X obj 127 144 r \$0-swing;
#X obj 79 115 r \$0-seq-length;
#X obj 46 27 r \$0-beat;
#X obj 107 27 r \$0-timebase;
#X obj 169 46 r \$0-timebase-multiplier;
#N canvas 0 23 329 300 SEQUENCER_SYNCHRONY 0;
#X obj 176 114 == 0;
#X obj 58 177 f;
#X obj 83 177 + 1;
#X obj 58 134 spigot 0;
#X obj 131 135 spigot 1;
#X obj 58 156 t b;
#X obj 58 10 inlet;
#X obj 58 269 outlet;
#X obj 176 70 r \$0-beat-sync;
#X connect 0 0 4 1;
#X connect 1 0 2 0;
#X connect 1 0 7 0;
#X connect 2 0 1 1;
#X connect 3 0 5 0;
#X connect 4 0 1 1;
#X connect 4 0 7 0;
#X connect 5 0 1 0;
#X connect 6 0 4 0;
#X connect 6 0 3 0;
#X connect 8 0 0 0;
#X connect 8 0 3 1;
#X restore 46 90 pd SEQUENCER_SYNCHRONY;
#N canvas 0 23 385 385 RANDOM_ADD_DROP___ 0;
#X obj 223 231 t b;
#X obj 223 102 random 100;
#X obj 223 207 moses 0;
#X obj 262 164 * 100;
#X obj 56 98 random 100;
#X obj 95 233 t b;
#X obj 56 66 sel 1 0;
#X obj 95 163 * 100;
#X obj 95 185 i;
#X obj 262 186 i;
#X msg 95 278 1;
#X obj 56 210 moses 0;
#X obj 262 122 r \$0-random-add;
#X obj 95 119 r \$0-random-drop;
#X obj 56 16 inlet;
#X obj 95 339 outlet;
#X obj 95 141 pow 1.7;
#X obj 261 144 pow 1.7;
#X connect 0 0 10 0;
#X connect 1 0 2 0;
#X connect 2 0 0 0;
#X connect 3 0 9 0;
#X connect 4 0 11 0;
#X connect 5 0 10 0;
#X connect 6 0 4 0;
#X connect 6 1 1 0;
#X connect 7 0 8 0;
#X connect 8 0 11 1;
#X connect 9 0 2 1;
#X connect 10 0 15 0;
#X connect 11 1 5 0;
#X connect 12 0 17 0;
#X connect 13 0 16 0;
#X connect 14 0 6 0;
#X connect 16 0 7 0;
#X connect 17 0 3 0;
#X restore 46 474 pd RANDOM_ADD_DROP___;
#X obj 67 429 == 0;
#X obj 192 519 outlet beat;
#X obj 46 340 t f f;
#X obj 91 292 r \$0-sequencer-on;
#X obj 103 312 tgl 15 0 empty empty empty 17 7 0 10 -262144 -1 -1 0
1;
#X obj 46 65 f.seq.beatdivision;
#X obj 46 163 f.seq.swing;
#X obj 46 226 f.seq.warp;
#X obj 46 267 f.seq.delay;
#X obj 46 135 mod 64;
#X connect 1 0 2 0;
#X connect 2 0 14 0;
#X connect 3 0 17 0;
#X connect 4 0 15 0;
#X connect 5 0 23 1;
#X connect 6 0 22 2;
#X connect 7 0 22 1;
#X connect 8 0 21 1;
#X connect 9 0 24 1;
#X connect 10 0 20 0;
#X connect 11 0 20 1;
#X connect 12 0 20 2;
#X connect 13 0 24 0;
#X connect 14 0 0 0;
#X connect 15 0 2 1;
#X connect 17 0 1 0;
#X connect 17 1 16 0;
#X connect 18 0 3 1;
#X connect 18 0 19 0;
#X connect 20 0 13 0;
#X connect 21 0 22 0;
#X connect 22 0 23 0;
#X connect 23 0 3 0;
#X connect 24 0 21 0;
#X restore 47 513 pd SEQ_READ______________;
#X obj 262 288 s \$0-timebase;
#X obj 286 267 s \$0-timebase-multiplier;
#X obj 409 117 s \$0-beat;
#X obj 385 165 s \$0-reset;
#X obj 371 184 s \$0-delay;
#X obj 351 204 s \$0-warp;
#X obj 333 225 s \$0-swing;
#X obj 309 245 s \$0-beat-sync;
#X obj 203 595 outlet beat;
#X obj 48 461 s \$0-sequencer-on;
#X obj 48 74 route seqon seqwrite randomadd randomdrop euclid euclidsteps
euclidoffset seqlength seqinvert timebase timebasemultiplier beatsync
swing warp delay reset valuesend float;
#X obj 397 140 s val-send;
#N canvas 0 23 259 311 SEQ_GUI_UPDATE 0;
#X obj 53 34 r \$0-val-send;
#X obj 53 55 sel 0 1;
#X obj 53 260 outlet;
#X msg 112 124 64;
#X obj 112 145 until;
#X obj 112 166 i;
#X obj 137 166 + 1;
#X obj 112 96 t b b;
#X msg 140 124 0;
#X msg 112 187 \$1 0;
#X obj 53 209 tabread \$0-sequencer;
#X msg 53 145 64;
#X obj 53 166 until;
#X obj 53 187 i;
#X obj 78 187 + 1;
#X obj 53 117 t b b;
#X msg 81 145 0;
#X connect 0 0 1 0;
#X connect 1 0 15 0;
#X connect 1 1 7 0;
#X connect 3 0 4 0;
#X connect 4 0 5 0;
#X connect 5 0 6 0;
#X connect 5 0 9 0;
#X connect 6 0 5 1;
#X connect 7 0 3 0;
#X connect 7 1 8 0;
#X connect 8 0 5 1;
#X connect 9 0 2 0;
#X connect 10 0 2 0;
#X connect 11 0 12 0;
#X connect 12 0 13 0;
#X connect 13 0 14 0;
#X connect 13 0 10 0;
#X connect 14 0 13 1;
#X connect 15 0 11 0;
#X connect 15 1 16 0;
#X connect 16 0 13 1;
#X restore 325 519 pd SEQ_GUI_UPDATE;
#X obj 325 593 outlet;
#X connect 1 0 22 0;
#X connect 11 0 0 0;
#X connect 11 1 20 0;
#X connect 22 0 21 0;
#X connect 22 1 7 0;
#X connect 22 2 2 0;
#X connect 22 3 3 0;
#X connect 22 4 4 0;
#X connect 22 5 5 0;
#X connect 22 6 6 0;
#X connect 22 7 9 0;
#X connect 22 8 8 0;
#X connect 22 9 12 0;
#X connect 22 10 13 0;
#X connect 22 11 19 0;
#X connect 22 12 18 0;
#X connect 22 13 17 0;
#X connect 22 14 16 0;
#X connect 22 15 15 0;
#X connect 22 16 23 0;
#X connect 22 17 14 0;
#X connect 24 0 25 0;
