#N canvas 873 22 529 491 10;
#X obj 29 24 inlet;
#X obj 29 439 outlet;
#X obj 129 200 i;
#X obj 29 109 clip -1 132;
#X obj 129 179 / 12;
#X obj 29 133 t f f;
#X obj 29 353 +;
#X obj 29 177 mod 12;
#X obj 150 150 r pitch-gamut-length;
#X msg 68 239 set;
#X msg 48 259 adddollar \$1;
#X obj 29 217 t b f b;
#X msg 29 330 \$1;
#X obj 29 305 list;
#X obj 50 284 r pitch-gamut;
#X obj 29 198 + 1;
#X obj 129 221 * 12;
#X text 172 221 <- must always be 12: this defines which octave the
note will be in;
#X text 163 181 <- number of divisions/notes per octave;
#X obj 29 374 - 1;
#X obj 29 154 i;
#X connect 0 0 3 0;
#X connect 2 0 16 0;
#X connect 3 0 5 0;
#X connect 4 0 2 0;
#X connect 5 0 20 0;
#X connect 5 1 4 0;
#X connect 6 0 19 0;
#X connect 7 0 15 0;
#X connect 8 0 7 1;
#X connect 8 0 4 1;
#X connect 9 0 12 0;
#X connect 10 0 12 0;
#X connect 11 0 13 0;
#X connect 11 1 10 0;
#X connect 11 2 9 0;
#X connect 12 0 6 0;
#X connect 13 0 12 0;
#X connect 14 0 13 1;
#X connect 15 0 11 0;
#X connect 16 0 6 1;
#X connect 19 0 1 0;
#X connect 20 0 7 0;
