#N canvas 502 398 497 423 12;
#X obj 37 37 inlet;
#X obj 50 374 outlet;
#X text 254 48 \$1 = instance \; \$2 = \$0 \; \$3 = parameter;
#X obj 140 159 s \$2-\$3\$1-lfodepth;
#X obj 37 208 s \$2-\$3\$1-lfofreq;
#X obj 140 135 pow 2.7;
#X obj 103 59 r \$2-reset;
#X msg 103 83 0;
#X obj 37 180 + 0.01;
#X obj 37 156 * 9.99;
#X obj 174 223 oscformat \$3lfofreq\$1;
#X obj 186 196 oscformat \$3lfodepth\$1;
#X obj 197 253 s to-o-s-c-interface;
#X obj 37 132 pow 5;
#X msg 124 302 lfofreq \$1;
#X obj 124 371 outlet;
#X msg 235 334 lfodepth \$1;
#X obj 37 108 route \$3lfofreq \$3lfodepth;
#X connect 0 0 17 0;
#X connect 5 0 3 0;
#X connect 5 0 16 0;
#X connect 6 0 7 0;
#X connect 7 0 5 0;
#X connect 7 0 9 0;
#X connect 7 0 11 0;
#X connect 7 0 10 0;
#X connect 8 0 4 0;
#X connect 8 0 14 0;
#X connect 9 0 8 0;
#X connect 10 0 12 0;
#X connect 11 0 12 0;
#X connect 13 0 9 0;
#X connect 14 0 15 0;
#X connect 16 0 15 0;
#X connect 17 0 13 0;
#X connect 17 1 5 0;
#X connect 17 2 1 0;
