#N canvas 0 23 550 427 12;
#X obj 97 191 spigot;
#X obj 97 168 f;
#X obj 98 16 inlet;
#X obj 155 164 sel 0;
#X obj 319 91 s \$0-reject;
#X obj 97 313 r \$0-reject;
#X obj 97 337 outlet;
#X obj 97 246 s \$1-pitch-process;
#X obj 98 60 route pitchgamut\$2 pitchactive\$2;
#X msg 155 188 -1;
#X obj 207 162 \$2;
#X obj 207 186 - 1;
#X obj 111 137 t b f b;
#X obj 207 129 loadbang;
#X obj 97 222 pack f f;
#X connect 0 0 14 0;
#X connect 1 0 0 0;
#X connect 2 0 8 0;
#X connect 3 0 9 0;
#X connect 5 0 6 0;
#X connect 8 0 1 0;
#X connect 8 1 12 0;
#X connect 8 2 4 0;
#X connect 9 0 14 0;
#X connect 10 0 11 0;
#X connect 11 0 14 1;
#X connect 12 0 1 0;
#X connect 12 1 0 1;
#X connect 12 1 3 0;
#X connect 13 0 10 0;
#X connect 14 0 7 0;
