#N canvas 139 207 669 423 10;
#X obj 41 232 i;
#X obj 41 253 + 1;
#X obj 41 274 mod 2;
#X obj 56 191 r \$1-reset;
#X obj 41 151 spigot;
#X obj 135 210 i;
#X obj 135 231 + 1;
#X obj 135 252 mod 2;
#X obj 150 169 r \$1-reset;
#X obj 135 149 spigot;
#X obj 246 210 i;
#X obj 246 231 + 1;
#X obj 246 252 mod 2;
#X obj 261 169 r \$1-reset;
#X obj 246 149 spigot;
#X obj 41 389 outlet;
#X obj 135 390 outlet;
#X obj 246 390 outlet;
#X obj 41 11 inlet;
#X obj 41 52 sel 1;
#X text 148 26 \$1 = \$0 \; \$2 = \$1 \; \$3 = parameter name \; \$4
= x parameter short name \; \$5 = y parameter short;
#X msg 56 212 1;
#X msg 150 190 1;
#X msg 261 190 1;
#X obj 497 340 s to-o-s-c-interface;
#X obj 74 130 r act\$1;
#X obj 168 128 r trig\$1;
#X obj 279 128 r chaostrig\$1;
#X obj 47 315 oscformat \$2act\$1;
#X obj 180 313 oscformat \$2trig\$1;
#X obj 312 316 oscformat \$2chaostrig\$1;
#X obj 312 360 s \$1-message-collect;
#X obj 180 357 s \$1-message-collect;
#X obj 47 359 s \$1-message-collect;
#X obj 23 172 r \$2\$1-act-gui;
#X obj 464 241 i;
#X obj 464 262 + 1;
#X obj 464 283 mod 2;
#X obj 479 200 r \$1-reset;
#X obj 464 180 spigot;
#X msg 479 221 1;
#X obj 484 360 s \$1-message-collect;
#X obj 497 159 r reverse\$1;
#X obj 484 316 oscformat \$2reverse\$1;
#X obj 464 384 outlet;
#X obj 41 77 t a a a a;
#X connect 0 0 1 0;
#X connect 1 0 0 1;
#X connect 1 0 2 0;
#X connect 2 0 15 0;
#X connect 2 0 28 0;
#X connect 3 0 21 0;
#X connect 4 0 0 0;
#X connect 5 0 6 0;
#X connect 6 0 5 1;
#X connect 6 0 7 0;
#X connect 7 0 16 0;
#X connect 7 0 29 0;
#X connect 8 0 22 0;
#X connect 9 0 5 0;
#X connect 10 0 11 0;
#X connect 11 0 10 1;
#X connect 11 0 12 0;
#X connect 12 0 17 0;
#X connect 12 0 30 0;
#X connect 13 0 23 0;
#X connect 14 0 10 0;
#X connect 18 0 19 0;
#X connect 19 0 45 0;
#X connect 21 0 0 1;
#X connect 21 0 0 0;
#X connect 22 0 5 1;
#X connect 22 0 5 0;
#X connect 23 0 10 1;
#X connect 23 0 10 0;
#X connect 25 0 4 1;
#X connect 26 0 9 1;
#X connect 27 0 14 1;
#X connect 28 0 24 0;
#X connect 28 0 33 0;
#X connect 29 0 24 0;
#X connect 29 0 32 0;
#X connect 30 0 24 0;
#X connect 30 0 31 0;
#X connect 34 0 0 0;
#X connect 35 0 36 0;
#X connect 36 0 35 1;
#X connect 36 0 37 0;
#X connect 37 0 43 0;
#X connect 37 0 44 0;
#X connect 38 0 40 0;
#X connect 39 0 35 0;
#X connect 40 0 35 1;
#X connect 40 0 35 0;
#X connect 42 0 39 1;
#X connect 43 0 41 0;
#X connect 43 0 24 0;
#X connect 45 0 4 0;
#X connect 45 1 9 0;
#X connect 45 2 14 0;
#X connect 45 3 39 0;
