#N canvas 91 575 649 461 10;
#X obj 41 223 i;
#X obj 41 244 + 1;
#X obj 41 265 mod 2;
#X obj 55 176 r \$1-reset;
#X obj 41 131 spigot;
#X obj 135 210 i;
#X obj 135 231 + 1;
#X obj 135 252 mod 2;
#X obj 150 169 r \$1-reset;
#X obj 135 149 spigot;
#X obj 246 210 i;
#X obj 246 231 + 1;
#X obj 246 252 mod 2;
#X obj 261 169 r \$1-reset;
#X obj 246 149 spigot;
#X obj 41 370 outlet;
#X obj 135 370 outlet;
#X obj 246 370 outlet;
#X obj 41 11 inlet;
#X obj 41 52 sel 1;
#X msg 150 190 1;
#X msg 261 190 1;
#X text 148 26 \$1 = \$0 \; \$2 = \$1 \; \$3 = parameter name \;;
#X obj 494 319 s to-o-s-c-interface;
#X text 331 24 \$1 = instance \; \$2 = parameter name \;;
#X obj 74 110 r act\$1;
#X obj 168 128 r trig\$1;
#X obj 279 128 r chaostrig\$1;
#X obj 47 296 oscformat \$2act\$1;
#X obj 180 293 oscformat \$2trig\$1;
#X obj 312 296 oscformat \$2chaostrig\$1;
#X obj 312 340 s \$1-message-collect;
#X obj 180 337 s \$1-message-collect;
#X obj 47 337 s \$1-message-collect;
#X obj 20 154 r \$2\$1-act-gui;
#X msg 55 199 1;
#X obj 464 222 i;
#X obj 464 243 + 1;
#X obj 464 264 mod 2;
#X obj 479 181 r \$1-reset;
#X obj 464 161 spigot;
#X msg 479 202 1;
#X obj 484 341 s \$1-message-collect;
#X obj 497 140 r reverse\$1;
#X obj 484 297 oscformat \$2reverse\$1;
#X obj 41 77 t a a a a;
#X obj 464 384 outlet;
#X connect 0 0 1 0;
#X connect 1 0 0 1;
#X connect 1 0 2 0;
#X connect 2 0 15 0;
#X connect 2 0 28 0;
#X connect 3 0 35 0;
#X connect 4 0 0 0;
#X connect 5 0 6 0;
#X connect 6 0 5 1;
#X connect 6 0 7 0;
#X connect 7 0 16 0;
#X connect 7 0 29 0;
#X connect 8 0 20 0;
#X connect 9 0 5 0;
#X connect 10 0 11 0;
#X connect 11 0 10 1;
#X connect 11 0 12 0;
#X connect 12 0 17 0;
#X connect 12 0 30 0;
#X connect 13 0 21 0;
#X connect 14 0 10 0;
#X connect 18 0 19 0;
#X connect 19 0 45 0;
#X connect 20 0 5 1;
#X connect 20 0 5 0;
#X connect 21 0 10 1;
#X connect 21 0 10 0;
#X connect 25 0 4 1;
#X connect 26 0 9 1;
#X connect 27 0 14 1;
#X connect 28 0 23 0;
#X connect 28 0 33 0;
#X connect 29 0 23 0;
#X connect 29 0 32 0;
#X connect 30 0 23 0;
#X connect 30 0 31 0;
#X connect 34 0 0 0;
#X connect 35 0 0 0;
#X connect 35 0 0 1;
#X connect 36 0 37 0;
#X connect 37 0 36 1;
#X connect 37 0 38 0;
#X connect 38 0 44 0;
#X connect 38 0 46 0;
#X connect 39 0 41 0;
#X connect 40 0 36 0;
#X connect 41 0 36 1;
#X connect 41 0 36 0;
#X connect 43 0 40 1;
#X connect 44 0 42 0;
#X connect 44 0 23 0;
#X connect 45 0 4 0;
#X connect 45 1 9 0;
#X connect 45 2 14 0;
#X connect 45 3 40 0;
