#N canvas 873 23 529 438 10;
#X obj 29 24 inlet;
#X obj 29 399 outlet;
#X obj 51 265 i;
#X obj 29 109 clip -1 132;
#X obj 29 133 t f f;
#X obj 29 313 +;
#X text 89 281 <- must always be 12: this defines which octave the
note will be in;
#X text 91 240 <- number of divisions/notes per octave;
#X obj 29 154 i;
#X obj 29 198 tabread master-pitch-gamut;
#X obj 51 244 / 12;
#X obj 29 176 mod 12;
#X obj 51 286 * 12;
#X obj 29 334 f;
#X connect 0 0 3 0;
#X connect 2 0 12 0;
#X connect 3 0 4 0;
#X connect 4 0 8 0;
#X connect 4 1 10 0;
#X connect 5 0 13 0;
#X connect 8 0 11 0;
#X connect 9 0 5 0;
#X connect 10 0 2 0;
#X connect 11 0 9 0;
#X connect 12 0 5 1;
#X connect 13 0 1 0;
