#N canvas 229 126 442 349 10;
#X obj 51 19 inlet;
#X obj 51 76 mod 12;
#X obj 51 257 symbol;
#X obj 51 294 outlet;
#X obj 51 120 t b f b;
#X msg 90 147 set;
#X msg 70 175 adddollar \$1;
#X msg 51 234 \$0;
#X msg 51 199 list C C#/Db D D#/Eb E F F#/Gb G G#/Ab A A#/Bb B;
#X obj 51 55 i;
#X obj 51 98 + 1;
#X connect 0 0 9 0;
#X connect 1 0 10 0;
#X connect 2 0 3 0;
#X connect 4 0 8 0;
#X connect 4 1 6 0;
#X connect 4 2 5 0;
#X connect 5 0 7 0;
#X connect 6 0 7 0;
#X connect 7 0 2 0;
#X connect 8 0 7 0;
#X connect 9 0 1 0;
#X connect 10 0 4 0;
