#N canvas 204 386 572 419 12;
#X obj 37 37 inlet;
#X obj 285 387 outlet;
#X obj 37 243 unpack f f;
#X text 225 29 \$1 = instance \; \$2 = \$0 \; \$3 = widget \; \$4 =
parameter 1 (x) \; \$5 = parameter 2 (y);
#X obj 140 163 unpack f f;
#X obj 37 118 route \$3lfofreq\$1 \$3lfodepth\$1;
#X obj 104 337 s \$2-\$5\$1-lfofreq;
#X obj 37 360 s \$2-\$4\$1-lfofreq;
#X obj 207 209 s \$2-\$5\$1-lfodepth;
#X obj 140 232 s \$2-\$4\$1-lfodepth;
#X obj 140 207 pow 2.7;
#X obj 207 185 pow 2.7;
#X obj 52 156 r \$2-reset;
#X msg 52 180 0;
#X obj 37 312 * 9.99;
#X obj 37 336 + 0.01;
#X obj 104 292 * 9.99;
#X obj 104 316 + 0.01;
#X msg 333 285 0 0;
#X obj 334 309 oscformat \$3lfofreq\$1;
#X msg 377 252 0 0;
#X obj 377 276 oscformat \$3lfodepth\$1;
#X obj 334 342 s to-o-s-c-interface;
#X obj 37 287 pow 5;
#X obj 104 267 pow 5;
#X connect 0 0 5 0;
#X connect 2 0 23 0;
#X connect 2 1 24 0;
#X connect 4 0 10 0;
#X connect 4 1 11 0;
#X connect 5 0 2 0;
#X connect 5 1 4 0;
#X connect 5 2 1 0;
#X connect 10 0 9 0;
#X connect 11 0 8 0;
#X connect 12 0 13 0;
#X connect 12 0 18 0;
#X connect 12 0 20 0;
#X connect 13 0 10 0;
#X connect 13 0 11 0;
#X connect 13 0 14 0;
#X connect 13 0 16 0;
#X connect 14 0 15 0;
#X connect 15 0 7 0;
#X connect 16 0 17 0;
#X connect 17 0 6 0;
#X connect 18 0 19 0;
#X connect 19 0 22 0;
#X connect 20 0 21 0;
#X connect 21 0 22 0;
#X connect 23 0 14 0;
#X connect 24 0 16 0;
