#N canvas 0 23 511 298 12;
#X obj 43 84 r \$1-reset;
#X obj 43 232 s to-o-s-c-interface;
#X text 153 15 LFO GUI reset;
#X text 200 58 \$1 = synth instance \; \$2 = parameter name;
#X obj 43 108 del 10;
#X obj 93 107 del 10;
#X msg 43 167 0;
#X obj 93 177 oscformat \$2lfodepth\$1;
#X msg 93 131 0;
#X obj 43 205 oscformat \$2lfofreq\$1;
#X connect 0 0 4 0;
#X connect 4 0 5 0;
#X connect 4 0 6 0;
#X connect 5 0 8 0;
#X connect 6 0 9 0;
#X connect 7 0 1 0;
#X connect 8 0 7 0;
#X connect 9 0 1 0;
