#N canvas 261 338 364 246 10;
#X obj 65 50 inlet;
#X obj 65 152 spigot 1;
#X obj 65 204 outlet;
#X obj 159 204 outlet;
#X obj 159 152 spigot 0;
#X obj 204 51 inlet;
#X text 284 109 0 = left \; 1 = right;
#X obj 204 101 tgl 15 0 empty empty empty 17 7 0 10 -262144 -1 -1 1
1;
#X obj 204 72 != 0;
#X obj 110 130 == 0;
#X connect 0 0 1 0;
#X connect 0 0 4 0;
#X connect 1 0 2 0;
#X connect 4 0 3 0;
#X connect 5 0 8 0;
#X connect 5 0 9 0;
#X connect 7 0 4 1;
#X connect 8 0 7 0;
#X connect 9 0 1 1;
#X coords 0 -1 1 1 120 17 1 100 100;
