#N canvas 0 23 450 300 12;
#X obj 129 38 inlet;
#X obj 222 42 inlet;
#X obj 129 172 pack f f;
#X obj 221 82 t b f;
#X obj 129 226 outlet;
#X connect 0 0 2 0;
#X connect 1 0 3 0;
#X connect 2 0 4 0;
#X connect 3 0 2 0;
#X connect 3 1 2 1;
