#N canvas 1240 263 246 485 10;
#X obj 44 30 inlet;
#X obj 76 157 until;
#X obj 76 235 list store;
#X obj 76 182 f;
#X obj 106 183 + 1;
#X msg 122 157 0, f 2;
#X msg 76 208 get \$1 1;
#X obj 76 261 route 1 2 3;
#X obj 76 124 t b b l b;
#X msg 182 290 0;
#X msg 76 289 1;
#X msg 109 289 2;
#X msg 144 288 3;
#X obj 44 104 t b a;
#X obj 44 369 t a;
#X obj 44 433 outlet;
#X obj 44 333 pack \$2 f f f;
#X obj 54 61 r \$1-reset;
#X msg 54 82 0;
#X connect 0 0 13 0;
#X connect 1 0 3 0;
#X connect 2 0 7 0;
#X connect 2 1 1 1;
#X connect 3 0 4 0;
#X connect 3 0 6 0;
#X connect 4 0 3 1;
#X connect 5 0 3 1;
#X connect 6 0 2 0;
#X connect 7 0 10 0;
#X connect 7 1 11 0;
#X connect 7 2 12 0;
#X connect 8 0 1 0;
#X connect 8 1 5 0;
#X connect 8 2 2 1;
#X connect 8 3 9 0;
#X connect 9 0 16 1;
#X connect 9 0 16 2;
#X connect 9 0 16 3;
#X connect 10 0 16 1;
#X connect 11 0 16 2;
#X connect 12 0 16 3;
#X connect 13 0 16 0;
#X connect 13 1 8 0;
#X connect 14 0 15 0;
#X connect 16 0 14 0;
#X connect 17 0 18 0;
#X connect 18 0 13 0;
