#N canvas 1270 572 405 332 12;
#X msg 44 44 trig bang;
#X msg 70 92 ctrig bang;
#X obj 44 23 r \$1-value-send;
#X obj 70 72 r \$1-value-send;
#X msg 112 192 slew \$1;
#X obj 112 171 r \$1-slew;
#X msg 89 144 reset bang;
#X obj 89 123 r \$1-reset;
#X obj 44 280 outlet;
#X text 211 29 \$1 = \$0;
#X connect 0 0 8 0;
#X connect 1 0 8 0;
#X connect 2 0 0 0;
#X connect 3 0 1 0;
#X connect 4 0 8 0;
#X connect 5 0 4 0;
#X connect 6 0 8 0;
#X connect 7 0 6 0;
