#N canvas 48 120 1866 692 12;
#X obj 55 33 inlet;
#X obj 76 114 r master-seq-on-off;
#X obj 76 171 tgl 15 0 empty empty empty 17 7 0 10 #fcfcfc #000000
#000000 0 1;
#X obj 183 295 expr 1/$f1;
#X msg 55 82 tempo \$1 permin;
#X obj 55 198 s \$0-internal;
#X obj 183 245 loadbang;
#X msg 183 269 1;
#X obj 60 295 r \$0-internal;
#X obj 60 403 i;
#X obj 88 403 + 1;
#X obj 70 354 r master-seq-on-off;
#X obj 70 378 sel 1;
#X obj 76 138 t f f;
#X obj 108 166 s \$0-reset;
#X obj 60 322 metro 1 110 permin;
#X msg 60 427 1 \$1;
#X obj 60 451 s \$0-beat-out;
#X obj 412 295 expr 1/$f1;
#X obj 412 245 loadbang;
#X obj 289 295 r \$0-internal;
#X obj 289 403 i;
#X obj 317 403 + 1;
#X obj 299 354 r master-seq-on-off;
#X obj 299 378 sel 1;
#X obj 289 322 metro 1 110 permin;
#X obj 289 451 s \$0-beat-out;
#X msg 412 269 2;
#X obj 641 293 expr 1/$f1;
#X obj 641 243 loadbang;
#X obj 518 293 r \$0-internal;
#X obj 518 401 i;
#X obj 546 401 + 1;
#X obj 528 352 r master-seq-on-off;
#X obj 528 376 sel 1;
#X obj 518 320 metro 1 110 permin;
#X obj 518 449 s \$0-beat-out;
#X msg 641 267 3;
#X obj 869 289 expr 1/$f1;
#X obj 869 239 loadbang;
#X obj 746 289 r \$0-internal;
#X obj 746 397 i;
#X obj 774 397 + 1;
#X obj 756 348 r master-seq-on-off;
#X obj 756 372 sel 1;
#X obj 746 316 metro 1 110 permin;
#X obj 746 445 s \$0-beat-out;
#X msg 869 263 4;
#X obj 1089 309 expr 1/$f1;
#X obj 1089 259 loadbang;
#X obj 966 309 r \$0-internal;
#X obj 966 417 i;
#X obj 994 417 + 1;
#X obj 976 368 r master-seq-on-off;
#X obj 976 392 sel 1;
#X obj 966 336 metro 1 110 permin;
#X obj 966 465 s \$0-beat-out;
#X obj 1318 309 expr 1/$f1;
#X obj 1318 259 loadbang;
#X obj 1195 309 r \$0-internal;
#X obj 1195 417 i;
#X obj 1223 417 + 1;
#X obj 1205 368 r master-seq-on-off;
#X obj 1205 392 sel 1;
#X obj 1195 336 metro 1 110 permin;
#X obj 1195 465 s \$0-beat-out;
#X obj 1547 307 expr 1/$f1;
#X obj 1547 257 loadbang;
#X obj 1424 307 r \$0-internal;
#X obj 1424 415 i;
#X obj 1452 415 + 1;
#X obj 1434 366 r master-seq-on-off;
#X obj 1434 390 sel 1;
#X obj 1424 334 metro 1 110 permin;
#X obj 1424 463 s \$0-beat-out;
#X obj 1775 303 expr 1/$f1;
#X obj 1775 253 loadbang;
#X obj 1652 303 r \$0-internal;
#X obj 1652 411 i;
#X obj 1680 411 + 1;
#X obj 1662 362 r master-seq-on-off;
#X obj 1662 386 sel 1;
#X obj 1652 330 metro 1 110 permin;
#X obj 1652 459 s \$0-beat-out;
#X msg 1089 283 5;
#X msg 1318 283 6;
#X msg 1547 281 7;
#X msg 1775 277 8;
#X obj 68 554 r \$0-beat-out;
#X obj 68 578 outlet;
#X msg 289 427 2 \$1;
#X msg 518 425 3 \$1;
#X msg 746 421 4 \$1;
#X msg 966 441 5 \$1;
#X msg 1195 441 6 \$1;
#X msg 1424 439 7 \$1;
#X msg 1652 435 8 \$1;
#X connect 0 0 4 0;
#X connect 1 0 13 0;
#X connect 2 0 5 0;
#X connect 3 0 15 1;
#X connect 4 0 5 0;
#X connect 6 0 7 0;
#X connect 7 0 3 0;
#X connect 8 0 15 0;
#X connect 9 0 10 0;
#X connect 9 0 16 0;
#X connect 10 0 9 1;
#X connect 11 0 12 0;
#X connect 12 1 9 1;
#X connect 13 0 2 0;
#X connect 13 1 14 0;
#X connect 15 0 9 0;
#X connect 16 0 17 0;
#X connect 18 0 25 1;
#X connect 19 0 27 0;
#X connect 20 0 25 0;
#X connect 21 0 22 0;
#X connect 21 0 90 0;
#X connect 22 0 21 1;
#X connect 23 0 24 0;
#X connect 24 1 21 1;
#X connect 25 0 21 0;
#X connect 27 0 18 0;
#X connect 28 0 35 1;
#X connect 29 0 37 0;
#X connect 30 0 35 0;
#X connect 31 0 32 0;
#X connect 31 0 91 0;
#X connect 32 0 31 1;
#X connect 33 0 34 0;
#X connect 34 1 31 1;
#X connect 35 0 31 0;
#X connect 37 0 28 0;
#X connect 38 0 45 1;
#X connect 39 0 47 0;
#X connect 40 0 45 0;
#X connect 41 0 42 0;
#X connect 41 0 92 0;
#X connect 42 0 41 1;
#X connect 43 0 44 0;
#X connect 44 1 41 1;
#X connect 45 0 41 0;
#X connect 47 0 38 0;
#X connect 48 0 55 1;
#X connect 49 0 84 0;
#X connect 50 0 55 0;
#X connect 51 0 52 0;
#X connect 51 0 93 0;
#X connect 52 0 51 1;
#X connect 53 0 54 0;
#X connect 54 1 51 1;
#X connect 55 0 51 0;
#X connect 57 0 64 1;
#X connect 58 0 85 0;
#X connect 59 0 64 0;
#X connect 60 0 61 0;
#X connect 60 0 94 0;
#X connect 61 0 60 1;
#X connect 62 0 63 0;
#X connect 63 1 60 1;
#X connect 64 0 60 0;
#X connect 66 0 73 1;
#X connect 67 0 86 0;
#X connect 68 0 73 0;
#X connect 69 0 70 0;
#X connect 69 0 95 0;
#X connect 70 0 69 1;
#X connect 71 0 72 0;
#X connect 72 1 69 1;
#X connect 73 0 69 0;
#X connect 75 0 82 1;
#X connect 76 0 87 0;
#X connect 77 0 82 0;
#X connect 78 0 79 0;
#X connect 78 0 96 0;
#X connect 79 0 78 1;
#X connect 80 0 81 0;
#X connect 81 1 78 1;
#X connect 82 0 78 0;
#X connect 84 0 48 0;
#X connect 85 0 57 0;
#X connect 86 0 66 0;
#X connect 87 0 75 0;
#X connect 88 0 89 0;
#X connect 90 0 26 0;
#X connect 91 0 36 0;
#X connect 92 0 46 0;
#X connect 93 0 56 0;
#X connect 94 0 65 0;
#X connect 95 0 74 0;
#X connect 96 0 83 0;
