#N canvas 574 227 623 428 10;
#X text 234 26 \$1 = \$0;
#X obj 8 368 outlet;
#X obj 7 188 s \$0-value;
#X obj 8 217 r \$0-value;
#X text 234 41 \$2 = synth instance (only used in Pd \, not faust external)
;
#X obj 111 20 inlet chaos;
#X obj 7 20 inlet value;
#N canvas 196 67 341 336 QUANTISATION 0;
#X obj 37 37 inlet;
#X obj 37 288 outlet;
#X obj 255 49 loadbang;
#X msg 255 114 0;
#X msg 286 117 1;
#X obj 255 135 t a;
#X obj 150 135 moses 1;
#X obj 189 157 ==;
#X obj 150 229 int;
#X obj 255 93 sel 0;
#X obj 37 175 f.util.switch;
#X obj 255 72 \$5;
#X obj 150 208 * \$5;
#X obj 150 250 / \$5;
#X obj 150 114 r quantiseglobal;
#X connect 0 0 10 0;
#X connect 2 0 11 0;
#X connect 3 0 5 0;
#X connect 4 0 5 0;
#X connect 5 0 7 1;
#X connect 6 0 10 1;
#X connect 6 1 7 0;
#X connect 7 0 10 1;
#X connect 8 0 13 0;
#X connect 9 0 3 0;
#X connect 9 1 4 0;
#X connect 10 0 1 0;
#X connect 10 1 12 0;
#X connect 11 0 9 0;
#X connect 12 0 8 0;
#X connect 13 0 1 0;
#X connect 14 0 6 0;
#X restore 7 71 pd QUANTISATION;
#X text 234 94 \$5 = quantisation steps;
#X text 234 77 \$4 = parameter default value;
#X msg 111 71 chaos \$1;
#X obj 7 168 f.seq.automater \$1 \$1-\$3 \$4;
#X obj 18 287 list trim;
#X text 234 59 \$3 = param name;
#X obj 18 309 s to-faust;
#X obj 18 266 list prepend formuls\$2 \$3;
#X obj 27 41 s \$0-spigot;
#N canvas 562 172 228 293 MESSAGE_STOP 0;
#X msg 142 120 0;
#X msg 98 169 1;
#X obj 53 201 spigot 1;
#X obj 98 77 t b b b;
#X msg 136 96 stop;
#X obj 53 29 inlet;
#X obj 53 242 outlet;
#X obj 98 28 inlet;
#X obj 53 178 f;
#X obj 98 139 t b b;
#X obj 98 118 del 20;
#X connect 0 0 2 1;
#X connect 1 0 2 1;
#X connect 2 0 6 0;
#X connect 3 0 10 0;
#X connect 3 1 0 0;
#X connect 3 2 4 0;
#X connect 4 0 10 0;
#X connect 5 0 8 0;
#X connect 7 0 3 0;
#X connect 8 0 2 0;
#X connect 9 0 8 0;
#X connect 9 1 1 0;
#X connect 10 0 9 0;
#X restore 8 330 pd MESSAGE_STOP;
#X obj 95 308 r \$0-spigot;
#X obj 210 299 oscformat \$3\$2;
#X obj 200 369 outlet;
#N canvas 562 172 228 293 MESSAGE_STOP 0;
#X msg 142 120 0;
#X msg 98 169 1;
#X obj 53 201 spigot 1;
#X obj 98 77 t b b b;
#X msg 136 96 stop;
#X obj 53 29 inlet;
#X obj 53 242 outlet;
#X obj 98 28 inlet;
#X obj 53 178 f;
#X obj 98 139 t b b;
#X obj 98 118 del 20;
#X connect 0 0 2 1;
#X connect 1 0 2 1;
#X connect 2 0 6 0;
#X connect 3 0 10 0;
#X connect 3 1 0 0;
#X connect 3 2 4 0;
#X connect 4 0 10 0;
#X connect 5 0 8 0;
#X connect 7 0 3 0;
#X connect 8 0 2 0;
#X connect 9 0 8 0;
#X connect 9 1 1 0;
#X connect 10 0 9 0;
#X restore 200 273 pd MESSAGE_STOP;
#X obj 287 251 r \$0-spigot;
#N canvas 31 98 299 326 SCALE___ 0;
#X obj 70 275 outlet;
#X obj 183 52 loadbang;
#X msg 183 117 0;
#X msg 210 117 1;
#X obj 183 138 t a;
#X obj 183 96 sel 0;
#X obj 70 162 f.util.switch;
#X obj 183 75 \$6;
#X obj 183 185 pow \$6;
#X obj 70 16 inlet;
#X connect 1 0 7 0;
#X connect 2 0 4 0;
#X connect 3 0 4 0;
#X connect 4 0 6 1;
#X connect 5 0 2 0;
#X connect 5 1 3 0;
#X connect 6 0 0 0;
#X connect 6 1 8 0;
#X connect 7 0 5 0;
#X connect 8 0 0 0;
#X connect 9 0 6 0;
#X restore 18 240 pd SCALE___;
#X text 241 129 \$6 = exponential scaling (if no value \, then linear
scaling);
#X text 234 111 eg: \$0 0 waveshape 0 4 2.7;
#X obj 45 143 f.util.triglfomessage \$1 \$2 \$3;
#X obj 210 319 s \$2-message-collect;
#X connect 3 0 23 0;
#X connect 3 0 17 0;
#X connect 5 0 10 0;
#X connect 6 0 7 0;
#X connect 6 0 16 0;
#X connect 7 0 11 0;
#X connect 10 0 11 0;
#X connect 11 0 2 0;
#X connect 11 1 21 0;
#X connect 12 0 14 0;
#X connect 15 0 12 0;
#X connect 17 0 1 0;
#X connect 18 0 17 1;
#X connect 19 0 27 0;
#X connect 21 0 19 0;
#X connect 21 0 20 0;
#X connect 22 0 21 1;
#X connect 23 0 15 0;
#X connect 26 0 11 0;
