#N canvas 584 23 465 585 10;
#X obj 29 24 inlet;
#X obj 29 541 outlet;
#X obj 44 353 i;
#X obj 29 109 clip -1 132;
#X obj 29 400 +;
#X text 82 349 <- must always be 12: this defines which octave the
note will be in;
#X text 80 313 <- number of divisions/notes per octave;
#X obj 29 275 tabread master-pitch-gamut;
#X obj 44 332 / 12;
#X obj 29 156 mod 12;
#X obj 44 374 * 12;
#X obj 44 418 r scale-root-note;
#X obj 29 441 +;
#X obj 29 133 t f b b f;
#X obj 49 201 tabread master-pitch-active;
#X obj 49 250 f;
#X obj 49 227 sel 1;
#X obj 49 178 t f f;
#X obj 152 132 r pitch-gamut-length;
#X obj 86 294 r pitch-gamut-length;
#X connect 0 0 3 0;
#X connect 2 0 10 0;
#X connect 3 0 13 0;
#X connect 4 0 12 0;
#X connect 7 0 4 0;
#X connect 8 0 2 0;
#X connect 9 0 7 0;
#X connect 10 0 4 1;
#X connect 11 0 12 1;
#X connect 12 0 1 0;
#X connect 13 0 9 0;
#X connect 13 3 8 0;
#X connect 14 0 16 0;
#X connect 16 0 15 0;
#X connect 17 0 14 0;
#X connect 17 1 15 1;
#X connect 18 0 9 1;
#X connect 19 0 8 1;
