#N canvas 20 488 992 360 12;
#X obj 25 12 tgl 15 0 empty empty empty 17 7 0 10 -262144 -1 -1 1 1
;
#X msg 25 32 active \$1;
#X obj 43 57 r formulsdev;
#X obj 110 80 tgl 15 0 empty empty empty 17 7 0 10 -262144 -1 -1 1
1;
#X obj 87 313 dac~;
#X obj 133 248 s~ \$0-1;
#X obj 67 101 r~ \$0-1;
#X obj 195 263 rev3~ 100 90 3000 20;
#X floatatom 240 241 5 0 99 0 - - -;
#X obj 200 164 print;
#X obj 216 20 tgl 15 0 empty empty empty 17 7 0 10 -262144 -1 -1 0
1;
#X obj 216 43 metro 10;
#X obj 219 107 osc~ 0.5;
#X floatatom 389 25 5 0 0 0 - - -;
#X obj 389 47 t b f;
#X obj 42 138 formulsdev~;
#X obj 43 80 spigot 1;
#X msg 316 108 /formulsdev/seqreadout \$1;
#X msg 389 70 /formulsdev/seqval0;
#X msg 198 68 /formulsdev/op2freqO;
#X obj 450 215 writesf~ 2;
#X msg 552 166 start;
#X msg 581 204 stop;
#X msg 424 161 open dubby.wav;
#X connect 0 0 1 0;
#X connect 1 0 15 0;
#X connect 2 0 16 0;
#X connect 3 0 16 1;
#X connect 6 0 15 1;
#X connect 7 0 4 0;
#X connect 7 0 20 0;
#X connect 7 1 4 1;
#X connect 7 1 20 1;
#X connect 8 0 7 2;
#X connect 10 0 11 0;
#X connect 11 0 19 0;
#X connect 13 0 14 0;
#X connect 14 0 18 0;
#X connect 14 1 17 0;
#X connect 15 0 9 0;
#X connect 15 1 4 0;
#X connect 15 1 5 0;
#X connect 15 1 7 0;
#X connect 15 1 20 0;
#X connect 15 2 4 1;
#X connect 15 2 5 0;
#X connect 15 2 7 1;
#X connect 15 2 20 1;
#X connect 16 0 15 0;
#X connect 17 0 15 0;
#X connect 18 0 15 0;
#X connect 19 0 15 0;
#X connect 21 0 20 0;
#X connect 22 0 20 0;
#X connect 23 0 20 0;
