#N canvas 23 636 689 386 12;
#X obj 25 12 tgl 15 0 empty empty empty 17 7 0 10 -262144 -1 -1 1 1
;
#X msg 25 32 active \$1;
#X obj 110 80 tgl 15 0 empty empty empty 17 7 0 10 -262144 -1 -1 1
1;
#X obj 54 358 dac~;
#X obj 21 186 s~ \$0-1;
#X obj 67 101 r~ \$0-1;
#X obj 60 321 rev3~ 100 90 3000 20;
#X floatatom 105 299 5 0 99 0 - - -;
#X obj 80 123 osc~ 0.5;
#X obj 43 80 spigot 1;
#X obj 42 158 formuls~;
#X obj 42 57 r formuls0;
#N canvas 0 23 450 300 link 0;
#X floatatom 195 101 5 0 0 1 beat_time - -;
#X obj 100 42 abl_link~ 1 0 4 134;
#X obj 197 128 s link;
#X connect 0 0 2 0;
#X connect 1 2 0 0;
#X restore 114 360 pd link;
#X obj 47 211 throw~ \$0-l;
#X obj 67 231 throw~ \$0-r;
#X obj 46 254 catch~ \$0-l;
#X obj 66 274 catch~ \$0-r;
#X obj 531 21 test-interface 0;
#X obj 228 33 tgl 15 0 empty empty empty 17 7 0 10 -262144 -1 -1 1
1;
#X msg 228 53 active \$1;
#X obj 313 101 tgl 15 0 empty empty empty 17 7 0 10 -262144 -1 -1 1
1;
#X obj 246 101 spigot 1;
#X obj 245 179 formuls~;
#X obj 250 232 throw~ \$0-l;
#X obj 270 252 throw~ \$0-r;
#X obj 224 207 s~ \$0-2;
#X obj 534 50 test-interface 1;
#X obj 377 48 tgl 15 0 empty empty empty 17 7 0 10 -262144 -1 -1 1
1;
#X msg 377 68 active \$1;
#X obj 462 116 tgl 15 0 empty empty empty 17 7 0 10 -262144 -1 -1 1
1;
#X obj 395 116 spigot 1;
#X obj 394 194 formuls~;
#X obj 535 78 test-interface 2;
#X obj 245 78 r formuls1;
#X obj 394 93 r formuls2;
#X obj 373 222 s~ \$0-3;
#X obj 419 137 r~ \$0-3;
#X obj 270 122 r~ \$0-2;
#X obj 283 144 osc~ 0.7;
#X obj 432 159 osc~ 0.8;
#X obj 399 247 throw~ \$0-l;
#X obj 419 267 throw~ \$0-r;
#X obj 152 126 r~ \$0-3;
#N canvas 182 311 482 466 notes 0;
#X obj 54 5 tgl 15 0 empty empty empty 17 7 0 10 -262144 -1 -1 0 1
;
#X obj 54 51 i;
#X obj 81 52 + 1;
#X obj 51 409 print formuls says;
#X msg 51 379 IT'S FORMULS BAYBEE!;
#X msg 67 355 THIS CODE TOOK AGES TO WRITE!;
#X msg 88 331 NOW MY WRIST HAS RSI;
#X msg 107 309 BUT IT SOUNDS QUITE GOOD;
#X msg 123 285 VISIT FORMULS.CO.UK--IT'S THE BEST!;
#X msg 141 262 I MIGHT RELEASE ANOTHER ALBUM SOON;
#X msg 154 236 AND IT'LL BE DAMN NOISIER THAN THIS LULLABY;
#X msg 177 211 MAN I COULD MURDER A BEER RIGHT NOW;
#X msg 196 188 TRIPPY!;
#X obj 55 28 metro 3000;
#X obj 54 97 sel 1 2 3 4 5 6 7 8 9 10;
#X msg 205 164 I'M ALL GROWN UP NOW. I USE GITHUB;
#X obj 54 74 mod 11;
#X msg 115 50 0;
#X connect 0 0 13 0;
#X connect 1 0 2 0;
#X connect 1 0 16 0;
#X connect 2 0 1 1;
#X connect 4 0 3 0;
#X connect 5 0 3 0;
#X connect 6 0 3 0;
#X connect 7 0 3 0;
#X connect 8 0 3 0;
#X connect 10 0 3 0;
#X connect 11 0 3 0;
#X connect 12 0 3 0;
#X connect 13 0 1 0;
#X connect 14 0 4 0;
#X connect 14 1 5 0;
#X connect 14 2 6 0;
#X connect 14 3 7 0;
#X connect 14 4 8 0;
#X connect 14 5 9 0;
#X connect 14 6 10 0;
#X connect 14 7 11 0;
#X connect 14 8 12 0;
#X connect 14 9 15 0;
#X connect 15 0 3 0;
#X connect 16 0 14 0;
#X connect 17 0 1 1;
#X restore 512 157 pd notes;
#X connect 0 0 1 0;
#X connect 1 0 10 0;
#X connect 2 0 9 1;
#X connect 5 0 10 1;
#X connect 5 0 31 1;
#X connect 6 0 3 0;
#X connect 6 1 3 1;
#X connect 7 0 6 2;
#X connect 8 0 10 2;
#X connect 9 0 10 0;
#X connect 10 1 4 0;
#X connect 10 1 13 0;
#X connect 10 2 4 0;
#X connect 10 2 14 0;
#X connect 11 0 9 0;
#X connect 15 0 3 0;
#X connect 15 0 6 0;
#X connect 16 0 3 1;
#X connect 16 0 6 1;
#X connect 18 0 19 0;
#X connect 19 0 22 0;
#X connect 20 0 21 1;
#X connect 21 0 22 0;
#X connect 22 1 23 0;
#X connect 22 1 25 0;
#X connect 22 2 24 0;
#X connect 22 2 25 0;
#X connect 27 0 28 0;
#X connect 28 0 31 0;
#X connect 29 0 30 1;
#X connect 30 0 31 0;
#X connect 31 1 35 0;
#X connect 31 1 40 0;
#X connect 31 2 35 0;
#X connect 31 2 41 0;
#X connect 33 0 21 0;
#X connect 34 0 30 0;
#X connect 37 0 22 1;
#X connect 38 0 22 2;
#X connect 39 0 31 2;
#X connect 42 0 10 1;
