#N canvas 36 492 882 386 12;
#X obj 25 12 tgl 15 0 empty empty empty 17 7 0 10 -262144 -1 -1 1 1
;
#X msg 25 32 active \$1;
#X obj 110 80 tgl 15 0 empty empty empty 17 7 0 10 -262144 -1 -1 0
1;
#X obj 54 358 dac~;
#X obj 21 186 s~ \$0-1;
#X obj 67 101 r~ \$0-1;
#X floatatom 114 297 5 0 99 0 - - -;
#X obj 80 123 osc~ 0.5;
#X obj 43 80 spigot 1;
#X obj 42 158 formuls~;
#N canvas 0 23 450 300 link 0;
#X floatatom 195 101 5 0 0 1 beat_time - -;
#X obj 197 128 s link;
#X obj 100 42 abl_link~ 1 0 4 110;
#X msg 312 49 tempo \$1;
#X floatatom 312 30 5 0 0 2 tempo - -;
#X obj 199 16 inlet;
#X connect 0 0 1 0;
#X connect 2 2 0 0;
#X connect 3 0 2 0;
#X connect 4 0 3 0;
#X connect 5 0 4 0;
#X restore 321 344 pd link;
#X obj 46 254 catch~ \$0-l;
#X obj 66 274 catch~ \$0-r;
#X obj 228 33 tgl 15 0 empty empty empty 17 7 0 10 -262144 -1 -1 0
1;
#X msg 228 53 active \$1;
#X obj 313 101 tgl 15 0 empty empty empty 17 7 0 10 -262144 -1 -1 0
1;
#X obj 246 101 spigot 1;
#X obj 245 179 formuls~;
#X obj 224 207 s~ \$0-2;
#X obj 377 48 tgl 15 0 empty empty empty 17 7 0 10 -262144 -1 -1 0
1;
#X msg 377 68 active \$1;
#X obj 462 116 tgl 15 0 empty empty empty 17 7 0 10 -262144 -1 -1 0
1;
#X obj 395 116 spigot 1;
#X obj 394 194 formuls~;
#X obj 373 222 s~ \$0-3;
#X obj 419 137 r~ \$0-3;
#X obj 224 128 r~ \$0-2;
#X obj 283 144 osc~ 0.7;
#X obj 432 159 osc~ 0.8;
#X obj 399 247 throw~ \$0-l;
#X obj 419 267 throw~ \$0-r;
#X obj 161 113 r~ \$0-3;
#N canvas 182 311 482 466 notes 0;
#X obj 54 5 tgl 15 0 empty empty empty 17 7 0 10 -262144 -1 -1 0 1
;
#X obj 54 51 i;
#X obj 81 52 + 1;
#X obj 51 409 print formuls says;
#X msg 51 379 IT'S FORMULS BAYBEE!;
#X msg 67 355 THIS CODE TOOK AGES TO WRITE!;
#X msg 88 331 NOW MY WRIST HAS RSI;
#X msg 107 309 BUT IT SOUNDS QUITE GOOD;
#X msg 123 285 VISIT FORMULS.CO.UK--IT'S THE BEST!;
#X msg 141 262 I MIGHT RELEASE ANOTHER ALBUM SOON;
#X msg 154 236 AND IT'LL BE DAMN NOISIER THAN THIS LULLABY;
#X msg 177 211 MAN I COULD MURDER A BEER RIGHT NOW;
#X msg 196 188 TRIPPY!;
#X obj 55 28 metro 3000;
#X obj 54 97 sel 1 2 3 4 5 6 7 8 9 10;
#X msg 205 164 I'M ALL GROWN UP NOW. I USE GITHUB;
#X obj 54 74 mod 11;
#X msg 115 50 0;
#X connect 0 0 13 0;
#X connect 1 0 2 0;
#X connect 1 0 16 0;
#X connect 2 0 1 1;
#X connect 4 0 3 0;
#X connect 5 0 3 0;
#X connect 6 0 3 0;
#X connect 7 0 3 0;
#X connect 8 0 3 0;
#X connect 10 0 3 0;
#X connect 11 0 3 0;
#X connect 12 0 3 0;
#X connect 13 0 1 0;
#X connect 14 0 4 0;
#X connect 14 1 5 0;
#X connect 14 2 6 0;
#X connect 14 3 7 0;
#X connect 14 4 8 0;
#X connect 14 5 9 0;
#X connect 14 6 10 0;
#X connect 14 7 11 0;
#X connect 14 8 12 0;
#X connect 14 9 15 0;
#X connect 15 0 3 0;
#X connect 16 0 14 0;
#X connect 17 0 1 1;
#X restore 512 157 pd notes;
#X obj 61 323 rev3~ 100 90 3000 20;
#X obj 250 232 throw~ \$0-l;
#X obj 270 252 throw~ \$0-r;
#X obj 335 111 r~ \$0-1;
#X obj 323 196 *~ 2;
#X obj 47 211 throw~ \$0-l;
#X obj 67 231 throw~ \$0-r;
#X obj 121 187 _dac~;
#N canvas 0 23 465 690 compressor 0;
#X obj 28 28 inlet~;
#X obj 176 20 inlet~;
#X obj 27 543 outlet~;
#X obj 177 544 outlet~;
#X obj 58 71 hip~ 5;
#X obj 121 71 hip~ 5;
#X obj 58 97 *~;
#X obj 120 98 *~;
#X obj 87 158 +~;
#X obj 87 281 rmstodb~;
#X obj 86 353 dbtorms~;
#X obj 27 484 *~;
#X obj 177 484 *~;
#X obj 25 272 /~;
#X obj 178 270 /~;
#X obj 201 390 dbtorms;
#X obj 86 417 /~ 0;
#X obj 86 197 sqrt~;
#X obj 86 442 *~ 0.25;
#X obj 310 55 loadbang;
#X obj 27 514 expr~ tanh($v1);
#X obj 177 514 expr~ tanh($v1);
#X obj 310 79 f 48;
#X obj 87 233 lop~ 10;
#X obj 120 123 lop~ 10;
#X obj 57 124 lop~ 10;
#X obj 86 314 expr~ if($v1>$f2 \, $f2+($v1-$f2)/4 \, $f2);
#X obj 202 367 expr (100-$f1)/4+$f1;
#X obj 315 445 env~;
#X obj 315 466 dbtorms;
#X floatatom 315 487 5 0 0 0 - - -;
#X obj 288 536 env~;
#X obj 288 557 dbtorms;
#X floatatom 288 578 5 0 0 0 - - -;
#X connect 0 0 4 0;
#X connect 0 0 13 0;
#X connect 1 0 5 0;
#X connect 1 0 14 0;
#X connect 4 0 6 0;
#X connect 4 0 6 1;
#X connect 5 0 7 0;
#X connect 5 0 7 1;
#X connect 6 0 25 0;
#X connect 7 0 24 0;
#X connect 8 0 17 0;
#X connect 9 0 26 0;
#X connect 10 0 16 0;
#X connect 11 0 20 0;
#X connect 12 0 21 0;
#X connect 13 0 11 0;
#X connect 14 0 12 0;
#X connect 15 0 16 1;
#X connect 16 0 18 0;
#X connect 17 0 23 0;
#X connect 18 0 11 1;
#X connect 18 0 12 1;
#X connect 18 0 28 0;
#X connect 19 0 22 0;
#X connect 20 0 2 0;
#X connect 21 0 31 0;
#X connect 21 0 3 0;
#X connect 22 0 26 1;
#X connect 22 0 27 0;
#X connect 23 0 13 1;
#X connect 23 0 14 1;
#X connect 23 0 9 0;
#X connect 24 0 8 1;
#X connect 25 0 8 0;
#X connect 26 0 10 0;
#X connect 27 0 15 0;
#X connect 28 0 29 0;
#X connect 29 0 30 0;
#X connect 31 0 32 0;
#X connect 32 0 33 0;
#X restore 195 292 pd compressor;
#X obj 531 21 test-interface 1;
#X obj 534 50 test-interface 2;
#X obj 535 78 test-interface 3;
#X obj 42 57 r formuls1;
#X obj 245 78 r formuls2;
#X obj 394 93 r formuls3;
#X obj 176 174 env~;
#X floatatom 176 197 5 0 0 0 - - -;
#X msg 145 38 help;
#N canvas 0 23 450 300 OSCRECEIVE 0;
#X msg 22 51 listen 8888;
#X obj 22 74 netreceive -u -b;
#X obj 22 97 oscparse;
#X obj 22 120 list trim;
#X obj 22 29 loadbang;
#X obj 22 143 s o-s-c-messages;
#X connect 0 0 1 0;
#X connect 1 0 2 0;
#X connect 2 0 3 0;
#X connect 3 0 5 0;
#X connect 4 0 0 0;
#X restore 609 164 pd OSCRECEIVE;
#X obj 157 76 print here;
#X floatatom 321 321 5 0 0 2 tempo - -;
#X obj 493 323 writesf~ 2;
#X msg 534 279 open thenew.wav;
#X msg 540 235 start;
#X msg 590 246 stop;
#X connect 0 0 1 0;
#X connect 1 0 9 0;
#X connect 2 0 8 1;
#X connect 5 0 9 1;
#X connect 6 0 33 2;
#X connect 7 0 9 3;
#X connect 8 0 9 0;
#X connect 9 1 4 0;
#X connect 9 1 38 0;
#X connect 9 1 40 0;
#X connect 9 1 48 0;
#X connect 9 2 4 0;
#X connect 9 2 39 0;
#X connect 9 2 40 1;
#X connect 11 0 33 0;
#X connect 11 0 3 0;
#X connect 11 0 41 0;
#X connect 12 0 33 1;
#X connect 12 0 3 1;
#X connect 12 0 41 1;
#X connect 13 0 14 0;
#X connect 14 0 17 0;
#X connect 15 0 16 1;
#X connect 16 0 17 0;
#X connect 17 1 18 0;
#X connect 17 1 34 0;
#X connect 17 2 18 0;
#X connect 17 2 35 0;
#X connect 19 0 20 0;
#X connect 20 0 23 0;
#X connect 21 0 22 1;
#X connect 22 0 23 0;
#X connect 23 1 24 0;
#X connect 23 1 29 0;
#X connect 23 2 24 0;
#X connect 23 2 30 0;
#X connect 25 0 17 1;
#X connect 26 0 23 1;
#X connect 27 0 17 2;
#X connect 27 0 17 3;
#X connect 28 0 23 2;
#X connect 33 0 3 0;
#X connect 33 0 54 0;
#X connect 33 1 3 1;
#X connect 33 1 54 1;
#X connect 36 0 17 3;
#X connect 36 0 37 0;
#X connect 36 0 17 1;
#X connect 37 0 17 3;
#X connect 41 0 3 0;
#X connect 41 0 54 0;
#X connect 41 1 3 1;
#X connect 41 1 54 1;
#X connect 45 0 8 0;
#X connect 45 0 52 0;
#X connect 46 0 16 0;
#X connect 47 0 22 0;
#X connect 48 0 49 0;
#X connect 50 0 9 0;
#X connect 53 0 10 0;
#X connect 55 0 54 0;
#X connect 56 0 54 0;
#X connect 57 0 54 0;
