#N canvas 92 23 1348 855 12;
#X obj 879 12 s formulsdev;
#X floatatom 23 48 5 0 0 0 - - -;
#X obj 1034 500 tgl 15 0 empty empty empty 17 7 0 10 -262144 -1 -1
0 1;
#X obj 1117 439 t b b f;
#X obj 1117 515 t a;
#X obj 1117 306 tgl 15 0 empty empty empty 17 7 0 10 -262144 -1 -1
0 1;
#X obj 1066 309 bng 15 250 50 0 empty empty empty 17 7 0 10 -262144
-1 -1;
#X obj 1213 345 + 1;
#X obj 1213 321 random 3;
#X obj 1101 688 tgl 15 0 empty empty empty 17 7 0 10 -262144 -1 -1
0 1;
#X obj 1117 463 del 2;
#X msg 1148 488 1;
#X msg 1117 486 0;
#X obj 1117 331 metro 200;
#X obj 1213 369 * 100;
#X floatatom 1206 290 5 0 0 0 - - -;
#X obj 1100 541 random 100;
#X obj 1100 565 moses 30;
#X obj 1100 587 t b b f;
#X obj 1100 663 t a;
#X obj 1100 611 del 2;
#X msg 1131 636 1;
#X msg 1100 634 0;
#X obj 1191 420 random 100;
#X floatatom 1213 393 5 0 0 0 - - -;
#X obj 1035 478 spigot;
#X obj 1089 480 tgl 15 0 empty empty empty 17 7 0 10 -262144 -1 -1
0 1;
#N canvas 0 23 1072 721 FOOPER_____ 0;
#X msg 323 108 formuls/fooperrecord0 \$1;
#X obj 323 132 s \$0-out;
#X obj 329 156 tgl 15 0 empty empty empty 17 7 0 10 -262144 -1 -1 0
1;
#X obj 329 201 s \$0-out;
#X msg 329 177 formuls/play0 \$1;
#X obj 329 352 s \$0-out;
#X msg 329 328 formuls/speed0 \$1;
#X floatatom 329 306 5 0 1 0 - - -;
#X obj 477 261 s \$0-out;
#X floatatom 477 215 5 0 1 0 - - -;
#X msg 477 237 formuls/readoffset0 \$1;
#X obj 322 278 s \$0-out;
#X floatatom 322 232 5 0.001 1 0 - - -;
#X msg 322 254 formuls/duration0 \$1;
#X obj 330 432 s \$0-out;
#X floatatom 330 386 5 0 1 0 - - -;
#X msg 330 408 formuls/envelope0 \$1;
#X obj 495 346 s \$0-out;
#X floatatom 495 300 5 0 1 0 - - -;
#X msg 495 322 formuls/dropout0 \$1;
#X obj 506 431 s \$0-out;
#X floatatom 506 385 5 0 1 0 - - -;
#X msg 506 407 formuls/level0 \$1;
#X obj 519 143 s \$0-out;
#X msg 519 119 formuls/reverse0 \$1;
#X obj 685 250 tgl 15 0 empty empty empty 17 7 0 10 -262144 -1 -1 0
1;
#X obj 685 297 s \$0-out;
#X obj 656 370 tgl 15 0 empty empty empty 17 7 0 10 -262144 -1 -1 0
1;
#X obj 656 417 s \$0-out;
#X obj 662 300 tgl 15 0 empty empty empty 17 7 0 10 -262144 -1 -1 0
1;
#X obj 662 347 s \$0-out;
#X msg 687 274 formuls/rearecord0 \$1;
#X msg 664 323 formuls/reaact0 \$1;
#X msg 658 393 formuls/realoop0 \$1;
#X obj 112 221 s \$0-out;
#X obj 112 178 tgl 15 0 empty empty empty 17 7 0 10 -262144 -1 -1 0
1;
#X obj 142 298 s \$0-out;
#X floatatom 142 252 5 0 1 0 - - -;
#X msg 142 274 formuls/durchaos0 \$1;
#X obj 130 389 s \$0-out;
#X floatatom 130 343 5 0 1 0 - - -;
#X msg 130 365 formuls/reachaos0 \$1;
#X obj 137 464 s \$0-out;
#X floatatom 137 418 5 0 1 0 - - -;
#X msg 137 441 formuls/spechaos0 \$1;
#N canvas 0 22 450 300 record 0;
#X obj 106 109 bng 15 250 50 0 empty empty empty 17 7 0 10 -262144
-1 -1;
#X obj 162 109 tgl 15 0 empty empty empty 17 7 0 10 -262144 -1 -1 0
1;
#X obj 105 140 t b b b;
#X msg 151 165 stop;
#X msg 105 218 0;
#X msg 139 219 1;
#X obj 105 244 t a;
#X obj 105 268 outlet;
#X obj 105 194 del 6400;
#X connect 0 0 2 0;
#X connect 2 0 8 0;
#X connect 2 1 5 0;
#X connect 2 2 3 0;
#X connect 3 0 8 0;
#X connect 4 0 6 0;
#X connect 5 0 6 0;
#X connect 6 0 7 0;
#X connect 6 0 1 0;
#X connect 8 0 4 0;
#X coords 0 -1 1 1 85 30 2 100 100;
#X restore 323 76 pd record;
#X obj 472 145 tgl 15 0 empty empty empty 17 7 0 10 -262144 -1 -1 0
1;
#X obj 472 190 s \$0-out;
#N canvas 0 23 521 173 fooperADSR 0;
#X obj 26 91 s \$0-out;
#X obj 135 94 s \$0-out;
#X floatatom 135 48 5 0 1 0 - - -;
#X obj 242 93 s \$0-out;
#X floatatom 242 47 5 0.001 1 0 - - -;
#X obj 357 91 s \$0-out;
#X floatatom 357 45 5 0 1 0 - - -;
#X msg 26 67 formuls/a0 \$1;
#X msg 135 70 formuls/d0 \$1;
#X msg 242 69 formuls/s0 \$1;
#X msg 357 67 formuls/r0 \$1;
#X floatatom 25 44 5 0 1 0 - - -;
#X connect 2 0 8 0;
#X connect 4 0 9 0;
#X connect 6 0 10 0;
#X connect 7 0 0 0;
#X connect 8 0 1 0;
#X connect 9 0 3 0;
#X connect 10 0 5 0;
#X connect 11 0 7 0;
#X restore 392 469 pd fooperADSR;
#X text 378 383 <------------->;
#X text 373 302 <------------->;
#X text 360 225 <------------->;
#X obj 238 306 hradio 15 1 0 4 empty empty empty 0 -8 0 10 -262144
-1 -1 3;
#N canvas 0 22 450 300 s 0;
#X obj 137 44 inlet;
#X obj 134 72 sel 0 1 2 3;
#X msg 137 140 0.125;
#X obj 137 163 outlet;
#X msg 176 114 0.25;
#X msg 226 119 0.5;
#X msg 268 119 1;
#X connect 0 0 1 0;
#X connect 1 0 2 0;
#X connect 1 1 4 0;
#X connect 1 2 5 0;
#X connect 1 3 6 0;
#X connect 2 0 3 0;
#X connect 4 0 3 0;
#X connect 5 0 3 0;
#X connect 6 0 3 0;
#X restore 245 328 pd s;
#X obj 182 225 hradio 15 1 0 8 empty empty empty 0 -8 0 10 -262144
-1 -1 1;
#N canvas 0 22 525 300 s 0;
#X obj 137 44 inlet;
#X obj 299 193 outlet;
#X obj 119 83 sel 0 1 2 3 4 5 6 7;
#X msg 464 106 1;
#X msg 430 107 0.5;
#X msg 396 108 0.25;
#X msg 355 109 0.125;
#X msg 305 111 0.0625;
#X msg 243 110 0.03125;
#X msg 179 111 0.015625;
#X msg 103 113 0.0078125;
#X connect 0 0 2 0;
#X connect 2 0 10 0;
#X connect 2 1 9 0;
#X connect 2 2 8 0;
#X connect 2 3 7 0;
#X connect 2 4 6 0;
#X connect 2 5 5 0;
#X connect 2 6 4 0;
#X connect 2 7 3 0;
#X connect 3 0 1 0;
#X connect 4 0 1 0;
#X connect 5 0 1 0;
#X connect 6 0 1 0;
#X connect 7 0 1 0;
#X connect 8 0 1 0;
#X connect 9 0 1 0;
#X connect 10 0 1 0;
#X restore 189 247 pd s;
#X msg 472 166 formuls/oneshot0 \$1;
#X msg 112 197 formuls-dev/envelopeside0 \$1;
#X connect 0 0 1 0;
#X connect 2 0 4 0;
#X connect 4 0 3 0;
#X connect 6 0 5 0;
#X connect 7 0 6 0;
#X connect 9 0 10 0;
#X connect 10 0 8 0;
#X connect 12 0 13 0;
#X connect 13 0 11 0;
#X connect 15 0 16 0;
#X connect 16 0 14 0;
#X connect 18 0 19 0;
#X connect 19 0 17 0;
#X connect 21 0 22 0;
#X connect 22 0 20 0;
#X connect 24 0 23 0;
#X connect 25 0 31 0;
#X connect 27 0 33 0;
#X connect 29 0 32 0;
#X connect 31 0 26 0;
#X connect 32 0 30 0;
#X connect 33 0 28 0;
#X connect 35 0 57 0;
#X connect 37 0 38 0;
#X connect 38 0 36 0;
#X connect 40 0 41 0;
#X connect 41 0 39 0;
#X connect 43 0 44 0;
#X connect 44 0 42 0;
#X connect 45 0 0 0;
#X connect 46 0 56 0;
#X connect 52 0 53 0;
#X connect 53 0 7 0;
#X connect 54 0 55 0;
#X connect 55 0 12 0;
#X connect 56 0 47 0;
#X connect 57 0 34 0;
#X restore 1232 190 pd FOOPER_____;
#X obj 1072 806 s formuls-dev;
#X floatatom 1262 365 5 0 0 0 - - -;
#X obj 23 113 specific.message formulsdev extfeed ext 0;
#X obj 23 156 specific.message formulsdev waveshape w 0;
#X obj 23 203 specific.message formulsdev op1sliderange op1sr 0;
#X obj 23 250 specific.message formulsdev op1slidetime op1st 0;
#X obj 25 298 specific.message formulsdev op2freq op2f 0;
#X obj 25 348 specific.message formulsdev op2depth op2d 0;
#X obj 25 395 specific.message formulsdev noise n 0;
#X obj 25 443 specific.message formulsdev noisefilterfreq nf 0;
#X obj 25 493 specific.message formulsdev attack a 0;
#X obj 25 539 specific.message formulsdev decay d 0;
#X obj 25 583 specific.message formulsdev sustain s 0;
#X obj 25 626 specific.message formulsdev release r 0;
#X obj 25 672 specific.message formulsdev voiceamp v 0;
#X obj 25 717 specific.message formulsdev monophonic m 0;
#X obj 25 760 specific.message formulsdev adsron ao 0;
#X obj 25 802 specific.message formulsdev threshold th 0;
#X obj 747 697 specific.message formulsdev delfeedback df 0;
#X obj 747 647 specific.message formulsdev deltime dt 0;
#X obj 747 604 specific.message formulsdev delsend ds 0;
#X obj 744 786 specific.message formulsdev masteramp ma 0;
#X obj 747 742 specific.message formulsdev panning p 0;
#X obj 382 803 specific.message formulsdev amdepth amd 0;
#X obj 382 760 specific.message formulsdev amfreq amf 0;
#X obj 382 715 specific.message formulsdev amwave amw 0;
#X obj 382 667 specific.message formulsdev filterresonance fr 0;
#X obj 382 624 specific.message formulsdev filtercutoff fc 0;
#X obj 383 580 specific.message formulsdev pitchshift pit 0;
#X obj 383 535 specific.message formulsdev bitcrush bit 0;
#X obj 383 489 specific.message formulsdev saturation sat 0;
#X obj 383 445 specific.message formulsdev envelopeside er 0;
#X obj 383 402 specific.message formulsdev envelopedepth er 0;
#X obj 383 352 specific.message formulsdev enveloperelease er 0;
#X obj 377 301 specific.message formulsdev triggerx tr 0;
#X obj 1101 728 s formulsdev;
#X msg 1101 706 formulsdev/trigx0 \$1;
#X floatatom 1069 754 5 0 0 0 - - -;
#X msg 1071 782 formulsdev/tempo0 \$1;
#X obj 377 254 specific.message formulsdev randomadd tr 0;
#X floatatom 1054 163 5 0 0 0 - - -;
#X floatatom 1053 49 5 0 0 1 beat_time - -;
#X obj 1051 11 abl_link~ 1 0 4 134;
#N canvas 0 23 485 528 beat 0;
#X obj 21 449 outlet;
#X obj 48 158 i;
#X obj 48 179 change;
#X obj 48 200 t b;
#X obj 21 359 / 1;
#X obj 36 267 f 4;
#X obj 36 337 f 1;
#X obj 21 134 t f f;
#X obj 21 36 inlet beat-in;
#X text 73 4 BEAT SUBDIVISION/EXPANSION;
#X obj 125 98 s \$0-timebase;
#X obj 173 77 s \$0-timebase-multiplier;
#X obj 50 246 r \$0-timebase;
#X obj 51 318 r \$0-timebase-multiplier;
#X obj 21 290 * 4;
#X obj 125 36 inlet;
#X obj 173 36 inlet;
#X obj 21 386 i;
#X obj 21 407 change;
#X connect 1 0 2 0;
#X connect 2 0 3 0;
#X connect 3 0 5 0;
#X connect 3 0 6 0;
#X connect 4 0 17 0;
#X connect 5 0 14 1;
#X connect 6 0 4 1;
#X connect 7 0 14 0;
#X connect 7 1 1 0;
#X connect 8 0 7 0;
#X connect 12 0 5 1;
#X connect 13 0 6 1;
#X connect 14 0 4 0;
#X connect 15 0 10 0;
#X connect 16 0 11 0;
#X connect 17 0 18 0;
#X connect 18 0 0 0;
#X restore 1053 113 pd beat;
#X floatatom 1076 70 5 0 0 0 - - -;
#X floatatom 1099 92 5 0 0 0 - - -;
#X obj 1131 130 mod 2;
#X obj 1131 153 sel 0;
#X obj 1235 22 random 100;
#X obj 1235 68 bng 15 250 50 0 empty empty empty 17 7 0 10 -262144
-1 -1;
#X obj 1235 114 + 1;
#X obj 1235 91 random 7;
#X obj 1235 45 moses 30;
#X obj 1143 41 spigot;
#X obj 1196 47 tgl 15 0 empty empty empty 17 7 0 10 -262144 -1 -1 0
1;
#X obj 377 39 specific.message formulsdev euclidon tr 0;
#X obj 377 90 specific.message formulsdev euclidbeats tr 0;
#X obj 377 175 specific.message formulsdev euclidoffset tr 0;
#X obj 376 132 specific.message formulsdev euclidbar tr 0;
#X floatatom 331 44 5 0 64 0 - - -;
#X obj 718 52 specific.message formulsdev seqwrite tr 0;
#X obj 719 98 specific.message formulsdev seqvalue tr 0;
#X obj 719 144 specific.message formulsdev seqread tr 0;
#X obj 1053 136 mod 64;
#X floatatom 328 134 5 0 0 0 - - -;
#X floatatom 719 32 5 0 0 0 - - -;
#N canvas 0 278 642 340 PITCH 0;
#X floatatom 275 75 5 0 12 0 - - -;
#X floatatom 173 74 5 0 0 0 - - -;
#X floatatom 70 75 5 0 0 0 - - -;
#N canvas 538 23 642 813 PITCHGAMUT 0;
#X obj 52 143 t b a;
#X msg 52 88 \$1 \$2;
#X msg 305 64 1 1 \, 3 1 \, 4 1 \, 8 1 \, 9 1;
#X msg 305 44 1 1 \, 3 1 \, 4 1 \, 8 1 \, 9 0;
#X obj 84 255 array set master-pitch-gamut;
#X obj 84 170 unpack f f;
#X obj 84 190 - 1;
#X obj 84 232 f;
#X obj 84 212 t b f;
#X obj 289 255 array define master-pitch-gamut 12;
#X obj 52 280 array get master-pitch-gamut;
#X obj 52 356 until;
#X obj 52 456 list store;
#X obj 52 381 f;
#X obj 79 381 + 1;
#X msg 79 329 0;
#X msg 52 434 get \$1 1;
#X obj 52 411 t f f;
#X obj 52 505 f;
#X obj 52 477 sel 1;
#X obj 52 305 t b b l b, f 12;
#X obj 51 580 list;
#X obj 120 490 del 1;
#X obj 52 530 list prepend;
#X obj 52 551 t a a;
#X msg 306 84 1 1 \, 2 1 \, 3 1 \, 4 1 \, 7 1 \, 8 1 \, 10 1 \, 11
1;
#X msg 306 104 1 1 \, 2 0 \, 3 0 \, 4 1 \, 7 1 \, 8 1 \, 10 1 \, 11
1;
#X obj 151 784 outlet index;
#X obj 51 785 outlet value;
#X obj 253 785 outlet length;
#X obj 151 732 i;
#X obj 179 732 + 1;
#X msg 169 705 0;
#X obj 51 630 list;
#X obj 51 661 list split 1;
#X obj 91 717 del 2;
#X obj 270 703 list length;
#X obj 52 13 inlet;
#X obj 51 604 t a a b;
#X obj 253 727 t b;
#X obj 253 754 f;
#X obj 91 688 t b b a;
#X msg 217 20 1 1 \, 2 0 \, 3 0 \, 4 0 \, 5 1 \, 6 0 \, 7 0 \, 8 0
\, 9 0 \, 10 0 \, 11 0;
#X msg 221 130 1 1 \, 2 0 \, 3 0 \, 4 0 \, 5 0 \, 6 0 \, 7 0 \, 8 0
\, 9 0 \, 10 0 \, 11 0 \, 12 0;
#X msg 78 43 11 1;
#X connect 0 0 10 0;
#X connect 0 1 5 0;
#X connect 1 0 0 0;
#X connect 2 0 0 0;
#X connect 3 0 0 0;
#X connect 5 0 6 0;
#X connect 5 1 7 1;
#X connect 6 0 8 0;
#X connect 7 0 4 0;
#X connect 8 0 7 0;
#X connect 8 1 4 1;
#X connect 10 0 20 0;
#X connect 11 0 13 0;
#X connect 12 0 19 0;
#X connect 12 1 11 1;
#X connect 12 1 22 0;
#X connect 13 0 14 0;
#X connect 13 0 17 0;
#X connect 14 0 13 1;
#X connect 15 0 13 1;
#X connect 16 0 12 0;
#X connect 17 0 16 0;
#X connect 17 1 18 1;
#X connect 18 0 23 0;
#X connect 19 0 18 0;
#X connect 20 0 11 0;
#X connect 20 1 15 0;
#X connect 20 2 12 1;
#X connect 20 3 23 1;
#X connect 21 0 38 0;
#X connect 22 0 21 0;
#X connect 23 0 24 0;
#X connect 24 0 21 1;
#X connect 24 1 23 1;
#X connect 25 0 0 0;
#X connect 26 0 0 0;
#X connect 30 0 31 0;
#X connect 30 0 27 0;
#X connect 31 0 30 1;
#X connect 32 0 30 1;
#X connect 33 0 34 0;
#X connect 34 0 28 0;
#X connect 34 1 41 0;
#X connect 34 2 39 0;
#X connect 35 0 33 0;
#X connect 36 0 40 1;
#X connect 37 0 1 0;
#X connect 38 0 33 0;
#X connect 38 1 36 0;
#X connect 38 2 32 0;
#X connect 39 0 40 0;
#X connect 40 0 29 0;
#X connect 41 0 35 0;
#X connect 41 1 30 0;
#X connect 41 2 33 1;
#X connect 42 0 0 0;
#X connect 43 0 0 0;
#X connect 44 0 1 0;
#X restore 70 46 pd PITCHGAMUT;
#X obj 72 138 specific.message formulsdev scalevalue tr 0;
#X obj 180 197 specific.message formulsdev scalewrite tr 0;
#X obj 287 259 specific.message formulsdev scalelength tr 0;
#X connect 0 0 6 0;
#X connect 1 0 5 0;
#X connect 2 0 4 0;
#X connect 3 0 2 0;
#X connect 3 1 1 0;
#X connect 3 2 0 0;
#X restore 784 254 pd PITCH;
#X obj 1117 385 * 0.01;
#X obj 1117 414 + 0.5;
#X obj 1117 360 random 50;
#X obj 1189 462 s \$0-op1f;
#X obj 23 70 specific.message formulsdev op1freq op1f 0;
#X obj 24 26 r \$0-op1f-;
#X connect 1 0 99 0;
#X connect 2 0 62 0;
#X connect 3 0 10 0;
#X connect 3 1 11 0;
#X connect 3 1 16 0;
#X connect 3 2 98 0;
#X connect 4 0 25 0;
#X connect 5 0 13 0;
#X connect 6 0 97 0;
#X connect 7 0 14 0;
#X connect 8 0 7 0;
#X connect 9 0 64 0;
#X connect 10 0 12 0;
#X connect 11 0 4 0;
#X connect 12 0 4 0;
#X connect 13 0 8 0;
#X connect 13 0 23 0;
#X connect 13 0 97 0;
#X connect 14 0 13 1;
#X connect 14 0 24 0;
#X connect 15 0 97 1;
#X connect 16 0 17 0;
#X connect 17 0 18 0;
#X connect 18 0 20 0;
#X connect 18 1 21 0;
#X connect 19 0 9 0;
#X connect 20 0 22 0;
#X connect 21 0 19 0;
#X connect 22 0 19 0;
#X connect 25 0 2 0;
#X connect 26 0 25 1;
#X connect 29 0 14 1;
#X connect 64 0 63 0;
#X connect 65 0 66 0;
#X connect 66 0 28 0;
#X connect 68 0 90 0;
#X connect 69 0 71 0;
#X connect 70 2 81 0;
#X connect 71 0 74 0;
#X connect 71 0 91 0;
#X connect 72 0 71 1;
#X connect 73 0 71 2;
#X connect 74 0 75 0;
#X connect 75 0 6 0;
#X connect 75 0 76 0;
#X connect 76 0 80 0;
#X connect 77 0 79 0;
#X connect 79 0 78 0;
#X connect 80 0 77 0;
#X connect 81 0 69 0;
#X connect 82 0 81 1;
#X connect 87 0 84 0;
#X connect 91 0 68 0;
#X connect 92 0 86 0;
#X connect 93 0 88 0;
#X connect 95 0 96 0;
#X connect 96 0 3 0;
#X connect 97 0 95 0;
#X connect 100 0 1 0;
