#N canvas 415 135 586 290 12;
#X obj 33 39 inlet;
#X obj 33 117 fudiformat;
#X obj 33 140 list split 1;
#X obj 33 167 fudiparse;
#X text 154 53 \$1 = parent osc adress \;;
#X text 156 75 Matrix address always begins with "s" (or any other
non-numeric character) and is followed by grid number;
#X obj 33 240 outlet;
#X connect 0 0 1 0;
#X connect 1 0 2 0;
#X connect 2 1 3 0;
#X connect 3 0 6 0;
