#N canvas 19 423 588 309 10;
#X text 269 17 \$1 = \$0;
#X obj 142 218 r \$0-out;
#X obj 52 261 outlet;
#X obj 47 52 s \$0-value;
#X text 269 67 \$4 = parameter record name;
#N canvas 0 23 457 472 _unimplemented 0;
#X obj 45 40 r evolution-active;
#X obj 37 68 r evolution-time;
#X obj 130 186 t f f;
#X obj 83 267 spigot 0;
#X msg 60 183 0;
#X obj 60 161 sel 1 0;
#X obj 162 210 change;
#X msg 162 232 1;
#X obj 83 417 line 0 5;
#X obj 83 360 pack f f 16000;
#X obj 130 162 r \$0-input-1;
#X obj 60 139 r \$0-evolve;
#X obj 178 337 r \$0-evolve-time;
#X obj 83 291 t b;
#X obj 83 337 f;
#X msg 83 387 \$1 \, \$2 \$3;
#X obj 212 271 r \$0-value;
#X obj 212 292 spigot;
#X connect 2 0 9 1;
#X connect 2 1 6 0;
#X connect 3 0 13 0;
#X connect 4 0 3 1;
#X connect 5 0 4 0;
#X connect 5 1 3 0;
#X connect 6 0 7 0;
#X connect 7 0 3 1;
#X connect 9 0 15 0;
#X connect 10 0 2 0;
#X connect 11 0 5 0;
#X connect 12 0 9 2;
#X connect 13 0 14 0;
#X connect 14 0 9 0;
#X connect 15 0 8 0;
#X connect 16 0 17 0;
#X restore 380 271 pd _unimplemented;
#X obj 142 264 outlet;
#X obj 52 218 r \$0-value;
#N canvas 191 310 1060 299 VALUE_RECORD_&_AUTO_PLAYBACK 0;
#X obj 611 62 r automateRecord;
#X msg 33 102 0;
#X msg 258 125 0;
#X obj 611 185 f;
#X obj 611 83 sel 0;
#X obj 250 165 f;
#X obj 258 104 r \$1-reset;
#X obj 250 63 r automateRecord;
#X obj 250 84 sel 0;
#X obj 626 165 r \$0-1;
#X obj 265 145 r \$0-1;
#X obj 628 142 r \$0-0;
#X msg 622 122 0;
#X obj 622 102 r \$1-reset;
#X obj 20 59 r \$0-1;
#X obj 33 79 r automateRecord;
#X obj 20 173 s \$0-out;
#X obj 611 266 s \$0-out;
#X obj 250 214 s \$0-out;
#X obj 20 122 t a;
#X obj 882 110 spigot;
#X obj 916 91 r \$1-\$4-trig;
#X obj 882 71 r \$1-trigger;
#X obj 882 154 s \$0-out;
#X obj 703 150 r \$1-\$4-trig;
#X obj 703 171 == 0;
#X obj 611 206 spigot 1;
#X obj 20 149 oscformat formuls \$4record;
#X text 21 33 activate recording of incoming values;
#X text 255 37 playback back recorded automation (loop or trig need
to be active;
#X text 611 40 activate loop (or if unselected \, trigger);
#X text 875 37 trigger automation playback;
#X obj 250 190 oscformat formuls \$4act;
#X obj 611 242 oscformat formuls \$4loop;
#X obj 882 133 oscformat formuls \$4trig;
#X connect 0 0 4 0;
#X connect 1 0 19 0;
#X connect 2 0 5 0;
#X connect 3 0 26 0;
#X connect 4 0 3 0;
#X connect 5 0 32 0;
#X connect 6 0 2 0;
#X connect 7 0 8 0;
#X connect 8 0 5 0;
#X connect 9 0 3 1;
#X connect 10 0 5 1;
#X connect 11 0 3 0;
#X connect 12 0 3 0;
#X connect 13 0 12 0;
#X connect 14 0 19 0;
#X connect 15 0 1 0;
#X connect 19 0 27 0;
#X connect 20 0 34 0;
#X connect 21 0 20 1;
#X connect 22 0 20 0;
#X connect 24 0 25 0;
#X connect 25 0 33 0;
#X connect 25 0 26 1;
#X connect 26 0 33 0;
#X connect 27 0 16 0;
#X connect 32 0 18 0;
#X connect 33 0 17 0;
#X connect 34 0 23 0;
#X restore 49 183 pd VALUE_RECORD_&_AUTO_PLAYBACK;
#N canvas 0 79 351 244 INCOMING_PARAM_VALUE________ 0;
#X obj 23 69 r \$0-value;
#X obj 23 113 s \$0-out;
#X text 25 41 incoming value from GUI;
#X obj 23 92 oscformat formuls \$3;
#X obj 165 114 s \$0-out;
#X obj 165 70 r \$0-chaos;
#X obj 165 93 oscformat formuls \$4chaos;
#X connect 0 0 3 0;
#X connect 3 0 1 0;
#X connect 5 0 6 0;
#X connect 6 0 4 0;
#X restore 49 140 pd INCOMING_PARAM_VALUE________;
#N canvas 315 23 243 241 SEND_VALUE_TO_AUTO_RECORD___ 0;
#X obj 39 68 spigot;
#X msg 39 116 1;
#X obj 39 92 t b b;
#X msg 83 117 0;
#X obj 72 48 r automateRecord;
#X obj 83 140 s \$0-0;
#X obj 39 140 s \$0-1;
#X obj 39 28 r \$0-value;
#X connect 0 0 2 0;
#X connect 1 0 6 0;
#X connect 2 0 1 0;
#X connect 2 1 3 0;
#X connect 3 0 5 0;
#X connect 4 0 0 1;
#X connect 7 0 0 0;
#X restore 49 162 pd SEND_VALUE_TO_AUTO_RECORD___;
#X text 269 50 \$3 = parameter name;
#X text 269 32 \$2 = synth instance (only used in Pd \, not faust external)
;
#X text 269 84 eg: \$0 0 waveshape w;
#X obj 154 241 s \$1-OSC-collect-\$2;
#X obj 171 21 inlet chaos;
#X obj 47 21 inlet value;
#X obj 171 52 s \$0-chaos;
#X connect 1 0 6 0;
#X connect 1 0 14 0;
#X connect 7 0 2 0;
#X connect 15 0 17 0;
#X connect 16 0 3 0;
