#N canvas 21 473 309 122 10;
#X declare -path abstractions;
#X obj 77 9 cnv 15 148 60 empty empty FORMULS 33 29 0 20 -204786 -13381
0;
#N canvas 0 118 342 251 TRIPES_______________ 0;
#N canvas 569 190 239 331 OPEN_STAGE_CONTROL_RECEIVE_ 0;
#X obj 41 97 oscparse;
#X obj 41 130 list trim;
#X obj 41 29 loadbang;
#X obj 86 211 s o-s-c-messages;
#X obj 98 186 print OSC received;
#X obj 41 74 netreceive -u -b;
#X obj 41 183 route pd;
#X msg 41 262 \; pd quit;
#X msg 41 51 listen 8888;
#X obj 131 139 r osc-in;
#X obj 98 160 spigot;
#X obj 41 236 del 500;
#X msg 101 255 pd quit;
#X obj 101 276 s to-faust;
#X connect 0 0 1 0;
#X connect 1 0 6 0;
#X connect 1 0 10 0;
#X connect 2 0 8 0;
#X connect 5 0 0 0;
#X connect 6 0 11 0;
#X connect 6 0 12 0;
#X connect 6 1 3 0;
#X connect 8 0 5 0;
#X connect 9 0 10 1;
#X connect 10 0 4 0;
#X connect 11 0 7 0;
#X connect 12 0 13 0;
#X restore 76 92 pd OPEN_STAGE_CONTROL_RECEIVE_;
#N canvas 301 281 242 132 GLOBAL_OSC_MESSAGES________ 0;
#N canvas 0 23 1440 855 GLOBAL_MESSAGES_RECEIVE___ 0;
#X obj 50 672 s \$0-bpm;
#X obj 79 531 s \$0-tempolock;
#X obj 196 400 s automateRecord;
#X obj 196 377 tgl 15 0 empty empty empty 17 7 0 10 -262144 -1 -1 0
1;
#X msg 284 300 0;
#X obj 284 322 s masterSync;
#X obj 1313 808 outlet;
#X obj 313 280 s swingAmount;
#X obj 342 233 s fade-out-time;
#X obj 36 68 spigot 0;
#X obj 81 46 r OSC-monitor;
#X obj 36 90 print OSC-in;
#X obj 342 186 + 16000;
#X obj 342 164 * 44000;
#X obj 342 208 i;
#X obj 313 256 * 0.083;
#X obj 108 512 s \$0-master-amp;
#X obj 138 491 s \$0-master-fx;
#N canvas 952 281 120 99 automate-record-interface 0;
#X obj 21 12 tgl 70 0 automateRecord empty RECORD 17 7 0 10 -258113
-4160 -1 0 1;
#X restore 490 21 pd automate-record-interface;
#X obj 543 113 s master-seq-on-off;
#N canvas 921 91 519 732 pitch-gamut-parse 0;
#X obj 32 12 inlet;
#X obj 32 153 t b a;
#X obj 31 676 s pitch-gamut;
#X msg 168 102 1 1 \, 3 1 \, 4 1 \, 8 1 \, 9 1;
#X msg 168 82 1 1 \, 3 1 \, 4 1 \, 8 1 \, 9 0;
#X msg 168 63 1 1 \, 3 1 \, 4 1 \, 8 0 \, 9 0;
#X obj 44 612 list length;
#X obj 44 654 s pitch-gamut-length;
#X obj 44 634 max 1;
#X obj 72 179 s \$0-pitch-gamut-gui;
#N canvas 0 22 474 651 DEPRECATED 0;
#X obj 44 237 array set master-pitch-gamut;
#X obj 44 43 unpack f f;
#X obj 44 65 - 1;
#X obj 72 152 + 12;
#X obj 44 131 until;
#X obj 44 152 f;
#X msg 78 109 0;
#X obj 44 87 t b b f;
#X obj 44 173 +;
#X obj 44 216 f;
#X obj 44 194 t b f;
#X msg 44 109 11;
#X obj 267 169 array set master-pitch-gamut;
#X obj 267 79 unpack f f;
#X obj 267 101 - 1;
#X obj 267 148 f;
#X obj 267 126 t b f;
#X obj 73 442 until;
#X obj 73 463 f;
#X obj 98 462 + 1;
#X obj 112 531 array get master-pitch-gamut;
#X msg 105 422 0;
#X msg 194 510 1;
#X obj 112 509 t f f;
#X obj 112 576 f;
#X obj 112 618 list;
#X obj 112 597 list prepend;
#X obj 112 552 sel 1;
#X obj 73 395 t b b b b;
#X msg 73 421 13;
#X obj 73 488 sel 12;
#X connect 1 0 2 0;
#X connect 1 1 9 1;
#X connect 2 0 7 0;
#X connect 3 0 5 1;
#X connect 4 0 5 0;
#X connect 5 0 3 0;
#X connect 5 0 8 0;
#X connect 6 0 5 1;
#X connect 7 0 11 0;
#X connect 7 1 6 0;
#X connect 7 2 8 1;
#X connect 8 0 10 0;
#X connect 9 0 0 0;
#X connect 10 0 9 0;
#X connect 10 1 0 1;
#X connect 11 0 4 0;
#X connect 13 0 14 0;
#X connect 13 1 15 1;
#X connect 14 0 16 0;
#X connect 15 0 12 0;
#X connect 16 0 15 0;
#X connect 16 1 12 1;
#X connect 17 0 18 0;
#X connect 18 0 19 0;
#X connect 18 0 30 0;
#X connect 19 0 18 1;
#X connect 20 0 27 0;
#X connect 21 0 18 1;
#X connect 22 0 20 1;
#X connect 23 0 20 0;
#X connect 23 1 24 1;
#X connect 24 0 26 0;
#X connect 25 0 26 1;
#X connect 26 0 25 0;
#X connect 27 0 24 0;
#X connect 28 0 29 0;
#X connect 28 1 21 0;
#X connect 28 2 22 0;
#X connect 28 3 26 1;
#X connect 28 3 25 1;
#X connect 29 0 17 0;
#X connect 30 1 23 0;
#X restore 316 34 pd DEPRECATED;
#X obj 59 283 array set master-pitch-gamut;
#X obj 59 198 unpack f f;
#X obj 59 262 f;
#X obj 59 240 t b f;
#X obj 263 283 array define master-pitch-gamut 12;
#X obj 32 310 array get master-pitch-gamut;
#X obj 32 365 until;
#X obj 32 473 list store;
#X obj 32 390 f;
#X obj 59 390 + 1;
#X msg 72 364 0, f 2;
#X msg 32 454 get \$1 1;
#X obj 32 411 t f f;
#X obj 32 516 f;
#X obj 59 433 + 1;
#X obj 32 494 sel 1;
#X obj 32 332 t b b l b, f 12;
#X obj 31 582 list;
#X obj 72 494 del 1;
#X obj 32 537 list prepend;
#X obj 32 558 t a a;
#X msg 169 122 1 1 \, 2 1 \, 3 1 \, 4 1 \, 7 1 \, 8 1 \, 10 1 \, 11
1;
#X msg 169 142 1 1 \, 2 0 \, 3 0 \, 4 1 \, 7 1 \, 8 1 \, 10 1 \, 11
1;
#X obj 42 46 s masterpitchgamut;
#X floatatom 191 644 5 0 0 0 - - -;
#X obj 59 220 i;
#X connect 0 0 1 0;
#X connect 1 0 16 0;
#X connect 1 1 9 0;
#X connect 1 1 12 0;
#X connect 3 0 1 0;
#X connect 4 0 1 0;
#X connect 5 0 1 0;
#X connect 6 0 8 0;
#X connect 8 0 7 0;
#X connect 8 0 35 0;
#X connect 12 0 36 0;
#X connect 12 1 13 1;
#X connect 13 0 11 0;
#X connect 14 0 13 0;
#X connect 14 1 11 1;
#X connect 16 0 27 0;
#X connect 17 0 19 0;
#X connect 18 0 26 0;
#X connect 18 1 17 1;
#X connect 18 1 29 0;
#X connect 19 0 20 0;
#X connect 19 0 23 0;
#X connect 20 0 19 1;
#X connect 21 0 19 1;
#X connect 22 0 18 0;
#X connect 23 0 22 0;
#X connect 23 1 25 0;
#X connect 24 0 30 0;
#X connect 25 0 24 1;
#X connect 26 0 24 0;
#X connect 27 0 17 0;
#X connect 27 1 21 0;
#X connect 27 2 18 1;
#X connect 27 3 30 1;
#X connect 28 0 6 0;
#X connect 28 0 2 0;
#X connect 29 0 28 0;
#X connect 30 0 31 0;
#X connect 31 0 28 1;
#X connect 31 0 30 1;
#X connect 31 1 30 1;
#X connect 32 0 1 0;
#X connect 33 0 1 0;
#X connect 36 0 14 0;
#X restore 675 132 pd pitch-gamut-parse;
#N canvas 1089 577 692 321 evolution+feedback 0;
#X obj 19 152 s evolution-active;
#X obj 338 102 s jump-active;
#X obj 234 101 s set-value;
#X obj 19 25 inlet;
#X obj 601 283 outlet;
#X obj 435 163 s master-noise;
#X obj 234 74 route set-value jump-active masternoise;
#X obj 435 113 f.seq.automater \$0 \$0-master-noise;
#X obj 435 142 f.util.rescale 2.7 1 0;
#X obj 19 75 route evolveglobal evolvetime;
#X obj 104 104 * 1000;
#X obj 104 125 s evolution-time;
#X connect 3 0 9 0;
#X connect 6 0 2 0;
#X connect 6 1 1 0;
#X connect 6 2 7 0;
#X connect 6 3 4 0;
#X connect 7 0 8 0;
#X connect 8 0 5 0;
#X connect 9 0 0 0;
#X connect 9 1 10 0;
#X connect 9 2 6 0;
#X connect 10 0 11 0;
#X restore 675 70 pd evolution+feedback;
#X obj 555 93 tgl 15 0 empty empty empty 17 7 0 10 -262144 -1 -1 0
1;
#X obj 50 553 / 240;
#X obj 50 592 * 240;
#X obj 50 613 i;
#N canvas 718 509 450 300 MESSAGE_OUT 0;
#X obj 72 57 inlet;
#X obj 72 99 list trim;
#X obj 72 78 list prepend send master-reverb;
#X obj 72 119 s \$0-FAUST_MESSAGES;
#X connect 0 0 2 0;
#X connect 1 0 3 0;
#X connect 2 0 1 0;
#X restore 167 467 pd MESSAGE_OUT;
#X obj 21 19 r o-s-c-messages;
#X obj 461 113 s evenglobal;
#X obj 59 653 s bpmglobal;
#X obj 225 374 s xglobal;
#X obj 255 346 s yglobal;
#X obj 21 111 route key tempoglobal tempo-hold master-amp masterfx
masterreverb recordglobal xglobal yglobal sync swing-amount fade-out-time
;
#X obj 757 113 s resetglobal;
#X obj 225 353 f;
#X obj 255 324 f;
#X obj 21 693 f.util.masterkey \$0;
#X obj 50 572 f.seq.automater \$0 \$0-bpm 1;
#X obj 167 423 f.seq.automater \$0 \$0-master-reverb;
#X obj 167 446 f.util.rescale 2.7 1 0;
#X obj 701 475 s \$0-master-bus;
#X msg 550 761 duration \$1;
#X obj 550 740 f.seq.automater \$0 \$0-reverb-size;
#X msg 587 695 gain \$1;
#X obj 549 782 s \$0-master-bus;
#X obj 587 716 s \$0-master-bus;
#X obj 626 654 s \$0-master-bus;
#X obj 461 70 route evenglobal seqonglobal;
#X obj 587 674 f.seq.automater \$0 \$0-reverb-gain;
#X obj 770 306 f.seq.automater \$0 \$0-reverb-bypass;
#X obj 736 413 s \$0-master-bus;
#X obj 736 371 f.seq.automater \$0 \$0-limiter-level;
#X msg 736 392 limiterlevel \$1;
#X obj 701 433 f.seq.automater \$0 \$0-pre-limiter-level;
#X msg 701 454 prelimiterlevel \$1;
#N canvas 0 23 250 255 FLOOPER_RECORD_TIME 0;
#X floatatom 75 70 5 0 0 0 - - -;
#X msg 75 90 60000 \$1;
#X obj 75 111 /;
#X floatatom 75 153 0 0 0 0 - - -;
#X obj 75 179 s recordtime;
#X obj 75 132 * 32;
#X obj 75 33 inlet;
#X connect 0 0 1 0;
#X connect 1 0 2 0;
#X connect 2 0 5 0;
#X connect 3 0 4 0;
#X connect 5 0 3 0;
#X connect 6 0 0 0;
#X restore 70 634 pd FLOOPER_RECORD_TIME;
#X obj 675 92 route pitchgamut resetglobal;
#X obj 814 284 s \$0-master-bus;
#X msg 814 263 reverblimitersend \$1;
#X obj 814 242 f.seq.automater \$0 \$0-reverb-limiter-send;
#X obj 895 81 route tempotime;
#X obj 895 102 s \$0-tempo-time;
#X msg 1005 657 level \$1;
#X obj 1005 678 s \$0-master-bus;
#X obj 1118 730 s \$0-master-bus;
#X msg 1118 709 capture \$1;
#X obj 1205 707 s \$0-master-bus;
#X msg 1205 686 beatdivision \$1;
#X obj 1231 662 s \$0-master-bus;
#X msg 1231 641 parallel \$1;
#X obj 169 694 s \$0-master-bus;
#X msg 169 673 bpm \$1;
#N canvas 384 282 453 498 REPEATER____ 0;
#X obj 86 58 inlet;
#X obj 86 146 route 0 1 2 3 4;
#X obj 86 189 sel 0 1;
#X msg 106 216 stop;
#X obj 86 98 fudiformat;
#X obj 86 122 fudiparse;
#X obj 86 241 del 4;
#X msg 86 262 0;
#X msg 120 262 1;
#X obj 86 283 change;
#X obj 86 354 outlet;
#X obj 201 189 sel 1;
#X msg 201 210 1;
#X obj 242 190 sel 1;
#X obj 283 189 sel 1;
#X obj 324 190 sel 1;
#X obj 365 189 sel 1;
#X msg 242 211 2;
#X msg 283 210 3;
#X msg 324 211 4;
#X msg 365 210 5;
#X obj 216 353 outlet;
#X connect 0 0 4 0;
#X connect 1 0 2 0;
#X connect 1 0 11 0;
#X connect 1 1 2 0;
#X connect 1 1 13 0;
#X connect 1 2 2 0;
#X connect 1 2 14 0;
#X connect 1 3 2 0;
#X connect 1 3 15 0;
#X connect 1 4 2 0;
#X connect 1 4 16 0;
#X connect 2 0 6 0;
#X connect 2 1 3 0;
#X connect 2 1 8 0;
#X connect 3 0 6 0;
#X connect 4 0 5 0;
#X connect 5 0 1 0;
#X connect 6 0 7 0;
#X connect 7 0 9 0;
#X connect 8 0 9 0;
#X connect 9 0 10 0;
#X connect 11 0 12 0;
#X connect 12 0 21 0;
#X connect 13 0 17 0;
#X connect 14 0 18 0;
#X connect 15 0 19 0;
#X connect 16 0 20 0;
#X connect 17 0 21 0;
#X connect 18 0 21 0;
#X connect 19 0 21 0;
#X connect 20 0 21 0;
#X restore 1118 661 pd REPEATER____;
#X obj 1005 615 route repeaterlevel repeaterbeatdivision repeaterparallel
;
#X obj 667 589 s \$0-master-bus;
#X obj 550 169 route reverbsize reverbgain djeqcutoff djeqresonance
prelimiterlevel limiterlevel reverbbypassglobal reverblimitersend;
#X obj 626 612 f.seq.automater \$0 \$0-djeq-cutoff;
#X msg 667 568 djeqresonance \$1;
#X msg 626 633 djeqcutoff \$1;
#X obj 666 528 * 99;
#X obj 666 549 + 1;
#X obj 666 507 f.seq.automater \$0 \$0-djeq-resonance 0;
#X obj 1065 159 route rollingfreezerfreeze rollingfreezertranspose
rollingfreezerfeedback rollingfreezerwetlevel rollingfreezerdrylevel
rollingfreezereq rollingfreezereqreset;
#X msg 1065 533 freeze \$1;
#X obj 1065 554 s \$0-rollingfreezer;
#X obj 1107 514 s \$0-rollingfreezer;
#X msg 1107 493 transpose \$1;
#X obj 1149 474 s \$0-rollingfreezer;
#X msg 1149 453 feedback \$1;
#X obj 1192 433 s \$0-rollingfreezer;
#X msg 1192 412 level \$1;
#X obj 1277 368 s \$0-rollingfreezer;
#X obj 1319 235 s \$0-rollingfreezer;
#X msg 1319 214 eqreset \$1;
#X obj 1277 262 list split 1;
#X obj 1277 283 list fromsymbol;
#X obj 1277 304 f.util.asci2char;
#X obj 1277 325 pack f f;
#X msg 1277 347 eq \$1 \$2;
#X obj 1234 389 s \$0-dry-level;
#X obj 1212 337 loadbang;
#X msg 1212 358 1;
#X obj 770 348 s \$0-master-bus;
#X msg 770 327 reverbbypass \$1;
#X connect 3 0 2 0;
#X connect 4 0 5 0;
#X connect 9 0 11 0;
#X connect 10 0 9 1;
#X connect 12 0 14 0;
#X connect 13 0 12 0;
#X connect 14 0 8 0;
#X connect 15 0 7 0;
#X connect 21 0 56 0;
#X connect 22 0 19 0;
#X connect 23 0 37 0;
#X connect 24 0 25 0;
#X connect 25 0 0 0;
#X connect 25 0 29 0;
#X connect 25 0 55 0;
#X connect 25 0 71 0;
#X connect 27 0 9 0;
#X connect 27 0 32 0;
#X connect 32 0 36 0;
#X connect 32 1 23 0;
#X connect 32 2 1 0;
#X connect 32 3 16 0;
#X connect 32 4 17 0;
#X connect 32 5 38 0;
#X connect 32 6 3 0;
#X connect 32 7 34 0;
#X connect 32 8 35 0;
#X connect 32 9 4 0;
#X connect 32 10 15 0;
#X connect 32 11 13 0;
#X connect 32 12 47 0;
#X connect 34 0 30 0;
#X connect 35 0 31 0;
#X connect 37 0 24 0;
#X connect 38 0 39 0;
#X connect 39 0 26 0;
#X connect 41 0 44 0;
#X connect 42 0 41 0;
#X connect 43 0 45 0;
#X connect 47 0 28 0;
#X connect 47 1 19 0;
#X connect 47 2 21 0;
#X connect 48 0 43 0;
#X connect 49 0 103 0;
#X connect 51 0 52 0;
#X connect 52 0 50 0;
#X connect 53 0 54 0;
#X connect 54 0 40 0;
#X connect 56 0 20 0;
#X connect 56 1 33 0;
#X connect 56 2 60 0;
#X connect 58 0 57 0;
#X connect 59 0 58 0;
#X connect 60 0 61 0;
#X connect 60 1 75 0;
#X connect 62 0 63 0;
#X connect 65 0 64 0;
#X connect 67 0 66 0;
#X connect 69 0 68 0;
#X connect 71 0 70 0;
#X connect 72 0 65 0;
#X connect 72 1 67 0;
#X connect 73 0 62 0;
#X connect 73 1 72 0;
#X connect 73 2 69 0;
#X connect 73 3 6 0;
#X connect 75 0 42 0;
#X connect 75 1 48 0;
#X connect 75 2 76 0;
#X connect 75 3 81 0;
#X connect 75 4 53 0;
#X connect 75 5 51 0;
#X connect 75 6 49 0;
#X connect 75 7 59 0;
#X connect 75 8 82 0;
#X connect 76 0 78 0;
#X connect 77 0 74 0;
#X connect 78 0 46 0;
#X connect 79 0 80 0;
#X connect 80 0 77 0;
#X connect 81 0 79 0;
#X connect 82 0 83 0;
#X connect 82 1 86 0;
#X connect 82 2 88 0;
#X connect 82 3 90 0;
#X connect 82 4 99 0;
#X connect 82 5 94 0;
#X connect 82 6 93 0;
#X connect 82 7 73 0;
#X connect 83 0 84 0;
#X connect 86 0 85 0;
#X connect 88 0 87 0;
#X connect 90 0 89 0;
#X connect 93 0 92 0;
#X connect 94 0 95 0;
#X connect 94 1 97 1;
#X connect 95 0 96 0;
#X connect 96 0 97 0;
#X connect 97 0 98 0;
#X connect 98 0 91 0;
#X connect 100 0 101 0;
#X connect 101 0 99 0;
#X connect 103 0 102 0;
#X restore 20 41 pd GLOBAL_MESSAGES_RECEIVE___;
#N canvas 62 160 650 385 GLOBAL_MESSAGES__SEND_____ 0;
#X obj 37 76 r \$0-beat-gui;
#X obj 37 98 oscformat beat;
#X obj 175 76 r automateRecord;
#X obj 175 98 oscformat automation-record;
#X obj 410 116 oscformat evolution-activate;
#X obj 410 94 r evolution-active;
#X obj 40 12 inlet;
#X obj 407 166 r \$0-evolution-gui;
#X obj 407 188 oscformat evolution-gui;
#X obj 407 252 r master-seq-on-off;
#X obj 407 274 oscformat master-seq-on-off;
#X obj 25 226 r \$0-scale-root-note-gui;
#X obj 210 245 r \$0-pitch-gamut-gui;
#X msg 210 267 \$1 \$2;
#X obj 210 289 oscformat pitch-gamut;
#X obj 412 71 s OSC-out;
#X obj 412 27 r \$0-evolution-time-label;
#X obj 412 49 oscformat evolution-time-label;
#X obj 25 290 oscformat key;
#X msg 25 268 1 \$1 1;
#X obj 25 247 + 1;
#X obj 37 120 s OSC-out-global;
#X obj 175 120 s OSC-out-global;
#X obj 410 138 s OSC-out-global;
#X obj 407 210 s OSC-out-global;
#X obj 407 296 s OSC-out-global;
#X obj 210 311 s OSC-out-global;
#X obj 25 312 s OSC-out-global;
#X obj 37 190 s OSC-out-global;
#X obj 37 168 oscformat bpm;
#X obj 37 146 r \$0-bpm;
#X connect 0 0 1 0;
#X connect 1 0 21 0;
#X connect 2 0 3 0;
#X connect 3 0 22 0;
#X connect 4 0 23 0;
#X connect 5 0 4 0;
#X connect 7 0 8 0;
#X connect 8 0 24 0;
#X connect 9 0 10 0;
#X connect 10 0 25 0;
#X connect 11 0 20 0;
#X connect 12 0 13 0;
#X connect 13 0 14 0;
#X connect 14 0 26 0;
#X connect 16 0 17 0;
#X connect 17 0 15 0;
#X connect 18 0 27 0;
#X connect 19 0 18 0;
#X connect 20 0 19 0;
#X connect 29 0 28 0;
#X connect 30 0 29 0;
#X restore 20 67 pd GLOBAL_MESSAGES__SEND_____;
#X connect 0 0 1 0;
#X restore 76 111 pd GLOBAL_OSC_MESSAGES________;
#N canvas 59 109 288 171 INIT_&_DECLARE_____________ 0;
#X obj 65 60 loadbang;
#X obj 66 37 declare -path abstractions;
#X msg 65 90 \; pd dsp 1 \;;
#X connect 0 0 2 0;
#X restore 76 73 pd INIT_&_DECLARE_____________;
#N canvas 0 473 291 114 ABLETON_LINK_&_TIMING______ 0;
#N canvas 0 94 375 215 AUTOMATER_TIMING 0;
#X obj 126 105 loadbang;
#X obj 126 163 s master-throttle;
#X obj 126 141 metro 80;
#X obj 239 142 metro 10;
#X obj 239 164 s master-timer-in;
#X obj 32 40 inlet;
#X obj 32 100 i;
#X obj 32 121 change;
#X obj 32 142 t b;
#X obj 32 163 s masterClock;
#X connect 0 0 2 0;
#X connect 0 0 3 0;
#X connect 2 0 1 0;
#X connect 3 0 4 0;
#X connect 5 0 6 0;
#X connect 6 0 7 0;
#X connect 7 0 8 0;
#X connect 8 0 9 0;
#X restore 81 56 pd AUTOMATER_TIMING;
#N canvas 716 200 397 414 SEQUENCER_TIMING 0;
#X floatatom 43 65 5 0 0 2 tempo - -;
#X obj 43 30 r \$0-bpm;
#X obj 43 85 t f f;
#X floatatom 144 296 5 0 0 1 beat_time - -;
#X obj 165 320 s link;
#X obj 70 229 abl_link~ 1 0 4 110;
#X msg 70 207 tempo \$1;
#X obj 144 275 spigot 1;
#X obj 207 214 r master-seq-on-off;
#X obj 144 341 outlet;
#X msg 43 270 60000 \$1;
#X obj 43 291 /;
#X obj 43 312 * 16;
#X obj 43 333 s recordtime;
#X obj 132 187 tgl 15 0 empty empty empty 17 7 0 10 -262144 -1 -1 0
1;
#X msg 132 207 connect \$1;
#X obj 70 126 f;
#X obj 85 145 r \$0-tempo-time;
#X obj 70 186 change;
#X obj 108 59 i;
#X obj 108 80 change;
#X obj 108 101 t b;
#X obj 108 38 r link;
#X obj 70 165 / 1;
#X obj 234 258 sel 1;
#X obj 207 237 t f f;
#X msg 234 279 reset 0 0;
#X connect 0 0 2 0;
#X connect 1 0 0 0;
#X connect 2 0 10 0;
#X connect 2 1 16 0;
#X connect 3 0 4 0;
#X connect 3 0 9 0;
#X connect 5 2 7 0;
#X connect 6 0 5 0;
#X connect 7 0 3 0;
#X connect 8 0 25 0;
#X connect 10 0 11 0;
#X connect 11 0 12 0;
#X connect 12 0 13 0;
#X connect 14 0 15 0;
#X connect 15 0 5 0;
#X connect 16 0 23 0;
#X connect 17 0 23 1;
#X connect 18 0 6 0;
#X connect 19 0 20 0;
#X connect 20 0 21 0;
#X connect 21 0 16 0;
#X connect 22 0 19 0;
#X connect 23 0 18 0;
#X connect 24 0 26 0;
#X connect 25 0 7 1;
#X connect 25 1 24 0;
#X connect 26 0 5 0;
#X restore 81 32 pd SEQUENCER_TIMING;
#X connect 1 0 0 0;
#X restore 76 130 pd ABLETON_LINK_&_TIMING______;
#N canvas 331 199 270 216 FORMULS_MESSAGES___________ 0;
#X obj 68 30 f.audio.formuls~ \$0 1;
#X obj 68 50 f.audio.formuls~ \$0 2;
#X obj 68 70 f.audio.formuls~ \$0 3;
#X obj 68 90 f.audio.formuls~ \$0 4;
#X obj 68 110 f.audio.formuls~ \$0 5;
#X obj 68 130 f.audio.formuls~ \$0 6;
#X restore 76 149 pd FORMULS_MESSAGES___________;
#N canvas 841 165 562 377 O-S-C_&_FORMULS_SEND_______ 0;
#X obj 91 177 r to-o-s-c-interface;
#X obj 91 198 list prepend send;
#X obj 91 219 list trim;
#X obj 57 247 netsend -u -b;
#X msg 78 143 disconnect;
#X obj 59 75 sel 1 0;
#X obj 68 98 loadbang;
#X msg 59 121 connect 127.0.0.1 8889;
#X obj 59 45 tgl 15 1 empty empty empty 17 7 0 10 -262144 -1 -1 1 1
;
#X obj 313 97 r to-faust;
#X obj 313 121 list prepend send;
#X obj 313 142 list trim;
#X msg 333 214 connect localhost 51984;
#X msg 409 239 disconnect;
#X obj 313 266 netsend;
#X obj 313 287 tgl 15 0 empty empty empty 17 7 0 10 -262144 -1 -1 0
1;
#X obj 389 77 r \$0-master-bus;
#X obj 389 98 list prepend fmasterbus;
#X obj 335 172 loadbang;
#X obj 335 193 del 2000;
#X connect 0 0 1 0;
#X connect 1 0 2 0;
#X connect 2 0 3 0;
#X connect 4 0 3 0;
#X connect 5 0 7 0;
#X connect 5 1 4 0;
#X connect 6 0 7 0;
#X connect 7 0 3 0;
#X connect 8 0 5 0;
#X connect 9 0 10 0;
#X connect 10 0 11 0;
#X connect 11 0 14 0;
#X connect 12 0 14 0;
#X connect 13 0 14 0;
#X connect 14 0 15 0;
#X connect 16 0 17 0;
#X connect 17 0 10 0;
#X connect 18 0 19 0;
#X connect 19 0 12 0;
#X restore 76 169 pd O-S-C_&_FORMULS_SEND_______;
#X restore 77 75 pd TRIPES_______________;
