#N canvas 614 527 830 337 10;
#X obj 19 18 inlet;
#X obj 18 152 throw~ \$0-out-1;
#X obj 19 52 s \$0-to-route;
#X obj 18 98 r \$0-to-route;
#X obj 14 239 catch~ \$0-out-1;
#X obj 14 263 outlet~;
#X obj 132 265 outlet~;
#X obj 250 266 outlet~;
#X obj 132 241 catch~ \$0-out-2;
#X obj 250 242 catch~ \$0-out-3;
#X text 15 217 to extfeedback;
#X text 145 215 to ADSR trig;
#X text 255 217 to envelopefollower;
#X obj 237 97 r \$0-to-route;
#X obj 431 97 r \$0-to-route;
#X obj 237 151 throw~ \$0-out-2;
#X obj 431 151 throw~ \$0-out-3;
#X obj 18 128 f.audio.submodroute~ extmodulation;
#X obj 237 127 f.audio.submodroute~ threshold;
#X obj 431 127 f.audio.submodroute~ envside;
#X connect 0 0 2 0;
#X connect 3 0 17 0;
#X connect 4 0 5 0;
#X connect 8 0 6 0;
#X connect 9 0 7 0;
#X connect 13 0 18 0;
#X connect 14 0 19 0;
#X connect 17 0 1 0;
#X connect 18 0 15 0;
#X connect 19 0 16 0;
