#N canvas 241 129 445 538 12;
#X obj 97 410 print formuls~ out;
#X obj 97 310 formuls~, f 10;
#X obj 30 87 route formuls\$1;
#X obj 378 504 outlet;
#X obj 30 19 inlet;
#X text 148 47 \$1 = instance/synth no.;
#X obj 119 269 f.audio.modroute~;
#X obj 119 385 s~ \$1-l;
#X obj 141 364 s~ \$1-r;
#X obj 164 341 s~ \$1-m;
#X obj 102 155 f.trig;
#N canvas 0 23 301 286 REVERB_SEND__ 0;
#X obj 40 38 inlet~;
#X obj 40 189 *~;
#X obj 55 121 sig~;
#X obj 55 142 lop~ 100;
#X obj 55 163 *~;
#X obj 160 39 inlet~;
#X obj 160 190 *~;
#X obj 175 122 sig~;
#X obj 175 143 lop~ 100;
#X obj 175 164 *~;
#X obj 54 100 r \$0-reverb;
#X obj 175 101 r \$0-reverb;
#X obj 41 212 throw~ rev-l;
#X obj 161 213 throw~ rev-r;
#X connect 0 0 1 0;
#X connect 1 0 12 0;
#X connect 2 0 3 0;
#X connect 3 0 4 0;
#X connect 3 0 4 1;
#X connect 4 0 1 1;
#X connect 5 0 6 0;
#X connect 6 0 13 0;
#X connect 7 0 8 0;
#X connect 8 0 9 0;
#X connect 8 0 9 1;
#X connect 9 0 6 1;
#X connect 10 0 2 0;
#X connect 11 0 7 0;
#X restore 232 383 pd REVERB_SEND__;
#X obj 232 361 r~ \$1-l;
#X obj 293 361 r~ \$1-r;
#X obj 30 182 s \$0-reverb;
#X obj 174 191 s \$0-formuls~;
#X obj 97 241 r \$0-formuls~;
#X obj 30 125 route reverb triggerx;
#X obj 202 292 *~ 10;
#X connect 1 0 0 0;
#X connect 1 1 7 0;
#X connect 1 1 9 0;
#X connect 1 2 8 0;
#X connect 1 2 9 0;
#X connect 1 3 9 0;
#X connect 2 0 17 0;
#X connect 2 1 3 0;
#X connect 4 0 2 0;
#X connect 6 0 1 1;
#X connect 6 1 1 2;
#X connect 6 2 18 0;
#X connect 10 0 15 0;
#X connect 10 1 1 2;
#X connect 12 0 11 0;
#X connect 13 0 11 1;
#X connect 16 0 1 0;
#X connect 16 0 6 0;
#X connect 17 0 14 0;
#X connect 17 1 10 0;
#X connect 17 2 15 0;
#X connect 18 0 1 3;
