#N canvas 1087 106 317 236 10;
#X obj 36 91 formuls~;
#X text 203 87 \$1 = \$0 \; \$2 = instance;
#X obj 36 190 specific.oscoutparse \$2 \$1;
#X obj 36 36 specific.oscinparse \$2 \$1;
#X obj 58 167 s~ \$2-l;
#X obj 83 149 s~ \$2-r;
#X obj 96 127 s~ \$2-m;
#X obj 84 60 specific.modroute~;
#X connect 0 0 2 0;
#X connect 0 1 4 0;
#X connect 0 1 6 0;
#X connect 0 2 5 0;
#X connect 0 2 6 0;
#X connect 3 0 0 0;
#X connect 3 1 7 0;
#X connect 7 0 0 1;
#X connect 7 1 0 2;
#X connect 7 2 0 3;
