#N canvas 568 39 497 500 10;
#N canvas 0 23 1072 721 FOOPER_____ 0;
#X msg 323 108 formuls/fooperrecord0 \$1;
#X obj 323 132 s \$0-out;
#X obj 329 156 tgl 15 0 empty empty empty 17 7 0 10 -262144 -1 -1 0
1;
#X obj 329 201 s \$0-out;
#X msg 329 177 formuls/play0 \$1;
#X obj 329 352 s \$0-out;
#X msg 329 328 formuls/speed0 \$1;
#X floatatom 329 306 5 0 1 0 - - -;
#X obj 477 261 s \$0-out;
#X floatatom 477 215 5 0 1 0 - - -;
#X msg 477 237 formuls/readoffset0 \$1;
#X obj 322 278 s \$0-out;
#X floatatom 322 232 5 0.001 1 0 - - -;
#X msg 322 254 formuls/duration0 \$1;
#X obj 330 432 s \$0-out;
#X floatatom 330 386 5 0 1 0 - - -;
#X msg 330 408 formuls/envelope0 \$1;
#X obj 495 346 s \$0-out;
#X floatatom 495 300 5 0 1 0 - - -;
#X msg 495 322 formuls/dropout0 \$1;
#X obj 506 431 s \$0-out;
#X floatatom 506 385 5 0 1 0 - - -;
#X msg 506 407 formuls/level0 \$1;
#X obj 519 143 s \$0-out;
#X msg 519 119 formuls/reverse0 \$1;
#X obj 685 250 tgl 15 0 empty empty empty 17 7 0 10 -262144 -1 -1 0
1;
#X obj 685 297 s \$0-out;
#X obj 656 370 tgl 15 0 empty empty empty 17 7 0 10 -262144 -1 -1 0
1;
#X obj 656 417 s \$0-out;
#X obj 662 300 tgl 15 0 empty empty empty 17 7 0 10 -262144 -1 -1 0
1;
#X obj 662 347 s \$0-out;
#X msg 687 274 formuls/rearecord0 \$1;
#X msg 664 323 formuls/reaact0 \$1;
#X msg 658 393 formuls/realoop0 \$1;
#X obj 112 221 s \$0-out;
#X obj 112 178 tgl 15 0 empty empty empty 17 7 0 10 -262144 -1 -1 0
1;
#X obj 142 298 s \$0-out;
#X floatatom 142 252 5 0 1 0 - - -;
#X msg 142 274 formuls/durchaos0 \$1;
#X obj 130 389 s \$0-out;
#X floatatom 130 343 5 0 1 0 - - -;
#X msg 130 365 formuls/reachaos0 \$1;
#X obj 137 464 s \$0-out;
#X floatatom 137 418 5 0 1 0 - - -;
#X msg 137 441 formuls/spechaos0 \$1;
#N canvas 0 22 450 300 record 0;
#X obj 106 109 bng 15 250 50 0 empty empty empty 17 7 0 10 -262144
-1 -1;
#X obj 162 109 tgl 15 0 empty empty empty 17 7 0 10 -262144 -1 -1 0
1;
#X obj 105 140 t b b b;
#X msg 151 165 stop;
#X msg 105 218 0;
#X msg 139 219 1;
#X obj 105 244 t a;
#X obj 105 268 outlet;
#X obj 105 194 del 6400;
#X connect 0 0 2 0;
#X connect 2 0 8 0;
#X connect 2 1 5 0;
#X connect 2 2 3 0;
#X connect 3 0 8 0;
#X connect 4 0 6 0;
#X connect 5 0 6 0;
#X connect 6 0 7 0;
#X connect 6 0 1 0;
#X connect 8 0 4 0;
#X coords 0 -1 1 1 85 30 2 100 100;
#X restore 323 76 pd record;
#X obj 472 145 tgl 15 0 empty empty empty 17 7 0 10 -262144 -1 -1 0
1;
#X obj 472 190 s \$0-out;
#N canvas 0 23 521 173 fooperADSR 0;
#X obj 26 91 s \$0-out;
#X obj 135 94 s \$0-out;
#X floatatom 135 48 5 0 1 0 - - -;
#X obj 242 93 s \$0-out;
#X floatatom 242 47 5 0.001 1 0 - - -;
#X obj 357 91 s \$0-out;
#X floatatom 357 45 5 0 1 0 - - -;
#X msg 26 67 formuls/a0 \$1;
#X msg 135 70 formuls/d0 \$1;
#X msg 242 69 formuls/s0 \$1;
#X msg 357 67 formuls/r0 \$1;
#X floatatom 25 44 5 0 1 0 - - -;
#X connect 2 0 8 0;
#X connect 4 0 9 0;
#X connect 6 0 10 0;
#X connect 7 0 0 0;
#X connect 8 0 1 0;
#X connect 9 0 3 0;
#X connect 10 0 5 0;
#X connect 11 0 7 0;
#X restore 392 469 pd fooperADSR;
#X text 378 383 <------------->;
#X text 373 302 <------------->;
#X text 360 225 <------------->;
#X obj 238 306 hradio 15 1 0 4 empty empty empty 0 -8 0 10 -262144
-1 -1 3;
#N canvas 0 22 450 300 s 0;
#X obj 137 44 inlet;
#X obj 134 72 sel 0 1 2 3;
#X msg 137 140 0.125;
#X obj 137 163 outlet;
#X msg 176 114 0.25;
#X msg 226 119 0.5;
#X msg 268 119 1;
#X connect 0 0 1 0;
#X connect 1 0 2 0;
#X connect 1 1 4 0;
#X connect 1 2 5 0;
#X connect 1 3 6 0;
#X connect 2 0 3 0;
#X connect 4 0 3 0;
#X connect 5 0 3 0;
#X connect 6 0 3 0;
#X restore 245 328 pd s;
#X obj 182 225 hradio 15 1 0 8 empty empty empty 0 -8 0 10 -262144
-1 -1 1;
#N canvas 0 22 525 300 s 0;
#X obj 137 44 inlet;
#X obj 299 193 outlet;
#X obj 119 83 sel 0 1 2 3 4 5 6 7;
#X msg 464 106 1;
#X msg 430 107 0.5;
#X msg 396 108 0.25;
#X msg 355 109 0.125;
#X msg 305 111 0.0625;
#X msg 243 110 0.03125;
#X msg 179 111 0.015625;
#X msg 103 113 0.0078125;
#X connect 0 0 2 0;
#X connect 2 0 10 0;
#X connect 2 1 9 0;
#X connect 2 2 8 0;
#X connect 2 3 7 0;
#X connect 2 4 6 0;
#X connect 2 5 5 0;
#X connect 2 6 4 0;
#X connect 2 7 3 0;
#X connect 3 0 1 0;
#X connect 4 0 1 0;
#X connect 5 0 1 0;
#X connect 6 0 1 0;
#X connect 7 0 1 0;
#X connect 8 0 1 0;
#X connect 9 0 1 0;
#X connect 10 0 1 0;
#X restore 189 247 pd s;
#X msg 472 166 formuls/oneshot0 \$1;
#X msg 112 197 formuls-dev/envelopeside0 \$1;
#X connect 0 0 1 0;
#X connect 2 0 4 0;
#X connect 4 0 3 0;
#X connect 6 0 5 0;
#X connect 7 0 6 0;
#X connect 9 0 10 0;
#X connect 10 0 8 0;
#X connect 12 0 13 0;
#X connect 13 0 11 0;
#X connect 15 0 16 0;
#X connect 16 0 14 0;
#X connect 18 0 19 0;
#X connect 19 0 17 0;
#X connect 21 0 22 0;
#X connect 22 0 20 0;
#X connect 24 0 23 0;
#X connect 25 0 31 0;
#X connect 27 0 33 0;
#X connect 29 0 32 0;
#X connect 31 0 26 0;
#X connect 32 0 30 0;
#X connect 33 0 28 0;
#X connect 35 0 57 0;
#X connect 37 0 38 0;
#X connect 38 0 36 0;
#X connect 40 0 41 0;
#X connect 41 0 39 0;
#X connect 43 0 44 0;
#X connect 44 0 42 0;
#X connect 45 0 0 0;
#X connect 46 0 56 0;
#X connect 52 0 53 0;
#X connect 53 0 7 0;
#X connect 54 0 55 0;
#X connect 55 0 12 0;
#X connect 56 0 47 0;
#X connect 57 0 34 0;
#X restore 264 15 pd FOOPER_____;
#X floatatom 320 266 5 0 0 0 - - -;
#N canvas 0 23 485 528 beat 0;
#X obj 21 449 outlet;
#X obj 48 158 i;
#X obj 48 179 change;
#X obj 48 200 t b;
#X obj 21 359 / 1;
#X obj 36 267 f 4;
#X obj 36 337 f 1;
#X obj 21 134 t f f;
#X obj 21 36 inlet beat-in;
#X text 73 4 BEAT SUBDIVISION/EXPANSION;
#X obj 125 98 s \$0-timebase;
#X obj 173 77 s \$0-timebase-multiplier;
#X obj 50 246 r \$0-timebase;
#X obj 51 318 r \$0-timebase-multiplier;
#X obj 21 290 * 4;
#X obj 125 36 inlet;
#X obj 173 36 inlet;
#X obj 21 386 i;
#X obj 21 407 change;
#X connect 1 0 2 0;
#X connect 2 0 3 0;
#X connect 3 0 5 0;
#X connect 3 0 6 0;
#X connect 4 0 17 0;
#X connect 5 0 14 1;
#X connect 6 0 4 1;
#X connect 7 0 14 0;
#X connect 7 1 1 0;
#X connect 8 0 7 0;
#X connect 12 0 5 1;
#X connect 13 0 6 1;
#X connect 14 0 4 0;
#X connect 15 0 10 0;
#X connect 16 0 11 0;
#X connect 17 0 18 0;
#X connect 18 0 0 0;
#X restore 320 220 pd beat;
#X floatatom 339 174 5 0 0 0 - - -;
#X floatatom 359 193 5 0 0 0 - - -;
#N canvas 500 297 642 340 PITCH 0;
#X floatatom 275 75 5 0 12 0 - - -;
#X floatatom 173 74 5 0 0 0 - - -;
#X floatatom 70 75 5 0 0 0 - - -;
#N canvas 523 65 642 813 PITCHGAMUT 0;
#X obj 52 143 t b a;
#X msg 52 88 \$1 \$2;
#X msg 305 64 1 1 \, 3 1 \, 4 1 \, 8 1 \, 9 1;
#X msg 305 44 1 1 \, 3 1 \, 4 1 \, 8 1 \, 9 0;
#X obj 84 170 unpack f f;
#X obj 84 190 - 1;
#X obj 84 232 f;
#X obj 84 212 t b f;
#X obj 52 356 until;
#X obj 52 456 list store;
#X obj 52 381 f;
#X obj 79 381 + 1;
#X msg 79 329 0;
#X msg 52 434 get \$1 1;
#X obj 52 411 t f f;
#X obj 52 505 f;
#X obj 52 477 sel 1;
#X obj 52 305 t b b l b, f 12;
#X obj 51 580 list;
#X obj 120 490 del 1;
#X obj 52 530 list prepend;
#X obj 52 551 t a a;
#X msg 306 84 1 1 \, 2 1 \, 3 1 \, 4 1 \, 7 1 \, 8 1 \, 10 1 \, 11
1;
#X msg 306 104 1 1 \, 2 0 \, 3 0 \, 4 1 \, 7 1 \, 8 1 \, 10 1 \, 11
1;
#X obj 151 784 outlet index;
#X obj 51 785 outlet value;
#X obj 253 785 outlet length;
#X obj 151 732 i;
#X obj 179 732 + 1;
#X msg 169 705 0;
#X obj 51 630 list;
#X obj 51 661 list split 1;
#X obj 91 717 del 2;
#X obj 270 703 list length;
#X obj 52 13 inlet;
#X obj 51 604 t a a b;
#X obj 253 727 t b;
#X obj 253 754 f;
#X obj 91 688 t b b a;
#X msg 217 20 1 1 \, 2 0 \, 3 0 \, 4 0 \, 5 1 \, 6 0 \, 7 0 \, 8 0
\, 9 0 \, 10 0 \, 11 0;
#X msg 221 130 1 1 \, 2 0 \, 3 0 \, 4 0 \, 5 0 \, 6 0 \, 7 0 \, 8 0
\, 9 0 \, 10 0 \, 11 0 \, 12 0;
#X msg 78 43 11 1;
#X obj 158 14 inlet;
#X obj 84 255 array set \$0-master-pitch-gamut;
#X obj 319 255 array define \$0-master-pitch-gamut 12;
#X obj 52 280 array get \$0-master-pitch-gamut;
#X connect 0 0 45 0;
#X connect 0 1 4 0;
#X connect 1 0 0 0;
#X connect 2 0 0 0;
#X connect 3 0 0 0;
#X connect 4 0 5 0;
#X connect 4 1 6 1;
#X connect 5 0 7 0;
#X connect 6 0 43 0;
#X connect 7 0 6 0;
#X connect 7 1 43 1;
#X connect 8 0 10 0;
#X connect 9 0 16 0;
#X connect 9 1 8 1;
#X connect 9 1 19 0;
#X connect 10 0 11 0;
#X connect 10 0 14 0;
#X connect 11 0 10 1;
#X connect 12 0 10 1;
#X connect 13 0 9 0;
#X connect 14 0 13 0;
#X connect 14 1 15 1;
#X connect 15 0 20 0;
#X connect 16 0 15 0;
#X connect 17 0 8 0;
#X connect 17 1 12 0;
#X connect 17 2 9 1;
#X connect 17 3 20 1;
#X connect 18 0 35 0;
#X connect 19 0 18 0;
#X connect 20 0 21 0;
#X connect 21 0 18 1;
#X connect 21 1 20 1;
#X connect 22 0 0 0;
#X connect 23 0 0 0;
#X connect 27 0 28 0;
#X connect 27 0 24 0;
#X connect 28 0 27 1;
#X connect 29 0 27 1;
#X connect 30 0 31 0;
#X connect 31 0 25 0;
#X connect 31 1 38 0;
#X connect 31 2 36 0;
#X connect 32 0 30 0;
#X connect 33 0 37 1;
#X connect 34 0 1 0;
#X connect 35 0 30 0;
#X connect 35 1 33 0;
#X connect 35 2 29 0;
#X connect 36 0 37 0;
#X connect 37 0 26 0;
#X connect 38 0 32 0;
#X connect 38 1 27 0;
#X connect 38 2 30 1;
#X connect 39 0 0 0;
#X connect 40 0 0 0;
#X connect 41 0 1 0;
#X connect 42 0 2 0;
#X connect 45 0 17 0;
#X restore 70 46 pd PITCHGAMUT;
#X obj 82 10 inlet;
#X obj 72 138 specific.message formuls scalevalue tr \$1;
#X obj 180 197 specific.message formuls scalewrite tr \$1;
#X obj 287 259 specific.message formuls scalelength tr \$1;
#X connect 0 0 7 0;
#X connect 1 0 6 0;
#X connect 2 0 5 0;
#X connect 3 0 2 0;
#X connect 3 1 1 0;
#X connect 3 2 0 0;
#X connect 4 0 3 1;
#X restore 218 235 pd PITCH;
#X obj 218 216 bng 15 250 50 0 empty empty empty 17 7 0 10 -262144
-1 -1;
#X obj 320 60 r link;
#X obj 363 126 tgl 15 0 empty empty empty 17 7 0 10 -262144 -1 -1 1
1;
#X obj 320 125 spigot;
#X obj 11 311 specific.message formuls triggerx tr \$1;
#N canvas 0 23 559 607 chord 0;
#X obj 103 123 bng 15 250 50 0 empty empty empty 17 7 0 10 -262144
-1 -1;
#X floatatom 121 121 5 1 8 1 chord_size - -;
#X obj 361 576 outlet;
#X obj 163 295 del 2;
#X msg 163 318 0;
#X msg 209 299 1;
#X obj 209 363 t f;
#X obj 163 340 t b f;
#X obj 163 429 i;
#X obj 192 429 + 1;
#X msg 181 407 0;
#X obj 163 249 t b b;
#X obj 163 272 t b b;
#X obj 108 205 r \$0-recursion;
#X obj 122 147 s \$0-chord-size;
#X obj 103 169 s \$0-chord-trig;
#X obj 163 227 r \$0-chord-trig;
#X obj 209 452 r \$0-chord-size;
#X obj 163 496 moses 0;
#X obj 209 475 - 1;
#X obj 163 522 t b;
#X obj 163 545 del 1;
#X obj 163 568 s \$0-recursion;
#X connect 0 0 15 0;
#X connect 1 0 14 0;
#X connect 3 0 4 0;
#X connect 4 0 7 0;
#X connect 5 0 6 0;
#X connect 6 0 2 0;
#X connect 7 0 8 0;
#X connect 7 1 6 0;
#X connect 8 0 9 0;
#X connect 8 0 18 0;
#X connect 9 0 8 1;
#X connect 10 0 8 1;
#X connect 11 0 12 0;
#X connect 11 1 10 0;
#X connect 12 0 3 0;
#X connect 12 1 5 0;
#X connect 13 0 12 0;
#X connect 16 0 11 0;
#X connect 17 0 19 0;
#X connect 18 0 20 0;
#X connect 19 0 18 1;
#X connect 20 0 21 0;
#X connect 21 0 22 0;
#X coords 0 -1 1 1 130 40 1 100 100;
#X restore 11 267 pd chord;
#X obj 11 380 r \$0-OSC-collect-\$1;
#X obj 11 403 oscparse;
#X obj 11 459 s formuls\$1;
#N canvas 0 23 450 300 list-manipulate 0;
#X obj 174 119 inlet;
#X obj 174 165 outlet;
#X msg 174 142 /\$1/\$2 \$3;
#X connect 0 0 2 0;
#X connect 2 0 1 0;
#X restore 11 425 pd list-manipulate;
#N canvas 169 314 1229 509 OP1_OP2_NOISE_AM 0;
#X obj 66 20 inlet;
#X obj 67 186 unpack f f;
#X obj 66 235 specific.oscformat \$0 \$1 op1freq op1f;
#X obj 145 186 unpack f f;
#X obj 564 77 unpack f f;
#X obj 682 75 unpack f f;
#X obj 140 163 specific.oscformat \$0 \$1 extmodulation ext;
#X obj 66 53 route op1freqwave\$1 op1freqwavechaos\$1 extmod\$1 extmodchaos\$1
op1sliderange\$1 op1sliderangechaos\$1 op1slidetime\$1 op1slidetimechaos\$1
;
#X obj 214 138 specific.oscformat \$0 \$1 op1sliderange op1sr;
#X obj 288 111 specific.oscformat \$0 \$1 op1slidetime op1st;
#X obj 564 44 route op2freqdepth\$1 op2freqdepthchaos\$1;
#X obj 891 66 unpack f f;
#X obj 967 66 unpack f f;
#X obj 891 33 route noise\$1 noisechaos\$1;
#X obj 493 304 unpack f f;
#X obj 562 302 unpack f f;
#X obj 492 350 specific.oscformat \$0 \$1 amfreq amf;
#X obj 560 326 specific.oscformat \$0 \$1 amdepth amd;
#X obj 946 447 outlet;
#X obj 493 231 route amfreqdepth\$1 amfreqdepthchaos\$1 amwave\$1 amwavechaos\$1
;
#X obj 890 112 specific.oscformat \$0 \$1 noise n;
#X obj 958 88 specific.oscformat \$0 \$1 noisefilterfreq nf;
#X obj 783 154 oscformat op2act\$1;
#X obj 1079 137 oscformat noiseact\$1;
#X obj 699 398 s formuls\$1;
#X obj 699 376 oscformat amact\$1;
#X obj 285 284 s to-o-s-c-interface;
#X obj 783 176 s to-o-s-c-interface;
#X obj 1080 159 s to-o-s-c-interface;
#X obj 285 262 oscformat op1freqwaveact\$1;
#X obj 134 207 specific.oscformat \$0 \$1 waveshape w 4;
#X obj 632 278 specific.oscformat \$0 \$1 amwave amw 4;
#X obj 564 122 specific.oscformat \$0 \$1 op2freq op2f 5;
#X obj 631 99 specific.oscformat \$0 \$1 op2depth op2d 5;
#X connect 0 0 7 0;
#X connect 1 0 2 0;
#X connect 1 1 30 0;
#X connect 2 3 29 0;
#X connect 3 0 2 1;
#X connect 3 1 30 1;
#X connect 4 0 32 0;
#X connect 4 1 33 0;
#X connect 5 0 32 1;
#X connect 5 1 33 1;
#X connect 7 0 1 0;
#X connect 7 1 3 0;
#X connect 7 2 6 0;
#X connect 7 3 6 1;
#X connect 7 4 8 0;
#X connect 7 5 8 1;
#X connect 7 6 9 0;
#X connect 7 7 9 1;
#X connect 7 8 10 0;
#X connect 10 0 4 0;
#X connect 10 1 5 0;
#X connect 10 2 13 0;
#X connect 11 0 20 0;
#X connect 11 1 21 0;
#X connect 12 0 20 1;
#X connect 12 1 21 1;
#X connect 13 0 11 0;
#X connect 13 1 12 0;
#X connect 13 2 19 0;
#X connect 14 0 16 0;
#X connect 14 1 17 0;
#X connect 15 0 16 1;
#X connect 15 1 17 1;
#X connect 16 3 25 0;
#X connect 17 3 25 0;
#X connect 19 0 14 0;
#X connect 19 1 15 0;
#X connect 19 2 31 0;
#X connect 19 3 31 1;
#X connect 19 4 18 0;
#X connect 20 3 23 0;
#X connect 21 3 23 0;
#X connect 22 0 27 0;
#X connect 23 0 28 0;
#X connect 25 0 24 0;
#X connect 29 0 26 0;
#X connect 30 3 29 0;
#X connect 32 3 22 0;
#X connect 33 3 22 0;
#X restore 12 65 pd OP1_OP2_NOISE_AM;
#N canvas 0 23 1273 855 DEPRECATED 0;
#X floatatom 23 38 5 0 0 0 - - -;
#X obj 24 16 r \$0-op1f-;
#X obj 23 60 specific.message formuls op1freq op1f \$1;
#X obj 23 103 specific.message formuls extfeed ext \$1;
#X obj 23 146 specific.message formuls waveshape w \$1;
#X obj 23 193 specific.message formuls op1sliderange op1sr \$1;
#X obj 23 240 specific.message formuls op1slidetime op1st \$1;
#X obj 25 288 specific.message formuls op2freq op2f \$1;
#X obj 25 338 specific.message formuls op2depth op2d \$1;
#X obj 25 433 specific.message formuls noisefilterfreq nf \$1;
#X obj 24 385 specific.message formuls noise n \$1;
#X obj 25 483 specific.message formuls attack a \$1;
#X obj 25 528 specific.message formuls decay d \$1;
#X obj 25 573 specific.message formuls sustain s \$1;
#X obj 25 616 specific.message formuls release r \$1;
#X obj 26 658 specific.message formuls monophonic m \$1;
#X obj 26 700 specific.message formuls adsron ao \$1;
#X obj 26 742 specific.message formuls velocity v \$1;
#X obj 25 792 specific.message formuls threshold th \$1;
#X obj 382 715 specific.message formuls amwave amw \$1;
#X obj 382 760 specific.message formuls amfreq amf \$1;
#X obj 381 802 specific.message formuls amdepth amd \$1;
#X obj 718 42 specific.message formuls seqwrite tr \$1;
#X obj 719 87 specific.message formuls seqvalue tr \$1;
#X obj 390 485 specific.message formuls saturation sat \$1;
#X obj 389 531 specific.message formuls bitcrush bit \$1;
#X obj 389 575 specific.message formuls pitchshift pit \$1;
#X obj 388 620 specific.message formuls filtercutoff fc \$1;
#X obj 388 663 specific.message formuls filterresonance fr \$1;
#X obj 748 499 specific.message formuls delsend ds \$1;
#X obj 748 542 specific.message formuls deltime dt \$1;
#X obj 748 592 specific.message formuls delfeedback df \$1;
#X obj 427 259 specific.message formuls enveloperelease er \$1;
#X obj 427 309 specific.message formuls envelopedepth er \$1;
#X obj 427 352 specific.message formuls envelopeside er \$1;
#X obj 745 722 specific.message formuls masteramp ma \$1;
#X floatatom 367 61 5 0 64 0 - - -;
#X floatatom 366 127 5 0 0 0 - - -;
#X obj 408 16 specific.message formuls euclidon tr \$1;
#X obj 408 67 specific.message formuls euclidbeats tr \$1;
#X obj 407 109 specific.message formuls euclidbar tr \$1;
#X obj 408 152 specific.message formuls euclidoffset tr \$1;
#X obj 760 182 specific.message formuls genstepsize tr \$1;
#X obj 760 232 specific.message formuls gendirection tr \$1;
#X obj 760 277 specific.message formuls genrepeat tr \$1;
#X obj 367 170 * 2;
#X obj 761 321 specific.message formuls genon tr \$1;
#X obj 377 214 specific.message formuls seqrandomadd tr \$1;
#X obj 760 132 specific.message formuls genrange tr \$1;
#X connect 0 0 2 0;
#X connect 1 0 0 0;
#X connect 36 0 39 0;
#X connect 37 0 40 0;
#X connect 37 0 45 0;
#X restore 147 15 pd DEPRECATED;
#N canvas 0 23 701 439 ADSR_VEL_TRIG___ 0;
#X obj 37 37 inlet;
#X obj 37 332 specific.oscformat \$0 \$1 adsron -;
#X obj 65 308 specific.oscformat \$0 \$1 attack a;
#X obj 123 283 specific.oscformat \$0 \$1 decay d;
#X obj 180 260 specific.oscformat \$0 \$1 sustain s;
#X obj 238 237 specific.oscformat \$0 \$1 release r;
#X obj 296 213 specific.oscformat \$0 \$1 monophonic -;
#X obj 464 404 outlet;
#X obj 382 165 specific.oscformat \$0 \$1 threshold th;
#X obj 323 191 specific.oscformat \$0 \$1 velocity v;
#X obj 37 60 route adsron\$1 attack\$1 attackchaos\$1 decay\$1 decaychaos\$1
sustain\$1 sustainchaos\$1 release\$1 releasechaos\$1 monophonic\$1
velocity\$1 velocitychaos\$1 threshold\$1 thresholdchaos\$1 triggerx\$1
;
#X obj 392 145 specific.oscformat \$0 \$1 triggerx -;
#X connect 0 0 10 0;
#X connect 10 0 1 0;
#X connect 10 1 2 0;
#X connect 10 2 2 1;
#X connect 10 3 3 0;
#X connect 10 4 3 1;
#X connect 10 5 4 0;
#X connect 10 6 4 1;
#X connect 10 7 5 0;
#X connect 10 8 5 1;
#X connect 10 9 6 0;
#X connect 10 10 9 0;
#X connect 10 11 9 1;
#X connect 10 12 8 0;
#X connect 10 13 8 1;
#X connect 10 14 11 0;
#X connect 10 15 7 0;
#X restore 12 87 pd ADSR_VEL_TRIG___;
#N canvas 119 23 788 652 SEQ_____________ 0;
#X obj 37 37 inlet;
#X obj 36 288 unpack f f;
#X msg 36 259 \$2 \$1;
#X obj 103 314 specific.oscformat \$0 \$1 seqwrite -;
#X obj 36 341 specific.oscformat \$0 \$1 seqvalue -;
#X obj 460 465 outlet;
#N canvas 20 28 1420 818 SEQUENCER___________ 0;
#X obj 18 10 inlet;
#X msg 19 205 \$1;
#X obj 1310 712 outlet;
#X obj 1230 40 r \$0-reset;
#X obj 636 471 pow 2.7;
#X obj 636 492 * 100;
#X obj 1155 289 s \$0-seq-trigger;
#X obj 1155 249 change;
#X obj 797 121 flib.seq.automater \$0 \$0-seq-inv;
#X obj 746 327 flib.seq.automater \$0 \$0-seq-warp;
#X obj 636 450 flib.seq.automater \$0 \$0-seq-delay;
#X obj 800 262 flib.seq.automater \$0 \$0-async;
#X obj 835 596 flib.seq.automater \$0 \$0-seq-euclid-steps;
#X obj 734 658 flib.seq.automater \$0 \$0-seq-euclid-offset;
#X obj 633 721 flib.seq.automater \$0 \$0-seq-euclid;
#X msg 19 334 timebase \$1;
#X obj 19 355 s \$0-seq-messages;
#X msg 797 141 seqinvert \$1;
#X obj 797 162 s \$0-seq-messages;
#X msg 636 513 delay \$1;
#X obj 636 534 s \$0-seq-messages;
#X msg 746 348 warp \$1;
#X obj 746 369 s \$0-seq-messages;
#X msg 800 283 beatsync \$1;
#X obj 800 304 s \$0-seq-messages;
#X msg 633 742 euclid \$1;
#X obj 633 763 s \$0-seq-messages;
#X msg 734 679 euclidoffset \$1;
#X obj 734 700 s \$0-seq-messages;
#X msg 835 617 euclidsteps \$1;
#X obj 835 638 s \$0-seq-messages;
#X msg 1230 62 reset bang;
#X obj 1230 83 s \$0-seq-messages;
#X floatatom 44 313 5 0 0 0 - - -;
#X obj 1155 269 sel 0;
#X obj 1155 180 flib.seq.automater \$0 \$0-seq-trigger 0 1;
#X obj 1155 229 spigot;
#X obj 1188 209 r \$0-seq-on;
#X obj 19 247 flib.seq.automater \$0 \$0-seq-time-base 0;
#X text 75 22 All controlled in Pd;
#X obj 719 186 specific.oscformat \$0 \$1 seqrandomdrop srd;
#X obj 687 390 flib.seq.automater \$0 \$0-seq-swing;
#X msg 687 411 swing \$1;
#X obj 687 432 s \$0-seq-messages;
#X msg 18 416 \$1;
#X msg 317 415 \$1;
#X obj 18 539 t b f;
#X obj 18 563 f 1;
#X obj 18 585 -;
#X obj 18 607 i;
#X msg 18 627 seqlength \$1;
#X obj 18 648 s \$0-seq-messages;
#X obj 18 142 s \$0-seq-messages;
#X obj 18 435 / 8;
#X obj 18 472 * 8;
#X obj 317 436 / 8;
#X obj 317 485 * 64;
#X obj 24 76 tgl 15 0 empty empty empty 17 7 0 10 -262144 -1 -1 0 1
;
#X msg 18 121 seqon \$1;
#X obj 18 454 flib.seq.automater \$0 \$0-seq-length-x 1 1;
#X obj 317 457 flib.seq.automater \$0 \$0-seq-length-y 1 1;
#X obj 18 98 flib.seq.automater \$0 \$0-seq-on 0 0;
#X msg 302 222 \$1;
#X msg 302 346 timebasemultiplier \$1;
#X obj 302 367 s \$0-seq-messages;
#X obj 302 243 / 5;
#X obj 302 326 i;
#X obj 302 266 flib.seq.automater \$0 \$0-seq-time-base-multiplier
0 0;
#X obj 302 306 + 1;
#X obj 302 285 * 4;
#X obj 639 92 route seqrandomdrop\$1 seq-inv\$1;
#X obj 636 236 route seqdelay\$1 seqswing\$1 seqwarp\$1 async\$1;
#X obj 633 575 route seq-euclid\$1 seq-euclid-offset\$1 seq-euclid-steps\$1
;
#X obj 1031 151 route seq-time-base-multiplier seq-trigger\$1;
#X obj 302 200 specific.oscformat \$0 \$1 seqtimebasemultiplier\$1
;
#X obj 318 393 specific.oscformat \$0 \$1 seqlengthy\$1;
#X obj 18 394 specific.oscformat \$0 \$1 seqlengthx\$1;
#X obj 19 183 specific.oscformat \$0 \$1 seqtimebase -;
#X obj 17 42 route seqon\$1 seqtimebase\$1 seqtimebasemultiplier\$1
seqlengthx\$1 seqlengthy\$1;
#N canvas 0 23 450 300 MAPPING____ 0;
#X obj 22 20 inlet;
#X obj 22 61 sel 1 2 3 4 5;
#X msg 22 192 8;
#X obj 112 243 t a;
#X obj 112 264 outlet;
#X msg 39 165 7;
#X msg 55 146 6;
#X msg 73 124 5;
#X msg 99 109 4;
#X obj 22 41 i;
#X connect 0 0 9 0;
#X connect 1 0 2 0;
#X connect 1 1 5 0;
#X connect 1 2 6 0;
#X connect 1 3 7 0;
#X connect 1 4 8 0;
#X connect 2 0 3 0;
#X connect 3 0 4 0;
#X connect 5 0 3 0;
#X connect 6 0 3 0;
#X connect 7 0 3 0;
#X connect 8 0 3 0;
#X connect 9 0 1 0;
#X restore 42 289 pd MAPPING____;
#X obj 19 226 / 8;
#X obj 19 268 * 8;
#X obj 19 313 i;
#X msg 18 494 8 \$1;
#X obj 18 516 -;
#X connect 0 0 78 0;
#X connect 1 0 80 0;
#X connect 3 0 31 0;
#X connect 4 0 5 0;
#X connect 5 0 19 0;
#X connect 7 0 34 0;
#X connect 8 0 17 0;
#X connect 9 0 21 0;
#X connect 10 0 4 0;
#X connect 11 0 23 0;
#X connect 12 0 29 0;
#X connect 13 0 27 0;
#X connect 14 0 25 0;
#X connect 15 0 16 0;
#X connect 17 0 18 0;
#X connect 19 0 20 0;
#X connect 21 0 22 0;
#X connect 23 0 24 0;
#X connect 25 0 26 0;
#X connect 27 0 28 0;
#X connect 29 0 30 0;
#X connect 31 0 32 0;
#X connect 34 1 6 0;
#X connect 35 0 36 0;
#X connect 36 0 7 0;
#X connect 37 0 36 1;
#X connect 38 0 81 0;
#X connect 41 0 42 0;
#X connect 42 0 43 0;
#X connect 44 0 53 0;
#X connect 45 0 55 0;
#X connect 46 0 47 0;
#X connect 46 1 48 1;
#X connect 47 0 48 0;
#X connect 48 0 49 0;
#X connect 49 0 50 0;
#X connect 50 0 51 0;
#X connect 53 0 59 0;
#X connect 54 0 83 0;
#X connect 55 0 60 0;
#X connect 56 0 47 0;
#X connect 57 0 61 0;
#X connect 58 0 52 0;
#X connect 59 0 54 0;
#X connect 60 0 56 0;
#X connect 61 0 58 0;
#X connect 62 0 65 0;
#X connect 63 0 64 0;
#X connect 65 0 67 0;
#X connect 66 0 63 0;
#X connect 67 0 69 0;
#X connect 68 0 66 0;
#X connect 69 0 68 0;
#X connect 70 0 40 0;
#X connect 70 1 8 0;
#X connect 70 2 71 0;
#X connect 71 0 10 0;
#X connect 71 1 41 0;
#X connect 71 2 9 0;
#X connect 71 3 11 0;
#X connect 71 4 72 0;
#X connect 72 0 14 0;
#X connect 72 1 13 0;
#X connect 72 2 12 0;
#X connect 72 3 73 0;
#X connect 73 1 35 0;
#X connect 73 2 2 0;
#X connect 74 0 62 0;
#X connect 75 0 45 0;
#X connect 76 0 44 0;
#X connect 77 0 1 0;
#X connect 78 0 61 0;
#X connect 78 1 77 0;
#X connect 78 2 74 0;
#X connect 78 3 76 0;
#X connect 78 4 75 0;
#X connect 78 5 70 0;
#X connect 80 0 38 0;
#X connect 81 0 82 0;
#X connect 82 0 15 0;
#X connect 83 0 84 0;
#X connect 84 0 46 0;
#X restore 459 232 pd SEQUENCER___________;
#X obj 36 60 route seqwrite\$1 seqrandomadd\$1 seqrandomaddchaos\$1
;
#X obj 118 126 specific.oscformat \$0 \$1 seqrandomadd sra;
#X obj 36 236 specific.matrixunpack;
#X obj 199 252 print me;
#X connect 0 0 7 0;
#X connect 1 0 4 0;
#X connect 1 1 3 0;
#X connect 2 0 1 0;
#X connect 2 0 10 0;
#X connect 6 0 5 0;
#X connect 7 0 9 0;
#X connect 7 1 8 0;
#X connect 7 2 8 1;
#X connect 7 3 6 0;
#X connect 9 0 2 0;
#X restore 12 109 pd SEQ_____________;
#N canvas 0 23 450 300 seqmessages____ 0;
#X obj 93 45 inlet;
#X obj 93 68 route seqon timebase timebasemultiplier seqlength;
#X obj 90 240 outlet;
#X obj 179 234 outlet;
#X obj 253 237 outlet;
#X obj 342 231 outlet;
#X obj 343 193 * 2;
#X connect 0 0 1 0;
#X connect 1 0 2 0;
#X connect 1 1 3 0;
#X connect 1 2 4 0;
#X connect 1 3 6 0;
#X connect 6 0 5 0;
#X restore 363 103 pd seqmessages____;
#X obj 363 82 r \$0-seq-messages;
#X floatatom 374 218 5 0 0 0 - - -;
#X msg 320 288 /formuls/seqread \$1;
#X obj 320 311 s formuls\$1;
#N canvas 0 23 1406 517 FX______________ 0;
#X obj 17 27 inlet;
#X obj 17 176 specific.oscformat \$0 \$1 saturation sat;
#X obj 27 146 specific.oscformat \$0 \$1 bitcrush bit;
#X obj 67 116 specific.oscformat \$0 \$1 bitcrushwetdry bitwd;
#X obj 669 190 route filtercutoff\$1 filtercutoffchaos\$1 filterresonance\$1
filterresonancechaos\$1;
#X obj 669 267 specific.oscformat \$0 \$1 filtercutoff fc;
#X obj 679 237 specific.oscformat \$0 \$1 filterresonance fr;
#X obj 1018 242 route delaysend\$1 delaysendchaos\$1 delaytime\$1 delaytimechaos\$1
delayfeedback\$1 delayfeedbackchaos\$1;
#X obj 1018 358 specific.oscformat \$0 \$1 delaysend ds;
#X obj 1028 328 specific.oscformat \$0 \$1 delaytime dt;
#X obj 1068 298 specific.oscformat \$0 \$1 delayfeedback df;
#X obj 1338 454 outlet;
#X obj 397 116 route pitchshift\$1 pitchshiftchaos\$1;
#X obj 396 154 specific.oscformat \$0 \$1 pitchshift pit;
#X obj 17 60 route saturation\$1 saturationchaos\$1 bitcrush\$1 bitcrushchaos\$1
bitcrushwetdry\$1 bitcrushwetdrychaos\$1;
#X connect 0 0 14 0;
#X connect 4 0 5 0;
#X connect 4 1 5 1;
#X connect 4 2 6 0;
#X connect 4 3 6 1;
#X connect 4 4 7 0;
#X connect 7 0 8 0;
#X connect 7 1 8 1;
#X connect 7 2 9 0;
#X connect 7 3 9 1;
#X connect 7 4 10 0;
#X connect 7 5 10 1;
#X connect 7 6 11 0;
#X connect 12 0 13 0;
#X connect 12 1 13 1;
#X connect 12 2 4 0;
#X connect 14 0 1 0;
#X connect 14 1 1 1;
#X connect 14 2 2 0;
#X connect 14 3 2 1;
#X connect 14 4 3 0;
#X connect 14 5 3 1;
#X connect 14 6 12 0;
#X restore 12 131 pd FX______________;
#N canvas 0 23 908 329 ENV_MASTER_PAN__ 0;
#X obj 37 37 inlet;
#X obj 37 76 route enveloperelease\$1 envelopereleasechaos\$1 envelopedepth\$1
envelopedepthchaos\$1 envelopeside\$1;
#X obj 37 192 specific.oscformat \$0 \$1 enveloperelease er;
#X obj 47 162 specific.oscformat \$0 \$1 envelopedepth ed;
#X obj 87 132 specific.oscformat \$0 \$1 envelopeside es;
#X obj 462 76 route panning\$1 panningchaos\$1 masteramp\$1;
#X obj 571 103 specific.oscformat \$0 \$1 masteramp -;
#X obj 772 243 outlet;
#X obj 462 129 specific.oscformat \$0 \$1 panning p;
#X connect 0 0 1 0;
#X connect 1 0 2 0;
#X connect 1 1 2 1;
#X connect 1 2 3 0;
#X connect 1 3 3 1;
#X connect 1 4 4 0;
#X connect 1 5 5 0;
#X connect 5 0 8 0;
#X connect 5 1 8 1;
#X connect 5 2 6 0;
#X connect 5 3 7 0;
#X restore 12 153 pd ENV_MASTER_PAN__;
#N canvas 0 320 955 436 GEN_EUC_________ 0;
#X obj 37 38 inlet;
#X obj 37 76 route genrange\$1 genrangechaos\$1 genstepsize\$1 genstepsizechaos\$1
gendirection\$1 gendirectionchaos\$1 genrepeat\$1 genrepeatchaos\$1
genon\$1;
#X obj 37 292 specific.oscformat \$0 \$1 genrange gr;
#X obj 47 262 specific.oscformat \$0 \$1 genstepsize gs;
#X obj 87 232 specific.oscformat \$0 \$1 gendirection gd;
#X obj 156 202 specific.oscformat \$0 \$1 genrepeat gr;
#X obj 206 172 specific.oscformat \$0 \$1 genon -;
#X obj 471 85 route euclidon\$1 euclidbeats\$1 euclidbar\$1 euclidoffset\$1
;
#X obj 471 238 specific.oscformat \$0 \$1 euclidon -;
#X obj 491 208 specific.oscformat \$0 \$1 euclidbeats -;
#X obj 541 148 specific.oscformat \$0 \$1 euclidbar -;
#X obj 641 118 specific.oscformat \$0 \$1 euclidoffset -;
#X obj 863 370 outlet;
#X obj 540 172 * 2;
#X connect 0 0 1 0;
#X connect 1 0 2 0;
#X connect 1 1 2 1;
#X connect 1 2 3 0;
#X connect 1 3 3 1;
#X connect 1 4 4 0;
#X connect 1 5 4 1;
#X connect 1 6 5 0;
#X connect 1 7 5 1;
#X connect 1 8 6 0;
#X connect 1 9 7 0;
#X connect 7 0 8 0;
#X connect 7 1 9 0;
#X connect 7 2 10 0;
#X connect 7 3 11 0;
#X connect 7 4 12 0;
#X connect 10 0 13 0;
#X restore 12 175 pd GEN_EUC_________;
#X obj 12 43 r o-s-c-messages;
#X obj 110 458 outlet;
#X obj 149 430 r formuls\$1;
#X obj 148 385 r \$0-OSC-collect-2-\$1;
#N canvas 289 435 936 342 TRIG____________ 0;
#X obj 34 15 inlet;
#X obj 34 38 route op1freqwavetrig\$1 exttrig\$1 op2trig\$1 noisetrig\$1
amtrig\$1 amwtrig\$1;
#X obj 34 289 s \$0-op1f-trig;
#X obj 54 268 s \$0-w-trig;
#X obj 97 247 s \$0-ext-trig;
#X obj 182 204 s \$0-op2d-trig;
#X obj 161 225 s \$0-op2f-trig;
#X obj 226 178 s \$0-n-trig;
#X obj 242 156 s \$0-nf-trig;
#X obj 288 134 s \$0-amf-trig;
#X obj 299 112 s \$0-amd-trig;
#X obj 352 87 s \$0-amw-trig;
#X obj 765 85 s \$0-p-trig;
#X obj 445 263 s \$0-sat-trig;
#X obj 496 241 s \$0-bit-trig;
#X obj 548 220 s \$0-pit-trig;
#X obj 598 198 s \$0-ds-trig;
#X obj 651 176 s \$0-dt-trig;
#X obj 681 155 s \$0-df-trig;
#X obj 704 132 s \$0-fc-trig;
#X obj 727 108 s \$0-fr-trig;
#X obj 445 37 route sattrig\$1 bittrig\$1 pittrig\$1 dstrig$ dttrig\$1
dftrig\$1 fctrig\$1 frtrig\$1 ptrig\$1;
#X obj 827 313 outlet;
#X connect 0 0 1 0;
#X connect 1 0 2 0;
#X connect 1 0 3 0;
#X connect 1 1 4 0;
#X connect 1 2 6 0;
#X connect 1 2 5 0;
#X connect 1 3 7 0;
#X connect 1 3 8 0;
#X connect 1 4 9 0;
#X connect 1 4 10 0;
#X connect 1 5 11 0;
#X connect 1 6 21 0;
#X connect 21 0 13 0;
#X connect 21 1 14 0;
#X connect 21 2 15 0;
#X connect 21 3 16 0;
#X connect 21 4 17 0;
#X connect 21 5 18 0;
#X connect 21 6 19 0;
#X connect 21 7 20 0;
#X connect 21 8 12 0;
#X connect 21 9 22 0;
#X restore 12 217 pd TRIG____________;
#N canvas 289 435 936 342 ACT_____________ 0;
#X obj 34 15 inlet;
#X obj 34 289 s \$0-op1f-act;
#X obj 54 268 s \$0-w-act;
#X obj 97 247 s \$0-ext-act;
#X obj 161 225 s \$0-op2f-act;
#X obj 182 204 s \$0-op2d-act;
#X obj 226 178 s \$0-n-act;
#X obj 242 156 s \$0-nf-act;
#X obj 288 134 s \$0-amf-act;
#X obj 299 112 s \$0-amd-act;
#X obj 352 87 s \$0-amw-act;
#X obj 445 263 s \$0-sat-act;
#X obj 497 241 s \$0-bit-act;
#X obj 548 220 s \$0-pit-act;
#X obj 599 198 s \$0-ds-act;
#X obj 651 176 s \$0-dt-act;
#X obj 681 155 s \$0-df-act;
#X obj 704 133 s \$0-fc-act;
#X obj 727 108 s \$0-fr-act;
#X obj 765 85 s \$0-p-act;
#X obj 34 38 route op1freqwaveact\$1 extact\$1 op2act\$1 noiseact\$1
amact\$1 amwact\$1;
#X obj 445 37 route satact\$1 bitact\$1 pitact\$1 dsact$ dtact\$1 dfact\$1
fcact\$1 fract\$1 pact\$1;
#X obj 294 269 print mofo;
#X connect 0 0 20 0;
#X connect 20 0 1 0;
#X connect 20 0 2 0;
#X connect 20 1 3 0;
#X connect 20 2 4 0;
#X connect 20 2 5 0;
#X connect 20 2 22 0;
#X connect 20 3 6 0;
#X connect 20 3 7 0;
#X connect 20 4 8 0;
#X connect 20 4 9 0;
#X connect 20 5 10 0;
#X connect 20 6 21 0;
#X connect 21 0 11 0;
#X connect 21 1 12 0;
#X connect 21 2 13 0;
#X connect 21 3 14 0;
#X connect 21 4 15 0;
#X connect 21 5 16 0;
#X connect 21 6 17 0;
#X connect 21 7 18 0;
#X connect 21 8 19 0;
#X restore 12 239 pd ACT_____________;
#N canvas 25 90 449 455 MOD_INPUT_______ 0;
#X obj 41 12 inlet;
#X obj 43 264 specific.modparse 1;
#X obj 64 241 specific.modparse 2;
#X obj 41 56 route f1 f2 f3 f4 f5 f6 f7 f8;
#X obj 101 219 specific.modparse 3;
#X obj 122 196 specific.modparse 4;
#X obj 146 174 specific.modparse 5;
#X obj 167 151 specific.modparse 6;
#X obj 204 129 specific.modparse 7;
#X obj 225 106 specific.modparse 8;
#X obj 270 348 t a;
#X obj 392 418 outlet;
#X obj 41 33 route modularinput\$1;
#X obj 270 369 s \$0-mod-routing;
#X connect 0 0 12 0;
#X connect 1 0 10 0;
#X connect 2 0 10 0;
#X connect 3 0 1 0;
#X connect 3 1 2 0;
#X connect 3 2 4 0;
#X connect 3 3 5 0;
#X connect 3 4 6 0;
#X connect 3 5 7 0;
#X connect 3 6 8 0;
#X connect 3 7 9 0;
#X connect 3 8 11 0;
#X connect 4 0 10 0;
#X connect 5 0 10 0;
#X connect 6 0 10 0;
#X connect 7 0 10 0;
#X connect 8 0 10 0;
#X connect 9 0 10 0;
#X connect 10 0 13 0;
#X connect 12 0 3 0;
#X restore 12 195 pd MOD_INPUT_______;
#X obj 320 243 mod 128;
#X obj 332 437 r \$0-mod-routing;
#X obj 332 458 outlet;
#X connect 1 0 23 0;
#X connect 2 0 35 0;
#X connect 3 0 2 1;
#X connect 4 0 2 2;
#X connect 6 0 5 0;
#X connect 7 0 9 0;
#X connect 8 0 9 1;
#X connect 9 0 2 0;
#X connect 11 0 10 0;
#X connect 12 0 13 0;
#X connect 13 0 15 0;
#X connect 15 0 14 0;
#X connect 15 0 29 0;
#X connect 16 0 18 0;
#X connect 18 0 19 0;
#X connect 19 0 25 0;
#X connect 20 0 8 0;
#X connect 20 1 3 0;
#X connect 20 2 4 0;
#X connect 20 3 22 0;
#X connect 21 0 20 0;
#X connect 22 0 35 1;
#X connect 23 0 24 0;
#X connect 25 0 26 0;
#X connect 26 0 27 0;
#X connect 27 0 34 0;
#X connect 28 0 16 0;
#X connect 30 0 29 0;
#X connect 31 0 29 0;
#X connect 31 0 14 0;
#X connect 32 0 33 0;
#X connect 34 0 32 0;
#X connect 35 0 1 0;
#X connect 36 0 37 0;
