#N canvas 478 23 962 855 10;
#X obj 43 42 inlet;
#X text 160 38 \$1 = instance;
#X text 157 60 \$2 = \$0;
#X obj 43 302 s \$2-master-amp-gui;
#X text 157 12 Receive and parse OSC messages from synth;
#X obj 455 272 pack f f;
#X obj 455 318 s to-o-s-c-interface;
#X obj 455 295 oscformat op1freqwave\$1;
#X obj 35 418 pack f f;
#X obj 35 464 s to-o-s-c-interface;
#X obj 37 343 route /formuls/op2freqO /formuls/op2depthO /formuls/noiseO
/formuls/noisefilterfreqO;
#X obj 488 353 route /formuls/attackO /formuls/decayO /formuls/sustainO
/formuls/releaseO /formuls/monophonicO;
#X obj 35 441 oscformat op2freqdepth\$1;
#X obj 209 419 pack f f;
#X obj 209 465 s to-o-s-c-interface;
#X obj 209 442 oscformat noise\$1;
#X obj 546 276 s to-o-s-c-interface;
#X obj 546 253 oscformat op1sliderange\$1;
#X obj 604 230 s to-o-s-c-interface;
#X obj 604 207 oscformat op1slidetime\$1;
#X obj 41 814 pack f f;
#X obj 41 860 s to-o-s-c-interface;
#X obj 41 837 oscformat amfreqdepth\$1;
#X obj 122 813 s to-o-s-c-interface;
#X obj 173 763 s to-o-s-c-interface;
#X obj 173 740 oscformat saturation\$1;
#X obj 203 716 s to-o-s-c-interface;
#X obj 203 693 oscformat filtercutoff\$1;
#X obj 247 669 s to-o-s-c-interface;
#X obj 247 646 oscformat filterresonance\$1;
#X obj 294 620 s to-o-s-c-interface;
#X obj 294 597 oscformat bitcrush\$1;
#X obj 330 574 s to-o-s-c-interface;
#X obj 331 550 oscformat pitchshift\$1;
#X obj 103 282 s to-o-s-c-interface;
#X obj 103 259 oscformat panning\$1;
#X obj 42 498 route /formuls/amfreqO /formuls/amdepthO /formuls/amwaveO
/formuls/saturationO /formuls/filtercutoffO /formuls/filterresonanceO
/formuls/bitcrushO /formuls/pitchshiftO;
#X obj 43 86 route masterampO /formuls/panningO envelopereleaseO envelopedepthO
envelopesideO;
#X obj 537 732 s to-o-s-c-interface;
#X obj 537 709 oscformat delaysend\$1;
#X obj 627 686 s to-o-s-c-interface;
#X obj 627 663 oscformat delaytime\$1;
#X obj 716 640 s to-o-s-c-interface;
#X obj 716 617 oscformat delayfeedback\$1;
#X obj 538 574 route /formuls/delaysendO /formuls/delaytimeO /formuls/delayfeedbackO
;
#X obj 658 188 s to-o-s-c-interface;
#X obj 658 165 oscformat extmod\$1;
#X obj 473 249 t b f;
#X obj 59 794 t b f;
#X obj 54 394 t b f;
#X obj 227 398 t b f;
#N canvas 171 427 680 327 VOICE_PITCH_READ__ 0;
#X obj 29 247 s formuls\$1;
#X obj 49 115 r formuls\$1;
#X obj 49 136 route /formuls/seqread;
#X obj 49 157 mod 2;
#X obj 49 178 sel 0;
#X msg 163 221 /formuls/voicenumberO;
#X obj 163 196 metro 10;
#X msg 29 221 /formuls/op1pitchO\$1;
#X obj 29 201 f;
#X obj 163 175 loadbang;
#X obj 356 239 ftom;
#X obj 29 84 change;
#X obj 29 62 route /formuls/voicenumberO;
#X obj 285 100 route /formuls/op1pitchO0 /formuls/op1pitchO1 /formuls/op1pitchO2
/formuls/op1pitchO3 /formuls/op1pitchO4 /formuls/op1pitchO5 /formuls/op1pitchO6
/formuls/op1pitchO7 /formuls/op1pitchO8 /formuls/op1pitchO9 /formuls/op1pitchO10
/formuls/op1pitchO11 /formuls/op1pitchO12 /formuls/op1pitchO13 /formuls/op1pitchO14
/formuls/op1pitchO15;
#X obj 29 20 inlet;
#X obj 607 246 outlet;
#X obj 356 288 print formuls \$1 Pitch:;
#X obj 356 261 pack f f;
#X obj 356 211 t a a;
#X obj 233 166 tgl 15 0 empty empty empty 17 7 0 10 -262144 -1 -1 1
1;
#X connect 1 0 2 0;
#X connect 2 0 3 0;
#X connect 3 0 4 0;
#X connect 4 0 8 0;
#X connect 5 0 0 0;
#X connect 6 0 5 0;
#X connect 7 0 0 0;
#X connect 8 0 7 0;
#X connect 9 0 6 0;
#X connect 10 0 17 0;
#X connect 11 0 8 0;
#X connect 12 0 11 0;
#X connect 12 1 13 0;
#X connect 13 0 18 0;
#X connect 13 1 18 0;
#X connect 13 2 18 0;
#X connect 13 3 18 0;
#X connect 13 4 18 0;
#X connect 13 5 18 0;
#X connect 13 6 18 0;
#X connect 13 7 18 0;
#X connect 13 8 18 0;
#X connect 13 9 18 0;
#X connect 13 10 18 0;
#X connect 13 11 18 0;
#X connect 13 12 18 0;
#X connect 13 13 18 0;
#X connect 13 14 18 0;
#X connect 13 15 18 0;
#X connect 13 16 15 0;
#X connect 14 0 12 0;
#X connect 17 0 16 0;
#X connect 18 0 10 0;
#X connect 18 1 17 1;
#X connect 19 0 6 0;
#X restore 537 781 pd VOICE_PITCH_READ__;
#X obj 455 75 route /formuls/op1freqO /formuls/waveshapeO /formuls/op1sliderangeO
/formuls/op1slidetimeO /formuls/extmodulationO /formuls/genrangeO;
#X obj 680 145 s to-o-s-c-interface;
#X obj 681 122 oscformat genrange\$1;
#X obj 122 790 oscformat amwave\$1;
#X obj 486 546 s to-o-s-c-interface;
#X obj 486 523 oscformat attack\$1;
#X obj 553 504 s to-o-s-c-interface;
#X obj 553 481 oscformat decay\$1;
#X obj 621 460 s to-o-s-c-interface;
#X obj 621 437 oscformat sustain\$1;
#X obj 687 414 s to-o-s-c-interface;
#X obj 687 391 oscformat release\$1;
#X obj 752 460 s to-o-s-c-interface;
#X obj 752 437 oscformat monophonic\$1;
#X obj 164 239 s to-o-s-c-interface;
#X obj 164 216 oscformat enveloperelease\$1;
#X obj 224 196 s to-o-s-c-interface;
#X obj 224 173 oscformat envelopedepth\$1;
#X obj 285 150 s to-o-s-c-interface;
#X obj 285 127 oscformat envelopeside\$1;
#X connect 0 0 37 0;
#X connect 5 0 7 0;
#X connect 7 0 6 0;
#X connect 8 0 12 0;
#X connect 10 0 8 0;
#X connect 10 1 49 0;
#X connect 10 2 13 0;
#X connect 10 3 50 0;
#X connect 10 4 11 0;
#X connect 11 0 57 0;
#X connect 11 1 59 0;
#X connect 11 2 61 0;
#X connect 11 3 63 0;
#X connect 11 4 65 0;
#X connect 11 5 36 0;
#X connect 12 0 9 0;
#X connect 13 0 15 0;
#X connect 15 0 14 0;
#X connect 17 0 16 0;
#X connect 19 0 18 0;
#X connect 20 0 22 0;
#X connect 22 0 21 0;
#X connect 25 0 24 0;
#X connect 27 0 26 0;
#X connect 29 0 28 0;
#X connect 31 0 30 0;
#X connect 33 0 32 0;
#X connect 35 0 34 0;
#X connect 36 0 20 0;
#X connect 36 1 48 0;
#X connect 36 2 55 0;
#X connect 36 3 25 0;
#X connect 36 4 27 0;
#X connect 36 5 29 0;
#X connect 36 6 31 0;
#X connect 36 7 33 0;
#X connect 36 8 44 0;
#X connect 37 0 3 0;
#X connect 37 1 35 0;
#X connect 37 2 67 0;
#X connect 37 3 69 0;
#X connect 37 4 71 0;
#X connect 37 5 52 0;
#X connect 39 0 38 0;
#X connect 41 0 40 0;
#X connect 43 0 42 0;
#X connect 44 0 39 0;
#X connect 44 1 41 0;
#X connect 44 2 43 0;
#X connect 44 3 51 0;
#X connect 46 0 45 0;
#X connect 47 0 5 0;
#X connect 47 1 5 1;
#X connect 48 0 20 0;
#X connect 48 1 20 1;
#X connect 49 0 8 0;
#X connect 49 1 8 1;
#X connect 50 0 13 0;
#X connect 50 1 13 1;
#X connect 52 0 5 0;
#X connect 52 1 47 0;
#X connect 52 2 17 0;
#X connect 52 3 19 0;
#X connect 52 4 46 0;
#X connect 52 5 54 0;
#X connect 52 6 10 0;
#X connect 54 0 53 0;
#X connect 55 0 23 0;
#X connect 57 0 56 0;
#X connect 59 0 58 0;
#X connect 61 0 60 0;
#X connect 63 0 62 0;
#X connect 65 0 64 0;
#X connect 67 0 66 0;
#X connect 69 0 68 0;
#X connect 71 0 70 0;
