#N canvas 733 62 611 778 10;
#X text 443 27 \$1 = \$0 \; \$2 = instance;
#X obj 46 147 fsynth~;
#X obj 38 342 flooper~;
#X obj 272 354 ffx~;
#X obj 32 579 fmix~;
#X obj 450 108 hradio 25 1 0 2 empty empty POST_PRE 0 -8 0 10 -262144
-1 -1 0;
#X obj 450 138 s \$0-fx-routing;
#X obj 69 189 throw~ \$0-fynth-1;
#X obj 92 169 s~ \$0-fynth-2;
#X obj 297 329 r~ \$0-fynth-2;
#X obj 284 305 catch~ \$0-fx-in 1;
#X obj 64 557 r~ \$0-fynth-2;
#X text 191 167 <- sends automrec trigger;
#X text 197 188 <- sends fsynth audio signal;
#X obj 91 318 catch~ \$0-flooper-in-1;
#X obj 297 378 s~ \$0-fx-out-1;
#X obj 42 515 catch~ \$0-fmix-in-1;
#X obj 218 95 s~ \$0-ext-feed;
#X obj 270 76 s~ \$0-adsr-trig;
#X obj 323 59 s~ \$0-env-fol;
#X obj 49 39 s \$0-formuls-param-in;
#X obj 46 83 r \$0-formuls-param-in;
#X obj 38 295 r \$0-formuls-param-in;
#X obj 272 280 r \$0-formuls-param-in;
#X obj 32 491 r \$0-formuls-param-in;
#X obj 31 708 r \$0-formuls-param-out;
#X obj 32 663 s \$0-formuls-param-out;
#X obj 38 386 s \$0-formuls-param-out;
#X obj 272 400 s \$0-formuls-param-out;
#X obj 46 210 s \$0-formuls-param-out;
#X obj 48 641 s~ \$2-l;
#X obj 64 621 s~ \$2-r;
#X obj 75 601 s~ \$2-m;
#X obj 69 104 r~ \$0-ext-feed;
#X obj 92 126 r~ \$0-adsr-trig;
#X obj 53 536 r~ \$0-env-fol;
#N canvas 0 23 450 300 ROUTING_1 0;
#N canvas 0 23 319 300 ROUTING 0;
#X obj 54 35 inlet~;
#X obj 55 224 outlet~;
#X obj 149 225 outlet~;
#X obj 167 31 inlet;
#X obj 73 126 == 0;
#X obj 55 200 *~;
#X obj 73 175 lop~ 200;
#X obj 167 154 sig~;
#X obj 149 202 *~;
#X obj 167 177 lop~ 200;
#X obj 73 152 sig~ 1;
#X connect 0 0 8 0;
#X connect 0 0 5 0;
#X connect 3 0 4 0;
#X connect 3 0 7 0;
#X connect 4 0 10 0;
#X connect 5 0 1 0;
#X connect 6 0 5 1;
#X connect 7 0 9 0;
#X connect 8 0 2 0;
#X connect 9 0 8 1;
#X connect 10 0 6 0;
#X restore 19 117 pd ROUTING;
#X obj 86 94 r \$0-fx-routing;
#X obj 19 70 catch~ \$0-fynth-1;
#X obj 86 140 throw~ \$0-fx-in-1;
#X obj 19 163 throw~ \$0-flooper-in-1;
#X text 103 119 <- first level FX pre-post flooper routing;
#X connect 0 0 4 0;
#X connect 0 1 3 0;
#X connect 1 0 0 1;
#X connect 2 0 0 0;
#X restore 43 251 pd ROUTING_1;
#N canvas 244 23 531 233 ROUTING_2 1;
#N canvas 0 23 319 300 ROUTING 0;
#X obj 54 35 inlet~;
#X obj 55 224 outlet~;
#X obj 149 225 outlet~;
#X obj 167 31 inlet;
#X obj 73 126 == 0;
#X obj 55 200 *~;
#X obj 73 175 lop~ 200;
#X obj 167 154 sig~;
#X obj 149 202 *~;
#X obj 167 177 lop~ 200;
#X obj 73 152 sig~ 1;
#X connect 0 0 8 0;
#X connect 0 0 5 0;
#X connect 3 0 4 0;
#X connect 3 0 7 0;
#X connect 4 0 10 0;
#X connect 5 0 1 0;
#X connect 6 0 5 1;
#X connect 7 0 9 0;
#X connect 8 0 2 0;
#X connect 9 0 8 1;
#X connect 10 0 6 0;
#X restore 280 95 pd ROUTING;
#N canvas 0 23 319 300 ROUTING 0;
#X obj 54 35 inlet~;
#X obj 55 224 outlet~;
#X obj 149 225 outlet~;
#X obj 167 31 inlet;
#X obj 73 126 == 0;
#X obj 55 200 *~;
#X obj 73 175 lop~ 200;
#X obj 167 154 sig~;
#X obj 149 202 *~;
#X obj 167 177 lop~ 200;
#X obj 73 152 sig~ 1;
#X connect 0 0 8 0;
#X connect 0 0 5 0;
#X connect 3 0 4 0;
#X connect 3 0 7 0;
#X connect 4 0 10 0;
#X connect 5 0 1 0;
#X connect 6 0 5 1;
#X connect 7 0 9 0;
#X connect 8 0 2 0;
#X connect 9 0 8 1;
#X connect 10 0 6 0;
#X restore 64 97 pd ROUTING;
#X obj 131 74 r \$0-fx-routing;
#X obj 347 74 r \$0-fx-routing;
#X obj 64 140 throw~ \$0-fx-in-1;
#X obj 64 53 catch~ \$0-flooper-out-1;
#X obj 347 118 throw~ \$0-flooper-in-1;
#X obj 280 52 r~ \$0-flooper-out-1;
#X obj 131 119 throw~ \$0-fmix-in-1;
#X obj 280 138 throw~ \$0-fmix-in-1;
#X connect 0 0 9 0;
#X connect 0 1 6 0;
#X connect 1 0 4 0;
#X connect 1 1 8 0;
#X connect 2 0 1 1;
#X connect 3 0 0 1;
#X connect 5 0 1 0;
#X connect 7 0 0 0;
#X restore 39 443 pd ROUTING_2;
#X text 136 444 <- 2nd level FX pre-post flooper routing;
#X text 140 250 <- 1st level FX pre-post flooper routing;
#X obj 49 16 specific.oscinparse \$2 \$1;
#X obj 218 40 specific.modroute~;
#X obj 31 730 specific.oscoutparse \$2 \$1;
#X obj 91 366 s~ \$0-flooper-out-1;
#X connect 1 0 29 0;
#X connect 1 1 7 0;
#X connect 1 2 8 0;
#X connect 2 0 27 0;
#X connect 2 1 43 0;
#X connect 3 0 28 0;
#X connect 3 1 15 0;
#X connect 4 0 26 0;
#X connect 4 1 30 0;
#X connect 4 1 32 0;
#X connect 4 2 31 0;
#X connect 4 2 32 0;
#X connect 5 0 6 0;
#X connect 9 0 3 2;
#X connect 10 0 3 1;
#X connect 11 0 4 3;
#X connect 14 0 2 1;
#X connect 16 0 4 1;
#X connect 21 0 1 0;
#X connect 22 0 2 0;
#X connect 23 0 3 0;
#X connect 24 0 4 0;
#X connect 25 0 42 0;
#X connect 33 0 1 1;
#X connect 34 0 1 2;
#X connect 35 0 4 2;
#X connect 40 0 20 0;
#X connect 40 1 41 0;
#X connect 41 0 17 0;
#X connect 41 1 18 0;
#X connect 41 2 19 0;
