#N canvas 173 592 319 244 10;
#X obj 27 92 route 1;
#X obj 27 10 inlet;
#X obj 91 72 r f-loadbang;
#X obj 27 162 - 1;
#X msg 160 102 7;
#X msg 27 67 \$3 \$2;
#X obj 27 206 s scale-root-note;
#X msg 91 94 1;
#X obj 27 43 flib.util.s2f;
#X obj 27 114 flib.util.s2f;
#X obj 27 184 flib.seq.automater \$1 \$1-scale-root-note;
#X connect 0 0 9 0;
#X connect 1 0 8 0;
#X connect 2 0 7 0;
#X connect 3 0 10 0;
#X connect 4 0 3 0;
#X connect 5 0 0 0;
#X connect 7 0 3 0;
#X connect 8 0 5 0;
#X connect 9 0 3 0;
#X connect 10 0 6 0;
