#N canvas 30 277 1187 537 12;
#X obj 19 18 inlet;
#X obj 18 128 specific.submodroute~ 1;
#X obj 18 202 throw~ \$0-out-1;
#X obj 97 179 throw~ \$0-out-2;
#X obj 176 157 throw~ \$0-out-3;
#X obj 19 42 s \$0-to-route;
#X obj 18 98 r \$0-to-route;
#X obj 299 205 throw~ \$0-out-1;
#X obj 378 182 throw~ \$0-out-2;
#X obj 457 160 throw~ \$0-out-3;
#X obj 299 101 r \$0-to-route;
#X obj 579 197 throw~ \$0-out-1;
#X obj 658 174 throw~ \$0-out-2;
#X obj 737 152 throw~ \$0-out-3;
#X obj 579 93 r \$0-to-route;
#X obj 860 200 throw~ \$0-out-1;
#X obj 939 177 throw~ \$0-out-2;
#X obj 1018 155 throw~ \$0-out-3;
#X obj 860 96 r \$0-to-route;
#X obj 299 131 specific.submodroute~ 2;
#X obj 579 123 specific.submodroute~ 3;
#X obj 860 126 specific.submodroute~ 4;
#X obj 20 341 throw~ \$0-out-1;
#X obj 99 318 throw~ \$0-out-2;
#X obj 178 296 throw~ \$0-out-3;
#X obj 20 237 r \$0-to-route;
#X obj 301 344 throw~ \$0-out-1;
#X obj 380 321 throw~ \$0-out-2;
#X obj 459 299 throw~ \$0-out-3;
#X obj 301 240 r \$0-to-route;
#X obj 581 336 throw~ \$0-out-1;
#X obj 660 313 throw~ \$0-out-2;
#X obj 739 291 throw~ \$0-out-3;
#X obj 581 232 r \$0-to-route;
#X obj 862 339 throw~ \$0-out-1;
#X obj 941 316 throw~ \$0-out-2;
#X obj 1020 294 throw~ \$0-out-3;
#X obj 862 235 r \$0-to-route;
#X obj 20 267 specific.submodroute~ 5;
#X obj 301 270 specific.submodroute~ 6;
#X obj 581 262 specific.submodroute~ 7;
#X obj 862 265 specific.submodroute~ 8;
#X obj 34 449 catch~ \$0-out-1;
#X obj 34 473 outlet~;
#X obj 152 475 outlet~;
#X obj 270 476 outlet~;
#X obj 152 451 catch~ \$0-out-2;
#X obj 270 452 catch~ \$0-out-3;
#X text 35 427 to extfeedback;
#X text 165 425 to ADSR trig;
#X text 275 427 to envelopefollower;
#X connect 0 0 5 0;
#X connect 1 0 2 0;
#X connect 1 1 3 0;
#X connect 1 2 4 0;
#X connect 6 0 1 0;
#X connect 10 0 19 0;
#X connect 14 0 20 0;
#X connect 18 0 21 0;
#X connect 19 0 7 0;
#X connect 19 1 8 0;
#X connect 19 2 9 0;
#X connect 20 0 11 0;
#X connect 20 1 12 0;
#X connect 20 2 13 0;
#X connect 21 0 15 0;
#X connect 21 1 16 0;
#X connect 21 2 17 0;
#X connect 25 0 38 0;
#X connect 29 0 39 0;
#X connect 33 0 40 0;
#X connect 37 0 41 0;
#X connect 38 0 22 0;
#X connect 38 1 23 0;
#X connect 38 2 24 0;
#X connect 39 0 26 0;
#X connect 39 1 27 0;
#X connect 39 2 28 0;
#X connect 40 0 30 0;
#X connect 40 1 31 0;
#X connect 40 2 32 0;
#X connect 41 0 34 0;
#X connect 41 1 35 0;
#X connect 41 2 36 0;
#X connect 42 0 43 0;
#X connect 46 0 44 0;
#X connect 47 0 45 0;
