#N canvas 39 501 309 122 10;
#X declare -path controlabstractions;
#X declare -path externals;
#X obj 77 9 cnv 15 148 60 empty empty FORMULS 33 29 0 20 #c4fcc4 #0c4410 0;
#N canvas 42 646 268 182 TRIPES_______________ 0;
#N canvas 172 378 432 392 OPEN_STAGE_CONTROL_RECEIVE_ 0;
#X obj 36 86 oscparse;
#X obj 36 109 list trim;
#X obj 36 18 loadbang;
#X msg 36 338 \; pd quit;
#X obj 36 315 del 500;
#X msg 49 273 pd quit;
#X obj 49 294 s to-faust;
#X obj 150 323 tgl 15 0 empty empty empty 17 7 0 10 #fcfcfc #000000 #000000 0 1;
#X obj 150 344 s inter-act-overide;
#N canvas 47 74 450 300 INTERFACE_ACTIVE_MESSAGE_SEND 0;
#X obj 193 151 i;
#X obj 219 151 + 1;
#X obj 46 114 t f b;
#X obj 46 73 route root;
#X obj 243 242 array get interface-active;
#X obj 193 172 mod 2;
#X obj 46 226 array define interface-active 2;
#X obj 46 204 tabwrite interface-active;
#X obj 243 200 sel 1;
#X obj 243 221 del 2;
#X obj 243 263 s inter-act;
#X obj 46 94 - 1;
#X obj 46 16 inlet;
#X connect 0 0 1 0;
#X connect 0 0 5 0;
#X connect 1 0 0 1;
#X connect 2 0 7 0;
#X connect 2 1 0 0;
#X connect 3 0 11 0;
#X connect 4 0 10 0;
#X connect 5 0 7 1;
#X connect 5 0 8 0;
#X connect 8 0 9 0;
#X connect 9 0 4 0;
#X connect 11 0 2 0;
#X connect 12 0 3 0;
#X restore 81 237 pd INTERFACE_ACTIVE_MESSAGE_SEND;
#X obj 36 63 netreceive -u -b;
#X obj 36 152 route pd GET oscmonitor;
#X obj 171 175 s o-s-c-messages;
#X text 275 174 <- parameter messages;
#X obj 126 200 s OSC-monitor;
#X msg 36 40 listen 9000;
#X connect 0 0 1 0;
#X connect 1 0 11 0;
#X connect 2 0 15 0;
#X connect 4 0 3 0;
#X connect 5 0 6 0;
#X connect 7 0 8 0;
#X connect 10 0 0 0;
#X connect 11 0 4 0;
#X connect 11 0 5 0;
#X connect 11 1 9 0;
#X connect 11 2 14 0;
#X connect 11 3 12 0;
#X connect 15 0 10 0;
#X restore 36 49 pd OPEN_STAGE_CONTROL_RECEIVE_;
#N canvas 59 109 288 247 INIT_&_DECLARE_____________ 0;
#X obj 65 100 loadbang;
#X msg 65 130 \; pd dsp 1 \;;
#N canvas 0 75 415 248 INIT_PARAMETER_SET 0;
#X obj 62 153 s resetglobal;
#X obj 62 60 loadbang;
#X msg 62 122 1;
#X obj 62 81 del 5000;
#X msg 95 124 0;
#X obj 95 101 del 10;
#X msg 159 132 110;
#X obj 159 153 s \$0-bpm;
#X connect 1 0 3 0;
#X connect 1 0 6 0;
#X connect 2 0 0 0;
#X connect 3 0 2 0;
#X connect 3 0 5 0;
#X connect 4 0 0 0;
#X connect 5 0 4 0;
#X connect 6 0 7 0;
#X restore 64 171 pd INIT_PARAMETER_SET;
#X obj 66 37 declare -path controlabstractions;
#X obj 66 57 declare -path externals;
#X connect 0 0 1 0;
#X restore 36 30 pd INIT_&_DECLARE_____________;
#N canvas 353 501 251 178 FORMULS_MESSAGES___________ 0;
#X obj 78 42 f.formuls \$0 1;
#X obj 78 62 f.formuls \$0 2;
#X obj 78 82 f.formuls \$0 3;
#X obj 78 102 f.formuls \$0 4;
#X obj 78 122 f.formuls \$0 5;
#X obj 78 142 f.formuls \$0 6;
#X restore 36 106 pd FORMULS_MESSAGES___________;
#N canvas 281 723 508 262 O-S-C_&_FORMULS_SEND_______ 0;
#X obj 33 24 r to-o-s-c-interface;
#X obj 33 73 list prepend send;
#X obj 33 94 list trim;
#X obj 214 35 r to-faust;
#X obj 214 59 list prepend send;
#X obj 214 80 list trim;
#X msg 310 177 disconnect;
#X obj 214 225 tgl 15 0 empty empty empty 17 7 0 10 #fcfcfc #000000 #000000 0 1;
#X obj 236 110 loadbang;
#X obj 236 131 del 2000;
#N canvas 0 111 225 212 GET_INTERFACE 0;
#X obj 38 106 oscformat GET;
#X obj 38 86 list;
#X obj 38 147 outlet;
#X obj 38 43 r master-gui-update-throttle;
#X msg 38 64 127.0.0.1:9000 root;
#X connect 0 0 2 0;
#X connect 1 0 0 0;
#X connect 3 0 4 0;
#X connect 4 0 1 0;
#X restore 49 46 pd GET_INTERFACE;
#N canvas 122 390 249 300 CONNECT___ 0;
#X msg 78 133 disconnect;
#X obj 59 65 sel 1 0;
#X obj 68 88 loadbang;
#X obj 59 35 tgl 15 1 empty empty empty 17 7 0 10 #fcfcfc #000000 #000000 1 1;
#X obj 59 260 outlet;
#X msg 59 111 connect 127.0.0.1 9001;
#X connect 0 0 4 0;
#X connect 1 0 5 0;
#X connect 1 1 0 0;
#X connect 2 0 5 0;
#X connect 3 0 1 0;
#X connect 5 0 4 0;
#X restore 50 137 pd CONNECT___;
#X obj 290 15 r \$0-master-bus-fx;
#X obj 290 36 list prepend fmasterbusfx;
#X obj 214 204 netsend -u;
#X obj 33 162 netsend -u -b;
#X msg 234 152 connect 127.0.0.1 51984;
#X connect 0 0 1 0;
#X connect 1 0 2 0;
#X connect 2 0 15 0;
#X connect 3 0 4 0;
#X connect 4 0 5 0;
#X connect 5 0 14 0;
#X connect 6 0 14 0;
#X connect 8 0 9 0;
#X connect 9 0 16 0;
#X connect 10 0 1 0;
#X connect 11 0 15 0;
#X connect 12 0 13 0;
#X connect 13 0 4 0;
#X connect 14 0 7 0;
#X connect 16 0 14 0;
#X restore 36 126 pd O-S-C_&_FORMULS_SEND_______;
#N canvas 21 335 291 114 TIMING_____________________ 0;
#N canvas 255 234 550 214 AUTOMATER_TIMING 0;
#X obj 126 105 loadbang;
#X obj 126 142 metro 10;
#X obj 32 40 inlet;
#X obj 32 121 change;
#X obj 32 142 t b;
#X obj 32 163 s masterClock;
#X obj 331 164 s master-gui-update-throttle;
#X obj 126 164 s master-param-update-throttle;
#X obj 331 142 metro 40;
#X text 394 140 25fps;
#X obj 32 100 i;
#X connect 0 0 1 0;
#X connect 0 0 8 0;
#X connect 1 0 7 0;
#X connect 2 0 10 0;
#X connect 3 0 4 0;
#X connect 4 0 5 0;
#X connect 8 0 6 0;
#X connect 10 0 3 0;
#X restore 81 56 pd AUTOMATER_TIMING;
#N canvas 616 298 422 416 SEQUENCER_TIMING 0;
#X obj 145 325 outlet;
#X obj 44 27 r \$0-bpm;
#X obj 44 64 t f f;
#X floatatom 145 275 5 0 0 1 beat_time - - 0;
#X obj 166 299 s link;
#X obj 71 208 abl_link~ 1 0 4 110;
#X msg 71 186 tempo \$1;
#X obj 145 254 spigot 1;
#X obj 208 193 r master-seq-on-off;
#X msg 44 249 60000 \$1;
#X obj 44 270 /;
#X obj 44 291 * 16;
#X obj 44 312 s recordtime;
#X obj 71 105 f;
#X obj 71 165 change;
#X obj 109 38 i;
#X obj 109 59 change;
#X obj 109 80 t b;
#X obj 109 17 r link;
#X obj 71 144 / 1;
#X obj 235 237 sel 1;
#X obj 208 216 t f f;
#X msg 235 258 reset 0 0;
#X obj 86 124 r \$0-bpm-half-time;
#X connect 1 0 2 0;
#X connect 2 0 9 0;
#X connect 2 1 13 0;
#X connect 3 0 4 0;
#X connect 3 0 0 0;
#X connect 5 2 7 0;
#X connect 6 0 5 0;
#X connect 7 0 3 0;
#X connect 8 0 21 0;
#X connect 9 0 10 0;
#X connect 10 0 11 0;
#X connect 11 0 12 0;
#X connect 13 0 19 0;
#X connect 14 0 6 0;
#X connect 15 0 16 0;
#X connect 16 0 17 0;
#X connect 17 0 13 0;
#X connect 18 0 15 0;
#X connect 19 0 14 0;
#X connect 20 0 22 0;
#X connect 21 0 7 1;
#X connect 21 1 20 0;
#X connect 22 0 5 0;
#X connect 23 0 19 1;
#X restore 81 32 pd SEQUENCER_TIMING;
#X connect 1 0 0 0;
#X restore 36 87 pd TIMING_____________________;
#N canvas 301 281 242 132 GLOBAL_OSC_MESSAGE_PARSE___ 0;
#N canvas 296 360 296 306 GLOBAL_MESSAGES_RECEIVE___ 0;
#X obj 65 264 outlet;
#X obj 78 84 spigot 0;
#X obj 123 62 r OSC-monitor;
#X obj 63 38 r o-s-c-messages;
#N canvas 536 38 576 404 MASTER_AMP_&_CONTROLS 0;
#X obj 312 181 s master-noise;
#X obj 312 138 f.seq.automater \$0 \$0-master-noise;
#X obj 312 160 f.util.rescale 2.7 1 0;
#X obj 362 109 s resetglobal;
#X obj 112 295 s automateRecord;
#X obj 112 272 tgl 15 0 empty empty empty 17 7 0 10 #fcfcfc #000000 #000000 0 1;
#X obj 162 266 s xglobal;
#X obj 212 238 s yglobal;
#X obj 62 22 inlet;
#X obj 262 208 s quantiseglobal;
#X obj 62 73 route masteramp recordglobal xglobal yglobal quantiseglobal noiseglobal resetglobal;
#X msg 62 328 masteramp \$1;
#X obj 62 352 s \$0-master-bus-fx;
#X connect 1 0 2 0;
#X connect 2 0 0 0;
#X connect 5 0 4 0;
#X connect 8 0 10 0;
#X connect 10 0 11 0;
#X connect 10 1 5 0;
#X connect 10 2 6 0;
#X connect 10 3 7 0;
#X connect 10 4 9 0;
#X connect 10 5 1 0;
#X connect 10 6 3 0;
#X connect 11 0 12 0;
#X restore 63 204 pd MASTER_AMP_&_CONTROLS;
#N canvas 643 441 404 323 PARAMETER_EVOLVE_____ 0;
#X obj 19 149 s evolution-active;
#X obj 246 102 s jump-active;
#X obj 170 102 s set-value;
#X obj 19 25 inlet;
#X obj 343 269 outlet;
#X obj 94 104 * 1000;
#X obj 94 125 s evolution-time;
#X obj 19 75 route evolveglobal evolvetime set-value jump-active;
#X connect 3 0 7 0;
#X connect 5 0 6 0;
#X connect 7 0 0 0;
#X connect 7 1 5 0;
#X connect 7 2 2 0;
#X connect 7 3 1 0;
#X connect 7 4 4 0;
#X restore 63 181 pd PARAMETER_EVOLVE_____;
#N canvas 225 536 250 229 MASTER_BUS_FX________ 0;
#X obj 23 15 inlet;
#X obj 23 173 outlet;
#N canvas 126 144 1117 810 ROLLINGFREEZER________ 0;
#X msg 77 347 rollingfreezerfreeze \$1;
#X obj 259 208 s \$0-master-bus-fx;
#X obj 168 315 s \$0-master-bus-fx;
#X obj 77 368 s \$0-master-bus-fx;
#X msg 168 294 rollingfreezerinput \$1 \$2;
#X obj 168 209 unpack s f;
#X obj 168 231 list fromsymbol;
#X obj 168 251 f.util.asci2char;
#X obj 168 272 pack f f;
#X obj 77 18 inlet;
#X obj 973 737 outlet;
#X msg 468 654 rollingfreezertranspose \$1;
#X msg 698 292 rollingfreezerdrylevel \$1;
#X obj 698 312 s \$0-master-bus-fx;
#X obj 468 676 s \$0-master-bus-fx;
#X obj 468 608 f.seq.automater \$0 \$0-rollingfreezertranspose 0.5;
#X obj 698 241 f.seq.automater \$0 \$0-rollingfreezerdrylevel 1;
#X msg 481 515 chaos \$1;
#X msg 583 475 rollingfreezerwetlevel \$1;
#X obj 583 496 s \$0-master-bus-fx;
#X obj 583 430 f.seq.automater \$0 \$0-rollingfreezerwetlevel 0;
#X msg 596 336 chaos \$1;
#X msg 707 152 chaos \$1;
#X obj 498 580 f.util.lfoparse x \$0 rollingfreezertranspose;
#X obj 607 406 f.util.lfoparse x \$0 rollingfreezerwetlevel;
#X obj 720 217 f.util.lfoparse x \$0 rollingfreezerdrylevel;
#X obj 839 139 s \$0-freeze-lfo;
#X obj 498 557 r \$0-freeze-lfo;
#X obj 492 536 f.util.trigslewmessage \$0;
#X obj 607 385 r \$0-freeze-lfo;
#X obj 720 197 r \$0-freeze-lfo;
#X obj 606 357 f.util.trigslewmessage \$0;
#X obj 717 173 f.util.trigslewmessage \$0;
#X msg 259 187 rollingfreezerrepeatersend \$1;
#X obj 77 93 route rollingfreezerfreeze rollingfreezerinput rollingfreezerrepeatersend;
#X obj 259 139 f.seq.automater \$0 \$0-rollingfreezerrepeatersend 0;
#X obj 407 162 s \$0-rollingfreezer-repeater-send;
#X obj 638 654 i;
#X obj 638 675 s \$0-rollingfreezer-transpose;
#X obj 719 452 s \$0-rollingfreezer-wet-level;
#X obj 834 268 s \$0-rollingfreezer-dry-level;
#X obj 468 483 / 6;
#X obj 638 633 * 6;
#X obj 779 564 r resetglobal;
#X msg 779 585 reset bang;
#X obj 878 389 r resetglobal;
#X msg 878 410 reset bang;
#X obj 994 199 r resetglobal;
#X msg 994 220 reset bang;
#X obj 452 185 r resetglobal;
#X msg 452 206 reset bang;
#X obj 220 146 tgl 15 0 empty empty empty 17 7 0 10 #fcfcfc #000000 #000000 0 1;
#X obj 472 46 route rollingfreezertranspose rollingfreezertransposechaos rollingfreezerwetlevel rollingfreezerwetlevelchaos rollingfreezerdrylevel rollingfreezerdrylevelchaos rollingfreezerfeedback;
#X msg 898 60 rollingfreezerfeedback \$1;
#X obj 898 85 s \$0-master-bus-fx;
#X connect 0 0 3 0;
#X connect 4 0 2 0;
#X connect 5 0 6 0;
#X connect 5 1 8 1;
#X connect 6 0 7 0;
#X connect 7 0 8 0;
#X connect 8 0 4 0;
#X connect 9 0 34 0;
#X connect 11 0 14 0;
#X connect 12 0 13 0;
#X connect 15 0 11 0;
#X connect 15 1 42 0;
#X connect 16 0 12 0;
#X connect 16 1 40 0;
#X connect 17 0 15 0;
#X connect 18 0 19 0;
#X connect 20 0 18 0;
#X connect 20 1 39 0;
#X connect 21 0 20 0;
#X connect 22 0 16 0;
#X connect 23 1 15 0;
#X connect 24 1 20 0;
#X connect 25 1 16 0;
#X connect 27 0 23 0;
#X connect 28 0 15 0;
#X connect 29 0 24 0;
#X connect 30 0 25 0;
#X connect 31 0 20 0;
#X connect 32 0 16 0;
#X connect 33 0 1 0;
#X connect 34 0 0 0;
#X connect 34 1 5 0;
#X connect 34 2 51 0;
#X connect 34 2 35 0;
#X connect 34 3 52 0;
#X connect 35 0 33 0;
#X connect 35 1 36 0;
#X connect 37 0 38 0;
#X connect 41 0 15 0;
#X connect 42 0 37 0;
#X connect 43 0 44 0;
#X connect 44 0 15 0;
#X connect 45 0 46 0;
#X connect 46 0 20 0;
#X connect 47 0 48 0;
#X connect 48 0 16 0;
#X connect 49 0 50 0;
#X connect 50 0 35 0;
#X connect 52 0 41 0;
#X connect 52 1 17 0;
#X connect 52 2 20 0;
#X connect 52 3 21 0;
#X connect 52 4 16 0;
#X connect 52 5 22 0;
#X connect 52 6 53 0;
#X connect 52 7 26 0;
#X connect 52 7 10 0;
#X connect 53 0 54 0;
#X restore 23 92 pd ROLLINGFREEZER________;
#N canvas 439 163 500 733 REPEATER______________ 0;
#X obj 34 21 inlet;
#X obj 427 691 outlet;
#X msg 34 617 parallel \$1;
#X obj 71 585 s \$0-master-bus-fx;
#X obj 34 638 s \$0-master-bus-fx;
#X msg 109 485 capture \$1;
#X msg 196 462 beatdivision \$1;
#N canvas 360 421 686 457 REPEATER____ 0;
#X obj 58 39 inlet;
#X obj 58 170 sel 0 1;
#X msg 71 273 stop;
#X obj 58 79 fudiformat;
#X obj 58 103 fudiparse;
#X obj 58 296 del 4;
#X msg 58 317 0;
#X msg 92 317 1;
#X obj 58 338 change;
#X obj 58 379 outlet;
#X obj 253 220 sel 1;
#X msg 253 241 1;
#X obj 294 221 sel 1;
#X obj 335 220 sel 1;
#X obj 376 221 sel 1;
#X obj 417 220 sel 1;
#X msg 294 242 2;
#X msg 335 241 3;
#X msg 376 242 4;
#X msg 417 241 5;
#X obj 268 384 outlet;
#X obj 122 172 r \$0-repeater-hold;
#X obj 58 219 spigot 1;
#X obj 74 244 t b b;
#X obj 77 195 spigot 1;
#X obj 136 196 sel 1;
#X obj 58 127 route 0 1 2 3 4 5 6;
#X obj 462 219 sel 1;
#X obj 503 218 sel 1;
#X msg 462 240 6;
#X msg 503 239 7;
#X connect 0 0 3 0;
#X connect 1 0 22 0;
#X connect 1 1 24 0;
#X connect 2 0 5 0;
#X connect 3 0 4 0;
#X connect 4 0 26 0;
#X connect 5 0 6 0;
#X connect 6 0 8 0;
#X connect 7 0 8 0;
#X connect 8 0 9 0;
#X connect 10 0 11 0;
#X connect 11 0 20 0;
#X connect 12 0 16 0;
#X connect 13 0 17 0;
#X connect 14 0 18 0;
#X connect 15 0 19 0;
#X connect 16 0 20 0;
#X connect 17 0 20 0;
#X connect 18 0 20 0;
#X connect 19 0 20 0;
#X connect 21 0 22 1;
#X connect 21 0 24 1;
#X connect 21 0 25 0;
#X connect 22 0 5 0;
#X connect 23 0 2 0;
#X connect 23 1 7 0;
#X connect 24 0 23 0;
#X connect 25 0 6 0;
#X connect 26 0 1 0;
#X connect 26 0 10 0;
#X connect 26 1 1 0;
#X connect 26 1 12 0;
#X connect 26 2 1 0;
#X connect 26 2 13 0;
#X connect 26 3 1 0;
#X connect 26 3 14 0;
#X connect 26 4 1 0;
#X connect 26 4 15 0;
#X connect 26 5 27 0;
#X connect 26 5 1 0;
#X connect 26 6 28 0;
#X connect 26 6 1 0;
#X connect 27 0 29 0;
#X connect 28 0 30 0;
#X connect 29 0 20 0;
#X connect 30 0 20 0;
#X restore 109 437 pd REPEATER____;
#X obj 109 506 s \$0-master-bus-fx;
#X obj 196 483 s \$0-master-bus-fx;
#X obj 71 543 f.seq.automater \$0 \$0-repeaterlevel 1;
#X obj 147 388 == 0;
#X obj 147 409 s \$0-repeater-hold;
#X obj 180 565 s \$0-repeater-level-gui;
#X obj 184 376 s \$0-master-bus-fx;
#N canvas 822 512 527 375 REPEATER_RANDOM__ 0;
#N canvas 63 231 699 723 RANDOM_BEAT_DIV___ 0;
#X obj 67 49 r link;
#X obj 67 120 i;
#X obj 67 141 change;
#X obj 67 162 bng 15 250 50 0 empty empty empty 17 7 0 10 #fcfcfc #000000 #000000;
#X obj 67 416 spigot;
#X msg 155 601 0;
#X msg 127 600 1;
#X obj 127 621 t a;
#X obj 155 33 inlet;
#X obj 155 84 t f f;
#X obj 155 576 sel 0;
#X obj 67 651 outlet;
#X obj 127 652 outlet;
#X obj 83 579 del 4;
#X obj 66 437 t f b b b;
#X msg 94 557 stop;
#X obj 154 430 spigot 1;
#X obj 215 392 r \$0-repeater-hold;
#X obj 173 542 spigot 1;
#X obj 108 464 random 100;
#X obj 108 488 moses 50;
#X obj 108 512 t b b b;
#X obj 67 181 f.gen.weighted 60 80;
#X obj 67 246 random 3;
#X obj 67 289 tabread \$0-repeater-beat-div;
#X obj 67 309 sel 1 0;
#X obj 67 267 t f f;
#X obj 67 337 f;
#X obj 475 320 array sum \$0-repeater-beat-div;
#X obj 475 341 > 0;
#X obj 475 362 sel 1;
#X obj 256 225 random 3;
#X obj 256 288 tabread \$0-repeater-beat-div;
#X obj 256 308 sel 1 0;
#X obj 256 246 t f f;
#X obj 256 336 f;
#X obj 443 278 tabread \$0-repeater-beat-div;
#X obj 443 298 sel 1 0;
#X obj 443 236 t f f;
#X obj 443 326 f;
#X msg 443 216 6;
#X obj 67 210 sel 0 1 2;
#X obj 67 358 + 1;
#X obj 256 357 + 4;
#X obj 67 378 t a;
#X obj 256 267 + 3;
#X obj 443 257 + 6;
#X connect 0 0 1 0;
#X connect 1 0 2 0;
#X connect 2 0 3 0;
#X connect 3 0 22 0;
#X connect 4 0 14 0;
#X connect 5 0 7 0;
#X connect 6 0 7 0;
#X connect 7 0 12 0;
#X connect 8 0 9 0;
#X connect 9 0 16 0;
#X connect 9 1 4 1;
#X connect 10 0 5 0;
#X connect 13 0 6 0;
#X connect 14 0 11 0;
#X connect 14 3 19 0;
#X connect 15 0 13 0;
#X connect 16 0 10 0;
#X connect 17 0 16 1;
#X connect 17 0 18 1;
#X connect 18 0 5 0;
#X connect 19 0 20 0;
#X connect 20 0 21 0;
#X connect 21 0 13 0;
#X connect 21 1 18 0;
#X connect 21 2 15 0;
#X connect 22 0 41 0;
#X connect 23 0 26 0;
#X connect 24 0 25 0;
#X connect 25 0 27 0;
#X connect 25 1 28 0;
#X connect 26 0 24 0;
#X connect 26 1 27 1;
#X connect 27 0 42 0;
#X connect 28 0 29 0;
#X connect 29 0 30 0;
#X connect 30 0 22 0;
#X connect 31 0 34 0;
#X connect 32 0 33 0;
#X connect 33 0 35 0;
#X connect 33 1 28 0;
#X connect 34 0 45 0;
#X connect 34 1 35 1;
#X connect 35 0 43 0;
#X connect 36 0 37 0;
#X connect 37 0 39 0;
#X connect 37 1 28 0;
#X connect 38 0 46 0;
#X connect 38 1 39 1;
#X connect 39 0 44 0;
#X connect 40 0 38 0;
#X connect 41 0 23 0;
#X connect 41 1 31 0;
#X connect 41 2 40 0;
#X connect 42 0 44 0;
#X connect 43 0 44 0;
#X connect 44 0 4 0;
#X connect 45 0 32 0;
#X connect 46 0 36 0;
#X restore 40 163 pd RANDOM_BEAT_DIV___;
#X obj 40 316 outlet;
#X obj 40 135 tgl 15 0 empty empty empty 17 7 0 10 #fcfcfc #000000 #000000 0 1;
#X obj 40 9 inlet;
#X msg 40 220 beatdivisionl \$1;
#X msg 163 219 capturel \$1;
#X msg 268 220 beatdivisionr \$1;
#X msg 391 221 capturer \$1;
#X obj 74 52 r master-seq-on-off;
#X obj 40 101 f;
#X obj 74 73 sel 0 1;
#X msg 74 94 0;
#N canvas 145 73 699 723 RANDOM_BEAT_DIV___ 0;
#X obj 67 69 r link;
#X obj 67 120 i;
#X obj 67 141 change;
#X obj 67 162 bng 15 250 50 0 empty empty empty 17 7 0 10 #fcfcfc #000000 #000000;
#X obj 67 416 spigot;
#X msg 155 601 0;
#X msg 127 600 1;
#X obj 127 621 t a;
#X obj 155 33 inlet;
#X obj 155 84 t f f;
#X obj 155 576 sel 0;
#X obj 67 651 outlet;
#X obj 127 652 outlet;
#X obj 83 579 del 4;
#X obj 66 437 t f b b b;
#X msg 94 557 stop;
#X obj 154 430 spigot 1;
#X obj 215 392 r \$0-repeater-hold;
#X obj 173 542 spigot 1;
#X obj 108 464 random 100;
#X obj 108 488 moses 50;
#X obj 108 512 t b b b;
#X obj 67 181 f.gen.weighted 60 80;
#X obj 67 246 random 3;
#X obj 67 289 tabread \$0-repeater-beat-div;
#X obj 67 309 sel 1 0;
#X obj 67 267 t f f;
#X obj 67 337 f;
#X obj 475 320 array sum \$0-repeater-beat-div;
#X obj 475 341 > 0;
#X obj 475 362 sel 1;
#X obj 256 225 random 3;
#X obj 256 288 tabread \$0-repeater-beat-div;
#X obj 256 308 sel 1 0;
#X obj 256 246 t f f;
#X obj 256 336 f;
#X obj 443 278 tabread \$0-repeater-beat-div;
#X obj 443 298 sel 1 0;
#X obj 443 236 t f f;
#X obj 443 326 f;
#X msg 443 216 6;
#X obj 67 210 sel 0 1 2;
#X obj 67 358 + 1;
#X obj 256 357 + 4;
#X obj 67 378 t a;
#X obj 256 267 + 3;
#X obj 443 257 + 6;
#X connect 0 0 1 0;
#X connect 1 0 2 0;
#X connect 2 0 3 0;
#X connect 3 0 22 0;
#X connect 4 0 14 0;
#X connect 5 0 7 0;
#X connect 6 0 7 0;
#X connect 7 0 12 0;
#X connect 8 0 9 0;
#X connect 9 0 16 0;
#X connect 9 1 4 1;
#X connect 10 0 5 0;
#X connect 13 0 6 0;
#X connect 14 0 11 0;
#X connect 14 3 19 0;
#X connect 15 0 13 0;
#X connect 16 0 10 0;
#X connect 17 0 16 1;
#X connect 17 0 18 1;
#X connect 18 0 5 0;
#X connect 19 0 20 0;
#X connect 20 0 21 0;
#X connect 21 0 13 0;
#X connect 21 1 18 0;
#X connect 21 2 15 0;
#X connect 22 0 41 0;
#X connect 23 0 26 0;
#X connect 24 0 25 0;
#X connect 25 0 27 0;
#X connect 25 1 28 0;
#X connect 26 0 24 0;
#X connect 26 1 27 1;
#X connect 27 0 42 0;
#X connect 28 0 29 0;
#X connect 29 0 30 0;
#X connect 30 0 22 0;
#X connect 31 0 34 0;
#X connect 32 0 33 0;
#X connect 33 0 35 0;
#X connect 33 1 28 0;
#X connect 34 0 45 0;
#X connect 34 1 35 1;
#X connect 35 0 43 0;
#X connect 36 0 37 0;
#X connect 37 0 39 0;
#X connect 37 1 28 0;
#X connect 38 0 46 0;
#X connect 38 1 39 1;
#X connect 39 0 44 0;
#X connect 40 0 38 0;
#X connect 41 0 23 0;
#X connect 41 1 31 0;
#X connect 41 2 40 0;
#X connect 42 0 44 0;
#X connect 43 0 44 0;
#X connect 44 0 4 0;
#X connect 45 0 32 0;
#X connect 46 0 36 0;
#X restore 268 163 pd RANDOM_BEAT_DIV___;
#X obj 402 191 spigot;
#X obj 279 195 spigot;
#X obj 296 39 r \$0-repeater-linked;
#X obj 268 132 spigot 1;
#X obj 219 148 f;
#X msg 238 128 0;
#X obj 238 107 sel 1 0;
#X obj 296 63 t f f f;
#X obj 313 108 == 0;
#X connect 0 0 4 0;
#X connect 0 0 14 0;
#X connect 0 1 5 0;
#X connect 0 1 13 0;
#X connect 2 0 0 0;
#X connect 2 0 17 0;
#X connect 3 0 9 0;
#X connect 4 0 1 0;
#X connect 5 0 1 0;
#X connect 6 0 1 0;
#X connect 7 0 1 0;
#X connect 8 0 10 0;
#X connect 9 0 2 0;
#X connect 10 0 11 0;
#X connect 10 1 9 0;
#X connect 11 0 2 0;
#X connect 12 0 6 0;
#X connect 12 1 7 0;
#X connect 13 0 7 0;
#X connect 14 0 6 0;
#X connect 15 0 20 0;
#X connect 16 0 12 0;
#X connect 17 0 12 0;
#X connect 18 0 12 0;
#X connect 19 0 18 0;
#X connect 19 1 17 0;
#X connect 20 0 19 0;
#X connect 20 1 21 0;
#X connect 20 2 14 1;
#X connect 20 2 13 1;
#X connect 21 0 16 1;
#X restore 184 354 pd REPEATER_RANDOM__;
#X obj 222 324 s \$0-master-bus-fx;
#X obj 222 218 unpack s f;
#X obj 222 240 list fromsymbol;
#X obj 222 260 f.util.asci2char;
#X obj 222 281 pack f f;
#X msg 222 303 repeaterinput \$1 \$2;
#N canvas 1309 247 345 275 beatdivprocessing 0;
#X obj 50 25 inlet;
#X obj 50 62 fudiformat;
#X obj 50 86 fudiparse;
#X obj 50 168 tabwrite \$0-repeater-beat-div;
#X msg 50 114 \$2 \$1;
#X obj 50 135 unpack f f;
#X obj 49 197 array define \$0-repeater-beat-div 7;
#X connect 0 0 1 0;
#X connect 1 0 2 0;
#X connect 2 0 4 0;
#X connect 4 0 5 0;
#X connect 5 0 3 0;
#X connect 5 1 3 1;
#X restore 260 192 pd beatdivprocessing;
#X msg 71 564 repeaterlevel \$1;
#X obj 297 165 s \$0-repeater-linked;
#X obj 34 59 route repeaterparallel repeaterlevel repeaterbeatdivision repeaterhold repeaterrandom repeaterinput repeaterbeatdivisionsactive repeaterlinked repeatermono;
#X obj 335 136 s \$0-master-bus-fx;
#X msg 335 114 repeatermono \$1;
#X connect 0 0 25 0;
#X connect 2 0 4 0;
#X connect 5 0 8 0;
#X connect 6 0 9 0;
#X connect 7 0 5 0;
#X connect 7 1 6 0;
#X connect 10 0 23 0;
#X connect 10 1 13 0;
#X connect 11 0 12 0;
#X connect 15 0 14 0;
#X connect 17 0 18 0;
#X connect 17 1 20 1;
#X connect 18 0 19 0;
#X connect 19 0 20 0;
#X connect 20 0 21 0;
#X connect 21 0 16 0;
#X connect 23 0 3 0;
#X connect 25 0 2 0;
#X connect 25 1 10 0;
#X connect 25 2 7 0;
#X connect 25 3 11 0;
#X connect 25 4 15 0;
#X connect 25 5 17 0;
#X connect 25 6 22 0;
#X connect 25 7 24 0;
#X connect 25 8 27 0;
#X connect 25 9 1 0;
#X connect 27 0 26 0;
#X restore 23 114 pd REPEATER______________;
#N canvas 880 60 640 677 REVERB_FILTER_LIMITER_ 0;
#X obj 23 19 inlet;
#X obj 23 490 f.seq.automater \$0 \$0-reverb-bypass;
#X obj 65 428 f.seq.automater \$0 \$0-reverb-limiter-send;
#X msg 23 511 reverbbypass \$1;
#X obj 23 532 s \$0-master-bus-fx;
#X obj 281 319 s \$0-master-bus-fx;
#X obj 234 390 s \$0-master-bus-fx;
#X obj 65 471 s \$0-master-bus-fx;
#X msg 234 369 drylimiterlevel \$1;
#X msg 281 298 limiterlevel \$1;
#X msg 65 450 reverblimiterlevel \$1;
#X obj 449 613 outlet;
#X obj 234 272 f.seq.automater \$0 \$0-limiter-level 0;
#X msg 234 303 1 \$1;
#X obj 234 324 -;
#X obj 277 249 s \$0-master-bus-fx;
#X obj 319 181 s \$0-master-bus-fx;
#X obj 234 347 f.seq.automater \$0 \$0-dry-limiter-level 1;
#X obj 23 74 route reverbbypassglobal reverblimitersend djfiltercutoff djfilterresonance drylimiterlevel limiterlevel digitaliseramount digitaliserlevel;
#X msg 277 228 digitaliseramount \$1;
#X msg 319 160 digitaliserlevel \$1;
#X obj 319 119 f.seq.automater \$0 \$0-digitaliser-level 0;
#X obj 319 140 pow 2.7;
#X obj 277 206 f.seq.automater \$0 \$0-digitaliser-amount 0;
#X obj 439 138 s \$0-digitaliser-level-gui;
#X obj 412 227 s \$0-digitaliser-amount-gui;
#X obj 387 298 s \$0-limiter-level-gui;
#X connect 0 0 18 0;
#X connect 1 0 3 0;
#X connect 2 0 10 0;
#X connect 3 0 4 0;
#X connect 8 0 6 0;
#X connect 9 0 5 0;
#X connect 10 0 7 0;
#X connect 12 0 13 0;
#X connect 12 0 9 0;
#X connect 12 1 26 0;
#X connect 13 0 14 0;
#X connect 14 0 17 0;
#X connect 17 0 8 0;
#X connect 18 0 1 0;
#X connect 18 1 2 0;
#X connect 18 5 12 0;
#X connect 18 6 23 0;
#X connect 18 7 21 0;
#X connect 18 8 11 0;
#X connect 19 0 15 0;
#X connect 20 0 16 0;
#X connect 21 0 22 0;
#X connect 21 1 24 0;
#X connect 22 0 20 0;
#X connect 23 0 19 0;
#X connect 23 1 25 0;
#X restore 23 69 pd REVERB_FILTER_LIMITER_;
#X connect 0 0 4 0;
#X connect 2 0 3 0;
#X connect 3 0 1 0;
#X connect 4 0 2 0;
#X restore 63 157 pd MASTER_BUS_FX________;
#N canvas 421 166 517 514 TEMPO_&_PITCH________ 0;
#X obj 107 364 s \$0-bpm;
#X obj 107 254 * 240;
#X obj 107 275 i;
#X obj 116 345 s bpmglobal;
#X obj 107 234 f.seq.automater \$0 \$0-bpm 1;
#X obj 126 323 s \$0-master-bus-fx;
#X obj 47 393 s master-seq-on-off;
#N canvas 492 360 359 518 pitch-gamut-parse 0;
#X obj 60 41 inlet;
#X obj 60 436 outlet;
#X obj 96 364 r \$0-pitch-process;
#N canvas 923 53 517 660 PROCESSING_____ 0;
#X obj 32 12 inlet;
#X obj 32 53 t b a;
#X obj 63 542 list length;
#X obj 63 584 s pitch-gamut-length;
#X obj 63 564 max 1;
#X obj 59 138 unpack f f;
#X obj 59 162 f;
#X obj 32 295 until;
#X obj 32 384 list store;
#X obj 32 320 f;
#X obj 59 320 + 1;
#X msg 72 294 0, f 2;
#X obj 32 341 t f f;
#X obj 71 446 f;
#X obj 32 262 t b b l b, f 12;
#X obj 50 512 list;
#X obj 100 445 del 1;
#X obj 71 467 list prepend;
#X obj 71 488 t a a;
#X obj 59 193 array set pre-pitch-gamut;
#X obj 32 240 array get pre-pitch-gamut;
#X obj 243 614 array define master-pitch-gamut 12;
#X obj 50 615 array set master-pitch-gamut;
#X obj 32 404 moses 0;
#X obj 136 67 loadbang;
#X obj 234 193 array define pre-pitch-gamut 12;
#X msg 32 364 get \$1 1;
#X obj 136 87 t b b b;
#X msg 175 107 0 0;
#X msg 136 155 1 2 3 4 5 6 7 8 9 10 11 12;
#X msg 155 130 0;
#X connect 0 0 1 0;
#X connect 1 0 20 0;
#X connect 1 1 5 0;
#X connect 2 0 4 0;
#X connect 4 0 3 0;
#X connect 5 0 6 0;
#X connect 5 1 19 1;
#X connect 6 0 19 0;
#X connect 7 0 9 0;
#X connect 8 0 23 0;
#X connect 8 1 7 1;
#X connect 8 1 16 0;
#X connect 9 0 10 0;
#X connect 9 0 12 0;
#X connect 10 0 9 1;
#X connect 11 0 9 1;
#X connect 12 0 26 0;
#X connect 12 1 13 1;
#X connect 13 0 17 0;
#X connect 14 0 7 0;
#X connect 14 1 11 0;
#X connect 14 2 8 1;
#X connect 14 3 17 1;
#X connect 15 0 2 0;
#X connect 15 0 22 0;
#X connect 16 0 15 0;
#X connect 17 0 18 0;
#X connect 18 0 15 1;
#X connect 18 1 17 1;
#X connect 20 0 14 0;
#X connect 23 1 13 0;
#X connect 24 0 27 0;
#X connect 26 0 8 0;
#X connect 27 0 29 0;
#X connect 27 1 30 0;
#X connect 27 2 28 0;
#X connect 30 0 19 1;
#X restore 96 390 pd PROCESSING_____;
#X obj 60 102 f.util.pitchactive \$0 1;
#X obj 60 123 f.util.pitchactive \$0 2;
#X obj 60 144 f.util.pitchactive \$0 3;
#X obj 60 165 f.util.pitchactive \$0 4;
#X obj 60 186 f.util.pitchactive \$0 5;
#X obj 60 207 f.util.pitchactive \$0 6;
#X obj 60 228 f.util.pitchactive \$0 7;
#X obj 60 249 f.util.pitchactive \$0 8;
#X obj 60 270 f.util.pitchactive \$0 9;
#X obj 60 291 f.util.pitchactive \$0 10;
#X obj 60 312 f.util.pitchactive \$0 11;
#X obj 60 333 f.util.pitchactive \$0 12;
#N canvas 763 89 455 473 PitchGamut 0;
#X obj 73 126 i;
#X obj 99 126 + 1;
#X msg 73 84 12;
#X obj 73 105 until;
#X msg 131 99 0;
#X obj 99 147 t f f;
#X obj 126 169 - 1;
#X obj 99 327 oscformat;
#X obj 99 196 pack f f;
#X msg 99 217 \$2 \$1;
#X msg 156 296 set pitchgamut\$1;
#X msg 99 295 \$1;
#X obj 121 358 s to-o-s-c-interface;
#X obj 73 39 loadbang;
#X obj 156 46 r resetglobal;
#X obj 156 67 t b b;
#X obj 73 60 del 2000;
#X obj 99 435 outlet;
#X obj 99 383 oscparse;
#X obj 99 238 unpack f f;
#X obj 156 266 t f b f;
#X msg 305 295 set pitchactive\$1;
#X msg 274 295 0;
#X obj 99 404 list trim;
#X connect 0 0 1 0;
#X connect 1 0 0 1;
#X connect 1 0 5 0;
#X connect 2 0 3 0;
#X connect 3 0 0 0;
#X connect 4 0 0 1;
#X connect 5 0 8 0;
#X connect 5 1 6 0;
#X connect 6 0 8 1;
#X connect 7 0 12 0;
#X connect 7 0 18 0;
#X connect 8 0 9 0;
#X connect 9 0 19 0;
#X connect 10 0 7 0;
#X connect 11 0 7 0;
#X connect 13 0 4 0;
#X connect 13 0 16 0;
#X connect 14 0 15 0;
#X connect 15 0 2 0;
#X connect 15 1 4 0;
#X connect 16 0 2 0;
#X connect 18 0 23 0;
#X connect 19 0 11 0;
#X connect 19 1 20 0;
#X connect 20 0 10 0;
#X connect 20 1 22 0;
#X connect 20 2 21 0;
#X connect 21 0 7 0;
#X connect 22 0 7 0;
#X connect 23 0 17 0;
#X restore 83 71 pd PitchGamut;
#X connect 0 0 4 0;
#X connect 2 0 3 0;
#X connect 4 0 5 0;
#X connect 5 0 6 0;
#X connect 6 0 7 0;
#X connect 7 0 8 0;
#X connect 8 0 9 0;
#X connect 9 0 10 0;
#X connect 10 0 11 0;
#X connect 11 0 12 0;
#X connect 12 0 13 0;
#X connect 13 0 14 0;
#X connect 14 0 15 0;
#X connect 15 0 1 0;
#X connect 16 0 4 0;
#X coords 0 518 1 517 85 60 0;
#X restore 350 85 pd pitch-gamut-parse;
#X obj 289 131 f.util.masterkey \$0;
#X obj 47 20 inlet;
#X obj 388 466 outlet;
#X obj 301 112 s root-offset;
#X obj 168 169 s \$0-bpmlock;
#N canvas 21 290 238 348 BPM_LOCK___ 0;
#X obj 53 27 inlet;
#X obj 53 292 outlet;
#X obj 53 206 clip 1 240;
#X obj 53 181 i 110;
#X obj 53 227 f.util.switch;
#X obj 80 135 i;
#X obj 80 93 t f f;
#X obj 80 114 sel 0;
#X obj 80 72 r \$0-bpmlock;
#X obj 80 156 t f f;
#X connect 0 0 3 0;
#X connect 2 0 4 0;
#X connect 3 0 2 0;
#X connect 4 0 1 0;
#X connect 4 0 5 1;
#X connect 4 1 1 0;
#X connect 5 0 9 0;
#X connect 6 0 7 0;
#X connect 6 1 4 1;
#X connect 7 0 5 0;
#X connect 8 0 6 0;
#X connect 9 0 3 1;
#X connect 9 1 1 0;
#X restore 107 190 pd BPM_LOCK___;
#X obj 228 150 s \$0-bpm-half-time;
#X msg 125 302 bpm \$1;
#X obj 47 58 route seqonglobal bpm bpmhold bpmhalftime pitchroot;
#X obj 107 211 / 240;
#X connect 1 0 2 0;
#X connect 2 0 0 0;
#X connect 2 0 3 0;
#X connect 2 0 15 0;
#X connect 4 0 1 0;
#X connect 7 0 10 0;
#X connect 9 0 16 0;
#X connect 13 0 17 0;
#X connect 15 0 5 0;
#X connect 16 0 6 0;
#X connect 16 1 13 0;
#X connect 16 2 12 0;
#X connect 16 3 14 0;
#X connect 16 4 8 0;
#X connect 16 5 7 0;
#X connect 17 0 4 0;
#X restore 63 134 pd TEMPO_&_PITCH________;
#X obj 78 106 print OSC-Received;
#X connect 1 0 8 0;
#X connect 2 0 1 1;
#X connect 3 0 1 0;
#X connect 3 0 7 0;
#X connect 5 0 4 0;
#X connect 6 0 5 0;
#X connect 7 0 6 0;
#X restore 20 41 pd GLOBAL_MESSAGES_RECEIVE___;
#N canvas 463 363 1200 550 GLOBAL_MESSAGES__SEND_____ 0;
#X obj 40 12 inlet;
#X obj 40 61 r \$0-bpm;
#X obj 40 106 s to-o-s-c-interface;
#X obj 43 283 oscformat repeaterlevel;
#X obj 43 261 r \$0-repeater-level-gui;
#X obj 43 305 s to-o-s-c-interface;
#X obj 201 140 r \$0-repeater-random-beat-out-gui;
#X msg 201 161 \$2 \$1;
#X obj 201 182 unpack f f;
#X obj 201 304 s to-o-s-c-interface;
#X obj 201 282 oscformat repeaterbeatdivision;
#X obj 258 223 - 1;
#X msg 258 244 set repeaterbeatdivision \$1;
#X obj 201 203 t b b;
#X msg 201 245 0;
#X msg 228 245 1;
#X obj 201 224 del 100;
#X obj 32 471 s to-o-s-c-interface;
#X obj 272 469 s to-o-s-c-interface;
#X obj 495 466 s to-o-s-c-interface;
#X obj 712 463 s to-o-s-c-interface;
#X obj 32 427 r \$0-rollingfreezer-repeater-send;
#X obj 32 449 oscformat rollingfreezerrepeatersend;
#X obj 272 425 r \$0-rollingfreezer-wet-level;
#X obj 272 447 oscformat rollingfreezerwetlevel;
#X obj 495 422 r \$0-rollingfreezer-dry-level;
#X obj 495 444 oscformat rollingfreezerdrylevel;
#X obj 712 419 r \$0-rollingfreezer-transpose;
#X obj 712 441 oscformat rollingfreezertranspose;
#X obj 493 134 s to-o-s-c-interface;
#X obj 493 112 oscformat pitchroot;
#X obj 493 90 r \$0-scale-root-note;
#X obj 40 83 oscformat bpmgui;
#X obj 930 460 s to-o-s-c-interface;
#X obj 930 312 r resetglobal;
#X msg 930 333 set rollingfreezertransposelfofreq;
#X obj 930 354 t b a;
#X msg 930 375 0;
#X obj 930 438 oscformat;
#X obj 975 384 t b a;
#X msg 975 405 0;
#X msg 975 363 set rollingfreezertransposelfodepth;
#X obj 485 245 s to-o-s-c-interface;
#X obj 485 201 r \$0-digitaliser-level-gui;
#X obj 485 223 oscformat digitaliserlevel;
#X obj 671 243 s to-o-s-c-interface;
#X obj 671 199 r \$0-digitaliser-amount-gui;
#X obj 671 221 oscformat digitaliseramount;
#X obj 864 243 s to-o-s-c-interface;
#X obj 864 199 r \$0-limiter-level-gui;
#X obj 864 221 oscformat limiterlevel;
#X connect 1 0 32 0;
#X connect 3 0 5 0;
#X connect 4 0 3 0;
#X connect 6 0 7 0;
#X connect 7 0 8 0;
#X connect 8 0 13 0;
#X connect 8 1 11 0;
#X connect 10 0 9 0;
#X connect 11 0 12 0;
#X connect 12 0 10 0;
#X connect 13 0 16 0;
#X connect 13 1 15 0;
#X connect 14 0 10 0;
#X connect 15 0 10 0;
#X connect 16 0 14 0;
#X connect 21 0 22 0;
#X connect 22 0 17 0;
#X connect 23 0 24 0;
#X connect 24 0 18 0;
#X connect 25 0 26 0;
#X connect 26 0 19 0;
#X connect 27 0 28 0;
#X connect 28 0 20 0;
#X connect 30 0 29 0;
#X connect 31 0 30 0;
#X connect 32 0 2 0;
#X connect 34 0 35 0;
#X connect 34 0 41 0;
#X connect 35 0 36 0;
#X connect 36 0 37 0;
#X connect 36 1 38 0;
#X connect 37 0 38 0;
#X connect 38 0 33 0;
#X connect 39 0 40 0;
#X connect 39 1 38 0;
#X connect 40 0 38 0;
#X connect 41 0 39 0;
#X connect 43 0 44 0;
#X connect 44 0 42 0;
#X connect 46 0 47 0;
#X connect 47 0 45 0;
#X connect 49 0 50 0;
#X connect 50 0 48 0;
#X restore 20 67 pd GLOBAL_MESSAGES__SEND_____;
#X connect 0 0 1 0;
#X restore 36 68 pd GLOBAL_OSC_MESSAGE_PARSE___;
#X restore 77 76 pd TRIPES_______________;
