#N canvas 349 504 252 152 12;
#X declare -path audioabstractions;
#X declare -path externals;
#X obj 158 70 loadbang;
#X msg 158 94 \; pd dsp 1;
#N canvas 134 85 274 312 MESSAGE_RECEIVE 0;
#X msg 58 94 listen 51984;
#X obj 58 29 loadbang;
#X obj 58 63 del 1000;
#X obj 111 197 s \$0-formuls;
#X obj 58 159 route pd;
#X msg 58 242 \; pd quit;
#X obj 58 125 netreceive -u;
#X connect 0 0 6 0;
#X connect 1 0 2 0;
#X connect 2 0 0 0;
#X connect 4 0 5 0;
#X connect 4 1 3 0;
#X connect 6 0 4 0;
#X restore 16 76 pd MESSAGE_RECEIVE;
#N canvas 644 321 286 301 AUDIO__________ 0;
#X obj 66 80 f.formuls~ 1;
#X obj 66 48 r \$0-formuls;
#N canvas 135 405 560 333 MASTER_BUS_FX_+_AUDIO_OUT 0;
#X obj 39 19 inlet;
#X obj 39 301 s \$0-reverb-bypass;
#X obj 39 73 route fmasterbusfx;
#X obj 39 102 route reverbbypass masteramp;
#X obj 135 277 s \$0-master-amp;
#N canvas 783 72 1081 380 AUDIO_RECEIVES_DIGITALISER_&_MULTI_OUT 0;
#X obj 49 117 r~ 1-l;
#X obj 171 109 r~ 1-r;
#X obj 59 138 r~ 2-l;
#X obj 180 130 r~ 2-r;
#X obj 68 159 r~ 3-l;
#X obj 187 151 r~ 3-r;
#X obj 78 179 r~ 4-l;
#X obj 88 200 r~ 5-l;
#X obj 97 221 r~ 6-l;
#X obj 197 172 r~ 4-r;
#X obj 206 193 r~ 5-r;
#X obj 213 214 r~ 6-r;
#X text 15 12 receive audio sends from formulssynth~ abstraction;
#X obj 579 139 r~ 1-l;
#X obj 599 162 r~ 1-r;
#X obj 579 191 *~ 0.5;
#X obj 653 189 *~ 0.5;
#X obj 729 188 *~ 0.5;
#X obj 803 186 *~ 0.5;
#X obj 878 185 *~ 0.5;
#X obj 952 183 *~ 0.5;
#X obj 653 137 r~ 2-l;
#X obj 673 160 r~ 2-r;
#X obj 729 136 r~ 3-l;
#X obj 749 159 r~ 3-r;
#X obj 803 134 r~ 4-l;
#X obj 823 157 r~ 4-r;
#X obj 878 133 r~ 5-l;
#X obj 899 156 r~ 5-r;
#X obj 952 131 r~ 6-l;
#X obj 972 154 r~ 6-r;
#X obj 292 172 f_digitaliser~;
#N canvas 191 105 1164 797 DIGITALISER_INPUT_SELECT 0;
#X obj 45 738 outlet~;
#X obj 49 231 *~;
#X obj 67 160 sig~;
#X obj 67 89 route 0 1 2 3 4 5;
#X obj 138 230 *~;
#X obj 156 159 sig~;
#X obj 221 232 *~;
#X obj 239 161 sig~;
#X obj 302 232 *~;
#X obj 320 161 sig~;
#X obj 385 232 *~;
#X obj 403 161 sig~;
#X obj 467 232 *~;
#X obj 485 161 sig~;
#X obj 67 4 inlet;
#X obj 208 711 r~ \$0-fre-rep;
#X obj 327 749 outlet~;
#X obj 607 243 *~;
#X obj 625 172 sig~;
#X obj 625 101 route 0 1 2 3 4 5;
#X obj 694 242 *~;
#X obj 712 171 sig~;
#X obj 777 244 *~;
#X obj 795 173 sig~;
#X obj 858 244 *~;
#X obj 876 173 sig~;
#X obj 946 244 *~;
#X obj 964 173 sig~;
#X obj 1034 244 *~;
#X obj 1052 173 sig~;
#X obj 49 269 throw~ \$0-dig-out-l;
#X obj 607 281 throw~ \$0-dig-out-r;
#X obj 326 708 catch~ \$0-dig-out-r;
#X obj 45 711 catch~ \$0-dig-out-l;
#X obj 44 581 *~;
#X obj 62 427 route 0 1 2 3 4 5;
#X obj 131 580 *~;
#X obj 224 582 *~;
#X obj 315 582 *~;
#X obj 403 582 *~;
#X obj 491 582 *~;
#X obj 62 347 unpack f f;
#X obj 115 373 == 0;
#X obj 62 400 pack f f;
#X obj 44 629 throw~ \$0-cle-out-l;
#X obj 621 584 *~;
#X obj 639 430 route 0 1 2 3 4 5;
#X obj 708 583 *~;
#X obj 791 585 *~;
#X obj 872 585 *~;
#X obj 960 585 *~;
#X obj 1048 585 *~;
#X obj 638 352 unpack f f;
#X obj 691 378 == 0;
#X obj 638 405 pack f f;
#X obj 621 632 throw~ \$0-cle-out-r;
#X obj 534 752 outlet~;
#X obj 816 743 outlet~;
#X obj 534 705 catch~ \$0-cle-out-l;
#X obj 815 702 catch~ \$0-cle-out-r;
#X obj 697 705 r~ \$0-fre-rep;
#X obj 49 137 r~ 1-l;
#X obj 138 136 r~ 2-l;
#X obj 221 138 r~ 3-l;
#X obj 302 138 r~ 4-l;
#X obj 385 137 r~ 5-l;
#X obj 467 138 r~ 6-l;
#X obj 44 475 r~ 1-l;
#X obj 131 474 r~ 2-l;
#X obj 224 476 r~ 3-l;
#X obj 315 476 r~ 4-l;
#X obj 403 475 r~ 5-l;
#X obj 491 476 r~ 6-l;
#X obj 607 149 r~ 1-r;
#X obj 694 148 r~ 2-r;
#X obj 777 150 r~ 3-r;
#X obj 858 150 r~ 4-r;
#X obj 946 149 r~ 5-r;
#X obj 1034 150 r~ 6-r;
#X obj 621 478 r~ 1-r;
#X obj 708 477 r~ 2-r;
#X obj 791 479 r~ 3-r;
#X obj 872 479 r~ 4-r;
#X obj 960 478 r~ 5-r;
#X obj 1048 479 r~ 6-r;
#X obj 62 508 sig~ 1;
#X obj 149 507 sig~ 1;
#X obj 242 509 sig~ 1;
#X obj 333 509 sig~ 1;
#X obj 421 509 sig~ 1;
#X obj 509 509 sig~ 1;
#X obj 639 511 sig~ 1;
#X obj 726 510 sig~ 1;
#X obj 809 512 sig~ 1;
#X obj 890 512 sig~ 1;
#X obj 978 512 sig~ 1;
#X obj 1066 512 sig~ 1;
#X obj 67 28 s \$0-dig-mes;
#X obj 68 65 r \$0-dig-mes;
#X obj 625 74 r \$0-dig-mes;
#X obj 62 323 r \$0-dig-mes;
#X obj 638 326 r \$0-dig-mes;
#X obj 67 208 *~;
#X obj 156 207 *~;
#X obj 239 209 *~;
#X obj 320 209 *~;
#X obj 403 209 *~;
#X obj 485 209 *~;
#X obj 625 220 *~;
#X obj 712 219 *~;
#X obj 795 221 *~;
#X obj 876 221 *~;
#X obj 964 221 *~;
#X obj 1052 221 *~;
#X obj 62 556 *~;
#X obj 149 555 *~;
#X obj 242 557 *~;
#X obj 333 557 *~;
#X obj 421 557 *~;
#X obj 509 557 *~;
#X obj 639 559 *~;
#X obj 726 558 *~;
#X obj 809 560 *~;
#X obj 890 560 *~;
#X obj 978 560 *~;
#X obj 1066 560 *~;
#X obj 67 184 lop~ 10;
#X obj 156 183 lop~ 10;
#X obj 239 185 lop~ 10;
#X obj 320 185 lop~ 10;
#X obj 403 185 lop~ 10;
#X obj 485 185 lop~ 10;
#X obj 625 196 lop~ 10;
#X obj 712 195 lop~ 10;
#X obj 795 197 lop~ 10;
#X obj 876 197 lop~ 10;
#X obj 964 197 lop~ 10;
#X obj 1052 197 lop~ 10;
#X obj 1066 536 lop~ 10;
#X obj 978 536 lop~ 10;
#X obj 890 536 lop~ 10;
#X obj 809 536 lop~ 10;
#X obj 726 534 lop~ 10;
#X obj 639 535 lop~ 10;
#X obj 509 533 lop~ 10;
#X obj 421 533 lop~ 10;
#X obj 333 533 lop~ 10;
#X obj 242 533 lop~ 10;
#X obj 149 531 lop~ 10;
#X obj 62 532 lop~ 10;
#X connect 1 0 30 0;
#X connect 2 0 126 0;
#X connect 3 0 2 0;
#X connect 3 1 5 0;
#X connect 3 2 7 0;
#X connect 3 3 9 0;
#X connect 3 4 11 0;
#X connect 3 5 13 0;
#X connect 4 0 30 0;
#X connect 5 0 127 0;
#X connect 6 0 30 0;
#X connect 7 0 128 0;
#X connect 8 0 30 0;
#X connect 9 0 129 0;
#X connect 10 0 30 0;
#X connect 11 0 130 0;
#X connect 12 0 30 0;
#X connect 13 0 131 0;
#X connect 14 0 97 0;
#X connect 17 0 31 0;
#X connect 18 0 132 0;
#X connect 19 0 18 0;
#X connect 19 1 21 0;
#X connect 19 2 23 0;
#X connect 19 3 25 0;
#X connect 19 4 27 0;
#X connect 19 5 29 0;
#X connect 20 0 31 0;
#X connect 21 0 133 0;
#X connect 22 0 31 0;
#X connect 23 0 134 0;
#X connect 24 0 31 0;
#X connect 25 0 135 0;
#X connect 26 0 31 0;
#X connect 27 0 136 0;
#X connect 28 0 31 0;
#X connect 29 0 137 0;
#X connect 32 0 16 0;
#X connect 33 0 0 0;
#X connect 34 0 44 0;
#X connect 35 0 85 0;
#X connect 35 1 86 0;
#X connect 35 2 87 0;
#X connect 35 3 88 0;
#X connect 35 4 89 0;
#X connect 35 5 90 0;
#X connect 36 0 44 0;
#X connect 37 0 44 0;
#X connect 38 0 44 0;
#X connect 39 0 44 0;
#X connect 40 0 44 0;
#X connect 41 0 43 0;
#X connect 41 1 42 0;
#X connect 42 0 43 1;
#X connect 43 0 35 0;
#X connect 45 0 55 0;
#X connect 46 0 91 0;
#X connect 46 1 92 0;
#X connect 46 2 93 0;
#X connect 46 3 94 0;
#X connect 46 4 95 0;
#X connect 46 5 96 0;
#X connect 47 0 55 0;
#X connect 48 0 55 0;
#X connect 49 0 55 0;
#X connect 50 0 55 0;
#X connect 51 0 55 0;
#X connect 52 0 54 0;
#X connect 52 1 53 0;
#X connect 53 0 54 1;
#X connect 54 0 46 0;
#X connect 58 0 56 0;
#X connect 59 0 57 0;
#X connect 61 0 1 0;
#X connect 62 0 4 0;
#X connect 63 0 6 0;
#X connect 64 0 8 0;
#X connect 65 0 10 0;
#X connect 66 0 12 0;
#X connect 67 0 34 0;
#X connect 68 0 36 0;
#X connect 69 0 37 0;
#X connect 70 0 38 0;
#X connect 71 0 39 0;
#X connect 72 0 40 0;
#X connect 73 0 17 0;
#X connect 74 0 20 0;
#X connect 75 0 22 0;
#X connect 76 0 24 0;
#X connect 77 0 26 0;
#X connect 78 0 28 0;
#X connect 79 0 45 0;
#X connect 80 0 47 0;
#X connect 81 0 48 0;
#X connect 82 0 49 0;
#X connect 83 0 50 0;
#X connect 84 0 51 0;
#X connect 85 0 149 0;
#X connect 86 0 148 0;
#X connect 87 0 147 0;
#X connect 88 0 146 0;
#X connect 89 0 145 0;
#X connect 90 0 144 0;
#X connect 91 0 143 0;
#X connect 92 0 142 0;
#X connect 93 0 141 0;
#X connect 94 0 140 0;
#X connect 95 0 139 0;
#X connect 96 0 138 0;
#X connect 98 0 3 0;
#X connect 99 0 19 0;
#X connect 100 0 41 0;
#X connect 101 0 52 0;
#X connect 102 0 1 1;
#X connect 103 0 4 1;
#X connect 104 0 6 1;
#X connect 105 0 8 1;
#X connect 106 0 10 1;
#X connect 107 0 12 1;
#X connect 108 0 17 1;
#X connect 109 0 20 1;
#X connect 110 0 22 1;
#X connect 111 0 24 1;
#X connect 112 0 26 1;
#X connect 113 0 28 1;
#X connect 114 0 34 1;
#X connect 115 0 36 1;
#X connect 116 0 37 1;
#X connect 117 0 38 1;
#X connect 118 0 39 1;
#X connect 119 0 40 1;
#X connect 120 0 45 1;
#X connect 121 0 47 1;
#X connect 122 0 48 1;
#X connect 123 0 49 1;
#X connect 124 0 50 1;
#X connect 125 0 51 1;
#X connect 126 0 102 0;
#X connect 126 0 102 1;
#X connect 127 0 103 0;
#X connect 127 0 103 1;
#X connect 128 0 104 0;
#X connect 128 0 104 1;
#X connect 129 0 105 0;
#X connect 129 0 105 1;
#X connect 130 0 106 0;
#X connect 130 0 106 1;
#X connect 131 0 107 0;
#X connect 131 0 107 1;
#X connect 132 0 108 0;
#X connect 132 0 108 1;
#X connect 133 0 109 0;
#X connect 133 0 109 1;
#X connect 134 0 110 0;
#X connect 134 0 110 1;
#X connect 135 0 111 0;
#X connect 135 0 111 1;
#X connect 136 0 112 0;
#X connect 136 0 112 1;
#X connect 137 0 113 0;
#X connect 137 0 113 1;
#X connect 138 0 125 0;
#X connect 138 0 125 1;
#X connect 139 0 124 0;
#X connect 139 0 124 1;
#X connect 140 0 123 0;
#X connect 140 0 123 1;
#X connect 141 0 122 0;
#X connect 141 0 122 1;
#X connect 142 0 121 0;
#X connect 142 0 121 1;
#X connect 143 0 120 0;
#X connect 143 0 120 1;
#X connect 144 0 119 0;
#X connect 144 0 119 1;
#X connect 145 0 118 0;
#X connect 145 0 118 1;
#X connect 146 0 117 0;
#X connect 146 0 117 1;
#X connect 147 0 116 0;
#X connect 147 0 116 1;
#X connect 148 0 115 0;
#X connect 148 0 115 1;
#X connect 149 0 114 0;
#X connect 149 0 114 1;
#X restore 339 139 pd DIGITALISER_INPUT_SELECT;
#X obj 339 109 route digitaliserinput;
#X obj 339 298 outlet~;
#X obj 525 298 outlet~;
#X obj 49 278 outlet~~;
#X obj 170 278 outlet~~;
#X obj 291 56 inlet;
#X obj 269 290 outlet;
#X obj 579 240 dac~ 9 10 11 12 13 14;
#X text 334 328 Digitaliser outlet~ above replaces outlet~ at the left of this subpatch;
#X connect 0 0 36 0;
#X connect 1 0 37 0;
#X connect 2 0 36 0;
#X connect 3 0 37 0;
#X connect 4 0 36 0;
#X connect 5 0 37 0;
#X connect 6 0 36 0;
#X connect 7 0 36 0;
#X connect 8 0 36 0;
#X connect 9 0 37 0;
#X connect 10 0 37 0;
#X connect 11 0 37 0;
#X connect 13 0 15 0;
#X connect 14 0 15 0;
#X connect 15 0 40 0;
#X connect 16 0 40 1;
#X connect 17 0 40 2;
#X connect 18 0 40 3;
#X connect 19 0 40 4;
#X connect 20 0 40 5;
#X connect 21 0 16 0;
#X connect 22 0 16 0;
#X connect 23 0 17 0;
#X connect 24 0 17 0;
#X connect 25 0 18 0;
#X connect 26 0 18 0;
#X connect 27 0 19 0;
#X connect 28 0 19 0;
#X connect 29 0 20 0;
#X connect 30 0 20 0;
#X connect 31 1 34 0;
#X connect 31 2 35 0;
#X connect 32 0 31 1;
#X connect 32 1 31 2;
#X connect 32 2 34 0;
#X connect 32 3 35 0;
#X connect 33 0 32 0;
#X connect 33 1 39 0;
#X connect 38 0 31 0;
#X connect 38 0 33 0;
#X restore 232 135 pd AUDIO_RECEIVES_DIGITALISER_&_MULTI_OUT;
#N canvas 313 170 886 617 ROLLINGFREEZER________________________ 0;
#X obj 686 56 inlet~;
#X obj 457 518 outlet~;
#X obj 9 36 inlet;
#X obj 363 521 outlet;
#X obj 552 515 outlet~;
#X text 350 554 message reject;
#X obj 782 55 inlet~;
#X obj 686 524 outlet~;
#X obj 686 414 *~;
#X obj 723 355 lop~ 100;
#X obj 723 379 *~;
#X obj 782 521 outlet~;
#X obj 782 415 *~;
#X obj 723 331 sig~ 1;
#X msg 117 335 transpose \$1;
#X obj 117 359 s \$0-freeze;
#X obj 540 166 r \$0-freeze;
#X obj 215 274 s \$0-freeze;
#X msg 215 250 freeze \$1 \$2;
#X text 484 545 wet signal;
#X text 750 545 dry signal;
#X obj 9 438 s \$0-freeze;
#X msg 9 414 level \$1;
#X msg 274 192 input \$1 \$2;
#X obj 274 216 s \$0-freeze;
#X obj 58 389 s \$0-dry-level;
#X obj 723 303 r \$0-dry-level;
#X obj 118 240 - 0.5;
#X obj 117 287 i;
#X obj 118 264 * 7;
#X obj 117 311 * 12;
#X obj 176 304 s \$0-repeater-send;
#X obj 457 347 *~;
#X obj 475 321 f.audio.crossfade~;
#X obj 475 296 r \$0-repeater-send;
#X obj 580 347 *~;
#N canvas 0 38 1512 456 FREEZE_INPUT_SELECT 0;
#X obj 40 378 outlet~;
#X obj 49 211 *~;
#X obj 67 160 sig~;
#X obj 67 184 lop~ 100;
#X obj 121 35 r \$0-freeze;
#X obj 121 89 route 0 1 2 3 4 5;
#X obj 216 210 *~;
#X obj 234 159 sig~;
#X obj 234 183 lop~ 100;
#X obj 389 212 *~;
#X obj 407 161 sig~;
#X obj 407 185 lop~ 100;
#X obj 559 212 *~;
#X obj 577 161 sig~;
#X obj 577 185 lop~ 100;
#X obj 727 212 *~;
#X obj 745 161 sig~;
#X obj 745 185 lop~ 100;
#X obj 895 212 *~;
#X obj 913 161 sig~;
#X obj 913 185 lop~ 100;
#X obj 121 59 route input;
#X obj 49 127 r~ 1-m-l;
#X obj 216 126 r~ 2-m-l;
#X obj 389 128 r~ 3-m-l;
#X obj 559 128 r~ 4-m-l;
#X obj 727 127 r~ 5-m-l;
#X obj 895 128 r~ 6-m-l;
#X obj 48 270 throw~ \$0-rol-fre-out-l;
#X obj 216 270 throw~ \$0-rol-fre-out-l;
#X obj 389 271 throw~ \$0-rol-fre-out-l;
#X obj 559 271 throw~ \$0-rol-fre-out-l;
#X obj 727 271 throw~ \$0-rol-fre-out-l;
#X obj 895 271 throw~ \$0-rol-fre-out-l;
#X obj 40 351 catch~ \$0-rol-fre-out-l;
#X obj 1104 388 outlet~;
#X obj 1113 221 *~;
#X obj 1131 170 sig~;
#X obj 1131 194 lop~ 100;
#X obj 1185 99 route 0 1 2 3 4 5;
#X obj 1280 220 *~;
#X obj 1298 169 sig~;
#X obj 1298 193 lop~ 100;
#X obj 1453 222 *~;
#X obj 1471 171 sig~;
#X obj 1471 195 lop~ 100;
#X obj 1623 222 *~;
#X obj 1641 171 sig~;
#X obj 1641 195 lop~ 100;
#X obj 1791 222 *~;
#X obj 1809 171 sig~;
#X obj 1809 195 lop~ 100;
#X obj 1959 222 *~;
#X obj 1977 171 sig~;
#X obj 1977 195 lop~ 100;
#X obj 1113 137 r~ 1-m-r;
#X obj 1280 136 r~ 2-m-r;
#X obj 1453 138 r~ 3-m-r;
#X obj 1623 138 r~ 4-m-r;
#X obj 1791 137 r~ 5-m-r;
#X obj 1959 138 r~ 6-m-r;
#X obj 1112 280 throw~ \$0-rol-fre-out-r;
#X obj 1280 280 throw~ \$0-rol-fre-out-r;
#X obj 1453 281 throw~ \$0-rol-fre-out-r;
#X obj 1623 281 throw~ \$0-rol-fre-out-r;
#X obj 1791 281 throw~ \$0-rol-fre-out-r;
#X obj 1959 281 throw~ \$0-rol-fre-out-r;
#X obj 1104 361 catch~ \$0-rol-fre-out-r;
#X connect 1 0 28 0;
#X connect 2 0 3 0;
#X connect 3 0 1 1;
#X connect 4 0 21 0;
#X connect 5 0 2 0;
#X connect 5 1 7 0;
#X connect 5 2 10 0;
#X connect 5 3 13 0;
#X connect 5 4 16 0;
#X connect 5 5 19 0;
#X connect 6 0 29 0;
#X connect 7 0 8 0;
#X connect 8 0 6 1;
#X connect 9 0 30 0;
#X connect 10 0 11 0;
#X connect 11 0 9 1;
#X connect 12 0 31 0;
#X connect 13 0 14 0;
#X connect 14 0 12 1;
#X connect 15 0 32 0;
#X connect 16 0 17 0;
#X connect 17 0 15 1;
#X connect 18 0 33 0;
#X connect 19 0 20 0;
#X connect 20 0 18 1;
#X connect 21 0 5 0;
#X connect 21 0 39 0;
#X connect 22 0 1 0;
#X connect 23 0 6 0;
#X connect 24 0 9 0;
#X connect 25 0 12 0;
#X connect 26 0 15 0;
#X connect 27 0 18 0;
#X connect 34 0 0 0;
#X connect 36 0 61 0;
#X connect 37 0 38 0;
#X connect 38 0 36 1;
#X connect 39 0 37 0;
#X connect 39 1 41 0;
#X connect 39 2 44 0;
#X connect 39 3 47 0;
#X connect 39 4 50 0;
#X connect 39 5 53 0;
#X connect 40 0 62 0;
#X connect 41 0 42 0;
#X connect 42 0 40 1;
#X connect 43 0 63 0;
#X connect 44 0 45 0;
#X connect 45 0 43 1;
#X connect 46 0 64 0;
#X connect 47 0 48 0;
#X connect 48 0 46 1;
#X connect 49 0 65 0;
#X connect 50 0 51 0;
#X connect 51 0 49 1;
#X connect 52 0 66 0;
#X connect 53 0 54 0;
#X connect 54 0 52 1;
#X connect 55 0 36 0;
#X connect 56 0 40 0;
#X connect 57 0 43 0;
#X connect 58 0 46 0;
#X connect 59 0 49 0;
#X connect 60 0 52 0;
#X connect 67 0 35 0;
#X restore 457 130 pd FREEZE_INPUT_SELECT;
#X obj 580 374 s~ \$0-fre-rep;
#X obj 9 70 route rollingfreezerwetlevel rollingfreezerdrylevel rollingfreezertranspose rollingfreezerrepeatersend rollingfreezerfreeze rollingfreezerinput rollingfreezerfeedback;
#X msg 310 136 feedback \$1;
#X obj 310 160 s \$0-freeze;
#X obj 457 193 f.audio.rollingfreezer~;
#X connect 0 0 8 0;
#X connect 2 0 38 0;
#X connect 6 0 12 0;
#X connect 8 0 7 0;
#X connect 9 0 10 0;
#X connect 9 0 10 1;
#X connect 10 0 8 1;
#X connect 10 0 12 1;
#X connect 12 0 11 0;
#X connect 13 0 9 0;
#X connect 14 0 15 0;
#X connect 16 0 41 1;
#X connect 18 0 17 0;
#X connect 22 0 21 0;
#X connect 23 0 24 0;
#X connect 26 0 13 0;
#X connect 27 0 29 0;
#X connect 28 0 30 0;
#X connect 29 0 28 0;
#X connect 30 0 14 0;
#X connect 32 0 1 0;
#X connect 32 0 4 0;
#X connect 33 0 32 1;
#X connect 33 1 35 1;
#X connect 34 0 33 0;
#X connect 35 0 37 0;
#X connect 36 0 41 0;
#X connect 36 1 41 0;
#X connect 38 0 22 0;
#X connect 38 1 25 0;
#X connect 38 2 27 0;
#X connect 38 3 31 0;
#X connect 38 4 18 0;
#X connect 38 5 23 0;
#X connect 38 6 39 0;
#X connect 38 7 3 0;
#X connect 39 0 40 0;
#X connect 41 0 32 0;
#X connect 41 0 35 0;
#X restore 232 169 pd ROLLINGFREEZER________________________;
#N canvas 753 275 926 510 MASTER_BUS_FX_________________________ 0;
#X obj 82 42 inlet~;
#X obj 85 444 outlet~;
#X obj 134 42 inlet~;
#X obj 150 445 outlet~;
#X obj 372 201 *~;
#X obj 474 200 *~;
#X obj 492 93 r \$0-reverb-bypass;
#X obj 492 117 == 0;
#X obj 492 166 lop~ 100;
#X obj 492 142 sig~ 1;
#X obj 372 446 outlet~;
#X obj 474 447 outlet~;
#X obj 18 42 inlet;
#X obj 372 56 catch~ rev-l;
#X obj 474 56 catch~ rev-r;
#X obj 372 370 *~;
#X obj 474 370 *~;
#X obj 492 287 == 0;
#X obj 492 336 lop~ 100;
#X obj 492 312 sig~ 1;
#X obj 492 262 route reverblimiterlevel;
#X obj 29 88 s \$0-to-rev-control;
#X obj 492 235 r \$0-to-rev-control;
#X obj 134 135 hip~ 5;
#X obj 82 135 hip~ 5;
#N canvas 716 261 366 369 REPEATER____ 0;
#X obj 39 8 inlet;
#X obj 220 309 outlet reject;
#N canvas 0 38 1326 526 REPEATER_INPUT_SELECT 0;
#X obj 45 348 outlet~;
#X obj 49 211 *~;
#X obj 67 160 sig~;
#X obj 67 184 lop~ 100;
#X obj 67 79 route 0 1 2 3 4 5;
#X obj 196 210 *~;
#X obj 214 159 sig~;
#X obj 214 183 lop~ 100;
#X obj 339 212 *~;
#X obj 357 161 sig~;
#X obj 357 185 lop~ 100;
#X obj 480 212 *~;
#X obj 498 161 sig~;
#X obj 498 185 lop~ 100;
#X obj 628 212 *~;
#X obj 646 161 sig~;
#X obj 646 185 lop~ 100;
#X obj 776 212 *~;
#X obj 794 161 sig~;
#X obj 794 185 lop~ 100;
#X obj 67 49 inlet;
#X obj 208 321 r~ \$0-fre-rep;
#X obj 906 352 outlet~;
#X obj 49 249 throw~ \$0-rep-out-l;
#X obj 45 321 catch~ \$0-rep-out-l;
#X obj 196 250 throw~ \$0-rep-out-l;
#X obj 339 251 throw~ \$0-rep-out-l;
#X obj 480 251 throw~ \$0-rep-out-l;
#X obj 628 251 throw~ \$0-rep-out-l;
#X obj 776 251 throw~ \$0-rep-out-l;
#X obj 957 223 *~;
#X obj 975 172 sig~;
#X obj 975 196 lop~ 100;
#X obj 975 91 route 0 1 2 3 4 5;
#X obj 1104 222 *~;
#X obj 1122 171 sig~;
#X obj 1122 195 lop~ 100;
#X obj 1247 224 *~;
#X obj 1265 173 sig~;
#X obj 1265 197 lop~ 100;
#X obj 1388 224 *~;
#X obj 1406 173 sig~;
#X obj 1406 197 lop~ 100;
#X obj 1536 224 *~;
#X obj 1554 173 sig~;
#X obj 1554 197 lop~ 100;
#X obj 1684 224 *~;
#X obj 1702 173 sig~;
#X obj 1702 197 lop~ 100;
#X obj 957 261 throw~ \$0-rep-out-r;
#X obj 905 311 catch~ \$0-rep-out-r;
#X obj 1104 262 throw~ \$0-rep-out-r;
#X obj 1247 263 throw~ \$0-rep-out-r;
#X obj 1388 263 throw~ \$0-rep-out-r;
#X obj 1536 263 throw~ \$0-rep-out-r;
#X obj 1684 263 throw~ \$0-rep-out-r;
#X obj 957 139 r~ 1-m-r;
#X obj 1104 138 r~ 2-m-r;
#X obj 1247 140 r~ 3-m-r;
#X obj 1388 140 r~ 4-m-r;
#X obj 1536 139 r~ 5-m-r;
#X obj 1684 140 r~ 6-m-r;
#X obj 49 127 r~ 1-m-l;
#X obj 196 126 r~ 2-m-l;
#X obj 339 128 r~ 3-m-l;
#X obj 480 128 r~ 4-m-l;
#X obj 628 127 r~ 5-m-l;
#X obj 776 128 r~ 6-m-l;
#X connect 1 0 23 0;
#X connect 2 0 3 0;
#X connect 3 0 1 1;
#X connect 4 0 2 0;
#X connect 4 1 6 0;
#X connect 4 2 9 0;
#X connect 4 3 12 0;
#X connect 4 4 15 0;
#X connect 4 5 18 0;
#X connect 5 0 25 0;
#X connect 6 0 7 0;
#X connect 7 0 5 1;
#X connect 8 0 26 0;
#X connect 9 0 10 0;
#X connect 10 0 8 1;
#X connect 11 0 27 0;
#X connect 12 0 13 0;
#X connect 13 0 11 1;
#X connect 14 0 28 0;
#X connect 15 0 16 0;
#X connect 16 0 14 1;
#X connect 17 0 29 0;
#X connect 18 0 19 0;
#X connect 19 0 17 1;
#X connect 20 0 4 0;
#X connect 20 0 33 0;
#X connect 21 0 0 0;
#X connect 21 0 22 0;
#X connect 24 0 0 0;
#X connect 30 0 49 0;
#X connect 31 0 32 0;
#X connect 32 0 30 1;
#X connect 33 0 31 0;
#X connect 33 1 35 0;
#X connect 33 2 38 0;
#X connect 33 3 41 0;
#X connect 33 4 44 0;
#X connect 33 5 47 0;
#X connect 34 0 51 0;
#X connect 35 0 36 0;
#X connect 36 0 34 1;
#X connect 37 0 52 0;
#X connect 38 0 39 0;
#X connect 39 0 37 1;
#X connect 40 0 53 0;
#X connect 41 0 42 0;
#X connect 42 0 40 1;
#X connect 43 0 54 0;
#X connect 44 0 45 0;
#X connect 45 0 43 1;
#X connect 46 0 55 0;
#X connect 47 0 48 0;
#X connect 48 0 46 1;
#X connect 50 0 22 0;
#X connect 56 0 30 0;
#X connect 57 0 34 0;
#X connect 58 0 37 0;
#X connect 59 0 40 0;
#X connect 60 0 43 0;
#X connect 61 0 46 0;
#X connect 62 0 1 0;
#X connect 63 0 5 0;
#X connect 64 0 8 0;
#X connect 65 0 11 0;
#X connect 66 0 14 0;
#X connect 67 0 17 0;
#X restore 38 138 pd REPEATER_INPUT_SELECT;
#X obj 38 268 outlet~;
#X obj 38 162 hip~ 5;
#X obj 168 271 outlet~;
#X obj 168 165 hip~ 5;
#X obj 56 230 f_repeater~;
#X obj 38 58 route repeaterinput;
#X obj 38 202 f_digitaliser~;
#X connect 0 0 8 0;
#X connect 2 0 4 0;
#X connect 2 1 6 0;
#X connect 4 0 9 1;
#X connect 6 0 9 2;
#X connect 7 1 3 0;
#X connect 7 2 5 0;
#X connect 8 0 2 0;
#X connect 8 1 1 0;
#X connect 8 1 7 0;
#X connect 8 1 9 0;
#X connect 9 1 7 1;
#X connect 9 2 7 2;
#X restore 19 239 pd REPEATER____;
#X obj 118 382 s~ 7-m;
#X obj 589 448 outlet~;
#X obj 652 449 outlet~;
#N canvas 834 519 550 435 REVERB______ 0;
#X obj 330 28 inlet~;
#X obj 385 29 inlet~;
#X obj 409 362 outlet~;
#X obj 330 359 outlet~;
#X obj 330 319 lop~ 6000;
#X obj 409 318 lop~ 6000;
#X obj 22 127 loadbang;
#X msg 227 162 diffusion 0.3;
#X msg 97 162 size 1;
#X msg 151 162 damping 0;
#X msg 22 163 revtime 4;
#X obj 307 229 f_reverb~;
#X connect 0 0 11 1;
#X connect 1 0 11 2;
#X connect 4 0 3 0;
#X connect 5 0 2 0;
#X connect 6 0 8 0;
#X connect 6 0 9 0;
#X connect 6 0 7 0;
#X connect 6 0 10 0;
#X connect 7 0 11 0;
#X connect 8 0 11 0;
#X connect 9 0 11 0;
#X connect 10 0 11 0;
#X connect 11 1 4 0;
#X connect 11 2 5 0;
#X restore 372 231 pd REVERB______;
#X obj 140 305 *~;
#X obj 172 304 *~;
#X obj 158 273 lop~ 100;
#X obj 158 199 route reverblimiterlevel;
#X obj 158 172 r \$0-to-rev-control;
#X obj 158 249 sig~ 0;
#X obj 158 224 == 1;
#X obj 51 344 f_limiter~;
#X obj 755 448 outlet~;
#X obj 818 448 outlet~;
#X obj 213 40 inlet~;
#X obj 265 40 inlet~;
#X obj 265 133 hip~ 5;
#X obj 213 133 hip~ 5;
#X text 405 473 Reverb Out;
#X text 599 481 Repeater Out;
#X text 747 480 Rolling Freezer Out;
#X text 103 17 Freezer wet;
#X text 223 18 freezer dry (no fx);
#X connect 0 0 24 0;
#X connect 2 0 23 0;
#X connect 4 0 29 0;
#X connect 5 0 29 1;
#X connect 6 0 7 0;
#X connect 7 0 9 0;
#X connect 8 0 5 1;
#X connect 8 0 4 1;
#X connect 9 0 8 0;
#X connect 12 0 21 0;
#X connect 12 0 25 0;
#X connect 13 0 4 0;
#X connect 14 0 5 0;
#X connect 15 0 10 0;
#X connect 15 0 1 0;
#X connect 16 0 11 0;
#X connect 16 0 3 0;
#X connect 17 0 19 0;
#X connect 18 0 16 1;
#X connect 18 0 15 1;
#X connect 19 0 18 0;
#X connect 20 0 17 0;
#X connect 22 0 20 0;
#X connect 23 0 37 2;
#X connect 23 0 39 0;
#X connect 24 0 37 1;
#X connect 24 0 38 0;
#X connect 25 0 27 0;
#X connect 25 0 37 1;
#X connect 25 1 28 0;
#X connect 25 1 37 2;
#X connect 25 2 37 0;
#X connect 29 0 15 0;
#X connect 29 0 30 0;
#X connect 29 1 16 0;
#X connect 29 1 31 0;
#X connect 30 0 37 1;
#X connect 31 0 37 2;
#X connect 32 0 31 1;
#X connect 32 0 30 1;
#X connect 33 0 36 0;
#X connect 34 0 33 0;
#X connect 35 0 32 0;
#X connect 36 0 35 0;
#X connect 37 1 26 0;
#X connect 37 1 1 0;
#X connect 37 2 26 0;
#X connect 37 2 3 0;
#X connect 40 0 43 0;
#X connect 41 0 42 0;
#X connect 42 0 37 2;
#X connect 43 0 37 1;
#X restore 232 200 pd MASTER_BUS_FX_________________________;
#N canvas 0 38 796 292 AUDIO_SAFETY__________________________ 0;
#X obj 41 31 inlet~;
#X obj 41 205 *~;
#X obj 41 229 outlet~;
#X obj 581 137 sig~ 0;
#X obj 581 161 lop~ 100;
#X obj 108 32 inlet~;
#X obj 108 206 *~;
#X obj 108 230 outlet~;
#X obj 176 31 inlet~;
#X obj 176 205 *~;
#X obj 176 229 outlet~;
#X obj 243 32 inlet~;
#X obj 243 206 *~;
#X obj 243 230 outlet~;
#X obj 581 65 loadbang;
#X obj 581 89 del 5000;
#X obj 647 76 r \$0-master-amp;
#X obj 306 31 inlet~;
#X obj 306 205 *~;
#X obj 306 229 outlet~;
#X obj 373 32 inlet~;
#X obj 373 206 *~;
#X obj 373 230 outlet~;
#X msg 581 113 1;
#X obj 647 100 * 1;
#X obj 444 30 inlet~;
#X obj 444 204 *~;
#X obj 444 228 outlet~;
#X obj 511 31 inlet~;
#X obj 511 205 *~;
#X obj 511 229 outlet~;
#X connect 0 0 1 0;
#X connect 1 0 2 0;
#X connect 3 0 4 0;
#X connect 4 0 1 1;
#X connect 4 0 6 1;
#X connect 4 0 9 1;
#X connect 4 0 12 1;
#X connect 4 0 18 1;
#X connect 4 0 21 1;
#X connect 4 0 29 1;
#X connect 4 0 26 1;
#X connect 5 0 6 0;
#X connect 6 0 7 0;
#X connect 8 0 9 0;
#X connect 9 0 10 0;
#X connect 11 0 12 0;
#X connect 12 0 13 0;
#X connect 14 0 15 0;
#X connect 15 0 23 0;
#X connect 16 0 24 0;
#X connect 17 0 18 0;
#X connect 18 0 19 0;
#X connect 20 0 21 0;
#X connect 21 0 22 0;
#X connect 23 0 3 0;
#X connect 24 0 3 0;
#X connect 25 0 26 0;
#X connect 26 0 27 0;
#X connect 28 0 29 0;
#X connect 29 0 30 0;
#X restore 232 227 pd AUDIO_SAFETY__________________________;
#X obj 232 252 dac~ 1 2 3 4 5 6 7 8, f 41;
#X connect 0 0 2 0;
#X connect 2 0 3 0;
#X connect 3 0 1 0;
#X connect 3 1 4 0;
#X connect 3 2 5 0;
#X connect 5 0 6 0;
#X connect 5 1 6 1;
#X connect 5 2 6 2;
#X connect 6 0 7 0;
#X connect 6 1 7 1;
#X connect 6 2 7 2;
#X connect 6 3 7 3;
#X connect 6 4 7 4;
#X connect 7 0 8 0;
#X connect 7 1 8 1;
#X connect 7 2 8 2;
#X connect 7 3 8 3;
#X connect 7 4 8 4;
#X connect 7 5 8 5;
#X connect 7 6 8 6;
#X connect 7 7 8 7;
#X connect 8 0 9 0;
#X connect 8 1 9 1;
#X connect 8 2 9 2;
#X connect 8 3 9 3;
#X connect 8 4 9 4;
#X connect 8 5 9 5;
#X connect 8 6 9 6;
#X connect 8 7 9 7;
#X restore 66 236 pd MASTER_BUS_FX_+_AUDIO_OUT;
#X obj 66 104 f.formuls~ 2;
#X obj 66 128 f.formuls~ 3;
#X obj 66 152 f.formuls~ 4;
#X obj 66 176 f.formuls~ 5;
#X obj 66 200 f.formuls~ 6;
#X connect 0 0 3 0;
#X connect 1 0 0 0;
#X connect 3 0 4 0;
#X connect 4 0 5 0;
#X connect 5 0 6 0;
#X connect 6 0 7 0;
#X connect 7 0 2 0;
#X restore 16 100 pd AUDIO__________;
#X obj 15 16 declare -path audioabstractions;
#X obj 15 39 declare -path externals;
#N canvas 705 360 450 300 MESSAGE_SEND___ 0;
#X obj 145 84 list prepend send;
#X obj 145 105 list trim;
#X msg 241 202 disconnect;
#X obj 145 250 tgl 15 0 empty empty empty 17 7 0 10 #fcfcfc #000000 #000000 0 1;
#X obj 165 133 loadbang;
#X obj 165 154 del 2000;
#X obj 145 229 netsend -u;
#X obj 145 60 r m-val;
#X msg 165 177 connect 127.0.0.1 9009;
#X connect 0 0 1 0;
#X connect 1 0 6 0;
#X connect 2 0 6 0;
#X connect 4 0 5 0;
#X connect 5 0 8 0;
#X connect 6 0 3 0;
#X connect 7 0 0 0;
#X connect 8 0 6 0;
#X restore 15 123 pd MESSAGE_SEND___;
#X connect 0 0 1 0;
