#N canvas 1102 56 206 435 10;
#X declare -path Abstractions;
#N canvas 0 145 231 177 FMSYNTH_____________ 0;
#N canvas 236 82 1140 323 SIDECHAIN_MATRIX___ 0;
#X obj 14 99 sel 0 1;
#X obj 26 125 r sidechain-global;
#X obj 26 146 route;
#X obj 45 170 f 1;
#X msg 45 191 1 \, 0 \$1;
#X obj 45 212 vline~;
#X obj 45 253 outlet~;
#X obj 14 43 r sidechain;
#X obj 14 73 route 1 release1;
#X obj 155 121 r sidechain-global;
#X obj 155 142 route;
#X obj 174 166 f 1;
#X msg 174 187 1 \, 0 \$1;
#X obj 174 208 vline~;
#X obj 174 249 outlet~;
#X obj 143 39 r sidechain;
#X obj 296 120 r sidechain-global;
#X obj 296 141 route;
#X obj 315 165 f 1;
#X msg 315 186 1 \, 0 \$1;
#X obj 315 207 vline~;
#X obj 315 248 outlet~;
#X obj 284 38 r sidechain;
#X obj 430 116 r sidechain-global;
#X obj 430 137 route;
#X obj 449 161 f 1;
#X msg 449 182 1 \, 0 \$1;
#X obj 449 203 vline~;
#X obj 449 244 outlet~;
#X obj 418 34 r sidechain;
#X obj 580 121 r sidechain-global;
#X obj 580 142 route;
#X obj 599 166 f 1;
#X msg 599 187 1 \, 0 \$1;
#X obj 599 208 vline~;
#X obj 599 249 outlet~;
#X obj 568 39 r sidechain;
#X obj 709 117 r sidechain-global;
#X obj 709 138 route;
#X obj 728 162 f 1;
#X msg 728 183 1 \, 0 \$1;
#X obj 728 204 vline~;
#X obj 728 245 outlet~;
#X obj 697 35 r sidechain;
#X obj 850 116 r sidechain-global;
#X obj 850 137 route;
#X obj 869 161 f 1;
#X msg 869 182 1 \, 0 \$1;
#X obj 869 203 vline~;
#X obj 869 244 outlet~;
#X obj 838 34 r sidechain;
#X obj 984 112 r sidechain-global;
#X obj 984 133 route;
#X obj 1003 157 f 1;
#X msg 1003 178 1 \, 0 \$1;
#X obj 1003 199 vline~;
#X obj 1003 240 outlet~;
#X obj 972 30 r sidechain;
#X obj 143 69 route 2 release2;
#X obj 284 68 route 3 release3;
#X obj 418 64 route 4 release4;
#X obj 568 69 route 5 release5;
#X obj 697 65 route 6 release6;
#X obj 838 64 route 7 release7;
#X obj 972 60 route 8 release8;
#X obj 143 95 sel 0 2;
#X obj 284 94 sel 0 3;
#X obj 418 90 sel 0 4;
#X obj 568 95 sel 0 5;
#X obj 697 91 sel 0 6;
#X obj 838 90 sel 0 7;
#X obj 972 86 sel 0 8;
#X connect 0 2 2 1;
#X connect 1 0 2 0;
#X connect 2 0 3 0;
#X connect 3 0 4 0;
#X connect 4 0 5 0;
#X connect 5 0 6 0;
#X connect 7 0 8 0;
#X connect 8 0 0 0;
#X connect 8 1 3 1;
#X connect 9 0 10 0;
#X connect 10 0 11 0;
#X connect 11 0 12 0;
#X connect 12 0 13 0;
#X connect 13 0 14 0;
#X connect 15 0 58 0;
#X connect 16 0 17 0;
#X connect 17 0 18 0;
#X connect 18 0 19 0;
#X connect 19 0 20 0;
#X connect 20 0 21 0;
#X connect 22 0 59 0;
#X connect 23 0 24 0;
#X connect 24 0 25 0;
#X connect 25 0 26 0;
#X connect 26 0 27 0;
#X connect 27 0 28 0;
#X connect 29 0 60 0;
#X connect 30 0 31 0;
#X connect 31 0 32 0;
#X connect 32 0 33 0;
#X connect 33 0 34 0;
#X connect 34 0 35 0;
#X connect 36 0 61 0;
#X connect 37 0 38 0;
#X connect 38 0 39 0;
#X connect 39 0 40 0;
#X connect 40 0 41 0;
#X connect 41 0 42 0;
#X connect 43 0 62 0;
#X connect 44 0 45 0;
#X connect 45 0 46 0;
#X connect 46 0 47 0;
#X connect 47 0 48 0;
#X connect 48 0 49 0;
#X connect 50 0 63 0;
#X connect 51 0 52 0;
#X connect 52 0 53 0;
#X connect 53 0 54 0;
#X connect 54 0 55 0;
#X connect 55 0 56 0;
#X connect 57 0 64 0;
#X connect 58 0 65 0;
#X connect 58 1 11 1;
#X connect 59 0 66 0;
#X connect 59 1 18 1;
#X connect 60 0 67 0;
#X connect 60 1 25 1;
#X connect 61 0 68 0;
#X connect 61 1 32 1;
#X connect 62 0 69 0;
#X connect 62 1 39 1;
#X connect 63 0 70 0;
#X connect 63 1 46 1;
#X connect 64 0 71 0;
#X connect 64 1 53 1;
#X connect 65 2 10 1;
#X connect 66 2 17 1;
#X connect 67 2 24 1;
#X connect 68 2 31 1;
#X connect 69 2 38 1;
#X connect 70 2 45 1;
#X connect 71 2 52 1;
#X restore 38 62 pd SIDECHAIN_MATRIX___;
#N canvas 0 22 530 344 FAUST_DSP_______ 0;
#X obj 80 44 inlet~;
#X obj 130 44 inlet~;
#X obj 180 44 inlet~;
#X obj 230 44 inlet~;
#X obj 282 44 inlet~;
#X obj 332 44 inlet~;
#X obj 382 44 inlet~;
#X obj 432 44 inlet~;
#X obj 37 44 inlet;
#X obj 37 270 s~ 1-l;
#X obj 53 251 s~ 1-r;
#X obj 68 230 s~ 2-l;
#X obj 83 211 s~ 2-r;
#X obj 99 190 s~ 3-l;
#X obj 114 171 s~ 3-r;
#X obj 130 151 s~ 4-l;
#X obj 145 132 s~ 4-r;
#X obj 161 266 s~ 5-l;
#X obj 177 247 s~ 5-r;
#X obj 192 226 s~ 6-l;
#X obj 207 207 s~ 6-r;
#X obj 223 186 s~ 7-l;
#X obj 239 167 s~ 7-r;
#X obj 254 146 s~ 8-l;
#X obj 270 127 s~ 8-r;
#X obj 37 99 faustgen~ ABSTRACTIONS/FMSynth, f 42;
#X connect 0 0 25 0;
#X connect 1 0 25 1;
#X connect 2 0 25 2;
#X connect 3 0 25 3;
#X connect 4 0 25 4;
#X connect 5 0 25 5;
#X connect 6 0 25 6;
#X connect 7 0 25 7;
#X connect 8 0 25 0;
#X connect 25 0 9 0;
#X connect 25 1 10 0;
#X connect 25 2 11 0;
#X connect 25 3 12 0;
#X connect 25 4 13 0;
#X connect 25 5 14 0;
#X connect 25 6 15 0;
#X connect 25 7 16 0;
#X connect 25 8 17 0;
#X connect 25 9 18 0;
#X connect 25 10 19 0;
#X connect 25 11 20 0;
#X connect 25 12 21 0;
#X connect 25 13 22 0;
#X connect 25 14 23 0;
#X connect 25 15 24 0;
#X restore 25 93 pd FAUST_DSP_______;
#X obj 25 42 r \$0-to-FAUST;
#X connect 0 0 1 1;
#X connect 0 1 1 2;
#X connect 0 2 1 3;
#X connect 0 3 1 4;
#X connect 0 4 1 5;
#X connect 0 5 1 6;
#X connect 0 6 1 7;
#X connect 0 7 1 8;
#X connect 2 0 1 0;
#X restore 32 217 pd FMSYNTH_____________;
#N canvas 0 120 208 408 REVERB_SENDS________ 0;
#X obj 29 57 specific.reverbsend~ 1;
#X obj 29 37 r reverb;
#X obj 29 77 r reverb;
#X obj 29 97 specific.reverbsend~ 2;
#X obj 29 117 r reverb;
#X obj 29 157 r reverb;
#X obj 29 137 specific.reverbsend~ 3;
#X obj 29 177 specific.reverbsend~ 4;
#X obj 28 205 r reverb;
#X obj 28 245 r reverb;
#X obj 28 285 r reverb;
#X obj 28 325 r reverb;
#X obj 28 225 specific.reverbsend~ 5;
#X obj 28 265 specific.reverbsend~ 6;
#X obj 28 305 specific.reverbsend~ 7;
#X obj 28 345 specific.reverbsend~ 8;
#X connect 1 0 0 0;
#X connect 2 0 3 0;
#X connect 4 0 6 0;
#X connect 5 0 7 0;
#X connect 8 0 12 0;
#X connect 9 0 13 0;
#X connect 10 0 14 0;
#X connect 11 0 15 0;
#X restore 32 258 pd REVERB_SENDS________;
#N canvas 0 248 538 564 AUDIO_OUT___________ 0;
#X obj 184 10 r~ 1-l;
#X obj 278 216 r~ 1-r;
#X obj 193 31 r~ 2-l;
#X obj 290 235 r~ 2-r;
#X obj 204 50 r~ 3-l;
#X obj 213 71 r~ 4-l;
#X obj 224 90 r~ 5-l;
#X obj 233 111 r~ 6-l;
#X obj 244 130 r~ 7-l;
#X obj 253 151 r~ 8-l;
#X obj 298 256 r~ 3-r;
#X obj 310 275 r~ 4-r;
#X obj 318 296 r~ 5-r;
#X obj 330 315 r~ 6-r;
#X obj 338 336 r~ 7-r;
#X obj 350 355 r~ 8-r;
#X obj 370 428 catch~ reverb-l;
#X obj 415 448 catch~ reverb-r;
#X obj 370 469 dac~ 3 4;
#N canvas 416 16 484 300 MASTER_REVERB 0;
#X obj 24 45 inlet~;
#X obj 24 106 flib.audio.1to2~;
#X obj 24 197 outlet~;
#X obj 246 46 inlet~;
#X obj 246 107 flib.audio.1to2~;
#X obj 247 198 outlet~;
#X obj 117 140 rev3~ 100 97 3000 5;
#X obj 117 80 r \$0-master-reverb;
#X obj 339 80 r \$0-master-reverb;
#X connect 0 0 1 0;
#X connect 1 0 2 0;
#X connect 1 1 6 0;
#X connect 3 0 4 0;
#X connect 4 0 5 0;
#X connect 4 1 6 1;
#X connect 6 0 2 0;
#X connect 6 1 5 0;
#X connect 6 2 2 0;
#X connect 6 3 5 0;
#X connect 7 0 1 1;
#X connect 8 0 4 1;
#X restore 187 425 pd MASTER_REVERB;
#X obj 235 456 dac~ 1 2;
#X obj 13 31 vu 15 120 empty empty -1 -8 0 10 -66577 -1 1 0;
#X obj 45 488 env~ 16384 8192;
#X obj 45 509 - 100;
#X obj 60 31 vu 15 120 empty empty -1 -8 0 10 -66577 -1 1 0;
#X obj 147 490 env~ 16384 8192;
#X obj 147 511 - 100;
#X obj 264 180 r~ l-l;
#X obj 359 387 r~ l-r;
#X connect 0 0 19 0;
#X connect 1 0 19 1;
#X connect 2 0 19 0;
#X connect 3 0 19 1;
#X connect 4 0 19 0;
#X connect 5 0 19 0;
#X connect 6 0 19 0;
#X connect 7 0 19 0;
#X connect 8 0 19 0;
#X connect 9 0 19 0;
#X connect 10 0 19 1;
#X connect 11 0 19 1;
#X connect 12 0 19 1;
#X connect 13 0 19 1;
#X connect 14 0 19 1;
#X connect 15 0 19 1;
#X connect 16 0 18 0;
#X connect 17 0 18 1;
#X connect 19 0 20 0;
#X connect 19 0 22 0;
#X connect 19 1 20 1;
#X connect 19 1 25 0;
#X connect 22 0 23 0;
#X connect 23 0 21 0;
#X connect 25 0 26 0;
#X connect 26 0 24 0;
#X connect 27 0 19 0;
#X connect 28 0 19 1;
#X coords 0 -1 1 1 100 145 1 10 10;
#X restore 32 278 pd AUDIO_OUT___________;
#N canvas 0 22 338 169 INIT_&_NOTES________ 0;
#X msg 18 102 MESSAGE_STRUCTURE FMSynth/<parameter><voice> value;
#X msg 18 122 MESSAGE_STRUCTURE FMSynth/Waveshape1 0.34;
#X obj 19 31 declare -path Abstractions;
#X obj 223 33 loadbang;
#X msg 223 54 \; pd dsp 1;
#X connect 3 0 4 0;
#X restore 31 25 pd INIT_&_NOTES________;
#N canvas 0 22 392 442 INTERFACE___________ 0;
#X msg 250 343 compile;
#X obj 250 322 r compile;
#X obj 252 251 r voice-param;
#X obj 252 272 list trim;
#X msg 251 202 print;
#X obj 252 293 s \$0-to-FAUST;
#X obj 250 364 s \$0-to-FAUST;
#X obj 251 223 s \$0-to-FAUST;
#N canvas 196 90 450 409 MASTER_AMP 0;
#X floatatom 103 156 5 0 1 0 - - -;
#X obj 103 223 t f b;
#X obj 103 244 until;
#X obj 103 295 i;
#X obj 129 295 + 1;
#X msg 131 268 0;
#X obj 103 177 t b a;
#X obj 129 318 pack f f;
#X msg 103 202 8;
#X msg 129 337 FMSynth/masteramp\$1 \$2;
#X obj 129 358 s \$0-to-FAUST;
#X obj 103 100 hsl 128 30 0 1 0 0 empty empty MASTER_AMP 0 8 0 10 -204800
-1 -1 12700 1;
#X obj 111 53 loadbang;
#X msg 111 74 1;
#X connect 0 0 6 0;
#X connect 1 0 2 0;
#X connect 1 1 5 0;
#X connect 2 0 3 0;
#X connect 3 0 4 0;
#X connect 4 0 3 1;
#X connect 4 0 7 0;
#X connect 5 0 3 1;
#X connect 6 0 8 0;
#X connect 6 1 7 1;
#X connect 7 0 9 0;
#X connect 8 0 1 0;
#X connect 9 0 10 0;
#X connect 11 0 0 0;
#X connect 12 0 13 0;
#X connect 13 0 11 0;
#X coords 0 -1 1 1 133 30 2 100 100;
#X restore 102 202 pd MASTER_AMP;
#N canvas 476 176 450 300 LOAD_METER 0;
#X obj 287 62 loadbang;
#X msg 287 83 1;
#X obj 287 104 metro 1000;
#X obj 287 125 t b b;
#X obj 287 146 cputime;
#X obj 287 167 int;
#X obj 287 188 * 0.1;
#X obj 107 124 nbx 3 30 -1e+37 1e+37 0 0 empty empty empty 0 -8 0 20
-204786 -1 -1 89 256;
#X connect 0 0 1 0;
#X connect 1 0 2 0;
#X connect 2 0 3 0;
#X connect 3 0 4 0;
#X connect 3 1 4 1;
#X connect 4 0 5 0;
#X connect 5 0 6 0;
#X connect 6 0 7 0;
#X coords 0 -1 1 1 85 60 1 100 100;
#X restore 102 140 pd LOAD_METER;
#X obj 102 122 bng 15 250 50 0 compile empty COMPILE 17 7 0 10 -261234
-1 -1;
#X obj 191 164 bng 15 250 50 0 empty empty PRINT 17 7 0 10 -262130
-1 -1;
#X connect 0 0 6 0;
#X connect 1 0 0 0;
#X connect 2 0 3 0;
#X connect 3 0 5 0;
#X connect 4 0 7 0;
#X connect 11 0 4 0;
#X coords 0 -1 1 1 140 134 1 100 100;
#X restore 32 77 pd INTERFACE___________;
#N canvas 1268 121 375 215 MESSAGES_IN_________ 0;
#X obj 25 176 s reverb;
#X obj 25 74 netreceive -u;
#X msg 25 53 listen 9999;
#X obj 280 119 s \$0-to-FAUST;
#X obj 88 176 s sidechain;
#X obj 25 30 loadbang;
#X obj 152 158 s \$0-master-reverb;
#X obj 25 95 route reverb sidechain master-reverb looper;
#X obj 216 140 s \$0-to-looper;
#X connect 1 0 7 0;
#X connect 2 0 1 0;
#X connect 5 0 2 0;
#X connect 7 0 0 0;
#X connect 7 1 4 0;
#X connect 7 2 6 0;
#X connect 7 3 8 0;
#X connect 7 4 3 0;
#X restore 32 54 pd MESSAGES_IN_________;
#N canvas 345 548 307 194 LOOPER______________ 0;
#N canvas 0 22 450 341 AUDIO_RECEIVES_FROM_SYNTH 0;
#X obj 100 37 r~ 1-l;
#X obj 109 58 r~ 2-l;
#X obj 120 77 r~ 3-l;
#X obj 129 98 r~ 4-l;
#X obj 140 117 r~ 5-l;
#X obj 149 138 r~ 6-l;
#X obj 160 157 r~ 7-l;
#X obj 169 178 r~ 8-l;
#X obj 253 60 r~ 1-r;
#X obj 265 79 r~ 2-r;
#X obj 273 100 r~ 3-r;
#X obj 285 119 r~ 4-r;
#X obj 293 140 r~ 5-r;
#X obj 305 159 r~ 6-r;
#X obj 313 180 r~ 7-r;
#X obj 325 199 r~ 8-r;
#X obj 242 248 +~;
#X obj 103 242 +~;
#X obj 103 263 outlet~;
#X obj 242 269 outlet~;
#X connect 0 0 17 0;
#X connect 1 0 17 0;
#X connect 2 0 17 0;
#X connect 3 0 17 0;
#X connect 4 0 17 0;
#X connect 5 0 17 0;
#X connect 6 0 17 0;
#X connect 7 0 17 0;
#X connect 8 0 16 1;
#X connect 9 0 16 1;
#X connect 10 0 16 1;
#X connect 11 0 16 1;
#X connect 12 0 16 1;
#X connect 13 0 16 1;
#X connect 14 0 16 1;
#X connect 15 0 16 1;
#X connect 16 0 19 0;
#X connect 17 0 18 0;
#X restore 60 61 pd AUDIO_RECEIVES_FROM_SYNTH;
#X obj 60 87 faustgen~ looper;
#X obj 38 37 r \$0-to-looper;
#X obj 60 108 s~ l-l;
#X obj 106 109 s~ l-r;
#X connect 0 0 1 0;
#X connect 0 1 1 1;
#X connect 1 0 3 0;
#X connect 1 1 4 0;
#X connect 2 0 1 0;
#X restore 32 238 pd LOOPER______________;
