#N canvas 463 61 252 152 12;
#X declare -path audioabstractions;
#X declare -path externals;
#X obj 158 70 loadbang;
#X msg 158 94 \; pd dsp 1;
#N canvas 0 54 274 312 MESSAGE_RECEIVE 0;
#X msg 58 94 listen 51984;
#X obj 58 29 loadbang;
#X obj 58 63 del 1000;
#X obj 111 197 s \$0-formuls;
#X obj 58 159 route pd;
#X msg 58 242 \; pd quit;
#X obj 58 125 netreceive -u;
#X connect 0 0 6 0;
#X connect 1 0 2 0;
#X connect 2 0 0 0;
#X connect 4 0 5 0;
#X connect 4 1 3 0;
#X connect 6 0 4 0;
#X restore 16 76 pd MESSAGE_RECEIVE;
#N canvas 691 104 286 301 AUDIO__________ 0;
#X obj 66 80 f.formuls~ 1;
#X obj 66 48 r \$0-formuls;
#N canvas 1234 587 484 333 MASTER_BUS_FX_+_AUDIO_OUT 0;
#X obj 39 19 inlet;
#X obj 39 301 s \$0-reverb-bypass;
#X obj 39 73 route fmasterbusfx;
#N canvas 461 287 711 510 MASTER_BUS_FX____________ 0;
#X obj 62 42 inlet~;
#X obj 62 444 outlet~;
#X obj 114 42 inlet~;
#X obj 127 445 outlet~;
#X obj 372 201 *~;
#X obj 474 200 *~;
#X obj 492 93 r \$0-reverb-bypass;
#X obj 492 117 == 0;
#X obj 492 166 lop~ 100;
#X obj 492 142 sig~ 1;
#X obj 372 446 outlet~;
#X obj 474 447 outlet~;
#X obj 18 42 inlet;
#X obj 372 56 catch~ rev-l;
#X obj 474 56 catch~ rev-r;
#X obj 372 370 *~;
#X obj 474 370 *~;
#X obj 492 287 == 0;
#X obj 492 336 lop~ 100;
#X obj 492 312 sig~ 1;
#X obj 492 262 route reverblimiterlevel;
#X obj 39 88 s \$0-to-rev-control;
#X obj 492 235 r \$0-to-rev-control;
#X obj 114 135 hip~ 5;
#X obj 62 135 hip~ 5;
#N canvas 578 288 366 369 REPEATER____ 0;
#X obj 39 8 inlet;
#X obj 220 309 outlet reject;
#N canvas 0 38 1326 526 REPEATER_INPUT_SELECT 0;
#X obj 45 348 outlet~;
#X obj 49 211 *~;
#X obj 67 160 sig~;
#X obj 67 184 lop~ 100;
#X obj 67 79 route 0 1 2 3 4 5;
#X obj 196 210 *~;
#X obj 214 159 sig~;
#X obj 214 183 lop~ 100;
#X obj 339 212 *~;
#X obj 357 161 sig~;
#X obj 357 185 lop~ 100;
#X obj 480 212 *~;
#X obj 498 161 sig~;
#X obj 498 185 lop~ 100;
#X obj 628 212 *~;
#X obj 646 161 sig~;
#X obj 646 185 lop~ 100;
#X obj 776 212 *~;
#X obj 794 161 sig~;
#X obj 794 185 lop~ 100;
#X obj 67 49 inlet;
#X obj 208 321 r~ \$0-fre-rep;
#X obj 906 352 outlet~;
#X obj 49 249 throw~ \$0-rep-out-l;
#X obj 45 321 catch~ \$0-rep-out-l;
#X obj 196 250 throw~ \$0-rep-out-l;
#X obj 339 251 throw~ \$0-rep-out-l;
#X obj 480 251 throw~ \$0-rep-out-l;
#X obj 628 251 throw~ \$0-rep-out-l;
#X obj 776 251 throw~ \$0-rep-out-l;
#X obj 957 223 *~;
#X obj 975 172 sig~;
#X obj 975 196 lop~ 100;
#X obj 975 91 route 0 1 2 3 4 5;
#X obj 1104 222 *~;
#X obj 1122 171 sig~;
#X obj 1122 195 lop~ 100;
#X obj 1247 224 *~;
#X obj 1265 173 sig~;
#X obj 1265 197 lop~ 100;
#X obj 1388 224 *~;
#X obj 1406 173 sig~;
#X obj 1406 197 lop~ 100;
#X obj 1536 224 *~;
#X obj 1554 173 sig~;
#X obj 1554 197 lop~ 100;
#X obj 1684 224 *~;
#X obj 1702 173 sig~;
#X obj 1702 197 lop~ 100;
#X obj 957 261 throw~ \$0-rep-out-r;
#X obj 905 311 catch~ \$0-rep-out-r;
#X obj 1104 262 throw~ \$0-rep-out-r;
#X obj 1247 263 throw~ \$0-rep-out-r;
#X obj 1388 263 throw~ \$0-rep-out-r;
#X obj 1536 263 throw~ \$0-rep-out-r;
#X obj 1684 263 throw~ \$0-rep-out-r;
#X obj 957 139 r~ 1-m-r;
#X obj 1104 138 r~ 2-m-r;
#X obj 1247 140 r~ 3-m-r;
#X obj 1388 140 r~ 4-m-r;
#X obj 1536 139 r~ 5-m-r;
#X obj 1684 140 r~ 6-m-r;
#X obj 49 127 r~ 1-m-l;
#X obj 196 126 r~ 2-m-l;
#X obj 339 128 r~ 3-m-l;
#X obj 480 128 r~ 4-m-l;
#X obj 628 127 r~ 5-m-l;
#X obj 776 128 r~ 6-m-l;
#X connect 1 0 23 0;
#X connect 2 0 3 0;
#X connect 3 0 1 1;
#X connect 4 0 2 0;
#X connect 4 1 6 0;
#X connect 4 2 9 0;
#X connect 4 3 12 0;
#X connect 4 4 15 0;
#X connect 4 5 18 0;
#X connect 5 0 25 0;
#X connect 6 0 7 0;
#X connect 7 0 5 1;
#X connect 8 0 26 0;
#X connect 9 0 10 0;
#X connect 10 0 8 1;
#X connect 11 0 27 0;
#X connect 12 0 13 0;
#X connect 13 0 11 1;
#X connect 14 0 28 0;
#X connect 15 0 16 0;
#X connect 16 0 14 1;
#X connect 17 0 29 0;
#X connect 18 0 19 0;
#X connect 19 0 17 1;
#X connect 20 0 4 0;
#X connect 20 0 33 0;
#X connect 21 0 0 0;
#X connect 21 0 22 0;
#X connect 24 0 0 0;
#X connect 30 0 49 0;
#X connect 31 0 32 0;
#X connect 32 0 30 1;
#X connect 33 0 31 0;
#X connect 33 1 35 0;
#X connect 33 2 38 0;
#X connect 33 3 41 0;
#X connect 33 4 44 0;
#X connect 33 5 47 0;
#X connect 34 0 51 0;
#X connect 35 0 36 0;
#X connect 36 0 34 1;
#X connect 37 0 52 0;
#X connect 38 0 39 0;
#X connect 39 0 37 1;
#X connect 40 0 53 0;
#X connect 41 0 42 0;
#X connect 42 0 40 1;
#X connect 43 0 54 0;
#X connect 44 0 45 0;
#X connect 45 0 43 1;
#X connect 46 0 55 0;
#X connect 47 0 48 0;
#X connect 48 0 46 1;
#X connect 50 0 22 0;
#X connect 56 0 30 0;
#X connect 57 0 34 0;
#X connect 58 0 37 0;
#X connect 59 0 40 0;
#X connect 60 0 43 0;
#X connect 61 0 46 0;
#X connect 62 0 1 0;
#X connect 63 0 5 0;
#X connect 64 0 8 0;
#X connect 65 0 11 0;
#X connect 66 0 14 0;
#X connect 67 0 17 0;
#X restore 38 138 pd REPEATER_INPUT_SELECT;
#X obj 38 268 outlet~;
#X obj 38 162 hip~ 5;
#X obj 168 271 outlet~;
#X obj 168 165 hip~ 5;
#X obj 56 230 f_repeater~;
#X obj 38 58 route repeaterinput;
#X obj 38 202 f_digitaliser~;
#X connect 0 0 8 0;
#X connect 2 0 4 0;
#X connect 2 1 6 0;
#X connect 4 0 9 1;
#X connect 6 0 9 2;
#X connect 7 1 3 0;
#X connect 7 2 5 0;
#X connect 8 0 2 0;
#X connect 8 1 1 0;
#X connect 8 1 7 0;
#X connect 8 1 9 0;
#X connect 9 1 7 1;
#X connect 9 2 7 2;
#X restore 19 239 pd REPEATER____;
#X obj 117 382 s~ 7-m;
#X obj 559 448 outlet~;
#X obj 622 449 outlet~;
#N canvas 834 601 550 435 REVERB______ 0;
#X obj 330 28 inlet~;
#X obj 385 29 inlet~;
#X obj 409 362 outlet~;
#X obj 330 359 outlet~;
#X obj 330 319 lop~ 6000;
#X obj 409 318 lop~ 6000;
#X obj 22 127 loadbang;
#X msg 227 162 diffusion 0.3;
#X msg 97 162 size 1;
#X msg 151 162 damping 0;
#X msg 22 163 revtime 4;
#X obj 307 229 f_reverb~;
#X connect 0 0 11 1;
#X connect 1 0 11 2;
#X connect 4 0 3 0;
#X connect 5 0 2 0;
#X connect 6 0 8 0;
#X connect 6 0 9 0;
#X connect 6 0 7 0;
#X connect 6 0 10 0;
#X connect 7 0 11 0;
#X connect 8 0 11 0;
#X connect 9 0 11 0;
#X connect 10 0 11 0;
#X connect 11 1 4 0;
#X connect 11 2 5 0;
#X restore 372 231 pd REVERB______;
#X obj 51 344 f_limiter~;
#X obj 42 193 f_digitaliser~;
#X obj 150 315 *~;
#X obj 182 314 *~;
#X obj 168 283 lop~ 100;
#X obj 168 209 route reverblimiterlevel;
#X obj 168 182 r \$0-to-rev-control;
#X obj 168 259 sig~ 0;
#X obj 168 234 == 1;
#X connect 0 0 24 0;
#X connect 2 0 23 0;
#X connect 4 0 29 0;
#X connect 5 0 29 1;
#X connect 6 0 7 0;
#X connect 7 0 9 0;
#X connect 8 0 5 1;
#X connect 8 0 4 1;
#X connect 9 0 8 0;
#X connect 12 0 21 0;
#X connect 12 0 25 0;
#X connect 12 0 31 0;
#X connect 13 0 4 0;
#X connect 14 0 5 0;
#X connect 15 0 10 0;
#X connect 15 0 1 0;
#X connect 16 0 11 0;
#X connect 16 0 3 0;
#X connect 17 0 19 0;
#X connect 18 0 16 1;
#X connect 18 0 15 1;
#X connect 19 0 18 0;
#X connect 20 0 17 0;
#X connect 22 0 20 0;
#X connect 23 0 31 2;
#X connect 24 0 31 1;
#X connect 25 0 30 1;
#X connect 25 0 27 0;
#X connect 25 1 30 2;
#X connect 25 1 28 0;
#X connect 25 2 30 0;
#X connect 29 0 15 0;
#X connect 29 0 32 0;
#X connect 29 1 16 0;
#X connect 29 1 33 0;
#X connect 30 1 26 0;
#X connect 30 1 1 0;
#X connect 30 2 26 0;
#X connect 30 2 3 0;
#X connect 31 1 30 1;
#X connect 31 2 30 2;
#X connect 32 0 30 1;
#X connect 33 0 30 2;
#X connect 34 0 33 1;
#X connect 34 0 32 1;
#X connect 35 0 38 0;
#X connect 36 0 35 0;
#X connect 37 0 34 0;
#X connect 38 0 37 0;
#X restore 232 200 pd MASTER_BUS_FX____________;
#N canvas 328 25 782 443 AUDIO_RECEIVES_&_MULTI_OUT 0;
#X obj 49 107 r~ 1-l;
#X obj 171 99 r~ 1-r;
#X obj 59 128 r~ 2-l;
#X obj 180 120 r~ 2-r;
#X obj 68 149 r~ 3-l;
#X obj 187 141 r~ 3-r;
#X obj 78 169 r~ 4-l;
#X obj 88 190 r~ 5-l;
#X obj 97 211 r~ 6-l;
#X obj 197 162 r~ 4-r;
#X obj 206 183 r~ 5-r;
#X obj 213 204 r~ 6-r;
#X obj 49 358 outlet~;
#X obj 170 358 outlet~;
#X text 15 12 receive audio sends from formulssynth~ abstraction;
#X obj 302 201 r~ 1-l;
#X obj 322 224 r~ 1-r;
#X obj 302 253 *~ 0.5;
#X obj 376 251 *~ 0.5;
#X obj 452 250 *~ 0.5;
#X obj 526 248 *~ 0.5;
#X obj 601 247 *~ 0.5;
#X obj 675 245 *~ 0.5;
#X obj 376 199 r~ 2-l;
#X obj 396 222 r~ 2-r;
#X obj 452 198 r~ 3-l;
#X obj 472 221 r~ 3-r;
#X obj 526 196 r~ 4-l;
#X obj 546 219 r~ 4-r;
#X obj 601 195 r~ 5-l;
#X obj 622 218 r~ 5-r;
#X obj 675 193 r~ 6-l;
#X obj 695 216 r~ 6-r;
#X obj 302 302 dac~ 7 8 9 10 11 12;
#X connect 0 0 12 0;
#X connect 1 0 13 0;
#X connect 2 0 12 0;
#X connect 3 0 13 0;
#X connect 4 0 12 0;
#X connect 5 0 13 0;
#X connect 6 0 12 0;
#X connect 7 0 12 0;
#X connect 8 0 12 0;
#X connect 9 0 13 0;
#X connect 10 0 13 0;
#X connect 11 0 13 0;
#X connect 15 0 17 0;
#X connect 16 0 17 0;
#X connect 17 0 33 0;
#X connect 18 0 33 1;
#X connect 19 0 33 2;
#X connect 20 0 33 3;
#X connect 21 0 33 4;
#X connect 22 0 33 5;
#X connect 23 0 18 0;
#X connect 24 0 18 0;
#X connect 25 0 19 0;
#X connect 26 0 19 0;
#X connect 27 0 20 0;
#X connect 28 0 20 0;
#X connect 29 0 21 0;
#X connect 30 0 21 0;
#X connect 31 0 22 0;
#X connect 32 0 22 0;
#X restore 240 135 pd AUDIO_RECEIVES_&_MULTI_OUT;
#N canvas 313 170 886 617 ROLLINGFREEZER___________ 0;
#X obj 686 56 inlet~;
#X obj 457 518 outlet~;
#X obj 9 36 inlet;
#X obj 363 521 outlet;
#X obj 552 515 outlet~;
#X text 350 554 message reject;
#X obj 782 55 inlet~;
#X obj 686 524 outlet~;
#X obj 686 414 *~;
#X obj 723 355 lop~ 100;
#X obj 723 379 *~;
#X obj 782 521 outlet~;
#X obj 782 415 *~;
#X obj 723 331 sig~ 1;
#X msg 117 335 transpose \$1;
#X obj 117 359 s \$0-freeze;
#X obj 540 166 r \$0-freeze;
#X obj 215 274 s \$0-freeze;
#X msg 215 250 freeze \$1 \$2;
#X text 484 545 wet signal;
#X text 750 545 dry signal;
#X obj 9 438 s \$0-freeze;
#X msg 9 414 level \$1;
#X msg 274 192 input \$1 \$2;
#X obj 274 216 s \$0-freeze;
#X obj 58 389 s \$0-dry-level;
#X obj 723 303 r \$0-dry-level;
#X obj 118 240 - 0.5;
#X obj 117 287 i;
#X obj 118 264 * 7;
#X obj 117 311 * 12;
#X obj 176 304 s \$0-repeater-send;
#X obj 457 347 *~;
#X obj 475 321 f.audio.crossfade~;
#X obj 475 296 r \$0-repeater-send;
#X obj 580 347 *~;
#N canvas 0 38 1512 456 FREEZE_INPUT_SELECT 0;
#X obj 40 378 outlet~;
#X obj 49 211 *~;
#X obj 67 160 sig~;
#X obj 67 184 lop~ 100;
#X obj 121 35 r \$0-freeze;
#X obj 121 89 route 0 1 2 3 4 5;
#X obj 216 210 *~;
#X obj 234 159 sig~;
#X obj 234 183 lop~ 100;
#X obj 389 212 *~;
#X obj 407 161 sig~;
#X obj 407 185 lop~ 100;
#X obj 559 212 *~;
#X obj 577 161 sig~;
#X obj 577 185 lop~ 100;
#X obj 727 212 *~;
#X obj 745 161 sig~;
#X obj 745 185 lop~ 100;
#X obj 895 212 *~;
#X obj 913 161 sig~;
#X obj 913 185 lop~ 100;
#X obj 121 59 route input;
#X obj 49 127 r~ 1-m-l;
#X obj 216 126 r~ 2-m-l;
#X obj 389 128 r~ 3-m-l;
#X obj 559 128 r~ 4-m-l;
#X obj 727 127 r~ 5-m-l;
#X obj 895 128 r~ 6-m-l;
#X obj 48 270 throw~ \$0-rol-fre-out-l;
#X obj 216 270 throw~ \$0-rol-fre-out-l;
#X obj 389 271 throw~ \$0-rol-fre-out-l;
#X obj 559 271 throw~ \$0-rol-fre-out-l;
#X obj 727 271 throw~ \$0-rol-fre-out-l;
#X obj 895 271 throw~ \$0-rol-fre-out-l;
#X obj 40 351 catch~ \$0-rol-fre-out-l;
#X obj 1104 388 outlet~;
#X obj 1113 221 *~;
#X obj 1131 170 sig~;
#X obj 1131 194 lop~ 100;
#X obj 1185 99 route 0 1 2 3 4 5;
#X obj 1280 220 *~;
#X obj 1298 169 sig~;
#X obj 1298 193 lop~ 100;
#X obj 1453 222 *~;
#X obj 1471 171 sig~;
#X obj 1471 195 lop~ 100;
#X obj 1623 222 *~;
#X obj 1641 171 sig~;
#X obj 1641 195 lop~ 100;
#X obj 1791 222 *~;
#X obj 1809 171 sig~;
#X obj 1809 195 lop~ 100;
#X obj 1959 222 *~;
#X obj 1977 171 sig~;
#X obj 1977 195 lop~ 100;
#X obj 1113 137 r~ 1-m-r;
#X obj 1280 136 r~ 2-m-r;
#X obj 1453 138 r~ 3-m-r;
#X obj 1623 138 r~ 4-m-r;
#X obj 1791 137 r~ 5-m-r;
#X obj 1959 138 r~ 6-m-r;
#X obj 1112 280 throw~ \$0-rol-fre-out-r;
#X obj 1280 280 throw~ \$0-rol-fre-out-r;
#X obj 1453 281 throw~ \$0-rol-fre-out-r;
#X obj 1623 281 throw~ \$0-rol-fre-out-r;
#X obj 1791 281 throw~ \$0-rol-fre-out-r;
#X obj 1959 281 throw~ \$0-rol-fre-out-r;
#X obj 1104 361 catch~ \$0-rol-fre-out-r;
#X connect 1 0 28 0;
#X connect 2 0 3 0;
#X connect 3 0 1 1;
#X connect 4 0 21 0;
#X connect 5 0 2 0;
#X connect 5 1 7 0;
#X connect 5 2 10 0;
#X connect 5 3 13 0;
#X connect 5 4 16 0;
#X connect 5 5 19 0;
#X connect 6 0 29 0;
#X connect 7 0 8 0;
#X connect 8 0 6 1;
#X connect 9 0 30 0;
#X connect 10 0 11 0;
#X connect 11 0 9 1;
#X connect 12 0 31 0;
#X connect 13 0 14 0;
#X connect 14 0 12 1;
#X connect 15 0 32 0;
#X connect 16 0 17 0;
#X connect 17 0 15 1;
#X connect 18 0 33 0;
#X connect 19 0 20 0;
#X connect 20 0 18 1;
#X connect 21 0 5 0;
#X connect 21 0 39 0;
#X connect 22 0 1 0;
#X connect 23 0 6 0;
#X connect 24 0 9 0;
#X connect 25 0 12 0;
#X connect 26 0 15 0;
#X connect 27 0 18 0;
#X connect 34 0 0 0;
#X connect 36 0 61 0;
#X connect 37 0 38 0;
#X connect 38 0 36 1;
#X connect 39 0 37 0;
#X connect 39 1 41 0;
#X connect 39 2 44 0;
#X connect 39 3 47 0;
#X connect 39 4 50 0;
#X connect 39 5 53 0;
#X connect 40 0 62 0;
#X connect 41 0 42 0;
#X connect 42 0 40 1;
#X connect 43 0 63 0;
#X connect 44 0 45 0;
#X connect 45 0 43 1;
#X connect 46 0 64 0;
#X connect 47 0 48 0;
#X connect 48 0 46 1;
#X connect 49 0 65 0;
#X connect 50 0 51 0;
#X connect 51 0 49 1;
#X connect 52 0 66 0;
#X connect 53 0 54 0;
#X connect 54 0 52 1;
#X connect 55 0 36 0;
#X connect 56 0 40 0;
#X connect 57 0 43 0;
#X connect 58 0 46 0;
#X connect 59 0 49 0;
#X connect 60 0 52 0;
#X connect 67 0 35 0;
#X restore 457 130 pd FREEZE_INPUT_SELECT;
#X obj 580 374 s~ \$0-fre-rep;
#X obj 9 70 route rollingfreezerwetlevel rollingfreezerdrylevel rollingfreezertranspose
rollingfreezerrepeatersend rollingfreezerfreeze rollingfreezerinput
rollingfreezerfeedback;
#X msg 310 136 feedback \$1;
#X obj 310 160 s \$0-freeze;
#X obj 457 193 f.audio.rollingfreezer~;
#X connect 0 0 8 0;
#X connect 2 0 38 0;
#X connect 6 0 12 0;
#X connect 8 0 7 0;
#X connect 9 0 10 0;
#X connect 9 0 10 1;
#X connect 10 0 8 1;
#X connect 10 0 12 1;
#X connect 12 0 11 0;
#X connect 13 0 9 0;
#X connect 14 0 15 0;
#X connect 16 0 41 1;
#X connect 18 0 17 0;
#X connect 22 0 21 0;
#X connect 23 0 24 0;
#X connect 26 0 13 0;
#X connect 27 0 29 0;
#X connect 28 0 30 0;
#X connect 29 0 28 0;
#X connect 30 0 14 0;
#X connect 32 0 1 0;
#X connect 32 0 4 0;
#X connect 33 0 32 1;
#X connect 33 1 35 1;
#X connect 34 0 33 0;
#X connect 35 0 37 0;
#X connect 36 0 41 0;
#X connect 36 1 41 0;
#X connect 38 0 22 0;
#X connect 38 1 25 0;
#X connect 38 2 27 0;
#X connect 38 3 31 0;
#X connect 38 4 18 0;
#X connect 38 5 23 0;
#X connect 38 6 39 0;
#X connect 38 7 3 0;
#X connect 39 0 40 0;
#X connect 41 0 32 0;
#X connect 41 0 35 0;
#X restore 232 169 pd ROLLINGFREEZER___________;
#N canvas 0 38 611 292 AUDIO_SAFETY_____________ 0;
#X obj 41 31 inlet~;
#X obj 41 205 *~;
#X obj 41 229 outlet~;
#X obj 411 137 sig~ 0;
#X obj 411 161 lop~ 100;
#X obj 108 32 inlet~;
#X obj 108 206 *~;
#X obj 108 230 outlet~;
#X obj 176 31 inlet~;
#X obj 176 205 *~;
#X obj 176 229 outlet~;
#X obj 243 32 inlet~;
#X obj 243 206 *~;
#X obj 243 230 outlet~;
#X obj 411 65 loadbang;
#X obj 411 89 del 5000;
#X obj 477 76 r \$0-master-amp;
#X obj 306 31 inlet~;
#X obj 306 205 *~;
#X obj 306 229 outlet~;
#X obj 373 32 inlet~;
#X obj 373 206 *~;
#X obj 373 230 outlet~;
#X msg 411 113 1;
#X obj 477 100 * 1;
#X connect 0 0 1 0;
#X connect 1 0 2 0;
#X connect 3 0 4 0;
#X connect 4 0 1 1;
#X connect 4 0 6 1;
#X connect 4 0 9 1;
#X connect 4 0 12 1;
#X connect 4 0 18 1;
#X connect 4 0 21 1;
#X connect 5 0 6 0;
#X connect 6 0 7 0;
#X connect 8 0 9 0;
#X connect 9 0 10 0;
#X connect 11 0 12 0;
#X connect 12 0 13 0;
#X connect 14 0 15 0;
#X connect 15 0 23 0;
#X connect 16 0 24 0;
#X connect 17 0 18 0;
#X connect 18 0 19 0;
#X connect 20 0 21 0;
#X connect 21 0 22 0;
#X connect 23 0 3 0;
#X connect 24 0 3 0;
#X restore 232 227 pd AUDIO_SAFETY_____________;
#X obj 39 102 route reverbbypass masteramp;
#X obj 135 277 s \$0-master-amp;
#X obj 232 252 dac~ 1 2 3 4 5 6, f 28;
#X connect 0 0 2 0;
#X connect 2 0 7 0;
#X connect 3 0 6 0;
#X connect 3 1 6 1;
#X connect 3 2 6 2;
#X connect 3 3 6 3;
#X connect 3 4 6 4;
#X connect 3 5 6 5;
#X connect 4 0 5 1;
#X connect 4 1 5 2;
#X connect 5 0 3 0;
#X connect 5 1 3 1;
#X connect 5 2 3 2;
#X connect 5 3 3 1;
#X connect 5 4 3 2;
#X connect 6 0 9 0;
#X connect 6 1 9 1;
#X connect 6 2 9 2;
#X connect 6 3 9 3;
#X connect 6 4 9 4;
#X connect 6 5 9 5;
#X connect 7 0 1 0;
#X connect 7 1 8 0;
#X connect 7 2 5 0;
#X restore 66 236 pd MASTER_BUS_FX_+_AUDIO_OUT;
#X obj 66 104 f.formuls~ 2;
#X obj 66 128 f.formuls~ 3;
#X obj 66 152 f.formuls~ 4;
#X obj 66 176 f.formuls~ 5;
#X obj 66 200 f.formuls~ 6;
#X connect 0 0 3 0;
#X connect 1 0 0 0;
#X connect 3 0 4 0;
#X connect 4 0 5 0;
#X connect 5 0 6 0;
#X connect 6 0 7 0;
#X connect 7 0 2 0;
#X restore 16 100 pd AUDIO__________;
#X obj 15 16 declare -path audioabstractions;
#X obj 15 39 declare -path externals;
#X connect 0 0 1 0;
