#N canvas 21 435 264 432 10;
#X declare -path abstractions;
#X obj 37 201 tgl 15 1 empty empty empty 17 7 0 10 -262144 -1 -1 1
1;
#X obj 37 109 tgl 15 0 empty empty empty 17 7 0 10 -262144 -1 -1 0
1;
#N canvas 0 473 291 114 ABLETON_LINK_&_TIMING 0;
#N canvas 0 94 375 215 AUTOMATER_TIMING 0;
#X obj 126 105 loadbang;
#X obj 126 163 s master-throttle;
#X obj 126 141 metro 80;
#X obj 239 142 metro 10;
#X obj 239 164 s master-timer-in;
#X obj 32 40 inlet;
#X obj 32 100 i;
#X obj 32 121 change;
#X obj 32 142 t b;
#X obj 32 163 s masterClock;
#X connect 0 0 2 0;
#X connect 0 0 3 0;
#X connect 2 0 1 0;
#X connect 3 0 4 0;
#X connect 5 0 6 0;
#X connect 6 0 7 0;
#X connect 7 0 8 0;
#X connect 8 0 9 0;
#X restore 21 56 pd AUTOMATER_TIMING;
#N canvas 716 144 450 300 SEQUENCER_TIMING 0;
#X floatatom 117 183 5 0 0 1 beat_time - -;
#X obj 138 207 s link;
#X obj 43 116 abl_link~ 1 0 4 110;
#X msg 43 94 tempo \$1;
#X floatatom 43 75 5 0 0 2 tempo - -;
#X obj 117 162 spigot 1;
#X obj 162 138 r master-seq-on-off;
#X obj 41 40 r \$0-bpm;
#X obj 117 228 outlet;
#X msg 297 108 60000 \$1;
#X obj 297 129 /;
#X obj 297 150 * 16;
#X obj 297 171 s recordtime;
#X connect 0 0 1 0;
#X connect 0 0 8 0;
#X connect 2 2 5 0;
#X connect 3 0 2 0;
#X connect 4 0 3 0;
#X connect 4 0 9 0;
#X connect 5 0 0 0;
#X connect 6 0 5 1;
#X connect 7 0 4 0;
#X connect 9 0 10 0;
#X connect 10 0 11 0;
#X connect 11 0 12 0;
#X restore 21 32 pd SEQUENCER_TIMING;
#X connect 1 0 0 0;
#X restore 54 146 pd ABLETON_LINK_&_TIMING;
#N canvas 289 473 254 261 FORMULS______________ 1;
#X obj 58 40 f.audio.formuls~ \$0 1;
#X obj 58 60 f.audio.formuls~ \$0 2;
#X obj 58 80 f.audio.formuls~ \$0 3;
#X obj 58 100 f.audio.formuls~ \$0 4;
#X obj 58 120 f.audio.formuls~ \$0 5;
#X obj 58 140 f.audio.formuls~ \$0 6;
#X obj 58 165 f.audio.flooper~ \$0 7;
#X obj 58 185 f.audio.flooper~ \$0 8;
#X restore 54 165 pd FORMULS______________;
#X obj 55 9 cnv 15 148 60 empty empty FORMULS 33 29 0 20 -204786 -13381
0;
#N canvas 0 432 288 192 AUDIO_OUT____________ 0;
#N canvas 0 23 465 690 compressor 0;
#X obj 28 28 inlet~;
#X obj 176 20 inlet~;
#X obj 27 543 outlet~;
#X obj 177 544 outlet~;
#X obj 58 71 hip~ 5;
#X obj 121 71 hip~ 5;
#X obj 58 97 *~;
#X obj 120 98 *~;
#X obj 87 158 +~;
#X obj 87 281 rmstodb~;
#X obj 86 353 dbtorms~;
#X obj 27 484 *~;
#X obj 177 484 *~;
#X obj 25 272 /~;
#X obj 178 270 /~;
#X obj 201 390 dbtorms;
#X obj 86 417 /~ 0;
#X obj 86 197 sqrt~;
#X obj 86 442 *~ 0.25;
#X obj 310 55 loadbang;
#X obj 27 514 expr~ tanh($v1);
#X obj 177 514 expr~ tanh($v1);
#X obj 310 79 f 48;
#X obj 87 233 lop~ 10;
#X obj 120 123 lop~ 10;
#X obj 57 124 lop~ 10;
#X obj 86 314 expr~ if($v1>$f2 \, $f2+($v1-$f2)/4 \, $f2);
#X obj 202 367 expr (100-$f1)/4+$f1;
#X obj 315 445 env~;
#X obj 315 466 dbtorms;
#X floatatom 315 487 5 0 0 0 - - -;
#X obj 288 536 env~;
#X obj 288 557 dbtorms;
#X floatatom 288 578 5 0 0 0 - - -;
#X connect 0 0 4 0;
#X connect 0 0 13 0;
#X connect 1 0 5 0;
#X connect 1 0 14 0;
#X connect 4 0 6 0;
#X connect 4 0 6 1;
#X connect 5 0 7 0;
#X connect 5 0 7 1;
#X connect 6 0 25 0;
#X connect 7 0 24 0;
#X connect 8 0 17 0;
#X connect 9 0 26 0;
#X connect 10 0 16 0;
#X connect 11 0 20 0;
#X connect 12 0 21 0;
#X connect 13 0 11 0;
#X connect 14 0 12 0;
#X connect 15 0 16 1;
#X connect 16 0 18 0;
#X connect 17 0 23 0;
#X connect 18 0 11 1;
#X connect 18 0 12 1;
#X connect 18 0 28 0;
#X connect 19 0 22 0;
#X connect 20 0 2 0;
#X connect 21 0 31 0;
#X connect 21 0 3 0;
#X connect 22 0 26 1;
#X connect 22 0 27 0;
#X connect 23 0 13 1;
#X connect 23 0 14 1;
#X connect 23 0 9 0;
#X connect 24 0 8 1;
#X connect 25 0 8 0;
#X connect 26 0 10 0;
#X connect 27 0 15 0;
#X connect 28 0 29 0;
#X connect 29 0 30 0;
#X connect 31 0 32 0;
#X connect 32 0 33 0;
#X restore 34 18 pd compressor;
#N canvas 328 23 380 326 AUDIO_RECEIVES___ 0;
#X obj 49 77 r~ 1-l;
#X obj 171 74 r~ 1-r;
#X obj 59 98 r~ 2-l;
#X obj 180 94 r~ 2-r;
#X obj 68 119 r~ 3-l;
#X obj 187 114 r~ 3-r;
#X obj 78 139 r~ 4-l;
#X obj 88 160 r~ 5-l;
#X obj 97 181 r~ 6-l;
#X obj 197 134 r~ 4-r;
#X obj 206 154 r~ 5-r;
#X obj 213 174 r~ 6-r;
#X obj 49 258 outlet~;
#X obj 170 258 outlet~;
#X text 6 24 receive audio sends from formulssynth~ abstraction;
#X obj 107 201 r~ 7-l;
#X obj 224 194 r~ 7-r;
#X connect 0 0 12 0;
#X connect 1 0 13 0;
#X connect 2 0 12 0;
#X connect 3 0 13 0;
#X connect 4 0 12 0;
#X connect 5 0 13 0;
#X connect 6 0 12 0;
#X connect 7 0 12 0;
#X connect 8 0 12 0;
#X connect 9 0 13 0;
#X connect 10 0 13 0;
#X connect 11 0 13 0;
#X connect 15 0 12 0;
#X connect 16 0 13 0;
#X restore 34 43 pd AUDIO_RECEIVES___;
#N canvas 694 175 291 393 REVERB___________ 0;
#X obj 65 10 inlet~;
#X obj 146 10 inlet~;
#X obj 64 364 outlet~;
#X obj 145 364 outlet~;
#X obj 146 31 s~ \$0-r;
#X obj 65 31 s~ \$0-l;
#X obj 64 318 r~ \$0-l;
#X obj 145 318 r~ \$0-r;
#X obj 112 178 r \$0-reverb-amount;
#X obj 112 199 clip 0 99;
#X obj 73 337 r~ \$0-rev-l;
#X obj 151 337 r~ \$0-rev-r;
#X obj 66 147 hip~ 140;
#X obj 121 145 hip~ 140;
#X obj 66 221 rev3~ 100 90 3000 20;
#X obj 67 83 catch~ \$0-rev-l;
#X obj 112 104 catch~ \$0-rev-r;
#N canvas 0 23 450 300 delay 0;
#X obj 72 129 delwrite~ \$0-this-l 100;
#X obj 232 119 delwrite~ \$0-this-r 100;
#X obj 84 207 outlet~;
#X obj 240 208 outlet~;
#X obj 72 108 inlet~;
#X obj 232 99 inlet~;
#X obj 84 186 delread~ \$0-this-l 50;
#X obj 240 187 delread~ \$0-this-r 50;
#X connect 4 0 0 0;
#X connect 5 0 1 0;
#X connect 6 0 2 0;
#X connect 7 0 3 0;
#X restore 67 127 pd delay;
#X obj 105 244 s~ \$0-rev-r;
#X obj 66 264 s~ \$0-rev-l;
#X connect 0 0 5 0;
#X connect 1 0 4 0;
#X connect 6 0 2 0;
#X connect 7 0 3 0;
#X connect 8 0 9 0;
#X connect 9 0 14 2;
#X connect 10 0 2 0;
#X connect 11 0 3 0;
#X connect 12 0 14 0;
#X connect 13 0 14 1;
#X connect 14 0 19 0;
#X connect 14 1 18 0;
#X connect 15 0 17 0;
#X connect 16 0 17 1;
#X connect 17 0 12 0;
#X connect 17 1 13 0;
#X restore 34 68 pd REVERB___________;
#N canvas 342 396 385 331 LIMITER_RECORD___ 0;
#X obj 164 25 inlet~;
#X obj 185 116 limiter~ 1 2;
#X obj 165 176 *~;
#X obj 165 155 z~ 64;
#X obj 165 267 outlet~;
#X obj 273 26 inlet~;
#X obj 272 178 *~;
#X obj 272 157 z~ 64;
#X obj 272 269 outlet~;
#X obj 194 68 loadbang;
#X msg 194 88 limit 90;
#X obj 22 182 r \$0-audio-record;
#X obj 22 209 f.audio.stereorecord~;
#X connect 0 0 3 0;
#X connect 0 0 1 0;
#X connect 1 0 2 1;
#X connect 1 0 6 1;
#X connect 2 0 4 0;
#X connect 2 0 12 1;
#X connect 3 0 2 0;
#X connect 5 0 7 0;
#X connect 5 0 1 1;
#X connect 6 0 8 0;
#X connect 6 0 12 2;
#X connect 7 0 6 0;
#X connect 9 0 10 0;
#X connect 10 0 1 0;
#X connect 11 0 12 0;
#X restore 34 92 pd LIMITER_RECORD___;
#X obj 34 158 dac~ 1 2;
#X connect 1 0 2 0;
#X connect 1 1 2 1;
#X connect 2 0 3 0;
#X connect 2 1 3 1;
#X connect 3 0 4 0;
#X connect 3 1 4 1;
#X restore 54 184 pd AUDIO_OUT____________;
#N canvas 301 281 242 132 GLOBAL_OSC_MESSAGES__ 0;
#N canvas 382 41 880 750 GLOBAL_MESSAGES_RECEIVE___ 0;
#X obj 55 692 s \$0-bpm;
#X obj 89 576 s \$0-tempolock;
#X obj 226 401 s automateRecord;
#X obj 226 378 tgl 15 0 empty empty empty 17 7 0 10 -262144 -1 -1 0
1;
#X msg 328 301 0;
#X obj 328 323 s masterSync;
#X obj 744 712 outlet;
#X obj 346 281 s swingAmount;
#X obj 355 234 s fade-out-time;
#X obj 36 68 spigot 0;
#X obj 81 46 r OSC-monitor;
#X obj 36 90 print OSC-in;
#X obj 355 187 + 16000;
#X obj 355 165 * 44000;
#X obj 355 209 i;
#X obj 346 257 * 0.083;
#X obj 123 557 s \$0-master-amp;
#X obj 157 532 s \$0-master-fx;
#N canvas 952 281 120 99 automate-record-interface 0;
#X obj 21 12 tgl 70 0 automateRecord empty RECORD 17 7 0 10 -258113
-4160 -1 0 1;
#X restore 490 41 pd automate-record-interface;
#X obj 593 125 s master-seq-on-off;
#N canvas 921 91 519 732 pitch-gamut-parse 0;
#X obj 32 12 inlet;
#X obj 32 153 t b a;
#X obj 31 676 s pitch-gamut;
#X msg 168 102 1 1 \, 3 1 \, 4 1 \, 8 1 \, 9 1;
#X msg 168 82 1 1 \, 3 1 \, 4 1 \, 8 1 \, 9 0;
#X msg 168 63 1 1 \, 3 1 \, 4 1 \, 8 0 \, 9 0;
#X obj 44 612 list length;
#X obj 44 654 s pitch-gamut-length;
#X obj 44 634 max 1;
#X obj 72 179 s \$0-pitch-gamut-gui;
#N canvas 0 22 474 651 DEPRECATED 0;
#X obj 44 237 array set master-pitch-gamut;
#X obj 44 43 unpack f f;
#X obj 44 65 - 1;
#X obj 72 152 + 12;
#X obj 44 131 until;
#X obj 44 152 f;
#X msg 78 109 0;
#X obj 44 87 t b b f;
#X obj 44 173 +;
#X obj 44 216 f;
#X obj 44 194 t b f;
#X msg 44 109 11;
#X obj 267 169 array set master-pitch-gamut;
#X obj 267 79 unpack f f;
#X obj 267 101 - 1;
#X obj 267 148 f;
#X obj 267 126 t b f;
#X obj 73 442 until;
#X obj 73 463 f;
#X obj 98 462 + 1;
#X obj 112 531 array get master-pitch-gamut;
#X msg 105 422 0;
#X msg 194 510 1;
#X obj 112 509 t f f;
#X obj 112 576 f;
#X obj 112 618 list;
#X obj 112 597 list prepend;
#X obj 112 552 sel 1;
#X obj 73 395 t b b b b;
#X msg 73 421 13;
#X obj 73 488 sel 12;
#X connect 1 0 2 0;
#X connect 1 1 9 1;
#X connect 2 0 7 0;
#X connect 3 0 5 1;
#X connect 4 0 5 0;
#X connect 5 0 3 0;
#X connect 5 0 8 0;
#X connect 6 0 5 1;
#X connect 7 0 11 0;
#X connect 7 1 6 0;
#X connect 7 2 8 1;
#X connect 8 0 10 0;
#X connect 9 0 0 0;
#X connect 10 0 9 0;
#X connect 10 1 0 1;
#X connect 11 0 4 0;
#X connect 13 0 14 0;
#X connect 13 1 15 1;
#X connect 14 0 16 0;
#X connect 15 0 12 0;
#X connect 16 0 15 0;
#X connect 16 1 12 1;
#X connect 17 0 18 0;
#X connect 18 0 19 0;
#X connect 18 0 30 0;
#X connect 19 0 18 1;
#X connect 20 0 27 0;
#X connect 21 0 18 1;
#X connect 22 0 20 1;
#X connect 23 0 20 0;
#X connect 23 1 24 1;
#X connect 24 0 26 0;
#X connect 25 0 26 1;
#X connect 26 0 25 0;
#X connect 27 0 24 0;
#X connect 28 0 29 0;
#X connect 28 1 21 0;
#X connect 28 2 22 0;
#X connect 28 3 26 1;
#X connect 28 3 25 1;
#X connect 29 0 17 0;
#X connect 30 1 23 0;
#X restore 316 34 pd DEPRECATED;
#X obj 59 283 array set master-pitch-gamut;
#X obj 59 198 unpack f f;
#X obj 59 262 f;
#X obj 59 240 t b f;
#X obj 263 283 array define master-pitch-gamut 12;
#X obj 32 310 array get master-pitch-gamut;
#X obj 32 365 until;
#X obj 32 473 list store;
#X obj 32 390 f;
#X obj 59 390 + 1;
#X msg 72 364 0, f 2;
#X msg 32 454 get \$1 1;
#X obj 32 411 t f f;
#X obj 32 516 f;
#X obj 59 433 + 1;
#X obj 32 494 sel 1;
#X obj 32 332 t b b l b, f 12;
#X obj 31 582 list;
#X obj 72 494 del 1;
#X obj 32 537 list prepend;
#X obj 32 558 t a a;
#X msg 169 122 1 1 \, 2 1 \, 3 1 \, 4 1 \, 7 1 \, 8 1 \, 10 1 \, 11
1;
#X msg 169 142 1 1 \, 2 0 \, 3 0 \, 4 1 \, 7 1 \, 8 1 \, 10 1 \, 11
1;
#X obj 42 46 s masterpitchgamut;
#X floatatom 191 644 5 0 0 0 - - -;
#X obj 59 220 i;
#X connect 0 0 1 0;
#X connect 1 0 16 0;
#X connect 1 1 9 0;
#X connect 1 1 12 0;
#X connect 3 0 1 0;
#X connect 4 0 1 0;
#X connect 5 0 1 0;
#X connect 6 0 8 0;
#X connect 8 0 7 0;
#X connect 8 0 35 0;
#X connect 12 0 36 0;
#X connect 12 1 13 1;
#X connect 13 0 11 0;
#X connect 14 0 13 0;
#X connect 14 1 11 1;
#X connect 16 0 27 0;
#X connect 17 0 19 0;
#X connect 18 0 26 0;
#X connect 18 1 17 1;
#X connect 18 1 29 0;
#X connect 19 0 20 0;
#X connect 19 0 23 0;
#X connect 20 0 19 1;
#X connect 21 0 19 1;
#X connect 22 0 18 0;
#X connect 23 0 22 0;
#X connect 23 1 25 0;
#X connect 24 0 30 0;
#X connect 25 0 24 1;
#X connect 26 0 24 0;
#X connect 27 0 17 0;
#X connect 27 1 21 0;
#X connect 27 2 18 1;
#X connect 27 3 30 1;
#X connect 28 0 6 0;
#X connect 28 0 2 0;
#X connect 29 0 28 0;
#X connect 30 0 31 0;
#X connect 31 0 28 1;
#X connect 31 0 30 1;
#X connect 31 1 30 1;
#X connect 32 0 1 0;
#X connect 33 0 1 0;
#X connect 36 0 14 0;
#X restore 722 141 pd pitch-gamut-parse;
#N canvas 533 469 797 326 evolution+feedback 0;
#X obj 19 212 s evolution-active;
#X obj 154 165 i;
#X obj 19 75 route evolution-activate evolution-time;
#X obj 154 100 pow 1.8;
#X obj 154 208 s evolution-time;
#X obj 423 102 s jump-active;
#X obj 319 101 s set-value;
#X obj 154 144 + 15;
#X obj 154 122 * 105;
#X obj 154 187 * 1000;
#X obj 179 232 s \$0-evolution-time-label;
#X obj 20 25 inlet;
#X obj 601 283 outlet;
#X obj 520 163 s master-noise;
#X obj 319 74 route set-value jump-active masternoise;
#X obj 520 113 f.seq.automater \$0 \$0-master-noise;
#X obj 520 142 f.util.rescale 2.7 1 0;
#X connect 1 0 9 0;
#X connect 1 0 10 0;
#X connect 2 0 0 0;
#X connect 2 1 3 0;
#X connect 2 2 14 0;
#X connect 3 0 8 0;
#X connect 7 0 1 0;
#X connect 8 0 7 0;
#X connect 9 0 4 0;
#X connect 11 0 2 0;
#X connect 14 0 6 0;
#X connect 14 1 5 0;
#X connect 14 2 15 0;
#X connect 14 3 12 0;
#X connect 15 0 16 0;
#X connect 16 0 13 0;
#X restore 722 89 pd evolution+feedback;
#X obj 569 126 tgl 15 0 empty empty empty 17 7 0 10 -262144 -1 -1 0
1;
#X obj 55 593 / 240;
#X obj 55 652 * 240;
#X obj 55 673 i;
#X floatatom 218 558 5 0 0 0 - - -;
#N canvas 718 509 450 300 MESSAGE_OUT 0;
#X obj 72 57 inlet;
#X obj 72 99 list trim;
#X obj 72 78 list prepend send master-reverb;
#X obj 72 119 s \$0-FAUST_MESSAGES;
#X connect 0 0 2 0;
#X connect 1 0 3 0;
#X connect 2 0 1 0;
#X restore 184 504 pd MESSAGE_OUT;
#X obj 21 19 r o-s-c-messages;
#X obj 431 193 s evenglobal;
#X obj 722 111 route pitchgamut;
#X floatatom 339 602 5 0 0 0 - - -;
#X msg 339 622 60000 \$1;
#X obj 339 643 /;
#X floatatom 339 685 0 0 0 0 - - -;
#X obj 339 711 s recordtime;
#X obj 114 693 s bpmglobal;
#X obj 516 173 * 99;
#X obj 516 194 s \$0-reverb-amount;
#X obj 431 90 route evenglobal reverbglobal seqonglobal;
#X obj 260 375 s xglobal;
#X obj 294 347 s yglobal;
#X obj 21 111 route key tempoglobal tempo-hold master-amp masterfx
masterreverb recordglobal xglobal yglobal sync swing-amount fade-out-time
;
#X obj 533 322 route resetglobal;
#X obj 533 343 s resetglobal;
#X obj 260 354 f;
#X obj 294 325 f;
#X obj 21 719 f.util.masterkey \$0;
#X obj 55 612 f.seq.automater \$0 \$0-bpm 1;
#X obj 184 460 f.seq.automater \$0 \$0-master-reverb;
#X obj 516 152 f.seq.automater \$0 \$0-reverb;
#X obj 184 483 f.util.rescale 2.7 1 0;
#X obj 339 664 * 32;
#X connect 3 0 2 0;
#X connect 4 0 5 0;
#X connect 9 0 11 0;
#X connect 10 0 9 1;
#X connect 12 0 14 0;
#X connect 13 0 12 0;
#X connect 14 0 8 0;
#X connect 15 0 7 0;
#X connect 21 0 30 0;
#X connect 22 0 19 0;
#X connect 23 0 48 0;
#X connect 24 0 25 0;
#X connect 25 0 0 0;
#X connect 25 0 31 0;
#X connect 25 0 36 0;
#X connect 26 0 16 0;
#X connect 28 0 9 0;
#X connect 28 0 42 0;
#X connect 30 0 20 0;
#X connect 30 1 6 0;
#X connect 30 1 43 0;
#X connect 31 0 32 0;
#X connect 32 0 33 0;
#X connect 33 0 52 0;
#X connect 34 0 35 0;
#X connect 37 0 38 0;
#X connect 39 0 29 0;
#X connect 39 1 50 0;
#X connect 39 2 19 0;
#X connect 39 3 21 0;
#X connect 42 0 47 0;
#X connect 42 1 23 0;
#X connect 42 2 1 0;
#X connect 42 3 16 0;
#X connect 42 4 17 0;
#X connect 42 5 49 0;
#X connect 42 6 3 0;
#X connect 42 7 45 0;
#X connect 42 8 46 0;
#X connect 42 9 4 0;
#X connect 42 10 15 0;
#X connect 42 11 13 0;
#X connect 42 12 39 0;
#X connect 43 0 44 0;
#X connect 45 0 40 0;
#X connect 46 0 41 0;
#X connect 48 0 24 0;
#X connect 49 0 51 0;
#X connect 50 0 37 0;
#X connect 51 0 27 0;
#X connect 52 0 34 0;
#X restore 20 41 pd GLOBAL_MESSAGES_RECEIVE___;
#N canvas 62 160 1193 585 GLOBAL_MESSAGES__SEND_____ 0;
#X obj 37 76 r \$0-beat-gui;
#X obj 37 98 oscformat beat;
#X obj 175 76 r automateRecord;
#X obj 175 98 oscformat automation-record;
#X obj 410 116 oscformat evolution-activate;
#X obj 410 94 r evolution-active;
#X obj 40 12 inlet;
#X obj 655 72 r \$0-delay-time-gui;
#X obj 815 72 r \$0-delay-feedback-gui;
#X obj 815 94 oscformat delay-feedback;
#X obj 1004 71 r \$0-delay-amount-gui;
#X obj 1004 93 oscformat delay-amount;
#X obj 655 158 r \$0-freqshift-amount-gui;
#X obj 655 180 oscformat freqshift-amount;
#X obj 655 94 oscformat delay-time;
#X obj 58 471 r \$0-visul-preset;
#X obj 58 519 oscformat formuls-visuals scene-number;
#X obj 58 493 + 0;
#X obj 407 166 r \$0-evolution-gui;
#X obj 407 188 oscformat evolution-gui;
#X obj 407 252 r master-seq-on-off;
#X obj 407 274 oscformat master-seq-on-off;
#X obj 25 226 r \$0-scale-root-note-gui;
#X obj 210 245 r \$0-pitch-gamut-gui;
#X msg 210 267 \$1 \$2;
#X obj 210 289 oscformat pitch-gamut;
#X obj 412 71 s OSC-out;
#X obj 412 27 r \$0-evolution-time-label;
#X obj 412 49 oscformat evolution-time-label;
#X obj 25 290 oscformat key;
#X msg 25 268 1 \$1 1;
#X obj 25 247 + 1;
#X obj 37 120 s OSC-out-global;
#X obj 175 120 s OSC-out-global;
#X obj 410 138 s OSC-out-global;
#X obj 655 116 s OSC-out-global;
#X obj 815 116 s OSC-out-global;
#X obj 1004 115 s OSC-out-global;
#X obj 407 210 s OSC-out-global;
#X obj 407 296 s OSC-out-global;
#X obj 210 311 s OSC-out-global;
#X obj 25 312 s OSC-out-global;
#X obj 58 541 s OSC-out-global;
#X obj 655 202 s OSC-out-global;
#X obj 37 190 s OSC-out-global;
#X obj 37 168 oscformat bpm;
#X obj 351 464 s OSC-out-global;
#X obj 351 420 r \$0-visual-noise-gui;
#X obj 351 442 oscformat formuls-visuals noise;
#X obj 551 464 s OSC-out-global;
#X obj 551 420 r \$0-visual-chaos-gui;
#X obj 551 442 oscformat formuls-visuals chaos;
#X obj 836 200 s OSC-out-global;
#X obj 836 156 r \$0-master-reverb-gui;
#X obj 836 178 oscformat master-reverb;
#X obj 1008 193 s OSC-out-global;
#X obj 1008 171 oscformat master-feedback;
#X obj 767 463 s OSC-out-global;
#X obj 767 419 r \$0-visual-sensitivity-gui;
#X obj 767 441 oscformat formuls-visuals sensitivity;
#X obj 37 146 r \$0-bpm;
#X obj 1008 150 r \$0-master-noise-gui;
#X connect 0 0 1 0;
#X connect 1 0 32 0;
#X connect 2 0 3 0;
#X connect 3 0 33 0;
#X connect 4 0 34 0;
#X connect 5 0 4 0;
#X connect 7 0 14 0;
#X connect 8 0 9 0;
#X connect 9 0 36 0;
#X connect 10 0 11 0;
#X connect 11 0 37 0;
#X connect 12 0 13 0;
#X connect 13 0 43 0;
#X connect 14 0 35 0;
#X connect 15 0 17 0;
#X connect 16 0 42 0;
#X connect 17 0 16 0;
#X connect 18 0 19 0;
#X connect 19 0 38 0;
#X connect 20 0 21 0;
#X connect 21 0 39 0;
#X connect 22 0 31 0;
#X connect 23 0 24 0;
#X connect 24 0 25 0;
#X connect 25 0 40 0;
#X connect 27 0 28 0;
#X connect 28 0 26 0;
#X connect 29 0 41 0;
#X connect 30 0 29 0;
#X connect 31 0 30 0;
#X connect 45 0 44 0;
#X connect 47 0 48 0;
#X connect 48 0 46 0;
#X connect 50 0 51 0;
#X connect 51 0 49 0;
#X connect 53 0 54 0;
#X connect 54 0 52 0;
#X connect 56 0 55 0;
#X connect 58 0 59 0;
#X connect 59 0 57 0;
#X connect 60 0 45 0;
#X connect 61 0 56 0;
#X restore 20 67 pd GLOBAL_MESSAGES__SEND_____;
#X connect 0 0 1 0;
#X restore 54 127 pd GLOBAL_OSC_MESSAGES__;
#N canvas 0 91 324 232 OSC_RECEIVE__________ 0;
#X obj 22 97 oscparse;
#X obj 22 120 list trim;
#X obj 22 29 loadbang;
#X obj 22 148 s o-s-c-messages;
#X obj 139 140 spigot;
#X obj 172 20 inlet;
#X obj 139 166 print OSC received;
#X msg 22 51 listen 8080;
#X obj 22 74 netreceive -u -b;
#X connect 0 0 1 0;
#X connect 1 0 3 0;
#X connect 1 0 4 0;
#X connect 2 0 7 0;
#X connect 4 0 6 0;
#X connect 5 0 4 1;
#X connect 7 0 8 0;
#X connect 8 0 0 0;
#X restore 54 108 pd OSC_RECEIVE__________;
#N canvas 205 367 479 331 OSC_SEND_____________ 0;
#X obj 91 177 r to-o-s-c-interface;
#X obj 91 198 list prepend send;
#X obj 91 219 list trim;
#X obj 57 247 netsend -u -b;
#X msg 78 133 disconnect;
#X obj 59 44 inlet;
#X obj 59 65 sel 1 0;
#X obj 68 88 loadbang;
#X msg 59 111 connect 127.0.0.1 18889;
#X obj 301 177 r to-o-s-c-interface;
#X obj 301 198 list prepend send;
#X obj 301 219 list trim;
#X obj 267 247 netsend -u -b;
#X msg 288 133 disconnect;
#X obj 269 44 inlet;
#X obj 269 65 sel 1 0;
#X obj 278 88 loadbang;
#X msg 269 111 connect 192.168.1.12 8889;
#X connect 0 0 1 0;
#X connect 1 0 2 0;
#X connect 2 0 3 0;
#X connect 4 0 3 0;
#X connect 5 0 6 0;
#X connect 6 0 8 0;
#X connect 6 1 4 0;
#X connect 7 0 8 0;
#X connect 8 0 3 0;
#X connect 9 0 10 0;
#X connect 10 0 11 0;
#X connect 11 0 12 0;
#X connect 13 0 12 0;
#X connect 14 0 15 0;
#X connect 15 0 17 0;
#X connect 15 1 13 0;
#X connect 16 0 17 0;
#X connect 17 0 12 0;
#X restore 54 202 pd OSC_SEND_____________;
#N canvas 59 109 362 242 INIT_&_DECLARE_______ 0;
#X obj 23 77 loadbang;
#X obj 23 119 s faust-value-read;
#X obj 23 98 metro 100;
#X obj 157 118 bng 15 250 50 0 empty empty empty 17 7 0 10 -262144
-1 -1;
#X obj 25 44 declare -path abstractions;
#X connect 0 0 2 0;
#X connect 2 0 1 0;
#X connect 2 0 3 0;
#X restore 54 89 pd INIT_&_DECLARE_______;
#N canvas 0 23 872 666 INTERFACE____________ 0;
#X floatatom 105 120 5 0 99 1 REVERB_AMOUNT - #0-reverb-amount;
#X obj 105 138 tgl 15 0 \$0-audio-record empty AUDIO_RECORD 17 7 0
10 -262144 -1 -1 0 1;
#X obj 262 150 r~ 1-m;
#X obj 262 171 env~;
#X floatatom 103 156 5 0 0 0 - - -;
#X obj 308 171 env~;
#X floatatom 103 174 5 0 0 0 - - -;
#X obj 307 150 r~ 2-m;
#X obj 351 172 env~;
#X floatatom 103 192 5 0 0 0 - - -;
#X obj 397 171 env~;
#X floatatom 103 210 5 0 0 0 - - -;
#X obj 441 170 env~;
#X floatatom 103 228 5 0 0 0 - - -;
#X obj 484 171 env~;
#X floatatom 103 246 5 0 0 0 - - -;
#X obj 526 172 env~;
#X floatatom 103 264 5 0 0 0 - - -;
#X obj 575 175 env~;
#X floatatom 103 281 5 0 0 0 - - -;
#X obj 351 151 r~ 3-m;
#X obj 396 150 r~ 4-m;
#X obj 440 149 r~ 5-m;
#X obj 484 150 r~ 6-m;
#X obj 526 150 r~ 7-m;
#X obj 574 154 r~ 8-m;
#X connect 2 0 3 0;
#X connect 3 0 4 0;
#X connect 5 0 6 0;
#X connect 7 0 5 0;
#X connect 8 0 9 0;
#X connect 10 0 11 0;
#X connect 12 0 13 0;
#X connect 14 0 15 0;
#X connect 16 0 17 0;
#X connect 18 0 19 0;
#X connect 20 0 8 0;
#X connect 21 0 10 0;
#X connect 22 0 12 0;
#X connect 23 0 14 0;
#X connect 24 0 16 0;
#X connect 25 0 18 0;
#X coords 0 -1 1 1 148 200 1 100 100;
#X restore 53 226 pd INTERFACE____________;
#X connect 0 0 8 0;
#X connect 1 0 7 0;
