#N canvas 58 499 211 209 10;
#X declare -path controlabstractions;
#X declare -path externals;
#X declare -path audioabstractions;
#N canvas 270 627 268 182 CONTROL_TRIPES_ 0;
#N canvas 246 475 432 392 OPEN_STAGE_CONTROL_RECEIVE_ 0;
#X obj 36 86 oscparse;
#X obj 36 109 list trim;
#X obj 36 18 loadbang;
#X msg 36 338 \; pd quit;
#X obj 36 315 del 500;
#X msg 49 273 pd quit;
#X obj 49 294 s to-faust;
#X obj 150 323 tgl 15 0 empty empty empty 17 7 0 10 #fcfcfc #000000 #000000 0 1;
#X obj 150 344 s inter-act-overide;
#N canvas 47 74 450 300 INTERFACE_ACTIVE_MESSAGE_SEND 0;
#X obj 193 151 i;
#X obj 219 151 + 1;
#X obj 46 114 t f b;
#X obj 46 73 route root;
#X obj 243 242 array get interface-active;
#X obj 193 172 mod 2;
#X obj 46 226 array define interface-active 2;
#X obj 46 204 tabwrite interface-active;
#X obj 243 200 sel 1;
#X obj 243 221 del 2;
#X obj 243 263 s inter-act;
#X obj 46 94 - 1;
#X obj 46 16 inlet;
#X connect 0 0 1 0;
#X connect 0 0 5 0;
#X connect 1 0 0 1;
#X connect 2 0 7 0;
#X connect 2 1 0 0;
#X connect 3 0 11 0;
#X connect 4 0 10 0;
#X connect 5 0 7 1;
#X connect 5 0 8 0;
#X connect 8 0 9 0;
#X connect 9 0 4 0;
#X connect 11 0 2 0;
#X connect 12 0 3 0;
#X restore 81 237 pd INTERFACE_ACTIVE_MESSAGE_SEND;
#X obj 36 63 netreceive -u -b;
#X obj 171 175 s o-s-c-messages;
#X text 275 174 <- parameter messages;
#X obj 126 200 s OSC-monitor;
#X msg 36 40 listen 9000;
#X obj 176 85 list trim;
#X obj 36 152 route pd GET oscmonitor;
#X obj 176 62 netreceive -u;
#X msg 176 39 listen 9009;
#N canvas 876 89 547 259 MOD_RECEIVE_ 0;
#X obj 37 37 inlet;
#X obj 37 82 route 1-m-val 2-m-val 3-m-val 4-m-val 5-m-val 6-m-val;
#X obj 37 103 dbtorms;
#X obj 37 124 clip 0 1;
#X floatatom 37 145 5 0 0 0 - - - 0;
#X obj 37 165 s 1-m-val;
#X obj 102 104 dbtorms;
#X obj 102 125 clip 0 1;
#X floatatom 102 146 5 0 0 0 - - - 0;
#X obj 166 104 dbtorms;
#X obj 166 125 clip 0 1;
#X floatatom 166 146 5 0 0 0 - - - 0;
#X obj 231 105 dbtorms;
#X obj 231 126 clip 0 1;
#X floatatom 231 147 5 0 0 0 - - - 0;
#X obj 297 105 dbtorms;
#X obj 297 126 clip 0 1;
#X floatatom 297 147 5 0 0 0 - - - 0;
#X obj 362 106 dbtorms;
#X obj 362 127 clip 0 1;
#X floatatom 362 148 5 0 0 0 - - - 0;
#X obj 102 166 s 2-m-val;
#X obj 166 166 s 3-m-val;
#X obj 231 167 s 4-m-val;
#X obj 297 167 s 5-m-val;
#X obj 362 168 s 6-m-val;
#X connect 0 0 1 0;
#X connect 1 0 2 0;
#X connect 1 1 6 0;
#X connect 1 2 9 0;
#X connect 1 3 12 0;
#X connect 1 4 15 0;
#X connect 1 5 18 0;
#X connect 2 0 3 0;
#X connect 3 0 4 0;
#X connect 4 0 5 0;
#X connect 6 0 7 0;
#X connect 7 0 8 0;
#X connect 8 0 21 0;
#X connect 9 0 10 0;
#X connect 10 0 11 0;
#X connect 11 0 22 0;
#X connect 12 0 13 0;
#X connect 13 0 14 0;
#X connect 14 0 23 0;
#X connect 15 0 16 0;
#X connect 16 0 17 0;
#X connect 17 0 24 0;
#X connect 18 0 19 0;
#X connect 19 0 20 0;
#X connect 20 0 25 0;
#X restore 176 108 pd MOD_RECEIVE_;
#X connect 0 0 1 0;
#X connect 1 0 16 0;
#X connect 2 0 14 0;
#X connect 2 0 18 0;
#X connect 4 0 3 0;
#X connect 5 0 6 0;
#X connect 7 0 8 0;
#X connect 10 0 0 0;
#X connect 14 0 10 0;
#X connect 15 0 19 0;
#X connect 16 0 4 0;
#X connect 16 0 5 0;
#X connect 16 1 9 0;
#X connect 16 2 13 0;
#X connect 16 3 11 0;
#X connect 17 0 15 0;
#X connect 18 0 17 0;
#X restore 28 38 pd OPEN_STAGE_CONTROL_RECEIVE_;
#N canvas 267 452 251 178 FORMULS_MESSAGES___________ 0;
#X obj 78 42 f.formuls \$0 1;
#X obj 78 62 f.formuls \$0 2;
#X obj 78 82 f.formuls \$0 3;
#X obj 78 102 f.formuls \$0 4;
#X obj 78 122 f.formuls \$0 5;
#X obj 78 142 f.formuls \$0 6;
#X restore 28 105 pd FORMULS_MESSAGES___________;
#N canvas 794 692 452 247 O-S-C_&_FORMULS_SEND_______ 0;
#X obj 33 24 r to-o-s-c-interface;
#X obj 33 73 list prepend send;
#X obj 33 94 list trim;
#X obj 224 15 r to-faust;
#X obj 224 90 list trim;
#N canvas 0 111 265 214 GET_INTERFACE 0;
#X obj 38 106 oscformat GET;
#X obj 38 86 list;
#X obj 38 147 outlet;
#X obj 38 43 r master-gui-update-throttle;
#X msg 38 64 127.0.0.1:9000 root;
#X connect 0 0 2 0;
#X connect 1 0 0 0;
#X connect 3 0 4 0;
#X connect 4 0 1 0;
#X restore 49 46 pd GET_INTERFACE;
#N canvas 122 390 249 300 CONNECT___ 0;
#X msg 78 133 disconnect;
#X obj 59 65 sel 1 0;
#X obj 68 88 loadbang;
#X obj 59 35 tgl 15 1 empty empty empty 17 7 0 10 #fcfcfc #000000 #000000 1 1;
#X obj 59 260 outlet;
#X msg 59 111 connect 127.0.0.1 9001;
#X connect 0 0 4 0;
#X connect 1 0 5 0;
#X connect 1 1 0 0;
#X connect 2 0 5 0;
#X connect 3 0 1 0;
#X connect 5 0 4 0;
#X restore 50 137 pd CONNECT___;
#X obj 238 39 r \$0-master-bus-fx;
#X obj 238 60 list prepend fmasterbusfx;
#X obj 33 162 netsend -u -b;
#X obj 277 149 s \$0-formuls;
#X obj 224 121 route pd;
#X msg 224 174 \; pd quit;
#X connect 0 0 1 0;
#X connect 1 0 2 0;
#X connect 2 0 9 0;
#X connect 3 0 4 0;
#X connect 4 0 11 0;
#X connect 5 0 1 0;
#X connect 6 0 9 0;
#X connect 7 0 8 0;
#X connect 8 0 4 0;
#X connect 11 0 12 0;
#X connect 11 1 10 0;
#X restore 28 128 pd O-S-C_&_FORMULS_SEND_______;
#N canvas 21 335 291 114 TIMING_____________________ 0;
#N canvas 255 234 550 214 AUTOMATER_TIMING 0;
#X obj 126 105 loadbang;
#X obj 126 142 metro 10;
#X obj 32 40 inlet;
#X obj 32 121 change;
#X obj 32 142 t b;
#X obj 32 163 s masterClock;
#X obj 331 164 s master-gui-update-throttle;
#X obj 126 164 s master-param-update-throttle;
#X obj 331 142 metro 40;
#X text 394 140 25fps;
#X obj 32 100 i;
#X connect 0 0 1 0;
#X connect 0 0 8 0;
#X connect 1 0 7 0;
#X connect 2 0 10 0;
#X connect 3 0 4 0;
#X connect 4 0 5 0;
#X connect 8 0 6 0;
#X connect 10 0 3 0;
#X restore 81 56 pd AUTOMATER_TIMING;
#N canvas 616 298 422 416 SEQUENCER_TIMING 0;
#X obj 145 325 outlet;
#X obj 44 27 r \$0-bpm;
#X obj 44 64 t f f;
#X floatatom 145 275 5 0 0 1 beat_time - - 0;
#X obj 166 299 s link;
#X obj 71 208 abl_link~ 1 0 4 110;
#X msg 71 186 tempo \$1;
#X obj 145 254 spigot 1;
#X obj 208 193 r master-seq-on-off;
#X msg 44 249 60000 \$1;
#X obj 44 270 /;
#X obj 44 291 * 16;
#X obj 44 312 s recordtime;
#X obj 71 105 f;
#X obj 71 165 change;
#X obj 109 38 i;
#X obj 109 59 change;
#X obj 109 80 t b;
#X obj 109 17 r link;
#X obj 71 144 / 1;
#X obj 235 237 sel 1;
#X obj 208 216 t f f;
#X msg 235 258 reset 0 0;
#X obj 86 124 r \$0-bpm-half-time;
#X connect 1 0 2 0;
#X connect 2 0 9 0;
#X connect 2 1 13 0;
#X connect 3 0 4 0;
#X connect 3 0 0 0;
#X connect 5 2 7 0;
#X connect 6 0 5 0;
#X connect 7 0 3 0;
#X connect 8 0 21 0;
#X connect 9 0 10 0;
#X connect 10 0 11 0;
#X connect 11 0 12 0;
#X connect 13 0 19 0;
#X connect 14 0 6 0;
#X connect 15 0 16 0;
#X connect 16 0 17 0;
#X connect 17 0 13 0;
#X connect 18 0 15 0;
#X connect 19 0 14 0;
#X connect 20 0 22 0;
#X connect 21 0 7 1;
#X connect 21 1 20 0;
#X connect 22 0 5 0;
#X connect 23 0 19 1;
#X restore 81 32 pd SEQUENCER_TIMING;
#X connect 1 0 0 0;
#X restore 28 82 pd TIMING_____________________;
#N canvas 342 406 242 132 GLOBAL_OSC_MESSAGE_PARSE___ 0;
#N canvas 468 381 296 306 GLOBAL_MESSAGES_RECEIVE___ 0;
#X obj 65 264 outlet;
#X obj 78 84 spigot 0;
#X obj 123 62 r OSC-monitor;
#X obj 63 38 r o-s-c-messages;
#N canvas 536 38 576 404 MASTER_AMP_&_CONTROLS 0;
#X obj 312 181 s master-noise;
#X obj 312 138 f.seq.automater \$0 \$0-master-noise;
#X obj 312 160 f.util.rescale 2.7 1 0;
#X obj 362 109 s resetglobal;
#X obj 112 295 s automateRecord;
#X obj 112 272 tgl 15 0 empty empty empty 17 7 0 10 #fcfcfc #000000 #000000 0 1;
#X obj 162 266 s xglobal;
#X obj 212 238 s yglobal;
#X obj 62 22 inlet;
#X obj 262 208 s quantiseglobal;
#X obj 62 73 route masteramp recordglobal xglobal yglobal quantiseglobal noiseglobal resetglobal;
#X msg 62 328 masteramp \$1;
#X obj 62 352 s \$0-master-bus-fx;
#X obj 382 270 oscformat STATE OPEN;
#X obj 382 291 s to-o-s-c-interface;
#X msg 382 249 symbol _formuls-default.state;
#X obj 382 228 sel 1;
#X connect 1 0 2 0;
#X connect 2 0 0 0;
#X connect 5 0 4 0;
#X connect 8 0 10 0;
#X connect 10 0 11 0;
#X connect 10 1 5 0;
#X connect 10 2 6 0;
#X connect 10 3 7 0;
#X connect 10 4 9 0;
#X connect 10 5 1 0;
#X connect 10 6 3 0;
#X connect 11 0 12 0;
#X connect 13 0 14 0;
#X connect 15 0 13 0;
#X connect 16 0 15 0;
#X restore 63 204 pd MASTER_AMP_&_CONTROLS;
#N canvas 643 441 404 323 PARAMETER_EVOLVE_____ 0;
#X obj 19 149 s evolution-active;
#X obj 246 102 s jump-active;
#X obj 170 102 s set-value;
#X obj 19 25 inlet;
#X obj 343 269 outlet;
#X obj 94 104 * 1000;
#X obj 94 125 s evolution-time;
#X obj 19 75 route evolveglobal evolvetime set-value jump-active;
#X connect 3 0 7 0;
#X connect 5 0 6 0;
#X connect 7 0 0 0;
#X connect 7 1 5 0;
#X connect 7 2 2 0;
#X connect 7 3 1 0;
#X connect 7 4 4 0;
#X restore 63 181 pd PARAMETER_EVOLVE_____;
#N canvas 225 536 329 225 MASTER_BUS_FX________ 0;
#X obj 23 15 inlet;
#X obj 23 173 outlet;
#N canvas 805 197 1098 754 REVERB_FILTER_DIGITALISER_LIMITER_ 0;
#X obj 23 19 inlet;
#X obj 23 660 f.seq.automater \$0 \$0-reverb-bypass;
#X obj 65 598 f.seq.automater \$0 \$0-reverb-limiter-send;
#X msg 23 681 reverbbypass \$1;
#X obj 23 702 s \$0-master-bus-fx;
#X obj 259 489 s \$0-master-bus-fx;
#X obj 212 560 s \$0-master-bus-fx;
#X obj 65 641 s \$0-master-bus-fx;
#X msg 212 539 drylimiterlevel \$1;
#X msg 259 468 limiterlevel \$1;
#X msg 65 620 reverblimiterlevel \$1;
#X obj 1006 696 outlet;
#X obj 212 442 f.seq.automater \$0 \$0-limiter-level 0;
#X msg 212 473 1 \$1;
#X obj 212 494 -;
#X obj 252 419 s \$0-master-bus-fx;
#X obj 286 351 s \$0-master-bus-fx;
#X obj 212 517 f.seq.automater \$0 \$0-dry-limiter-level 1;
#X msg 252 398 digitaliseramount \$1;
#X msg 286 330 digitaliserlevel \$1;
#X obj 286 289 f.seq.automater \$0 \$0-digitaliser-level 0;
#X obj 286 310 pow 2.7;
#X obj 252 376 f.seq.automater \$0 \$0-digitaliser-amount 0;
#X obj 406 308 s \$0-digitaliser-level-gui;
#X obj 387 397 s \$0-digitaliser-amount-gui;
#X obj 365 468 s \$0-limiter-level-gui;
#X obj 354 251 s \$0-master-bus-fx;
#X obj 354 145 unpack s f;
#X obj 354 167 list fromsymbol;
#X obj 354 187 f.util.asci2char;
#X obj 354 208 pack f f;
#X msg 354 230 digitaliserinput \$1 \$2;
#X obj 23 74 route reverbbypassglobal reverblimitersend djfiltercutoff djfilterresonance drylimiterlevel limiterlevel digitaliseramount digitaliserlevel digitaliserinput;
#N canvas 1174 500 315 366 MOD_PARSE 0;
#X obj 35 37 inlet;
#X obj 200 35 inlet;
#X obj 35 105 list split 1;
#X obj 35 126 list fromsymbol;
#X obj 35 147 f.util.asci2char;
#X obj 35 168 + 1;
#X obj 35 209 f.util.modinput;
#X obj 35 188 pack f f;
#X obj 35 280 outlet;
#X msg 185 164 reset 0;
#X obj 185 143 r reset-global;
#X connect 0 0 2 0;
#X connect 1 0 6 1;
#X connect 2 0 3 0;
#X connect 2 1 7 1;
#X connect 3 0 4 0;
#X connect 4 0 5 0;
#X connect 5 0 7 0;
#X connect 6 0 8 0;
#X connect 7 0 6 0;
#X connect 9 0 6 1;
#X connect 10 0 9 0;
#X restore 485 120 pd MOD_PARSE;
#X msg 485 141 extmod \$1;
#N canvas 1174 500 315 366 MOD_PARSE 0;
#X obj 35 37 inlet;
#X obj 200 35 inlet;
#X obj 35 105 list split 1;
#X obj 35 126 list fromsymbol;
#X obj 35 147 f.util.asci2char;
#X obj 35 168 + 1;
#X obj 35 209 f.util.modinput;
#X obj 35 188 pack f f;
#X obj 35 280 outlet;
#X msg 185 164 reset 0;
#X obj 185 143 r reset-global;
#X connect 0 0 2 0;
#X connect 1 0 6 1;
#X connect 2 0 3 0;
#X connect 2 1 7 1;
#X connect 3 0 4 0;
#X connect 4 0 5 0;
#X connect 5 0 7 0;
#X connect 6 0 8 0;
#X connect 7 0 6 0;
#X connect 9 0 6 1;
#X connect 10 0 9 0;
#X restore 665 121 pd MOD_PARSE;
#X msg 665 142 extmod \$1;
#X obj 485 74 route digitaliseramountmod digitaliseramountmoddepth digitaliserlevelmod digitaliserlevelmoddepth;
#X msg 652 213 chaos \$1;
#X obj 559 348 r \$0-freeze-lfo;
#X obj 559 371 f.util.lfoparse x \$0 digitaliseramount;
#X obj 652 187 route digitaliseramountchaos digitaliserlevelchaos;
#X msg 825 214 chaos \$1;
#X obj 586 258 r \$0-freeze-lfo;
#X obj 586 281 f.util.lfoparse x \$0 digitaliserlevel;
#X obj 119 229 r resetglobal;
#X msg 119 250 reset bang;
#X connect 0 0 32 0;
#X connect 1 0 3 0;
#X connect 2 0 10 0;
#X connect 3 0 4 0;
#X connect 8 0 6 0;
#X connect 9 0 5 0;
#X connect 10 0 7 0;
#X connect 12 0 13 0;
#X connect 12 0 9 0;
#X connect 12 1 25 0;
#X connect 13 0 14 0;
#X connect 14 0 17 0;
#X connect 17 0 8 0;
#X connect 18 0 15 0;
#X connect 19 0 16 0;
#X connect 20 0 21 0;
#X connect 20 1 23 0;
#X connect 21 0 19 0;
#X connect 22 0 18 0;
#X connect 22 1 24 0;
#X connect 27 0 28 0;
#X connect 27 1 30 1;
#X connect 28 0 29 0;
#X connect 29 0 30 0;
#X connect 30 0 31 0;
#X connect 31 0 26 0;
#X connect 32 0 1 0;
#X connect 32 1 2 0;
#X connect 32 5 12 0;
#X connect 32 6 22 0;
#X connect 32 7 20 0;
#X connect 32 8 27 0;
#X connect 32 9 37 0;
#X connect 33 0 34 0;
#X connect 34 0 22 0;
#X connect 35 0 36 0;
#X connect 36 0 20 0;
#X connect 37 0 33 0;
#X connect 37 1 33 1;
#X connect 37 2 35 0;
#X connect 37 3 35 1;
#X connect 37 4 41 0;
#X connect 38 0 22 0;
#X connect 39 0 40 0;
#X connect 40 1 22 0;
#X connect 41 0 38 0;
#X connect 41 1 42 0;
#X connect 41 2 11 0;
#X connect 42 0 20 0;
#X connect 43 0 44 0;
#X connect 44 1 20 0;
#X connect 45 0 46 0;
#X connect 46 0 22 0;
#X connect 46 0 20 0;
#X restore 23 69 pd REVERB_FILTER_DIGITALISER_LIMITER_;
#N canvas 40 92 1117 810 ROLLINGFREEZER____________________ 0;
#X msg 77 347 rollingfreezerfreeze \$1;
#X obj 259 208 s \$0-master-bus-fx;
#X obj 168 315 s \$0-master-bus-fx;
#X obj 77 368 s \$0-master-bus-fx;
#X msg 168 294 rollingfreezerinput \$1 \$2;
#X obj 168 209 unpack s f;
#X obj 168 231 list fromsymbol;
#X obj 168 251 f.util.asci2char;
#X obj 168 272 pack f f;
#X obj 77 18 inlet;
#X obj 973 737 outlet;
#X msg 468 654 rollingfreezertranspose \$1;
#X msg 698 292 rollingfreezerdrylevel \$1;
#X obj 698 312 s \$0-master-bus-fx;
#X obj 468 676 s \$0-master-bus-fx;
#X obj 468 608 f.seq.automater \$0 \$0-rollingfreezertranspose 0.5;
#X obj 698 241 f.seq.automater \$0 \$0-rollingfreezerdrylevel 1;
#X msg 481 515 chaos \$1;
#X msg 583 475 rollingfreezerwetlevel \$1;
#X obj 583 496 s \$0-master-bus-fx;
#X obj 583 430 f.seq.automater \$0 \$0-rollingfreezerwetlevel 0;
#X msg 596 336 chaos \$1;
#X msg 707 152 chaos \$1;
#X obj 498 580 f.util.lfoparse x \$0 rollingfreezertranspose;
#X obj 607 406 f.util.lfoparse x \$0 rollingfreezerwetlevel;
#X obj 720 217 f.util.lfoparse x \$0 rollingfreezerdrylevel;
#X obj 839 139 s \$0-freeze-lfo;
#X obj 498 557 r \$0-freeze-lfo;
#X obj 492 536 f.util.trigslewmessage \$0;
#X obj 607 385 r \$0-freeze-lfo;
#X obj 720 197 r \$0-freeze-lfo;
#X obj 606 357 f.util.trigslewmessage \$0;
#X obj 717 173 f.util.trigslewmessage \$0;
#X msg 259 187 rollingfreezerrepeatersend \$1;
#X obj 77 93 route rollingfreezerfreeze rollingfreezerinput rollingfreezerrepeatersend;
#X obj 259 139 f.seq.automater \$0 \$0-rollingfreezerrepeatersend 0;
#X obj 407 162 s \$0-rollingfreezer-repeater-send;
#X obj 638 654 i;
#X obj 638 675 s \$0-rollingfreezer-transpose;
#X obj 719 452 s \$0-rollingfreezer-wet-level;
#X obj 834 268 s \$0-rollingfreezer-dry-level;
#X obj 468 483 / 6;
#X obj 638 633 * 6;
#X obj 829 564 r resetglobal;
#X msg 829 585 reset bang;
#X obj 878 389 r resetglobal;
#X obj 994 199 r resetglobal;
#X obj 452 185 r resetglobal;
#X msg 452 206 reset bang;
#X obj 220 146 tgl 15 0 empty empty empty 17 7 0 10 #fcfcfc #000000 #000000 0 1;
#X obj 472 46 route rollingfreezertranspose rollingfreezertransposechaos rollingfreezerwetlevel rollingfreezerwetlevelchaos rollingfreezerdrylevel rollingfreezerdrylevelchaos rollingfreezerfeedback;
#X msg 898 60 rollingfreezerfeedback \$1;
#X obj 898 85 s \$0-master-bus-fx;
#X msg 994 220 reset 1;
#X msg 878 410 reset 0;
#X obj 35 410 route rollingfreezerwetlevelmod rollingfreezerwetlevelmoddepth rollingfreezertransposemod rollingfreezertransposemoddepth;
#N canvas 1174 500 315 366 MOD_PARSE 0;
#X obj 35 37 inlet;
#X obj 200 35 inlet;
#X obj 35 105 list split 1;
#X obj 35 126 list fromsymbol;
#X obj 35 147 f.util.asci2char;
#X obj 35 168 + 1;
#X obj 35 209 f.util.modinput;
#X obj 35 188 pack f f;
#X obj 35 280 outlet;
#X msg 185 164 reset 0;
#X obj 185 143 r reset-global;
#X connect 0 0 2 0;
#X connect 1 0 6 1;
#X connect 2 0 3 0;
#X connect 2 1 7 1;
#X connect 3 0 4 0;
#X connect 4 0 5 0;
#X connect 5 0 7 0;
#X connect 6 0 8 0;
#X connect 7 0 6 0;
#X connect 9 0 6 1;
#X connect 10 0 9 0;
#X restore 35 465 pd MOD_PARSE;
#X msg 35 486 extmod \$1;
#N canvas 1174 500 315 366 MOD_PARSE 0;
#X obj 35 37 inlet;
#X obj 200 35 inlet;
#X obj 35 105 list split 1;
#X obj 35 126 list fromsymbol;
#X obj 35 147 f.util.asci2char;
#X obj 35 168 + 1;
#X obj 35 209 f.util.modinput;
#X obj 35 188 pack f f;
#X obj 35 280 outlet;
#X msg 185 164 reset 0;
#X obj 185 143 r reset-global;
#X connect 0 0 2 0;
#X connect 1 0 6 1;
#X connect 2 0 3 0;
#X connect 2 1 7 1;
#X connect 3 0 4 0;
#X connect 4 0 5 0;
#X connect 5 0 7 0;
#X connect 6 0 8 0;
#X connect 7 0 6 0;
#X connect 9 0 6 1;
#X connect 10 0 9 0;
#X restore 233 466 pd MOD_PARSE;
#X msg 233 487 extmod \$1;
#X connect 0 0 3 0;
#X connect 4 0 2 0;
#X connect 5 0 6 0;
#X connect 5 1 8 1;
#X connect 6 0 7 0;
#X connect 7 0 8 0;
#X connect 8 0 4 0;
#X connect 9 0 34 0;
#X connect 11 0 14 0;
#X connect 12 0 13 0;
#X connect 15 0 11 0;
#X connect 15 1 42 0;
#X connect 16 0 12 0;
#X connect 16 1 40 0;
#X connect 17 0 15 0;
#X connect 18 0 19 0;
#X connect 20 0 18 0;
#X connect 20 1 39 0;
#X connect 21 0 20 0;
#X connect 22 0 16 0;
#X connect 23 1 15 0;
#X connect 24 1 20 0;
#X connect 25 1 16 0;
#X connect 27 0 23 0;
#X connect 28 0 15 0;
#X connect 29 0 24 0;
#X connect 30 0 25 0;
#X connect 31 0 20 0;
#X connect 32 0 16 0;
#X connect 33 0 1 0;
#X connect 34 0 0 0;
#X connect 34 1 5 0;
#X connect 34 2 49 0;
#X connect 34 2 35 0;
#X connect 34 3 50 0;
#X connect 35 0 33 0;
#X connect 35 1 36 0;
#X connect 37 0 38 0;
#X connect 41 0 15 0;
#X connect 42 0 37 0;
#X connect 43 0 44 0;
#X connect 44 0 15 0;
#X connect 45 0 54 0;
#X connect 46 0 53 0;
#X connect 47 0 48 0;
#X connect 48 0 35 0;
#X connect 50 0 41 0;
#X connect 50 1 17 0;
#X connect 50 2 20 0;
#X connect 50 3 21 0;
#X connect 50 4 16 0;
#X connect 50 5 22 0;
#X connect 50 6 51 0;
#X connect 50 7 55 0;
#X connect 51 0 52 0;
#X connect 53 0 16 0;
#X connect 54 0 20 0;
#X connect 55 0 56 0;
#X connect 55 1 56 1;
#X connect 55 2 58 0;
#X connect 55 3 58 1;
#X connect 55 4 26 0;
#X connect 55 4 10 0;
#X connect 56 0 57 0;
#X connect 57 0 20 0;
#X connect 58 0 59 0;
#X connect 59 0 15 0;
#X restore 23 92 pd ROLLINGFREEZER____________________;
#N canvas 439 163 500 733 REPEATER__________________________ 0;
#X obj 34 21 inlet;
#X obj 427 691 outlet;
#X msg 34 617 parallel \$1;
#X obj 71 585 s \$0-master-bus-fx;
#X obj 34 638 s \$0-master-bus-fx;
#X msg 109 485 capture \$1;
#X msg 196 462 beatdivision \$1;
#N canvas 360 421 686 457 REPEATER____ 0;
#X obj 58 39 inlet;
#X obj 58 170 sel 0 1;
#X msg 71 273 stop;
#X obj 58 79 fudiformat;
#X obj 58 103 fudiparse;
#X obj 58 296 del 4;
#X msg 58 317 0;
#X msg 92 317 1;
#X obj 58 338 change;
#X obj 58 379 outlet;
#X obj 253 220 sel 1;
#X msg 253 241 1;
#X obj 294 221 sel 1;
#X obj 335 220 sel 1;
#X obj 376 221 sel 1;
#X obj 417 220 sel 1;
#X msg 294 242 2;
#X msg 335 241 3;
#X msg 376 242 4;
#X msg 417 241 5;
#X obj 268 384 outlet;
#X obj 122 172 r \$0-repeater-hold;
#X obj 58 219 spigot 1;
#X obj 74 244 t b b;
#X obj 77 195 spigot 1;
#X obj 136 196 sel 1;
#X obj 58 127 route 0 1 2 3 4 5 6;
#X obj 462 219 sel 1;
#X obj 503 218 sel 1;
#X msg 462 240 6;
#X msg 503 239 7;
#X connect 0 0 3 0;
#X connect 1 0 22 0;
#X connect 1 1 24 0;
#X connect 2 0 5 0;
#X connect 3 0 4 0;
#X connect 4 0 26 0;
#X connect 5 0 6 0;
#X connect 6 0 8 0;
#X connect 7 0 8 0;
#X connect 8 0 9 0;
#X connect 10 0 11 0;
#X connect 11 0 20 0;
#X connect 12 0 16 0;
#X connect 13 0 17 0;
#X connect 14 0 18 0;
#X connect 15 0 19 0;
#X connect 16 0 20 0;
#X connect 17 0 20 0;
#X connect 18 0 20 0;
#X connect 19 0 20 0;
#X connect 21 0 22 1;
#X connect 21 0 24 1;
#X connect 21 0 25 0;
#X connect 22 0 5 0;
#X connect 23 0 2 0;
#X connect 23 1 7 0;
#X connect 24 0 23 0;
#X connect 25 0 6 0;
#X connect 26 0 1 0;
#X connect 26 0 10 0;
#X connect 26 1 1 0;
#X connect 26 1 12 0;
#X connect 26 2 1 0;
#X connect 26 2 13 0;
#X connect 26 3 1 0;
#X connect 26 3 14 0;
#X connect 26 4 1 0;
#X connect 26 4 15 0;
#X connect 26 5 27 0;
#X connect 26 5 1 0;
#X connect 26 6 28 0;
#X connect 26 6 1 0;
#X connect 27 0 29 0;
#X connect 28 0 30 0;
#X connect 29 0 20 0;
#X connect 30 0 20 0;
#X restore 109 437 pd REPEATER____;
#X obj 109 506 s \$0-master-bus-fx;
#X obj 196 483 s \$0-master-bus-fx;
#X obj 71 543 f.seq.automater \$0 \$0-repeaterlevel 1;
#X obj 147 388 == 0;
#X obj 147 409 s \$0-repeater-hold;
#X obj 180 565 s \$0-repeater-level-gui;
#X obj 184 376 s \$0-master-bus-fx;
#N canvas 822 512 527 375 REPEATER_RANDOM__ 0;
#N canvas 63 231 699 723 RANDOM_BEAT_DIV___ 0;
#X obj 67 49 r link;
#X obj 67 120 i;
#X obj 67 141 change;
#X obj 67 162 bng 15 250 50 0 empty empty empty 17 7 0 10 #fcfcfc #000000 #000000;
#X obj 67 416 spigot;
#X msg 155 601 0;
#X msg 127 600 1;
#X obj 127 621 t a;
#X obj 155 33 inlet;
#X obj 155 84 t f f;
#X obj 155 576 sel 0;
#X obj 67 651 outlet;
#X obj 127 652 outlet;
#X obj 83 579 del 4;
#X obj 66 437 t f b b b;
#X msg 94 557 stop;
#X obj 154 430 spigot 1;
#X obj 215 392 r \$0-repeater-hold;
#X obj 173 542 spigot 1;
#X obj 108 464 random 100;
#X obj 108 488 moses 50;
#X obj 108 512 t b b b;
#X obj 67 181 f.gen.weighted 60 80;
#X obj 67 246 random 3;
#X obj 67 289 tabread \$0-repeater-beat-div;
#X obj 67 309 sel 1 0;
#X obj 67 267 t f f;
#X obj 67 337 f;
#X obj 475 320 array sum \$0-repeater-beat-div;
#X obj 475 341 > 0;
#X obj 475 362 sel 1;
#X obj 256 225 random 3;
#X obj 256 288 tabread \$0-repeater-beat-div;
#X obj 256 308 sel 1 0;
#X obj 256 246 t f f;
#X obj 256 336 f;
#X obj 443 278 tabread \$0-repeater-beat-div;
#X obj 443 298 sel 1 0;
#X obj 443 236 t f f;
#X obj 443 326 f;
#X msg 443 216 6;
#X obj 67 210 sel 0 1 2;
#X obj 67 358 + 1;
#X obj 256 357 + 4;
#X obj 67 378 t a;
#X obj 256 267 + 3;
#X obj 443 257 + 6;
#X connect 0 0 1 0;
#X connect 1 0 2 0;
#X connect 2 0 3 0;
#X connect 3 0 22 0;
#X connect 4 0 14 0;
#X connect 5 0 7 0;
#X connect 6 0 7 0;
#X connect 7 0 12 0;
#X connect 8 0 9 0;
#X connect 9 0 16 0;
#X connect 9 1 4 1;
#X connect 10 0 5 0;
#X connect 13 0 6 0;
#X connect 14 0 11 0;
#X connect 14 3 19 0;
#X connect 15 0 13 0;
#X connect 16 0 10 0;
#X connect 17 0 16 1;
#X connect 17 0 18 1;
#X connect 18 0 5 0;
#X connect 19 0 20 0;
#X connect 20 0 21 0;
#X connect 21 0 13 0;
#X connect 21 1 18 0;
#X connect 21 2 15 0;
#X connect 22 0 41 0;
#X connect 23 0 26 0;
#X connect 24 0 25 0;
#X connect 25 0 27 0;
#X connect 25 1 28 0;
#X connect 26 0 24 0;
#X connect 26 1 27 1;
#X connect 27 0 42 0;
#X connect 28 0 29 0;
#X connect 29 0 30 0;
#X connect 30 0 22 0;
#X connect 31 0 34 0;
#X connect 32 0 33 0;
#X connect 33 0 35 0;
#X connect 33 1 28 0;
#X connect 34 0 45 0;
#X connect 34 1 35 1;
#X connect 35 0 43 0;
#X connect 36 0 37 0;
#X connect 37 0 39 0;
#X connect 37 1 28 0;
#X connect 38 0 46 0;
#X connect 38 1 39 1;
#X connect 39 0 44 0;
#X connect 40 0 38 0;
#X connect 41 0 23 0;
#X connect 41 1 31 0;
#X connect 41 2 40 0;
#X connect 42 0 44 0;
#X connect 43 0 44 0;
#X connect 44 0 4 0;
#X connect 45 0 32 0;
#X connect 46 0 36 0;
#X restore 40 163 pd RANDOM_BEAT_DIV___;
#X obj 40 316 outlet;
#X obj 40 135 tgl 15 0 empty empty empty 17 7 0 10 #fcfcfc #000000 #000000 0 1;
#X obj 40 9 inlet;
#X msg 40 220 beatdivisionl \$1;
#X msg 163 219 capturel \$1;
#X msg 268 220 beatdivisionr \$1;
#X msg 391 221 capturer \$1;
#X obj 74 52 r master-seq-on-off;
#X obj 40 101 f;
#X obj 74 73 sel 0 1;
#X msg 74 94 0;
#N canvas 145 73 699 723 RANDOM_BEAT_DIV___ 0;
#X obj 67 69 r link;
#X obj 67 120 i;
#X obj 67 141 change;
#X obj 67 162 bng 15 250 50 0 empty empty empty 17 7 0 10 #fcfcfc #000000 #000000;
#X obj 67 416 spigot;
#X msg 155 601 0;
#X msg 127 600 1;
#X obj 127 621 t a;
#X obj 155 33 inlet;
#X obj 155 84 t f f;
#X obj 155 576 sel 0;
#X obj 67 651 outlet;
#X obj 127 652 outlet;
#X obj 83 579 del 4;
#X obj 66 437 t f b b b;
#X msg 94 557 stop;
#X obj 154 430 spigot 1;
#X obj 215 392 r \$0-repeater-hold;
#X obj 173 542 spigot 1;
#X obj 108 464 random 100;
#X obj 108 488 moses 50;
#X obj 108 512 t b b b;
#X obj 67 181 f.gen.weighted 60 80;
#X obj 67 246 random 3;
#X obj 67 289 tabread \$0-repeater-beat-div;
#X obj 67 309 sel 1 0;
#X obj 67 267 t f f;
#X obj 67 337 f;
#X obj 475 320 array sum \$0-repeater-beat-div;
#X obj 475 341 > 0;
#X obj 475 362 sel 1;
#X obj 256 225 random 3;
#X obj 256 288 tabread \$0-repeater-beat-div;
#X obj 256 308 sel 1 0;
#X obj 256 246 t f f;
#X obj 256 336 f;
#X obj 443 278 tabread \$0-repeater-beat-div;
#X obj 443 298 sel 1 0;
#X obj 443 236 t f f;
#X obj 443 326 f;
#X msg 443 216 6;
#X obj 67 210 sel 0 1 2;
#X obj 67 358 + 1;
#X obj 256 357 + 4;
#X obj 67 378 t a;
#X obj 256 267 + 3;
#X obj 443 257 + 6;
#X connect 0 0 1 0;
#X connect 1 0 2 0;
#X connect 2 0 3 0;
#X connect 3 0 22 0;
#X connect 4 0 14 0;
#X connect 5 0 7 0;
#X connect 6 0 7 0;
#X connect 7 0 12 0;
#X connect 8 0 9 0;
#X connect 9 0 16 0;
#X connect 9 1 4 1;
#X connect 10 0 5 0;
#X connect 13 0 6 0;
#X connect 14 0 11 0;
#X connect 14 3 19 0;
#X connect 15 0 13 0;
#X connect 16 0 10 0;
#X connect 17 0 16 1;
#X connect 17 0 18 1;
#X connect 18 0 5 0;
#X connect 19 0 20 0;
#X connect 20 0 21 0;
#X connect 21 0 13 0;
#X connect 21 1 18 0;
#X connect 21 2 15 0;
#X connect 22 0 41 0;
#X connect 23 0 26 0;
#X connect 24 0 25 0;
#X connect 25 0 27 0;
#X connect 25 1 28 0;
#X connect 26 0 24 0;
#X connect 26 1 27 1;
#X connect 27 0 42 0;
#X connect 28 0 29 0;
#X connect 29 0 30 0;
#X connect 30 0 22 0;
#X connect 31 0 34 0;
#X connect 32 0 33 0;
#X connect 33 0 35 0;
#X connect 33 1 28 0;
#X connect 34 0 45 0;
#X connect 34 1 35 1;
#X connect 35 0 43 0;
#X connect 36 0 37 0;
#X connect 37 0 39 0;
#X connect 37 1 28 0;
#X connect 38 0 46 0;
#X connect 38 1 39 1;
#X connect 39 0 44 0;
#X connect 40 0 38 0;
#X connect 41 0 23 0;
#X connect 41 1 31 0;
#X connect 41 2 40 0;
#X connect 42 0 44 0;
#X connect 43 0 44 0;
#X connect 44 0 4 0;
#X connect 45 0 32 0;
#X connect 46 0 36 0;
#X restore 268 163 pd RANDOM_BEAT_DIV___;
#X obj 402 191 spigot;
#X obj 279 195 spigot;
#X obj 296 39 r \$0-repeater-linked;
#X obj 268 132 spigot 1;
#X obj 219 148 f;
#X msg 238 128 0;
#X obj 238 107 sel 1 0;
#X obj 296 63 t f f f;
#X obj 313 108 == 0;
#X connect 0 0 4 0;
#X connect 0 0 14 0;
#X connect 0 1 5 0;
#X connect 0 1 13 0;
#X connect 2 0 0 0;
#X connect 2 0 17 0;
#X connect 3 0 9 0;
#X connect 4 0 1 0;
#X connect 5 0 1 0;
#X connect 6 0 1 0;
#X connect 7 0 1 0;
#X connect 8 0 10 0;
#X connect 9 0 2 0;
#X connect 10 0 11 0;
#X connect 10 1 9 0;
#X connect 11 0 2 0;
#X connect 12 0 6 0;
#X connect 12 1 7 0;
#X connect 13 0 7 0;
#X connect 14 0 6 0;
#X connect 15 0 20 0;
#X connect 16 0 12 0;
#X connect 17 0 12 0;
#X connect 18 0 12 0;
#X connect 19 0 18 0;
#X connect 19 1 17 0;
#X connect 20 0 19 0;
#X connect 20 1 21 0;
#X connect 20 2 14 1;
#X connect 20 2 13 1;
#X connect 21 0 16 1;
#X restore 184 354 pd REPEATER_RANDOM__;
#X obj 222 324 s \$0-master-bus-fx;
#X obj 222 218 unpack s f;
#X obj 222 240 list fromsymbol;
#X obj 222 260 f.util.asci2char;
#X obj 222 281 pack f f;
#X msg 222 303 repeaterinput \$1 \$2;
#N canvas 1309 247 345 275 beatdivprocessing 0;
#X obj 50 25 inlet;
#X obj 50 62 fudiformat;
#X obj 50 86 fudiparse;
#X obj 50 168 tabwrite \$0-repeater-beat-div;
#X msg 50 114 \$2 \$1;
#X obj 50 135 unpack f f;
#X obj 49 197 array define \$0-repeater-beat-div 7;
#X connect 0 0 1 0;
#X connect 1 0 2 0;
#X connect 2 0 4 0;
#X connect 4 0 5 0;
#X connect 5 0 3 0;
#X connect 5 1 3 1;
#X restore 260 192 pd beatdivprocessing;
#X msg 71 564 repeaterlevel \$1;
#X obj 297 165 s \$0-repeater-linked;
#X obj 34 59 route repeaterparallel repeaterlevel repeaterbeatdivision repeaterhold repeaterrandom repeaterinput repeaterbeatdivisionsactive repeaterlinked repeatermono;
#X obj 335 136 s \$0-master-bus-fx;
#X msg 335 114 repeatermono \$1;
#X connect 0 0 25 0;
#X connect 2 0 4 0;
#X connect 5 0 8 0;
#X connect 6 0 9 0;
#X connect 7 0 5 0;
#X connect 7 1 6 0;
#X connect 10 0 23 0;
#X connect 10 1 13 0;
#X connect 11 0 12 0;
#X connect 15 0 14 0;
#X connect 17 0 18 0;
#X connect 17 1 20 1;
#X connect 18 0 19 0;
#X connect 19 0 20 0;
#X connect 20 0 21 0;
#X connect 21 0 16 0;
#X connect 23 0 3 0;
#X connect 25 0 2 0;
#X connect 25 1 10 0;
#X connect 25 2 7 0;
#X connect 25 3 11 0;
#X connect 25 4 15 0;
#X connect 25 5 17 0;
#X connect 25 6 22 0;
#X connect 25 7 24 0;
#X connect 25 8 27 0;
#X connect 25 9 1 0;
#X connect 27 0 26 0;
#X restore 23 114 pd REPEATER__________________________;
#X connect 0 0 2 0;
#X connect 2 0 3 0;
#X connect 3 0 4 0;
#X connect 4 0 1 0;
#X restore 63 157 pd MASTER_BUS_FX________;
#N canvas 421 166 517 514 TEMPO_&_PITCH________ 0;
#X obj 107 364 s \$0-bpm;
#X obj 107 254 * 240;
#X obj 107 275 i;
#X obj 116 345 s bpmglobal;
#X obj 107 234 f.seq.automater \$0 \$0-bpm 1;
#X obj 126 323 s \$0-master-bus-fx;
#X obj 47 393 s master-seq-on-off;
#N canvas 492 360 359 518 pitch-gamut-parse 0;
#X obj 60 41 inlet;
#X obj 60 436 outlet;
#X obj 96 364 r \$0-pitch-process;
#N canvas 923 53 517 660 PROCESSING_____ 0;
#X obj 32 12 inlet;
#X obj 32 53 t b a;
#X obj 63 542 list length;
#X obj 63 584 s pitch-gamut-length;
#X obj 63 564 max 1;
#X obj 59 138 unpack f f;
#X obj 59 162 f;
#X obj 32 295 until;
#X obj 32 384 list store;
#X obj 32 320 f;
#X obj 59 320 + 1;
#X msg 72 294 0, f 2;
#X obj 32 341 t f f;
#X obj 71 446 f;
#X obj 32 262 t b b l b, f 12;
#X obj 50 512 list;
#X obj 100 445 del 1;
#X obj 71 467 list prepend;
#X obj 71 488 t a a;
#X obj 59 193 array set pre-pitch-gamut;
#X obj 32 240 array get pre-pitch-gamut;
#X obj 243 614 array define master-pitch-gamut 12;
#X obj 50 615 array set master-pitch-gamut;
#X obj 32 404 moses 0;
#X obj 136 67 loadbang;
#X obj 234 193 array define pre-pitch-gamut 12;
#X msg 32 364 get \$1 1;
#X obj 136 87 t b b b;
#X msg 175 107 0 0;
#X msg 136 155 1 2 3 4 5 6 7 8 9 10 11 12;
#X msg 155 130 0;
#X connect 0 0 1 0;
#X connect 1 0 20 0;
#X connect 1 1 5 0;
#X connect 2 0 4 0;
#X connect 4 0 3 0;
#X connect 5 0 6 0;
#X connect 5 1 19 1;
#X connect 6 0 19 0;
#X connect 7 0 9 0;
#X connect 8 0 23 0;
#X connect 8 1 7 1;
#X connect 8 1 16 0;
#X connect 9 0 10 0;
#X connect 9 0 12 0;
#X connect 10 0 9 1;
#X connect 11 0 9 1;
#X connect 12 0 26 0;
#X connect 12 1 13 1;
#X connect 13 0 17 0;
#X connect 14 0 7 0;
#X connect 14 1 11 0;
#X connect 14 2 8 1;
#X connect 14 3 17 1;
#X connect 15 0 2 0;
#X connect 15 0 22 0;
#X connect 16 0 15 0;
#X connect 17 0 18 0;
#X connect 18 0 15 1;
#X connect 18 1 17 1;
#X connect 20 0 14 0;
#X connect 23 1 13 0;
#X connect 24 0 27 0;
#X connect 26 0 8 0;
#X connect 27 0 29 0;
#X connect 27 1 30 0;
#X connect 27 2 28 0;
#X connect 30 0 19 1;
#X restore 96 390 pd PROCESSING_____;
#X obj 60 102 f.util.pitchactive \$0 1;
#X obj 60 123 f.util.pitchactive \$0 2;
#X obj 60 144 f.util.pitchactive \$0 3;
#X obj 60 165 f.util.pitchactive \$0 4;
#X obj 60 186 f.util.pitchactive \$0 5;
#X obj 60 207 f.util.pitchactive \$0 6;
#X obj 60 228 f.util.pitchactive \$0 7;
#X obj 60 249 f.util.pitchactive \$0 8;
#X obj 60 270 f.util.pitchactive \$0 9;
#X obj 60 291 f.util.pitchactive \$0 10;
#X obj 60 312 f.util.pitchactive \$0 11;
#X obj 60 333 f.util.pitchactive \$0 12;
#N canvas 763 89 455 473 PitchGamut 0;
#X obj 73 126 i;
#X obj 99 126 + 1;
#X msg 73 84 12;
#X obj 73 105 until;
#X msg 131 99 0;
#X obj 99 147 t f f;
#X obj 126 169 - 1;
#X obj 99 327 oscformat;
#X obj 99 196 pack f f;
#X msg 99 217 \$2 \$1;
#X msg 156 296 set pitchgamut\$1;
#X msg 99 295 \$1;
#X obj 121 358 s to-o-s-c-interface;
#X obj 73 39 loadbang;
#X obj 156 46 r resetglobal;
#X obj 156 67 t b b;
#X obj 73 60 del 2000;
#X obj 99 435 outlet;
#X obj 99 383 oscparse;
#X obj 99 238 unpack f f;
#X obj 156 266 t f b f;
#X msg 305 295 set pitchactive\$1;
#X msg 274 295 0;
#X obj 99 404 list trim;
#X connect 0 0 1 0;
#X connect 1 0 0 1;
#X connect 1 0 5 0;
#X connect 2 0 3 0;
#X connect 3 0 0 0;
#X connect 4 0 0 1;
#X connect 5 0 8 0;
#X connect 5 1 6 0;
#X connect 6 0 8 1;
#X connect 7 0 12 0;
#X connect 7 0 18 0;
#X connect 8 0 9 0;
#X connect 9 0 19 0;
#X connect 10 0 7 0;
#X connect 11 0 7 0;
#X connect 13 0 4 0;
#X connect 13 0 16 0;
#X connect 14 0 15 0;
#X connect 15 0 2 0;
#X connect 15 1 4 0;
#X connect 16 0 2 0;
#X connect 18 0 23 0;
#X connect 19 0 11 0;
#X connect 19 1 20 0;
#X connect 20 0 10 0;
#X connect 20 1 22 0;
#X connect 20 2 21 0;
#X connect 21 0 7 0;
#X connect 22 0 7 0;
#X connect 23 0 17 0;
#X restore 83 71 pd PitchGamut;
#X connect 0 0 4 0;
#X connect 2 0 3 0;
#X connect 4 0 5 0;
#X connect 5 0 6 0;
#X connect 6 0 7 0;
#X connect 7 0 8 0;
#X connect 8 0 9 0;
#X connect 9 0 10 0;
#X connect 10 0 11 0;
#X connect 11 0 12 0;
#X connect 12 0 13 0;
#X connect 13 0 14 0;
#X connect 14 0 15 0;
#X connect 15 0 1 0;
#X connect 16 0 4 0;
#X coords 0 518 1 517 85 60 0;
#X restore 350 85 pd pitch-gamut-parse;
#X obj 289 131 f.util.masterkey \$0;
#X obj 47 20 inlet;
#X obj 388 466 outlet;
#X obj 301 112 s root-offset;
#X obj 168 169 s \$0-bpmlock;
#N canvas 21 290 238 348 BPM_LOCK___ 0;
#X obj 53 27 inlet;
#X obj 53 292 outlet;
#X obj 53 206 clip 1 240;
#X obj 53 181 i 110;
#X obj 53 227 f.util.switch;
#X obj 80 135 i;
#X obj 80 93 t f f;
#X obj 80 114 sel 0;
#X obj 80 72 r \$0-bpmlock;
#X obj 80 156 t f f;
#X connect 0 0 3 0;
#X connect 2 0 4 0;
#X connect 3 0 2 0;
#X connect 4 0 1 0;
#X connect 4 0 5 1;
#X connect 4 1 1 0;
#X connect 5 0 9 0;
#X connect 6 0 7 0;
#X connect 6 1 4 1;
#X connect 7 0 5 0;
#X connect 8 0 6 0;
#X connect 9 0 3 1;
#X connect 9 1 1 0;
#X restore 107 190 pd BPM_LOCK___;
#X obj 228 150 s \$0-bpm-half-time;
#X msg 125 302 bpm \$1;
#X obj 47 58 route seqonglobal bpm bpmhold bpmhalftime pitchroot;
#X obj 107 211 / 240;
#X msg 288 222 110;
#X obj 288 201 r resetglobal;
#X connect 1 0 2 0;
#X connect 2 0 0 0;
#X connect 2 0 3 0;
#X connect 2 0 15 0;
#X connect 4 0 1 0;
#X connect 7 0 10 0;
#X connect 9 0 16 0;
#X connect 13 0 17 0;
#X connect 15 0 5 0;
#X connect 16 0 6 0;
#X connect 16 1 13 0;
#X connect 16 2 12 0;
#X connect 16 3 14 0;
#X connect 16 4 8 0;
#X connect 16 5 7 0;
#X connect 17 0 4 0;
#X connect 18 0 17 0;
#X connect 19 0 18 0;
#X restore 63 134 pd TEMPO_&_PITCH________;
#X obj 78 106 print OSC-Received;
#X connect 1 0 8 0;
#X connect 2 0 1 1;
#X connect 3 0 1 0;
#X connect 3 0 7 0;
#X connect 5 0 4 0;
#X connect 6 0 5 0;
#X connect 7 0 6 0;
#X restore 20 41 pd GLOBAL_MESSAGES_RECEIVE___;
#N canvas 312 363 1117 550 GLOBAL_MESSAGES__SEND_____ 0;
#X obj 40 12 inlet;
#X obj 40 61 r \$0-bpm;
#X obj 40 106 s to-o-s-c-interface;
#X obj 43 283 oscformat repeaterlevel;
#X obj 43 261 r \$0-repeater-level-gui;
#X obj 43 305 s to-o-s-c-interface;
#X obj 221 140 r \$0-repeater-random-beat-out-gui;
#X msg 221 161 \$2 \$1;
#X obj 221 182 unpack f f;
#X obj 221 304 s to-o-s-c-interface;
#X obj 221 282 oscformat repeaterbeatdivision;
#X obj 278 223 - 1;
#X msg 278 244 set repeaterbeatdivision \$1;
#X obj 221 203 t b b;
#X msg 221 245 0;
#X msg 248 245 1;
#X obj 221 224 del 100;
#X obj 32 471 s to-o-s-c-interface;
#X obj 292 469 s to-o-s-c-interface;
#X obj 525 466 s to-o-s-c-interface;
#X obj 762 463 s to-o-s-c-interface;
#X obj 32 427 r \$0-rollingfreezer-repeater-send;
#X obj 32 449 oscformat rollingfreezerrepeatersend;
#X obj 292 425 r \$0-rollingfreezer-wet-level;
#X obj 292 447 oscformat rollingfreezerwetlevel;
#X obj 525 422 r \$0-rollingfreezer-dry-level;
#X obj 525 444 oscformat rollingfreezerdrylevel;
#X obj 762 419 r \$0-rollingfreezer-transpose;
#X obj 762 441 oscformat rollingfreezertranspose;
#X obj 493 134 s to-o-s-c-interface;
#X obj 493 112 oscformat pitchroot;
#X obj 493 90 r \$0-scale-root-note;
#X obj 40 83 oscformat bpmgui;
#X obj 485 245 s to-o-s-c-interface;
#X obj 485 201 r \$0-digitaliser-level-gui;
#X obj 485 223 oscformat digitaliserlevel;
#X obj 681 243 s to-o-s-c-interface;
#X obj 681 199 r \$0-digitaliser-amount-gui;
#X obj 681 221 oscformat digitaliseramount;
#X obj 884 243 s to-o-s-c-interface;
#X obj 884 199 r \$0-limiter-level-gui;
#X obj 884 221 oscformat limiterlevel;
#N canvas 112 82 1357 759 RESET 0;
#X obj 56 726 s to-o-s-c-interface;
#X obj 56 704 oscformat;
#X obj 101 12 r resetglobal;
#X obj 101 249 t b a;
#X msg 101 270 0;
#X obj 101 292 s \$0-mixer-page-reset;
#X obj 56 679 r \$0-mixer-page-reset;
#X msg 118 202 set rollingfreezertransposelfodepth;
#X msg 101 228 set rollingfreezertransposelfofreq;
#X obj 880 129 t b a;
#X obj 880 172 s \$0-mixer-page-reset;
#X msg 880 108 set rollingfreezerdrylevel;
#X obj 63 341 t b a;
#X obj 63 384 s \$0-mixer-page-reset;
#X msg 63 320 set rollingfreezertranspose;
#X msg 63 362 3;
#X msg 880 150 1;
#X msg 860 202 set rollingfreezerfeedback;
#X obj 840 248 t b a;
#X obj 840 291 s \$0-mixer-page-reset;
#X msg 840 269 0;
#X msg 840 227 set rollingfreezerrepeatersend;
#X obj 742 585 t b a;
#X obj 742 628 s \$0-mixer-page-reset;
#X msg 742 606 0;
#X msg 742 564 set digitaliseramount;
#X obj 1106 568 t b a;
#X obj 1106 611 s \$0-mixer-page-reset;
#X msg 1106 589 0;
#X msg 1106 547 set limiterlevel;
#X obj 1152 455 t b a;
#X obj 1152 498 s \$0-mixer-page-reset;
#X msg 1152 434 set bpm;
#X msg 1152 476 110;
#X msg 136 178 set rollingfreezertransposechaos;
#X msg 153 154 set rollingfreezertransposemoddepth;
#X msg 759 539 set digitaliseramountlfofreq;
#X msg 776 514 set digitaliseramountlfodepth;
#X msg 1129 522 set repeaterlevel;
#X msg 793 488 set digitaliseramountchaos;
#X msg 810 463 set digitaliseramountmoddepth;
#X obj 171 105 f.util.modclear rollingfreezertransposemod;
#X obj 171 129 s to-o-s-c-interface;
#X obj 101 67 t b b b b b b;
#X obj 474 294 t b a;
#X msg 474 315 0;
#X obj 474 337 s \$0-mixer-page-reset;
#X obj 544 136 s to-o-s-c-interface;
#X obj 474 73 t b b b b b b;
#X msg 474 234 set rollingfreezerwetlevellfofreq;
#X msg 491 208 set rollingfreezerwetlevellfodepth;
#X msg 509 184 set rollingfreezerwetlevelchaos;
#X msg 526 160 set rollingfreezerwetlevelmoddepth;
#X obj 544 112 f.util.modclear rollingfreezerwetlevelmod;
#X obj 840 74 t b b b b;
#X msg 495 262 set rollingfreezerwetlevel;
#X obj 1106 407 t b b b;
#X obj 742 391 t b b b b b b b;
#X obj 827 439 s to-o-s-c-interface;
#X obj 827 415 f.util.modclear digitaliseramountmod;
#X obj 379 586 t b a;
#X obj 379 629 s \$0-mixer-page-reset;
#X msg 379 607 0;
#X obj 379 392 t b b b b b b b;
#X obj 464 440 s to-o-s-c-interface;
#X msg 379 565 set digitaliserlevel;
#X msg 396 540 set digitaliserlevellfofreq;
#X msg 413 515 set digitaliserlevellfodepth;
#X msg 430 489 set igitaliserlevellfodepthchaos;
#X msg 447 464 set digitaliserlevelmoddepth;
#X obj 464 416 f.util.modclear digitaliserlevelmod;
#X connect 1 0 0 0;
#X connect 2 0 43 0;
#X connect 3 0 4 0;
#X connect 3 1 5 0;
#X connect 4 0 5 0;
#X connect 6 0 1 0;
#X connect 7 0 3 0;
#X connect 8 0 3 0;
#X connect 9 0 16 0;
#X connect 9 1 10 0;
#X connect 11 0 9 0;
#X connect 12 0 15 0;
#X connect 12 1 13 0;
#X connect 14 0 12 0;
#X connect 15 0 13 0;
#X connect 16 0 10 0;
#X connect 17 0 18 0;
#X connect 18 0 20 0;
#X connect 18 1 19 0;
#X connect 20 0 19 0;
#X connect 21 0 18 0;
#X connect 22 0 24 0;
#X connect 22 1 23 0;
#X connect 24 0 23 0;
#X connect 25 0 22 0;
#X connect 26 0 28 0;
#X connect 26 1 27 0;
#X connect 28 0 27 0;
#X connect 29 0 26 0;
#X connect 30 0 33 0;
#X connect 30 1 31 0;
#X connect 32 0 30 0;
#X connect 33 0 31 0;
#X connect 34 0 3 0;
#X connect 35 0 3 0;
#X connect 36 0 22 0;
#X connect 37 0 22 0;
#X connect 38 0 26 0;
#X connect 39 0 22 0;
#X connect 40 0 22 0;
#X connect 41 0 42 0;
#X connect 43 0 8 0;
#X connect 43 0 14 0;
#X connect 43 1 7 0;
#X connect 43 2 34 0;
#X connect 43 3 35 0;
#X connect 43 4 41 0;
#X connect 43 5 48 0;
#X connect 44 0 45 0;
#X connect 44 1 46 0;
#X connect 45 0 46 0;
#X connect 48 0 49 0;
#X connect 48 1 50 0;
#X connect 48 2 51 0;
#X connect 48 3 52 0;
#X connect 48 4 53 0;
#X connect 48 5 54 0;
#X connect 48 5 55 0;
#X connect 49 0 44 0;
#X connect 50 0 44 0;
#X connect 51 0 44 0;
#X connect 52 0 44 0;
#X connect 53 0 47 0;
#X connect 54 0 21 0;
#X connect 54 1 17 0;
#X connect 54 2 11 0;
#X connect 54 3 63 0;
#X connect 55 0 44 0;
#X connect 56 0 29 0;
#X connect 56 1 38 0;
#X connect 56 2 32 0;
#X connect 57 0 25 0;
#X connect 57 1 36 0;
#X connect 57 2 37 0;
#X connect 57 3 39 0;
#X connect 57 4 40 0;
#X connect 57 5 59 0;
#X connect 57 6 56 0;
#X connect 59 0 58 0;
#X connect 60 0 62 0;
#X connect 60 1 61 0;
#X connect 62 0 61 0;
#X connect 63 0 65 0;
#X connect 63 1 66 0;
#X connect 63 2 67 0;
#X connect 63 3 68 0;
#X connect 63 4 69 0;
#X connect 63 5 70 0;
#X connect 63 6 57 0;
#X connect 65 0 60 0;
#X connect 66 0 60 0;
#X connect 67 0 60 0;
#X connect 68 0 60 0;
#X connect 69 0 60 0;
#X connect 70 0 64 0;
#X restore 1006 456 pd RESET;
#X connect 1 0 32 0;
#X connect 3 0 5 0;
#X connect 4 0 3 0;
#X connect 6 0 7 0;
#X connect 7 0 8 0;
#X connect 8 0 13 0;
#X connect 8 1 11 0;
#X connect 10 0 9 0;
#X connect 11 0 12 0;
#X connect 12 0 10 0;
#X connect 13 0 16 0;
#X connect 13 1 15 0;
#X connect 14 0 10 0;
#X connect 15 0 10 0;
#X connect 16 0 14 0;
#X connect 21 0 22 0;
#X connect 22 0 17 0;
#X connect 23 0 24 0;
#X connect 24 0 18 0;
#X connect 25 0 26 0;
#X connect 26 0 19 0;
#X connect 27 0 28 0;
#X connect 28 0 20 0;
#X connect 30 0 29 0;
#X connect 31 0 30 0;
#X connect 32 0 2 0;
#X connect 34 0 35 0;
#X connect 35 0 33 0;
#X connect 37 0 38 0;
#X connect 38 0 36 0;
#X connect 40 0 41 0;
#X connect 41 0 39 0;
#X restore 20 67 pd GLOBAL_MESSAGES__SEND_____;
#X connect 0 0 1 0;
#X restore 28 60 pd GLOBAL_OSC_MESSAGE_PARSE___;
#X restore 39 126 pd CONTROL_TRIPES_;
#X obj 27 14 cnv 15 148 60 empty empty FORMULS 33 29 0 20 #c4fcc4 #0c4410 0;
#N canvas 59 109 384 267 INIT_&_DECLARE_ 0;
#X obj 65 100 loadbang;
#X msg 65 130 \; pd dsp 1 \;;
#N canvas 0 75 415 248 INIT_PARAMETER_SET 0;
#X obj 62 153 s resetglobal;
#X obj 62 60 loadbang;
#X msg 62 122 1;
#X obj 62 81 del 5000;
#X msg 95 124 0;
#X obj 95 101 del 10;
#X msg 159 132 110;
#X obj 159 153 s \$0-bpm;
#X connect 1 0 3 0;
#X connect 1 0 6 0;
#X connect 2 0 0 0;
#X connect 3 0 2 0;
#X connect 3 0 5 0;
#X connect 4 0 0 0;
#X connect 5 0 4 0;
#X connect 6 0 7 0;
#X restore 64 171 pd INIT_PARAMETER_SET;
#X obj 66 37 declare -path controlabstractions;
#X obj 66 59 declare -path externals;
#X obj 66 14 declare -path audioabstractions;
#X connect 0 0 1 0;
#X restore 39 102 pd INIT_&_DECLARE_;
#N canvas 644 321 286 301 AUDIO_TRIPES___ 0;
#X obj 66 50 f.formuls~ 1;
#X obj 66 18 r \$0-formuls;
#N canvas 135 405 560 333 MASTER_BUS_FX_+_AUDIO_OUT 0;
#X obj 39 19 inlet;
#X obj 39 301 s \$0-reverb-bypass;
#X obj 39 73 route fmasterbusfx;
#X obj 39 102 route reverbbypass masteramp;
#X obj 135 277 s \$0-master-amp;
#N canvas 431 72 817 380 AUDIO_RECEIVES_DIGITALISER_&_MULTI_OUT 0;
#X text 15 12 receive audio sends from formulssynth~ abstraction;
#X obj 349 139 r~ 1-l;
#X obj 369 162 r~ 1-r;
#X obj 349 191 *~ 0.5;
#X obj 423 189 *~ 0.5;
#X obj 499 188 *~ 0.5;
#X obj 573 186 *~ 0.5;
#X obj 648 185 *~ 0.5;
#X obj 722 183 *~ 0.5;
#X obj 423 137 r~ 2-l;
#X obj 443 160 r~ 2-r;
#X obj 499 136 r~ 3-l;
#X obj 519 159 r~ 3-r;
#X obj 573 134 r~ 4-l;
#X obj 593 157 r~ 4-r;
#X obj 648 133 r~ 5-l;
#X obj 669 156 r~ 5-r;
#X obj 722 131 r~ 6-l;
#X obj 742 154 r~ 6-r;
#X obj 62 172 f_digitaliser~;
#N canvas 191 105 1164 797 DIGITALISER_INPUT_SELECT 0;
#X obj 45 738 outlet~;
#X obj 49 231 *~;
#X obj 67 160 sig~;
#X obj 67 89 route 0 1 2 3 4 5;
#X obj 138 230 *~;
#X obj 156 159 sig~;
#X obj 221 232 *~;
#X obj 239 161 sig~;
#X obj 302 232 *~;
#X obj 320 161 sig~;
#X obj 385 232 *~;
#X obj 403 161 sig~;
#X obj 467 232 *~;
#X obj 485 161 sig~;
#X obj 67 4 inlet;
#X obj 208 711 r~ \$0-fre-rep;
#X obj 327 749 outlet~;
#X obj 607 243 *~;
#X obj 625 172 sig~;
#X obj 625 101 route 0 1 2 3 4 5;
#X obj 694 242 *~;
#X obj 712 171 sig~;
#X obj 777 244 *~;
#X obj 795 173 sig~;
#X obj 858 244 *~;
#X obj 876 173 sig~;
#X obj 946 244 *~;
#X obj 964 173 sig~;
#X obj 1034 244 *~;
#X obj 1052 173 sig~;
#X obj 49 269 throw~ \$0-dig-out-l;
#X obj 607 281 throw~ \$0-dig-out-r;
#X obj 326 708 catch~ \$0-dig-out-r;
#X obj 45 711 catch~ \$0-dig-out-l;
#X obj 44 581 *~;
#X obj 62 427 route 0 1 2 3 4 5;
#X obj 131 580 *~;
#X obj 224 582 *~;
#X obj 315 582 *~;
#X obj 403 582 *~;
#X obj 491 582 *~;
#X obj 62 347 unpack f f;
#X obj 115 373 == 0;
#X obj 62 400 pack f f;
#X obj 44 629 throw~ \$0-cle-out-l;
#X obj 621 584 *~;
#X obj 639 430 route 0 1 2 3 4 5;
#X obj 708 583 *~;
#X obj 791 585 *~;
#X obj 872 585 *~;
#X obj 960 585 *~;
#X obj 1048 585 *~;
#X obj 638 352 unpack f f;
#X obj 691 378 == 0;
#X obj 638 405 pack f f;
#X obj 621 632 throw~ \$0-cle-out-r;
#X obj 534 752 outlet~;
#X obj 816 743 outlet~;
#X obj 534 705 catch~ \$0-cle-out-l;
#X obj 815 702 catch~ \$0-cle-out-r;
#X obj 697 705 r~ \$0-fre-rep;
#X obj 49 137 r~ 1-l;
#X obj 138 136 r~ 2-l;
#X obj 221 138 r~ 3-l;
#X obj 302 138 r~ 4-l;
#X obj 385 137 r~ 5-l;
#X obj 467 138 r~ 6-l;
#X obj 44 475 r~ 1-l;
#X obj 131 474 r~ 2-l;
#X obj 224 476 r~ 3-l;
#X obj 315 476 r~ 4-l;
#X obj 403 475 r~ 5-l;
#X obj 491 476 r~ 6-l;
#X obj 607 149 r~ 1-r;
#X obj 694 148 r~ 2-r;
#X obj 777 150 r~ 3-r;
#X obj 858 150 r~ 4-r;
#X obj 946 149 r~ 5-r;
#X obj 1034 150 r~ 6-r;
#X obj 621 478 r~ 1-r;
#X obj 708 477 r~ 2-r;
#X obj 791 479 r~ 3-r;
#X obj 872 479 r~ 4-r;
#X obj 960 478 r~ 5-r;
#X obj 1048 479 r~ 6-r;
#X obj 62 508 sig~ 1;
#X obj 149 507 sig~ 1;
#X obj 242 509 sig~ 1;
#X obj 333 509 sig~ 1;
#X obj 421 509 sig~ 1;
#X obj 509 509 sig~ 1;
#X obj 639 511 sig~ 1;
#X obj 726 510 sig~ 1;
#X obj 809 512 sig~ 1;
#X obj 890 512 sig~ 1;
#X obj 978 512 sig~ 1;
#X obj 1066 512 sig~ 1;
#X obj 67 28 s \$0-dig-mes;
#X obj 68 65 r \$0-dig-mes;
#X obj 625 74 r \$0-dig-mes;
#X obj 62 323 r \$0-dig-mes;
#X obj 638 326 r \$0-dig-mes;
#X obj 67 208 *~;
#X obj 156 207 *~;
#X obj 239 209 *~;
#X obj 320 209 *~;
#X obj 403 209 *~;
#X obj 485 209 *~;
#X obj 625 220 *~;
#X obj 712 219 *~;
#X obj 795 221 *~;
#X obj 876 221 *~;
#X obj 964 221 *~;
#X obj 1052 221 *~;
#X obj 62 556 *~;
#X obj 149 555 *~;
#X obj 242 557 *~;
#X obj 333 557 *~;
#X obj 421 557 *~;
#X obj 509 557 *~;
#X obj 639 559 *~;
#X obj 726 558 *~;
#X obj 809 560 *~;
#X obj 890 560 *~;
#X obj 978 560 *~;
#X obj 1066 560 *~;
#X obj 67 184 lop~ 10;
#X obj 156 183 lop~ 10;
#X obj 239 185 lop~ 10;
#X obj 320 185 lop~ 10;
#X obj 403 185 lop~ 10;
#X obj 485 185 lop~ 10;
#X obj 625 196 lop~ 10;
#X obj 712 195 lop~ 10;
#X obj 795 197 lop~ 10;
#X obj 876 197 lop~ 10;
#X obj 964 197 lop~ 10;
#X obj 1052 197 lop~ 10;
#X obj 1066 536 lop~ 10;
#X obj 978 536 lop~ 10;
#X obj 890 536 lop~ 10;
#X obj 809 536 lop~ 10;
#X obj 726 534 lop~ 10;
#X obj 639 535 lop~ 10;
#X obj 509 533 lop~ 10;
#X obj 421 533 lop~ 10;
#X obj 333 533 lop~ 10;
#X obj 242 533 lop~ 10;
#X obj 149 531 lop~ 10;
#X obj 62 532 lop~ 10;
#X connect 1 0 30 0;
#X connect 2 0 126 0;
#X connect 3 0 2 0;
#X connect 3 1 5 0;
#X connect 3 2 7 0;
#X connect 3 3 9 0;
#X connect 3 4 11 0;
#X connect 3 5 13 0;
#X connect 4 0 30 0;
#X connect 5 0 127 0;
#X connect 6 0 30 0;
#X connect 7 0 128 0;
#X connect 8 0 30 0;
#X connect 9 0 129 0;
#X connect 10 0 30 0;
#X connect 11 0 130 0;
#X connect 12 0 30 0;
#X connect 13 0 131 0;
#X connect 14 0 97 0;
#X connect 17 0 31 0;
#X connect 18 0 132 0;
#X connect 19 0 18 0;
#X connect 19 1 21 0;
#X connect 19 2 23 0;
#X connect 19 3 25 0;
#X connect 19 4 27 0;
#X connect 19 5 29 0;
#X connect 20 0 31 0;
#X connect 21 0 133 0;
#X connect 22 0 31 0;
#X connect 23 0 134 0;
#X connect 24 0 31 0;
#X connect 25 0 135 0;
#X connect 26 0 31 0;
#X connect 27 0 136 0;
#X connect 28 0 31 0;
#X connect 29 0 137 0;
#X connect 32 0 16 0;
#X connect 33 0 0 0;
#X connect 34 0 44 0;
#X connect 35 0 85 0;
#X connect 35 1 86 0;
#X connect 35 2 87 0;
#X connect 35 3 88 0;
#X connect 35 4 89 0;
#X connect 35 5 90 0;
#X connect 36 0 44 0;
#X connect 37 0 44 0;
#X connect 38 0 44 0;
#X connect 39 0 44 0;
#X connect 40 0 44 0;
#X connect 41 0 43 0;
#X connect 41 1 42 0;
#X connect 42 0 43 1;
#X connect 43 0 35 0;
#X connect 45 0 55 0;
#X connect 46 0 91 0;
#X connect 46 1 92 0;
#X connect 46 2 93 0;
#X connect 46 3 94 0;
#X connect 46 4 95 0;
#X connect 46 5 96 0;
#X connect 47 0 55 0;
#X connect 48 0 55 0;
#X connect 49 0 55 0;
#X connect 50 0 55 0;
#X connect 51 0 55 0;
#X connect 52 0 54 0;
#X connect 52 1 53 0;
#X connect 53 0 54 1;
#X connect 54 0 46 0;
#X connect 58 0 56 0;
#X connect 59 0 57 0;
#X connect 61 0 1 0;
#X connect 62 0 4 0;
#X connect 63 0 6 0;
#X connect 64 0 8 0;
#X connect 65 0 10 0;
#X connect 66 0 12 0;
#X connect 67 0 34 0;
#X connect 68 0 36 0;
#X connect 69 0 37 0;
#X connect 70 0 38 0;
#X connect 71 0 39 0;
#X connect 72 0 40 0;
#X connect 73 0 17 0;
#X connect 74 0 20 0;
#X connect 75 0 22 0;
#X connect 76 0 24 0;
#X connect 77 0 26 0;
#X connect 78 0 28 0;
#X connect 79 0 45 0;
#X connect 80 0 47 0;
#X connect 81 0 48 0;
#X connect 82 0 49 0;
#X connect 83 0 50 0;
#X connect 84 0 51 0;
#X connect 85 0 149 0;
#X connect 86 0 148 0;
#X connect 87 0 147 0;
#X connect 88 0 146 0;
#X connect 89 0 145 0;
#X connect 90 0 144 0;
#X connect 91 0 143 0;
#X connect 92 0 142 0;
#X connect 93 0 141 0;
#X connect 94 0 140 0;
#X connect 95 0 139 0;
#X connect 96 0 138 0;
#X connect 98 0 3 0;
#X connect 99 0 19 0;
#X connect 100 0 41 0;
#X connect 101 0 52 0;
#X connect 102 0 1 1;
#X connect 103 0 4 1;
#X connect 104 0 6 1;
#X connect 105 0 8 1;
#X connect 106 0 10 1;
#X connect 107 0 12 1;
#X connect 108 0 17 1;
#X connect 109 0 20 1;
#X connect 110 0 22 1;
#X connect 111 0 24 1;
#X connect 112 0 26 1;
#X connect 113 0 28 1;
#X connect 114 0 34 1;
#X connect 115 0 36 1;
#X connect 116 0 37 1;
#X connect 117 0 38 1;
#X connect 118 0 39 1;
#X connect 119 0 40 1;
#X connect 120 0 45 1;
#X connect 121 0 47 1;
#X connect 122 0 48 1;
#X connect 123 0 49 1;
#X connect 124 0 50 1;
#X connect 125 0 51 1;
#X connect 126 0 102 0;
#X connect 126 0 102 1;
#X connect 127 0 103 0;
#X connect 127 0 103 1;
#X connect 128 0 104 0;
#X connect 128 0 104 1;
#X connect 129 0 105 0;
#X connect 129 0 105 1;
#X connect 130 0 106 0;
#X connect 130 0 106 1;
#X connect 131 0 107 0;
#X connect 131 0 107 1;
#X connect 132 0 108 0;
#X connect 132 0 108 1;
#X connect 133 0 109 0;
#X connect 133 0 109 1;
#X connect 134 0 110 0;
#X connect 134 0 110 1;
#X connect 135 0 111 0;
#X connect 135 0 111 1;
#X connect 136 0 112 0;
#X connect 136 0 112 1;
#X connect 137 0 113 0;
#X connect 137 0 113 1;
#X connect 138 0 125 0;
#X connect 138 0 125 1;
#X connect 139 0 124 0;
#X connect 139 0 124 1;
#X connect 140 0 123 0;
#X connect 140 0 123 1;
#X connect 141 0 122 0;
#X connect 141 0 122 1;
#X connect 142 0 121 0;
#X connect 142 0 121 1;
#X connect 143 0 120 0;
#X connect 143 0 120 1;
#X connect 144 0 119 0;
#X connect 144 0 119 1;
#X connect 145 0 118 0;
#X connect 145 0 118 1;
#X connect 146 0 117 0;
#X connect 146 0 117 1;
#X connect 147 0 116 0;
#X connect 147 0 116 1;
#X connect 148 0 115 0;
#X connect 148 0 115 1;
#X connect 149 0 114 0;
#X connect 149 0 114 1;
#X restore 109 139 pd DIGITALISER_INPUT_SELECT;
#X obj 109 109 route digitaliserinput;
#X obj 109 298 outlet~;
#X obj 295 298 outlet~;
#X obj 61 56 inlet;
#X obj 39 290 outlet;
#X obj 349 240 dac~ 9 10 11 12 13 14;
#X connect 1 0 3 0;
#X connect 2 0 3 0;
#X connect 3 0 26 0;
#X connect 4 0 26 1;
#X connect 5 0 26 2;
#X connect 6 0 26 3;
#X connect 7 0 26 4;
#X connect 8 0 26 5;
#X connect 9 0 4 0;
#X connect 10 0 4 0;
#X connect 11 0 5 0;
#X connect 12 0 5 0;
#X connect 13 0 6 0;
#X connect 14 0 6 0;
#X connect 15 0 7 0;
#X connect 16 0 7 0;
#X connect 17 0 8 0;
#X connect 18 0 8 0;
#X connect 19 1 22 0;
#X connect 19 2 23 0;
#X connect 20 0 19 1;
#X connect 20 1 19 2;
#X connect 20 2 22 0;
#X connect 20 3 23 0;
#X connect 21 0 20 0;
#X connect 21 1 25 0;
#X connect 24 0 19 0;
#X connect 24 0 21 0;
#X restore 232 135 pd AUDIO_RECEIVES_DIGITALISER_&_MULTI_OUT;
#N canvas 313 170 886 617 ROLLINGFREEZER________________________ 0;
#X obj 686 56 inlet~;
#X obj 457 518 outlet~;
#X obj 9 36 inlet;
#X obj 363 521 outlet;
#X obj 552 515 outlet~;
#X text 350 554 message reject;
#X obj 782 55 inlet~;
#X obj 686 524 outlet~;
#X obj 686 414 *~;
#X obj 723 355 lop~ 100;
#X obj 723 379 *~;
#X obj 782 521 outlet~;
#X obj 782 415 *~;
#X obj 723 331 sig~ 1;
#X msg 117 335 transpose \$1;
#X obj 117 359 s \$0-freeze;
#X obj 540 166 r \$0-freeze;
#X obj 215 274 s \$0-freeze;
#X msg 215 250 freeze \$1 \$2;
#X text 484 545 wet signal;
#X text 750 545 dry signal;
#X obj 9 438 s \$0-freeze;
#X msg 9 414 level \$1;
#X msg 274 192 input \$1 \$2;
#X obj 274 216 s \$0-freeze;
#X obj 58 389 s \$0-dry-level;
#X obj 723 303 r \$0-dry-level;
#X obj 118 240 - 0.5;
#X obj 117 287 i;
#X obj 118 264 * 7;
#X obj 117 311 * 12;
#X obj 176 304 s \$0-repeater-send;
#X obj 475 321 f.audio.crossfade~;
#X obj 475 296 r \$0-repeater-send;
#X obj 580 347 *~;
#N canvas 0 38 1512 456 FREEZE_INPUT_SELECT 0;
#X obj 40 378 outlet~;
#X obj 49 211 *~;
#X obj 67 160 sig~;
#X obj 67 184 lop~ 100;
#X obj 121 35 r \$0-freeze;
#X obj 121 89 route 0 1 2 3 4 5;
#X obj 216 210 *~;
#X obj 234 159 sig~;
#X obj 234 183 lop~ 100;
#X obj 389 212 *~;
#X obj 407 161 sig~;
#X obj 407 185 lop~ 100;
#X obj 559 212 *~;
#X obj 577 161 sig~;
#X obj 577 185 lop~ 100;
#X obj 727 212 *~;
#X obj 745 161 sig~;
#X obj 745 185 lop~ 100;
#X obj 895 212 *~;
#X obj 913 161 sig~;
#X obj 913 185 lop~ 100;
#X obj 121 59 route input;
#X obj 49 127 r~ 1-m-l;
#X obj 216 126 r~ 2-m-l;
#X obj 389 128 r~ 3-m-l;
#X obj 559 128 r~ 4-m-l;
#X obj 727 127 r~ 5-m-l;
#X obj 895 128 r~ 6-m-l;
#X obj 48 270 throw~ \$0-rol-fre-out-l;
#X obj 216 270 throw~ \$0-rol-fre-out-l;
#X obj 389 271 throw~ \$0-rol-fre-out-l;
#X obj 559 271 throw~ \$0-rol-fre-out-l;
#X obj 727 271 throw~ \$0-rol-fre-out-l;
#X obj 895 271 throw~ \$0-rol-fre-out-l;
#X obj 40 351 catch~ \$0-rol-fre-out-l;
#X obj 1104 388 outlet~;
#X obj 1113 221 *~;
#X obj 1131 170 sig~;
#X obj 1131 194 lop~ 100;
#X obj 1185 99 route 0 1 2 3 4 5;
#X obj 1280 220 *~;
#X obj 1298 169 sig~;
#X obj 1298 193 lop~ 100;
#X obj 1453 222 *~;
#X obj 1471 171 sig~;
#X obj 1471 195 lop~ 100;
#X obj 1623 222 *~;
#X obj 1641 171 sig~;
#X obj 1641 195 lop~ 100;
#X obj 1791 222 *~;
#X obj 1809 171 sig~;
#X obj 1809 195 lop~ 100;
#X obj 1959 222 *~;
#X obj 1977 171 sig~;
#X obj 1977 195 lop~ 100;
#X obj 1113 137 r~ 1-m-r;
#X obj 1280 136 r~ 2-m-r;
#X obj 1453 138 r~ 3-m-r;
#X obj 1623 138 r~ 4-m-r;
#X obj 1791 137 r~ 5-m-r;
#X obj 1959 138 r~ 6-m-r;
#X obj 1112 280 throw~ \$0-rol-fre-out-r;
#X obj 1280 280 throw~ \$0-rol-fre-out-r;
#X obj 1453 281 throw~ \$0-rol-fre-out-r;
#X obj 1623 281 throw~ \$0-rol-fre-out-r;
#X obj 1791 281 throw~ \$0-rol-fre-out-r;
#X obj 1959 281 throw~ \$0-rol-fre-out-r;
#X obj 1104 361 catch~ \$0-rol-fre-out-r;
#X connect 1 0 28 0;
#X connect 2 0 3 0;
#X connect 3 0 1 1;
#X connect 4 0 21 0;
#X connect 5 0 2 0;
#X connect 5 1 7 0;
#X connect 5 2 10 0;
#X connect 5 3 13 0;
#X connect 5 4 16 0;
#X connect 5 5 19 0;
#X connect 6 0 29 0;
#X connect 7 0 8 0;
#X connect 8 0 6 1;
#X connect 9 0 30 0;
#X connect 10 0 11 0;
#X connect 11 0 9 1;
#X connect 12 0 31 0;
#X connect 13 0 14 0;
#X connect 14 0 12 1;
#X connect 15 0 32 0;
#X connect 16 0 17 0;
#X connect 17 0 15 1;
#X connect 18 0 33 0;
#X connect 19 0 20 0;
#X connect 20 0 18 1;
#X connect 21 0 5 0;
#X connect 21 0 39 0;
#X connect 22 0 1 0;
#X connect 23 0 6 0;
#X connect 24 0 9 0;
#X connect 25 0 12 0;
#X connect 26 0 15 0;
#X connect 27 0 18 0;
#X connect 34 0 0 0;
#X connect 36 0 61 0;
#X connect 37 0 38 0;
#X connect 38 0 36 1;
#X connect 39 0 37 0;
#X connect 39 1 41 0;
#X connect 39 2 44 0;
#X connect 39 3 47 0;
#X connect 39 4 50 0;
#X connect 39 5 53 0;
#X connect 40 0 62 0;
#X connect 41 0 42 0;
#X connect 42 0 40 1;
#X connect 43 0 63 0;
#X connect 44 0 45 0;
#X connect 45 0 43 1;
#X connect 46 0 64 0;
#X connect 47 0 48 0;
#X connect 48 0 46 1;
#X connect 49 0 65 0;
#X connect 50 0 51 0;
#X connect 51 0 49 1;
#X connect 52 0 66 0;
#X connect 53 0 54 0;
#X connect 54 0 52 1;
#X connect 55 0 36 0;
#X connect 56 0 40 0;
#X connect 57 0 43 0;
#X connect 58 0 46 0;
#X connect 59 0 49 0;
#X connect 60 0 52 0;
#X connect 67 0 35 0;
#X restore 457 130 pd FREEZE_INPUT_SELECT;
#X obj 580 374 s~ \$0-fre-rep;
#X obj 9 70 route rollingfreezerwetlevel rollingfreezerdrylevel rollingfreezertranspose rollingfreezerrepeatersend rollingfreezerfreeze rollingfreezerinput rollingfreezerfeedback;
#X msg 310 136 feedback \$1;
#X obj 310 160 s \$0-freeze;
#X obj 457 193 f.audio.rollingfreezer~;
#X obj 457 347 *~ 1;
#X connect 0 0 8 0;
#X connect 2 0 37 0;
#X connect 6 0 12 0;
#X connect 8 0 7 0;
#X connect 9 0 10 0;
#X connect 9 0 10 1;
#X connect 10 0 8 1;
#X connect 10 0 12 1;
#X connect 12 0 11 0;
#X connect 13 0 9 0;
#X connect 14 0 15 0;
#X connect 16 0 40 1;
#X connect 18 0 17 0;
#X connect 22 0 21 0;
#X connect 23 0 24 0;
#X connect 26 0 13 0;
#X connect 27 0 29 0;
#X connect 28 0 30 0;
#X connect 29 0 28 0;
#X connect 30 0 14 0;
#X connect 32 1 34 1;
#X connect 33 0 32 0;
#X connect 34 0 36 0;
#X connect 35 0 40 0;
#X connect 35 1 40 0;
#X connect 37 0 22 0;
#X connect 37 1 25 0;
#X connect 37 2 27 0;
#X connect 37 3 31 0;
#X connect 37 4 18 0;
#X connect 37 5 23 0;
#X connect 37 6 38 0;
#X connect 37 7 3 0;
#X connect 38 0 39 0;
#X connect 40 0 41 0;
#X connect 40 1 34 0;
#X connect 41 0 1 0;
#X connect 41 0 4 0;
#X restore 232 169 pd ROLLINGFREEZER________________________;
#N canvas 586 275 926 510 MASTER_BUS_FX_________________________ 0;
#X obj 82 42 inlet~;
#X obj 85 444 outlet~;
#X obj 134 42 inlet~;
#X obj 150 445 outlet~;
#X obj 372 201 *~;
#X obj 474 200 *~;
#X obj 492 93 r \$0-reverb-bypass;
#X obj 492 117 == 0;
#X obj 492 166 lop~ 100;
#X obj 492 142 sig~ 1;
#X obj 372 446 outlet~;
#X obj 474 447 outlet~;
#X obj 18 42 inlet;
#X obj 372 56 catch~ rev-l;
#X obj 474 56 catch~ rev-r;
#X obj 372 370 *~;
#X obj 474 370 *~;
#X obj 492 287 == 0;
#X obj 492 336 lop~ 100;
#X obj 492 312 sig~ 1;
#X obj 492 262 route reverblimiterlevel;
#X obj 29 88 s \$0-to-rev-control;
#X obj 492 235 r \$0-to-rev-control;
#X obj 134 135 hip~ 5;
#X obj 82 135 hip~ 5;
#N canvas 716 261 366 369 REPEATER____ 0;
#X obj 39 8 inlet;
#X obj 220 309 outlet reject;
#N canvas 0 38 1326 526 REPEATER_INPUT_SELECT 0;
#X obj 45 348 outlet~;
#X obj 49 211 *~;
#X obj 67 160 sig~;
#X obj 67 184 lop~ 100;
#X obj 67 79 route 0 1 2 3 4 5;
#X obj 196 210 *~;
#X obj 214 159 sig~;
#X obj 214 183 lop~ 100;
#X obj 339 212 *~;
#X obj 357 161 sig~;
#X obj 357 185 lop~ 100;
#X obj 480 212 *~;
#X obj 498 161 sig~;
#X obj 498 185 lop~ 100;
#X obj 628 212 *~;
#X obj 646 161 sig~;
#X obj 646 185 lop~ 100;
#X obj 776 212 *~;
#X obj 794 161 sig~;
#X obj 794 185 lop~ 100;
#X obj 67 49 inlet;
#X obj 208 321 r~ \$0-fre-rep;
#X obj 906 352 outlet~;
#X obj 49 249 throw~ \$0-rep-out-l;
#X obj 45 321 catch~ \$0-rep-out-l;
#X obj 196 250 throw~ \$0-rep-out-l;
#X obj 339 251 throw~ \$0-rep-out-l;
#X obj 480 251 throw~ \$0-rep-out-l;
#X obj 628 251 throw~ \$0-rep-out-l;
#X obj 776 251 throw~ \$0-rep-out-l;
#X obj 957 223 *~;
#X obj 975 172 sig~;
#X obj 975 196 lop~ 100;
#X obj 975 91 route 0 1 2 3 4 5;
#X obj 1104 222 *~;
#X obj 1122 171 sig~;
#X obj 1122 195 lop~ 100;
#X obj 1247 224 *~;
#X obj 1265 173 sig~;
#X obj 1265 197 lop~ 100;
#X obj 1388 224 *~;
#X obj 1406 173 sig~;
#X obj 1406 197 lop~ 100;
#X obj 1536 224 *~;
#X obj 1554 173 sig~;
#X obj 1554 197 lop~ 100;
#X obj 1684 224 *~;
#X obj 1702 173 sig~;
#X obj 1702 197 lop~ 100;
#X obj 957 261 throw~ \$0-rep-out-r;
#X obj 905 311 catch~ \$0-rep-out-r;
#X obj 1104 262 throw~ \$0-rep-out-r;
#X obj 1247 263 throw~ \$0-rep-out-r;
#X obj 1388 263 throw~ \$0-rep-out-r;
#X obj 1536 263 throw~ \$0-rep-out-r;
#X obj 1684 263 throw~ \$0-rep-out-r;
#X obj 957 139 r~ 1-m-r;
#X obj 1104 138 r~ 2-m-r;
#X obj 1247 140 r~ 3-m-r;
#X obj 1388 140 r~ 4-m-r;
#X obj 1536 139 r~ 5-m-r;
#X obj 1684 140 r~ 6-m-r;
#X obj 49 127 r~ 1-m-l;
#X obj 196 126 r~ 2-m-l;
#X obj 339 128 r~ 3-m-l;
#X obj 480 128 r~ 4-m-l;
#X obj 628 127 r~ 5-m-l;
#X obj 776 128 r~ 6-m-l;
#X connect 1 0 23 0;
#X connect 2 0 3 0;
#X connect 3 0 1 1;
#X connect 4 0 2 0;
#X connect 4 1 6 0;
#X connect 4 2 9 0;
#X connect 4 3 12 0;
#X connect 4 4 15 0;
#X connect 4 5 18 0;
#X connect 5 0 25 0;
#X connect 6 0 7 0;
#X connect 7 0 5 1;
#X connect 8 0 26 0;
#X connect 9 0 10 0;
#X connect 10 0 8 1;
#X connect 11 0 27 0;
#X connect 12 0 13 0;
#X connect 13 0 11 1;
#X connect 14 0 28 0;
#X connect 15 0 16 0;
#X connect 16 0 14 1;
#X connect 17 0 29 0;
#X connect 18 0 19 0;
#X connect 19 0 17 1;
#X connect 20 0 4 0;
#X connect 20 0 33 0;
#X connect 21 0 0 0;
#X connect 21 0 22 0;
#X connect 24 0 0 0;
#X connect 30 0 49 0;
#X connect 31 0 32 0;
#X connect 32 0 30 1;
#X connect 33 0 31 0;
#X connect 33 1 35 0;
#X connect 33 2 38 0;
#X connect 33 3 41 0;
#X connect 33 4 44 0;
#X connect 33 5 47 0;
#X connect 34 0 51 0;
#X connect 35 0 36 0;
#X connect 36 0 34 1;
#X connect 37 0 52 0;
#X connect 38 0 39 0;
#X connect 39 0 37 1;
#X connect 40 0 53 0;
#X connect 41 0 42 0;
#X connect 42 0 40 1;
#X connect 43 0 54 0;
#X connect 44 0 45 0;
#X connect 45 0 43 1;
#X connect 46 0 55 0;
#X connect 47 0 48 0;
#X connect 48 0 46 1;
#X connect 50 0 22 0;
#X connect 56 0 30 0;
#X connect 57 0 34 0;
#X connect 58 0 37 0;
#X connect 59 0 40 0;
#X connect 60 0 43 0;
#X connect 61 0 46 0;
#X connect 62 0 1 0;
#X connect 63 0 5 0;
#X connect 64 0 8 0;
#X connect 65 0 11 0;
#X connect 66 0 14 0;
#X connect 67 0 17 0;
#X restore 38 138 pd REPEATER_INPUT_SELECT;
#X obj 38 268 outlet~;
#X obj 38 162 hip~ 5;
#X obj 168 271 outlet~;
#X obj 168 165 hip~ 5;
#X obj 56 230 f_repeater~;
#X obj 38 58 route repeaterinput;
#X obj 38 202 f_digitaliser~;
#X connect 0 0 8 0;
#X connect 2 0 4 0;
#X connect 2 1 6 0;
#X connect 4 0 9 1;
#X connect 6 0 9 2;
#X connect 7 1 3 0;
#X connect 7 2 5 0;
#X connect 8 0 2 0;
#X connect 8 1 1 0;
#X connect 8 1 7 0;
#X connect 8 1 9 0;
#X connect 9 1 7 1;
#X connect 9 2 7 2;
#X restore 19 239 pd REPEATER____;
#X obj 118 382 s~ 7-m;
#X obj 589 448 outlet~;
#X obj 652 449 outlet~;
#N canvas 834 519 550 435 REVERB______ 0;
#X obj 330 28 inlet~;
#X obj 385 29 inlet~;
#X obj 409 362 outlet~;
#X obj 330 359 outlet~;
#X obj 330 319 lop~ 6000;
#X obj 409 318 lop~ 6000;
#X obj 22 127 loadbang;
#X msg 227 162 diffusion 0.3;
#X msg 97 162 size 1;
#X msg 151 162 damping 0;
#X msg 22 163 revtime 4;
#X obj 307 229 f_reverb~;
#X connect 0 0 11 1;
#X connect 1 0 11 2;
#X connect 4 0 3 0;
#X connect 5 0 2 0;
#X connect 6 0 8 0;
#X connect 6 0 9 0;
#X connect 6 0 7 0;
#X connect 6 0 10 0;
#X connect 7 0 11 0;
#X connect 8 0 11 0;
#X connect 9 0 11 0;
#X connect 10 0 11 0;
#X connect 11 1 4 0;
#X connect 11 2 5 0;
#X restore 372 231 pd REVERB______;
#X obj 140 305 *~;
#X obj 172 304 *~;
#X obj 158 273 lop~ 100;
#X obj 158 199 route reverblimiterlevel;
#X obj 158 172 r \$0-to-rev-control;
#X obj 158 249 sig~ 0;
#X obj 158 224 == 1;
#X obj 51 344 f_limiter~;
#X obj 755 448 outlet~;
#X obj 818 448 outlet~;
#X obj 213 40 inlet~;
#X obj 265 40 inlet~;
#X obj 265 133 hip~ 5;
#X obj 213 133 hip~ 5;
#X text 405 473 Reverb Out;
#X text 599 481 Repeater Out;
#X text 747 480 Rolling Freezer Out;
#X text 103 17 Freezer wet;
#X text 223 18 freezer dry (no fx);
#X connect 0 0 24 0;
#X connect 2 0 23 0;
#X connect 4 0 29 0;
#X connect 5 0 29 1;
#X connect 6 0 7 0;
#X connect 7 0 9 0;
#X connect 8 0 5 1;
#X connect 8 0 4 1;
#X connect 9 0 8 0;
#X connect 12 0 21 0;
#X connect 12 0 25 0;
#X connect 13 0 4 0;
#X connect 14 0 5 0;
#X connect 15 0 10 0;
#X connect 15 0 1 0;
#X connect 16 0 11 0;
#X connect 16 0 3 0;
#X connect 17 0 19 0;
#X connect 18 0 16 1;
#X connect 18 0 15 1;
#X connect 19 0 18 0;
#X connect 20 0 17 0;
#X connect 22 0 20 0;
#X connect 23 0 37 2;
#X connect 23 0 39 0;
#X connect 24 0 37 1;
#X connect 24 0 38 0;
#X connect 25 0 27 0;
#X connect 25 0 37 1;
#X connect 25 1 28 0;
#X connect 25 1 37 2;
#X connect 25 2 37 0;
#X connect 29 0 15 0;
#X connect 29 0 30 0;
#X connect 29 1 16 0;
#X connect 29 1 31 0;
#X connect 30 0 37 1;
#X connect 31 0 37 2;
#X connect 32 0 31 1;
#X connect 32 0 30 1;
#X connect 33 0 36 0;
#X connect 34 0 33 0;
#X connect 35 0 32 0;
#X connect 36 0 35 0;
#X connect 37 1 26 0;
#X connect 37 1 1 0;
#X connect 37 2 26 0;
#X connect 37 2 3 0;
#X connect 40 0 43 0;
#X connect 41 0 42 0;
#X connect 42 0 37 2;
#X connect 43 0 37 1;
#X restore 232 200 pd MASTER_BUS_FX_________________________;
#N canvas 0 38 796 292 AUDIO_SAFETY__________________________ 0;
#X obj 41 31 inlet~;
#X obj 41 205 *~;
#X obj 41 229 outlet~;
#X obj 581 137 sig~ 0;
#X obj 581 161 lop~ 100;
#X obj 108 32 inlet~;
#X obj 108 206 *~;
#X obj 108 230 outlet~;
#X obj 176 31 inlet~;
#X obj 176 205 *~;
#X obj 176 229 outlet~;
#X obj 243 32 inlet~;
#X obj 243 206 *~;
#X obj 243 230 outlet~;
#X obj 581 65 loadbang;
#X obj 581 89 del 5000;
#X obj 647 76 r \$0-master-amp;
#X obj 306 31 inlet~;
#X obj 306 205 *~;
#X obj 306 229 outlet~;
#X obj 373 32 inlet~;
#X obj 373 206 *~;
#X obj 373 230 outlet~;
#X msg 581 113 1;
#X obj 647 100 * 1;
#X obj 444 30 inlet~;
#X obj 444 204 *~;
#X obj 444 228 outlet~;
#X obj 511 31 inlet~;
#X obj 511 205 *~;
#X obj 511 229 outlet~;
#X connect 0 0 1 0;
#X connect 1 0 2 0;
#X connect 3 0 4 0;
#X connect 4 0 1 1;
#X connect 4 0 6 1;
#X connect 4 0 9 1;
#X connect 4 0 12 1;
#X connect 4 0 18 1;
#X connect 4 0 21 1;
#X connect 4 0 29 1;
#X connect 4 0 26 1;
#X connect 5 0 6 0;
#X connect 6 0 7 0;
#X connect 8 0 9 0;
#X connect 9 0 10 0;
#X connect 11 0 12 0;
#X connect 12 0 13 0;
#X connect 14 0 15 0;
#X connect 15 0 23 0;
#X connect 16 0 24 0;
#X connect 17 0 18 0;
#X connect 18 0 19 0;
#X connect 20 0 21 0;
#X connect 21 0 22 0;
#X connect 23 0 3 0;
#X connect 24 0 3 0;
#X connect 25 0 26 0;
#X connect 26 0 27 0;
#X connect 28 0 29 0;
#X connect 29 0 30 0;
#X restore 232 227 pd AUDIO_SAFETY__________________________;
#X obj 232 252 dac~ 1 2 3 4 5 6 7 8, f 41;
#X connect 0 0 2 0;
#X connect 2 0 3 0;
#X connect 3 0 1 0;
#X connect 3 1 4 0;
#X connect 3 2 5 0;
#X connect 5 0 6 0;
#X connect 5 1 6 1;
#X connect 5 2 6 2;
#X connect 6 0 7 0;
#X connect 6 1 7 1;
#X connect 6 2 7 2;
#X connect 6 3 7 3;
#X connect 6 4 7 4;
#X connect 7 0 8 0;
#X connect 7 1 8 1;
#X connect 7 2 8 2;
#X connect 7 3 8 3;
#X connect 7 4 8 4;
#X connect 7 5 8 5;
#X connect 7 6 8 6;
#X connect 7 7 8 7;
#X connect 8 0 9 0;
#X connect 8 1 9 1;
#X connect 8 2 9 2;
#X connect 8 3 9 3;
#X connect 8 4 9 4;
#X connect 8 5 9 5;
#X connect 8 6 9 6;
#X connect 8 7 9 7;
#X restore 66 206 pd MASTER_BUS_FX_+_AUDIO_OUT;
#X obj 66 74 f.formuls~ 2;
#X obj 66 98 f.formuls~ 3;
#X obj 66 122 f.formuls~ 4;
#X obj 66 146 f.formuls~ 5;
#X obj 66 170 f.formuls~ 6;
#N canvas 705 360 450 300 MESSAGE_SEND___ 0;
#X obj 145 84 list prepend send;
#X obj 145 105 list trim;
#X msg 241 202 disconnect;
#X obj 145 250 tgl 15 0 empty empty empty 17 7 0 10 #fcfcfc #000000 #000000 0 1;
#X obj 165 133 loadbang;
#X obj 165 154 del 2000;
#X obj 145 229 netsend -u;
#X obj 145 60 r m-val;
#X msg 165 177 connect 127.0.0.1 9009;
#X connect 0 0 1 0;
#X connect 1 0 6 0;
#X connect 2 0 6 0;
#X connect 4 0 5 0;
#X connect 5 0 8 0;
#X connect 6 0 3 0;
#X connect 7 0 0 0;
#X connect 8 0 6 0;
#X restore 64 248 pd MESSAGE_SEND___;
#X connect 0 0 3 0;
#X connect 1 0 0 0;
#X connect 3 0 4 0;
#X connect 4 0 5 0;
#X connect 5 0 6 0;
#X connect 6 0 7 0;
#X connect 7 0 2 0;
#X restore 39 150 pd AUDIO_TRIPES___;
