#N canvas 526 23 424 591 10;
#X declare -path abstractions/specific;
#X declare -path abstractions/flib/flib;
#X obj 11 9 cnv 15 400 570 empty empty empty 20 12 0 14 -260819 -66577
0;
#N canvas 556 386 822 475 osc 0;
#N canvas 725 71 715 292 OSC-receive-init_message_parse 0;
#X obj 40 64 oscparse;
#X obj 40 89 list trim;
#X obj 40 38 netreceive -u -b 51984;
#X obj 263 62 oscparse;
#X obj 263 87 list trim;
#X obj 487 60 oscparse;
#X obj 487 85 list trim;
#X obj 263 35 netreceive -u -b 51985;
#X obj 263 122 route tab formuls-visuals;
#X obj 407 143 s OSC-in;
#X obj 343 144 s \$0-vis;
#X obj 263 144 s \$0-tab-2;
#X obj 40 118 route tab formuls-visuals;
#X obj 184 139 s OSC-in;
#X obj 120 140 s \$0-vis;
#X obj 487 122 route tab formuls-visuals;
#X obj 631 143 s OSC-in;
#X obj 567 144 s \$0-vis;
#X obj 40 140 s \$0-tab-1;
#X obj 487 144 s \$0-tab-3;
#X obj 487 34 netreceive -u -b 51986;
#X connect 0 0 1 0;
#X connect 1 0 12 0;
#X connect 2 0 0 0;
#X connect 3 0 4 0;
#X connect 4 0 8 0;
#X connect 5 0 6 0;
#X connect 6 0 15 0;
#X connect 7 0 3 0;
#X connect 8 0 11 0;
#X connect 8 1 10 0;
#X connect 8 2 9 0;
#X connect 12 0 18 0;
#X connect 12 1 14 0;
#X connect 12 2 13 0;
#X connect 15 0 19 0;
#X connect 15 1 17 0;
#X connect 15 2 16 0;
#X connect 20 0 5 0;
#X restore 102 33 pd OSC-receive-init_message_parse;
#N canvas 894 350 514 437 OSC-send_to_visuals 0;
#X msg 73 355 disconnect;
#X obj 56 306 r f-loadbang;
#X obj 41 17 r \$0-vis;
#X obj 41 389 netsend -u;
#X obj 41 62 sel 1;
#X obj 41 84 t b b;
#X obj 41 156 i;
#X obj 41 176 + 1;
#X msg 73 113 1;
#X obj 120 62 sel 1;
#X obj 120 84 t b b;
#X msg 152 113 -1;
#X floatatom 58 226 5 0 0 0 - - -;
#X obj 58 245 s \$0-visul-preset;
#X msg 168 177 send noise \$1;
#X msg 188 217 send chaos \$1;
#X msg 56 330 connect localhost 51988;
#X msg 41 280 send scene \$1;
#X obj 41 40 route scene-forward scene-backward noise chaos sensitivity
;
#X msg 239 257 send sensitivity \$1;
#X obj 41 198 clip 1 17;
#X obj 164 383 print here;
#X obj 168 156 flib.seq.automater \$0 \$0-visual-noise 1;
#X obj 188 196 flib.seq.automater \$0 \$0-visual-chaos 1;
#X obj 238 236 flib.seq.automater \$0 \$0-visual-sensitivity 1;
#X msg 277 382 connect 192.168.1.101 51988;
#X msg 298 313 connect 10.10.10.5 51988;
#X msg 169 352 connect 192.168.1.101 51988;
#X connect 0 0 3 0;
#X connect 1 0 27 0;
#X connect 2 0 18 0;
#X connect 4 0 5 0;
#X connect 5 0 6 0;
#X connect 5 1 8 0;
#X connect 6 0 7 0;
#X connect 7 0 20 0;
#X connect 8 0 7 1;
#X connect 9 0 10 0;
#X connect 10 0 6 0;
#X connect 10 1 11 0;
#X connect 11 0 7 1;
#X connect 12 0 13 0;
#X connect 14 0 3 0;
#X connect 15 0 3 0;
#X connect 16 0 3 0;
#X connect 17 0 3 0;
#X connect 18 0 4 0;
#X connect 18 1 9 0;
#X connect 18 2 22 0;
#X connect 18 3 23 0;
#X connect 18 4 24 0;
#X connect 19 0 3 0;
#X connect 20 0 17 0;
#X connect 20 0 12 0;
#X connect 20 0 6 1;
#X connect 22 0 14 0;
#X connect 23 0 15 0;
#X connect 24 0 19 0;
#X connect 25 0 3 0;
#X connect 27 0 3 0;
#X restore 101 58 pd OSC-send_to_visuals;
#X obj 178 340 tgl 66 0 OSC-monitor empty OSC_MONITOR 0 33 0 10 -204786
-1 -1 0 1;
#X obj 104 340 tgl 66 0 osc-on osc-on-gui OSC_ON 0 33 0 18 -204786
-1 -1 0 1;
#X obj 361 127 tgl 60 0 empty empty CONNECT 2 33 0 14 -204786 -1 -1
0 1;
#X msg 553 288 192.168.1.89.;
#X obj 361 197 tgl 60 0 empty empty CONNECT 2 33 0 14 -204786 -1 -1
0 1;
#X obj 361 267 tgl 60 0 empty empty CONNECT 2 33 0 14 -204786 -1 -1
0 1;
#X obj 472 25 loadbang;
#X obj 501 346 print;
#X obj 501 325 r \$0-vis;
#X obj 102 196 specific.tabletosc \$0 2;
#X obj 102 127 specific.tabletosc \$0 1;
#X obj 102 266 specific.tabletosc \$0 3;
#X msg 592 86 10 10 10 2 51987;
#X msg 596 116 10 10 10 3 51987;
#X msg 613 159 10 10 10 4 51987;
#X msg 334 47 192 168 1 125 51987;
#X msg 700 211 192 168 1 126 51987;
#X msg 703 102 192 168 1 123 51987;
#X msg 451 65 192 168 1 102 51987;
#X msg 456 121 192 168 1 104 51987;
#X msg 453 230 192 168 1 103 51987;
#X obj 378 340 tgl 66 0 automateRecord empty RECORD 0 33 0 19 -258113
-1 -1 0 1;
#X obj 274 340 tgl 66 0 \$0-dsp-connect empty DSP_CON 0 33 0 15 -262130
-1 -1 0 1;
#X connect 4 0 12 0;
#X connect 6 0 11 0;
#X connect 7 0 13 0;
#X connect 8 0 14 0;
#X connect 8 0 15 0;
#X connect 8 0 16 0;
#X connect 10 0 9 0;
#X connect 14 0 12 1;
#X connect 15 0 11 1;
#X connect 16 0 13 1;
#X connect 17 0 12 1;
#X connect 18 0 13 1;
#X connect 20 0 12 1;
#X connect 21 0 11 1;
#X connect 22 0 13 1;
#X coords 0 -1 1 1 350 310 1 100 100;
#X restore 41 230 pd osc;
#X obj 289 122 bng 100 250 50 0 global-reset empty GLOBAL_RESET 2 50
0 14 -258113 -262144 -1;
#N canvas 1 80 450 300 amp-interface 0;
#X obj 107 123 hsl 128 30 0 1 0 0 empty empty MASTER_AMPLITUDE 2 8
0 10 -204786 -1 -1 12700 1;
#X msg 84 169 \; formuls-master-amp \$1;
#X obj 92 42 loadbang;
#X msg 92 64 1;
#X connect 0 0 1 0;
#X connect 2 0 3 0;
#X connect 3 0 0 0;
#X coords 0 -1 1 1 140 60 1 100 100;
#X restore 41 161 pd amp-interface;
#N canvas 1 80 450 300 FORMULS 0;
#X obj 100 100 cnv 15 150 60 empty empty FORMULS 13 30 0 30 -204786
-66577 0;
#X coords 0 -1 1 1 150 60 2 100 100;
#X restore 124 23 pd FORMULS;
#N canvas 526 632 241 183 TRIPES_______________ 1;
#N canvas 951 18 442 354 MESSAGES_TO_FAUST 0;
#X obj 41 11 r voice-param;
#X obj 41 153 list trim;
#X obj 41 174 s \$0-FAUST_MESSAGES;
#X obj 41 132 list prepend send;
#X obj 40 207 r \$0-FAUST_MESSAGES;
#X obj 64 229 r \$0-dsp-connect;
#X obj 64 249 sel 0 1;
#X msg 64 270 disconnect;
#X msg 83 289 connect localhost 5510;
#X obj 40 308 netsend -u -b;
#X obj 193 33 r FAUST-OUT;
#X obj 195 54 list split 2;
#X obj 195 102 f;
#X obj 195 75 t b a;
#X obj 195 143 oscformat;
#X obj 224 101 list prepend set;
#X obj 224 122 list trim;
#X connect 1 0 2 0;
#X connect 3 0 1 0;
#X connect 4 0 9 0;
#X connect 5 0 6 0;
#X connect 6 0 7 0;
#X connect 6 1 8 0;
#X connect 7 0 9 0;
#X connect 8 0 9 0;
#X connect 10 0 11 0;
#X connect 11 0 13 0;
#X connect 11 1 12 1;
#X connect 12 0 14 0;
#X connect 13 0 12 0;
#X connect 13 1 15 0;
#X connect 14 0 3 0;
#X connect 15 0 16 0;
#X connect 16 0 14 0;
#X restore 16 119 pd MESSAGES_TO_FAUST;
#N canvas 768 632 182 140 LOOPER___________ 0;
#X obj 25 40 specific.looper 1 \$0;
#X obj 25 60 specific.looper 2 \$0;
#X obj 25 80 specific.looper 3 \$0;
#X obj 25 100 specific.looper 4 \$0;
#X obj 25 120 specific.looper 5 \$0;
#N canvas 0 22 298 546 RECORD___________ 0;
#X obj 64 28 r OSC-in;
#X obj 64 59 route looper;
#X obj 98 170 r global-tempo;
#X msg 98 191 60000 \$1;
#X obj 98 212 /;
#X obj 98 233 * 16;
#X obj 64 122 t b b b;
#X msg 110 142 stop;
#X obj 64 253 del;
#X msg 64 274 0;
#X msg 80 142 1;
#X obj 80 306 t a;
#X msg 80 331 looper record \$1;
#X obj 80 426 list trim;
#X obj 80 405 list prepend send;
#X obj 80 382 t a;
#X obj 80 447 s \$0-FAUST_MESSAGES;
#X obj 64 80 route record masteramp;
#X msg 129 352 looper masteramp \$1;
#X obj 64 101 sel 1;
#X connect 0 0 1 0;
#X connect 1 0 17 0;
#X connect 2 0 3 0;
#X connect 3 0 4 0;
#X connect 4 0 5 0;
#X connect 5 0 8 1;
#X connect 6 0 8 0;
#X connect 6 1 10 0;
#X connect 6 2 7 0;
#X connect 7 0 8 0;
#X connect 8 0 9 0;
#X connect 9 0 11 0;
#X connect 10 0 11 0;
#X connect 11 0 12 0;
#X connect 12 0 15 0;
#X connect 13 0 16 0;
#X connect 14 0 13 0;
#X connect 15 0 14 0;
#X connect 17 0 19 0;
#X connect 17 1 18 0;
#X connect 18 0 15 0;
#X connect 19 0 6 0;
#X restore 25 18 pd RECORD___________;
#X restore 16 98 pd LOOPER___________;
#N canvas 768 632 182 185 FORMULS__________ 1;
#X obj 23 96 specific.modul 5 1 2;
#X obj 23 36 specific.modul 2 1 2;
#X obj 23 56 specific.modul 3 1 2;
#X obj 23 76 specific.modul 4 1 2;
#X obj 23 116 specific.modul 6 1 2;
#X obj 23 135 specific.modul 7 1 2;
#X obj 23 156 specific.modul 8 1 2;
#X obj 23 15 specific.modul 0 1 2;
#X restore 16 78 pd FORMULS__________;
#N canvas 635 130 805 594 TIMING___________ 0;
#X obj 258 554 s masterClock;
#X text 539 23 automater master clock;
#X obj 252 55 loadbang;
#X obj 252 103 s master-throttle;
#X obj 252 81 metro 80;
#X text 250 31 OSC message throttle;
#X obj 43 201 oscformat bpm-gui;
#X floatatom 43 182 5 0 0 0 - - -;
#X obj 65 90 s bpm;
#X obj 56 137 /;
#X floatatom 37 317 5 0 0 0 - - -;
#X obj 37 296 r global-tempo;
#X obj 30 249 s global-tempo;
#N canvas 2 78 391 254 sampler-specific 0;
#X obj 25 23 r global-tempo;
#X obj 25 70 /;
#X msg 25 48 60 \$1;
#X obj 25 180 * 44100;
#X msg 131 24 60;
#X floatatom 161 24 5 0 0 0 - - -;
#X obj 25 92 t f f;
#X obj 71 139 loadbang;
#X obj 71 160 samplerate~;
#X obj 269 21 r global-bar;
#X obj 269 43 sel 0;
#X obj 269 65 i;
#X obj 269 87 + 1;
#X obj 269 109 mod 2;
#X obj 269 131 s tabplay;
#X obj 25 202 s sampler-multiplier;
#X obj 57 114 s sampler-duration;
#X connect 0 0 2 0;
#X connect 1 0 6 0;
#X connect 2 0 1 0;
#X connect 3 0 15 0;
#X connect 4 0 2 0;
#X connect 5 0 2 0;
#X connect 6 0 3 0;
#X connect 6 1 16 0;
#X connect 7 0 8 0;
#X connect 8 0 3 1;
#X connect 9 0 10 0;
#X connect 10 0 11 0;
#X connect 11 0 12 0;
#X connect 12 0 11 1;
#X connect 12 0 13 0;
#X connect 13 0 14 0;
#X restore 529 235 pd sampler-specific;
#X msg 56 115 60000 \$1;
#X obj 56 159 s \$0-delay-time-pre;
#X obj 226 425 s \$0-metro-on;
#X obj 101 318 r global-reset;
#X obj 368 80 metro 10;
#X obj 368 102 s master-timer-in;
#X obj 43 223 s OSC-out-global;
#X obj 30 60 r \$0-bpm;
#X msg 102 340 reset 0 0;
#X obj 37 363 abl_link~ 2 0 4 120;
#X msg 37 340 tempo \$1;
#X obj 203 275 r pd;
#X obj 203 296 route dsp;
#X obj 203 317 sel 1;
#X obj 203 358 del 500;
#X msg 203 379 1;
#X obj 203 400 tgl 15 0 empty empty empty 17 7 0 10 -262144 -1 -1 1
1;
#X obj 170 425 spigot;
#X text 322 471 1 = beat \;;
#X obj 258 494 i;
#X obj 258 512 change;
#X obj 258 533 t b;
#X floatatom 99 401 5 0 0 0 - - -;
#X obj 170 471 spigot;
#X obj 203 449 r master-seq-on-off;
#X obj 170 496 s master-beat;
#X obj 352 436 tgl 15 0 empty empty empty 17 7 0 10 -262144 -1 -1 0
1;
#X obj 378 52 tgl 15 0 empty empty empty 17 7 0 10 -262144 -1 -1 0
1;
#X msg 144 258 connect \$1;
#X obj 171 240 tgl 15 0 empty empty empty 17 7 0 10 -262144 -1 -1 0
1;
#X obj 281 214 r master-seq-on-off;
#X obj 281 235 sel 0;
#X connect 2 0 4 0;
#X connect 2 0 18 0;
#X connect 4 0 3 0;
#X connect 6 0 20 0;
#X connect 7 0 6 0;
#X connect 9 0 15 0;
#X connect 10 0 24 0;
#X connect 11 0 10 0;
#X connect 14 0 9 0;
#X connect 17 0 22 0;
#X connect 18 0 19 0;
#X connect 21 0 7 0;
#X connect 21 0 12 0;
#X connect 21 0 14 0;
#X connect 21 0 8 0;
#X connect 22 0 23 0;
#X connect 23 2 31 0;
#X connect 23 2 36 0;
#X connect 24 0 23 0;
#X connect 25 0 26 0;
#X connect 26 0 27 0;
#X connect 27 0 28 0;
#X connect 27 0 22 0;
#X connect 27 1 30 0;
#X connect 28 0 29 0;
#X connect 29 0 30 0;
#X connect 30 0 31 1;
#X connect 30 0 16 0;
#X connect 31 0 37 0;
#X connect 33 0 34 0;
#X connect 34 0 35 0;
#X connect 35 0 0 0;
#X connect 37 0 39 0;
#X connect 37 0 33 0;
#X connect 38 0 37 1;
#X connect 40 0 37 1;
#X connect 41 0 18 0;
#X connect 41 0 4 0;
#X connect 42 0 23 0;
#X connect 43 0 42 0;
#X connect 44 0 45 0;
#X connect 45 1 22 0;
#X restore 16 58 pd TIMING___________;
#N canvas 24 463 349 146 GLOBAL_MESSAGES__ 1;
#N canvas 102 53 848 743 GLOBAL_MESSAGES_RECEIVE___ 0;
#X obj 55 692 s \$0-bpm;
#X obj 89 576 s \$0-tempolock;
#X obj 226 401 s automateRecord;
#X obj 226 378 tgl 15 0 empty empty empty 17 7 0 10 -262144 -1 -1 0
1;
#X msg 328 301 0;
#X obj 328 323 s masterSync;
#X obj 744 712 outlet;
#X obj 21 19 r OSC-in;
#X obj 260 375 s holdx;
#X obj 260 354 == 0;
#X obj 294 325 == 0;
#X obj 294 347 s holdy;
#X obj 346 281 s swingAmount;
#X obj 21 111 route key bpm tempo-hold master-amp master-fx master-reverb
automation-record x-hold y-hold sync swing-amount fade-out-time;
#X obj 355 234 s fade-out-time;
#X obj 36 61 spigot 0;
#X obj 89 38 r OSC-monitor;
#X obj 36 83 print OSC-in;
#X obj 355 187 + 16000;
#X obj 355 165 * 44000;
#X obj 355 209 i;
#X obj 346 257 * 0.083;
#X obj 123 557 s \$0-master-amp;
#X obj 157 532 s \$0-master-fx;
#N canvas 952 281 120 99 automate-record-interface 0;
#X obj 21 12 tgl 70 0 automateRecord empty RECORD 17 7 0 10 -258113
-4160 -1 0 1;
#X restore 490 41 pd automate-record-interface;
#X obj 482 314 route master-seq-on-off;
#X obj 482 335 s master-seq-on-off;
#X obj 21 719 specific.masterkey \$0;
#N canvas 0 0 563 604 sampler-messages 0;
#X obj 44 72 route sampler-play sampler-fx sampler-random-dropout sampler-repeat-pitch
sampler-duration-envelope;
#X obj 44 483 s sampler-play;
#X obj 116 462 s sampler-fx;
#X obj 327 254 s sampler-repeat;
#X obj 260 273 s sampler-pitch;
#X obj 255 372 s sampler-random;
#X obj 188 441 s sampler-dropout;
#X obj 399 159 s sampler-duration;
#X obj 332 178 s sampler-envelope;
#X obj 188 373 * 100;
#X msg 188 395 100 \$1;
#X obj 188 417 -;
#X obj 399 138 max 0.01;
#X obj 327 232 * 100;
#X obj 260 251 * 100;
#X obj 228 231 * 4;
#X obj 228 253 + 1;
#X obj 228 275 i;
#X obj 228 297 change;
#X obj 228 319 s sampler-pitch-rand;
#X obj 188 351 flib.util.xyunpack;
#X obj 260 203 flib.util.xyunpack;
#X obj 332 115 flib.util.xyunpack;
#X obj 444 537 outlet;
#X obj 44 24 inlet;
#X connect 0 0 1 0;
#X connect 0 1 2 0;
#X connect 0 2 20 0;
#X connect 0 3 21 0;
#X connect 0 4 22 0;
#X connect 0 5 23 0;
#X connect 9 0 10 0;
#X connect 10 0 11 0;
#X connect 11 0 6 0;
#X connect 12 0 7 0;
#X connect 13 0 3 0;
#X connect 14 0 4 0;
#X connect 15 0 16 0;
#X connect 16 0 17 0;
#X connect 17 0 18 0;
#X connect 18 0 19 0;
#X connect 20 0 9 0;
#X connect 20 1 5 0;
#X connect 21 0 14 0;
#X connect 21 0 15 0;
#X connect 21 1 13 0;
#X connect 22 0 8 0;
#X connect 22 1 12 0;
#X connect 24 0 0 0;
#X restore 478 152 pd sampler-messages;
#N canvas 773 321 649 392 scale-selector 0;
#X msg 67 197 1;
#X msg 106 197 2;
#X obj 27 170 sel 1;
#X obj 65 170 sel 1;
#X obj 106 170 sel 1;
#X msg 27 197 0;
#X obj 143 170 sel 1;
#X obj 181 170 sel 1;
#X obj 222 170 sel 1;
#X obj 261 170 sel 1;
#X obj 299 170 sel 1;
#X obj 340 170 sel 1;
#X obj 378 170 sel 1;
#X obj 416 170 sel 1;
#X obj 457 170 sel 1;
#X msg 143 197 3;
#X msg 183 197 4;
#X msg 222 197 5;
#X msg 261 197 6;
#X msg 301 197 7;
#X msg 340 197 8;
#X msg 379 197 9;
#X msg 418 197 10;
#X msg 457 197 11;
#X obj 498 170 sel 1;
#X msg 498 197 12;
#X obj 27 92 route 1;
#X obj 27 135 route 1 2 3 4 5 6 7 8 9 10 11 12 13;
#X obj 27 52 inlet;
#X obj 401 117 r f-loadbang;
#X obj 27 291 s scale-root-note;
#X obj 27 72 flib.util.s2f;
#X obj 27 114 flib.util.s2f;
#X obj 27 250 flib.seq.automater \$0 \$0-scale-root-note;
#X connect 0 0 33 0;
#X connect 1 0 33 0;
#X connect 2 0 5 0;
#X connect 3 0 0 0;
#X connect 4 0 1 0;
#X connect 5 0 33 0;
#X connect 6 0 15 0;
#X connect 7 0 16 0;
#X connect 8 0 17 0;
#X connect 9 0 18 0;
#X connect 10 0 19 0;
#X connect 11 0 20 0;
#X connect 12 0 21 0;
#X connect 13 0 22 0;
#X connect 14 0 23 0;
#X connect 15 0 33 0;
#X connect 16 0 33 0;
#X connect 17 0 33 0;
#X connect 18 0 33 0;
#X connect 19 0 33 0;
#X connect 20 0 33 0;
#X connect 21 0 33 0;
#X connect 22 0 33 0;
#X connect 23 0 33 0;
#X connect 24 0 25 0;
#X connect 25 0 33 0;
#X connect 26 0 32 0;
#X connect 27 0 2 0;
#X connect 27 1 3 0;
#X connect 27 2 4 0;
#X connect 27 3 6 0;
#X connect 27 4 7 0;
#X connect 27 5 8 0;
#X connect 27 6 9 0;
#X connect 27 7 10 0;
#X connect 27 8 11 0;
#X connect 27 9 12 0;
#X connect 27 10 13 0;
#X connect 27 11 14 0;
#X connect 27 12 24 0;
#X connect 28 0 31 0;
#X connect 29 0 5 0;
#X connect 31 0 26 0;
#X connect 32 0 27 0;
#X connect 33 0 30 0;
#X restore 478 261 pd scale-selector;
#N canvas 193 22 729 826 fx-router 0;
#X obj 28 16 inlet;
#X obj 63 548 * 0.9;
#X obj 46 659 r \$0-delay-time-pre;
#X obj 28 731 *;
#N canvas 928 551 310 327 delay-time-base-parse 0;
#X obj 43 17 inlet;
#X obj 43 293 outlet;
#X obj 43 97 i;
#X obj 43 75 * 7;
#X msg 43 117 8 \$1;
#X obj 43 139 -;
#X connect 0 0 3 0;
#X connect 2 0 4 0;
#X connect 3 0 2 0;
#X connect 4 0 5 0;
#X connect 5 0 1 0;
#X restore 28 638 pd delay-time-base-parse;
#X obj 28 753 s \$0-delay-time;
#X obj 63 592 s \$0-delay-feedback;
#X obj 98 526 s \$0-delay-amount;
#X obj 556 760 outlet;
#X obj 275 396 * 1000;
#X obj 310 340 s \$0-freqshift-amount;
#X obj 275 418 s \$0-freqshift-freq;
#X obj 371 204 i;
#X obj 371 182 * 64;
#X obj 371 226 ctlout 10;
#X obj 28 73 route delay-time delay-feedback delay-amount chorus-rate
chorus-amount phaser-rate phaser-amount freqshift-freq freqshift-amount
saturation-amount reverb;
#X obj 46 681 t b f;
#X obj 28 44 route fx;
#X obj 73 704 / 8;
#X obj 28 705 f 1;
#X obj 371 160 flib.seq.automater \$0 \$0-reverb;
#X obj 310 318 flib.seq.automater \$0 \$0-freqshift-amount;
#X obj 275 374 flib.seq.automater \$0 \$0-freqshift-freq;
#X obj 98 504 flib.seq.automater \$0 \$0-delay-amount;
#X obj 63 570 flib.seq.automater \$0 \$0-delay-feedback;
#X obj 28 616 flib.seq.automater \$0 \$0-delay-time;
#X connect 0 0 17 0;
#X connect 1 0 24 0;
#X connect 2 0 16 0;
#X connect 3 0 5 0;
#X connect 4 0 19 0;
#X connect 9 0 11 0;
#X connect 12 0 14 0;
#X connect 13 0 12 0;
#X connect 15 0 25 0;
#X connect 15 1 1 0;
#X connect 15 2 23 0;
#X connect 15 7 22 0;
#X connect 15 8 21 0;
#X connect 15 10 20 0;
#X connect 16 0 19 0;
#X connect 16 1 18 0;
#X connect 17 0 15 0;
#X connect 17 1 8 0;
#X connect 18 0 3 1;
#X connect 19 0 3 0;
#X connect 20 0 13 0;
#X connect 21 0 10 0;
#X connect 22 0 9 0;
#X connect 23 0 7 0;
#X connect 24 0 6 0;
#X connect 25 0 4 0;
#X restore 478 192 pd fx-router;
#X obj 478 218 route scale-selector pitch-gamut;
#N canvas 921 91 519 732 pitch-gamut-parse 0;
#X obj 72 12 inlet;
#X obj 72 88 route 1;
#X obj 72 153 t b a;
#X obj 71 676 s pitch-gamut;
#X msg 72 132 \$1 \$2;
#X msg 168 92 1 1 \, 3 1 \, 4 1 \, 8 1 \, 9 1;
#X msg 168 72 1 1 \, 3 1 \, 4 1 \, 8 1 \, 9 0;
#X msg 168 53 1 1 \, 3 1 \, 4 1 \, 8 0 \, 9 0;
#X obj 84 612 list length;
#X obj 84 654 s pitch-gamut-length;
#X obj 84 634 max 1;
#X obj 112 179 s \$0-pitch-gamut-gui;
#X obj 72 64 flib.util.s2f;
#X obj 72 111 flib.util.s2f;
#N canvas 0 22 474 651 DEPRECATED 0;
#X obj 44 237 array set master-pitch-gamut;
#X obj 44 43 unpack f f;
#X obj 44 65 - 1;
#X obj 72 152 + 12;
#X obj 44 131 until;
#X obj 44 152 f;
#X msg 78 109 0;
#X obj 44 87 t b b f;
#X obj 44 173 +;
#X obj 44 216 f;
#X obj 44 194 t b f;
#X msg 44 109 11;
#X obj 267 169 array set master-pitch-gamut;
#X obj 267 79 unpack f f;
#X obj 267 101 - 1;
#X obj 267 148 f;
#X obj 267 126 t b f;
#X obj 73 442 until;
#X obj 73 463 f;
#X obj 98 462 + 1;
#X obj 112 531 array get master-pitch-gamut;
#X msg 105 422 0;
#X msg 194 510 1;
#X obj 112 509 t f f;
#X obj 112 576 f;
#X obj 112 618 list;
#X obj 112 597 list prepend;
#X obj 112 552 sel 1;
#X obj 73 395 t b b b b;
#X msg 73 421 13;
#X obj 73 488 sel 12;
#X connect 1 0 2 0;
#X connect 1 1 9 1;
#X connect 2 0 7 0;
#X connect 3 0 5 1;
#X connect 4 0 5 0;
#X connect 5 0 3 0;
#X connect 5 0 8 0;
#X connect 6 0 5 1;
#X connect 7 0 11 0;
#X connect 7 1 6 0;
#X connect 7 2 8 1;
#X connect 8 0 10 0;
#X connect 9 0 0 0;
#X connect 10 0 9 0;
#X connect 10 1 0 1;
#X connect 11 0 4 0;
#X connect 13 0 14 0;
#X connect 13 1 15 1;
#X connect 14 0 16 0;
#X connect 15 0 12 0;
#X connect 16 0 15 0;
#X connect 16 1 12 1;
#X connect 17 0 18 0;
#X connect 18 0 19 0;
#X connect 18 0 30 0;
#X connect 19 0 18 1;
#X connect 20 0 27 0;
#X connect 21 0 18 1;
#X connect 22 0 20 1;
#X connect 23 0 20 0;
#X connect 23 1 24 1;
#X connect 24 0 26 0;
#X connect 25 0 26 1;
#X connect 26 0 25 0;
#X connect 27 0 24 0;
#X connect 28 0 29 0;
#X connect 28 1 21 0;
#X connect 28 2 22 0;
#X connect 28 3 26 1;
#X connect 28 3 25 1;
#X connect 29 0 17 0;
#X connect 30 1 23 0;
#X restore 356 34 pd DEPRECATED;
#X obj 99 283 array set master-pitch-gamut;
#X obj 99 198 unpack f f;
#X obj 99 220 - 1;
#X obj 99 262 f;
#X obj 99 240 t b f;
#X obj 279 283 array define master-pitch-gamut 12;
#X obj 72 310 array get master-pitch-gamut;
#X obj 72 365 until;
#X obj 72 473 list store;
#X obj 72 390 f;
#X obj 99 390 + 1;
#X msg 112 364 0, f 2;
#X msg 72 454 get \$1 1;
#X obj 72 411 t f f;
#X obj 72 516 f;
#X obj 99 433 + 1;
#X obj 72 494 sel 1;
#X obj 72 332 t b b l b, f 12;
#X obj 71 582 list;
#X obj 112 494 del 1;
#X obj 72 537 list prepend;
#X obj 72 558 t a a;
#X msg 169 112 1 1 \, 2 1 \, 3 1 \, 4 1 \, 7 1 \, 8 1 \, 10 1 \, 11
1;
#X msg 169 132 1 1 \, 2 0 \, 3 0 \, 4 1 \, 7 1 \, 8 1 \, 10 1 \, 11
1;
#X connect 0 0 12 0;
#X connect 1 0 13 0;
#X connect 2 0 21 0;
#X connect 2 1 11 0;
#X connect 2 1 16 0;
#X connect 4 0 2 0;
#X connect 5 0 2 0;
#X connect 6 0 2 0;
#X connect 7 0 2 0;
#X connect 8 0 10 0;
#X connect 10 0 9 0;
#X connect 12 0 1 0;
#X connect 13 0 4 0;
#X connect 16 0 17 0;
#X connect 16 1 18 1;
#X connect 17 0 19 0;
#X connect 18 0 15 0;
#X connect 19 0 18 0;
#X connect 19 1 15 1;
#X connect 21 0 32 0;
#X connect 22 0 24 0;
#X connect 23 0 31 0;
#X connect 23 1 22 1;
#X connect 23 1 34 0;
#X connect 24 0 25 0;
#X connect 24 0 28 0;
#X connect 25 0 24 1;
#X connect 26 0 24 1;
#X connect 27 0 23 0;
#X connect 28 0 27 0;
#X connect 28 1 30 0;
#X connect 29 0 35 0;
#X connect 30 0 29 1;
#X connect 31 0 29 0;
#X connect 32 0 22 0;
#X connect 32 1 26 0;
#X connect 32 2 23 1;
#X connect 32 3 35 1;
#X connect 33 0 8 0;
#X connect 33 0 3 0;
#X connect 34 0 33 0;
#X connect 35 0 36 0;
#X connect 36 0 33 1;
#X connect 36 0 35 1;
#X connect 36 1 35 1;
#X connect 37 0 2 0;
#X connect 38 0 2 0;
#X restore 588 242 pd pitch-gamut-parse;
#N canvas 533 469 797 326 evolution+feedback 0;
#X obj 19 212 s evolution-active;
#X obj 154 165 i;
#X obj 19 75 route evolution-activate evolution-time;
#X obj 154 100 pow 1.8;
#X obj 154 208 s evolution-time;
#X obj 423 102 s jump-active;
#X obj 319 101 s set-value;
#X obj 154 144 + 15;
#X obj 154 122 * 105;
#X obj 154 187 * 1000;
#X obj 179 232 s \$0-evolution-time-label;
#X obj 20 25 inlet;
#X obj 601 283 outlet;
#X obj 520 163 s master-noise;
#X obj 520 142 specific.rescale 2.7 1 0;
#X obj 319 74 route set-value jump-active master-noise;
#X obj 520 104 flib.seq.automater \$0 \$0-master-noise;
#X connect 1 0 9 0;
#X connect 1 0 10 0;
#X connect 2 0 0 0;
#X connect 2 1 3 0;
#X connect 2 2 15 0;
#X connect 3 0 8 0;
#X connect 7 0 1 0;
#X connect 8 0 7 0;
#X connect 9 0 4 0;
#X connect 11 0 2 0;
#X connect 14 0 13 0;
#X connect 15 0 6 0;
#X connect 15 1 5 0;
#X connect 15 2 16 0;
#X connect 15 3 12 0;
#X connect 16 0 14 0;
#X restore 478 126 pd evolution+feedback;
#X obj 458 336 tgl 15 0 empty empty empty 17 7 0 10 -262144 -1 -1 0
1;
#X obj 636 313 route ml-xy;
#X obj 635 365 flib.util.xyunpack;
#X floatatom 725 388 5 0 0 0 - - -;
#X floatatom 635 386 5 0 0 0 - - -;
#X obj 646 342 s \$0-ml-xy;
#X obj 184 483 specific.rescale 2.7 1 0;
#X obj 185 444 flib.seq.automater \$0 \$0-master-reverb;
#X obj 55 593 / 240;
#X obj 55 652 * 240;
#X obj 55 673 i;
#X obj 55 613 flib.seq.automater \$0 \$0-bpm 1;
#X floatatom 218 558 5 0 0 0 - - -;
#N canvas 718 509 450 300 MESSAGE_OUT 0;
#X obj 72 57 inlet;
#X obj 72 99 list trim;
#X obj 72 78 list prepend send master-reverb;
#X obj 72 119 s \$0-FAUST_MESSAGES;
#X connect 0 0 2 0;
#X connect 1 0 3 0;
#X connect 2 0 1 0;
#X restore 184 504 pd MESSAGE_OUT;
#X connect 3 0 2 0;
#X connect 4 0 5 0;
#X connect 7 0 13 0;
#X connect 7 0 15 0;
#X connect 9 0 8 0;
#X connect 10 0 11 0;
#X connect 13 0 27 0;
#X connect 13 1 42 0;
#X connect 13 2 1 0;
#X connect 13 3 22 0;
#X connect 13 4 23 0;
#X connect 13 5 41 0;
#X connect 13 6 3 0;
#X connect 13 7 9 0;
#X connect 13 8 10 0;
#X connect 13 9 4 0;
#X connect 13 10 21 0;
#X connect 13 11 19 0;
#X connect 13 12 33 0;
#X connect 15 0 17 0;
#X connect 16 0 15 1;
#X connect 18 0 20 0;
#X connect 19 0 18 0;
#X connect 20 0 14 0;
#X connect 21 0 12 0;
#X connect 25 0 26 0;
#X connect 25 1 35 0;
#X connect 28 0 30 0;
#X connect 30 0 31 0;
#X connect 31 0 29 0;
#X connect 31 1 32 0;
#X connect 31 2 25 0;
#X connect 33 0 28 0;
#X connect 34 0 26 0;
#X connect 35 0 36 0;
#X connect 35 0 39 0;
#X connect 35 1 6 0;
#X connect 36 0 38 0;
#X connect 36 1 37 0;
#X connect 40 0 47 0;
#X connect 41 0 40 0;
#X connect 42 0 45 0;
#X connect 43 0 44 0;
#X connect 44 0 0 0;
#X connect 45 0 43 0;
#X connect 46 0 22 0;
#X restore 20 41 pd GLOBAL_MESSAGES_RECEIVE___;
#N canvas 159 278 1281 600 GLOBAL_MESSAGES__SEND_____ 0;
#X obj 37 76 r \$0-beat-gui;
#X obj 37 98 oscformat beat;
#X obj 175 76 r automateRecord;
#X obj 175 98 oscformat automation-record;
#X obj 410 116 oscformat evolution-activate;
#X obj 410 94 r evolution-active;
#X obj 40 12 inlet;
#X obj 655 72 r \$0-delay-time-gui;
#X obj 815 72 r \$0-delay-feedback-gui;
#X obj 815 94 oscformat delay-feedback;
#X obj 1004 71 r \$0-delay-amount-gui;
#X obj 1004 93 oscformat delay-amount;
#X obj 655 158 r \$0-freqshift-amount-gui;
#X obj 655 180 oscformat freqshift-amount;
#X obj 655 94 oscformat delay-time;
#X obj 58 471 r \$0-visul-preset;
#X obj 58 519 oscformat formuls-visuals scene-number;
#X obj 58 493 + 0;
#X obj 407 166 r \$0-evolution-gui;
#X obj 407 188 oscformat evolution-gui;
#X obj 407 252 r master-seq-on-off;
#X obj 407 274 oscformat master-seq-on-off;
#X obj 25 226 r \$0-scale-root-note-gui;
#X obj 210 245 r \$0-pitch-gamut-gui;
#X msg 210 267 \$1 \$2;
#X obj 210 289 oscformat pitch-gamut;
#X obj 412 71 s OSC-out;
#X obj 412 27 r \$0-evolution-time-label;
#X obj 412 49 oscformat evolution-time-label;
#X obj 25 290 oscformat key;
#X msg 25 268 1 \$1 1;
#X obj 25 247 + 1;
#X obj 37 120 s OSC-out-global;
#X obj 175 120 s OSC-out-global;
#X obj 410 138 s OSC-out-global;
#X obj 655 116 s OSC-out-global;
#X obj 815 116 s OSC-out-global;
#X obj 1004 115 s OSC-out-global;
#X obj 407 210 s OSC-out-global;
#X obj 407 296 s OSC-out-global;
#X obj 210 311 s OSC-out-global;
#X obj 25 312 s OSC-out-global;
#X obj 58 541 s OSC-out-global;
#X obj 655 202 s OSC-out-global;
#X obj 37 190 s OSC-out-global;
#X obj 37 168 oscformat bpm;
#X obj 351 464 s OSC-out-global;
#X obj 351 420 r \$0-visual-noise-gui;
#X obj 351 442 oscformat formuls-visuals noise;
#X obj 551 464 s OSC-out-global;
#X obj 551 420 r \$0-visual-chaos-gui;
#X obj 551 442 oscformat formuls-visuals chaos;
#X obj 836 200 s OSC-out-global;
#X obj 836 156 r \$0-master-reverb-gui;
#X obj 836 178 oscformat master-reverb;
#X obj 1008 193 s OSC-out-global;
#X obj 1008 171 oscformat master-feedback;
#X obj 767 463 s OSC-out-global;
#X obj 767 419 r \$0-visual-sensitivity-gui;
#X obj 767 441 oscformat formuls-visuals sensitivity;
#X obj 37 146 r \$0-bpm;
#X obj 1008 150 r \$0-master-noise-gui;
#X connect 0 0 1 0;
#X connect 1 0 32 0;
#X connect 2 0 3 0;
#X connect 3 0 33 0;
#X connect 4 0 34 0;
#X connect 5 0 4 0;
#X connect 7 0 14 0;
#X connect 8 0 9 0;
#X connect 9 0 36 0;
#X connect 10 0 11 0;
#X connect 11 0 37 0;
#X connect 12 0 13 0;
#X connect 13 0 43 0;
#X connect 14 0 35 0;
#X connect 15 0 17 0;
#X connect 16 0 42 0;
#X connect 17 0 16 0;
#X connect 18 0 19 0;
#X connect 19 0 38 0;
#X connect 20 0 21 0;
#X connect 21 0 39 0;
#X connect 22 0 31 0;
#X connect 23 0 24 0;
#X connect 24 0 25 0;
#X connect 25 0 40 0;
#X connect 27 0 28 0;
#X connect 28 0 26 0;
#X connect 29 0 41 0;
#X connect 30 0 29 0;
#X connect 31 0 30 0;
#X connect 45 0 44 0;
#X connect 47 0 48 0;
#X connect 48 0 46 0;
#X connect 50 0 51 0;
#X connect 51 0 49 0;
#X connect 53 0 54 0;
#X connect 54 0 52 0;
#X connect 56 0 55 0;
#X connect 58 0 59 0;
#X connect 59 0 57 0;
#X connect 60 0 45 0;
#X connect 61 0 56 0;
#X restore 20 67 pd GLOBAL_MESSAGES__SEND_____;
#X connect 0 0 1 0;
#X restore 16 38 pd GLOBAL_MESSAGES__;
#N canvas 4 183 349 336 INIT_____________ 0;
#X obj 25 76 loadbang;
#X obj 25 103 del 1000;
#X obj 198 102 del 2000;
#X obj 221 220 i;
#X obj 221 242 + 1;
#X msg 221 264 formul\$1 reset;
#X obj 221 286 s OSC-in;
#X obj 198 167 moses 18;
#X msg 251 190 0;
#X msg 198 124 0;
#X msg 198 186 bang;
#X obj 229 80 r global-reset;
#X obj 198 145 pipe 40;
#X msg 25 125 \; pd dsp 1 \; f-loadbang bang \; formuls-master-amp
1;
#X obj 24 33 declare -path abstractions/specific;
#X obj 25 13 declare -path abstractions/flib/flib;
#X connect 0 0 1 0;
#X connect 0 0 2 0;
#X connect 1 0 13 0;
#X connect 2 0 9 0;
#X connect 3 0 4 0;
#X connect 3 0 12 0;
#X connect 4 0 5 0;
#X connect 4 0 3 1;
#X connect 5 0 6 0;
#X connect 7 0 10 0;
#X connect 7 1 8 0;
#X connect 8 0 3 1;
#X connect 9 0 12 0;
#X connect 10 0 3 0;
#X connect 11 0 9 0;
#X connect 12 0 7 0;
#X restore 16 18 pd INIT_____________;
#X restore 126 95 pd TRIPES_______________;
#N canvas 1 80 450 300 LOADMETER 0;
#X obj 226 151 cputime;
#X obj 226 11 loadbang;
#X obj 226 95 metro 1000;
#X msg 226 39 1;
#X floatatom 226 67 0 0 0 0 - - -;
#X obj 226 123 t b b;
#X obj 226 211 * 0.1;
#X obj 226 180 int;
#X text 271 67 <-- on/off;
#X obj 107 123 nbx 3 30 -1e+37 1e+37 0 0 empty empty empty 0 -8 0 20
-262144 -1 -1 2 256;
#X connect 0 0 7 0;
#X connect 1 0 3 0;
#X connect 2 0 5 0;
#X connect 3 0 4 0;
#X connect 4 0 2 0;
#X connect 5 0 0 0;
#X connect 5 1 0 1;
#X connect 6 0 9 0;
#X connect 7 0 6 0;
#X coords 0 -1 1 1 85 60 1 100 100;
#X restore 191 162 pd LOADMETER;
