#N canvas 0 22 762 609 10;
#X obj 90 347 text define \$0-this;
#X obj 90 323 text set \$0-this;
#X obj 139 181 text get \$0-this;
#X obj 90 227 list trim;
#X msg 421 250 64;
#X obj 421 271 until;
#X obj 421 292 f;
#X obj 447 293 + 1;
#X obj 421 313 t b f;
#X msg 421 334 0;
#X msg 457 258 0;
#X obj 421 209 bng 15 250 50 0 empty empty empty 17 7 0 10 -262144
-1 -1;
#X obj 421 230 t b b;
#X obj 421 355 s \$0-text-set-val;
#X obj 448 334 s \$0-text-set-ind;
#X obj 90 277 r \$0-text-set-val;
#X obj 121 298 r \$0-text-set-ind;
#X obj 90 248 s \$0-text-set-val;
#X obj 139 138 r \$0-text-set-ind;
#X obj 90 205 list prepend;
#X obj 90 134 t a b;
#X obj 139 161 f;
#X msg 433 155 op2depth 4\\\,;
#X obj 288 427 r;
#X connect 2 0 19 1;
#X connect 3 0 17 0;
#X connect 4 0 5 0;
#X connect 5 0 6 0;
#X connect 6 0 7 0;
#X connect 6 0 8 0;
#X connect 7 0 6 1;
#X connect 8 0 9 0;
#X connect 8 1 14 0;
#X connect 9 0 13 0;
#X connect 10 0 6 1;
#X connect 11 0 12 0;
#X connect 12 0 4 0;
#X connect 12 1 10 0;
#X connect 15 0 1 0;
#X connect 16 0 1 1;
#X connect 18 0 21 0;
#X connect 19 0 3 0;
#X connect 20 0 19 0;
#X connect 20 1 21 0;
#X connect 21 0 2 0;
