#N canvas 1423 184 320 401 10;
#X obj 48 20 inlet;
#X obj 48 354 outlet;
#X text 177 37 \$1 = x size \; \$2 = y size;
#X text 175 19 GRID PACK;
#X obj 48 71 t f f;
#X obj 120 187 sel 0;
#X floatatom 120 231 5 0 0 0 - - -, f 5;
#X obj 48 98 - 1;
#X obj 48 141 i;
#X obj 48 277 pack f f;
#X obj 48 210 -;
#X floatatom 48 232 5 0 0 0 - - -, f 5;
#X obj 48 119 / \$1;
#X obj 48 165 pack f \$2;
#X msg 48 187 \$2 \$1;
#X obj 120 165 mod \$1;
#X obj 120 209 \$1;
#X connect 0 0 4 0;
#X connect 4 0 7 0;
#X connect 4 1 15 0;
#X connect 5 0 16 0;
#X connect 5 1 6 0;
#X connect 6 0 9 1;
#X connect 7 0 12 0;
#X connect 8 0 13 0;
#X connect 9 0 1 0;
#X connect 10 0 11 0;
#X connect 11 0 9 0;
#X connect 12 0 8 0;
#X connect 13 0 14 0;
#X connect 14 0 10 0;
#X connect 15 0 5 0;
#X connect 16 0 6 0;
