#N canvas 265 209 329 298 10;
#X obj 48 20 inlet;
#X obj 48 252 outlet;
#X obj 48 196 +;
#X text 180 57 \$1 = x size \; \$2 = y size;
#X obj 48 149 -;
#X msg 48 129 \$2 \$1;
#X text 175 19 GRID UNPACK;
#X obj 48 82 unpack f f f;
#X obj 48 221 pack f f;
#X obj 48 107 pack f \$2;
#X obj 48 174 * \$1;
#X connect 0 0 7 0;
#X connect 2 0 8 0;
#X connect 4 0 10 0;
#X connect 5 0 4 0;
#X connect 7 0 9 0;
#X connect 7 1 2 1;
#X connect 7 2 8 1;
#X connect 8 0 1 0;
#X connect 9 0 5 0;
#X connect 10 0 2 0;
