#N canvas 121 473 285 405 10;
#N canvas 347 105 463 690 PARAMETER_INTERFACE__ 0;
#X floatatom 103 169 5 0 4 1 waveshape - -;
#X floatatom 103 184 5 0 22050 1 op1freq - -;
#X msg 243 21 waveshape \$1;
#X obj 243 42 s \$0-interface-out;
#X obj 242 82 s \$0-interface-out;
#X floatatom 103 199 5 0 22050 1 op2freq - -;
#X obj 242 122 s \$0-interface-out;
#X msg 242 101 op2freq \$1;
#X obj 278 641 r \$0-interface-out;
#X obj 278 662 outlet;
#X floatatom 103 214 5 0 22050 1 op2depth - -;
#X obj 242 161 s \$0-interface-out;
#X msg 242 140 op2depth \$1;
#X floatatom 103 229 5 0 22050 1 op3freq - -;
#X obj 242 202 s \$0-interface-out;
#X floatatom 103 244 5 0 22050 1 op3depth - -;
#X obj 242 241 s \$0-interface-out;
#X msg 242 181 op3freq \$1;
#X msg 242 220 op3depth \$1;
#X floatatom 103 259 5 0 22050 1 noise - -;
#X obj 242 282 s \$0-interface-out;
#X floatatom 103 274 5 1 22050 1 noisefilterfreq - -;
#X obj 242 321 s \$0-interface-out;
#X msg 242 261 noise \$1;
#X msg 242 300 noisefilterfreq \$1;
#X floatatom 103 289 5 1 22050 1 feedback - -;
#X obj 242 363 s \$0-interface-out;
#X msg 242 342 feedback \$1;
#X floatatom 103 307 5 0.001 10 1 attack - -;
#X obj 282 411 s \$0-interface-out;
#X floatatom 103 322 5 0.001 10 1 decay - -;
#X obj 282 452 s \$0-interface-out;
#X floatatom 103 337 5 0 1 1 sustain - -;
#X obj 282 491 s \$0-interface-out;
#X floatatom 103 352 5 0.001 10 1 release - -;
#X obj 282 533 s \$0-interface-out;
#X msg 282 390 attack \$1;
#X msg 282 431 decay \$1;
#X msg 282 470 sustain \$1;
#X msg 282 512 release \$1;
#X obj 103 384 tgl 15 0 empty empty trigger 17 7 0 10 -262144 -1 -1
0 1;
#X obj 282 613 s \$0-interface-out;
#X msg 282 592 trigger \$1;
#X floatatom 103 369 5 0 1 1 voiceamp - -;
#X obj 279 573 s \$0-interface-out;
#X msg 279 552 voiceamp \$1;
#X msg 242 61 op1freq \$1 \$1 1;
#X connect 0 0 2 0;
#X connect 1 0 46 0;
#X connect 2 0 3 0;
#X connect 5 0 7 0;
#X connect 7 0 6 0;
#X connect 8 0 9 0;
#X connect 10 0 12 0;
#X connect 12 0 11 0;
#X connect 13 0 17 0;
#X connect 15 0 18 0;
#X connect 17 0 14 0;
#X connect 18 0 16 0;
#X connect 19 0 23 0;
#X connect 21 0 24 0;
#X connect 23 0 20 0;
#X connect 24 0 22 0;
#X connect 25 0 27 0;
#X connect 27 0 26 0;
#X connect 28 0 36 0;
#X connect 30 0 37 0;
#X connect 32 0 38 0;
#X connect 34 0 39 0;
#X connect 36 0 29 0;
#X connect 37 0 31 0;
#X connect 38 0 33 0;
#X connect 39 0 35 0;
#X connect 40 0 42 0;
#X connect 42 0 41 0;
#X connect 43 0 45 0;
#X connect 45 0 44 0;
#X connect 46 0 4 0;
#X coords 0 -1 1 1 130 250 1 100 150;
#X restore 51 74 pd PARAMETER_INTERFACE__;
#N canvas 850 365 430 358 PARAMETER_PARSE______ 0;
#X obj 45 13 inlet;
#X obj 45 297 outlet;
#X obj 45 212 list prepend;
#X obj 164 80 symbol \$1;
#X text 252 38 \$1 = instrument name \;;
#X obj 119 13 inlet VOICE_NO.;
#X obj 223 13 inlet ADDRESS_PREFIX;
#X obj 119 80 f \$2;
#X obj 119 124 s \$0-voice-no-and-address;
#X obj 119 102 pack f s;
#X obj 137 37 loadbang;
#X obj 137 58 t b a;
#X obj 84 191 r \$0-voice-no-and-address;
#X obj 63 264 r \$0-param-out;
#N canvas 615 15 509 829 OPERATOR_ROUTE___ 0;
#X obj 55 607 specific.line;
#X obj 55 721 s \$0-param-out;
#X obj 55 670 list prepend;
#X obj 75 579 s \$0-param-out;
#X obj 75 538 list prepend;
#X obj 75 492 specific.raparser;
#X obj 65 628 s \$0-op1freq;
#X obj 75 470 r \$0-op1freq;
#X obj 98 436 s \$0-param-out;
#X obj 98 395 list prepend;
#X obj 98 349 specific.raparser;
#X obj 98 327 r \$0-op1freq;
#X obj 84 517 r \$0-voice-no-and-address;
#X obj 107 374 r \$0-voice-no-and-address;
#X obj 124 649 r \$0-voice-no-and-address;
#X obj 55 2 inlet;
#X obj 376 768 outlet;
#X msg 55 700 \$2/op1freq\$1 \$3;
#X msg 75 558 \$2/op2freq\$1 \$3;
#X msg 98 415 \$2/op2depth\$1 \$3;
#X obj 314 142 r \$0-voice-no-and-address;
#X obj 289 173 list prepend;
#X msg 289 194 \$2/voiceamp\$1 \$3;
#X obj 289 215 s \$0-param-out;
#X obj 55 32 route op1freq op2freq op2depth op3freq op3depth voiceamp
;
#X obj 123 299 s \$0-param-out;
#X obj 123 258 list prepend;
#X obj 123 212 specific.raparser;
#X obj 123 190 r \$0-op1freq;
#X obj 179 168 s \$0-param-out;
#X obj 179 127 list prepend;
#X obj 179 81 specific.raparser;
#X obj 179 59 r \$0-op1freq;
#X obj 132 237 r \$0-voice-no-and-address;
#X obj 188 106 r \$0-voice-no-and-address;
#X msg 179 147 \$2/op3depth\$1 \$3;
#X msg 123 278 \$2/op3freq\$1 \$3;
#X connect 0 0 2 0;
#X connect 0 0 6 0;
#X connect 2 0 17 0;
#X connect 4 0 18 0;
#X connect 5 0 4 0;
#X connect 7 0 5 0;
#X connect 9 0 19 0;
#X connect 10 0 9 0;
#X connect 11 0 10 0;
#X connect 12 0 4 1;
#X connect 13 0 9 1;
#X connect 14 0 2 1;
#X connect 15 0 24 0;
#X connect 17 0 1 0;
#X connect 18 0 3 0;
#X connect 19 0 8 0;
#X connect 20 0 21 1;
#X connect 21 0 22 0;
#X connect 22 0 23 0;
#X connect 24 0 0 0;
#X connect 24 1 5 1;
#X connect 24 2 10 1;
#X connect 24 5 21 0;
#X connect 24 6 16 0;
#X connect 26 0 36 0;
#X connect 27 0 26 0;
#X connect 28 0 27 0;
#X connect 30 0 35 0;
#X connect 31 0 30 0;
#X connect 32 0 31 0;
#X connect 33 0 26 1;
#X connect 34 0 30 1;
#X connect 35 0 29 0;
#X connect 36 0 25 0;
#X restore 45 169 pd OPERATOR_ROUTE___;
#X msg 45 233 \$2/\$3\$1 \$4;
#X obj 188 297 outlet;
#X msg 188 247 \$2 \$3\$1 \$4;
#N canvas 615 15 509 829 OPERATOR_ROUTE___ 0;
#X obj 55 607 specific.line;
#X obj 55 721 s \$0-param-out;
#X obj 55 670 list prepend;
#X obj 75 579 s \$0-param-out;
#X obj 75 538 list prepend;
#X obj 75 492 specific.raparser;
#X obj 65 628 s \$0-op1freq;
#X obj 75 470 r \$0-op1freq;
#X obj 98 436 s \$0-param-out;
#X obj 98 395 list prepend;
#X obj 98 349 specific.raparser;
#X obj 98 327 r \$0-op1freq;
#X obj 84 517 r \$0-voice-no-and-address;
#X obj 107 374 r \$0-voice-no-and-address;
#X obj 124 649 r \$0-voice-no-and-address;
#X obj 55 2 inlet;
#X obj 376 768 outlet;
#X obj 314 142 r \$0-voice-no-and-address;
#X obj 289 173 list prepend;
#X obj 289 215 s \$0-param-out;
#X obj 55 32 route op1freq op2freq op2depth op3freq op3depth voiceamp
;
#X obj 123 299 s \$0-param-out;
#X obj 123 258 list prepend;
#X obj 123 212 specific.raparser;
#X obj 123 190 r \$0-op1freq;
#X obj 179 168 s \$0-param-out;
#X obj 179 127 list prepend;
#X obj 179 81 specific.raparser;
#X obj 179 59 r \$0-op1freq;
#X obj 132 237 r \$0-voice-no-and-address;
#X obj 188 106 r \$0-voice-no-and-address;
#X msg 55 700 \$2 op1freq\$1 \$3;
#X msg 75 558 \$2 op2freq\$1 \$3;
#X msg 98 415 \$2 op2depth\$1 \$3;
#X msg 123 278 \$2 op3freq\$1 \$3;
#X msg 179 147 \$2 op3depth\$1 \$3;
#X msg 289 194 \$2 voiceamp\$1 \$3;
#X connect 0 0 2 0;
#X connect 0 0 6 0;
#X connect 2 0 31 0;
#X connect 4 0 32 0;
#X connect 5 0 4 0;
#X connect 7 0 5 0;
#X connect 9 0 33 0;
#X connect 10 0 9 0;
#X connect 11 0 10 0;
#X connect 12 0 4 1;
#X connect 13 0 9 1;
#X connect 14 0 2 1;
#X connect 15 0 20 0;
#X connect 17 0 18 1;
#X connect 18 0 36 0;
#X connect 20 0 0 0;
#X connect 20 1 5 1;
#X connect 20 2 10 1;
#X connect 20 5 18 0;
#X connect 20 6 16 0;
#X connect 22 0 34 0;
#X connect 23 0 22 0;
#X connect 24 0 23 0;
#X connect 26 0 35 0;
#X connect 27 0 26 0;
#X connect 28 0 27 0;
#X connect 29 0 22 1;
#X connect 30 0 26 1;
#X connect 31 0 1 0;
#X connect 32 0 3 0;
#X connect 33 0 8 0;
#X connect 34 0 21 0;
#X connect 35 0 25 0;
#X connect 36 0 19 0;
#X restore 194 168 pd OPERATOR_ROUTE___;
#X obj 201 223 list prepend;
#X obj 240 202 r \$0-voice-no-and-address;
#X connect 0 0 2 0;
#X connect 0 0 19 0;
#X connect 2 0 15 0;
#X connect 3 0 9 1;
#X connect 5 0 7 0;
#X connect 6 0 11 0;
#X connect 7 0 9 0;
#X connect 9 0 8 0;
#X connect 10 0 11 0;
#X connect 11 0 7 0;
#X connect 11 1 3 0;
#X connect 12 0 2 1;
#X connect 13 0 1 0;
#X connect 14 0 2 0;
#X connect 15 0 1 0;
#X connect 17 0 16 0;
#X connect 18 0 19 0;
#X connect 19 0 17 0;
#X connect 20 0 19 1;
#X restore 31 333 pd PARAMETER_PARSE______;
#X obj 31 364 outlet;
#X obj 31 2 inlet;
#X obj 101 2 inlet;
#X obj 172 2 inlet;
#X obj 134 360 outlet;
#X connect 0 0 1 0;
#X connect 1 0 2 0;
#X connect 1 1 6 0;
#X connect 3 0 1 0;
#X connect 4 0 1 1;
#X connect 5 0 1 2;
