#N canvas 2 83 581 529 10;
#X obj 97 168 pow 2.7;
#X obj 97 475 outlet;
#X obj 97 55 inlet;
#X obj 160 55 inlet;
#X text 301 60 \$1 = operator (e.g. op2-freq);
#X obj 251 53 inlet;
#X obj 97 206 pack f f f;
#X obj 97 142 f;
#X text 181 238 1) value \; 2) rel/abs (0/1) \; 3) voice no.;
#X connect 0 0 6 0;
#X connect 2 0 7 0;
#X connect 3 0 6 1;
#X connect 5 0 6 2;
#X connect 6 0 1 0;
#X connect 7 0 0 0;
