#N canvas 910 548 304 243 10;
#N canvas 422 473 385 260 FMSYNTH_______________ 0;
#X obj 31 20 inlet;
#N canvas 164 23 751 634 MASTER_BUS_FX_PARAM___ 0;
#X obj 63 12 inlet;
#X obj 301 301 r \$0-sidechain-env-side;
#X obj 285 234 r \$0-sidechain-depth;
#X obj 121 536 t a;
#X obj 62 563 outlet;
#X obj 256 103 r \$0-saturation-amount;
#X obj 513 499 r \$0-panning;
#N canvas 0 22 409 349 AMP_FADE_SWITCH~_CONTROL____ 0;
#X obj 59 19 r \$0-master-amp;
#X obj 81 48 r \$0-fade-out;
#X obj 270 78 r fade-out-time;
#X obj 81 127 f 16000;
#X msg 81 149 0 \$1;
#X obj 208 243 s \$0-fade-out-gui;
#X msg 81 70 bang;
#X obj 208 103 pack f f 16000;
#X msg 208 125 \$2 \, 0 \$3;
#X msg 221 152 stop;
#X obj 224 201 sel 0;
#X obj 224 223 s \$0-to-switch~;
#X obj 208 178 line 0 25;
#X obj 220 55 r \$0-master-amp;
#X obj 88 104 r fade-out-time;
#X obj 59 180 t a;
#X obj 59 311 outlet;
#X connect 0 0 15 0;
#X connect 1 0 6 0;
#X connect 2 0 7 2;
#X connect 3 0 4 0;
#X connect 4 0 15 0;
#X connect 6 0 3 0;
#X connect 6 0 7 0;
#X connect 7 0 8 0;
#X connect 8 0 12 0;
#X connect 9 0 12 0;
#X connect 10 0 11 0;
#X connect 12 0 5 0;
#X connect 12 0 10 0;
#X connect 13 0 7 1;
#X connect 13 0 9 0;
#X connect 14 0 3 1;
#X connect 15 0 16 0;
#X restore 503 426 pd AMP_FADE_SWITCH~_CONTROL____;
#X obj 277 169 r \$0-reset;
#X obj 94 48 pack f \$1;
#X obj 116 114 pack f \$1;
#X obj 256 124 pack f \$1;
#X obj 277 190 pack f \$1;
#X obj 285 255 pack f \$1;
#X obj 301 322 pack f \$1;
#X obj 504 447 pack f \$1;
#X obj 513 520 pack f \$1;
#X obj 120 562 s synth-param;
#X obj 210 561 s voice-param;
#X obj 311 386 pack f \$1;
#X obj 311 365 r \$0-sidechain-in;
#X obj 311 456 pack f \$1;
#X obj 311 435 r \$0-sidechain-release;
#X obj 116 93 r \$0-am-depth;
#X obj 94 30 r \$0-am-freq;
#X msg 116 134 FMSynth amdepth\$2 \$1;
#X msg 256 142 FMSynth saturationamount\$2 \$1;
#X msg 278 211 FMSynth enveloperelease\$2 0.01;
#X msg 286 277 FMSynth envelopedepth\$2 \$1;
#X msg 301 343 FMSynth envelopeside\$2 \$1;
#X msg 503 469 FMSynth masteramp\$2 \$1;
#X msg 513 539 FMSynth panning\$2 \$1;
#X msg 95 69 FMSynth amfreq\$2 \$1;
#X msg 312 478 FMSynth sidechain release\$2 \$1;
#X msg 311 407 FMSynth sidechain \$2 \$1;
#X obj 204 589 s FAUST-OUT;
#X connect 0 0 4 0;
#X connect 1 0 14 0;
#X connect 2 0 13 0;
#X connect 3 0 17 0;
#X connect 3 0 4 0;
#X connect 3 0 18 0;
#X connect 3 0 35 0;
#X connect 5 0 11 0;
#X connect 6 0 16 0;
#X connect 7 0 15 0;
#X connect 8 0 12 0;
#X connect 9 0 32 0;
#X connect 10 0 25 0;
#X connect 11 0 26 0;
#X connect 12 0 27 0;
#X connect 13 0 28 0;
#X connect 14 0 29 0;
#X connect 15 0 30 0;
#X connect 16 0 31 0;
#X connect 19 0 34 0;
#X connect 20 0 19 0;
#X connect 21 0 33 0;
#X connect 22 0 21 0;
#X connect 23 0 10 0;
#X connect 24 0 9 0;
#X connect 25 0 3 0;
#X connect 26 0 3 0;
#X connect 27 0 3 0;
#X connect 28 0 3 0;
#X connect 29 0 3 0;
#X connect 30 0 3 0;
#X connect 31 0 3 0;
#X connect 32 0 3 0;
#X connect 33 0 3 0;
#X connect 34 0 3 0;
#X restore 31 70 pd MASTER_BUS_FX_PARAM___;
#N canvas 301 39 357 291 SIDECHAIN_____________ 0;
#X obj 149 227 outlet~;
#X obj 37 26 inlet;
#X obj 36 210 outlet;
#X obj 164 111 r \$0-sidechain-release;
#X obj 149 195 vline~;
#X obj 149 72 r sidechain-global;
#X obj 131 27 r \$0-sidechain-in;
#X obj 131 50 sel 0 \$1;
#X obj 149 93 route;
#X obj 149 132 f 1;
#X msg 149 173 1 \, 0 \$1;
#X connect 1 0 2 0;
#X connect 3 0 9 1;
#X connect 4 0 0 0;
#X connect 5 0 8 0;
#X connect 6 0 7 0;
#X connect 7 2 8 1;
#X connect 8 0 9 0;
#X connect 9 0 10 0;
#X connect 10 0 4 0;
#X restore 31 92 pd SIDECHAIN_____________;
#X obj 31 169 s voice-param;
#X obj 178 115 throw~ \$1-sidechain;
#X obj 31 147 spigot 1;
#N canvas 0 23 450 300 RESET_SAFE 0;
#X obj 102 40 r \$0-reset-safe;
#X obj 102 61 t b b;
#X obj 102 82 del 20;
#X msg 102 103 1;
#X msg 137 105 0;
#X obj 108 155 t a;
#X obj 108 176 outlet;
#X connect 0 0 1 0;
#X connect 1 0 2 0;
#X connect 1 1 4 0;
#X connect 2 0 3 0;
#X connect 3 0 5 0;
#X connect 4 0 5 0;
#X connect 5 0 6 0;
#X restore 76 127 pd RESET_SAFE;
#X obj 31 221 outlet;
#N canvas 164 23 751 634 MASTER_BUS_FX_PARAM___ 0;
#X obj 63 12 inlet;
#X obj 301 301 r \$0-sidechain-env-side;
#X obj 285 234 r \$0-sidechain-depth;
#X obj 121 536 t a;
#X obj 62 563 outlet;
#X obj 256 103 r \$0-saturation-amount;
#X obj 513 499 r \$0-panning;
#N canvas 0 22 409 349 AMP_FADE_SWITCH~_CONTROL____ 0;
#X obj 59 19 r \$0-master-amp;
#X obj 81 48 r \$0-fade-out;
#X obj 270 78 r fade-out-time;
#X obj 81 127 f 16000;
#X msg 81 149 0 \$1;
#X obj 208 243 s \$0-fade-out-gui;
#X msg 81 70 bang;
#X obj 208 103 pack f f 16000;
#X msg 208 125 \$2 \, 0 \$3;
#X msg 221 152 stop;
#X obj 224 201 sel 0;
#X obj 224 223 s \$0-to-switch~;
#X obj 208 178 line 0 25;
#X obj 220 55 r \$0-master-amp;
#X obj 88 104 r fade-out-time;
#X obj 59 180 t a;
#X obj 59 311 outlet;
#X connect 0 0 15 0;
#X connect 1 0 6 0;
#X connect 2 0 7 2;
#X connect 3 0 4 0;
#X connect 4 0 15 0;
#X connect 6 0 3 0;
#X connect 6 0 7 0;
#X connect 7 0 8 0;
#X connect 8 0 12 0;
#X connect 9 0 12 0;
#X connect 10 0 11 0;
#X connect 12 0 5 0;
#X connect 12 0 10 0;
#X connect 13 0 7 1;
#X connect 13 0 9 0;
#X connect 14 0 3 1;
#X connect 15 0 16 0;
#X restore 503 426 pd AMP_FADE_SWITCH~_CONTROL____;
#X obj 277 169 r \$0-reset;
#X obj 94 48 pack f \$1;
#X obj 116 114 pack f \$1;
#X obj 256 124 pack f \$1;
#X obj 277 190 pack f \$1;
#X obj 285 255 pack f \$1;
#X obj 301 322 pack f \$1;
#X obj 504 447 pack f \$1;
#X obj 513 520 pack f \$1;
#X msg 256 142 FMSynth/saturationamount\$2 \$1;
#X msg 277 211 FMSynth/enveloperelease\$2 0.01;
#X msg 286 277 FMSynth/envelopedepth\$2 \$1;
#X msg 301 343 FMSynth/envelopeside\$2 \$1;
#X msg 503 469 FMSynth/masteramp\$2 \$1;
#X msg 513 539 FMSynth/panning\$2 \$1;
#X obj 120 562 s synth-param;
#X obj 210 561 s voice-param;
#X obj 311 386 pack f \$1;
#X obj 311 365 r \$0-sidechain-in;
#X msg 311 407 sidechain \$2 \$1;
#X obj 311 456 pack f \$1;
#X obj 311 435 r \$0-sidechain-release;
#X msg 311 477 sidechain release\$2 \$1;
#X msg 95 69 FMSynth/amfreq\$2 \$1;
#X msg 116 134 FMSynth/amdepth\$2 \$1;
#X obj 116 93 r \$0-am-depth;
#X obj 94 30 r \$0-am-freq;
#X connect 0 0 4 0;
#X connect 1 0 14 0;
#X connect 2 0 13 0;
#X connect 3 0 23 0;
#X connect 3 0 4 0;
#X connect 3 0 24 0;
#X connect 5 0 11 0;
#X connect 6 0 16 0;
#X connect 7 0 15 0;
#X connect 8 0 12 0;
#X connect 9 0 31 0;
#X connect 10 0 32 0;
#X connect 11 0 17 0;
#X connect 12 0 18 0;
#X connect 13 0 19 0;
#X connect 14 0 20 0;
#X connect 15 0 21 0;
#X connect 16 0 22 0;
#X connect 17 0 3 0;
#X connect 18 0 3 0;
#X connect 19 0 3 0;
#X connect 20 0 3 0;
#X connect 21 0 3 0;
#X connect 22 0 3 0;
#X connect 25 0 27 0;
#X connect 26 0 25 0;
#X connect 27 0 3 0;
#X connect 28 0 30 0;
#X connect 29 0 28 0;
#X connect 30 0 3 0;
#X connect 31 0 3 0;
#X connect 32 0 3 0;
#X connect 33 0 10 0;
#X connect 34 0 9 0;
#X restore 191 70 pd MASTER_BUS_FX_PARAM___;
#X connect 0 0 1 0;
#X connect 1 0 2 0;
#X connect 2 0 5 0;
#X connect 2 1 4 0;
#X connect 5 0 3 0;
#X connect 6 0 5 1;
#X restore 37 128 pd FMSYNTH_______________;
#X obj 37 15 r OSC-in;
#N canvas 382 473 242 299 MESSAGE_IN_ROUTING____ 1;
#X obj 30 37 inlet;
#X obj 30 69 route f\$1;
#X obj 32 263 outlet;
#N canvas 2 31 481 847 PARAMETER_LIST____ 0;
#X text 66 60 op1-freq;
#X text 67 74 op1-slide-range;
#X text 68 90 op1-slide-time;
#X text 65 132 op2-freq;
#X text 65 145 op2-freq-trig;
#X text 66 162 op2-depth;
#X text 65 176 op2-depth-trig;
#X text 69 404 a \, d \, s \, r;
#X text 71 444 seq-time-base;
#X text 72 463 seq-length-x;
#X text 72 483 seq-length-y;
#X text 74 596 seq-on;
#X text 198 434 sequencer;
#X text 74 681 gen-repeat;
#X text 80 734 gen-direction;
#X text 77 521 seq-random-add;
#X text 83 544 seq-random-drop;
#X text 86 561 seq-random-vel;
#X text 82 579 seq-swing;
#X text 88 783 reset;
#X text 87 761 mod/s;
#X text 66 44 external feedback;
#X text 63 27 waveshape op1;
#X text 67 204 noise;
#X text 68 219 noise filter freq;
#X text 70 334 am-freq;
#X text 70 351 am-depth;
#X text 71 318 am-wave;
#X text 73 653 gen step size;
#X text 73 637 gen steps (range);
#X text 74 668 gen direction;
#X restore 95 54 pd PARAMETER_LIST____;
#N canvas 38 181 376 381 SPEED_REVERSE_CHAOS_ 0;
#X obj 37 4 inlet;
#X obj 37 43 route mod;
#X obj 37 309 s \$0-speed;
#X obj 289 348 outlet;
#X obj 37 266 * 2;
#X obj 37 287 clip 0.1 2;
#X obj 37 64 route s reverse chaos;
#X obj 119 138 s \$0-chaos;
#X obj 78 199 s \$0-reverse;
#X obj 78 160 flib.seq.automater \$0 \$0-reverse 0 1;
#X obj 120 96 flib.seq.automater \$0 \$0-chaos 0 1;
#X obj 37 224 flib.seq.automater \$0 \$0-speed 1 1;
#X connect 0 0 1 0;
#X connect 1 0 6 0;
#X connect 1 1 3 0;
#X connect 4 0 5 0;
#X connect 5 0 2 0;
#X connect 6 0 11 0;
#X connect 6 1 9 0;
#X connect 6 2 10 0;
#X connect 9 0 8 0;
#X connect 10 0 7 0;
#X connect 11 0 4 0;
#X restore 30 93 pd SPEED_REVERSE_CHAOS_;
#N canvas 874 429 506 327 OPERATORS___________ 0;
#X obj 49 15 inlet;
#X obj 49 295 outlet;
#X obj 62 114 r \$0-reset;
#N canvas 815 23 564 584 OPERATOR_1 0;
#X obj 39 8 inlet;
#X obj 144 413 s \$0-op1-pitch;
#X obj 414 530 outlet;
#X obj 39 368 flib.util.xyunpack;
#X obj 104 272 flib.util.xyunpack;
#X obj 39 484 s \$0-waveshape;
#X obj 253 195 s \$0-op1-freq-snap;
#X obj 262 175 v \$0-op1-freq-snap;
#X obj 253 134 flib.seq.automater \$0 \$0-op1-freq-snap 0;
#X obj 39 50 route op1-freq-waveshape op1-slide-range-time extfeed
op1-freq-snap waveshape-trigger;
#X obj 39 455 specific.oscformat \$0 \$1 waveshape w;
#X obj 144 389 specific.oscformat \$0 \$1 op1freq op1f;
#X obj 104 333 specific.oscformat \$0 \$1 op1slidetime o1st;
#X obj 209 293 specific.oscformat \$0 \$1 op1sliderange o1sr;
#X obj 166 243 specific.oscformat \$0 \$1 extfeed ext;
#X connect 0 0 9 0;
#X connect 3 0 10 0;
#X connect 3 1 11 0;
#X connect 4 0 12 0;
#X connect 4 1 13 0;
#X connect 8 0 6 0;
#X connect 8 0 7 0;
#X connect 9 0 3 0;
#X connect 9 1 4 0;
#X connect 9 2 14 0;
#X connect 9 5 2 0;
#X connect 10 0 5 0;
#X connect 11 0 1 0;
#X restore 49 171 pd OPERATOR_1;
#N canvas 996 55 444 588 OPERATOR_2 0;
#X obj 48 27 inlet;
#X obj 322 441 outlet;
#X obj 48 222 flib.util.xyunpack;
#X obj 48 318 s \$0-op2-depth;
#X obj 153 268 s \$0-op2-freq;
#X obj 48 68 route op2-freq-depth op2-trigger;
#X obj 142 103 flib.seq.automater \$0 \$0-op2-trig;
#X obj 142 165 s \$0-op2d-trig;
#X obj 162 144 s \$0-op2f-trig;
#X obj 48 299 specific.oscformat \$0 \$1 op2depth op2d;
#X obj 153 248 specific.oscformat \$0 \$1 op2freq op2f;
#X connect 0 0 5 0;
#X connect 2 0 9 0;
#X connect 2 1 10 0;
#X connect 5 0 2 0;
#X connect 5 1 6 0;
#X connect 5 2 1 0;
#X connect 6 0 7 0;
#X connect 6 0 8 0;
#X connect 9 0 3 0;
#X connect 10 0 4 0;
#X restore 49 193 pd OPERATOR_2;
#N canvas 850 304 448 541 NOISE_____ 0;
#X obj 273 506 outlet;
#X obj 53 25 inlet;
#X obj 53 80 route noise-filterfreq-amount;
#X obj 53 111 flib.util.xyunpack;
#X obj 60 284 r master-noise;
#X obj 60 305 t b f;
#X obj 173 133 r master-noise;
#X obj 158 216 clip 0 1;
#X obj 173 154 t b f;
#X obj 158 175 f;
#X obj 53 325 f;
#X obj 158 195 +;
#X obj 53 345 +;
#X obj 53 409 s \$0-noise;
#X obj 53 366 clip 0 1;
#X obj 53 387 specific.oscformat \$0 \$1 noise n;
#X obj 158 238 specific.oscformat \$0 \$1 noisefilterfreq nf;
#X connect 1 0 2 0;
#X connect 2 0 3 0;
#X connect 2 1 0 0;
#X connect 3 0 10 0;
#X connect 3 1 9 0;
#X connect 4 0 5 0;
#X connect 5 0 10 0;
#X connect 5 1 12 1;
#X connect 6 0 8 0;
#X connect 7 0 16 0;
#X connect 8 0 9 0;
#X connect 8 1 11 1;
#X connect 9 0 11 0;
#X connect 10 0 12 0;
#X connect 11 0 7 0;
#X connect 12 0 14 0;
#X connect 14 0 15 0;
#X connect 15 0 13 0;
#X restore 49 215 pd NOISE_____;
#X msg 62 136 op1-freq-snap 0 \, op2-freq-trigger 0 \, op2-depth-trigger
0;
#X connect 0 0 3 0;
#X connect 2 0 6 0;
#X connect 3 0 4 0;
#X connect 4 0 5 0;
#X connect 5 0 1 0;
#X connect 6 0 3 0;
#X restore 30 114 pd OPERATORS___________;
#N canvas 20 29 1420 818 SEQUENCER___________ 1;
#X obj 18 10 inlet;
#X msg 19 205 \$1;
#X obj 1310 712 outlet;
#X obj 1230 40 r \$0-reset;
#X obj 636 471 pow 2.7;
#X obj 636 492 * 100;
#N canvas 0 22 450 300 MAPPING____ 0;
#X obj 22 20 inlet;
#X obj 22 61 sel 1 2 3 4 5;
#X msg 22 192 8;
#X obj 112 243 t a;
#X obj 112 264 outlet;
#X msg 39 165 7;
#X msg 55 146 6;
#X msg 73 124 5;
#X msg 99 109 4;
#X obj 22 41 i;
#X connect 0 0 9 0;
#X connect 1 0 2 0;
#X connect 1 1 5 0;
#X connect 1 2 6 0;
#X connect 1 3 7 0;
#X connect 1 4 8 0;
#X connect 2 0 3 0;
#X connect 3 0 4 0;
#X connect 5 0 3 0;
#X connect 6 0 3 0;
#X connect 7 0 3 0;
#X connect 8 0 3 0;
#X connect 9 0 1 0;
#X restore 19 289 pd MAPPING____;
#X obj 19 313 f;
#X obj 1031 151 route seq-time-base-multiplier seq-trigger;
#X obj 1155 289 s \$0-seq-trigger;
#X obj 1155 249 change;
#X obj 797 121 flib.seq.automater \$0 \$0-seq-inv;
#X obj 746 327 flib.seq.automater \$0 \$0-seq-warp;
#X obj 636 450 flib.seq.automater \$0 \$0-seq-delay;
#X obj 800 262 flib.seq.automater \$0 \$0-async;
#X obj 835 596 flib.seq.automater \$0 \$0-seq-euclid-steps;
#X obj 734 658 flib.seq.automater \$0 \$0-seq-euclid-offset;
#X obj 633 721 flib.seq.automater \$0 \$0-seq-euclid;
#X msg 19 334 timebase \$1;
#X obj 19 355 s \$0-seq-messages;
#X msg 797 141 seqinvert \$1;
#X obj 797 162 s \$0-seq-messages;
#X msg 636 513 delay \$1;
#X obj 636 534 s \$0-seq-messages;
#X msg 746 348 warp \$1;
#X obj 746 369 s \$0-seq-messages;
#X msg 800 283 beatsync \$1;
#X obj 800 304 s \$0-seq-messages;
#X msg 633 742 euclid \$1;
#X obj 633 763 s \$0-seq-messages;
#X msg 734 679 euclidoffset \$1;
#X obj 734 700 s \$0-seq-messages;
#X msg 835 617 euclidsteps \$1;
#X obj 835 638 s \$0-seq-messages;
#X obj 633 575 route seq-euclid seq-euclid-offset seq-euclid-steps
;
#X msg 1230 62 reset bang;
#X obj 1230 83 s \$0-seq-messages;
#X obj 19 226 / 5;
#X obj 19 268 * 5;
#X floatatom 44 313 5 0 0 0 - - -;
#X obj 1155 269 sel 0;
#X obj 1155 180 flib.seq.automater \$0 \$0-seq-trigger 0 1;
#X obj 1155 229 spigot;
#X obj 1188 209 r \$0-seq-on;
#X obj 19 247 flib.seq.automater \$0 \$0-seq-time-base 0;
#X text 75 22 All controlled in Pd;
#X obj 639 207 specific.oscformat \$0 \$1 seqrandomadd sra;
#X obj 719 186 specific.oscformat \$0 \$1 seqrandomdrop srd;
#X obj 636 236 route seqdelay seqswing seqwarp async;
#X obj 687 390 flib.seq.automater \$0 \$0-seq-swing;
#X msg 687 411 swing \$1;
#X obj 687 432 s \$0-seq-messages;
#X obj 639 92 route seqrandomadd seqrandomdrop seq-inv;
#X msg 18 416 \$1;
#X msg 279 412 \$1;
#X obj 18 536 t b f;
#X obj 18 555 f 1;
#X msg 18 494 8 \$1;
#X obj 18 516 -;
#X obj 18 577 -;
#X obj 18 599 i;
#X msg 18 619 seqlength \$1;
#X obj 18 640 s \$0-seq-messages;
#X obj 18 130 s \$0-seq-messages;
#X obj 18 435 / 8;
#X obj 18 472 * 8;
#X obj 279 433 / 8;
#X obj 279 472 * 64;
#X obj 24 64 tgl 15 0 empty empty empty 17 7 0 10 -262144 -1 -1 0 1
;
#X msg 18 109 seqon \$1;
#X obj 18 454 flib.seq.automater \$0 \$0-seq-length-x 1 1;
#X obj 279 454 flib.seq.automater \$0 \$0-seq-length-y 1 1;
#X obj 18 86 flib.seq.automater \$0 \$0-seq-on 0 0;
#X floatatom 48 577 5 0 0 0 - - -;
#X msg 272 212 \$1;
#X msg 272 336 timebasemultiplier \$1;
#X obj 272 357 s \$0-seq-messages;
#X obj 272 233 / 5;
#X obj 272 316 i;
#X obj 272 256 flib.seq.automater \$0 \$0-seq-time-base-multiplier
0 0;
#X obj 272 296 + 1;
#X obj 272 275 * 4;
#X obj 302 627 specific.oscformat \$0 \$1 seqwrite sw;
#X obj 269 608 unpack;
#X msg 269 586 \$2 \$1;
#X obj 269 647 specific.oscformat \$0 \$1 seqvalue sv;
#X obj 269 563 specific.matrixunpack sequence;
#X obj 279 390 specific.matrixunpack seqlengthy;
#X obj 18 394 specific.matrixunpack seqlengthx;
#X obj 272 190 specific.matrixunpack seqtimebasehmultiplier;
#X obj 19 183 specific.matrixunpack seqtimebase;
#X obj 18 42 route seq-on;
#X connect 0 0 91 0;
#X connect 1 0 37 0;
#X connect 3 0 35 0;
#X connect 4 0 5 0;
#X connect 5 0 22 0;
#X connect 6 0 7 0;
#X connect 6 0 39 0;
#X connect 7 0 18 0;
#X connect 8 1 41 0;
#X connect 8 2 2 0;
#X connect 10 0 40 0;
#X connect 11 0 20 0;
#X connect 12 0 24 0;
#X connect 13 0 4 0;
#X connect 14 0 26 0;
#X connect 15 0 32 0;
#X connect 16 0 30 0;
#X connect 17 0 28 0;
#X connect 18 0 19 0;
#X connect 20 0 21 0;
#X connect 22 0 23 0;
#X connect 24 0 25 0;
#X connect 26 0 27 0;
#X connect 28 0 29 0;
#X connect 30 0 31 0;
#X connect 32 0 33 0;
#X connect 34 0 17 0;
#X connect 34 1 16 0;
#X connect 34 2 15 0;
#X connect 34 3 8 0;
#X connect 35 0 36 0;
#X connect 37 0 44 0;
#X connect 38 0 6 0;
#X connect 40 1 9 0;
#X connect 41 0 42 0;
#X connect 42 0 10 0;
#X connect 43 0 42 1;
#X connect 44 0 38 0;
#X connect 48 0 13 0;
#X connect 48 1 49 0;
#X connect 48 2 12 0;
#X connect 48 3 14 0;
#X connect 48 4 34 0;
#X connect 49 0 50 0;
#X connect 50 0 51 0;
#X connect 52 0 46 0;
#X connect 52 1 47 0;
#X connect 52 2 11 0;
#X connect 52 3 48 0;
#X connect 53 0 64 0;
#X connect 54 0 66 0;
#X connect 55 0 56 0;
#X connect 55 1 59 1;
#X connect 56 0 59 0;
#X connect 57 0 58 0;
#X connect 58 0 55 0;
#X connect 59 0 60 0;
#X connect 60 0 61 0;
#X connect 61 0 62 0;
#X connect 64 0 70 0;
#X connect 65 0 57 0;
#X connect 66 0 71 0;
#X connect 67 0 56 0;
#X connect 68 0 72 0;
#X connect 69 0 63 0;
#X connect 70 0 65 0;
#X connect 71 0 67 0;
#X connect 72 0 69 0;
#X connect 73 0 60 0;
#X connect 74 0 77 0;
#X connect 75 0 76 0;
#X connect 77 0 79 0;
#X connect 78 0 75 0;
#X connect 79 0 81 0;
#X connect 80 0 78 0;
#X connect 81 0 80 0;
#X connect 83 0 85 0;
#X connect 83 1 82 0;
#X connect 84 0 83 0;
#X connect 86 0 84 0;
#X connect 86 1 52 0;
#X connect 87 0 54 0;
#X connect 87 1 86 0;
#X connect 88 0 53 0;
#X connect 88 1 87 0;
#X connect 89 0 74 0;
#X connect 89 1 88 0;
#X connect 90 0 1 0;
#X connect 90 1 89 0;
#X connect 91 0 72 0;
#X connect 91 1 90 0;
#X restore 30 136 pd SEQUENCER___________;
#N canvas 208 23 480 390 GENERATIVE__________ 0;
#X obj 37 23 inlet;
#X obj 371 357 outlet;
#X obj 37 176 specific.oscformat \$0 gensteps;
#X obj 37 55 route gensteps genstepsize gendirection genrepeat;
#X obj 107 156 specific.oscformat \$0 genstepsize;
#X obj 181 134 specific.oscformat \$0 gensdirection;
#X obj 255 114 specific.oscformat \$0 genrepeat;
#X connect 0 0 3 0;
#X connect 3 0 2 0;
#X connect 3 1 4 0;
#X connect 3 2 5 0;
#X connect 3 3 6 0;
#X connect 3 4 1 0;
#X restore 30 159 pd GENERATIVE__________;
#N canvas 5 224 1409 599 AM_ADSR_AUDIO_OUT___ 0;
#X obj 7 7 inlet;
#X obj 1267 158 s \$0-reset;
#X obj 1222 236 s \$0-audition;
#X obj 1042 500 s \$0-reverb;
#X obj 1080 437 s \$0-fx;
#X obj 1266 189 r \$0-reset;
#X msg 1266 211 0;
#X msg 524 443 \$1;
#N canvas 294 26 401 708 FADE_OUT___ 0;
#X obj 93 79 == 0;
#X obj 40 103 spigot 1;
#X obj 93 57 r evolution-active;
#X obj 40 421 line 0 5;
#X obj 65 475 f;
#X obj 65 450 r master-throttle;
#X obj 65 497 change;
#X text 192 530 <- send to touchosc GUI;
#X obj 40 33 inlet;
#X obj 40 583 outlet;
#X obj 65 525 s \$0-master-gui;
#X obj 40 68 t f f;
#X obj 202 330 r evolution-time;
#X msg 107 380 \$2 \$3;
#X obj 154 199 t f f;
#X obj 107 280 spigot 0;
#X msg 84 196 0;
#X obj 84 174 sel 1 0;
#X obj 186 223 change;
#X msg 186 245 1;
#X obj 84 152 r evolution-active;
#X obj 107 353 pack f f 16000;
#X obj 107 304 t b;
#X connect 0 0 1 1;
#X connect 1 0 3 0;
#X connect 2 0 0 0;
#X connect 3 0 4 1;
#X connect 3 0 9 0;
#X connect 4 0 6 0;
#X connect 5 0 4 0;
#X connect 6 0 10 0;
#X connect 8 0 11 0;
#X connect 11 0 1 0;
#X connect 11 1 14 0;
#X connect 12 0 21 2;
#X connect 13 0 3 0;
#X connect 14 0 21 1;
#X connect 14 1 18 0;
#X connect 15 0 22 0;
#X connect 16 0 15 1;
#X connect 17 0 16 0;
#X connect 17 1 15 0;
#X connect 18 0 19 0;
#X connect 19 0 15 1;
#X connect 20 0 17 0;
#X connect 21 0 13 0;
#X connect 22 0 21 0;
#X restore 1175 300 pd FADE_OUT___;
#X obj 1222 209 change;
#X obj 7 151 flib.util.xyunpack;
#X obj 1031 564 s voice-param;
#X obj 1031 521 pack f \$1;
#X msg 1031 543 reverb \$2 \$1;
#X obj 524 483 flib.seq.automater \$0 \$0-sidechain-in;
#X obj 1031 460 flib.seq.automater \$0 \$0-reverb 0;
#X obj 1080 417 flib.seq.automater \$0 \$0-fx 0;
#X obj 524 464 / 8;
#X obj 524 544 s \$0-sidechain-in;
#X obj 524 503 * 8;
#X obj 1268 71 t b b b;
#X msg 1307 93 stop;
#X obj 1287 119 s \$0-reset-safe;
#X obj 1268 139 del 5;
#X msg 1187 278 0 5;
#X obj 1302 214 tgl 15 0 empty empty empty 17 7 0 10 -262144 -1 -1
0 1;
#X obj 524 524 i;
#X obj 7 207 specific.oscformat \$0 amd \$1 amd;
#X obj 67 183 specific.oscformat \$0 \$1 amfreq amf;
#X obj 76 132 specific.oscformat \$0 \$1 amwave amw;
#X obj 8 365 specific.oscformat \$0 \$1 filtercutoff fc;
#X obj 8 265 route filtercutoff filterresonance bitcrushamount bitcrush
;
#X obj 94 344 specific.oscformat \$0 \$1 filterresonance fr;
#X obj 180 323 specific.oscformat \$0 \$1 bitcrushamount bca;
#X obj 266 302 specific.oscformat \$0 \$1 bitcrush bit;
#X obj 7 59 route amfreqdepth amwave pitchshift saturation;
#X obj 211 85 specific.oscformat \$0 \$1 saturation sat;
#X obj 143 108 specific.oscformat \$0 \$1 pitchshift pit;
#X obj 7 424 route delaysend delaytime delayfeedback;
#X obj 8 513 specific.oscformat \$0 \$1 delaysend ds;
#X obj 84 492 specific.oscformat \$0 \$1 delaytime dt;
#X obj 161 470 specific.oscformat \$0 \$1 delayfeedback df;
#X obj 521 203 specific.oscformat \$0 \$1 attack a;
#X obj 549 176 specific.oscformat \$0 \$1 decay d;
#X obj 605 125 specific.oscformat \$0 \$1 release r;
#X obj 577 149 specific.oscformat \$0 \$1 sustain s;
#X obj 633 101 specific.oscformat \$0 \$1 monophonic m;
#X obj 693 307 specific.oscformat \$0 \$1 enverloperelease er;
#X obj 778 284 specific.oscformat \$0 \$1 envelopedeoth ed;
#X obj 608 329 specific.oscformat \$0 \$1 envelopeside es;
#X text 531 394 ************TO BE AMENDED************;
#X obj 524 255 route sidechain-in env-side enveloperelease envelopedepth
;
#X obj 1031 42 route reverb fx panning masteramp audition reset;
#X obj 1129 348 specific.oscformat \$0 \$1 panning p;
#X obj 1175 325 specific.oscformat \$0 \$1 masteramp;
#X obj 672 79 specific.oscformat \$0 \$1 velocity v;
#X obj 521 50 route a d s r monophonic velocity;
#X obj 524 421 specific.matrixunpack envelopein;
#X connect 0 0 35 0;
#X connect 5 0 6 0;
#X connect 6 0 2 0;
#X connect 7 0 17 0;
#X connect 8 0 54 0;
#X connect 9 0 2 0;
#X connect 10 0 27 0;
#X connect 10 1 28 0;
#X connect 12 0 13 0;
#X connect 13 0 11 0;
#X connect 14 0 19 0;
#X connect 15 0 3 0;
#X connect 15 0 12 0;
#X connect 16 0 4 0;
#X connect 17 0 14 0;
#X connect 19 0 26 0;
#X connect 20 0 23 0;
#X connect 20 1 22 0;
#X connect 20 1 24 0;
#X connect 20 2 21 0;
#X connect 21 0 23 0;
#X connect 23 0 1 0;
#X connect 24 0 8 0;
#X connect 25 0 2 0;
#X connect 26 0 18 0;
#X connect 31 0 30 0;
#X connect 31 1 32 0;
#X connect 31 2 33 0;
#X connect 31 3 34 0;
#X connect 31 4 38 0;
#X connect 35 0 10 0;
#X connect 35 1 29 0;
#X connect 35 2 37 0;
#X connect 35 3 36 0;
#X connect 35 4 31 0;
#X connect 38 0 39 0;
#X connect 38 1 40 0;
#X connect 38 2 41 0;
#X connect 38 3 56 0;
#X connect 51 1 49 0;
#X connect 51 2 47 0;
#X connect 51 3 48 0;
#X connect 51 4 52 0;
#X connect 52 0 15 0;
#X connect 52 1 16 0;
#X connect 52 2 53 0;
#X connect 52 3 8 0;
#X connect 52 4 9 0;
#X connect 52 5 20 0;
#X connect 56 0 42 0;
#X connect 56 1 43 0;
#X connect 56 2 45 0;
#X connect 56 3 44 0;
#X connect 56 4 46 0;
#X connect 56 5 55 0;
#X connect 56 6 51 0;
#X connect 57 0 7 0;
#X restore 30 181 pd AM_ADSR_AUDIO_OUT___;
#X connect 0 0 1 0;
#X connect 1 0 4 0;
#X connect 4 0 5 0;
#X connect 5 0 6 0;
#X connect 6 0 7 0;
#X connect 7 0 8 0;
#X restore 37 82 pd MESSAGE_IN_ROUTING____;
#N canvas 944 606 482 272 OSC+MIDI_OUT_ROUTING__ 0;
#X obj 53 15 inlet;
#N canvas 182 430 1258 439 AMP_PAN_FX_REV_SIDECHAIN__ 0;
#X obj 29 16 inlet;
#X obj 27 388 outlet;
#X obj 800 86 r \$0-audition;
#X obj 1041 96 r \$0-fade-out-gui;
#X obj 444 109 r \$0-fx-gui;
#X obj 604 109 r \$0-reverb-gui;
#X obj 1050 198 r sampler-fx;
#X obj 1050 244 spigot 0;
#X obj 1103 219 r \$0-sampler-play;
#X obj 1050 276 sel 0;
#X msg 1050 298 0;
#X msg 1082 297 bang;
#X obj 23 209 r \$0-sidechain-in-gui;
#X obj 254 233 r \$0-sidechain-env-side-gui;
#X obj 524 233 r \$0-sidechain-release-gui;
#X msg 23 231 1 \$1 1;
#X obj 784 233 r \$0-sidechain-depth-gui;
#X obj 24 109 r \$0-master-gui;
#N canvas 291 37 274 605 AMBISONIC_ENCODER______ 0;
#X obj 27 485 list prepend send;
#X obj 27 507 list trim;
#X obj 27 464 oscformat ambi_enc_set;
#X obj 27 143 unpack f f;
#X obj 27 195 f;
#X obj 27 217 atan2;
#X obj 61 167 t b f;
#X obj 27 239 * 180;
#X obj 27 261 / 3.14159;
#X obj 129 301 -;
#X msg 129 279 180 \$1;
#X obj 129 146 unpack f f;
#X obj 129 168 abs;
#X obj 177 168 abs;
#X obj 177 190 pow 2;
#X obj 129 190 pow 2;
#X obj 129 212 +;
#X obj 129 234 sqrt;
#X obj 129 258 min 180;
#X obj 129 321 * 0.5;
#X obj 27 420 pack f f f;
#X obj 129 363 min 1;
#X obj 129 341 / 75;
#X obj 129 385 pow 2;
#X msg 27 441 1 0 \$1 \$2 \$3;
#X obj 27 25 inlet;
#X obj 27 47 unpack f f;
#X obj 27 69 * 360;
#X obj 27 91 - 180;
#X obj 80 69 * 360;
#X obj 80 91 - 180;
#X obj 27 113 pack f f;
#X obj 27 529 s to-ambisonic-encoder-\$1;
#X connect 0 0 1 0;
#X connect 1 0 32 0;
#X connect 2 0 0 0;
#X connect 3 0 4 0;
#X connect 3 1 6 0;
#X connect 4 0 5 0;
#X connect 5 0 7 0;
#X connect 6 0 4 0;
#X connect 6 1 5 1;
#X connect 7 0 8 0;
#X connect 8 0 20 0;
#X connect 9 0 19 0;
#X connect 10 0 9 0;
#X connect 11 0 12 0;
#X connect 11 1 13 0;
#X connect 12 0 15 0;
#X connect 13 0 14 0;
#X connect 14 0 16 1;
#X connect 15 0 16 0;
#X connect 16 0 17 0;
#X connect 17 0 18 0;
#X connect 18 0 10 0;
#X connect 19 0 22 0;
#X connect 19 0 20 1;
#X connect 20 0 24 0;
#X connect 21 0 23 0;
#X connect 22 0 21 0;
#X connect 23 0 20 2;
#X connect 24 0 2 0;
#X connect 25 0 26 0;
#X connect 26 0 27 0;
#X connect 26 1 29 0;
#X connect 27 0 28 0;
#X connect 28 0 31 0;
#X connect 29 0 30 0;
#X connect 30 0 31 1;
#X connect 31 0 3 0;
#X connect 31 0 11 0;
#X restore 227 123 pd AMBISONIC_ENCODER______;
#X obj 24 153 s OSC-out-global;
#X obj 214 168 s OSC-out-global;
#X obj 444 153 s OSC-out-global;
#X obj 604 153 s OSC-out-global;
#X obj 800 160 s OSC-out-global;
#X obj 1041 140 s OSC-out-global;
#X obj 784 277 s OSC-out-global;
#X obj 524 277 s OSC-out-global;
#X obj 254 277 s OSC-out-global;
#X obj 23 278 s OSC-out-global;
#X obj 24 131 oscformat f\$1 master;
#X obj 444 131 oscformat f\$1 fx;
#X obj 604 131 oscformat f\$1 reverb;
#X obj 800 130 oscformat f\$1 audition;
#X obj 1041 118 oscformat f\$1 master;
#X obj 784 255 oscformat f\$1 sidechain-depth;
#X obj 524 255 oscformat f\$1 sidechain-release;
#X obj 254 255 oscformat f\$1 env-side;
#X obj 23 256 oscformat f\$1 sidechain-in;
#X obj 800 108 change;
#X obj 214 56 r \$0-spatialisation-x-gui;
#X obj 267 76 r \$0-spatialisation-y-gui;
#X obj 214 146 oscformat f\$1 spatialisation;
#X obj 214 98 flib.util.xypack;
#X obj 531 380 s OSC-out-global;
#X obj 531 335 r \$0-saturation-amount-gui;
#X obj 531 358 oscformat f\$1 saturation-amount;
#X obj 770 388 s OSC-out-global;
#X obj 909 383 s OSC-out-global;
#X obj 909 339 r \$0-reverse-gui;
#X obj 1078 384 s OSC-out-global;
#X obj 1078 340 r \$0-chaos-gui;
#X obj 770 366 oscformat f\$1 mod s;
#X obj 909 361 oscformat f\$1 mod reverse;
#X obj 1078 362 oscformat f\$1 mod chaos;
#X obj 770 344 r \$0-speed-gui;
#X connect 2 0 38 0;
#X connect 3 0 33 0;
#X connect 4 0 30 0;
#X connect 5 0 31 0;
#X connect 6 0 7 0;
#X connect 7 0 9 0;
#X connect 8 0 7 1;
#X connect 9 0 10 0;
#X connect 9 1 11 0;
#X connect 12 0 15 0;
#X connect 13 0 36 0;
#X connect 14 0 35 0;
#X connect 15 0 37 0;
#X connect 16 0 34 0;
#X connect 17 0 29 0;
#X connect 29 0 19 0;
#X connect 30 0 21 0;
#X connect 31 0 22 0;
#X connect 32 0 23 0;
#X connect 33 0 24 0;
#X connect 34 0 25 0;
#X connect 35 0 26 0;
#X connect 36 0 27 0;
#X connect 37 0 28 0;
#X connect 38 0 32 0;
#X connect 39 0 42 0;
#X connect 40 0 42 1;
#X connect 41 0 20 0;
#X connect 42 0 18 0;
#X connect 42 0 41 0;
#X connect 44 0 45 0;
#X connect 45 0 43 0;
#X connect 48 0 52 0;
#X connect 50 0 53 0;
#X connect 51 0 46 0;
#X connect 52 0 47 0;
#X connect 53 0 49 0;
#X connect 54 0 51 0;
#X restore 53 135 pd AMP_PAN_FX_REV_SIDECHAIN__;
#N canvas 4 93 1003 300 SAMPLER___________________ 0;
#X obj 37 37 inlet;
#X obj 37 229 outlet;
#X obj 34 157 s OSC-out;
#X obj 34 113 r \$0-sampler-random-gui;
#X obj 284 157 s OSC-out;
#X obj 284 113 r \$0-sampler-play;
#X obj 524 157 s OSC-out;
#X obj 524 113 r \$0-sampler-reverse;
#X obj 754 157 s OSC-out;
#X obj 754 113 r \$0-sampler-record-gui;
#X obj 34 135 list prepend \$1 sampler-random;
#X obj 284 135 list prepend \$1 sampler-play;
#X obj 524 135 list prepend \$1 sampler-reverse;
#X obj 754 135 list prepend \$1 sampler-record;
#X connect 3 0 10 0;
#X connect 5 0 11 0;
#X connect 7 0 12 0;
#X connect 9 0 13 0;
#X connect 10 0 2 0;
#X connect 11 0 4 0;
#X connect 12 0 6 0;
#X connect 13 0 8 0;
#X restore 53 113 pd SAMPLER___________________;
#N canvas 1 156 310 224 SPEED_____________________ 0;
#X obj 43 25 inlet;
#X obj 43 108 s OSC-out;
#X obj 43 64 r \$0-speed-gui;
#X obj 43 158 outlet;
#X obj 43 86 list prepend \$1 mod s;
#X connect 2 0 4 0;
#X connect 4 0 1 0;
#X restore 53 48 pd SPEED_____________________;
#N canvas 990 277 1227 646 OP1-3_LFO_________________ 0;
#X obj 26 3 inlet parameters;
#X obj 17 627 outlet;
#X obj 20 159 s OSC-out;
#X obj 274 96 s OSC-out;
#X obj 472 154 s OSC-out;
#X obj 20 46 r \$0-op1-freq-gui;
#X obj 274 48 r \$0-op1-pitch;
#X obj 21 290 s OSC-out;
#X obj 21 195 r \$0-op2-freq-gui;
#X obj 73 215 r \$0-op2-depth-gui;
#X obj 710 277 s OSC-out;
#X obj 12 445 s OSC-out;
#X obj 246 426 s OSC-out;
#X obj 472 60 r \$0-op1-slide-range-gui;
#X obj 525 80 r \$0-op1-slide-time-gui;
#X obj 510 433 s OSC-out;
#X obj 510 349 r \$0-noise-filter-freq-gui;
#X obj 563 370 r \$0-noise-gui;
#X obj 35 68 s \$0-pitch-correct;
#X obj 66 88 r \$0-waveshape-gui;
#X obj 20 133 list prepend \$1 op1-freq-waveshape;
#X obj 472 132 list prepend \$1 op1-slide-range-time;
#X obj 21 266 list prepend \$1 op2-freq-depth;
#X obj 510 411 list prepend \$1 noise-filterfreq-amount;
#X obj 345 2 r \$0-param-update;
#X obj 710 235 f;
#X obj 246 384 f;
#X msg 274 72 \$3 pitch-gui \$2-\$1;
#X obj 20 111 flib.util.xypack;
#X obj 21 238 flib.util.xypack;
#X obj 12 393 flib.util.xypack;
#X obj 472 102 flib.util.xypack;
#X obj 510 391 flib.util.xypack;
#X obj 12 350 r \$0-am-freq-gui;
#X obj 64 370 r \$0-am-depth-gui;
#X obj 12 421 list prepend \$1 am-freq-depth;
#X obj 710 213 r \$0-op2-trig;
#X obj 710 255 list prepend \$1 op2-trigger;
#X obj 246 362 r \$0-am-trig;
#X obj 246 404 list prepend \$1 am-trig;
#X obj 785 418 s OSC-out;
#X obj 785 376 f;
#X obj 785 354 r \$0-noise-trig;
#X obj 785 396 list prepend \$1 noise-trig;
#X connect 5 0 28 0;
#X connect 5 0 18 0;
#X connect 6 0 27 0;
#X connect 8 0 29 0;
#X connect 9 0 29 1;
#X connect 13 0 31 0;
#X connect 14 0 31 1;
#X connect 16 0 32 0;
#X connect 17 0 32 1;
#X connect 19 0 28 1;
#X connect 20 0 2 0;
#X connect 21 0 4 0;
#X connect 22 0 7 0;
#X connect 23 0 15 0;
#X connect 24 0 25 0;
#X connect 24 0 26 0;
#X connect 24 0 28 2;
#X connect 24 0 29 2;
#X connect 24 0 30 2;
#X connect 24 0 31 2;
#X connect 24 0 32 2;
#X connect 24 0 41 0;
#X connect 25 0 37 0;
#X connect 26 0 39 0;
#X connect 27 0 3 0;
#X connect 28 0 20 0;
#X connect 29 0 22 0;
#X connect 30 0 35 0;
#X connect 31 0 21 0;
#X connect 32 0 23 0;
#X connect 33 0 30 0;
#X connect 34 0 30 1;
#X connect 35 0 11 0;
#X connect 36 0 25 0;
#X connect 37 0 10 0;
#X connect 38 0 26 0;
#X connect 39 0 12 0;
#X connect 41 0 43 0;
#X connect 42 0 41 0;
#X connect 43 0 40 0;
#X restore 53 69 pd OP1-3_LFO_________________;
#N canvas 64 89 1376 789 SEQ_ADSR_GENERATOR________ 0;
#X obj 37 6 inlet;
#X obj 41 615 outlet;
#X obj 32 407 s OSC-out;
#X obj 156 404 s OSC-out;
#X obj 281 403 s OSC-out;
#X obj 38 49 r \$0-seq-time-base-gui;
#X obj 32 304 s OSC-out;
#X msg 38 136 \$1 \$2 1;
#X obj 38 180 s OSC-out;
#X obj 508 112 s OSC-out;
#X obj 416 405 s OSC-out;
#X obj 32 212 r \$0-seq-random-add-gui;
#X obj 234 237 r \$0-seq-random-drop-gui;
#X obj 461 306 s OSC-out;
#X obj 689 322 s OSC-out;
#X obj 28 486 r \$0-gen-range-gui;
#X obj 752 516 s OSC-out;
#X obj 950 557 s OSC-out;
#X msg 950 514 \$1 \$2 1;
#X obj 1188 161 r \$0-sequencer;
#X obj 508 6 r \$0-seq-length-x-gui;
#X msg 508 68 1 \$1 1;
#X msg 683 114 \$1 1 1;
#X obj 683 4 r \$0-seq-length-y-gui;
#X obj 683 68 -;
#X msg 683 46 9 \$1;
#X obj 1188 183 unpack f f;
#X obj 28 554 s OSC-out;
#X obj 432 532 s OSC-out;
#X obj 586 528 s OSC-out;
#X obj 1256 30 r \$0-reset;
#X msg 1256 72 64;
#X obj 1256 94 until;
#X obj 1256 116 i;
#X obj 1285 116 + 1;
#X obj 1256 52 t b b;
#X msg 1295 73 0;
#X msg 1285 139 \$1 0;
#X obj 561 406 s OSC-out;
#X obj 805 400 s OSC-out;
#X obj 1001 391 s OSC-out;
#X obj 910 307 s OSC-out;
#X obj 196 544 s OSC-out;
#X obj 38 158 list prepend \$1 seq-time-base;
#X obj 508 90 list prepend \$1 seq-length-x;
#X obj 461 284 list prepend \$1 seq-random-vel;
#X obj 689 300 list prepend \$1 seq-swing;
#X obj 910 285 list prepend \$1 async;
#X obj 1001 369 list prepend \$1 seq-warp;
#X obj 805 378 list prepend \$1 seq-delay;
#X obj 561 384 list prepend \$1 monophonic;
#X obj 416 383 list prepend \$1 r;
#X obj 281 381 list prepend \$1 s;
#X obj 156 382 list prepend \$1 d;
#X obj 32 385 list prepend \$1 a;
#X obj 28 532 list prepend \$1 gen-range;
#X obj 196 522 list prepend \$1 gen-range-gui;
#X obj 432 510 list prepend \$1 gen-min;
#X obj 586 506 list prepend \$1 gen-max;
#X obj 752 494 list prepend \$1 gen-repeat;
#X obj 950 535 list prepend \$1 gen-direction;
#X obj 1188 284 s OSC-out-global;
#X obj 374 182 r \$0-param-update;
#X obj 508 28 f;
#X obj 683 158 s OSC-out;
#X obj 683 136 list prepend \$1 seq-length-y;
#X obj 461 242 r \$0-seq-random-vel-gui;
#X obj 461 264 f;
#X obj 1096 43 f;
#X obj 689 258 r \$0-seq-swing-gui;
#X obj 910 243 r \$0-async;
#X obj 689 280 f;
#X obj 910 265 f;
#X obj 32 340 r \$0-a-gui;
#X obj 156 337 r \$0-d-gui;
#X obj 416 338 r \$0-r-gui;
#X obj 281 336 r \$0-s-gui;
#X obj 32 362 f;
#X obj 156 359 f;
#X obj 281 358 f;
#X obj 416 360 f;
#X obj 561 342 r \$0-monophonic;
#X obj 805 336 r \$0-seq-delay-gui;
#X obj 1001 327 r \$0-seq-warp-gui;
#X obj 561 364 f;
#X obj 805 358 f;
#X obj 1001 349 f;
#X obj 28 508 f;
#X obj 432 462 r \$0-gen-min-gui;
#X obj 752 450 r \$0-gen-repeat-gui;
#X obj 432 484 f;
#X obj 586 480 f;
#X obj 752 472 f;
#X obj 950 470 f;
#X obj 38 71 f;
#X obj 1096 85 s OSC-out-global;
#X obj 1096 63 oscformat f\$1 seq-on;
#X obj 683 91 f;
#X obj 1188 257 oscformat f\$1 sequencer;
#X obj 1188 225 list append;
#X floatatom 464 12 5 0 0 0 - - -;
#X obj 1188 203 specific.gridpack 8 8;
#X obj 950 492 specific.gridpack 4 1;
#X obj 352 649 r \$0-seq-euclid-gui;
#X obj 352 690 list prepend \$1 seq-euclid;
#X obj 352 711 s OSC-out;
#X obj 352 670 f;
#X obj 545 701 s OSC-out;
#X obj 545 660 f;
#X obj 545 680 list prepend \$1 seq-euclid-offset;
#X obj 545 639 r \$0-seq-euclid-offset-gui;
#X obj 764 695 s OSC-out;
#X obj 764 654 f;
#X obj 764 674 list prepend \$1 seq-euclid-steps;
#X obj 764 633 r \$0-seq-euclid-steps-gui;
#X obj 972 698 s OSC-out;
#X obj 972 657 f;
#X obj 972 677 list prepend \$1 seq-euclid-steps-GUI;
#X obj 972 636 r \$0-seq-euclid-steps-OUT;
#X obj 196 483 r \$0-gen-range-display;
#X obj 196 502 f;
#X obj 38 113 specific.gridpack 5 1;
#X msg 240 114 \$1 \$2 1;
#X obj 240 158 s OSC-out;
#X obj 240 49 f;
#X obj 240 91 specific.gridpack 5 1;
#X obj 240 136 list prepend \$1 seq-time-base-multiplier;
#X obj 240 27 r \$0-seq-time-base-multiplier-gui;
#X obj 586 458 r \$0-gen-min-fixed-gui;
#X obj 392 622 s OSC-out;
#X obj 392 574 f;
#X obj 392 552 r \$0-gen-min-display;
#X obj 392 600 list prepend \$1 gen-min-dislpay;
#X obj 38 92 * 5;
#X obj 240 70 * 5;
#X obj 508 49 * 8;
#X obj 683 25 * 8;
#X obj 1096 21 r \$0-seq-on-gui;
#X obj 950 448 r \$0-gen-direction;
#X obj 32 257 f;
#X obj 32 282 list prepend \$1 seq-random-add;
#X obj 233 260 f;
#X obj 233 302 s OSC-out;
#X obj 233 281 list prepend \$1 seq-random-drop;
#X floatatom 1174 346 5 0 0 0 - - -;
#X obj 1174 325 r \$0-seq-beat;
#X obj 1193 415 specific.gridpack 8 8;
#X obj 1193 568 oscformat f\$1 beat;
#X obj 1174 462 pipe 25;
#X obj 1174 366 t f f b;
#X msg 1256 395 1;
#X obj 1174 483 t f b;
#X msg 1202 502 0;
#X obj 1193 436 list append;
#X obj 1174 522 specific.gridpack 8 8;
#X obj 1174 543 list append;
#X connect 5 0 94 0;
#X connect 7 0 43 0;
#X connect 11 0 139 0;
#X connect 12 0 141 0;
#X connect 15 0 87 0;
#X connect 18 0 60 0;
#X connect 19 0 26 0;
#X connect 20 0 63 0;
#X connect 21 0 44 0;
#X connect 22 0 65 0;
#X connect 23 0 136 0;
#X connect 24 0 97 0;
#X connect 25 0 24 0;
#X connect 26 0 101 0;
#X connect 26 1 99 1;
#X connect 30 0 35 0;
#X connect 31 0 32 0;
#X connect 32 0 33 0;
#X connect 33 0 34 0;
#X connect 34 0 33 1;
#X connect 34 0 37 0;
#X connect 35 0 31 0;
#X connect 35 1 36 0;
#X connect 36 0 33 1;
#X connect 37 0 26 0;
#X connect 43 0 8 0;
#X connect 44 0 9 0;
#X connect 45 0 13 0;
#X connect 46 0 14 0;
#X connect 47 0 41 0;
#X connect 48 0 40 0;
#X connect 49 0 39 0;
#X connect 50 0 38 0;
#X connect 51 0 10 0;
#X connect 52 0 4 0;
#X connect 53 0 3 0;
#X connect 54 0 2 0;
#X connect 55 0 27 0;
#X connect 56 0 42 0;
#X connect 57 0 28 0;
#X connect 58 0 29 0;
#X connect 59 0 16 0;
#X connect 60 0 17 0;
#X connect 62 0 63 0;
#X connect 62 0 68 0;
#X connect 62 0 67 0;
#X connect 62 0 71 0;
#X connect 62 0 72 0;
#X connect 62 0 77 0;
#X connect 62 0 78 0;
#X connect 62 0 79 0;
#X connect 62 0 80 0;
#X connect 62 0 87 0;
#X connect 62 0 90 0;
#X connect 62 0 91 0;
#X connect 62 0 92 0;
#X connect 62 0 93 0;
#X connect 62 0 84 0;
#X connect 62 0 85 0;
#X connect 62 0 86 0;
#X connect 62 0 94 0;
#X connect 62 0 97 0;
#X connect 62 0 106 0;
#X connect 62 0 108 0;
#X connect 62 0 112 0;
#X connect 62 0 116 0;
#X connect 62 0 120 0;
#X connect 62 0 124 0;
#X connect 62 0 130 0;
#X connect 62 0 139 0;
#X connect 62 0 141 0;
#X connect 63 0 135 0;
#X connect 65 0 64 0;
#X connect 66 0 67 0;
#X connect 67 0 45 0;
#X connect 68 0 96 0;
#X connect 69 0 71 0;
#X connect 70 0 72 0;
#X connect 71 0 46 0;
#X connect 72 0 47 0;
#X connect 73 0 77 0;
#X connect 74 0 78 0;
#X connect 75 0 80 0;
#X connect 76 0 79 0;
#X connect 77 0 54 0;
#X connect 78 0 53 0;
#X connect 79 0 52 0;
#X connect 80 0 51 0;
#X connect 81 0 84 0;
#X connect 82 0 85 0;
#X connect 83 0 86 0;
#X connect 84 0 50 0;
#X connect 85 0 49 0;
#X connect 86 0 48 0;
#X connect 87 0 55 0;
#X connect 88 0 90 0;
#X connect 89 0 92 0;
#X connect 90 0 57 0;
#X connect 91 0 58 0;
#X connect 92 0 59 0;
#X connect 93 0 102 0;
#X connect 94 0 133 0;
#X connect 96 0 95 0;
#X connect 97 0 22 0;
#X connect 98 0 61 0;
#X connect 99 0 98 0;
#X connect 100 0 63 0;
#X connect 101 0 99 0;
#X connect 102 0 18 0;
#X connect 103 0 106 0;
#X connect 104 0 105 0;
#X connect 106 0 104 0;
#X connect 108 0 109 0;
#X connect 109 0 107 0;
#X connect 110 0 108 0;
#X connect 112 0 113 0;
#X connect 113 0 111 0;
#X connect 114 0 112 0;
#X connect 116 0 117 0;
#X connect 117 0 115 0;
#X connect 118 0 116 0;
#X connect 119 0 120 0;
#X connect 120 0 56 0;
#X connect 121 0 7 0;
#X connect 122 0 126 0;
#X connect 124 0 134 0;
#X connect 125 0 122 0;
#X connect 126 0 123 0;
#X connect 127 0 124 0;
#X connect 128 0 91 0;
#X connect 130 0 132 0;
#X connect 131 0 130 0;
#X connect 132 0 129 0;
#X connect 133 0 121 0;
#X connect 134 0 125 0;
#X connect 135 0 21 0;
#X connect 136 0 25 0;
#X connect 137 0 68 0;
#X connect 138 0 93 0;
#X connect 139 0 140 0;
#X connect 140 0 6 0;
#X connect 141 0 143 0;
#X connect 143 0 142 0;
#X connect 144 0 149 0;
#X connect 145 0 144 0;
#X connect 146 0 153 0;
#X connect 148 0 151 0;
#X connect 149 0 148 0;
#X connect 149 1 146 0;
#X connect 149 2 150 0;
#X connect 150 0 153 1;
#X connect 151 0 154 0;
#X connect 151 1 152 0;
#X connect 152 0 155 1;
#X connect 153 0 147 0;
#X connect 154 0 155 0;
#X connect 155 0 147 0;
#X restore 53 91 pd SEQ_ADSR_GENERATOR________;
#N canvas 48 46 523 243 MIDI_OUT__________________ 0;
#X obj 38 114 r \$0-MIDI-out;
#X obj 118 136 loadbang;
#X obj 38 136 unpack f f;
#X obj 46 28 inlet;
#X obj 38 182 ctlout;
#X obj 118 158 \$1;
#X obj 240 80 pack f f f;
#X msg 240 102 \$3 \$1 \$2;
#X obj 240 124 list prepend send;
#X obj 240 146 list trim;
#X obj 352 37 bng 15 250 50 0 empty empty empty 17 7 0 10 -262144 -1
-1;
#X obj 352 57 \$4;
#X obj 240 168 s to-audio-host;
#X connect 1 0 5 0;
#X connect 2 0 4 0;
#X connect 2 1 4 1;
#X connect 5 0 4 2;
#X connect 6 0 7 0;
#X connect 7 0 8 0;
#X connect 8 0 9 0;
#X connect 9 0 12 0;
#X connect 10 0 11 0;
#X connect 11 0 6 2;
#X restore 53 157 pd MIDI_OUT__________________;
#X obj 249 48 specific.oscparse \$1 \$0;
#X connect 0 0 3 0;
#X connect 1 0 6 0;
#X connect 2 0 1 0;
#X connect 3 0 4 0;
#X connect 4 0 5 0;
#X connect 5 0 2 0;
#X restore 37 151 pd OSC+MIDI_OUT_ROUTING__;
#N canvas 910 146 417 334 SEQUENCER_____________ 0;
#X obj 60 212 s \$0-automater-trig;
#X obj 49 30 inlet;
#X obj 258 283 outlet;
#X text 187 155 <- the actual sequencer!!!;
#X obj 59 105 r master-beat;
#X obj 64 130 r \$0-seq-messages;
#X obj 50 157 flib.seq.sequencer \$0;
#X obj 173 182 s \$0-seq-euclid-steps-OUT;
#X obj 50 288 s \$0-value-read;
#X connect 1 0 6 0;
#X connect 4 0 6 0;
#X connect 5 0 6 0;
#X connect 6 0 0 0;
#X connect 6 0 8 0;
#X connect 6 1 7 0;
#X restore 37 105 pd SEQUENCER_____________;
#X msg 82 50 reset bang;
#X obj 37 207 s osc-m;
#X obj 37 186 r \$0-OSC-collect-\$1;
#X connect 0 0 3 0;
#X connect 1 0 2 0;
#X connect 2 0 4 0;
#X connect 4 0 0 0;
#X connect 5 0 2 0;
#X connect 7 0 6 0;
