#N canvas 910 310 333 454 10;
#X obj 30 240 spigot;
#X msg 126 160 1;
#X obj 163 134 t f b;
#X msg 210 154 0;
#X obj 30 307 *;
#X obj 30 284 f;
#X obj 30 39 inlet;
#X obj 87 40 inlet;
#X obj 30 399 outlet;
#X obj 30 337 clip 0 22050;
#X obj 87 92 route 0 1;
#X obj 163 179 * 22050;
#X obj 67 173 change;
#X obj 67 194 t b;
#X obj 87 134 t f f b;
#X connect 0 0 5 0;
#X connect 1 0 0 1;
#X connect 2 0 11 0;
#X connect 2 1 3 0;
#X connect 3 0 0 1;
#X connect 4 0 9 0;
#X connect 5 0 4 0;
#X connect 6 0 0 0;
#X connect 7 0 10 0;
#X connect 9 0 8 0;
#X connect 10 0 14 0;
#X connect 10 1 2 0;
#X connect 11 0 9 0;
#X connect 12 0 13 0;
#X connect 13 0 5 0;
#X connect 14 0 12 0;
#X connect 14 1 4 1;
#X connect 14 2 1 0;
