#N canvas 793 443 287 183 10;
#X text 49 13 \$1 = looper instance \; \$2 = \$0;
#X obj 57 54 r OSC-in;
#N canvas 655 577 961 567 MAPPING2FAUST__ 0;
#X obj 19 37 r \$0-play;
#X obj 97 36 r \$0-loop;
#X obj 270 36 r \$0-speed;
#X obj 172 36 r \$0-reverse;
#X obj 19 107 s \$0-out;
#X obj 97 108 s \$0-out;
#X obj 271 133 s \$0-out;
#X obj 172 108 s \$0-out;
#N canvas 49 298 490 508 MAPPING 0;
#X obj 81 2 inlet;
#X obj 81 66 moses 0.45;
#X obj 161 67 moses 0.55;
#X msg 161 103 1;
#X obj 80 99 / 0.45;
#X obj 319 164 r \$0-speedsnap;
#X obj 228 90 - 0.55;
#X obj 228 115 / 0.45;
#X obj 231 15 hsl 128 15 0 127 0 0 empty empty empty -2 -8 0 10 -262144
-1 -1 0 1;
#X obj 228 35 / 127;
#X obj 228 192 flib.util.switch;
#X obj 321 213 i;
#X obj 170 232 r \$0-speedsnap;
#X obj 79 260 flib.util.switch;
#X msg 191 330 1;
#X obj 191 355 <<;
#X obj 191 379 / 16;
#X obj 191 306 t b f;
#X obj 191 282 * 4;
#X obj 158 437 max 0.0625;
#X obj 228 138 * 7;
#X obj 228 162 + 1;
#X obj 158 461 outlet;
#X connect 0 0 1 0;
#X connect 1 0 4 0;
#X connect 1 1 2 0;
#X connect 2 0 3 0;
#X connect 2 1 6 0;
#X connect 3 0 19 0;
#X connect 4 0 13 0;
#X connect 5 0 10 1;
#X connect 6 0 7 0;
#X connect 7 0 20 0;
#X connect 8 0 9 0;
#X connect 9 0 1 0;
#X connect 10 0 19 0;
#X connect 10 1 11 0;
#X connect 11 0 19 0;
#X connect 12 0 13 1;
#X connect 13 0 19 0;
#X connect 13 1 18 0;
#X connect 14 0 15 0;
#X connect 15 0 16 0;
#X connect 16 0 19 0;
#X connect 17 0 14 0;
#X connect 17 1 15 1;
#X connect 18 0 17 0;
#X connect 19 0 22 0;
#X connect 20 0 21 0;
#X connect 21 0 10 0;
#X restore 270 60 pd MAPPING;
#X obj 19 61 pack f \$1;
#X obj 97 60 pack f \$1;
#X obj 172 60 pack f \$1;
#X obj 270 85 pack f \$1;
#X msg 172 82 reverse\$2 \$1;
#X msg 97 84 loop\$2 \$1;
#X msg 19 83 play\$2 \$1;
#X msg 271 109 speed\$2 \$1;
#X obj 42 415 r \$0-out;
#X obj 825 107 s \$0-out;
#X obj 825 59 pack f \$1;
#X obj 825 36 r \$0-dropout;
#X msg 825 83 dropout\$2 \$1;
#X obj 356 36 r \$0-duration;
#X obj 472 36 r \$0-readoffset;
#X obj 591 36 r \$0-envelope;
#X obj 472 108 s \$0-out;
#X obj 472 60 pack f \$1;
#X obj 591 108 s \$0-out;
#X obj 591 60 pack f \$1;
#X msg 472 84 readoffset\$2 \$1;
#X msg 591 84 envelope\$2 \$1;
#X obj 695 134 s \$0-out;
#X obj 695 86 pack f \$1;
#X obj 695 36 r \$0-dropoutfreq;
#X msg 695 110 dropoutfreq\$2 \$1;
#N canvas 0 22 338 407 MAPPING 0;
#X obj 62 112 flib.util.switch;
#X msg 170 181 1;
#X obj 170 206 <<;
#X obj 170 157 t b f;
#X obj 170 230 / 32;
#X obj 170 133 * 5;
#X obj 62 260 t a;
#X obj 175 88 r \$0-durationsnap;
#X obj 62 344 outlet;
#X obj 62 33 inlet;
#X connect 0 0 6 0;
#X connect 0 1 5 0;
#X connect 1 0 2 0;
#X connect 2 0 4 0;
#X connect 3 0 1 0;
#X connect 3 1 2 1;
#X connect 4 0 6 0;
#X connect 5 0 3 0;
#X connect 6 0 8 0;
#X connect 7 0 0 1;
#X connect 9 0 0 0;
#X restore 356 60 pd MAPPING;
#X obj 356 132 s \$0-out;
#X obj 356 84 pack f \$1;
#N canvas 0 22 308 352 MAPPING 0;
#X obj 62 35 inlet;
#X obj 128 139 r global-tempo;
#X msg 128 164 60 \$1;
#X obj 128 188 /;
#X obj 62 309 outlet;
#X obj 62 164 <<;
#X obj 62 115 t b f;
#X obj 62 91 * 5;
#X msg 62 139 1;
#X obj 62 225 f;
#X obj 62 193 t b f;
#X obj 62 249 *;
#X connect 0 0 7 0;
#X connect 1 0 2 0;
#X connect 2 0 3 0;
#X connect 3 0 9 0;
#X connect 5 0 10 0;
#X connect 6 0 8 0;
#X connect 6 1 5 1;
#X connect 7 0 6 0;
#X connect 8 0 5 0;
#X connect 9 0 11 0;
#X connect 10 0 9 0;
#X connect 10 1 11 1;
#X connect 11 0 4 0;
#X restore 695 60 pd MAPPING;
#X obj 33 280 s \$0-out;
#X obj 33 234 pack f \$1;
#X obj 33 209 r \$0-bitcrush;
#X msg 33 256 bitcrush\$2 \$1;
#X obj 361 207 r \$0-filterresonance;
#X obj 523 276 s \$0-out;
#X obj 523 230 pack f \$1;
#X obj 523 205 r \$0-level;
#X msg 523 252 level\$2 \$1;
#X obj 361 325 s \$0-out;
#X obj 361 279 pack f \$1;
#X obj 361 255 + 1;
#X obj 361 231 * 99;
#X msg 361 301 filterresonance\$2 \$1;
#X obj 148 205 r \$0-filtercutoff;
#X obj 148 323 s \$0-out;
#X obj 148 277 pack f \$1;
#X msg 148 299 filtercutoff\$2 \$1;
#X obj 148 253 + 20;
#X obj 148 229 specific.rescale 3.6 20000 0;
#X msg 356 108 duration\$2 \$1;
#X obj 42 436 list prepend looper;
#X obj 42 487 list trim;
#X obj 42 508 s \$2-FAUST_MESSAGES;
#X obj 42 457 list prepend send;
#X obj 205 495 print me;
#X connect 0 0 9 0;
#X connect 1 0 10 0;
#X connect 2 0 8 0;
#X connect 3 0 11 0;
#X connect 8 0 12 0;
#X connect 9 0 15 0;
#X connect 10 0 14 0;
#X connect 11 0 13 0;
#X connect 12 0 16 0;
#X connect 13 0 7 0;
#X connect 14 0 5 0;
#X connect 15 0 4 0;
#X connect 16 0 6 0;
#X connect 17 0 60 0;
#X connect 19 0 21 0;
#X connect 20 0 19 0;
#X connect 21 0 18 0;
#X connect 22 0 35 0;
#X connect 23 0 26 0;
#X connect 24 0 28 0;
#X connect 26 0 29 0;
#X connect 28 0 30 0;
#X connect 29 0 25 0;
#X connect 30 0 27 0;
#X connect 32 0 34 0;
#X connect 33 0 38 0;
#X connect 34 0 31 0;
#X connect 35 0 37 0;
#X connect 37 0 59 0;
#X connect 38 0 32 0;
#X connect 40 0 42 0;
#X connect 41 0 40 0;
#X connect 42 0 39 0;
#X connect 43 0 51 0;
#X connect 45 0 47 0;
#X connect 46 0 45 0;
#X connect 47 0 44 0;
#X connect 49 0 52 0;
#X connect 50 0 49 0;
#X connect 51 0 50 0;
#X connect 52 0 48 0;
#X connect 53 0 58 0;
#X connect 55 0 56 0;
#X connect 56 0 54 0;
#X connect 57 0 55 0;
#X connect 58 0 57 0;
#X connect 59 0 36 0;
#X connect 60 0 63 0;
#X connect 61 0 62 0;
#X connect 61 0 64 0;
#X connect 63 0 61 0;
#X restore 57 102 pd MAPPING2FAUST__;
#N canvas 354 147 963 731 GUI_SEND_______ 0;
#X obj 19 37 r \$0-play-gui;
#X obj 20 126 r \$0-loop-gui;
#X obj 18 214 r \$0-reverse-gui;
#X obj 17 296 r \$0-speed-gui;
#X obj 19 551 r \$0-duration-gui;
#X obj 18 462 r \$0-readoffset-gui;
#X obj 264 46 r \$0-envelope-gui;
#X obj 265 142 r \$0-dropoutfreq-gui;
#X obj 264 221 r \$0-dropout-gui;
#X obj 264 314 r \$0-bitcrush-gui;
#X obj 264 397 r \$0-filtercutoff-gui;
#X obj 266 481 r \$0-filterresonance-gui;
#X obj 267 558 r \$0-level-gui;
#X obj 17 376 r \$0-speedsnap-gui;
#X obj 21 630 r \$0-durationsnap-gui;
#X obj 19 64 oscformat looper play\$1;
#X obj 19 88 s \$0-gui-out;
#X obj 21 176 s \$0-gui-out;
#X obj 21 152 oscformat looper loop\$1;
#X obj 17 264 s \$0-gui-out;
#X obj 17 240 oscformat looper reverse\$1;
#X obj 16 345 s \$0-gui-out;
#X obj 16 321 oscformat looper speed\$1;
#X obj 16 425 s \$0-gui-out;
#X obj 18 511 s \$0-gui-out;
#X obj 16 401 oscformat looper speedsnap\$1;
#X obj 18 487 oscformat looper readoffset\$1;
#X obj 19 601 s \$0-gui-out;
#X obj 19 577 oscformat looper duration\$1;
#X obj 21 680 s \$0-gui-out;
#X obj 21 656 oscformat looper durationsnap\$1;
#X obj 264 96 s \$0-gui-out;
#X obj 265 189 s \$0-gui-out;
#X obj 264 269 s \$0-gui-out;
#X obj 264 72 oscformat looper envelope\$1;
#X obj 265 165 oscformat looper dropoutfreq\$1;
#X obj 264 245 oscformat looper dropout\$1;
#X obj 264 362 s \$0-gui-out;
#X obj 264 338 oscformat looper bitcrush\$1;
#X obj 264 448 s \$0-gui-out;
#X obj 264 424 oscformat looper filtercutoff\$1;
#X obj 266 528 s \$0-gui-out;
#X obj 266 504 oscformat looper filterresonance\$1;
#X obj 267 606 s \$0-gui-out;
#X obj 267 582 oscformat looper level\$1;
#X obj 511 42 r \$0-out;
#X obj 511 241 oscformat looper speedgui;
#X obj 511 265 s \$0-gui-out;
#X obj 603 216 s \$0-gui-out;
#X obj 695 168 s \$0-gui-out;
#X obj 720 119 s \$0-gui-out;
#X obj 603 192 oscformat looper durationgui;
#X obj 695 144 oscformat looper dropoutfreqgui;
#X obj 720 95 oscformat looper filtercutofgui;
#X obj 511 66 route speed\$1 duration\$1 dropoutfreq\$1 filtercutoff\$1
;
#X obj 655 601 r \$0-gui-out;
#X obj 655 622 s OSC-out;
#X connect 0 0 15 0;
#X connect 1 0 18 0;
#X connect 2 0 20 0;
#X connect 3 0 22 0;
#X connect 4 0 28 0;
#X connect 5 0 26 0;
#X connect 6 0 34 0;
#X connect 7 0 35 0;
#X connect 8 0 36 0;
#X connect 9 0 38 0;
#X connect 10 0 40 0;
#X connect 11 0 42 0;
#X connect 12 0 44 0;
#X connect 13 0 25 0;
#X connect 14 0 30 0;
#X connect 15 0 16 0;
#X connect 18 0 17 0;
#X connect 20 0 19 0;
#X connect 22 0 21 0;
#X connect 25 0 23 0;
#X connect 26 0 24 0;
#X connect 28 0 27 0;
#X connect 30 0 29 0;
#X connect 34 0 31 0;
#X connect 35 0 32 0;
#X connect 36 0 33 0;
#X connect 38 0 37 0;
#X connect 40 0 39 0;
#X connect 42 0 41 0;
#X connect 44 0 43 0;
#X connect 45 0 54 0;
#X connect 46 0 47 0;
#X connect 51 0 48 0;
#X connect 52 0 49 0;
#X connect 53 0 50 0;
#X connect 54 0 46 0;
#X connect 54 1 51 0;
#X connect 54 2 52 0;
#X connect 54 3 53 0;
#X connect 55 0 56 0;
#X restore 57 126 pd GUI_SEND_______;
#N canvas 475 159 1405 672 ROUTING________ 0;
#X obj 33 37 inlet;
#X obj 32 597 flib.seq.automater \$0 \$0-play 0;
#X obj 32 637 s \$0-play;
#X obj 89 531 flib.seq.automater \$0 \$0-loop 0;
#X obj 89 571 s \$0-loop;
#X obj 131 468 flib.seq.automater \$0 \$0-reverse 0;
#X obj 131 508 s \$0-reverse;
#X obj 163 446 s \$0-speed;
#X obj 200 344 flib.seq.automater \$0 \$0-speedsnap 0;
#X obj 200 384 s \$0-speedsnap;
#X obj 233 282 flib.seq.automater \$0 \$0-readoffset 0;
#X obj 233 322 s \$0-readoffset;
#X obj 275 255 s \$0-duration;
#X obj 552 337 flib.seq.automater \$0 \$0-envelope 0;
#X obj 552 377 s \$0-envelope;
#X obj 644 312 s \$0-dropoutfreq;
#X obj 644 272 flib.seq.automater \$0 \$0-dropoutfreq 0;
#X obj 736 250 s \$0-dropout;
#X obj 736 210 flib.seq.automater \$0 \$0-dropout 0;
#X obj 952 377 s \$0-bitcrush;
#X obj 952 337 flib.seq.automater \$0 \$0-bitcrush 0;
#X obj 1044 312 s \$0-filtercutoff;
#X obj 1136 250 s \$0-filterresonance;
#X obj 1136 210 flib.seq.automater \$0 \$0-filterresonance 0;
#X obj 1044 272 flib.seq.automater \$0 \$0-filtercutoff 1;
#X obj 952 91 route bitcrush\$1 filtercutoff\$1 filterresonance\$1
level\$1;
#X obj 1163 179 s \$0-level;
#X obj 1163 139 flib.seq.automater \$0 \$0-level 0;
#X obj 33 84 route play\$1 loop\$1 reverse\$1 speed\$1 speedsnap\$1
readoffset\$1 duration\$1 durationsnap\$1;
#X obj 315 145 flib.seq.automater \$0 \$0-durationsnap 0;
#X obj 315 185 s \$0-durationsnap;
#X obj 275 215 flib.seq.automater \$0 \$0-duration 1;
#X obj 163 406 flib.seq.automater \$0 \$0-speed 0.5;
#X obj 33 58 route looper;
#X obj 552 91 route envelope\$1 dropoutfreq\$1 dropoutamount\$1;
#X connect 0 0 33 0;
#X connect 1 0 2 0;
#X connect 3 0 4 0;
#X connect 5 0 6 0;
#X connect 8 0 9 0;
#X connect 10 0 11 0;
#X connect 13 0 14 0;
#X connect 16 0 15 0;
#X connect 18 0 17 0;
#X connect 20 0 19 0;
#X connect 23 0 22 0;
#X connect 24 0 21 0;
#X connect 25 0 20 0;
#X connect 25 1 24 0;
#X connect 25 2 23 0;
#X connect 25 3 27 0;
#X connect 27 0 26 0;
#X connect 28 0 1 0;
#X connect 28 1 3 0;
#X connect 28 2 5 0;
#X connect 28 3 32 0;
#X connect 28 4 8 0;
#X connect 28 5 10 0;
#X connect 28 6 31 0;
#X connect 28 7 29 0;
#X connect 28 8 34 0;
#X connect 29 0 30 0;
#X connect 31 0 12 0;
#X connect 32 0 7 0;
#X connect 33 0 28 0;
#X connect 34 0 13 0;
#X connect 34 1 16 0;
#X connect 34 2 18 0;
#X connect 34 3 25 0;
#X restore 57 78 pd ROUTING________;
#X connect 1 0 4 0;
