#N canvas 215 482 304 243 10;
#N canvas 422 473 385 313 FMSYNTH_______________ 0;
#X obj 31 20 inlet;
#N canvas 164 21 751 634 MASTER_BUS_FX_PARAM___ 0;
#X obj 63 12 inlet;
#X obj 301 301 r \$0-sidechain-env-side;
#X obj 285 234 r \$0-sidechain-depth;
#X obj 121 536 t a;
#X obj 62 563 outlet;
#X obj 256 103 r \$0-saturation-amount;
#X obj 513 499 r \$0-panning;
#N canvas 0 22 409 349 AMP_FADE_SWITCH~_CONTROL____ 0;
#X obj 59 19 r \$0-master-amp;
#X obj 81 48 r \$0-fade-out;
#X obj 270 78 r fade-out-time;
#X obj 81 127 f 16000;
#X msg 81 149 0 \$1;
#X obj 208 243 s \$0-fade-out-gui;
#X msg 81 70 bang;
#X obj 208 103 pack f f 16000;
#X msg 208 125 \$2 \, 0 \$3;
#X msg 221 152 stop;
#X obj 224 201 sel 0;
#X obj 224 223 s \$0-to-switch~;
#X obj 208 178 line 0 25;
#X obj 220 55 r \$0-master-amp;
#X obj 88 104 r fade-out-time;
#X obj 59 180 t a;
#X obj 59 311 outlet;
#X connect 0 0 15 0;
#X connect 1 0 6 0;
#X connect 2 0 7 2;
#X connect 3 0 4 0;
#X connect 4 0 15 0;
#X connect 6 0 3 0;
#X connect 6 0 7 0;
#X connect 7 0 8 0;
#X connect 8 0 12 0;
#X connect 9 0 12 0;
#X connect 10 0 11 0;
#X connect 12 0 5 0;
#X connect 12 0 10 0;
#X connect 13 0 7 1;
#X connect 13 0 9 0;
#X connect 14 0 3 1;
#X connect 15 0 16 0;
#X restore 503 426 pd AMP_FADE_SWITCH~_CONTROL____;
#X obj 277 169 r \$0-reset;
#X obj 94 48 pack f \$1;
#X obj 116 114 pack f \$1;
#X obj 256 124 pack f \$1;
#X obj 277 190 pack f \$1;
#X obj 285 255 pack f \$1;
#X obj 301 322 pack f \$1;
#X obj 504 447 pack f \$1;
#X obj 513 520 pack f \$1;
#X obj 120 562 s synth-param;
#X obj 210 561 s voice-param;
#X obj 311 386 pack f \$1;
#X obj 311 365 r \$0-sidechain-in;
#X obj 311 456 pack f \$1;
#X obj 311 435 r \$0-sidechain-release;
#X obj 116 93 r \$0-am-depth;
#X obj 94 30 r \$0-am-freq;
#X msg 116 134 FMSynth amdepth\$2 \$1;
#X msg 256 142 FMSynth saturationamount\$2 \$1;
#X msg 278 211 FMSynth enveloperelease\$2 0.01;
#X msg 286 277 FMSynth envelopedepth\$2 \$1;
#X msg 301 343 FMSynth envelopeside\$2 \$1;
#X msg 503 469 FMSynth masteramp\$2 \$1;
#X msg 513 539 FMSynth panning\$2 \$1;
#X msg 95 69 FMSynth amfreq\$2 \$1;
#X msg 312 478 FMSynth sidechain release\$2 \$1;
#X msg 311 407 FMSynth sidechain \$2 \$1;
#X obj 204 589 s FAUST-OUT;
#X connect 0 0 4 0;
#X connect 1 0 14 0;
#X connect 2 0 13 0;
#X connect 3 0 17 0;
#X connect 3 0 4 0;
#X connect 3 0 18 0;
#X connect 3 0 35 0;
#X connect 5 0 11 0;
#X connect 6 0 16 0;
#X connect 7 0 15 0;
#X connect 8 0 12 0;
#X connect 9 0 32 0;
#X connect 10 0 25 0;
#X connect 11 0 26 0;
#X connect 12 0 27 0;
#X connect 13 0 28 0;
#X connect 14 0 29 0;
#X connect 15 0 30 0;
#X connect 16 0 31 0;
#X connect 19 0 34 0;
#X connect 20 0 19 0;
#X connect 21 0 33 0;
#X connect 22 0 21 0;
#X connect 23 0 10 0;
#X connect 24 0 9 0;
#X connect 25 0 3 0;
#X connect 26 0 3 0;
#X connect 27 0 3 0;
#X connect 28 0 3 0;
#X connect 29 0 3 0;
#X connect 30 0 3 0;
#X connect 31 0 3 0;
#X connect 32 0 3 0;
#X connect 33 0 3 0;
#X connect 34 0 3 0;
#X restore 31 130 pd MASTER_BUS_FX_PARAM___;
#N canvas 727 205 522 548 VOICE_ALLOCATION______ 0;
#X obj 41 22 inlet;
#X obj 41 53 t a a;
#X obj 75 495 outlet;
#X obj 168 128 loadbang;
#X obj 210 260 \$1;
#X obj 210 281 - 1;
#X obj 210 302 * 16;
#X text 240 260 <- instance;
#X obj 195 322 +;
#X msg 168 173 16;
#X obj 168 194 until;
#X obj 168 235 i;
#X obj 194 235 + 1;
#X msg 184 215 0;
#X obj 168 372 pack f f;
#X obj 195 341 + 1;
#X obj 41 421 list split 1;
#X obj 75 444 list trim;
#X obj 168 260 t f f;
#X obj 147 130 bng 15 250 50 0 empty empty empty 17 7 0 10 -262144
-1 -1;
#X obj 168 149 t b b b;
#X obj 41 100 list prepend 0;
#X obj 181 445 list split 1;
#X obj 215 466 list trim;
#X obj 215 497 s FAUST-OUT;
#X obj 359 183 r \$0-waveshape;
#X msg 359 225 16;
#X obj 359 246 until;
#X obj 359 267 i;
#X obj 385 267 + 1;
#X obj 359 288 mod 16;
#X obj 359 309 + 1;
#X obj 359 205 t b f;
#X obj 359 329 pack f f;
#X msg 359 352 FMSynth/waveshape\$1 \$2;
#N canvas 152 244 1076 537 VOICE_SELECT_&_MODULATION_CLEAR 0;
#X obj 61 28 inlet;
#X obj 61 109 i;
#X obj 61 88 sel 0;
#X obj 61 68 route trigger;
#X obj 100 478 outlet;
#X obj 228 203 mod 16;
#X obj 182 474 outlet;
#X msg 906 317 \$1 voiceamp 0;
#X obj 228 182 + 1;
#X msg 879 367 \$1 trigger 0;
#X obj 879 274 mod 16;
#X obj 879 253 + 1;
#X msg 612 368 \$1 voiceamp 1;
#X obj 86 109 + 1;
#X obj 526 322 r \$0-waveshape;
#X obj 483 343 pack f f;
#X msg 483 364 \$1 waveshape \$2;
#X obj 228 341 pack f f;
#X obj 273 320 r \$0-noise;
#X msg 228 362 \$1 noise \$2;
#X obj 228 225 t f f f f f f;
#X obj 358 344 pack f f;
#X msg 358 365 \$1 op2depth \$2;
#X obj 403 323 r \$0-op2-depth;
#X text 231 411 ABOVE: clears modulator settings for next voice (so
as to avoid weird glides);
#X msg 61 278 \$1 voiceamp 0;
#X msg 743 367 \$1 trigger 0;
#X obj 61 257 mod 16;
#X obj 61 214 spigot 1;
#X obj 106 195 r \$0-monophonic;
#X obj 61 130 mod 16;
#X obj 228 385 s \$0-voice-param-out;
#X obj 358 387 s \$0-voice-param-out;
#X obj 484 387 s \$0-voice-param-out;
#X obj 612 388 s \$0-voice-param-out;
#X obj 182 453 r \$0-voice-param-out;
#X obj 879 388 s \$0-voice-param-out;
#X obj 906 338 s \$0-voice-param-out;
#X obj 743 388 s \$0-voice-param-out;
#X obj 61 299 s \$0-voice-param-out;
#X obj 879 295 t f f;
#X obj 61 151 t f f f;
#X obj 61 236 - 1;
#X connect 0 0 3 0;
#X connect 1 0 13 0;
#X connect 1 0 30 0;
#X connect 2 0 1 0;
#X connect 3 0 2 0;
#X connect 5 0 20 0;
#X connect 7 0 37 0;
#X connect 8 0 5 0;
#X connect 9 0 36 0;
#X connect 10 0 40 0;
#X connect 11 0 10 0;
#X connect 12 0 34 0;
#X connect 13 0 1 1;
#X connect 14 0 15 1;
#X connect 15 0 16 0;
#X connect 16 0 33 0;
#X connect 17 0 19 0;
#X connect 18 0 17 1;
#X connect 19 0 31 0;
#X connect 20 0 17 0;
#X connect 20 1 21 0;
#X connect 20 2 15 0;
#X connect 20 3 12 0;
#X connect 20 4 26 0;
#X connect 20 5 11 0;
#X connect 21 0 22 0;
#X connect 22 0 32 0;
#X connect 23 0 21 1;
#X connect 25 0 39 0;
#X connect 26 0 38 0;
#X connect 27 0 25 0;
#X connect 28 0 42 0;
#X connect 29 0 28 1;
#X connect 30 0 41 0;
#X connect 35 0 6 0;
#X connect 40 0 9 0;
#X connect 40 1 7 0;
#X connect 41 0 28 0;
#X connect 41 1 8 0;
#X connect 41 2 4 0;
#X connect 42 0 27 0;
#X restore 68 77 pd VOICE_SELECT_&_MODULATION_CLEAR;
#X obj 41 394 clone -x 16 specific.voiceparameter FMSynth;
#X connect 0 0 1 0;
#X connect 1 0 21 0;
#X connect 1 1 35 0;
#X connect 3 0 20 0;
#X connect 4 0 5 0;
#X connect 5 0 6 0;
#X connect 6 0 8 1;
#X connect 8 0 15 0;
#X connect 9 0 10 0;
#X connect 10 0 11 0;
#X connect 11 0 12 0;
#X connect 11 0 18 0;
#X connect 12 0 11 1;
#X connect 13 0 11 1;
#X connect 14 0 36 1;
#X connect 15 0 14 1;
#X connect 16 1 17 0;
#X connect 17 0 2 0;
#X connect 18 0 14 0;
#X connect 18 1 8 0;
#X connect 19 0 20 0;
#X connect 20 0 9 0;
#X connect 20 1 13 0;
#X connect 20 2 4 0;
#X connect 21 0 36 0;
#X connect 22 1 23 0;
#X connect 23 0 24 0;
#X connect 25 0 32 0;
#X connect 26 0 27 0;
#X connect 27 0 28 0;
#X connect 28 0 29 0;
#X connect 28 0 30 0;
#X connect 29 0 28 1;
#X connect 30 0 31 0;
#X connect 31 0 33 0;
#X connect 32 0 26 0;
#X connect 32 1 33 1;
#X connect 33 0 34 0;
#X connect 35 0 21 1;
#X connect 35 1 36 0;
#X connect 36 0 16 0;
#X connect 36 1 22 0;
#X restore 31 107 pd VOICE_ALLOCATION______;
#N canvas 301 39 357 291 SIDECHAIN_____________ 0;
#X obj 149 227 outlet~;
#X obj 37 26 inlet;
#X obj 36 210 outlet;
#X obj 164 111 r \$0-sidechain-release;
#X obj 149 195 vline~;
#X obj 149 72 r sidechain-global;
#X obj 131 27 r \$0-sidechain-in;
#X obj 131 50 sel 0 \$1;
#X obj 149 93 route;
#X obj 149 132 f 1;
#X msg 149 173 1 \, 0 \$1;
#X connect 1 0 2 0;
#X connect 3 0 9 1;
#X connect 4 0 0 0;
#X connect 5 0 8 0;
#X connect 6 0 7 0;
#X connect 7 2 8 1;
#X connect 8 0 9 0;
#X connect 9 0 10 0;
#X connect 10 0 4 0;
#X restore 31 152 pd SIDECHAIN_____________;
#X obj 31 229 s voice-param;
#X obj 178 175 throw~ \$1-sidechain;
#X obj 31 207 spigot 1;
#N canvas 0 22 450 300 RESET_SAFE 0;
#X obj 102 40 r \$0-reset-safe;
#X obj 102 61 t b b;
#X obj 102 82 del 20;
#X msg 102 103 1;
#X msg 137 105 0;
#X obj 108 155 t a;
#X obj 108 176 outlet;
#X connect 0 0 1 0;
#X connect 1 0 2 0;
#X connect 1 1 4 0;
#X connect 2 0 3 0;
#X connect 3 0 5 0;
#X connect 4 0 5 0;
#X connect 5 0 6 0;
#X restore 76 187 pd RESET_SAFE;
#X obj 31 281 outlet;
#N canvas 33 0 1173 807 VALUE_COLLECT_&_TRIG__ 0;
#X obj 121 452 v \$0-waveshape;
#X obj 47 445 v \$0-freq;
#X obj 227 456 v \$0-op1-slide-time;
#X obj 363 460 v \$0-op1-slide-range;
#X obj 180 337 v \$0-op2-depth;
#X obj 287 340 v \$0-op2-freq;
#X obj 227 232 v \$0-noise;
#X obj 416 231 v \$0-noise-filter-freq;
#X obj 609 215 v \$0-a;
#X obj 787 222 v \$0-d;
#X obj 963 220 v \$0-s;
#X obj 1043 218 v \$0-r;
#X obj 609 236 specific.rescale 3.1 9999 1;
#X obj 787 243 specific.rescale 3.1 9999 1;
#X obj 1043 239 specific.rescale 3.1 9999 1;
#X obj 416 252 specific.rescale 4.2 20000 0;
#X obj 227 253 specific.rescale 4.2 20000 0;
#X obj 35 87 t b b b b b b b b b b b b b b b b b;
#X obj 35 12 inlet;
#X obj 673 751 outlet;
#X msg 1043 280 release \$1;
#X msg 963 241 sustain \$1;
#X msg 787 294 decay \$1;
#X msg 609 287 attack \$1;
#X msg 227 274 noise \$1;
#X msg 416 273 noisefilterfreq \$1;
#X msg 363 481 op1sliderange \$1;
#X msg 287 361 op2freq \$1;
#X msg 180 358 op2depth \$1;
#X msg 121 473 waveshape \$1;
#X msg 47 466 op1freq \$1;
#X msg 739 688 trigger 0;
#X obj 87 2 r \$0-value-send;
#X obj 238 212 r \$0-noise;
#X obj 428 208 r \$0-noise-filter-freq;
#X obj 192 316 r \$0-op2-depth;
#X obj 297 317 r \$0-op2-freq;
#X obj 52 425 r \$0-freq;
#X obj 127 432 r \$0-waveshape;
#X obj 239 436 r \$0-op1-slide-time;
#X obj 370 437 r \$0-op1-slide-range;
#X obj 923 584 v \$0-op1-slide-range;
#X msg 923 605 op1sliderange \$1;
#X obj 930 561 r \$0-op1-slide-range;
#X obj 38 584 f;
#X msg 38 605 trigger \$1;
#X floatatom 791 69 5 0 0 0 - - -;
#X floatatom 791 110 5 0 0 0 - - -;
#X obj 791 89 specific.rescale 3.1 9999 1;
#X obj 609 257 * 0.001;
#X obj 787 264 * 0.001;
#X obj 1043 260 * 0.001;
#X obj 84 57 del 2;
#X obj 87 33 t b a b;
#X obj 38 559 del 2;
#X msg 127 599 voiceamp 1;
#X msg 227 477 op1slidetime \$1;
#X connect 0 0 29 0;
#X connect 1 0 30 0;
#X connect 2 0 56 0;
#X connect 3 0 26 0;
#X connect 4 0 28 0;
#X connect 5 0 27 0;
#X connect 6 0 16 0;
#X connect 7 0 15 0;
#X connect 8 0 12 0;
#X connect 9 0 13 0;
#X connect 10 0 21 0;
#X connect 11 0 14 0;
#X connect 12 0 49 0;
#X connect 13 0 50 0;
#X connect 14 0 51 0;
#X connect 15 0 25 0;
#X connect 16 0 24 0;
#X connect 17 0 54 0;
#X connect 17 1 1 0;
#X connect 17 2 0 0;
#X connect 17 3 2 0;
#X connect 17 4 3 0;
#X connect 17 6 4 0;
#X connect 17 7 5 0;
#X connect 17 8 6 0;
#X connect 17 9 7 0;
#X connect 17 10 8 0;
#X connect 17 11 9 0;
#X connect 17 12 10 0;
#X connect 17 13 11 0;
#X connect 18 0 53 0;
#X connect 20 0 19 0;
#X connect 21 0 19 0;
#X connect 22 0 19 0;
#X connect 23 0 19 0;
#X connect 24 0 19 0;
#X connect 25 0 19 0;
#X connect 26 0 19 0;
#X connect 27 0 19 0;
#X connect 28 0 19 0;
#X connect 29 0 19 0;
#X connect 30 0 19 0;
#X connect 31 0 19 0;
#X connect 32 0 53 0;
#X connect 33 0 16 0;
#X connect 34 0 15 0;
#X connect 35 0 28 0;
#X connect 36 0 27 0;
#X connect 37 0 30 0;
#X connect 38 0 29 0;
#X connect 39 0 56 0;
#X connect 40 0 26 0;
#X connect 41 0 42 0;
#X connect 43 0 42 0;
#X connect 44 0 45 0;
#X connect 44 0 55 0;
#X connect 45 0 19 0;
#X connect 46 0 48 0;
#X connect 48 0 47 0;
#X connect 49 0 23 0;
#X connect 50 0 22 0;
#X connect 51 0 20 0;
#X connect 52 0 17 0;
#X connect 53 0 52 0;
#X connect 53 1 44 1;
#X connect 53 2 31 0;
#X connect 54 0 44 0;
#X connect 55 0 19 0;
#X connect 56 0 19 0;
#X restore 31 84 pd VALUE_COLLECT_&_TRIG__;
#N canvas 164 21 751 634 MASTER_BUS_FX_PARAM___ 0;
#X obj 63 12 inlet;
#X obj 301 301 r \$0-sidechain-env-side;
#X obj 285 234 r \$0-sidechain-depth;
#X obj 121 536 t a;
#X obj 62 563 outlet;
#X obj 256 103 r \$0-saturation-amount;
#X obj 513 499 r \$0-panning;
#N canvas 0 22 409 349 AMP_FADE_SWITCH~_CONTROL____ 0;
#X obj 59 19 r \$0-master-amp;
#X obj 81 48 r \$0-fade-out;
#X obj 270 78 r fade-out-time;
#X obj 81 127 f 16000;
#X msg 81 149 0 \$1;
#X obj 208 243 s \$0-fade-out-gui;
#X msg 81 70 bang;
#X obj 208 103 pack f f 16000;
#X msg 208 125 \$2 \, 0 \$3;
#X msg 221 152 stop;
#X obj 224 201 sel 0;
#X obj 224 223 s \$0-to-switch~;
#X obj 208 178 line 0 25;
#X obj 220 55 r \$0-master-amp;
#X obj 88 104 r fade-out-time;
#X obj 59 180 t a;
#X obj 59 311 outlet;
#X connect 0 0 15 0;
#X connect 1 0 6 0;
#X connect 2 0 7 2;
#X connect 3 0 4 0;
#X connect 4 0 15 0;
#X connect 6 0 3 0;
#X connect 6 0 7 0;
#X connect 7 0 8 0;
#X connect 8 0 12 0;
#X connect 9 0 12 0;
#X connect 10 0 11 0;
#X connect 12 0 5 0;
#X connect 12 0 10 0;
#X connect 13 0 7 1;
#X connect 13 0 9 0;
#X connect 14 0 3 1;
#X connect 15 0 16 0;
#X restore 503 426 pd AMP_FADE_SWITCH~_CONTROL____;
#X obj 277 169 r \$0-reset;
#X obj 94 48 pack f \$1;
#X obj 116 114 pack f \$1;
#X obj 256 124 pack f \$1;
#X obj 277 190 pack f \$1;
#X obj 285 255 pack f \$1;
#X obj 301 322 pack f \$1;
#X obj 504 447 pack f \$1;
#X obj 513 520 pack f \$1;
#X msg 256 142 FMSynth/saturationamount\$2 \$1;
#X msg 277 211 FMSynth/enveloperelease\$2 0.01;
#X msg 286 277 FMSynth/envelopedepth\$2 \$1;
#X msg 301 343 FMSynth/envelopeside\$2 \$1;
#X msg 503 469 FMSynth/masteramp\$2 \$1;
#X msg 513 539 FMSynth/panning\$2 \$1;
#X obj 120 562 s synth-param;
#X obj 210 561 s voice-param;
#X obj 311 386 pack f \$1;
#X obj 311 365 r \$0-sidechain-in;
#X msg 311 407 sidechain \$2 \$1;
#X obj 311 456 pack f \$1;
#X obj 311 435 r \$0-sidechain-release;
#X msg 311 477 sidechain release\$2 \$1;
#X msg 95 69 FMSynth/amfreq\$2 \$1;
#X msg 116 134 FMSynth/amdepth\$2 \$1;
#X obj 116 93 r \$0-am-depth;
#X obj 94 30 r \$0-am-freq;
#X connect 0 0 4 0;
#X connect 1 0 14 0;
#X connect 2 0 13 0;
#X connect 3 0 23 0;
#X connect 3 0 4 0;
#X connect 3 0 24 0;
#X connect 5 0 11 0;
#X connect 6 0 16 0;
#X connect 7 0 15 0;
#X connect 8 0 12 0;
#X connect 9 0 31 0;
#X connect 10 0 32 0;
#X connect 11 0 17 0;
#X connect 12 0 18 0;
#X connect 13 0 19 0;
#X connect 14 0 20 0;
#X connect 15 0 21 0;
#X connect 16 0 22 0;
#X connect 17 0 3 0;
#X connect 18 0 3 0;
#X connect 19 0 3 0;
#X connect 20 0 3 0;
#X connect 21 0 3 0;
#X connect 22 0 3 0;
#X connect 25 0 27 0;
#X connect 26 0 25 0;
#X connect 27 0 3 0;
#X connect 28 0 30 0;
#X connect 29 0 28 0;
#X connect 30 0 3 0;
#X connect 31 0 3 0;
#X connect 32 0 3 0;
#X connect 33 0 10 0;
#X connect 34 0 9 0;
#X restore 191 130 pd MASTER_BUS_FX_PARAM___;
#X connect 0 0 9 0;
#X connect 1 0 3 0;
#X connect 2 0 1 0;
#X connect 3 0 6 0;
#X connect 3 1 5 0;
#X connect 6 0 4 0;
#X connect 7 0 6 1;
#X connect 9 0 2 0;
#X restore 37 138 pd FMSYNTH_______________;
#X obj 37 25 r OSC-in;
#N canvas 382 473 242 299 MESSAGE_IN_ROUTING____ 0;
#X obj 30 37 inlet;
#X obj 30 69 route f\$1;
#X obj 32 263 outlet;
#N canvas 2 31 481 847 PARAMETER_LIST____ 0;
#X text 66 10 op1-freq;
#X text 67 24 op1-slide-range;
#X text 68 40 op1-slide-time;
#X text 65 102 op2-freq;
#X text 66 119 op2-freq-abs;
#X text 65 134 op2-freq-trig;
#X text 66 151 op2-depth;
#X text 66 169 op2-depth-abs;
#X text 65 184 op2-depth-trig;
#X text 65 217 op3-freq;
#X text 66 234 op3-freq-abs;
#X text 65 249 op3-freq-trig;
#X text 66 266 op3-depth;
#X text 66 284 op3-depth-abs;
#X text 65 299 op3-depth-trig;
#X text 65 74 feedback-post;
#X text 65 62 feedback;
#X text 70 334 lfo-freq;
#X text 70 351 lfo-depth;
#X text 70 371 lfo-random;
#X text 69 404 a \, d \, s \, r;
#X text 71 444 seq-time-base;
#X text 72 463 seq-length-x;
#X text 72 483 seq-length-y;
#X text 74 596 seq-on;
#X text 74 501 sequencer;
#X text 73 637 gen-min;
#X text 78 654 gen-max;
#X text 84 678 gen-range;
#X text 84 698 gen-range-16;
#X text 79 718 gen-repeat;
#X text 80 734 gen-direction;
#X text 77 521 seq-random-add;
#X text 83 544 seq-random-drop;
#X text 86 561 seq-random-vel;
#X text 82 579 seq-swing;
#X text 88 783 reset;
#X text 87 761 mod/s;
#X restore 95 54 pd PARAMETER_LIST____;
#N canvas 38 181 376 381 SPEED_REVERSE_CHAOS_ 0;
#X obj 37 4 inlet;
#X obj 37 43 route mod;
#X obj 37 309 s \$0-speed;
#X obj 289 348 outlet;
#X obj 37 266 * 2;
#X obj 37 287 clip 0.1 2;
#X obj 37 64 route s reverse chaos;
#X obj 119 138 s \$0-chaos;
#X obj 78 199 s \$0-reverse;
#X obj 37 224 flib.seq.automater \$0 \$0-speed 0.5 1;
#X floatatom 133 297 5 0 0 0 - - -;
#X obj 78 160 flib.seq.automater \$0 \$0-reverse 0 1;
#X obj 120 96 flib.seq.automater \$0 \$0-chaos 0 1;
#X connect 0 0 1 0;
#X connect 1 0 6 0;
#X connect 1 1 3 0;
#X connect 4 0 5 0;
#X connect 4 0 10 0;
#X connect 5 0 2 0;
#X connect 6 0 9 0;
#X connect 6 1 11 0;
#X connect 6 2 12 0;
#X connect 9 0 4 0;
#X connect 11 0 8 0;
#X connect 12 0 7 0;
#X restore 30 133 pd SPEED_REVERSE_CHAOS_;
#N canvas 85 0 611 340 TEXT_SEQ____________ 0;
#X obj 43 24 inlet;
#X obj 382 172 flib.util.switch;
#X obj 495 289 outlet;
#N canvas 679 325 440 218 SEQ______ 0;
#X obj 37 17 inlet;
#X obj 37 42 route mod;
#X obj 88 66 route sequencer;
#N canvas 20 473 450 300 SEQUENCER_MESSAGE 0;
#N canvas 641 294 331 417 lister 0;
#X obj 45 163 list split 1;
#X obj 45 110 until;
#X obj 45 136 list append;
#X obj 136 186 bang;
#X obj 45 28 inlet;
#X obj 46 375 outlet;
#X obj 45 87 t b a b;
#X obj 95 262 list;
#X obj 45 236 list append;
#X obj 46 298 list;
#X msg 46 322 \$3 \$2 \$1;
#X obj 45 185 flib.util.s2f;
#X connect 0 0 11 0;
#X connect 0 1 2 1;
#X connect 0 2 3 0;
#X connect 1 0 2 0;
#X connect 2 0 0 0;
#X connect 3 0 1 1;
#X connect 3 0 9 0;
#X connect 4 0 6 0;
#X connect 6 0 1 0;
#X connect 6 1 2 1;
#X connect 6 2 8 1;
#X connect 7 0 8 1;
#X connect 8 0 7 0;
#X connect 8 0 9 1;
#X connect 9 0 10 0;
#X connect 10 0 5 0;
#X connect 11 0 8 0;
#X restore 38 124 pd lister;
#X obj 38 168 specific.gridunpack 8 8;
#X obj 38 76 inlet;
#X text 192 68 if seq step value == 1 \, write;
#X text 193 87 if seq step value == 0 \, don't write;
#X text 195 106 needs a reset value.;
#X obj 38 217 s \$0-seq-step;
#X msg 38 196 seqstep \$1 \$2;
#X obj 47 146 s \$0-sequencer-gui;
#X msg 207 186 1 1;
#X msg 241 189 17 1;
#X msg 279 189 32 1;
#X msg 313 192 44 1;
#X obj 207 207 t a;
#X connect 0 0 1 0;
#X connect 1 0 7 0;
#X connect 2 0 0 0;
#X connect 7 0 6 0;
#X connect 9 0 13 0;
#X connect 10 0 13 0;
#X connect 11 0 13 0;
#X connect 12 0 13 0;
#X connect 13 0 7 0;
#X restore 88 111 pd SEQUENCER_MESSAGE;
#X obj 286 159 outlet;
#X connect 0 0 1 0;
#X connect 1 1 2 0;
#X connect 2 0 3 0;
#X connect 2 1 4 0;
#X restore 495 193 pd SEQ______;
#X obj 110 193 s \$0-seq-play;
#X obj 178 171 s \$0-seq-reset;
#X obj 43 215 s \$0-seq-record;
#X obj 188 112 r \$0-reset;
#X msg 54 146 0;
#X obj 43 196 tgl 15 0 empty empty empty 17 7 0 10 -262144 -1 -1 0
1;
#X obj 110 174 tgl 15 0 empty empty empty 17 7 0 10 -262144 -1 -1 0
1;
#X obj 178 147 bng 15 250 50 0 empty empty empty 17 7 0 10 -262144
-1 -1;
#X obj 495 152 r \$0-seq-record;
#X obj 246 145 s \$0-seq-clear;
#X obj 43 66 route seq-rec seq-play seq-reset seq-clear seq-trans-time
;
#X obj 317 86 hsl 128 15 0 1000 0 0 empty empty seq_transition_time
2 8 0 10 -262144 -1 -1 0 1;
#X obj 314 106 i;
#X obj 314 127 s \$0-seq-trans-time;
#X msg 56 236 valuesend \$1;
#X obj 56 257 s \$0-seq-messages;
#X connect 0 0 14 0;
#X connect 1 0 2 0;
#X connect 1 1 3 0;
#X connect 3 0 2 0;
#X connect 7 0 8 0;
#X connect 7 0 11 0;
#X connect 8 0 9 0;
#X connect 8 0 10 0;
#X connect 9 0 6 0;
#X connect 9 0 18 0;
#X connect 10 0 4 0;
#X connect 11 0 5 0;
#X connect 12 0 1 1;
#X connect 14 0 9 0;
#X connect 14 1 10 0;
#X connect 14 2 11 0;
#X connect 14 3 13 0;
#X connect 14 4 15 0;
#X connect 14 5 1 0;
#X connect 15 0 16 0;
#X connect 16 0 17 0;
#X connect 18 0 19 0;
#X restore 30 90 pd TEXT_SEQ____________;
#N canvas 286 80 450 211 TABLET_UI_UPDATE____ 0;
#X obj 39 58 r tab-1-update;
#X obj 39 80 route \$1;
#X obj 169 80 route \$1;
#X obj 299 80 route \$1;
#X obj 169 58 r tab-2-update;
#X obj 299 58 r tab-3-update;
#X obj 18 19 inlet;
#X obj 18 171 outlet;
#X obj 39 102 b;
#X obj 39 124 s \$0-param-update;
#X obj 169 102 b;
#X obj 169 124 s \$0-param-update;
#X obj 299 102 b;
#X obj 299 124 s \$0-param-update;
#X connect 0 0 1 0;
#X connect 1 0 8 0;
#X connect 2 0 10 0;
#X connect 3 0 12 0;
#X connect 4 0 2 0;
#X connect 5 0 3 0;
#X connect 6 0 7 0;
#X connect 8 0 9 0;
#X connect 10 0 11 0;
#X connect 12 0 13 0;
#X restore 30 112 pd TABLET_UI_UPDATE____;
#N canvas 874 429 506 327 OPERATORS___________ 0;
#X obj 49 15 inlet;
#X obj 49 295 outlet;
#X obj 62 114 r \$0-reset;
#N canvas 739 0 564 841 OPERATOR_1 0;
#X obj 39 8 inlet;
#X obj 144 613 s \$0-op1-pitch;
#N canvas 775 459 481 332 noteNameConverter 0;
#X obj 101 19 inlet;
#X obj 101 61 mod 12;
#X obj 101 242 symbol;
#X obj 101 294 outlet;
#X obj 101 105 t b f b;
#X msg 140 132 set;
#X msg 120 160 adddollar \$1;
#X msg 101 219 \$12;
#X obj 101 83 + 1;
#X msg 101 184 list C C#/Db D D#/Eb E F F#/Gb G G#/Ab A A#/Bb B;
#X obj 101 40 i;
#X connect 0 0 10 0;
#X connect 1 0 8 0;
#X connect 2 0 3 0;
#X connect 4 0 9 0;
#X connect 4 1 6 0;
#X connect 4 2 5 0;
#X connect 5 0 7 0;
#X connect 6 0 7 0;
#X connect 7 0 2 0;
#X connect 8 0 4 0;
#X connect 9 0 7 0;
#X connect 10 0 1 0;
#X restore 175 556 pd noteNameConverter;
#X obj 144 544 mtof;
#X obj 144 521 t f f;
#N canvas 213 14 719 864 operator-note-snap 0;
#X obj 139 680 + 0;
#X obj 51 7 inlet;
#X obj 51 726 outlet;
#X obj 139 725 outlet;
#X obj 154 658 r scale-root-note;
#X obj 51 548 specific.keyselector \$0;
#X obj 51 291 * 127;
#X obj 66 229 r pitch-gamut-length;
#X text 170 679 <- transposes the whole gamut of pitchs n steps;
#X text 114 269 <- "* 11": total number of octaves covered by the pitch
range;
#X text 97 297 <- total number of pitches covered by the 11 octave
pitch range;
#N canvas 994 146 446 732 GENERATOR_______ 0;
#X obj 125 331 r \$0-gen-direction;
#X obj 70 112 r \$0-gen-range;
#X obj 60 686 outlet;
#X obj 61 23 inlet;
#X obj 125 350 - 1;
#X obj 249 285 r \$0-gen-max;
#X obj 93 267 r \$0-gen-min;
#X obj 75 573 r \$0-gen-invert;
#X obj 75 594 sel 0 1;
#X msg 75 615 1;
#X msg 107 613 -1;
#X obj 60 643 * 1;
#X obj 169 25 inlet value_set;
#X msg 169 46 set \$1;
#X obj 61 546 flib.gen.drunk;
#X obj 80 135 r pitch-gamut-length;
#X obj 80 156 t b f;
#X obj 70 177 f;
#X obj 70 198 *;
#X obj 70 219 i;
#X obj 75 241 s \$0-gen-range-display;
#X obj 229 222 r \$0-gen-min-fixed;
#X obj 110 290 f;
#X obj 229 243 sel 0 1;
#X msg 229 264 1;
#X obj 122 311 s \$0-gen-min-display;
#X obj 142 442 f;
#X obj 197 413 r \$0-gen-repeat;
#X obj 167 442 + 1;
#X obj 142 463 mod 1;
#X obj 142 484 sel 0;
#X msg 142 505 0;
#X obj 142 526 t a;
#X msg 173 505 100;
#X obj 197 434 * 10;
#X obj 197 455 i;
#X obj 197 476 + 1;
#X obj 61 50 t b b;
#X connect 0 0 4 0;
#X connect 1 0 17 0;
#X connect 3 0 37 0;
#X connect 4 0 14 4;
#X connect 6 0 14 2;
#X connect 6 0 22 0;
#X connect 7 0 8 0;
#X connect 8 0 9 0;
#X connect 8 1 10 0;
#X connect 9 0 11 1;
#X connect 10 0 11 1;
#X connect 11 0 2 0;
#X connect 12 0 13 0;
#X connect 13 0 14 0;
#X connect 14 0 11 0;
#X connect 15 0 16 0;
#X connect 16 0 17 0;
#X connect 16 1 18 1;
#X connect 17 0 18 0;
#X connect 18 0 19 0;
#X connect 19 0 14 0;
#X connect 19 0 20 0;
#X connect 21 0 23 0;
#X connect 22 0 14 3;
#X connect 22 0 25 0;
#X connect 23 0 24 0;
#X connect 23 1 22 0;
#X connect 24 0 14 3;
#X connect 26 0 28 0;
#X connect 26 0 29 0;
#X connect 27 0 34 0;
#X connect 28 0 26 1;
#X connect 29 0 30 0;
#X connect 30 0 31 0;
#X connect 30 1 33 0;
#X connect 31 0 32 0;
#X connect 32 0 14 5;
#X connect 33 0 32 0;
#X connect 34 0 35 0;
#X connect 35 0 36 0;
#X connect 36 0 29 1;
#X connect 37 0 14 0;
#X connect 37 1 26 0;
#X restore 106 469 pd GENERATOR_______;
#X obj 51 496 +;
#X obj 62 517 s \$0-pitch~update;
#X obj 113 376 r \$0-pitch-update;
#X obj 63 337 r \$0-value-send;
#X text 187 511 <- send and store generated value for next iteration
of the cylce;
#X obj 258 450 specific.keyselector \$0;
#X obj 258 422 spigot;
#X obj 51 312 t f f;
#X obj 51 615 spigot;
#X msg 91 70 stop;
#X msg 122 111 0;
#X obj 291 399 == 0;
#X msg 81 112 1;
#X obj 81 133 t a;
#X obj 81 91 del 50;
#X obj 78 271 * 10;
#X obj 66 250 t b f;
#X obj 51 271 f;
#X obj 51 438 flib.util.floatint;
#X obj 156 398 r \$0-op1-freq-snap;
#X obj 156 418 == 0;
#X obj 63 358 t b b b;
#X obj 526 568 r \$0-op1-freq-snap;
#X obj 139 638 f;
#X obj 60 181 * 127;
#X obj 466 636 spigot;
#X obj 465 732 s \$0-clone-in;
#X obj 465 690 line 1 1;
#X msg 465 670 \$1 20;
#X obj 169 605 +;
#X obj 475 590 spigot;
#X floatatom 15 472 5 0 0 0 - - -;
#X floatatom 13 405 5 0 0 0 - - -;
#X obj 468 612 f;
#X msg 465 711 op1freq \$1;
#X obj 455 766 outlet;
#X obj 95 6 inlet;
#X obj 140 7 inlet;
#X obj 51 155 f;
#X connect 0 0 3 0;
#X connect 1 0 50 0;
#X connect 4 0 0 1;
#X connect 5 0 20 0;
#X connect 5 0 35 1;
#X connect 6 0 19 0;
#X connect 7 0 28 0;
#X connect 11 0 12 1;
#X connect 11 0 41 1;
#X connect 12 0 5 0;
#X connect 12 0 13 0;
#X connect 14 0 30 1;
#X connect 15 0 33 0;
#X connect 17 0 2 0;
#X connect 18 0 17 0;
#X connect 19 0 30 0;
#X connect 19 0 44 0;
#X connect 19 1 18 0;
#X connect 20 0 2 0;
#X connect 21 0 26 0;
#X connect 22 0 25 0;
#X connect 23 0 18 1;
#X connect 24 0 25 0;
#X connect 25 0 23 0;
#X connect 25 0 20 1;
#X connect 26 0 24 0;
#X connect 27 0 6 1;
#X connect 28 0 29 0;
#X connect 28 1 27 0;
#X connect 29 0 6 0;
#X connect 30 0 12 0;
#X connect 30 0 43 0;
#X connect 31 0 32 0;
#X connect 32 0 30 2;
#X connect 33 0 35 0;
#X connect 33 0 42 0;
#X connect 33 1 30 0;
#X connect 33 2 11 0;
#X connect 34 0 37 1;
#X connect 34 0 42 1;
#X connect 35 0 0 0;
#X connect 36 0 45 0;
#X connect 37 0 40 0;
#X connect 39 0 46 0;
#X connect 39 0 47 0;
#X connect 40 0 39 0;
#X connect 41 0 35 0;
#X connect 42 0 45 0;
#X connect 45 0 37 0;
#X connect 45 0 41 0;
#X connect 46 0 38 0;
#X connect 48 0 26 0;
#X connect 49 0 21 0;
#X connect 49 0 22 0;
#X connect 50 0 36 0;
#X connect 50 0 29 0;
#X restore 144 421 pd operator-note-snap;
#X obj 414 810 outlet;
#X obj 144 589 pack f s \$1;
#X obj 109 497 r \$0-param-update;
#X obj 39 328 flib.util.xyunpack;
#X obj 126 232 flib.util.xyunpack;
#X obj 253 195 s \$0-op1-freq-snap;
#X obj 144 566 i;
#X obj 39 50 route op1-freq-waveshape op1-slide-range-time op1-freq-snap
waveshape-trigger;
#X obj 39 684 s \$0-waveshape;
#X obj 262 175 v \$0-op1-freq-snap;
#X obj 253 134 flib.seq.automater \$0 \$0-op1-freq-snap 0;
#X obj 205 451 mtof;
#X obj 267 442 mtof;
#X obj 144 398 t f b b;
#X obj 144 358 flib.seq.automater \$0 \$0-op1-freq 0;
#X obj 242 476 oscformat fynth op1freq0;
#X obj 39 655 specific.oscformat \$0 waveshape \$1 w;
#X obj 126 293 specific.oscformat \$0 op1slidetime \$1 o1st;
#X obj 231 253 specific.oscformat \$0 op1sliderange \$1 o1sr;
#X obj 242 497 s \$0-OSC-collect;
#X connect 0 0 13 0;
#X connect 2 0 7 1;
#X connect 3 0 12 0;
#X connect 4 0 3 0;
#X connect 4 1 2 0;
#X connect 5 0 4 0;
#X connect 5 1 17 0;
#X connect 5 2 18 0;
#X connect 7 0 1 0;
#X connect 8 0 7 0;
#X connect 9 0 22 0;
#X connect 9 1 20 0;
#X connect 10 0 23 0;
#X connect 10 1 24 0;
#X connect 12 0 7 0;
#X connect 13 0 9 0;
#X connect 13 1 10 0;
#X connect 13 2 16 0;
#X connect 13 3 16 0;
#X connect 13 4 6 0;
#X connect 16 0 11 0;
#X connect 16 0 15 0;
#X connect 17 0 21 0;
#X connect 18 0 21 0;
#X connect 19 0 5 0;
#X connect 19 1 5 1;
#X connect 19 2 5 2;
#X connect 20 0 19 0;
#X connect 21 0 25 0;
#X connect 22 0 14 0;
#X restore 49 171 pd OPERATOR_1;
#N canvas 1031 55 444 588 OPERATOR_2 0;
#X obj 48 27 inlet;
#X obj 331 532 outlet;
#X obj 48 222 flib.util.xyunpack;
#X obj 48 318 s \$0-op2-depth;
#X obj 153 268 s \$0-op2-freq;
#X obj 48 68 route op2-freq-depth op2-trigger;
#X obj 142 103 flib.seq.automater \$0 \$0-op2-trig;
#X obj 48 299 specific.oscformat \$0 op2depth \$1 op2d;
#X obj 142 165 s \$0-op2d-trig;
#X obj 162 144 s \$0-op2f-trig;
#X obj 153 248 specific.oscformat \$0 op2freq \$1 op2f;
#X connect 0 0 5 0;
#X connect 2 0 7 0;
#X connect 2 1 10 0;
#X connect 5 0 2 0;
#X connect 5 1 6 0;
#X connect 5 2 1 0;
#X connect 6 0 8 0;
#X connect 6 0 9 0;
#X connect 7 0 3 0;
#X connect 10 0 4 0;
#X restore 49 193 pd OPERATOR_2;
#N canvas 850 304 448 541 NOISE_____ 0;
#X obj 273 506 outlet;
#X obj 53 25 inlet;
#X obj 53 80 route noise-filterfreq-amount;
#X obj 53 111 flib.util.xyunpack;
#X obj 60 284 r master-noise;
#X obj 60 305 t b f;
#X obj 173 133 r master-noise;
#X obj 158 216 clip 0 1;
#X obj 173 154 t b f;
#X obj 158 175 f;
#X obj 53 325 f;
#X obj 158 195 +;
#X obj 53 345 +;
#X obj 53 409 s \$0-noise;
#X obj 53 387 specific.oscformat \$0 noise \$1 n;
#X obj 158 238 specific.oscformat \$0 noisefilterfreq \$1 nf;
#X obj 53 366 clip 0 1;
#X connect 1 0 2 0;
#X connect 2 0 3 0;
#X connect 2 1 0 0;
#X connect 3 0 10 0;
#X connect 3 1 9 0;
#X connect 4 0 5 0;
#X connect 5 0 10 0;
#X connect 5 1 12 1;
#X connect 6 0 8 0;
#X connect 7 0 15 0;
#X connect 8 0 9 0;
#X connect 8 1 11 1;
#X connect 9 0 11 0;
#X connect 10 0 12 0;
#X connect 11 0 7 0;
#X connect 12 0 16 0;
#X connect 14 0 13 0;
#X connect 16 0 14 0;
#X restore 49 215 pd NOISE_____;
#X msg 62 136 op1-freq-snap 0 \, op2-freq-trigger 0 \, op2-depth-trigger
0;
#X connect 0 0 3 0;
#X connect 2 0 6 0;
#X connect 3 0 4 0;
#X connect 4 0 5 0;
#X connect 5 0 1 0;
#X connect 6 0 3 0;
#X restore 30 154 pd OPERATORS___________;
#N canvas 6 0 1403 878 SEQUENCER___________ 0;
#X obj 43 19 inlet;
#N canvas 641 294 331 417 lister 0;
#X obj 45 163 list split 1;
#X obj 45 110 until;
#X obj 45 136 list append;
#X obj 136 186 bang;
#X obj 45 28 inlet;
#X obj 46 375 outlet;
#X obj 45 87 t b a b;
#X obj 95 262 list;
#X obj 45 236 list append;
#X obj 46 298 list;
#X msg 46 322 \$3 \$2 \$1;
#X obj 45 185 flib.util.s2f;
#X connect 0 0 11 0;
#X connect 0 1 2 1;
#X connect 0 2 3 0;
#X connect 1 0 2 0;
#X connect 2 0 0 0;
#X connect 3 0 1 1;
#X connect 3 0 9 0;
#X connect 4 0 6 0;
#X connect 6 0 1 0;
#X connect 6 1 2 1;
#X connect 6 2 8 1;
#X connect 7 0 8 1;
#X connect 8 0 7 0;
#X connect 8 0 9 1;
#X connect 9 0 10 0;
#X connect 10 0 5 0;
#X connect 11 0 8 0;
#X restore 238 91 pd lister;
#N canvas 645 274 331 417 lister-no-0 0;
#X obj 45 163 list split 1;
#X obj 45 110 until;
#X obj 45 136 list append;
#X obj 136 186 bang;
#X obj 45 28 inlet;
#X obj 46 375 outlet;
#X obj 45 87 t b a b;
#X obj 95 262 list;
#X obj 45 236 list append;
#X obj 46 298 list;
#X obj 46 320 route 1;
#X msg 46 342 \$2 \$1 1;
#X obj 45 185 flib.util.s2f;
#X connect 0 0 12 0;
#X connect 0 1 2 1;
#X connect 0 2 3 0;
#X connect 1 0 2 0;
#X connect 2 0 0 0;
#X connect 3 0 1 1;
#X connect 3 0 9 0;
#X connect 4 0 6 0;
#X connect 6 0 1 0;
#X connect 6 1 2 1;
#X connect 6 2 8 1;
#X connect 7 0 8 1;
#X connect 8 0 7 0;
#X connect 8 0 9 1;
#X connect 9 0 10 0;
#X connect 10 0 11 0;
#X connect 11 0 5 0;
#X connect 12 0 8 0;
#X restore 42 668 pd lister-no-0;
#N canvas 645 274 331 417 lister-no-0 0;
#X obj 45 163 list split 1;
#X obj 45 110 until;
#X obj 45 136 list append;
#X obj 136 186 bang;
#X obj 45 28 inlet;
#X obj 46 375 outlet;
#X obj 45 87 t b a b;
#X obj 95 262 list;
#X obj 45 236 list append;
#X obj 46 298 list;
#X obj 46 320 route 1;
#X msg 46 342 \$2 \$1 1;
#X obj 45 185 flib.util.s2f;
#X connect 0 0 12 0;
#X connect 0 1 2 1;
#X connect 0 2 3 0;
#X connect 1 0 2 0;
#X connect 2 0 0 0;
#X connect 3 0 1 1;
#X connect 3 0 9 0;
#X connect 4 0 6 0;
#X connect 6 0 1 0;
#X connect 6 1 2 1;
#X connect 6 2 8 1;
#X connect 7 0 8 1;
#X connect 8 0 7 0;
#X connect 8 0 9 1;
#X connect 9 0 10 0;
#X connect 10 0 11 0;
#X connect 11 0 5 0;
#X connect 12 0 8 0;
#X restore 107 363 pd lister-no-0;
#N canvas 646 269 331 417 lister-no-0 0;
#X obj 45 163 list split 1;
#X obj 45 110 until;
#X obj 45 136 list append;
#X obj 128 186 bang;
#X obj 45 28 inlet;
#X obj 46 375 outlet;
#X obj 45 87 t b a b;
#X obj 95 262 list;
#X obj 45 236 list append;
#X obj 46 298 list;
#X obj 46 320 route 1;
#X msg 46 342 \$2 \$1 1;
#X obj 45 185 flib.util.s2f;
#X connect 0 0 12 0;
#X connect 0 1 2 1;
#X connect 0 2 3 0;
#X connect 1 0 2 0;
#X connect 2 0 0 0;
#X connect 3 0 1 1;
#X connect 3 0 9 0;
#X connect 4 0 6 0;
#X connect 6 0 1 0;
#X connect 6 1 2 1;
#X connect 6 2 8 1;
#X connect 7 0 8 1;
#X connect 8 0 7 0;
#X connect 8 0 9 1;
#X connect 9 0 10 0;
#X connect 10 0 11 0;
#X connect 11 0 5 0;
#X connect 12 0 8 0;
#X restore 172 218 pd lister-no-0;
#X msg 107 407 \$1;
#X msg 172 262 \$1;
#X obj 107 546 t b f;
#X msg 42 712 \$1;
#X obj 43 51 route seq-time-base seq-length-x seq-length-y sequencer
seq-on;
#X obj 472 162 s \$0-seq-on;
#X obj 605 428 s \$0-seq-random-add;
#X obj 707 335 s \$0-seq-random-drop;
#X obj 602 270 s \$0-seq-random-vel;
#X obj 855 198 s \$0-seq-swing;
#X obj 1222 880 outlet;
#X obj 247 113 s \$0-sequencer-gui;
#X obj 107 565 f 1;
#X msg 107 504 8 \$1;
#X obj 107 526 -;
#X obj 107 587 -;
#X obj 1072 38 r \$0-reset;
#X obj 107 609 i;
#X obj 448 454 route seq-delay seq-warp;
#X obj 639 520 s \$0-seq-warp;
#X obj 448 599 pow 2.7;
#X obj 448 620 * 100;
#X obj 729 439 route async;
#X obj 107 385 specific.gridunpack 8 1;
#X obj 172 240 specific.gridunpack 1 8;
#X obj 238 135 specific.gridunpack 8 8;
#X obj 42 690 specific.gridunpack 5 1;
#N canvas 645 274 331 417 lister-no-0 0;
#X obj 45 163 list split 1;
#X obj 45 110 until;
#X obj 45 136 list append;
#X obj 136 186 bang;
#X obj 45 28 inlet;
#X obj 46 375 outlet;
#X obj 45 87 t b a b;
#X obj 95 262 list;
#X obj 45 236 list append;
#X obj 46 298 list;
#X obj 46 320 route 1;
#X msg 46 342 \$2 \$1 1;
#X obj 45 185 flib.util.s2f;
#X connect 0 0 12 0;
#X connect 0 1 2 1;
#X connect 0 2 3 0;
#X connect 1 0 2 0;
#X connect 2 0 0 0;
#X connect 3 0 1 1;
#X connect 3 0 9 0;
#X connect 4 0 6 0;
#X connect 6 0 1 0;
#X connect 6 1 2 1;
#X connect 6 2 8 1;
#X connect 7 0 8 1;
#X connect 8 0 7 0;
#X connect 8 0 9 1;
#X connect 9 0 10 0;
#X connect 10 0 11 0;
#X connect 11 0 5 0;
#X connect 12 0 8 0;
#X restore 963 611 pd lister-no-0;
#X msg 963 655 \$1;
#X obj 963 633 specific.gridunpack 5 1;
#N canvas 0 22 450 300 MAPPING____ 0;
#X obj 22 20 inlet;
#X obj 22 61 sel 1 2 3 4 5;
#X msg 22 192 8;
#X obj 112 243 t a;
#X obj 112 264 outlet;
#X msg 39 165 7;
#X msg 55 146 6;
#X msg 73 124 5;
#X msg 99 109 4;
#X obj 22 41 i;
#X connect 0 0 9 0;
#X connect 1 0 2 0;
#X connect 1 1 5 0;
#X connect 1 2 6 0;
#X connect 1 3 7 0;
#X connect 1 4 8 0;
#X connect 2 0 3 0;
#X connect 3 0 4 0;
#X connect 5 0 3 0;
#X connect 6 0 3 0;
#X connect 7 0 3 0;
#X connect 8 0 3 0;
#X connect 9 0 1 0;
#X restore 42 816 pd MAPPING____;
#X obj 481 40 route seq-random-add seq-random-drop seq-random-vel seq-swing
seq-inv;
#X obj 843 120 s \$0-seq-inv;
#X obj 42 840 f;
#X obj 963 459 route seq-time-base-multiplier seq-trigger;
#X obj 1087 607 s \$0-seq-trigger;
#X obj 1087 567 change;
#X obj 723 71 flib.seq.automater \$0 \$0-seq-inv;
#X obj 662 151 flib.seq.automater \$0 \$0-seq-swing;
#X obj 602 233 flib.seq.automater \$0 \$0-seq-random-vel;
#X obj 541 291 flib.seq.automater \$0 \$0-seq-random-drop;
#X obj 518 475 flib.seq.automater \$0 \$0-seq-warp;
#X obj 448 558 flib.seq.automater \$0 \$0-seq-delay;
#X obj 729 465 flib.seq.automater \$0 \$0-async;
#X obj 1121 159 flib.seq.automater \$0 \$0-seq-euclid-steps;
#X obj 1045 241 flib.seq.automater \$0 \$0-seq-euclid-offset;
#X obj 970 324 flib.seq.automater \$0 \$0-seq-euclid;
#X msg 42 861 timebase \$1;
#X obj 42 882 s \$0-seq-messages;
#X msg 107 629 seqlength \$1;
#X obj 107 650 s \$0-seq-messages;
#X obj 392 182 s \$0-seq-messages;
#X obj 238 178 s \$0-seq-messages;
#X msg 481 411 randomadd \$1;
#X obj 481 432 s \$0-seq-messages;
#X msg 541 330 randomdrop \$1;
#X obj 541 351 s \$0-seq-messages;
#X msg 662 192 swing \$1;
#X obj 662 213 s \$0-seq-messages;
#X msg 723 109 seqinvert \$1;
#X obj 723 130 s \$0-seq-messages;
#X msg 448 641 delay \$1;
#X obj 448 662 s \$0-seq-messages;
#X msg 518 516 warp \$1;
#X obj 518 537 s \$0-seq-messages;
#X msg 729 506 beatsync \$1;
#X obj 729 527 s \$0-seq-messages;
#X msg 970 365 euclid \$1;
#X obj 970 386 s \$0-seq-messages;
#X msg 1045 282 euclidoffset \$1;
#X obj 1045 303 s \$0-seq-messages;
#X msg 1121 200 euclidsteps \$1;
#X obj 1121 221 s \$0-seq-messages;
#X obj 970 138 route seq-euclid seq-euclid-offset seq-euclid-steps
;
#X msg 963 798 timebasemultiplier \$1;
#X obj 963 819 s \$0-seq-messages;
#X msg 1072 60 reset bang;
#X obj 1072 81 s \$0-seq-messages;
#X obj 107 426 / 8;
#X obj 107 482 * 8;
#X obj 172 283 / 8;
#X obj 172 342 * 64;
#X obj 42 733 / 5;
#X obj 42 795 * 5;
#X obj 963 676 / 5;
#X obj 963 778 i;
#X floatatom 67 840 5 0 0 0 - - -;
#X msg 238 157 seqwrite \$1 \$2;
#X obj 1087 587 sel 0;
#X obj 1087 488 flib.seq.automater \$0 \$0-seq-trigger 0 1;
#X obj 1087 547 spigot;
#X obj 1120 527 r \$0-seq-on;
#X obj 398 96 tgl 15 0 empty empty empty 17 7 0 10 -262144 -1 -1 0
1;
#X msg 392 161 seqon \$1;
#X obj 42 754 flib.seq.automater \$0 \$0-seq-time-base 0;
#X obj 107 445 flib.seq.automater \$0 \$0-seq-length-x 1 1;
#X obj 173 304 flib.seq.automater \$0 \$0-seq-length-y 1 1;
#X obj 481 372 flib.seq.automater \$0 \$0-seq-random-add 0 0;
#X obj 963 699 flib.seq.automater \$0 \$0-seq-time-base-multiplier
0 0;
#X obj 963 758 + 1;
#X obj 963 737 * 4;
#X obj 392 118 flib.seq.automater \$0 \$0-seq-on 0 0;
#X floatatom 137 587 5 0 0 0 - - -;
#X connect 0 0 9 0;
#X connect 1 0 16 0;
#X connect 1 0 30 0;
#X connect 2 0 31 0;
#X connect 3 0 28 0;
#X connect 4 0 29 0;
#X connect 5 0 83 0;
#X connect 6 0 85 0;
#X connect 7 0 17 0;
#X connect 7 1 20 1;
#X connect 8 0 87 0;
#X connect 9 0 2 0;
#X connect 9 1 3 0;
#X connect 9 2 4 0;
#X connect 9 3 1 0;
#X connect 9 4 106 0;
#X connect 9 5 36 0;
#X connect 17 0 20 0;
#X connect 18 0 19 0;
#X connect 19 0 7 0;
#X connect 20 0 22 0;
#X connect 21 0 81 0;
#X connect 22 0 54 0;
#X connect 23 0 47 0;
#X connect 23 1 46 0;
#X connect 23 2 27 0;
#X connect 25 0 26 0;
#X connect 26 0 66 0;
#X connect 27 0 48 0;
#X connect 27 1 78 0;
#X connect 28 0 5 0;
#X connect 29 0 6 0;
#X connect 30 0 92 0;
#X connect 31 0 8 0;
#X connect 32 0 34 0;
#X connect 33 0 89 0;
#X connect 34 0 33 0;
#X connect 35 0 38 0;
#X connect 35 0 91 0;
#X connect 36 0 102 0;
#X connect 36 1 45 0;
#X connect 36 2 44 0;
#X connect 36 3 43 0;
#X connect 36 4 42 0;
#X connect 36 5 23 0;
#X connect 38 0 52 0;
#X connect 39 0 32 0;
#X connect 39 1 94 0;
#X connect 39 2 15 0;
#X connect 41 0 93 0;
#X connect 42 0 64 0;
#X connect 43 0 62 0;
#X connect 44 0 13 0;
#X connect 45 0 60 0;
#X connect 46 0 68 0;
#X connect 47 0 25 0;
#X connect 48 0 70 0;
#X connect 49 0 76 0;
#X connect 50 0 74 0;
#X connect 51 0 72 0;
#X connect 52 0 53 0;
#X connect 54 0 55 0;
#X connect 58 0 59 0;
#X connect 60 0 61 0;
#X connect 62 0 63 0;
#X connect 64 0 65 0;
#X connect 66 0 67 0;
#X connect 68 0 69 0;
#X connect 70 0 71 0;
#X connect 72 0 73 0;
#X connect 74 0 75 0;
#X connect 76 0 77 0;
#X connect 78 0 51 0;
#X connect 78 1 50 0;
#X connect 78 2 49 0;
#X connect 78 3 39 0;
#X connect 79 0 80 0;
#X connect 81 0 82 0;
#X connect 83 0 100 0;
#X connect 84 0 18 0;
#X connect 85 0 101 0;
#X connect 86 0 17 0;
#X connect 87 0 99 0;
#X connect 88 0 35 0;
#X connect 89 0 103 0;
#X connect 90 0 79 0;
#X connect 92 0 57 0;
#X connect 93 1 40 0;
#X connect 94 0 95 0;
#X connect 95 0 41 0;
#X connect 96 0 95 1;
#X connect 97 0 106 0;
#X connect 98 0 56 0;
#X connect 99 0 88 0;
#X connect 100 0 84 0;
#X connect 101 0 86 0;
#X connect 102 0 58 0;
#X connect 103 0 105 0;
#X connect 104 0 90 0;
#X connect 105 0 104 0;
#X connect 106 0 98 0;
#X connect 107 0 22 0;
#X restore 30 176 pd SEQUENCER___________;
#N canvas 208 7 570 804 GENERATIVE__________ 0;
#X obj 37 3 inlet;
#X obj 37 773 s \$0-gen-range;
#X obj 497 782 outlet;
#N canvas 645 274 331 417 lister-no-0 0;
#X obj 45 163 list split 1;
#X obj 45 110 until;
#X obj 45 136 list append;
#X obj 136 186 bang;
#X obj 45 28 inlet;
#X obj 46 375 outlet;
#X obj 45 87 t b a b;
#X obj 95 262 list;
#X obj 45 236 list append;
#X obj 46 298 list;
#X obj 46 320 route 1;
#X msg 46 342 \$2 \$1 1;
#X obj 45 185 flib.util.s2f;
#X connect 0 0 12 0;
#X connect 0 1 2 1;
#X connect 0 2 3 0;
#X connect 1 0 2 0;
#X connect 2 0 0 0;
#X connect 3 0 1 1;
#X connect 3 0 9 0;
#X connect 4 0 6 0;
#X connect 6 0 1 0;
#X connect 6 1 2 1;
#X connect 6 2 8 1;
#X connect 7 0 8 1;
#X connect 8 0 7 0;
#X connect 8 0 9 1;
#X connect 9 0 10 0;
#X connect 10 0 11 0;
#X connect 11 0 5 0;
#X connect 12 0 8 0;
#X restore 222 206 pd lister-no-0;
#X obj 259 182 s \$0-gen-on-off;
#X msg 222 245 \$1;
#X obj 111 634 i;
#X obj 148 554 i;
#X obj 185 454 s \$0-gen-repeat;
#X obj 185 432 f;
#X obj 222 344 i;
#X obj 222 366 s \$0-gen-direction;
#X obj 300 116 s \$0-gen-invert;
#X obj 37 715 pow 1.5;
#X obj 222 226 specific.gridunpack 4 1;
#X obj 37 753 f;
#X obj 37 734 * 3;
#X obj 37 35 route gen-range gen-range-16 gen-min-fixed gen-min gen-repeat
gen-direction gen-on-off gen-invert;
#X obj 148 576 s \$0-gen-min;
#X obj 111 656 s \$0-gen-min-fixed;
#X obj 148 534 + 1;
#X obj 148 513 * 7;
#X obj 37 676 flib.seq.automater \$0 \$0-gen-range 0;
#X obj 185 392 flib.seq.automater \$0 \$0-gen-repeat 0;
#X obj 259 140 flib.seq.automater \$0 \$0-gen-on-off 0;
#X obj 300 75 flib.seq.automater \$0 \$0-gen-invert;
#X obj 222 267 / 4;
#X obj 222 326 * 4;
#X obj 222 287 flib.seq.automater \$0 \$0-gen-direction 0;
#X obj 111 594 flib.seq.automater \$0 \$0-gen-min-fixed 0;
#X obj 148 475 flib.seq.automater \$0 \$0-gen-min 0;
#X connect 0 0 17 0;
#X connect 3 0 14 0;
#X connect 5 0 26 0;
#X connect 6 0 19 0;
#X connect 7 0 18 0;
#X connect 9 0 8 0;
#X connect 10 0 11 0;
#X connect 13 0 16 0;
#X connect 14 0 5 0;
#X connect 15 0 1 0;
#X connect 16 0 15 0;
#X connect 17 0 22 0;
#X connect 17 2 29 0;
#X connect 17 3 30 0;
#X connect 17 4 23 0;
#X connect 17 5 3 0;
#X connect 17 6 24 0;
#X connect 17 7 25 0;
#X connect 17 8 2 0;
#X connect 20 0 7 0;
#X connect 21 0 20 0;
#X connect 22 0 13 0;
#X connect 23 0 9 0;
#X connect 24 0 4 0;
#X connect 25 0 12 0;
#X connect 26 0 28 0;
#X connect 27 0 10 0;
#X connect 28 0 27 0;
#X connect 29 0 6 0;
#X connect 30 0 21 0;
#X restore 30 199 pd GENERATIVE__________;
#N canvas 5 224 1409 599 AM_ADSR_AUDIO_OUT___ 0;
#X obj 7 7 inlet;
#X obj 1287 158 s \$0-reset;
#X obj 681 41 route sidechain-in env-side sidechain-release sidechain-depth
;
#X obj 1185 285 s \$0-master-amp;
#X obj 1237 236 s \$0-audition;
#X obj 1042 440 s \$0-reverb;
#X obj 1075 377 s \$0-fx;
#X obj 1281 189 r \$0-reset;
#X msg 1281 211 0;
#N canvas 645 274 331 417 lister-no-0 0;
#X obj 45 163 list split 1;
#X obj 45 110 until;
#X obj 45 136 list append;
#X obj 136 186 bang;
#X obj 45 28 inlet;
#X obj 46 375 outlet;
#X obj 45 87 t b a b;
#X obj 95 262 list;
#X obj 45 236 list append;
#X obj 46 298 list;
#X obj 46 320 route 1;
#X msg 46 342 \$2 \$1 1;
#X obj 45 185 flib.util.s2f;
#X connect 0 0 12 0;
#X connect 0 1 2 1;
#X connect 0 2 3 0;
#X connect 1 0 2 0;
#X connect 2 0 0 0;
#X connect 3 0 1 1;
#X connect 3 0 9 0;
#X connect 4 0 6 0;
#X connect 6 0 1 0;
#X connect 6 1 2 1;
#X connect 6 2 8 1;
#X connect 7 0 8 1;
#X connect 8 0 7 0;
#X connect 8 0 9 1;
#X connect 9 0 10 0;
#X connect 10 0 11 0;
#X connect 11 0 5 0;
#X connect 12 0 8 0;
#X restore 681 145 pd lister-no-0;
#X msg 681 189 \$1;
#N canvas 294 26 401 708 FADE_OUT___ 0;
#X obj 93 79 == 0;
#X obj 40 103 spigot 1;
#X obj 93 57 r evolution-active;
#X obj 40 421 line 0 5;
#X obj 65 475 f;
#X obj 65 450 r master-throttle;
#X obj 65 497 change;
#X text 192 530 <- send to touchosc GUI;
#X obj 40 33 inlet;
#X obj 40 583 outlet;
#X obj 65 525 s \$0-master-gui;
#X obj 40 68 t f f;
#X obj 202 330 r evolution-time;
#X msg 107 380 \$2 \$3;
#X obj 154 199 t f f;
#X obj 107 280 spigot 0;
#X msg 84 196 0;
#X obj 84 174 sel 1 0;
#X obj 186 223 change;
#X msg 186 245 1;
#X obj 84 152 r evolution-active;
#X obj 107 353 pack f f 16000;
#X obj 107 304 t b;
#X connect 0 0 1 1;
#X connect 1 0 3 0;
#X connect 2 0 0 0;
#X connect 3 0 4 1;
#X connect 3 0 9 0;
#X connect 4 0 6 0;
#X connect 5 0 4 0;
#X connect 6 0 10 0;
#X connect 8 0 11 0;
#X connect 11 0 1 0;
#X connect 11 1 14 0;
#X connect 12 0 21 2;
#X connect 13 0 3 0;
#X connect 14 0 21 1;
#X connect 14 1 18 0;
#X connect 15 0 22 0;
#X connect 16 0 15 1;
#X connect 17 0 16 0;
#X connect 17 1 15 0;
#X connect 18 0 19 0;
#X connect 19 0 15 1;
#X connect 20 0 17 0;
#X connect 21 0 13 0;
#X connect 22 0 21 0;
#X restore 1185 260 pd FADE_OUT___;
#X obj 371 50 route a d s r monophonic;
#X obj 1237 209 change;
#X obj 7 201 flib.util.xyunpack;
#X obj 681 167 specific.gridunpack 10 1;
#X floatatom 1284 263 5 0 1 0 - - -;
#X obj 1031 504 s voice-param;
#X obj 1031 461 pack f \$1;
#X msg 1031 483 reverb \$2 \$1;
#X obj 102 128 flib.seq.automater \$0 \$0-freq-shift;
#X obj 681 229 flib.seq.automater \$0 \$0-sidechain-in;
#X obj 1031 400 flib.seq.automater \$0 \$0-reverb 0;
#X obj 1075 337 flib.seq.automater \$0 \$0-fx 0;
#X obj 681 210 / 8;
#X obj 681 310 s \$0-sidechain-in;
#X obj 681 269 * 8;
#X obj 1288 71 t b b b;
#X msg 1327 93 stop;
#X obj 1307 119 s \$0-reset-safe;
#X obj 1288 139 del 5;
#X msg 1197 238 0 5;
#X obj 102 168 s \$0-freq-shift;
#X obj 1317 214 tgl 15 0 empty empty empty 17 7 0 10 -262144 -1 -1
0 1;
#X obj 681 290 i;
#X obj 7 59 route am-freq-depth freq-shift saturation-amount;
#X obj 67 233 specific.oscformat \$0 amfreq \$1 amf;
#X obj 7 257 specific.oscformat \$0 amd \$1 amd;
#X obj 126 94 specific.oscformat \$0 saturation \$1 sat;
#X obj 371 179 specific.oscformat \$0 attack \$1 a;
#X obj 399 152 specific.oscformat \$0 decay \$1 d;
#X obj 427 125 specific.oscformat \$0 sustain \$1 s;
#X obj 455 101 specific.oscformat \$0 release \$1 r;
#X obj 483 77 specific.oscformat \$0 monophonic \$1 m;
#X obj 747 125 specific.oscformat \$0 envelopeside \$1 es;
#X obj 814 103 specific.oscformat \$0 enverloperelease \$1 er;
#X obj 881 80 specific.oscformat \$0 envelopedeoth \$1 ed;
#X obj 1031 42 route reverb fx panning master audition reset;
#X obj 1120 308 specific.oscformat \$0 panning \$1 p;
#X floatatom 559 20 5 0 0 0 - - -;
#X connect 0 0 35 0;
#X connect 2 0 9 0;
#X connect 2 1 44 0;
#X connect 2 2 45 0;
#X connect 2 3 46 0;
#X connect 2 4 47 0;
#X connect 7 0 8 0;
#X connect 8 0 4 0;
#X connect 9 0 15 0;
#X connect 10 0 24 0;
#X connect 11 0 3 0;
#X connect 12 0 39 0;
#X connect 12 1 40 0;
#X connect 12 2 41 0;
#X connect 12 3 42 0;
#X connect 12 4 43 0;
#X connect 12 5 2 0;
#X connect 13 0 4 0;
#X connect 14 0 37 0;
#X connect 14 1 36 0;
#X connect 15 0 10 0;
#X connect 16 0 3 0;
#X connect 18 0 19 0;
#X connect 19 0 17 0;
#X connect 20 0 32 0;
#X connect 21 0 26 0;
#X connect 22 0 5 0;
#X connect 22 0 18 0;
#X connect 23 0 6 0;
#X connect 24 0 21 0;
#X connect 26 0 34 0;
#X connect 27 0 30 0;
#X connect 27 1 29 0;
#X connect 27 1 31 0;
#X connect 27 2 28 0;
#X connect 28 0 30 0;
#X connect 30 0 1 0;
#X connect 31 0 11 0;
#X connect 33 0 4 0;
#X connect 34 0 25 0;
#X connect 35 0 14 0;
#X connect 35 1 20 0;
#X connect 35 2 38 0;
#X connect 35 3 12 0;
#X connect 47 0 22 0;
#X connect 47 1 23 0;
#X connect 47 2 48 0;
#X connect 47 3 11 0;
#X connect 47 4 13 0;
#X connect 47 5 27 0;
#X connect 49 0 42 0;
#X restore 30 221 pd AM_ADSR_AUDIO_OUT___;
#X connect 0 0 1 0;
#X connect 1 0 5 0;
#X connect 4 0 7 0;
#X connect 5 0 6 0;
#X connect 6 0 4 0;
#X connect 7 0 8 0;
#X connect 8 0 9 0;
#X connect 9 0 10 0;
#X restore 37 92 pd MESSAGE_IN_ROUTING____;
#N canvas 944 637 482 272 OSC+MIDI_OUT_ROUTING__ 0;
#X obj 53 15 inlet;
#N canvas 182 430 1258 439 AMP_PAN_FX_REV_SIDECHAIN__ 0;
#X obj 29 16 inlet;
#X obj 27 388 outlet;
#X obj 800 86 r \$0-audition;
#X obj 1041 96 r \$0-fade-out-gui;
#X obj 444 109 r \$0-fx-gui;
#X obj 604 109 r \$0-reverb-gui;
#X obj 1050 198 r sampler-fx;
#X obj 1050 244 spigot 0;
#X obj 1103 219 r \$0-sampler-play;
#X obj 1050 276 sel 0;
#X msg 1050 298 0;
#X msg 1082 297 bang;
#X obj 23 209 r \$0-sidechain-in-gui;
#X obj 254 233 r \$0-sidechain-env-side-gui;
#X obj 524 233 r \$0-sidechain-release-gui;
#X msg 23 231 1 \$1 1;
#X obj 784 233 r \$0-sidechain-depth-gui;
#X obj 24 109 r \$0-master-gui;
#N canvas 291 37 274 605 AMBISONIC_ENCODER______ 0;
#X obj 27 485 list prepend send;
#X obj 27 507 list trim;
#X obj 27 464 oscformat ambi_enc_set;
#X obj 27 143 unpack f f;
#X obj 27 195 f;
#X obj 27 217 atan2;
#X obj 61 167 t b f;
#X obj 27 239 * 180;
#X obj 27 261 / 3.14159;
#X obj 129 301 -;
#X msg 129 279 180 \$1;
#X obj 129 146 unpack f f;
#X obj 129 168 abs;
#X obj 177 168 abs;
#X obj 177 190 pow 2;
#X obj 129 190 pow 2;
#X obj 129 212 +;
#X obj 129 234 sqrt;
#X obj 129 258 min 180;
#X obj 129 321 * 0.5;
#X obj 27 420 pack f f f;
#X obj 129 363 min 1;
#X obj 129 341 / 75;
#X obj 129 385 pow 2;
#X msg 27 441 1 0 \$1 \$2 \$3;
#X obj 27 25 inlet;
#X obj 27 47 unpack f f;
#X obj 27 69 * 360;
#X obj 27 91 - 180;
#X obj 80 69 * 360;
#X obj 80 91 - 180;
#X obj 27 113 pack f f;
#X obj 27 529 s to-ambisonic-encoder-\$1;
#X connect 0 0 1 0;
#X connect 1 0 32 0;
#X connect 2 0 0 0;
#X connect 3 0 4 0;
#X connect 3 1 6 0;
#X connect 4 0 5 0;
#X connect 5 0 7 0;
#X connect 6 0 4 0;
#X connect 6 1 5 1;
#X connect 7 0 8 0;
#X connect 8 0 20 0;
#X connect 9 0 19 0;
#X connect 10 0 9 0;
#X connect 11 0 12 0;
#X connect 11 1 13 0;
#X connect 12 0 15 0;
#X connect 13 0 14 0;
#X connect 14 0 16 1;
#X connect 15 0 16 0;
#X connect 16 0 17 0;
#X connect 17 0 18 0;
#X connect 18 0 10 0;
#X connect 19 0 22 0;
#X connect 19 0 20 1;
#X connect 20 0 24 0;
#X connect 21 0 23 0;
#X connect 22 0 21 0;
#X connect 23 0 20 2;
#X connect 24 0 2 0;
#X connect 25 0 26 0;
#X connect 26 0 27 0;
#X connect 26 1 29 0;
#X connect 27 0 28 0;
#X connect 28 0 31 0;
#X connect 29 0 30 0;
#X connect 30 0 31 1;
#X connect 31 0 3 0;
#X connect 31 0 11 0;
#X restore 227 123 pd AMBISONIC_ENCODER______;
#X obj 24 153 s OSC-out-global;
#X obj 214 168 s OSC-out-global;
#X obj 444 153 s OSC-out-global;
#X obj 604 153 s OSC-out-global;
#X obj 800 160 s OSC-out-global;
#X obj 1041 140 s OSC-out-global;
#X obj 784 277 s OSC-out-global;
#X obj 524 277 s OSC-out-global;
#X obj 254 277 s OSC-out-global;
#X obj 23 278 s OSC-out-global;
#X obj 24 131 oscformat f\$1 master;
#X obj 444 131 oscformat f\$1 fx;
#X obj 604 131 oscformat f\$1 reverb;
#X obj 800 130 oscformat f\$1 audition;
#X obj 1041 118 oscformat f\$1 master;
#X obj 784 255 oscformat f\$1 sidechain-depth;
#X obj 524 255 oscformat f\$1 sidechain-release;
#X obj 254 255 oscformat f\$1 env-side;
#X obj 23 256 oscformat f\$1 sidechain-in;
#X obj 800 108 change;
#X obj 214 56 r \$0-spatialisation-x-gui;
#X obj 267 76 r \$0-spatialisation-y-gui;
#X obj 214 146 oscformat f\$1 spatialisation;
#X obj 214 98 flib.util.xypack;
#X obj 531 380 s OSC-out-global;
#X obj 531 335 r \$0-saturation-amount-gui;
#X obj 531 358 oscformat f\$1 saturation-amount;
#X obj 770 388 s OSC-out-global;
#X obj 909 383 s OSC-out-global;
#X obj 909 339 r \$0-reverse-gui;
#X obj 1078 384 s OSC-out-global;
#X obj 1078 340 r \$0-chaos-gui;
#X obj 770 366 oscformat f\$1 mod s;
#X obj 909 361 oscformat f\$1 mod reverse;
#X obj 1078 362 oscformat f\$1 mod chaos;
#X obj 770 344 r \$0-speed-gui;
#X connect 2 0 38 0;
#X connect 3 0 33 0;
#X connect 4 0 30 0;
#X connect 5 0 31 0;
#X connect 6 0 7 0;
#X connect 7 0 9 0;
#X connect 8 0 7 1;
#X connect 9 0 10 0;
#X connect 9 1 11 0;
#X connect 12 0 15 0;
#X connect 13 0 36 0;
#X connect 14 0 35 0;
#X connect 15 0 37 0;
#X connect 16 0 34 0;
#X connect 17 0 29 0;
#X connect 29 0 19 0;
#X connect 30 0 21 0;
#X connect 31 0 22 0;
#X connect 32 0 23 0;
#X connect 33 0 24 0;
#X connect 34 0 25 0;
#X connect 35 0 26 0;
#X connect 36 0 27 0;
#X connect 37 0 28 0;
#X connect 38 0 32 0;
#X connect 39 0 42 0;
#X connect 40 0 42 1;
#X connect 41 0 20 0;
#X connect 42 0 18 0;
#X connect 42 0 41 0;
#X connect 44 0 45 0;
#X connect 45 0 43 0;
#X connect 48 0 52 0;
#X connect 50 0 53 0;
#X connect 51 0 46 0;
#X connect 52 0 47 0;
#X connect 53 0 49 0;
#X connect 54 0 51 0;
#X restore 53 135 pd AMP_PAN_FX_REV_SIDECHAIN__;
#N canvas 4 93 1003 300 SAMPLER___________________ 0;
#X obj 37 37 inlet;
#X obj 37 229 outlet;
#X obj 34 157 s OSC-out;
#X obj 34 113 r \$0-sampler-random-gui;
#X obj 284 157 s OSC-out;
#X obj 284 113 r \$0-sampler-play;
#X obj 524 157 s OSC-out;
#X obj 524 113 r \$0-sampler-reverse;
#X obj 754 157 s OSC-out;
#X obj 754 113 r \$0-sampler-record-gui;
#X obj 34 135 list prepend \$1 sampler-random;
#X obj 284 135 list prepend \$1 sampler-play;
#X obj 524 135 list prepend \$1 sampler-reverse;
#X obj 754 135 list prepend \$1 sampler-record;
#X connect 3 0 10 0;
#X connect 5 0 11 0;
#X connect 7 0 12 0;
#X connect 9 0 13 0;
#X connect 10 0 2 0;
#X connect 11 0 4 0;
#X connect 12 0 6 0;
#X connect 13 0 8 0;
#X restore 53 113 pd SAMPLER___________________;
#N canvas 1 156 310 224 SPEED_____________________ 0;
#X obj 43 25 inlet;
#X obj 43 108 s OSC-out;
#X obj 43 64 r \$0-speed-gui;
#X obj 43 158 outlet;
#X obj 43 86 list prepend \$1 mod s;
#X connect 2 0 4 0;
#X connect 4 0 1 0;
#X restore 53 48 pd SPEED_____________________;
#N canvas 990 277 1227 646 OP1-3_LFO_________________ 0;
#X obj 26 3 inlet parameters;
#X obj 17 627 outlet;
#X obj 20 159 s OSC-out;
#X obj 274 96 s OSC-out;
#X obj 472 154 s OSC-out;
#X obj 20 46 r \$0-op1-freq-gui;
#X obj 274 48 r \$0-op1-pitch;
#X obj 21 290 s OSC-out;
#X obj 21 195 r \$0-op2-freq-gui;
#X obj 73 215 r \$0-op2-depth-gui;
#X obj 710 277 s OSC-out;
#X obj 12 445 s OSC-out;
#X obj 246 426 s OSC-out;
#X obj 472 60 r \$0-op1-slide-range-gui;
#X obj 525 80 r \$0-op1-slide-time-gui;
#X obj 510 433 s OSC-out;
#X obj 510 349 r \$0-noise-filter-freq-gui;
#X obj 563 370 r \$0-noise-gui;
#X obj 35 68 s \$0-pitch-correct;
#X obj 66 88 r \$0-waveshape-gui;
#X obj 20 133 list prepend \$1 op1-freq-waveshape;
#X obj 472 132 list prepend \$1 op1-slide-range-time;
#X obj 21 266 list prepend \$1 op2-freq-depth;
#X obj 510 411 list prepend \$1 noise-filterfreq-amount;
#X obj 345 2 r \$0-param-update;
#X obj 710 235 f;
#X obj 246 384 f;
#X msg 274 72 \$3 pitch-gui \$2-\$1;
#X obj 20 111 flib.util.xypack;
#X obj 21 238 flib.util.xypack;
#X obj 12 393 flib.util.xypack;
#X obj 472 102 flib.util.xypack;
#X obj 510 391 flib.util.xypack;
#X obj 12 350 r \$0-am-freq-gui;
#X obj 64 370 r \$0-am-depth-gui;
#X obj 12 421 list prepend \$1 am-freq-depth;
#X obj 710 213 r \$0-op2-trig;
#X obj 710 255 list prepend \$1 op2-trigger;
#X obj 246 362 r \$0-am-trig;
#X obj 246 404 list prepend \$1 am-trig;
#X obj 785 418 s OSC-out;
#X obj 785 376 f;
#X obj 785 354 r \$0-noise-trig;
#X obj 785 396 list prepend \$1 noise-trig;
#X connect 5 0 28 0;
#X connect 5 0 18 0;
#X connect 6 0 27 0;
#X connect 8 0 29 0;
#X connect 9 0 29 1;
#X connect 13 0 31 0;
#X connect 14 0 31 1;
#X connect 16 0 32 0;
#X connect 17 0 32 1;
#X connect 19 0 28 1;
#X connect 20 0 2 0;
#X connect 21 0 4 0;
#X connect 22 0 7 0;
#X connect 23 0 15 0;
#X connect 24 0 25 0;
#X connect 24 0 26 0;
#X connect 24 0 28 2;
#X connect 24 0 29 2;
#X connect 24 0 30 2;
#X connect 24 0 31 2;
#X connect 24 0 32 2;
#X connect 24 0 41 0;
#X connect 25 0 37 0;
#X connect 26 0 39 0;
#X connect 27 0 3 0;
#X connect 28 0 20 0;
#X connect 29 0 22 0;
#X connect 30 0 35 0;
#X connect 31 0 21 0;
#X connect 32 0 23 0;
#X connect 33 0 30 0;
#X connect 34 0 30 1;
#X connect 35 0 11 0;
#X connect 36 0 25 0;
#X connect 37 0 10 0;
#X connect 38 0 26 0;
#X connect 39 0 12 0;
#X connect 41 0 43 0;
#X connect 42 0 41 0;
#X connect 43 0 40 0;
#X restore 53 69 pd OP1-3_LFO_________________;
#N canvas 223 269 1376 789 SEQ_ADSR_GENERATOR________ 0;
#X obj 37 6 inlet;
#X obj 41 615 outlet;
#X obj 32 407 s OSC-out;
#X obj 156 404 s OSC-out;
#X obj 281 403 s OSC-out;
#X obj 38 49 r \$0-seq-time-base-gui;
#X obj 32 304 s OSC-out;
#X msg 38 136 \$1 \$2 1;
#X obj 38 180 s OSC-out;
#X obj 508 112 s OSC-out;
#X obj 416 405 s OSC-out;
#X obj 32 212 r \$0-seq-random-add-gui;
#X obj 234 237 r \$0-seq-random-drop-gui;
#X obj 461 306 s OSC-out;
#X obj 689 322 s OSC-out;
#X obj 28 486 r \$0-gen-range-gui;
#X obj 752 516 s OSC-out;
#X obj 950 557 s OSC-out;
#X msg 950 514 \$1 \$2 1;
#X obj 1188 161 r \$0-sequencer;
#X obj 508 6 r \$0-seq-length-x-gui;
#X msg 508 68 1 \$1 1;
#X msg 683 114 \$1 1 1;
#X obj 683 4 r \$0-seq-length-y-gui;
#X obj 683 68 -;
#X msg 683 46 9 \$1;
#X obj 1188 183 unpack f f;
#X obj 28 554 s OSC-out;
#X obj 432 532 s OSC-out;
#X obj 586 528 s OSC-out;
#X obj 1256 30 r \$0-reset;
#X msg 1256 72 64;
#X obj 1256 94 until;
#X obj 1256 116 i;
#X obj 1285 116 + 1;
#X obj 1256 52 t b b;
#X msg 1295 73 0;
#X msg 1285 139 \$1 0;
#X obj 561 406 s OSC-out;
#X obj 805 400 s OSC-out;
#X obj 1001 391 s OSC-out;
#X obj 910 307 s OSC-out;
#X obj 196 544 s OSC-out;
#X obj 38 158 list prepend \$1 seq-time-base;
#X obj 508 90 list prepend \$1 seq-length-x;
#X obj 461 284 list prepend \$1 seq-random-vel;
#X obj 689 300 list prepend \$1 seq-swing;
#X obj 910 285 list prepend \$1 async;
#X obj 1001 369 list prepend \$1 seq-warp;
#X obj 805 378 list prepend \$1 seq-delay;
#X obj 561 384 list prepend \$1 monophonic;
#X obj 416 383 list prepend \$1 r;
#X obj 281 381 list prepend \$1 s;
#X obj 156 382 list prepend \$1 d;
#X obj 32 385 list prepend \$1 a;
#X obj 28 532 list prepend \$1 gen-range;
#X obj 196 522 list prepend \$1 gen-range-gui;
#X obj 432 510 list prepend \$1 gen-min;
#X obj 586 506 list prepend \$1 gen-max;
#X obj 752 494 list prepend \$1 gen-repeat;
#X obj 950 535 list prepend \$1 gen-direction;
#X obj 1188 284 s OSC-out-global;
#X obj 374 182 r \$0-param-update;
#X obj 508 28 f;
#X obj 683 158 s OSC-out;
#X obj 683 136 list prepend \$1 seq-length-y;
#X obj 461 242 r \$0-seq-random-vel-gui;
#X obj 461 264 f;
#X obj 1096 43 f;
#X obj 689 258 r \$0-seq-swing-gui;
#X obj 910 243 r \$0-async;
#X obj 689 280 f;
#X obj 910 265 f;
#X obj 32 340 r \$0-a-gui;
#X obj 156 337 r \$0-d-gui;
#X obj 416 338 r \$0-r-gui;
#X obj 281 336 r \$0-s-gui;
#X obj 32 362 f;
#X obj 156 359 f;
#X obj 281 358 f;
#X obj 416 360 f;
#X obj 561 342 r \$0-monophonic;
#X obj 805 336 r \$0-seq-delay-gui;
#X obj 1001 327 r \$0-seq-warp-gui;
#X obj 561 364 f;
#X obj 805 358 f;
#X obj 1001 349 f;
#X obj 28 508 f;
#X obj 432 462 r \$0-gen-min-gui;
#X obj 752 450 r \$0-gen-repeat-gui;
#X obj 432 484 f;
#X obj 586 480 f;
#X obj 752 472 f;
#X obj 950 470 f;
#X obj 38 71 f;
#X obj 1096 85 s OSC-out-global;
#X obj 1096 63 oscformat f\$1 seq-on;
#X obj 683 91 f;
#X obj 1188 257 oscformat f\$1 sequencer;
#X obj 1188 225 list append;
#X floatatom 464 12 5 0 0 0 - - -;
#X obj 1188 203 specific.gridpack 8 8;
#X obj 950 492 specific.gridpack 4 1;
#X obj 352 649 r \$0-seq-euclid-gui;
#X obj 352 690 list prepend \$1 seq-euclid;
#X obj 352 711 s OSC-out;
#X obj 352 670 f;
#X obj 545 701 s OSC-out;
#X obj 545 660 f;
#X obj 545 680 list prepend \$1 seq-euclid-offset;
#X obj 545 639 r \$0-seq-euclid-offset-gui;
#X obj 764 695 s OSC-out;
#X obj 764 654 f;
#X obj 764 674 list prepend \$1 seq-euclid-steps;
#X obj 764 633 r \$0-seq-euclid-steps-gui;
#X obj 972 698 s OSC-out;
#X obj 972 657 f;
#X obj 972 677 list prepend \$1 seq-euclid-steps-GUI;
#X obj 972 636 r \$0-seq-euclid-steps-OUT;
#X obj 196 483 r \$0-gen-range-display;
#X obj 196 502 f;
#X obj 38 113 specific.gridpack 5 1;
#X msg 240 114 \$1 \$2 1;
#X obj 240 158 s OSC-out;
#X obj 240 49 f;
#X obj 240 91 specific.gridpack 5 1;
#X obj 240 136 list prepend \$1 seq-time-base-multiplier;
#X obj 240 27 r \$0-seq-time-base-multiplier-gui;
#X obj 586 458 r \$0-gen-min-fixed-gui;
#X obj 392 622 s OSC-out;
#X obj 392 574 f;
#X obj 392 552 r \$0-gen-min-display;
#X obj 392 600 list prepend \$1 gen-min-dislpay;
#X obj 38 92 * 5;
#X obj 240 70 * 5;
#X obj 508 49 * 8;
#X obj 683 25 * 8;
#X obj 1096 21 r \$0-seq-on-gui;
#X obj 950 448 r \$0-gen-direction;
#X obj 32 257 f;
#X obj 32 282 list prepend \$1 seq-random-add;
#X obj 233 260 f;
#X obj 233 302 s OSC-out;
#X obj 233 281 list prepend \$1 seq-random-drop;
#X floatatom 1174 346 5 0 0 0 - - -;
#X obj 1174 325 r \$0-seq-beat;
#X obj 1193 415 specific.gridpack 8 8;
#X obj 1193 568 oscformat f\$1 beat;
#X obj 1174 462 pipe 25;
#X obj 1174 366 t f f b;
#X msg 1256 395 1;
#X obj 1174 483 t f b;
#X msg 1202 502 0;
#X obj 1193 436 list append;
#X obj 1174 522 specific.gridpack 8 8;
#X obj 1174 543 list append;
#X connect 5 0 94 0;
#X connect 7 0 43 0;
#X connect 11 0 139 0;
#X connect 12 0 141 0;
#X connect 15 0 87 0;
#X connect 18 0 60 0;
#X connect 19 0 26 0;
#X connect 20 0 63 0;
#X connect 21 0 44 0;
#X connect 22 0 65 0;
#X connect 23 0 136 0;
#X connect 24 0 97 0;
#X connect 25 0 24 0;
#X connect 26 0 101 0;
#X connect 26 1 99 1;
#X connect 30 0 35 0;
#X connect 31 0 32 0;
#X connect 32 0 33 0;
#X connect 33 0 34 0;
#X connect 34 0 33 1;
#X connect 34 0 37 0;
#X connect 35 0 31 0;
#X connect 35 1 36 0;
#X connect 36 0 33 1;
#X connect 37 0 26 0;
#X connect 43 0 8 0;
#X connect 44 0 9 0;
#X connect 45 0 13 0;
#X connect 46 0 14 0;
#X connect 47 0 41 0;
#X connect 48 0 40 0;
#X connect 49 0 39 0;
#X connect 50 0 38 0;
#X connect 51 0 10 0;
#X connect 52 0 4 0;
#X connect 53 0 3 0;
#X connect 54 0 2 0;
#X connect 55 0 27 0;
#X connect 56 0 42 0;
#X connect 57 0 28 0;
#X connect 58 0 29 0;
#X connect 59 0 16 0;
#X connect 60 0 17 0;
#X connect 62 0 63 0;
#X connect 62 0 68 0;
#X connect 62 0 67 0;
#X connect 62 0 71 0;
#X connect 62 0 72 0;
#X connect 62 0 77 0;
#X connect 62 0 78 0;
#X connect 62 0 79 0;
#X connect 62 0 80 0;
#X connect 62 0 87 0;
#X connect 62 0 90 0;
#X connect 62 0 91 0;
#X connect 62 0 92 0;
#X connect 62 0 93 0;
#X connect 62 0 84 0;
#X connect 62 0 85 0;
#X connect 62 0 86 0;
#X connect 62 0 94 0;
#X connect 62 0 97 0;
#X connect 62 0 106 0;
#X connect 62 0 108 0;
#X connect 62 0 112 0;
#X connect 62 0 116 0;
#X connect 62 0 120 0;
#X connect 62 0 124 0;
#X connect 62 0 130 0;
#X connect 62 0 139 0;
#X connect 62 0 141 0;
#X connect 63 0 135 0;
#X connect 65 0 64 0;
#X connect 66 0 67 0;
#X connect 67 0 45 0;
#X connect 68 0 96 0;
#X connect 69 0 71 0;
#X connect 70 0 72 0;
#X connect 71 0 46 0;
#X connect 72 0 47 0;
#X connect 73 0 77 0;
#X connect 74 0 78 0;
#X connect 75 0 80 0;
#X connect 76 0 79 0;
#X connect 77 0 54 0;
#X connect 78 0 53 0;
#X connect 79 0 52 0;
#X connect 80 0 51 0;
#X connect 81 0 84 0;
#X connect 82 0 85 0;
#X connect 83 0 86 0;
#X connect 84 0 50 0;
#X connect 85 0 49 0;
#X connect 86 0 48 0;
#X connect 87 0 55 0;
#X connect 88 0 90 0;
#X connect 89 0 92 0;
#X connect 90 0 57 0;
#X connect 91 0 58 0;
#X connect 92 0 59 0;
#X connect 93 0 102 0;
#X connect 94 0 133 0;
#X connect 96 0 95 0;
#X connect 97 0 22 0;
#X connect 98 0 61 0;
#X connect 99 0 98 0;
#X connect 100 0 63 0;
#X connect 101 0 99 0;
#X connect 102 0 18 0;
#X connect 103 0 106 0;
#X connect 104 0 105 0;
#X connect 106 0 104 0;
#X connect 108 0 109 0;
#X connect 109 0 107 0;
#X connect 110 0 108 0;
#X connect 112 0 113 0;
#X connect 113 0 111 0;
#X connect 114 0 112 0;
#X connect 116 0 117 0;
#X connect 117 0 115 0;
#X connect 118 0 116 0;
#X connect 119 0 120 0;
#X connect 120 0 56 0;
#X connect 121 0 7 0;
#X connect 122 0 126 0;
#X connect 124 0 134 0;
#X connect 125 0 122 0;
#X connect 126 0 123 0;
#X connect 127 0 124 0;
#X connect 128 0 91 0;
#X connect 130 0 132 0;
#X connect 131 0 130 0;
#X connect 132 0 129 0;
#X connect 133 0 121 0;
#X connect 134 0 125 0;
#X connect 135 0 21 0;
#X connect 136 0 25 0;
#X connect 137 0 68 0;
#X connect 138 0 93 0;
#X connect 139 0 140 0;
#X connect 140 0 6 0;
#X connect 141 0 143 0;
#X connect 143 0 142 0;
#X connect 144 0 149 0;
#X connect 145 0 144 0;
#X connect 146 0 153 0;
#X connect 148 0 151 0;
#X connect 149 0 148 0;
#X connect 149 1 146 0;
#X connect 149 2 150 0;
#X connect 150 0 153 1;
#X connect 151 0 154 0;
#X connect 151 1 152 0;
#X connect 152 0 155 1;
#X connect 153 0 147 0;
#X connect 154 0 155 0;
#X connect 155 0 147 0;
#X restore 53 91 pd SEQ_ADSR_GENERATOR________;
#N canvas 48 46 523 243 MIDI_OUT__________________ 0;
#X obj 38 114 r \$0-MIDI-out;
#X obj 118 136 loadbang;
#X obj 38 136 unpack f f;
#X obj 46 28 inlet;
#X obj 38 182 ctlout;
#X obj 118 158 \$1;
#X obj 240 80 pack f f f;
#X msg 240 102 \$3 \$1 \$2;
#X obj 240 124 list prepend send;
#X obj 240 146 list trim;
#X obj 352 37 bng 15 250 50 0 empty empty empty 17 7 0 10 -262144 -1
-1;
#X obj 352 57 \$4;
#X obj 240 168 s to-audio-host;
#X connect 1 0 5 0;
#X connect 2 0 4 0;
#X connect 2 1 4 1;
#X connect 5 0 4 2;
#X connect 6 0 7 0;
#X connect 7 0 8 0;
#X connect 8 0 9 0;
#X connect 9 0 12 0;
#X connect 10 0 11 0;
#X connect 11 0 6 2;
#X restore 53 157 pd MIDI_OUT__________________;
#X obj 249 48 specific.oscparse \$1 \$0;
#X connect 0 0 3 0;
#X connect 1 0 6 0;
#X connect 2 0 1 0;
#X connect 3 0 4 0;
#X connect 4 0 5 0;
#X connect 5 0 2 0;
#X restore 37 161 pd OSC+MIDI_OUT_ROUTING__;
#N canvas 910 146 417 533 SEQUENCER_____________ 0;
#X obj 60 262 s \$0-automater-trig;
#X obj 49 30 inlet;
#X obj 271 494 outlet;
#X obj 122 380 s \$0-MIDI-out;
#X obj 83 426 s \$0-MIDI-out;
#X msg 83 404 24 \$1;
#X msg 122 358 25 127;
#X obj 83 334 t f b b;
#X text 187 155 <- the actual sequencer!!!;
#N canvas 0 22 348 300 VELOCITY___________ 0;
#X obj 153 75 r \$0-seq-random-vel;
#X obj 56 228 *;
#X obj 56 43 t f b;
#X obj 83 127 random 70;
#X obj 83 149 * 0.01;
#X obj 83 171 + 0.03;
#X obj 153 141 * 0.7;
#X obj 153 163 + 0.3;
#X obj 153 119 -;
#X msg 153 97 1 \$1;
#X obj 83 193 max 0.3;
#X obj 56 253 outlet;
#X obj 56 13 inlet;
#X connect 0 0 9 0;
#X connect 1 0 11 0;
#X connect 2 0 1 0;
#X connect 2 1 3 0;
#X connect 3 0 4 0;
#X connect 4 0 5 0;
#X connect 5 0 10 0;
#X connect 6 0 7 0;
#X connect 7 0 10 1;
#X connect 8 0 6 0;
#X connect 9 0 8 0;
#X connect 10 0 1 1;
#X connect 12 0 2 0;
#X restore 50 308 pd VELOCITY___________;
#X text 179 421 <- trigger;
#N canvas 648 218 253 180 SIDECHAIN_SEND____ 0;
#X obj 59 53 sel 1;
#X obj 59 116 s sidechain-global;
#X obj 59 74 list prepend \$1;
#X obj 59 95 list trim;
#X obj 59 22 inlet;
#X connect 0 0 2 0;
#X connect 2 0 3 0;
#X connect 3 0 1 0;
#X connect 4 0 0 0;
#X restore 68 240 pd SIDECHAIN_SEND____;
#X obj 59 105 r master-beat;
#X obj 64 130 r \$0-seq-messages;
#X obj 50 157 flib.seq.sequencer \$0;
#X obj 60 285 r \$0-seq-trigger;
#X obj 50 448 s \$0-value-send;
#X text 267 179 <- to step automater;
#X floatatom 138 180 5 0 0 0 - - -;
#X obj 132 198 s \$0-seq-beat;
#X obj 91 219 s \$0-seq-euclid-steps-OUT;
#X obj 173 178 s \$0-sequencer;
#X connect 1 0 14 0;
#X connect 5 0 4 0;
#X connect 6 0 3 0;
#X connect 7 0 5 0;
#X connect 7 2 6 0;
#X connect 9 0 7 0;
#X connect 9 0 16 0;
#X connect 12 0 14 0;
#X connect 13 0 14 0;
#X connect 14 0 11 0;
#X connect 14 0 0 0;
#X connect 14 0 9 0;
#X connect 14 1 20 0;
#X connect 14 2 18 0;
#X connect 14 2 19 0;
#X connect 14 3 21 0;
#X connect 15 0 9 0;
#X restore 37 115 pd SEQUENCER_____________;
#X msg 82 60 reset bang;
#X obj 129 186 r \$0-OSC-collect;
#X obj 129 207 s osc-m;
#X connect 0 0 3 0;
#X connect 1 0 2 0;
#X connect 2 0 4 0;
#X connect 4 0 0 0;
#X connect 5 0 2 0;
#X connect 6 0 7 0;
