#N canvas 332 467 226 308 10;
#X obj 45 181 t a;
#X obj 45 245 outlet;
#X obj 45 11 inlet;
#X obj 45 203 line 0 5;
#X obj 45 225 mtof;
#X msg 64 73 \$3;
#X obj 45 52 t a a a;
#X obj 93 137 f;
#X obj 45 130 spigot;
#X obj 64 94 != 0;
#X obj 93 116 sel 0;
#X msg 95 73 \$2;
#X msg 45 161 \$1 \, \$2 \$3;
#X connect 0 0 3 0;
#X connect 2 0 6 0;
#X connect 3 0 4 0;
#X connect 4 0 1 0;
#X connect 5 0 9 0;
#X connect 6 0 8 0;
#X connect 6 1 5 0;
#X connect 6 2 11 0;
#X connect 7 0 0 0;
#X connect 8 0 12 0;
#X connect 9 0 10 0;
#X connect 9 0 8 1;
#X connect 10 0 7 0;
#X connect 11 0 7 1;
#X connect 12 0 0 0;
