#N canvas 0 45 355 277 10;
#X obj 37 135 flib.audio.amp~ 10 2;
#X obj 172 136 flib.audio.amp~ 10 2;
#X obj 233 85 route \$1;
#X obj 235 44 inlet;
#X obj 37 226 throw~ reverb-l;
#X obj 172 227 throw~ reverb-r;
#X obj 37 43 r~ \$1-l;
#X obj 171 43 r~ \$1-r;
#X connect 0 0 4 0;
#X connect 1 0 5 0;
#X connect 2 0 0 1;
#X connect 2 0 1 1;
#X connect 3 0 2 0;
#X connect 6 0 0 0;
#X connect 7 0 1 0;
