#N canvas 84 145 1006 865 10;
#X obj 43 52 inlet;
#X obj 425 105 route monophonicO\$1 waveshapeO\$1 op1sliderangeO\$1
op1slidetimeO\$1;
#X text 160 48 \$1 = instance;
#X text 157 22 Receice and parse OPSC messages from synth;
#X obj 421 262 route op2freqO\$1 op2depthO\$1 noiseO\$1 noisefilterfreqO\$1
;
#X obj 416 412 route attackO\$1 decayO\$1 sustainO\$1 releaseO\$1;
#X obj 43 96 route masterampO\$1 panningO\$1 envelopereleaseO\$1 envelopedepthO\$1
envelopesideO\$1;
#X obj 497 187 s \$2-waveshape-gui;
#X text 157 70 \$2 = \$0;
#X obj 570 167 s \$2-op1-slide-range-gui;
#X obj 643 147 s \$2-slide-time-gui;
#X obj 421 356 s \$2-op2-freq-gui;
#X obj 504 334 s \$2-op2-depth-gui;
#X obj 587 312 s \$2-noise-gui;
#X obj 670 291 s \$2-noise-filter-freq-gui;
#X obj 416 503 s \$2-attack-gui;
#X obj 484 481 s \$2-decay-gui;
#X obj 552 461 s \$2-sustain-gui;
#X obj 620 441 s \$2-release;
#X obj 428 767 s \$2-am-freq-gui;
#X obj 475 748 s \$2-am-depth-gui;
#X obj 523 728 s \$2-saturation-gui;
#X obj 570 708 s \$2-filter-cutoff-gui;
#X obj 618 688 s \$2-filter-resonance-gui;
#X obj 665 669 s \$2-bitcrush-gui;
#X obj 713 649 s \$2-pitchshift-gui;
#X obj 428 605 route amfreqO\$1 amdepthO\$1 saturationO\$1 filtercutoffO\$1
filterresonanceO\$1 bitcrushO\$1 pitchshiftO\$1;
#X obj 425 207 s \$2-monophonic-gui;
#X obj 43 215 s \$2-master-amp-gui;
#X obj 100 195 s \$2-panning-gui;
#X obj 157 176 s \$2-envelope-release-gui;
#X obj 214 157 s \$2-envelope-depth-gui;
#X obj 271 138 s \$2-envelope-side-gui;
#X connect 0 0 6 0;
#X connect 1 0 27 0;
#X connect 1 1 7 0;
#X connect 1 2 9 0;
#X connect 1 3 10 0;
#X connect 4 0 11 0;
#X connect 4 1 12 0;
#X connect 4 2 13 0;
#X connect 4 3 14 0;
#X connect 5 0 15 0;
#X connect 5 1 16 0;
#X connect 5 2 17 0;
#X connect 5 3 18 0;
#X connect 6 0 28 0;
#X connect 6 1 29 0;
#X connect 6 2 30 0;
#X connect 6 3 31 0;
#X connect 6 4 32 0;
#X connect 26 0 19 0;
#X connect 26 1 20 0;
#X connect 26 2 21 0;
#X connect 26 3 22 0;
#X connect 26 4 23 0;
#X connect 26 5 24 0;
#X connect 26 6 25 0;
