#N canvas 489 130 951 678 10;
#X obj 141 431 list prepend send;
#X obj 141 453 list trim;
#X obj 194 384 r osc-on;
#X obj 141 408 spigot 0;
#X obj 266 388 tgl 15 0 empty empty empty 17 7 0 10 -262144 -1 -1 0
1;
#X msg 156 528 connect 10.10.10.2 51987;
#X obj 151 101 cnv 15 250 60 empty empty Tablet_\$2 20 12 0 14 -261682
-66577 0;
#X msg 179 266 set;
#X obj 133 244 t a a b;
#X obj 253 485 sel 1 0;
#X msg 276 506 disconnect;
#X obj 54 35 inlet;
#X obj 54 146 t f b;
#X obj 141 582 sel 0;
#X obj 141 603 spigot;
#X obj 443 446 oscformat f1;
#X obj 443 139 r OSC-out;
#X obj 165 206 pack f f f f f;
#X floatatom 165 142 5 0 0 0 - - -;
#X floatatom 205 142 5 0 0 0 - - -;
#X floatatom 245 142 5 0 0 0 - - -;
#X floatatom 285 142 5 0 0 0 - - -;
#X floatatom 340 142 5 0 0 0 - - -;
#X text 165 127 IP Address;
#X obj 132 69 unpack f f f f f;
#X obj 165 176 change;
#X obj 214 176 change;
#X obj 262 176 change;
#X obj 313 176 change;
#X obj 361 176 change;
#X text 338 127 Port No.;
#X msg 156 288 set connect \$1.\$2.\$3.\$4 \$5;
#X obj 132 34 inlet;
#X obj 475 161 r \$1-tab-\$2;
#X obj 156 312 s \$0-tablet-\$2;
#X obj 156 505 r \$0-tablet-\$2;
#X obj 141 624 s \$0-tablet-\$2;
#X obj 443 331 list split 1;
#X obj 443 377 list;
#X obj 443 353 t b a;
#X obj 475 398 pack s f;
#X obj 640 306 s tab-\$2-update;
#X msg 640 284 \$1 bang;
#X msg 475 210 0;
#X obj 640 257 t f f f;
#X obj 23 367 oscformat;
#X obj 11 197 r OSC-in;
#X obj 22 297 list split 1;
#X obj 23 342 list;
#X obj 22 319 t b a;
#X msg 62 342 set \$1;
#X msg 475 420 set f\$2 \$1;
#X obj 443 309 route;
#X obj 159 358 r OSC-out-global;
#X msg 640 227 \$1;
#X obj 141 556 netsend -u -b;
#X obj 640 206 flib.util.s2f;
#X obj 11 218 route MIXER GLOBAL FX ML;
#X obj 475 183 route MIXER GLOBAL FX LOOPER;
#X connect 0 0 1 0;
#X connect 1 0 55 0;
#X connect 2 0 3 1;
#X connect 3 0 0 0;
#X connect 4 0 3 1;
#X connect 5 0 55 0;
#X connect 7 0 34 0;
#X connect 8 0 24 0;
#X connect 8 1 31 0;
#X connect 8 2 7 0;
#X connect 9 0 5 0;
#X connect 9 1 10 0;
#X connect 10 0 55 0;
#X connect 11 0 12 0;
#X connect 12 0 9 0;
#X connect 12 0 14 1;
#X connect 12 1 17 0;
#X connect 13 0 14 0;
#X connect 14 0 36 0;
#X connect 15 0 3 0;
#X connect 16 0 52 0;
#X connect 17 0 8 0;
#X connect 18 0 25 0;
#X connect 19 0 26 0;
#X connect 20 0 27 0;
#X connect 21 0 28 0;
#X connect 22 0 29 0;
#X connect 24 0 18 0;
#X connect 24 1 19 0;
#X connect 24 2 20 0;
#X connect 24 3 21 0;
#X connect 24 4 22 0;
#X connect 25 0 17 0;
#X connect 26 0 17 1;
#X connect 27 0 17 2;
#X connect 28 0 17 3;
#X connect 29 0 17 4;
#X connect 31 0 34 0;
#X connect 32 0 24 0;
#X connect 33 0 58 0;
#X connect 35 0 5 0;
#X connect 37 0 39 0;
#X connect 37 1 38 1;
#X connect 38 0 15 0;
#X connect 39 0 38 0;
#X connect 39 1 40 0;
#X connect 40 0 51 0;
#X connect 42 0 41 0;
#X connect 43 0 52 1;
#X connect 44 0 42 0;
#X connect 44 1 40 1;
#X connect 44 2 52 1;
#X connect 45 0 3 0;
#X connect 46 0 57 0;
#X connect 47 0 49 0;
#X connect 47 1 48 1;
#X connect 48 0 45 0;
#X connect 49 0 48 0;
#X connect 49 1 50 0;
#X connect 50 0 45 0;
#X connect 51 0 15 0;
#X connect 52 0 37 0;
#X connect 53 0 3 0;
#X connect 54 0 44 0;
#X connect 55 0 13 0;
#X connect 56 0 54 0;
#X connect 57 4 47 0;
#X connect 58 0 43 0;
#X connect 58 1 43 0;
#X connect 58 2 43 0;
#X connect 58 3 43 0;
#X connect 58 4 56 0;
#X coords 0 -1 1 1 252 62 1 150 100;
