#N canvas 126 313 878 627 10;
#X obj 543 275 r automateRecord;
#X obj 223 217 spigot;
#X msg 223 265 1;
#X msg 237 405 0;
#X msg 400 388 0;
#X obj 543 398 f;
#X obj 223 241 t b b;
#X msg 267 266 0;
#X obj 543 296 sel 0;
#X obj 256 197 r automateRecord;
#X obj 47 21 inlet;
#X obj 392 428 f;
#X obj 400 367 r \$1-reset;
#X text 189 21 \$1 = \$0;
#X text 189 41 \$2 = parameter name;
#X text 189 61 \$3 = synth instance;
#X obj 392 326 r automateRecord;
#X obj 392 347 sel 0;
#X obj 558 378 r \$0-1;
#X obj 407 408 r \$0-1;
#X obj 267 289 s \$0-0;
#X obj 560 355 r \$0-0;
#X msg 554 335 0;
#X obj 554 315 r \$1-reset;
#X obj 224 362 r \$0-1;
#X obj 237 382 r automateRecord;
#X obj 224 476 s \$0-out;
#X obj 141 513 r \$0-out;
#X obj 51 560 outlet;
#X obj 543 479 s \$0-out;
#X obj 392 477 s \$0-out;
#X obj 223 289 change;
#X obj 223 313 s \$0-1;
#X obj 224 425 t a;
#X obj 47 42 s \$0-value;
#X obj 223 177 r \$0-value;
#X text 189 81 \$4 = parameter record name;
#X obj 224 452 oscformat fynth \$4record\$3;
#X obj 543 455 oscformat fynth \$4loop\$3;
#X obj 392 453 oscformat fynth \$4act\$3;
#X text 189 102 eg: \$0 waveshape 0 w;
#N canvas 0 22 457 472 _unimplemented 0;
#X obj 45 40 r evolution-active;
#X obj 37 68 r evolution-time;
#X obj 130 186 t f f;
#X obj 83 267 spigot 0;
#X msg 60 183 0;
#X obj 60 161 sel 1 0;
#X obj 162 210 change;
#X msg 162 232 1;
#X obj 83 417 line 0 5;
#X obj 83 360 pack f f 16000;
#X obj 130 162 r \$0-input-1;
#X obj 60 139 r \$0-evolve;
#X obj 178 337 r \$0-evolve-time;
#X obj 83 291 t b;
#X obj 83 337 f;
#X msg 83 387 \$1 \, \$2 \$3;
#X obj 212 271 r \$0-value;
#X obj 212 292 spigot;
#X connect 2 0 9 1;
#X connect 2 1 6 0;
#X connect 3 0 13 0;
#X connect 4 0 3 1;
#X connect 5 0 4 0;
#X connect 5 1 3 0;
#X connect 6 0 7 0;
#X connect 7 0 3 1;
#X connect 9 0 15 0;
#X connect 10 0 2 0;
#X connect 11 0 5 0;
#X connect 12 0 9 2;
#X connect 13 0 14 0;
#X connect 14 0 9 0;
#X connect 15 0 8 0;
#X connect 16 0 17 0;
#X restore 393 30 pd _unimplemented;
#X obj 51 410 r \$0-value;
#X obj 51 454 s \$0-out;
#X obj 153 536 s \$1-OSC-collect;
#X obj 51 433 oscformat fynth \$2\$3;
#X obj 141 559 outlet;
#X obj 51 517 r \$0-value;
#X obj 714 455 oscformat fynth \$4trig\$3;
#X obj 714 432 spigot;
#X obj 748 413 r \$1-\$4-trig;
#X obj 714 393 r \$1-trigger;
#X obj 714 476 s \$0-out;
#X obj 601 397 r \$1-\$4-trig;
#X obj 601 418 == 0;
#X obj 543 419 spigot 1;
#X connect 0 0 8 0;
#X connect 1 0 6 0;
#X connect 2 0 31 0;
#X connect 3 0 33 0;
#X connect 4 0 11 0;
#X connect 5 0 55 0;
#X connect 6 0 2 0;
#X connect 6 1 7 0;
#X connect 7 0 20 0;
#X connect 8 0 5 0;
#X connect 9 0 1 1;
#X connect 10 0 34 0;
#X connect 11 0 39 0;
#X connect 12 0 4 0;
#X connect 16 0 17 0;
#X connect 17 0 11 0;
#X connect 18 0 5 1;
#X connect 19 0 11 1;
#X connect 21 0 5 0;
#X connect 22 0 5 0;
#X connect 23 0 22 0;
#X connect 24 0 33 0;
#X connect 25 0 3 0;
#X connect 27 0 44 0;
#X connect 27 0 46 0;
#X connect 31 0 32 0;
#X connect 33 0 37 0;
#X connect 35 0 1 0;
#X connect 37 0 26 0;
#X connect 38 0 29 0;
#X connect 39 0 30 0;
#X connect 42 0 45 0;
#X connect 45 0 43 0;
#X connect 47 0 28 0;
#X connect 48 0 52 0;
#X connect 49 0 48 0;
#X connect 50 0 49 1;
#X connect 51 0 49 0;
#X connect 53 0 54 0;
#X connect 53 0 55 1;
#X connect 54 0 38 0;
#X connect 55 0 38 0;
