#N canvas 713 149 559 249 10;
#X text 274 114 \$1 = \$0 \; \$2 = instance;
#X obj 94 65 s~ \$0-ext-feed;
#X obj 139 46 s~ \$0-adsr-trig;
#X obj 184 27 s~ \$0-env-fol;
#X obj 49 84 s \$0-formuls-param-in;
#X obj 49 171 r \$0-formuls-param-out;
#N canvas 237 243 397 292 SYNTH__________ 0;
#X obj 40 35 r \$0-formuls-param-in;
#X obj 40 212 s \$0-formuls-param-out;
#X obj 61 56 r~ \$0-ext-feed;
#X obj 83 77 r~ \$0-adsr-trig;
#X obj 239 30 tgl 15 0 empty empty empty 17 7 0 10 -262144 -1 -1 0
1;
#X obj 255 81 tgl 15 0 empty empty empty 17 7 0 10 -262144 -1 -1 0
1;
#X msg 260 99 adsron \$1;
#X obj 40 129 formuls~, f 11;
#X obj 104 99 r~ \$0-env-fol;
#X obj 123 152 s~ \$2-m;
#N canvas 0 23 301 286 REVERB_SEND__ 0;
#X obj 41 202 throw~ \$1-rev-l;
#X obj 40 28 inlet~;
#X obj 40 179 *~;
#X obj 55 111 sig~;
#X obj 55 132 lop~ 100;
#X obj 55 153 *~;
#X obj 160 29 inlet~;
#X obj 160 180 *~;
#X obj 175 112 sig~;
#X obj 175 133 lop~ 100;
#X obj 175 154 *~;
#X obj 161 203 throw~ \$1-rev-r;
#X obj 55 90 r reverb\$2;
#X obj 175 91 r reverb\$2;
#X connect 1 0 2 0;
#X connect 2 0 0 0;
#X connect 3 0 4 0;
#X connect 4 0 5 0;
#X connect 4 0 5 1;
#X connect 5 0 2 1;
#X connect 6 0 7 0;
#X connect 7 0 11 0;
#X connect 8 0 9 0;
#X connect 9 0 10 0;
#X connect 9 0 10 1;
#X connect 10 0 7 1;
#X connect 12 0 3 0;
#X connect 13 0 8 0;
#X restore 206 212 pd REVERB_SEND__;
#X obj 206 190 r~ \$2-l;
#X obj 257 190 r~ \$2-r;
#X obj 71 191 s~ \$2-l;
#X obj 103 171 s~ \$2-r;
#X msg 243 48 active \$1;
#X connect 0 0 7 0;
#X connect 2 0 7 1;
#X connect 3 0 7 2;
#X connect 4 0 15 0;
#X connect 5 0 6 0;
#X connect 6 0 7 0;
#X connect 7 0 1 0;
#X connect 7 1 13 0;
#X connect 7 1 9 0;
#X connect 7 2 14 0;
#X connect 7 2 9 0;
#X connect 8 0 7 3;
#X connect 11 0 10 0;
#X connect 12 0 10 1;
#X connect 15 0 7 0;
#X restore 48 116 pd SYNTH__________;
#X text 217 6 <- parse incoming messages;
#X text 188 156 <- retreive parameter value from faust DSP then format
and send to GUI;
#X obj 49 193 f.util.oscoutparse \$2 \$1 fsynth ffx fmix flooper;
#X obj 49 6 f.util.oscinparse \$2 \$1;
#X connect 5 0 9 0;
#X connect 10 0 4 0;
#X connect 10 1 1 0;
#X connect 10 2 2 0;
#X connect 10 3 3 0;
