#N canvas 335 43 635 563 10;
#X obj 38 412 *~;
#X obj 53 363 sig~;
#X obj 53 387 lop~ 100;
#X obj 39 21 inlet;
#X obj 38 310 r~ 1-m;
#X obj 39 253 s \$0-1;
#X obj 61 230 s \$0-2;
#X obj 84 208 s \$0-3;
#X obj 106 185 s \$0-4;
#X obj 129 163 s \$0-5;
#X obj 151 141 s \$0-6;
#X obj 53 340 r \$0-1;
#X obj 135 411 *~;
#X obj 150 362 sig~;
#X obj 150 386 lop~ 100;
#X obj 232 410 *~;
#X obj 247 361 sig~;
#X obj 247 385 lop~ 100;
#X obj 329 409 *~;
#X obj 344 360 sig~;
#X obj 344 384 lop~ 100;
#X obj 427 408 *~;
#X obj 442 359 sig~;
#X obj 442 383 lop~ 100;
#X obj 524 407 *~;
#X obj 539 358 sig~;
#X obj 539 382 lop~ 100;
#X obj 150 339 r \$0-2;
#X obj 247 338 r \$0-3;
#X obj 344 337 r \$0-4;
#X obj 443 336 r \$0-5;
#X obj 539 335 r \$0-6;
#X obj 135 309 r~ 2-m;
#X obj 232 308 r~ 3-m;
#X obj 329 307 r~ 4-m;
#X obj 427 306 r~ 5-m;
#X obj 524 305 r~ 6-m;
#X obj 37 495 catch~ \$0-out;
#X obj 37 522 outlet~;
#X obj 38 452 throw~ \$0-out;
#X obj 135 451 throw~ \$0-out;
#X obj 232 450 throw~ \$0-out;
#X obj 329 449 throw~ \$0-out;
#X obj 427 448 throw~ \$0-out;
#X obj 524 447 throw~ \$0-out;
#X msg 170 78 0;
#X obj 39 50 route \$1 reset;
#X obj 39 79 route 1 2 3 4 5 6;
#X connect 0 0 39 0;
#X connect 1 0 2 0;
#X connect 2 0 0 1;
#X connect 3 0 46 0;
#X connect 4 0 0 0;
#X connect 11 0 1 0;
#X connect 12 0 40 0;
#X connect 13 0 14 0;
#X connect 14 0 12 1;
#X connect 15 0 41 0;
#X connect 16 0 17 0;
#X connect 17 0 15 1;
#X connect 18 0 42 0;
#X connect 19 0 20 0;
#X connect 20 0 18 1;
#X connect 21 0 43 0;
#X connect 22 0 23 0;
#X connect 23 0 21 1;
#X connect 24 0 44 0;
#X connect 25 0 26 0;
#X connect 26 0 24 1;
#X connect 27 0 13 0;
#X connect 28 0 16 0;
#X connect 29 0 19 0;
#X connect 30 0 22 0;
#X connect 31 0 25 0;
#X connect 32 0 12 0;
#X connect 33 0 15 0;
#X connect 34 0 18 0;
#X connect 35 0 21 0;
#X connect 36 0 24 0;
#X connect 37 0 38 0;
#X connect 45 0 10 0;
#X connect 45 0 9 0;
#X connect 45 0 8 0;
#X connect 45 0 7 0;
#X connect 45 0 6 0;
#X connect 45 0 5 0;
#X connect 46 0 47 0;
#X connect 46 1 45 0;
#X connect 47 0 5 0;
#X connect 47 1 6 0;
#X connect 47 2 7 0;
#X connect 47 3 8 0;
#X connect 47 4 9 0;
#X connect 47 5 10 0;
