#N canvas 279 495 506 400 12;
#X obj 214 358 writesf~ 2;
#X obj 214 28 inlet~;
#X obj 281 28 inlet~;
#X obj 48 69 sel 1 0;
#X obj 48 103 t b b;
#X msg 48 227 start;
#X obj 48 35 inlet;
#X obj 81 176 pack f \$0;
#X obj 80 128 i;
#X obj 80 152 + 1;
#X obj 112 269 t a;
#X msg 112 101 stop;
#X msg 82 201 open /Users/jd25455/Desktop/audio_recording_\$2_\$1.wav
;
#X connect 1 0 0 0;
#X connect 2 0 0 1;
#X connect 3 0 4 0;
#X connect 3 1 11 0;
#X connect 4 0 5 0;
#X connect 4 1 8 0;
#X connect 5 0 10 0;
#X connect 6 0 3 0;
#X connect 7 0 12 0;
#X connect 8 0 9 0;
#X connect 9 0 8 1;
#X connect 9 0 7 0;
#X connect 10 0 0 0;
#X connect 11 0 10 0;
#X connect 12 0 10 0;
