#N canvas 713 149 542 223 10;
#X text 254 114 \$1 = \$0 \; \$2 = instance;
#X obj 74 75 s~ \$0-ext-feed;
#X obj 119 56 s~ \$0-adsr-trig;
#X obj 164 37 s~ \$0-env-fol;
#X obj 29 94 s \$0-formuls-param-in;
#X obj 29 161 r \$0-formuls-param-out;
#N canvas 494 648 364 357 SYNTH__________ 0;
#X obj 60 115 r \$0-formuls-param-in;
#X obj 60 312 s \$0-formuls-param-out;
#X obj 71 134 r~ \$0-ext-feed;
#X obj 130 155 r~ \$0-adsr-trig;
#X obj 201 178 r~ \$0-env-fol;
#X obj 201 245 s~ \$2-m;
#N canvas 0 23 301 286 REVERB_SEND__ 0;
#X obj 41 202 throw~ \$1-rev-l;
#X obj 40 28 inlet~;
#X obj 40 179 *~;
#X obj 55 111 sig~;
#X obj 55 132 lop~ 100;
#X obj 55 153 *~;
#X obj 160 29 inlet~;
#X obj 160 180 *~;
#X obj 175 112 sig~;
#X obj 175 133 lop~ 100;
#X obj 175 154 *~;
#X obj 161 203 throw~ \$1-rev-r;
#X obj 55 90 r reverb\$2;
#X obj 175 91 r reverb\$2;
#X connect 1 0 2 0;
#X connect 2 0 0 0;
#X connect 3 0 4 0;
#X connect 4 0 5 0;
#X connect 4 0 5 1;
#X connect 5 0 2 1;
#X connect 6 0 7 0;
#X connect 7 0 11 0;
#X connect 8 0 9 0;
#X connect 9 0 10 0;
#X connect 9 0 10 1;
#X connect 10 0 7 1;
#X connect 12 0 3 0;
#X connect 13 0 8 0;
#X restore 226 315 pd REVERB_SEND__;
#X obj 226 293 r~ \$2-l;
#X obj 277 293 r~ \$2-r;
#X obj 154 265 s~ \$2-r;
#X obj 107 284 s~ \$2-l;
#X obj 60 219 pd~ -ninsig 3 -noutsig 3;
#X msg 20 70 pd~ start -nogui f.formuls~.pd;
#X obj 20 20 r sub-start;
#X obj 20 41 sel 1 0;
#X msg 39 92 pd~ stop;
#X obj 201 198 *~ 15;
#N canvas 0 47 397 460 MIDI_KEYBOARD_IN 0;
#X obj 51 12 notein;
#X obj 102 205 / 127;
#X obj 51 86 stripnote;
#X obj 51 112 mtof;
#N canvas 0 32 233 291 TRIG________ 0;
#X obj 70 99 t b b;
#X obj 70 120 del 2;
#X msg 70 141 0;
#X obj 70 162 t a;
#X msg 106 138 1;
#X obj 70 213 outlet;
#X obj 70 46 inlet;
#X obj 137 215 outlet~;
#X obj 137 182 sig~;
#X connect 0 0 1 0;
#X connect 0 1 4 0;
#X connect 1 0 2 0;
#X connect 2 0 3 0;
#X connect 3 0 5 0;
#X connect 3 0 8 0;
#X connect 4 0 3 0;
#X connect 6 0 0 0;
#X connect 8 0 7 0;
#X restore 158 228 pd TRIG________;
#X obj 51 133 t f b b;
#X msg 158 250 triggerx \$1;
#X msg 70 265 velocity \$1;
#X obj 70 246 f;
#X msg 51 288 op1freq \$1;
#X obj 158 364 list prepend f-in;
#X obj 158 385 list trim;
#X obj 158 406 outlet;
#X obj 271 404 outlet~;
#X obj 51 63 spigot;
#X obj 85 35 r \$2-keyboard-active;
#X obj 102 226 pow 0.55;
#X connect 0 0 14 0;
#X connect 0 1 2 1;
#X connect 1 0 16 0;
#X connect 2 0 3 0;
#X connect 2 1 1 0;
#X connect 3 0 5 0;
#X connect 4 0 6 0;
#X connect 4 1 13 0;
#X connect 5 0 9 0;
#X connect 5 1 8 0;
#X connect 5 2 4 0;
#X connect 6 0 10 0;
#X connect 7 0 10 0;
#X connect 8 0 7 0;
#X connect 9 0 10 0;
#X connect 10 0 11 0;
#X connect 11 0 12 0;
#X connect 14 0 2 0;
#X connect 15 0 14 1;
#X connect 16 0 8 1;
#X restore 227 101 pd MIDI_KEYBOARD_IN;
#X connect 0 0 11 0;
#X connect 2 0 11 0;
#X connect 3 0 11 1;
#X connect 4 0 16 0;
#X connect 7 0 6 0;
#X connect 8 0 6 1;
#X connect 11 0 1 0;
#X connect 11 1 5 0;
#X connect 11 1 10 0;
#X connect 11 2 5 0;
#X connect 11 2 9 0;
#X connect 11 3 5 0;
#X connect 12 0 11 0;
#X connect 13 0 14 0;
#X connect 14 0 12 0;
#X connect 14 1 15 0;
#X connect 15 0 11 0;
#X connect 16 0 11 2;
#X connect 17 0 11 0;
#X connect 17 1 11 1;
#X restore 28 126 pd SYNTH__________;
#X text 179 13 <- parse incoming messages;
#X text 168 156 <- retreive parameter value from faust DSP then format
and send to GUI;
#X obj 29 16 f.util.oscinparse \$2 \$1;
#X obj 29 183 f.util.oscoutparse \$2 \$1 formuls flooper;
#X connect 5 0 10 0;
#X connect 9 0 4 0;
#X connect 9 1 1 0;
#X connect 9 2 2 0;
#X connect 9 3 3 0;
