#N canvas 451 361 443 515 10;
#X obj 48 15 inlet;
#X obj 77 87 r~ 1-l;
#X obj 93 110 r~ 1-r;
#X obj 110 135 r~ 2-l;
#X obj 126 159 r~ 2-r;
#X obj 143 183 r~ 3-l;
#X obj 160 206 r~ 3-r;
#X obj 176 231 r~ 4-l;
#X obj 193 254 r~ 4-r;
#X obj 209 279 r~ 5-l;
#X obj 226 303 r~ 5-r;
#X obj 243 325 r~ 6-l;
#X obj 259 347 r~ 6-r;
#X obj 77 467 writesf~ 16, f 42;
#X obj 276 369 r~ 7-l;
#X obj 292 392 r~ 7-r;
#X obj 309 416 r~ \$1-rev-l;
#X obj 326 442 r~ \$1-rev-r;
#N canvas 0 23 493 401 FILE_CREATE_REC_STOP_START 0;
#X obj 48 69 sel 1 0;
#X obj 48 103 t b b;
#X msg 48 257 start;
#X obj 112 289 t a;
#X msg 112 101 stop;
#X obj 82 157 date, f 8;
#X obj 147 157 time, f 7;
#X obj 82 194 pack f f f f f f;
#X obj 82 131 t b b;
#X msg 82 221 open /Users/jd25455/Desktop/multitrack_\$1-\$2-\$3_\$4-\$5-\$6.wav
;
#X obj 112 350 outlet;
#X obj 48 16 inlet;
#X connect 0 0 1 0;
#X connect 0 1 4 0;
#X connect 1 0 2 0;
#X connect 1 1 8 0;
#X connect 2 0 3 0;
#X connect 3 0 10 0;
#X connect 4 0 3 0;
#X connect 5 0 7 0;
#X connect 5 1 7 1;
#X connect 5 2 7 2;
#X connect 6 0 7 3;
#X connect 6 1 7 4;
#X connect 6 2 7 5;
#X connect 7 0 9 0;
#X connect 8 0 5 0;
#X connect 8 1 6 0;
#X connect 9 0 3 0;
#X connect 11 0 0 0;
#X restore 48 65 pd FILE_CREATE_REC_STOP_START;
#X connect 0 0 18 0;
#X connect 1 0 13 0;
#X connect 2 0 13 1;
#X connect 3 0 13 2;
#X connect 4 0 13 3;
#X connect 5 0 13 4;
#X connect 6 0 13 5;
#X connect 7 0 13 6;
#X connect 8 0 13 7;
#X connect 9 0 13 8;
#X connect 10 0 13 9;
#X connect 11 0 13 10;
#X connect 12 0 13 11;
#X connect 14 0 13 12;
#X connect 15 0 13 13;
#X connect 16 0 13 14;
#X connect 17 0 13 15;
#X connect 18 0 13 0;
