#N canvas 279 495 334 221 12;
#X obj 104 134 writesf~ 2;
#X obj 104 34 inlet~;
#X obj 171 34 inlet~;
#X obj 48 35 inlet;
#N canvas 0 23 493 401 FILE_CREATE_REC_STOP_START 0;
#X obj 48 69 sel 1 0;
#X obj 48 103 t b b;
#X msg 48 257 start;
#X obj 112 289 t a;
#X msg 112 101 stop;
#X obj 82 157 date, f 8;
#X obj 147 157 time, f 7;
#X obj 82 194 pack f f f f f f;
#X obj 82 131 t b b;
#X msg 82 221 open /Users/jd25455/Desktop/multitrack_\$1-\$2-\$3_\$4-\$5-\$6.wav
;
#X obj 112 350 outlet;
#X obj 48 16 inlet;
#X connect 0 0 1 0;
#X connect 0 1 4 0;
#X connect 1 0 2 0;
#X connect 1 1 8 0;
#X connect 2 0 3 0;
#X connect 3 0 10 0;
#X connect 4 0 3 0;
#X connect 5 0 7 0;
#X connect 5 1 7 1;
#X connect 5 2 7 2;
#X connect 6 0 7 3;
#X connect 6 1 7 4;
#X connect 6 2 7 5;
#X connect 7 0 9 0;
#X connect 8 0 5 0;
#X connect 8 1 6 0;
#X connect 9 0 3 0;
#X connect 11 0 0 0;
#X restore 48 86 pd FILE_CREATE_REC_STOP_START;
#X connect 1 0 0 0;
#X connect 2 0 0 1;
#X connect 3 0 4 0;
#X connect 4 0 0 0;
