#N canvas 837 135 603 244 10;
#X text 262 124 \$1 = \$0 \; \$2 = instance;
#X obj 62 75 s~ \$0-ext-feed;
#X obj 107 56 s~ \$0-adsr-trig;
#X obj 152 37 s~ \$0-env-fol;
#X obj 17 94 s \$0-formuls-param-in;
#X obj 17 181 r \$0-formuls-param-out;
#N canvas 32 576 341 256 LOOPER_________ 0;
#X obj 38 54 r \$0-formuls-param-in;
#X obj 38 201 s \$0-formuls-param-out;
#N canvas 251 292 439 340 RECORDPARSE 0;
#X obj 106 79 sel 1;
#X obj 106 167 del;
#X msg 106 188 0;
#X msg 136 189 1;
#X obj 121 147 r recordtime;
#X obj 106 209 t a;
#X obj 106 281 outlet;
#X obj 106 10 inlet;
#X obj 106 100 t b b b;
#X msg 145 126 stop;
#X obj 229 196 tgl 15 0 empty empty empty 17 7 0 10 -262144 -1 -1 0
1;
#X obj 204 243 s flooperrecord\$2;
#X msg 106 240 record \$1;
#X obj 106 58 route record;
#X connect 0 0 8 0;
#X connect 1 0 2 0;
#X connect 2 0 5 0;
#X connect 3 0 5 0;
#X connect 4 0 1 1;
#X connect 5 0 12 0;
#X connect 5 0 10 0;
#X connect 5 0 11 0;
#X connect 7 0 13 0;
#X connect 8 0 1 0;
#X connect 8 1 3 0;
#X connect 8 2 9 0;
#X connect 9 0 1 0;
#X connect 12 0 6 0;
#X connect 13 0 0 0;
#X connect 13 1 6 0;
#X restore 38 76 pd RECORDPARSE;
#X obj 18 12 tgl 15 0 empty empty empty 17 7 0 10 -262144 -1 -1 0 1
;
#X msg 18 32 active \$1;
#N canvas 488 342 944 548 AUDIO_RECEIVES___ 0;
#X obj 37 485 outlet~;
#X obj 193 484 outlet~;
#X text 6 14 receive audio sends from formulssynth~ abstraction;
#X obj 21 156 *~;
#X obj 21 68 r~ 1-l;
#X obj 36 114 sig~;
#X obj 36 135 lop~ 100;
#X obj 21 177 throw~ \$0-audio-bus-l;
#X obj 37 456 catch~ \$0-audio-bus-l;
#X obj 193 459 catch~ \$0-audio-bus-r;
#X obj 170 158 *~;
#X obj 185 116 sig~;
#X obj 185 137 lop~ 100;
#X obj 170 179 throw~ \$0-audio-bus-l;
#X obj 313 159 *~;
#X obj 328 117 sig~;
#X obj 328 138 lop~ 100;
#X obj 313 180 throw~ \$0-audio-bus-l;
#X obj 462 161 *~;
#X obj 477 119 sig~;
#X obj 477 140 lop~ 100;
#X obj 462 182 throw~ \$0-audio-bus-l;
#X obj 605 162 *~;
#X obj 620 120 sig~;
#X obj 620 141 lop~ 100;
#X obj 605 183 throw~ \$0-audio-bus-l;
#X obj 754 164 *~;
#X obj 769 122 sig~;
#X obj 769 143 lop~ 100;
#X obj 754 185 throw~ \$0-audio-bus-l;
#X obj 169 70 r~ 2-l;
#X obj 313 71 r~ 3-l;
#X obj 462 73 r~ 4-l;
#X obj 605 74 r~ 5-l;
#X obj 754 76 r~ 6-l;
#X obj 22 327 *~;
#X obj 37 285 sig~;
#X obj 37 306 lop~ 100;
#X obj 171 329 *~;
#X obj 186 287 sig~;
#X obj 186 308 lop~ 100;
#X obj 314 330 *~;
#X obj 329 288 sig~;
#X obj 329 309 lop~ 100;
#X obj 463 332 *~;
#X obj 478 290 sig~;
#X obj 478 311 lop~ 100;
#X obj 606 333 *~;
#X obj 621 291 sig~;
#X obj 621 312 lop~ 100;
#X obj 755 335 *~;
#X obj 770 293 sig~;
#X obj 770 314 lop~ 100;
#X obj 22 239 r~ 1-r;
#X obj 170 241 r~ 2-r;
#X obj 314 242 r~ 3-r;
#X obj 463 244 r~ 4-r;
#X obj 606 245 r~ 5-r;
#X obj 755 247 r~ 6-r;
#X obj 23 348 throw~ \$0-audio-bus-r;
#X obj 171 350 throw~ \$0-audio-bus-r;
#X obj 314 351 throw~ \$0-audio-bus-r;
#X obj 463 353 throw~ \$0-audio-bus-r;
#X obj 606 354 throw~ \$0-audio-bus-r;
#X obj 755 356 throw~ \$0-audio-bus-r;
#X obj 36 93 r \$1-audio-in-1;
#X obj 185 95 r \$1-audio-in-2;
#X obj 328 95 r \$1-audio-in-3;
#X obj 477 98 r \$1-audio-in-4;
#X obj 620 99 r \$1-audio-in-5;
#X obj 769 100 r \$1-audio-in-6;
#X obj 770 272 r \$1-audio-in-6;
#X obj 621 270 r \$1-audio-in-5;
#X obj 478 269 r \$1-audio-in-4;
#X obj 329 267 r \$1-audio-in-3;
#X obj 186 266 r \$1-audio-in-2;
#X obj 37 264 r \$1-audio-in-1;
#X connect 3 0 7 0;
#X connect 4 0 3 0;
#X connect 5 0 6 0;
#X connect 6 0 3 1;
#X connect 8 0 0 0;
#X connect 9 0 1 0;
#X connect 10 0 13 0;
#X connect 11 0 12 0;
#X connect 12 0 10 1;
#X connect 14 0 17 0;
#X connect 15 0 16 0;
#X connect 16 0 14 1;
#X connect 18 0 21 0;
#X connect 19 0 20 0;
#X connect 20 0 18 1;
#X connect 22 0 25 0;
#X connect 23 0 24 0;
#X connect 24 0 22 1;
#X connect 26 0 29 0;
#X connect 27 0 28 0;
#X connect 28 0 26 1;
#X connect 30 0 10 0;
#X connect 31 0 14 0;
#X connect 32 0 18 0;
#X connect 33 0 22 0;
#X connect 34 0 26 0;
#X connect 35 0 59 0;
#X connect 36 0 37 0;
#X connect 37 0 35 1;
#X connect 38 0 60 0;
#X connect 39 0 40 0;
#X connect 40 0 38 1;
#X connect 41 0 61 0;
#X connect 42 0 43 0;
#X connect 43 0 41 1;
#X connect 44 0 62 0;
#X connect 45 0 46 0;
#X connect 46 0 44 1;
#X connect 47 0 63 0;
#X connect 48 0 49 0;
#X connect 49 0 47 1;
#X connect 50 0 64 0;
#X connect 51 0 52 0;
#X connect 52 0 50 1;
#X connect 53 0 35 0;
#X connect 54 0 38 0;
#X connect 55 0 41 0;
#X connect 56 0 44 0;
#X connect 57 0 47 0;
#X connect 58 0 50 0;
#X connect 65 0 5 0;
#X connect 66 0 11 0;
#X connect 67 0 15 0;
#X connect 68 0 19 0;
#X connect 69 0 23 0;
#X connect 70 0 27 0;
#X connect 71 0 51 0;
#X connect 72 0 48 0;
#X connect 73 0 45 0;
#X connect 74 0 42 0;
#X connect 75 0 39 0;
#X connect 76 0 36 0;
#X restore 59 102 pd AUDIO_RECEIVES___;
#X obj 69 182 s~ \$2-l;
#X obj 101 162 s~ \$2-r;
#X obj 38 137 flooper~, f 11;
#N canvas 0 23 301 286 REVERB_SEND__ 0;
#X obj 41 202 throw~ \$1-rev-l;
#X obj 40 28 inlet~;
#X obj 40 179 *~;
#X obj 55 111 sig~;
#X obj 55 132 lop~ 100;
#X obj 55 153 *~;
#X obj 160 29 inlet~;
#X obj 160 180 *~;
#X obj 175 112 sig~;
#X obj 175 133 lop~ 100;
#X obj 175 154 *~;
#X obj 161 203 throw~ \$1-rev-r;
#X obj 55 90 r reverb\$2;
#X obj 175 91 r reverb\$2;
#X connect 1 0 2 0;
#X connect 2 0 0 0;
#X connect 3 0 4 0;
#X connect 4 0 5 0;
#X connect 4 0 5 1;
#X connect 5 0 2 1;
#X connect 6 0 7 0;
#X connect 7 0 11 0;
#X connect 8 0 9 0;
#X connect 9 0 10 0;
#X connect 9 0 10 1;
#X connect 10 0 7 1;
#X connect 12 0 3 0;
#X connect 13 0 8 0;
#X restore 188 198 pd REVERB_SEND__;
#X obj 188 176 r~ \$2-l;
#X obj 250 175 r~ \$2-r;
#X connect 0 0 2 0;
#X connect 2 0 8 0;
#X connect 3 0 4 0;
#X connect 4 0 8 0;
#X connect 5 0 8 1;
#X connect 5 1 8 2;
#X connect 8 0 1 0;
#X connect 8 1 6 0;
#X connect 8 2 7 0;
#X connect 10 0 9 0;
#X connect 11 0 9 1;
#X restore 16 148 pd LOOPER_________;
#X text 185 16 <- parse incoming messages;
#X text 176 166 <- retreive parameter value from faust DSP then format
and send to GUI;
#X obj 17 16 f.util.oscinparse \$2 \$1;
#X obj 17 203 f.util.oscoutparse \$2 \$1;
#X connect 5 0 10 0;
#X connect 9 0 4 0;
#X connect 9 1 1 0;
#X connect 9 2 2 0;
#X connect 9 3 3 0;
