#N canvas 713 149 542 223 10;
#X text 254 114 \$1 = \$0 \; \$2 = instance;
#X obj 74 75 s~ \$0-ext-feed;
#X obj 119 56 s~ \$0-adsr-trig;
#X obj 164 37 s~ \$0-env-fol;
#X obj 29 94 s \$0-formuls-param-in;
#X obj 29 161 r \$0-formuls-param-out;
#N canvas 320 758 344 292 SYNTH__________ 1;
#X obj 40 35 r \$0-formuls-param-in;
#X obj 40 222 s \$0-formuls-param-out;
#X obj 61 56 r~ \$0-ext-feed;
#X obj 82 77 r~ \$0-adsr-trig;
#X obj 40 129 formuls~, f 11;
#X obj 103 99 r~ \$0-env-fol;
#X obj 103 163 s~ \$2-m;
#N canvas 0 23 301 286 REVERB_SEND__ 0;
#X obj 41 202 throw~ \$1-rev-l;
#X obj 40 28 inlet~;
#X obj 40 179 *~;
#X obj 55 111 sig~;
#X obj 55 132 lop~ 100;
#X obj 55 153 *~;
#X obj 160 29 inlet~;
#X obj 160 180 *~;
#X obj 175 112 sig~;
#X obj 175 133 lop~ 100;
#X obj 175 154 *~;
#X obj 161 203 throw~ \$1-rev-r;
#X obj 55 90 r reverb\$2;
#X obj 175 91 r reverb\$2;
#X connect 1 0 2 0;
#X connect 2 0 0 0;
#X connect 3 0 4 0;
#X connect 4 0 5 0;
#X connect 4 0 5 1;
#X connect 5 0 2 1;
#X connect 6 0 7 0;
#X connect 7 0 11 0;
#X connect 8 0 9 0;
#X connect 9 0 10 0;
#X connect 9 0 10 1;
#X connect 10 0 7 1;
#X connect 12 0 3 0;
#X connect 13 0 8 0;
#X restore 206 222 pd REVERB_SEND__;
#X obj 206 200 r~ \$2-l;
#X obj 257 200 r~ \$2-r;
#X obj 82 183 s~ \$2-r;
#X obj 61 202 s~ \$2-l;
#X obj 237 148 env~;
#X floatatom 237 169 5 0 0 0 - - -;
#X obj 200 68 print;
#X connect 0 0 4 0;
#X connect 0 0 14 0;
#X connect 2 0 4 1;
#X connect 3 0 4 2;
#X connect 4 0 1 0;
#X connect 4 1 6 0;
#X connect 4 1 11 0;
#X connect 4 1 12 0;
#X connect 4 2 6 0;
#X connect 4 2 10 0;
#X connect 4 3 6 0;
#X connect 5 0 4 3;
#X connect 8 0 7 0;
#X connect 9 0 7 1;
#X connect 12 0 13 0;
#X restore 28 126 pd SYNTH__________;
#X text 179 13 <- parse incoming messages;
#X text 168 156 <- retreive parameter value from faust DSP then format
and send to GUI;
#X obj 29 16 f.util.oscinparse \$2 \$1;
#X obj 29 183 f.util.oscoutparse \$2 \$1 formuls flooper;
#X connect 5 0 10 0;
#X connect 9 0 4 0;
#X connect 9 1 1 0;
#X connect 9 2 2 0;
#X connect 9 3 3 0;
