#N canvas 30 277 914 537 12;
#X obj 19 18 inlet;
#X obj 18 202 throw~ \$0-out-1;
#X obj 97 179 throw~ \$0-out-2;
#X obj 176 157 throw~ \$0-out-3;
#X obj 19 42 s \$0-to-route;
#X obj 18 98 r \$0-to-route;
#X obj 299 205 throw~ \$0-out-1;
#X obj 378 182 throw~ \$0-out-2;
#X obj 457 160 throw~ \$0-out-3;
#X obj 299 101 r \$0-to-route;
#X obj 579 197 throw~ \$0-out-1;
#X obj 658 174 throw~ \$0-out-2;
#X obj 737 152 throw~ \$0-out-3;
#X obj 579 93 r \$0-to-route;
#X obj 17 349 throw~ \$0-out-1;
#X obj 96 326 throw~ \$0-out-2;
#X obj 175 304 throw~ \$0-out-3;
#X obj 17 245 r \$0-to-route;
#X obj 301 341 throw~ \$0-out-1;
#X obj 380 318 throw~ \$0-out-2;
#X obj 459 296 throw~ \$0-out-3;
#X obj 301 237 r \$0-to-route;
#X obj 582 344 throw~ \$0-out-1;
#X obj 661 321 throw~ \$0-out-2;
#X obj 740 299 throw~ \$0-out-3;
#X obj 582 240 r \$0-to-route;
#X obj 34 449 catch~ \$0-out-1;
#X obj 34 473 outlet~;
#X obj 152 475 outlet~;
#X obj 270 476 outlet~;
#X obj 152 451 catch~ \$0-out-2;
#X obj 270 452 catch~ \$0-out-3;
#X text 35 427 to extfeedback;
#X text 165 425 to ADSR trig;
#X text 275 427 to envelopefollower;
#X obj 18 128 f.audio.submodroute~ 1;
#X obj 299 131 f.audio.submodroute~ 2;
#X obj 579 123 f.audio.submodroute~ 3;
#X obj 582 270 f.audio.submodroute~ 6;
#X obj 301 267 f.audio.submodroute~ 5;
#X obj 17 275 f.audio.submodroute~ 4;
#X connect 0 0 4 0;
#X connect 5 0 35 0;
#X connect 9 0 36 0;
#X connect 13 0 37 0;
#X connect 17 0 40 0;
#X connect 21 0 39 0;
#X connect 25 0 38 0;
#X connect 26 0 27 0;
#X connect 30 0 28 0;
#X connect 31 0 29 0;
#X connect 35 0 1 0;
#X connect 35 1 2 0;
#X connect 35 2 3 0;
#X connect 36 0 6 0;
#X connect 36 1 7 0;
#X connect 36 2 8 0;
#X connect 37 0 10 0;
#X connect 37 1 11 0;
#X connect 37 2 12 0;
#X connect 38 0 22 0;
#X connect 38 1 23 0;
#X connect 38 2 24 0;
#X connect 39 0 18 0;
#X connect 39 1 19 0;
#X connect 39 2 20 0;
#X connect 40 0 14 0;
#X connect 40 1 15 0;
#X connect 40 2 16 0;
