#N canvas 488 215 253 252 10;
#X obj 47 37 r f-in;
#X obj 47 193 stdout;
#X obj 47 110 flooper~, f 11;
#X obj 68 154 dac~ 1 2;
#X obj 69 78 adc~ 1 2;
#X obj 171 31 loadbang;
#X msg 170 52 \; pd dsp 1;
#X connect 0 0 2 0;
#X connect 2 0 1 0;
#X connect 2 1 3 0;
#X connect 2 2 3 1;
#X connect 4 0 2 1;
#X connect 4 1 2 2;
#X connect 5 0 6 0;
