#N canvas 65 102 1236 548 10;
#X obj 178 248 max 1;
#X obj 569 59 inlet MAX_STEP_SIZE;
#X obj 719 59 inlet MIN_STEP_SIZE;
#X obj 569 270 s \$0-max-step-size;
#X obj 719 269 s \$0-min-step-size;
#X obj 984 58 inlet REPEAT;
#X obj 984 268 s \$0-repeat;
#X obj 867 58 inlet DIRECTION;
#X obj 23 328 r \$0-result;
#X obj 23 480 outlet;
#X obj 23 380 f;
#X obj 33 351 r \$0-repeat-value;
#X obj 719 247 max 1;
#X obj 867 246 i;
#X obj 867 290 s \$0-direction;
#X obj 569 247 max 1;
#X obj 41 401 r \$0-range-offset;
#X obj 23 422 +;
#X obj 427 60 inlet RANGE_OFFSET;
#X obj 427 248 max 0;
#X obj 427 270 s \$0-range-offset;
#X obj 178 270 s \$0-range;
#X obj 867 268 clip 0 3;
#X text 277 22 |||||| DRUNKEN WALK VALUE GENERATOR ||||||;
#X obj 178 222 \$1;
#X obj 427 222 \$2;
#X obj 569 221 \$3;
#X obj 867 220 \$5;
#X obj 984 220 \$6;
#X obj 996 184 loadbang;
#X obj 22 62 inlet GENERATE+PARAMS;
#X obj 719 221 \$4;
#X obj 265 269 s \$0-result-feedback;
#N canvas 127 27 449 851 RANDOM_GENERATE____ 0;
#X obj 72 63 random;
#X obj 72 380 f;
#X obj 72 402 +;
#X obj 72 335 t b f;
#X obj 72 810 s \$0-result;
#X obj 111 39 r \$0-max-step-size;
#X obj 72 18 r \$0-generate;
#X obj 258 612 mod;
#X obj 125 624 - 1;
#X obj 311 476 r \$0-direction;
#X obj 72 118 max 1;
#X obj 72 85 + 1;
#X obj 72 140 t f b;
#X obj 72 312 *;
#X obj 104 232 random 100;
#X obj 104 254 moses 50;
#X obj 114 159 r \$0-direction;
#X obj 104 182 f;
#X msg 104 285 1;
#X msg 138 285 -1;
#X obj 104 96 r \$0-min-step-size;
#X obj 72 647 clip 0 1;
#X obj 72 424 s \$0-pre-result;
#X obj 72 465 r \$0-pre-result;
#X obj 258 455 r \$0-pre-result;
#X obj 104 785 s \$0-result-feedback;
#X obj 72 669 s \$0-final-processing;
#X obj 258 634 s \$0-final-processing;
#X obj 72 735 r \$0-final-processing;
#X obj 90 360 r \$0-result-feedback;
#X obj 125 602 r \$0-range;
#X obj 276 591 r \$0-range;
#X obj 265 218 r \$0-range;
#X obj 233 240 moses;
#X obj 233 262 moses 1;
#X obj 233 152 r \$0-pre-result;
#X obj 233 194 spigot 0;
#X obj 104 205 sel 0 1 2;
#X obj 286 172 == 3;
#X obj 311 498 == 1;
#X obj 311 520 f;
#X obj 258 571 spigot 0;
#X obj 354 498 == 2;
#X obj 354 520 t b f;
#X obj 311 542 ||;
#X obj 125 488 r \$0-direction;
#X obj 125 532 f;
#X obj 168 532 t b f;
#X obj 125 554 ||;
#X obj 125 510 == 0;
#X obj 168 510 == 3;
#X obj 72 580 spigot 1;
#X obj 72 759 t f f;
#X connect 0 0 11 0;
#X connect 1 0 2 0;
#X connect 2 0 22 0;
#X connect 3 0 1 0;
#X connect 3 1 2 1;
#X connect 5 0 0 1;
#X connect 6 0 0 0;
#X connect 7 0 27 0;
#X connect 8 0 21 2;
#X connect 9 0 39 0;
#X connect 9 0 42 0;
#X connect 10 0 12 0;
#X connect 11 0 10 0;
#X connect 12 0 13 0;
#X connect 12 1 17 0;
#X connect 13 0 3 0;
#X connect 14 0 15 0;
#X connect 15 0 18 0;
#X connect 15 1 19 0;
#X connect 16 0 17 0;
#X connect 17 0 37 0;
#X connect 17 0 38 0;
#X connect 18 0 13 1;
#X connect 19 0 13 1;
#X connect 20 0 10 1;
#X connect 21 0 26 0;
#X connect 23 0 51 0;
#X connect 24 0 41 0;
#X connect 28 0 52 0;
#X connect 29 0 1 1;
#X connect 30 0 8 0;
#X connect 31 0 7 1;
#X connect 32 0 33 1;
#X connect 33 0 34 0;
#X connect 33 1 19 0;
#X connect 34 0 18 0;
#X connect 35 0 36 0;
#X connect 36 0 33 0;
#X connect 37 0 14 0;
#X connect 37 1 18 0;
#X connect 37 2 19 0;
#X connect 38 0 36 1;
#X connect 39 0 40 0;
#X connect 40 0 44 0;
#X connect 41 0 7 0;
#X connect 42 0 43 0;
#X connect 43 0 40 0;
#X connect 43 1 44 1;
#X connect 44 0 41 1;
#X connect 45 0 49 0;
#X connect 45 0 50 0;
#X connect 46 0 48 0;
#X connect 47 0 46 0;
#X connect 47 1 48 1;
#X connect 48 0 51 1;
#X connect 49 0 46 0;
#X connect 50 0 47 0;
#X connect 51 0 21 0;
#X connect 52 0 4 0;
#X connect 52 1 25 0;
#X restore 23 253 pd RANDOM_GENERATE____;
#X text 870 311 0 = random \; 1 = up \; 2 = down \; 3 = up then down
;
#X text 403 331 \$1) range: sets range of values that can be produce
;
#X text 404 349 \$2) offset: offsets the values produce (just like
adding to the result);
#X text 404 380 \$3) maximum step size: the maximum number of steps
a value can jump up or down from the current value;
#X text 405 413 \$4) minimum step size: the minimum number of steps
a value can jump up or down from the current value;
#X text 406 448 \$5) direction of walk: 0 = random \, 1 = ascending
\, 2 = descending \, 3 = up then down.;
#X text 408 481 \$6) chance of repeat: chance in percentage (0-100)
that a value will repeat;
#N canvas 0 23 379 367 REPEAT_SELECT__ 0;
#X obj 214 177 random 100;
#X obj 214 219 moses 0;
#X obj 260 198 r \$0-repeat;
#X obj 260 265 s \$0-generate;
#X obj 214 287 s \$0-repeat-value;
#X msg 214 264 bang;
#X msg 260 242 bang;
#X obj 51 112 i;
#X obj 90 132 r \$0-repeat;
#X obj 50 291 s \$0-generate;
#X obj 77 245 s \$0-repeat-value;
#X msg 77 222 bang;
#X msg 50 268 bang;
#X obj 78 112 + 1;
#X obj 51 25 inlet;
#X obj 51 76 f.util.switch;
#X obj 90 153 clip 1 100;
#X obj 164 51 r \$0-repeat-mode;
#X obj 50 175 mod 1;
#X obj 50 196 sel 0;
#X obj 95 175 change;
#X msg 95 196 0;
#X connect 0 0 1 0;
#X connect 1 0 5 0;
#X connect 1 1 6 0;
#X connect 2 0 1 1;
#X connect 5 0 4 0;
#X connect 6 0 3 0;
#X connect 7 0 13 0;
#X connect 7 0 18 0;
#X connect 8 0 16 0;
#X connect 11 0 10 0;
#X connect 12 0 9 0;
#X connect 13 0 7 1;
#X connect 14 0 15 0;
#X connect 15 0 7 0;
#X connect 15 1 0 0;
#X connect 16 0 18 1;
#X connect 16 0 20 0;
#X connect 17 0 15 1;
#X connect 18 0 19 0;
#X connect 19 0 12 0;
#X connect 19 1 11 0;
#X connect 20 0 21 0;
#X connect 21 0 7 1;
#X restore 22 223 pd REPEAT_SELECT__;
#X obj 1098 192 loadbang;
#X obj 1086 56 inlet REPEAT_MODE;
#X obj 1086 218 \$7;
#X obj 1086 244 clip 0 1;
#X obj 1085 266 s \$0-repeat-mode;
#X obj 22 100 route bang float offset max min direction repeat repeatmode
set;
#X obj 984 246 clip 0 100;
#X connect 0 0 21 0;
#X connect 1 0 26 0;
#X connect 2 0 31 0;
#X connect 5 0 28 0;
#X connect 7 0 27 0;
#X connect 8 0 10 0;
#X connect 10 0 17 0;
#X connect 11 0 10 0;
#X connect 12 0 4 0;
#X connect 13 0 22 0;
#X connect 15 0 3 0;
#X connect 16 0 17 1;
#X connect 17 0 9 0;
#X connect 18 0 25 0;
#X connect 19 0 20 0;
#X connect 22 0 14 0;
#X connect 24 0 0 0;
#X connect 25 0 19 0;
#X connect 26 0 15 0;
#X connect 27 0 13 0;
#X connect 28 0 48 0;
#X connect 29 0 27 0;
#X connect 29 0 26 0;
#X connect 29 0 25 0;
#X connect 29 0 24 0;
#X connect 29 0 31 0;
#X connect 29 0 28 0;
#X connect 30 0 47 0;
#X connect 31 0 12 0;
#X connect 42 0 44 0;
#X connect 43 0 44 0;
#X connect 44 0 45 0;
#X connect 45 0 46 0;
#X connect 47 0 41 0;
#X connect 47 1 24 0;
#X connect 47 2 25 0;
#X connect 47 3 26 0;
#X connect 47 4 31 0;
#X connect 47 5 27 0;
#X connect 47 6 28 0;
#X connect 47 7 44 0;
#X connect 47 8 32 0;
#X connect 48 0 6 0;
