#N canvas 292 60 382 523 10;
#X obj 29 45 inlet;
#X obj 142 411 pipe;
#X obj 187 362 * 1;
#X obj 181 207 sel 0;
#X obj 142 181 t f f f;
#X msg 181 228 clear;
#X obj 187 298 pow 2.7;
#X obj 29 489 outlet;
#X obj 202 318 r \$0-seq-warp;
#X obj 208 255 r \$0-seq-length;
#X obj 142 383 pack f f;
#X obj 85 44 inlet warp-amount;
#X obj 203 41 inlet seq-length;
#X obj 85 65 clip 0 1;
#X obj 85 86 s \$0-seq-warp;
#X obj 203 62 max 1;
#X obj 203 83 s \$0-seq-length;
#X text 24 8 warp: gradually increase the time period between incoming
beats;
#X obj 29 160 f.util.switch;
#X obj 142 139 r \$0-seq-warp;
#X obj 187 276 / 64;
#X obj 202 339 * 500;
#X connect 0 0 18 0;
#X connect 1 0 7 0;
#X connect 2 0 10 1;
#X connect 3 0 5 0;
#X connect 4 0 10 0;
#X connect 4 1 20 0;
#X connect 4 2 3 0;
#X connect 5 0 1 0;
#X connect 6 0 2 0;
#X connect 8 0 21 0;
#X connect 9 0 20 1;
#X connect 10 0 1 0;
#X connect 11 0 13 0;
#X connect 12 0 15 0;
#X connect 13 0 14 0;
#X connect 15 0 16 0;
#X connect 18 0 7 0;
#X connect 18 1 4 0;
#X connect 19 0 18 1;
#X connect 20 0 6 0;
#X connect 21 0 2 1;
