#N canvas 989 197 451 681 10;
#X obj 32 36 inlet;
#X obj 33 629 outlet;
#N canvas 691 23 515 799 VALUE_READ_EVOLUTION_SEND 0;
#X obj 41 749 outlet;
#X obj 119 645 == 0;
#X obj 66 693 s \$2-gui;
#X obj 66 669 spigot 1;
#X obj 41 520 f;
#X msg 81 519 \$2 \$3;
#X obj 121 318 t f f;
#X obj 81 399 spigot 0;
#X msg 62 315 0;
#X obj 62 293 sel 1 0;
#X obj 148 342 change;
#X msg 148 364 1;
#X obj 86 99 == 0;
#X obj 41 121 spigot 1;
#X obj 41 559 line 0 5;
#X obj 66 623 f;
#X obj 66 645 change;
#X obj 81 492 pack f f 16000;
#X msg 67 199 bang;
#X obj 67 221 \$3;
#X obj 41 248 t a;
#X obj 41 35 r \$0-input-1;
#X obj 121 294 r \$0-input-1;
#X obj 108 446 s \$0-clear;
#X obj 81 423 t f b;
#X obj 58 150 r \$0-textseq;
#X obj 161 645 r \$0-input-1;
#X obj 161 666 spigot 0;
#X obj 314 411 del;
#X obj 314 299 spigot;
#X msg 347 256 0;
#X obj 360 278 r \$0-value-change;
#X msg 360 342 stop;
#X obj 329 480 r \$0-input-1;
#X obj 314 502 f;
#X obj 314 433 t b b;
#X text 40 7 Reads from the u.seq object/evolution;
#X obj 314 321 t b b b;
#X obj 333 389 f;
#X obj 341 454 s \$0-textseq-reset;
#X obj 314 232 sel 0 1;
#X obj 119 621 r \$0-record;
#X obj 66 598 r \$0-throttle;
#X obj 314 207 r \$0-jump;
#X obj 99 77 r \$0-jump;
#X obj 86 57 r \$0-evolve;
#X obj 62 271 r \$0-evolve;
#X obj 348 367 r \$0-evolve;
#X obj 162 469 r \$0-evolve-time;
#X obj 67 177 r \$0-reset;
#N canvas 966 296 328 531 CHAOS______ 0;
#X obj 43 425 +;
#X obj 43 446 clip 0 1;
#X obj 43 8 inlet;
#X obj 43 495 outlet;
#X obj 43 401 f;
#X obj 54 378 t b f;
#X obj 167 245 r \$0-chaos-trig;
#X obj 54 356 f;
#X obj 54 266 f.util.switch;
#X obj 54 155 random 200;
#X obj 54 176 - 100;
#X obj 54 197 * 0.01;
#X obj 54 238 *;
#X obj 69 218 r \$0-chaos;
#X obj 54 72 r \$0-chaos;
#X obj 54 93 > 0;
#X obj 54 114 change;
#X obj 54 133 metro 10;
#X obj 160 166 r \$0-reset;
#X msg 160 187 0;
#X obj 160 211 t f f;
#X obj 83 239 sel 0;
#X obj 62 291 r \$0-c-trig;
#X obj 95 312 r \$0-chaos-trig;
#X obj 62 333 spigot;
#X connect 0 0 1 0;
#X connect 1 0 3 0;
#X connect 2 0 4 0;
#X connect 4 0 0 0;
#X connect 5 0 4 0;
#X connect 5 1 0 1;
#X connect 6 0 8 1;
#X connect 7 0 5 0;
#X connect 8 0 7 0;
#X connect 8 1 7 1;
#X connect 9 0 10 0;
#X connect 10 0 11 0;
#X connect 11 0 12 0;
#X connect 12 0 8 0;
#X connect 13 0 12 1;
#X connect 13 0 21 0;
#X connect 14 0 15 0;
#X connect 15 0 16 0;
#X connect 16 0 17 0;
#X connect 17 0 9 0;
#X connect 18 0 19 0;
#X connect 19 0 20 0;
#X connect 19 0 12 1;
#X connect 19 0 15 0;
#X connect 19 0 17 0;
#X connect 20 0 0 1;
#X connect 20 1 8 1;
#X connect 20 1 12 1;
#X connect 21 0 19 0;
#X connect 22 0 24 0;
#X connect 23 0 24 1;
#X connect 24 0 7 0;
#X restore 41 578 pd CHAOS______;
#X text 133 698 <- send to GUI;
#X connect 1 0 3 1;
#X connect 3 0 2 0;
#X connect 4 0 14 0;
#X connect 5 0 14 0;
#X connect 6 0 17 1;
#X connect 6 1 10 0;
#X connect 7 0 24 0;
#X connect 8 0 7 1;
#X connect 9 0 8 0;
#X connect 9 1 7 0;
#X connect 10 0 11 0;
#X connect 11 0 7 1;
#X connect 12 0 13 1;
#X connect 13 0 20 0;
#X connect 14 0 50 0;
#X connect 15 0 16 0;
#X connect 16 0 3 0;
#X connect 17 0 5 0;
#X connect 18 0 19 0;
#X connect 19 0 20 0;
#X connect 20 0 4 0;
#X connect 21 0 13 0;
#X connect 22 0 6 0;
#X connect 24 0 17 0;
#X connect 24 1 23 0;
#X connect 25 0 20 0;
#X connect 26 0 27 0;
#X connect 27 0 2 0;
#X connect 28 0 35 0;
#X connect 29 0 37 0;
#X connect 30 0 29 1;
#X connect 31 0 29 1;
#X connect 32 0 28 0;
#X connect 33 0 34 1;
#X connect 34 0 14 0;
#X connect 35 0 34 0;
#X connect 35 1 39 0;
#X connect 37 0 28 0;
#X connect 37 1 38 0;
#X connect 37 2 32 0;
#X connect 38 0 28 1;
#X connect 40 0 29 0;
#X connect 40 1 30 0;
#X connect 41 0 1 0;
#X connect 41 0 27 1;
#X connect 42 0 15 0;
#X connect 43 0 40 0;
#X connect 44 0 12 0;
#X connect 45 0 12 0;
#X connect 46 0 9 0;
#X connect 47 0 38 1;
#X connect 48 0 17 2;
#X connect 49 0 18 0;
#X connect 50 0 15 1;
#X connect 50 0 0 0;
#X restore 33 580 pd VALUE_READ_EVOLUTION_SEND;
#N canvas 323 318 857 447 TIMING_+_SCHEDULING______ 0;
#X obj 47 304 spigot;
#X msg 111 277 1;
#X obj 15 89 t b b;
#X msg 80 277 0;
#X msg 551 111 bang;
#X obj 111 204 sel 0;
#X obj 111 180 spigot;
#X msg 160 156 1;
#X obj 84 132 t b f;
#X msg 129 156 0;
#X msg 689 119 tempo \$1;
#X obj 343 114 sel 1;
#X msg 262 159 1;
#X obj 689 94 r global-tempo-disabled;
#X obj 502 178 r \$0-clear;
#X obj 122 256 r \$0-to-spigot;
#X obj 160 130 r \$0-in-1;
#X obj 262 89 r \$0-in-2;
#X obj 470 89 r \$0-in-3;
#X obj 262 181 s \$0-record-on-off;
#X obj 47 394 s \$0-textseq-in;
#X obj 689 141 s \$0-textseq-tempo;
#X obj 470 205 s \$0-textseq-reset;
#X obj 92 347 == 0;
#X obj 47 370 spigot 1;
#X text 349 20 timing + scheduling;
#X obj 80 234 r \$0-clear;
#X obj 84 108 r \$0-record;
#X obj 343 89 r \$0-record;
#X obj 551 88 r \$0-record;
#X obj 15 66 r \$0-clockin;
#X obj 92 325 r \$0-loop-trig;
#X obj 484 158 r \$0-reset;
#X obj 262 136 f.util.onebang;
#X obj 470 132 f.util.onebang;
#X obj 163 232 r \$0-reset;
#X connect 0 0 24 0;
#X connect 1 0 0 1;
#X connect 2 0 3 0;
#X connect 2 1 0 0;
#X connect 3 0 0 1;
#X connect 4 0 34 1;
#X connect 5 0 1 0;
#X connect 6 0 5 0;
#X connect 7 0 6 1;
#X connect 8 0 9 0;
#X connect 8 1 6 0;
#X connect 9 0 6 1;
#X connect 10 0 21 0;
#X connect 11 0 33 1;
#X connect 11 1 19 0;
#X connect 12 0 19 0;
#X connect 13 0 10 0;
#X connect 14 0 22 0;
#X connect 15 0 1 0;
#X connect 16 0 7 0;
#X connect 17 0 33 0;
#X connect 18 0 34 0;
#X connect 23 0 24 1;
#X connect 23 0 0 1;
#X connect 24 0 20 0;
#X connect 26 0 3 0;
#X connect 27 0 8 0;
#X connect 28 0 11 0;
#X connect 29 0 4 0;
#X connect 30 0 2 0;
#X connect 31 0 23 0;
#X connect 32 0 22 0;
#X connect 33 0 12 0;
#X connect 34 0 22 0;
#X connect 35 0 3 0;
#X restore 33 539 pd TIMING_+_SCHEDULING______;
#N canvas 820 197 313 622 VALUE_IN_LOGIC___________ 0;
#X obj 42 26 inlet;
#X obj 42 457 spigot;
#X obj 42 385 t a a;
#X obj 69 411 s \$0-input-1;
#X obj 42 481 t b b b a;
#X obj 42 575 s \$0-in-1;
#X obj 62 555 s \$0-in-2;
#X obj 102 514 s \$0-in-4;
#X obj 82 534 s \$0-in-3;
#X obj 42 228 spigot 1;
#X obj 115 202 == 0;
#X obj 115 339 f;
#X obj 115 316 t b b;
#X obj 124 131 change;
#X msg 124 153 1;
#X obj 115 294 spigot;
#X msg 148 251 0;
#X obj 124 175 s \$0-value-change;
#X obj 161 274 r \$0-value-change;
#X obj 124 110 spigot;
#X obj 115 227 sel 1 0;
#X obj 142 340 s \$0-textseq-reset;
#X obj 75 435 r \$0-record;
#X obj 115 53 r \$0-set;
#X obj 157 83 r \$0-jump;
#X obj 42 59 t f f f;
#X connect 0 0 25 0;
#X connect 1 0 4 0;
#X connect 2 0 1 0;
#X connect 2 1 3 0;
#X connect 4 0 5 0;
#X connect 4 1 6 0;
#X connect 4 2 8 0;
#X connect 4 3 7 0;
#X connect 9 0 2 0;
#X connect 10 0 9 1;
#X connect 10 0 20 0;
#X connect 11 0 2 0;
#X connect 12 0 11 0;
#X connect 12 1 21 0;
#X connect 13 0 14 0;
#X connect 14 0 17 0;
#X connect 15 0 12 0;
#X connect 16 0 15 1;
#X connect 18 0 15 1;
#X connect 19 0 13 0;
#X connect 20 0 15 0;
#X connect 20 1 16 0;
#X connect 22 0 1 1;
#X connect 23 0 10 0;
#X connect 23 0 19 1;
#X connect 24 0 19 1;
#X connect 25 0 9 0;
#X connect 25 1 11 1;
#X connect 25 2 19 0;
#X restore 33 518 pd VALUE_IN_LOGIC___________;
#X obj 55 452 s \$0-evolve;
#X obj 150 370 s \$0-clockin;
#X obj 222 311 s \$0-reverse;
#X obj 32 474 s \$0-record;
#X obj 127 389 s \$0-set;
#X obj 103 409 s \$0-jump;
#X obj 198 331 s \$0-tempo;
#X obj 174 351 s \$0-throttle;
#X obj 79 429 s \$0-evolve-time;
#X obj 33 496 r \$0-value-in;
#X text 48 12 automater: records automation and syncs to a 'master-clock'
;
#N canvas 35 242 450 494 SEQ_RECORD_OBJECT________ 0;
#X obj 61 42 r \$0-record-on-off;
#X obj 61 446 s \$0-textseq;
#X obj 82 127 r \$0-textseq-in;
#X obj 105 280 r \$0-textseq-reset;
#X obj 73 83 r \$0-in-4;
#X msg 61 63 record \$1;
#X msg 73 105 value \$1;
#X msg 82 169 trigger bang;
#X msg 101 257 tempo \$1;
#X msg 94 214 reverse \$1;
#X msg 105 302 stop bang;
#X msg 118 389 trigger bang;
#X text 48 15 u.seq: array based sequencer;
#X obj 101 235 r \$0-tempo;
#X obj 94 192 r \$0-reverse;
#X obj 118 324 r \$0-trig;
#X obj 151 345 r \$0-loop-trig;
#X obj 218 374 r \$0-active;
#X msg 218 395 active \$1;
#X obj 61 422 f.seq.record \$0 6000;
#X obj 118 367 spigot 0;
#X obj 178 442 s \$0-to-spigot;
#X obj 151 148 spigot 1;
#X connect 0 0 5 0;
#X connect 2 0 22 0;
#X connect 2 0 7 0;
#X connect 3 0 10 0;
#X connect 4 0 6 0;
#X connect 5 0 19 0;
#X connect 6 0 19 0;
#X connect 7 0 19 0;
#X connect 8 0 19 0;
#X connect 9 0 19 0;
#X connect 10 0 19 0;
#X connect 11 0 19 0;
#X connect 13 0 8 0;
#X connect 14 0 9 0;
#X connect 15 0 20 0;
#X connect 16 0 20 1;
#X connect 17 0 18 0;
#X connect 18 0 19 0;
#X connect 19 0 1 0;
#X connect 19 1 21 0;
#X connect 20 0 11 0;
#X restore 33 559 pd SEQ_RECORD_OBJECT________;
#X obj 246 292 s \$0-chaos;
#X obj 48 61 f.seq.automatermessage \$1;
#X obj 265 273 s \$0-chaos-trig;
#X obj 335 306 s \$0-c-trig;
#X obj 32 81 route record evolve evolvetime jump set clockin throttle
tempo reverse chaos chaostrig ctrig looptrig trig reset float active
;
#X obj 373 139 s \$0-active;
#X obj 365 165 s \$0-value-in;
#X obj 351 189 s \$0-reset;
#X obj 336 211 s \$0-trig;
#X obj 312 231 s \$0-loop-trig;
#X obj 289 254 s \$0-c-trig;
#X obj 230 508 r automateRecord;
#X obj 230 572 spigot;
#X obj 333 528 t b;
#X msg 333 549 1;
#X obj 230 549 moses 1;
#X obj 230 528 t f b;
#X obj 333 507 r \$0-in-1;
#X obj 230 633 outlet;
#X msg 230 593 1;
#X connect 0 0 21 0;
#X connect 2 0 1 0;
#X connect 14 0 4 0;
#X connect 18 0 21 0;
#X connect 21 0 8 0;
#X connect 21 1 5 0;
#X connect 21 2 13 0;
#X connect 21 3 10 0;
#X connect 21 4 9 0;
#X connect 21 5 6 0;
#X connect 21 6 12 0;
#X connect 21 7 11 0;
#X connect 21 8 7 0;
#X connect 21 9 17 0;
#X connect 21 10 19 0;
#X connect 21 11 27 0;
#X connect 21 12 26 0;
#X connect 21 13 25 0;
#X connect 21 14 24 0;
#X connect 21 15 23 0;
#X connect 21 16 22 0;
#X connect 28 0 33 0;
#X connect 29 0 36 0;
#X connect 30 0 31 0;
#X connect 31 0 29 1;
#X connect 32 0 29 1;
#X connect 33 0 32 0;
#X connect 33 1 29 0;
#X connect 34 0 30 0;
#X connect 36 0 35 0;
