#N canvas 1239 106 364 873 10;
#X obj 40 798 outlet;
#X msg 111 350 looptrig \$1;
#X obj 111 307 loadbang;
#X obj 40 15 r automateRecord;
#X msg 40 36 record \$1;
#X obj 40 716 t a;
#X obj 56 58 r evolution-active;
#X msg 56 79 evolve \$1;
#X obj 66 101 r evolution-time;
#X msg 66 122 evolvetime \$1;
#X obj 74 143 r set-value;
#X msg 74 164 set \$1;
#X obj 82 183 r jump-active;
#X msg 82 203 jump \$1;
#X obj 165 564 r \$1-reset;
#X msg 165 585 reset;
#X obj 145 327 r \$2-trig;
#X obj 125 394 spigot;
#X obj 134 477 r \$1-reverse;
#X msg 134 498 reverse \$1;
#X obj 147 520 r \$1-chaos;
#X msg 147 541 chaos \$1;
#X msg 129 458 tempo \$1;
#X obj 129 437 r \$1-speed;
#X obj 125 373 r \$1-automater-trig;
#X msg 100 284 throttle bang;
#X msg 92 244 clockin bang;
#X msg 125 415 trig bang;
#X obj 40 770 spigot 1;
#X obj 92 223 r masterClock;
#X obj 100 263 r master-timer-in;
#X obj 199 648 r \$1-seq-play;
#X obj 186 607 r \$1-seq-record;
#X msg 221 710 beat \$1;
#X obj 231 731 r \$1-seq-step;
#X msg 241 792 seqreset bang;
#X obj 241 771 r \$1-seq-reset;
#X obj 251 630 tgl 15 0 empty empty empty 17 7 0 10 -262144 -1 -1 0
1;
#X msg 275 627 seqrecord \$1;
#X msg 231 752 seqstep \$1 \$2;
#X obj 221 689 r \$1-seq-beat;
#X obj 231 818 r \$1-seq-trans-time;
#X msg 231 839 seqtranstime \$1;
#X msg 199 669 seqplay \$1;
#X msg 248 337 1;
#X obj 85 705 loadbang;
#X obj 85 747 == 0;
#X obj 85 726 \$2;
#X obj 238 559 r \$1-chaos-trig;
#X msg 238 580 chaostrig \$1;
#X msg 111 328 0;
#X connect 1 0 5 0;
#X connect 2 0 50 0;
#X connect 3 0 4 0;
#X connect 4 0 5 0;
#X connect 5 0 28 0;
#X connect 6 0 7 0;
#X connect 7 0 5 0;
#X connect 8 0 9 0;
#X connect 9 0 5 0;
#X connect 10 0 11 0;
#X connect 11 0 5 0;
#X connect 12 0 13 0;
#X connect 13 0 5 0;
#X connect 14 0 15 0;
#X connect 15 0 5 0;
#X connect 16 0 1 0;
#X connect 16 0 17 1;
#X connect 17 0 27 0;
#X connect 18 0 19 0;
#X connect 19 0 5 0;
#X connect 20 0 21 0;
#X connect 21 0 5 0;
#X connect 22 0 5 0;
#X connect 23 0 22 0;
#X connect 24 0 17 0;
#X connect 25 0 5 0;
#X connect 26 0 5 0;
#X connect 27 0 5 0;
#X connect 28 0 0 0;
#X connect 29 0 26 0;
#X connect 30 0 25 0;
#X connect 31 0 43 0;
#X connect 32 0 37 0;
#X connect 32 0 38 0;
#X connect 33 0 5 0;
#X connect 34 0 39 0;
#X connect 35 0 5 0;
#X connect 36 0 35 0;
#X connect 38 0 5 0;
#X connect 39 0 5 0;
#X connect 40 0 33 0;
#X connect 41 0 42 0;
#X connect 42 0 5 0;
#X connect 43 0 5 0;
#X connect 44 0 22 0;
#X connect 45 0 47 0;
#X connect 47 0 46 0;
#X connect 48 0 49 0;
#X connect 49 0 5 0;
#X connect 50 0 1 0;
