#N canvas 396 247 334 481 10;
#X obj 21 449 outlet;
#X obj 48 158 i;
#X obj 48 179 change;
#X obj 48 200 t b;
#X obj 21 359 / 1;
#X obj 36 267 f 4;
#X obj 36 337 f 1;
#X obj 21 134 t f f;
#X obj 21 36 inlet beat-in;
#X text 73 4 BEAT SUBDIVISION/EXPANSION;
#X obj 115 98 s \$0-timebase;
#X obj 163 77 s \$0-timebase-multiplier;
#X obj 50 246 r \$0-timebase;
#X obj 51 318 r \$0-timebase-multiplier;
#X obj 21 290 * 4;
#X obj 115 36 inlet;
#X obj 163 36 inlet;
#X obj 21 386 i;
#X obj 21 407 change;
#X connect 1 0 2 0;
#X connect 2 0 3 0;
#X connect 3 0 5 0;
#X connect 3 0 6 0;
#X connect 4 0 17 0;
#X connect 5 0 14 1;
#X connect 6 0 4 1;
#X connect 7 0 14 0;
#X connect 7 1 1 0;
#X connect 8 0 7 0;
#X connect 12 0 5 1;
#X connect 13 0 6 1;
#X connect 14 0 4 0;
#X connect 15 0 10 0;
#X connect 16 0 11 0;
#X connect 17 0 18 0;
#X connect 18 0 0 0;
