#N canvas 316 339 339 446 10;
#X obj 22 22 r o-s-c-messages;
#X obj 22 404 outlet;
#X obj 22 324 r formuls\$1;
#X obj 147 328 r \$0-mod-routing;
#N canvas 137 483 295 252 SEQUENCER_BEAT__ 0;
#X obj 166 96 s \$0-seq-length;
#X obj 64 51 r \$0-seq-messages;
#X obj 55 76 f.seq.sequencer;
#X obj 55 20 r link;
#X msg 55 161 triggerx \$1;
#X obj 55 182 s formuls\$1;
#X obj 64 97 s \$0-value-send;
#N canvas 0 32 233 291 TRIG________ 0;
#X obj 70 99 t b b;
#X obj 70 120 del 2;
#X msg 70 141 0;
#X obj 70 162 t a;
#X msg 106 138 1;
#X obj 70 213 outlet;
#X obj 70 46 inlet;
#X obj 137 215 outlet~;
#X obj 137 182 sig~;
#X connect 0 0 1 0;
#X connect 0 1 4 0;
#X connect 1 0 2 0;
#X connect 2 0 3 0;
#X connect 3 0 5 0;
#X connect 3 0 8 0;
#X connect 4 0 3 0;
#X connect 6 0 0 0;
#X connect 8 0 7 0;
#X restore 55 119 pd TRIG________;
#X obj 142 183 s~ \$0-trig-sig;
#X obj 153 76 s seq-messages-\$1;
#X connect 1 0 2 0;
#X connect 1 0 9 0;
#X connect 2 0 7 0;
#X connect 2 0 6 0;
#X connect 3 0 2 0;
#X connect 4 0 5 0;
#X connect 7 0 4 0;
#X connect 7 1 8 0;
#X restore 22 258 pd SEQUENCER_BEAT__;
#X obj 147 405 outlet~;
#X obj 199 406 outlet~;
#X obj 252 407 outlet~;
#N canvas 328 46 257 186 OSC_COLLECT_MANIPULATE 0;
#X obj 42 26 r \$0-OSC-collect-\$1;
#X obj 42 49 oscparse;
#X obj 52 94 r \$0-OSC-collect-2-\$1;
#X obj 42 135 s formuls\$1;
#X obj 42 71 list trim;
#X connect 0 0 1 0;
#X connect 1 0 4 0;
#X connect 2 0 3 0;
#X connect 4 0 3 0;
#X restore 22 278 pd OSC_COLLECT_MANIPULATE;
#X obj 147 348 f.audio.modroute~;
#X msg 129 23 reset1;
#X obj 22 345 list prepend f-in;
#X obj 22 366 list trim;
#X obj 214 374 r~ \$0-trig-sig;
#N canvas 0 23 1440 855 ACT_TRIG_CHAOS_TRIG___ 0;
#X obj 30 18 inlet;
#X obj 1098 601 s \$0-OSC-collect-2-\$1;
#X obj 1124 559 s \$0-OSC-collect-2-\$1;
#X obj 1153 515 s \$0-OSC-collect-2-\$1;
#X obj 1209 432 s \$0-OSC-collect-2-\$1;
#X obj 1237 390 s \$0-OSC-collect-2-\$1;
#X obj 1264 348 s \$0-OSC-collect-2-\$1;
#X obj 1292 308 s \$0-OSC-collect-2-\$1;
#X obj 1320 267 s \$0-OSC-collect-2-\$1;
#X obj 1348 226 s \$0-OSC-collect-2-\$1;
#X obj 1376 187 s \$0-OSC-collect-2-\$1;
#X obj 1404 148 s \$0-OSC-collect-2-\$1;
#X obj 1432 110 s \$0-OSC-collect-2-\$1;
#X obj 1497 355 s \$0-OSC-collect-2-\$1;
#X obj 1655 657 outlet;
#X msg 1098 580 fxschaostrig \$1;
#X msg 1125 538 amwchaostrig \$1;
#X msg 1153 474 amfchaostrig \$1;
#X msg 1167 495 amdchaostrig \$1;
#X msg 1209 411 satchaostrig \$1;
#X msg 1237 369 bitchaostrig \$1;
#X msg 1265 328 pitchaostrig \$1;
#X msg 1292 288 hipchaostrig \$1;
#X msg 1320 247 lopchaostrig \$1;
#X msg 1348 206 frchaostrig \$1;
#X msg 1376 168 dschaostrig \$1;
#X msg 1404 129 dtchaostrig \$1;
#X msg 1432 91 dfchaostrig \$1;
#X msg 1497 336 gtchaostrig \$1;
#X obj 1511 315 s \$0-OSC-collect-2-\$1;
#X msg 1511 296 gachaostrig \$1;
#X obj 1528 277 s \$0-OSC-collect-2-\$1;
#X msg 1528 258 ghchaostrig \$1;
#X obj 1544 237 s \$0-OSC-collect-2-\$1;
#X msg 1544 218 grchaostrig \$1;
#X obj 1556 198 s \$0-OSC-collect-2-\$1;
#X msg 1556 179 panchaostrig \$1;
#X obj 1098 28 route fxschaostrig\$1 amwchaostrig\$1 amchaostrig\$1
null satchaostrig\$1 bitchaostrig\$1 pitchaostrig\$1 hipchaostrig\$1
fcchaostrig\$1 frchaostrig\$1 dschaostrig\$1 dtchaostrig\$1 dfchaostrig\$1
gtchaostrig\$1 gachaostrig\$1 ghchaostrig\$1 grchaostrig\$1 panchaostrig\$1
revchaostrig\$1, f 84;
#X obj 1580 133 s \$0-reverb-chaos-trig;
#X obj 1512 572 s \$0-genrange-chaos-trig;
#X obj 1608 546 s \$0-genstep-chaos-trig;
#X obj 39 122 t b f;
#X obj 30 147 f;
#X obj 30 171 +;
#X obj 30 196 +;
#X obj 79 122 t b f;
#X obj 30 220 > 0;
#X obj 30 243 change;
#X obj 30 264 s modeselect\$1;
#X obj 220 74 s chaostrig\$1;
#X obj 125 74 s trig\$1;
#X obj 39 74 s act\$1;
#X obj 30 49 route actglobal\$1 trigglobal\$1 chaostrigglobal\$1;
#X obj 336 48 route op1label\$1 op2label\$1 noiselabel\$1 slidelabel\$1
extmodlabel\$1;
#X obj 336 161 f.util.xywidgetparse \$0 \$1 op1 op1f w;
#X obj 399 142 f.util.xywidgetparse \$0 \$1 op2 op2f op2d;
#X obj 462 121 f.util.xywidgetparse \$0 \$1 noise n nf;
#X obj 525 102 f.util.xywidgetparse \$0 \$1 slide op1sr op1st;
#X obj 588 83 f.util.widgetparse \$0 \$1 extmod ext;
#X obj 334 345 f.util.widgetparse \$0 \$1 velocity v;
#X obj 383 326 f.util.widgetparse \$0 \$1 threshold th;
#X obj 432 305 f.util.widgetparse \$0 \$1 seqrandomadd sra;
#X obj 481 286 f.util.widgetparse \$0 \$1 attack a;
#X obj 531 267 f.util.widgetparse \$0 \$1 decay d;
#X obj 629 227 f.util.widgetparse \$0 \$1 release r;
#X obj 580 246 f.util.widgetparse \$0 \$1 sustain s;
#X obj 334 191 route velocitylabel\$1 thresholdlabel\$1 seqrandomaddlabel\$1
attacklabel\$1 decaylabel\$1 sustainlabel\$1 releaselabel\$1;
#X obj 331 394 route saturationlabel\$1 bitcrushlabel\$1 pitchshiftlabel\$1
filtercutofflabel\$1 filterresonancelabel\$1 delaysendlabel\$1 delaytimelabel\$1
delayfeedbacklabel\$1 amfreqdepthlabel\$1 amwavelabel\$1 gatethreshlabel\$1
gateattacklabel\$1 gateholdlabel\$1 gatereleaselabel\$1;
#X obj 331 716 f.util.widgetparse \$0 \$1 saturation sat;
#X obj 356 697 f.util.widgetparse \$0 \$1 bitcrush bit;
#X obj 381 676 f.util.widgetparse \$0 \$1 pitchshift pit;
#X obj 431 638 f.util.widgetparse \$0 \$1 filterresonance fr;
#X obj 456 617 f.util.widgetparse \$0 \$1 delaysend ds;
#X obj 506 578 f.util.widgetparse \$0 \$1 delayfeedback df;
#X obj 581 519 f.util.widgetparse \$0 \$1 gatethresh gt;
#X obj 606 500 f.util.widgetparse \$0 \$1 gateattack ga;
#X obj 631 479 f.util.widgetparse \$0 \$1 gatehold gh;
#X obj 656 460 f.util.widgetparse \$0 \$1 gaterelease gr;
#X obj 556 538 f.util.xywidgetparse \$0 \$1 amwave amw;
#X obj 406 657 f.util.widgetparse \$0 \$1 filtercutoff hip lop;
#X obj 531 559 f.util.widgetparse \$0 \$1 amfreqdepth amf amd;
#X obj 1512 521 route grchaostrig\$1 gschaostrig\$1;
#X obj 329 755 route fxsendlabel\$1 reverblabel\$1 panninglabel\$1
genrangelabel\$1 genstepsizelabel\$1 seqtimebaselabel\$1;
#X obj 329 889 f.util.widgetparse \$0 \$1 fxsend fxs;
#X obj 378 870 f.util.widgetparse \$0 \$1 reverb reverb;
#X obj 429 849 f.util.widgetparse \$0 \$1 panning pan;
#X obj 476 830 f.util.widgetparse \$0 \$1 genrange genrange;
#X obj 526 811 f.util.widgetparse \$0 \$1 genstepsize genstepsize;
#X obj 575 790 f.util.widgetparse \$0 \$1 seqtimebase seqtimebase;
#X obj 589 894 s \$0-reverb-chaos-trig;
#X obj 719 862 s \$0-genrange-chaos-trig;
#X obj 815 836 s \$0-genstep-chaos-trig;
#X obj 861 813 s \$0-seqtimebase-chaos-trig;
#X obj 481 598 f.util.widgetparse \$0 \$1 delaytime dt;
#X connect 0 0 52 0;
#X connect 15 0 1 0;
#X connect 16 0 2 0;
#X connect 17 0 3 0;
#X connect 18 0 3 0;
#X connect 19 0 4 0;
#X connect 20 0 5 0;
#X connect 21 0 6 0;
#X connect 22 0 7 0;
#X connect 23 0 8 0;
#X connect 24 0 9 0;
#X connect 25 0 10 0;
#X connect 26 0 11 0;
#X connect 27 0 12 0;
#X connect 28 0 13 0;
#X connect 30 0 29 0;
#X connect 32 0 31 0;
#X connect 34 0 33 0;
#X connect 36 0 35 0;
#X connect 37 0 15 0;
#X connect 37 1 16 0;
#X connect 37 2 17 0;
#X connect 37 2 18 0;
#X connect 37 4 19 0;
#X connect 37 5 20 0;
#X connect 37 6 21 0;
#X connect 37 7 22 0;
#X connect 37 8 23 0;
#X connect 37 9 24 0;
#X connect 37 10 25 0;
#X connect 37 11 26 0;
#X connect 37 12 27 0;
#X connect 37 13 28 0;
#X connect 37 14 30 0;
#X connect 37 15 32 0;
#X connect 37 16 34 0;
#X connect 37 17 36 0;
#X connect 37 18 38 0;
#X connect 37 19 14 0;
#X connect 37 19 81 0;
#X connect 41 0 42 0;
#X connect 41 1 43 1;
#X connect 42 0 43 0;
#X connect 43 0 44 0;
#X connect 44 0 46 0;
#X connect 45 0 42 0;
#X connect 45 1 44 1;
#X connect 46 0 47 0;
#X connect 47 0 48 0;
#X connect 52 0 42 0;
#X connect 52 0 51 0;
#X connect 52 1 41 0;
#X connect 52 1 50 0;
#X connect 52 2 45 0;
#X connect 52 2 49 0;
#X connect 52 3 53 0;
#X connect 53 0 54 0;
#X connect 53 1 55 0;
#X connect 53 2 56 0;
#X connect 53 3 57 0;
#X connect 53 4 58 0;
#X connect 53 5 66 0;
#X connect 66 0 59 0;
#X connect 66 1 60 0;
#X connect 66 2 61 0;
#X connect 66 3 62 0;
#X connect 66 4 63 0;
#X connect 66 5 65 0;
#X connect 66 6 64 0;
#X connect 66 7 67 0;
#X connect 67 0 68 0;
#X connect 67 1 69 0;
#X connect 67 2 70 0;
#X connect 67 3 79 0;
#X connect 67 4 71 0;
#X connect 67 5 72 0;
#X connect 67 6 93 0;
#X connect 67 7 73 0;
#X connect 67 8 80 0;
#X connect 67 9 78 0;
#X connect 67 10 74 0;
#X connect 67 11 75 0;
#X connect 67 12 76 0;
#X connect 67 13 77 0;
#X connect 67 14 82 0;
#X connect 81 0 39 0;
#X connect 81 1 40 0;
#X connect 82 0 83 0;
#X connect 82 1 84 0;
#X connect 82 2 85 0;
#X connect 82 3 86 0;
#X connect 82 4 87 0;
#X connect 82 5 88 0;
#X connect 84 2 89 0;
#X connect 86 2 90 0;
#X connect 87 2 91 0;
#X connect 88 2 92 0;
#X restore 22 216 pd ACT_TRIG_CHAOS_TRIG___;
#N canvas 295 150 784 547 FLOOPER_______________ 0;
#X obj 52 27 inlet;
#X obj 420 489 outlet;
#X obj 49 262 route speed\$1 spechaos\$1 duration\$1 durchaos\$1 readoffset\$1
offchaos\$1 envelope\$1 envchaos\$1 dropout\$1 drochaos\$1;
#X obj 52 189 f.util.oscformat \$0 \$1 record -;
#X obj 110 170 f.util.oscformat \$0 \$1 play - 0;
#X obj 169 151 f.util.oscformat \$0 \$1 loop - 0;
#X obj 227 132 f.util.oscformat \$0 \$1 reverse - 0;
#X obj 286 113 f.util.oscformat \$0 \$1 level - 0;
#X obj 49 382 f.util.oscformat \$0 \$1 speed spe 1;
#X obj 259 321 f.util.oscformat \$0 \$1 envelope env 0;
#X obj 329 301 f.util.oscformat \$0 \$1 dropout dro 0;
#X obj 52 67 route record\$1 play\$1 loop\$1 reverse\$1 level\$1 audioinput\$1
;
#N canvas 585 436 291 279 INPUT_PARSE 0;
#X obj 43 8 inlet;
#X msg 100 173 symbol \$2-audio-in-\$1;
#X obj 43 130 unpack f f;
#X obj 100 152 pack f \$2;
#X obj 100 194 symbol;
#X obj 43 221 s;
#X obj 43 87 list;
#X obj 43 43 fudiformat;
#X obj 43 64 fudiparse;
#X msg 43 108 \$2 \$1;
#X connect 0 0 7 0;
#X connect 1 0 4 0;
#X connect 2 0 5 0;
#X connect 2 1 3 0;
#X connect 3 0 1 0;
#X connect 4 0 5 1;
#X connect 6 0 9 0;
#X connect 7 0 8 0;
#X connect 8 0 6 0;
#X connect 9 0 2 0;
#X restore 344 93 pd INPUT_PARSE;
#X obj 119 361 f.util.oscformat \$0 \$1 duration dur 0;
#X obj 189 341 f.util.oscformat \$0 \$1 readoffset rea 0;
#N canvas 19 26 450 300 RECORD____ 0;
#X obj 106 79 sel 1;
#X obj 106 167 del;
#X msg 106 188 0;
#X msg 136 189 1;
#X obj 121 147 r recordtime;
#X obj 106 209 t a;
#X obj 106 100 t b b b;
#X msg 145 126 stop;
#X obj 229 196 tgl 15 0 empty empty empty 17 7 0 10 -262144 -1 -1 0
1;
#X obj 114 31 inlet;
#X obj 204 243 s flooperrecord\$1;
#X obj 106 230 outlet;
#X connect 0 0 6 0;
#X connect 1 0 2 0;
#X connect 2 0 5 0;
#X connect 3 0 5 0;
#X connect 4 0 1 1;
#X connect 5 0 8 0;
#X connect 5 0 10 0;
#X connect 5 0 11 0;
#X connect 6 0 1 0;
#X connect 6 1 3 0;
#X connect 6 2 7 0;
#X connect 7 0 1 0;
#X connect 9 0 0 0;
#X restore 30 217 pd RECORD____;
#X connect 0 0 11 0;
#X connect 2 0 8 0;
#X connect 2 1 8 1;
#X connect 2 2 13 0;
#X connect 2 3 13 1;
#X connect 2 4 14 0;
#X connect 2 5 14 1;
#X connect 2 6 9 0;
#X connect 2 7 9 1;
#X connect 2 8 10 0;
#X connect 2 9 10 1;
#X connect 2 10 1 0;
#X connect 11 0 15 0;
#X connect 11 1 4 0;
#X connect 11 2 5 0;
#X connect 11 3 6 0;
#X connect 11 4 7 0;
#X connect 11 5 12 0;
#X connect 11 6 2 0;
#X connect 15 0 3 0;
#X restore 22 195 pd FLOOPER_______________;
#N canvas 681 306 449 455 MOD_INPUT_____________ 0;
#X obj 41 2 inlet;
#X obj 270 348 t a;
#X obj 392 418 outlet;
#X obj 270 369 s \$0-mod-routing;
#X obj 41 56 route f1 f2 f3 f4 f5 f6;
#X obj 43 263 f.util.modparse 1;
#X obj 64 241 f.util.modparse 2;
#X obj 101 219 f.util.modparse 3;
#X obj 122 196 f.util.modparse 4;
#X obj 146 174 f.util.modparse 5;
#X obj 167 151 f.util.modparse 6;
#X obj 41 33 route modulationinput\$1;
#X connect 0 0 11 0;
#X connect 1 0 3 0;
#X connect 4 0 5 0;
#X connect 4 1 6 0;
#X connect 4 2 7 0;
#X connect 4 3 8 0;
#X connect 4 4 9 0;
#X connect 4 5 10 0;
#X connect 5 0 1 0;
#X connect 6 0 1 0;
#X connect 7 0 1 0;
#X connect 8 0 1 0;
#X connect 9 0 1 0;
#X connect 10 0 1 0;
#X connect 11 0 4 0;
#X connect 11 1 2 0;
#X restore 22 175 pd MOD_INPUT_____________;
#N canvas 102 380 1088 402 ENV_MASTER_PAN________ 0;
#X obj 37 27 inlet;
#X obj 967 340 outlet;
#X obj 633 210 > 0;
#X obj 680 232 s \$0-volume;
#X msg 646 169 1;
#X obj 292 205 s reverb\$1;
#X msg 304 162 chaos \$1;
#X obj 380 140 r \$0-revact;
#X msg 380 161 active \$1;
#X obj 688 265 loadbang;
#X msg 688 286 0;
#X obj 292 184 f.seq.automater \$0 \$0-reverb 0;
#X obj 633 251 moses 1;
#X obj 633 272 pipe 10;
#X obj 633 293 t a;
#X msg 633 314 active \$1;
#X obj 633 335 s formuls\$1;
#X obj 633 231 change;
#X obj 888 71 route reset\$1;
#X obj 868 111 bng 15 250 50 0 empty empty empty 17 7 0 10 -262144
-1 -1;
#X obj 888 131 s \$0-reset;
#X obj 917 111 s \$1-reset;
#X obj 37 342 f.util.oscformat \$0 \$1 enveloperelease er 0;
#X obj 47 312 f.util.oscformat \$0 \$1 envelopedepth ed 0;
#X obj 86 282 f.util.oscformat \$0 \$1 envelopeside es 0;
#X obj 497 356 f.util.oscformat \$0 \$1 panning pan 0.5;
#X obj 633 190 f.util.oscformat \$0 \$1 volume - 0;
#X obj 888 92 sel 1;
#X obj 990 109 s \$0-\$1-reset;
#X obj 681 162 s formuls\$1;
#X msg 681 142 mute \$1;
#X floatatom 273 234 5 0 0 0 - - -;
#X obj 466 98 r \$0-value-send;
#X msg 466 119 trig bang;
#X msg 459 161 chaostrig \$1;
#X obj 459 140 r \$0-reverb-chaos-trig;
#X obj 659 106 f.util.oscformat \$0 \$1 drive - 0;
#X obj 37 76 route enveloperelease\$1 envelopereleasechaos\$1 envelopedepth\$1
envelopedepthchaos\$1 envside\$1 reverb\$1 reverbchaos\$1;
#X obj 497 73 route panning\$1 panningchaos\$1 volume\$1 mute\$1 drive\$1
;
#X connect 0 0 37 0;
#X connect 2 0 3 0;
#X connect 4 0 26 0;
#X connect 6 0 11 0;
#X connect 7 0 8 0;
#X connect 8 0 11 0;
#X connect 9 0 10 0;
#X connect 11 0 5 0;
#X connect 12 0 13 0;
#X connect 12 1 14 0;
#X connect 13 0 14 0;
#X connect 14 0 15 0;
#X connect 15 0 16 0;
#X connect 17 0 12 0;
#X connect 18 0 27 0;
#X connect 18 0 28 0;
#X connect 18 1 1 0;
#X connect 19 0 20 0;
#X connect 19 0 21 0;
#X connect 26 0 2 0;
#X connect 27 0 19 0;
#X connect 30 0 29 0;
#X connect 32 0 33 0;
#X connect 33 0 11 0;
#X connect 34 0 11 0;
#X connect 35 0 34 0;
#X connect 37 0 22 0;
#X connect 37 1 22 1;
#X connect 37 2 23 0;
#X connect 37 3 23 1;
#X connect 37 4 31 0;
#X connect 37 4 24 0;
#X connect 37 5 11 0;
#X connect 37 6 6 0;
#X connect 37 7 38 0;
#X connect 38 0 25 0;
#X connect 38 1 25 1;
#X connect 38 2 26 0;
#X connect 38 3 30 0;
#X connect 38 4 36 0;
#X connect 38 5 18 0;
#X restore 22 153 pd ENV_MASTER_PAN________;
#N canvas 210 362 1581 559 FX____________________ 0;
#X obj 17 27 inlet;
#X obj 1338 454 outlet;
#X obj 852 230 route gatethresh\$1 gatethreshchaos\$1 gateattack\$1
gateattackchaos\$1 gatehold\$1 gateholdchaos\$1 gaterelease\$1 gatereleasechaos\$1
;
#X obj 440 335 unpack f f;
#X obj 653 357 unpack f f;
#X obj 659 492 s formuls\$1;
#X obj 659 470 oscformat amact\$1;
#N canvas 785 321 530 512 AM_QUANTISE 0;
#X floatatom 294 58 5 0 0 0 - - -;
#X text 385 90 bpm to hz;
#X text 383 157 99.9 + 0.1;
#X obj 294 105 /;
#X floatatom 294 129 5 0 0 0 - - -;
#X obj 294 177 /;
#X floatatom 294 201 5 0 0 0 - - -;
#X msg 294 81 60 \$1;
#X msg 294 153 0.5 \$1;
#X obj 282 281 *;
#X obj 282 255 f;
#X obj 294 224 t b f;
#X obj 147 152 sel 0 1 2 3;
#X msg 147 188 1;
#X msg 179 188 2;
#X msg 212 188 4;
#X msg 244 188 8;
#X obj 147 229 t a;
#X msg 335 270 1 3.1;
#X obj 335 294 /;
#X obj 305 345 pow;
#X floatatom 335 318 5 0 0 0 - - -;
#X floatatom 305 373 5 0 0 0 - - -;
#X obj 288 308 / 100;
#X text 31 32 from interface (0-1 / number_of_steps);
#X obj 35 9 inlet;
#X obj 148 112 * 4;
#X obj 148 133 int;
#X obj 294 32 r bpmglobal;
#X obj 338 247 loadbang;
#X obj 148 66 r evenglobal;
#X obj 35 90 f.util.switch;
#X obj 124 431 outlet;
#X floatatom 230 313 5 0 0 0 - - -;
#X obj 232 429 oscformat amfreq;
#X obj 232 450 s \$0-OSC-collect-\$1;
#X connect 0 0 7 0;
#X connect 3 0 4 0;
#X connect 4 0 8 0;
#X connect 5 0 6 0;
#X connect 6 0 11 0;
#X connect 7 0 3 0;
#X connect 8 0 5 0;
#X connect 9 0 23 0;
#X connect 9 0 33 0;
#X connect 10 0 9 0;
#X connect 11 0 10 0;
#X connect 11 1 9 1;
#X connect 12 0 13 0;
#X connect 12 1 14 0;
#X connect 12 2 15 0;
#X connect 12 3 16 0;
#X connect 13 0 17 0;
#X connect 14 0 17 0;
#X connect 15 0 17 0;
#X connect 16 0 17 0;
#X connect 17 0 10 0;
#X connect 18 0 19 0;
#X connect 19 0 21 0;
#X connect 20 0 22 0;
#X connect 21 0 20 1;
#X connect 22 0 34 0;
#X connect 23 0 20 0;
#X connect 25 0 31 0;
#X connect 26 0 27 0;
#X connect 27 0 12 0;
#X connect 28 0 0 0;
#X connect 29 0 18 0;
#X connect 30 0 31 1;
#X connect 31 0 34 0;
#X connect 31 1 26 0;
#X connect 34 0 35 0;
#X restore 440 467 pd AM_QUANTISE;
#X obj 1263 287 s fx-routing-\$1;
#X obj 502 403 r xglobal;
#X obj 559 341 r yglobal;
#X obj 670 121 unpack f f;
#X obj 670 201 s highpass\$1;
#X obj 727 161 s lowpass\$1;
#X obj 497 359 f.util.switch;
#X obj 440 421 f.util.switch;
#X obj 63 166 r \$0-reset;
#X msg 63 187 0;
#X obj 440 441 f.util.oscformat \$0 \$1 amfreq amf 0 1;
#X obj 497 379 f.util.oscformat \$0 \$1 amdepth amd 0;
#X obj 17 146 f.util.oscformat \$0 \$1 saturation sat 0;
#X obj 27 126 f.util.oscformat \$0 \$1 bitcrush bit 0;
#X obj 68 106 f.util.oscformat \$0 \$1 bitcrushwetdry bitwd 1;
#X obj 379 103 f.util.oscformat \$0 \$1 pitchshift pit 0.5;
#X obj 54 314 f.util.oscformat \$0 \$1 delaysend ds 0;
#X obj 64 294 f.util.oscformat \$0 \$1 delaytime dt 0;
#X obj 106 274 f.util.oscformat \$0 \$1 delayfeedback df 0;
#X obj 576 281 f.util.oscformat \$0 \$1 amwave amw 0 4;
#X obj 853 347 f.util.oscformat \$0 \$1 gatethresh gt 0;
#X obj 892 326 f.util.oscformat \$0 \$1 gateattack ga 0;
#X obj 932 306 f.util.oscformat \$0 \$1 gatehold gh 0;
#X obj 1002 286 f.util.oscformat \$0 \$1 gaterelease gr 0;
#X obj 1337 267 f.util.oscformat \$0 \$1 fxsend fxs 1;
#X obj 727 141 f.util.oscformat \$0 \$1 lowpass lop 1;
#X obj 670 180 f.util.oscformat \$0 \$1 highpass hip 0;
#X obj 834 109 f.util.oscformat \$0 \$1 resonance fr 0;
#X obj 17 60 route saturation\$1 saturationchaos\$1 bitcrush\$1 bitcrushchaos\$1
bitcrushwetdry\$1 bitcrushwetdrychaos\$1;
#X obj 379 75 route pitchshift\$1 pitchshiftchaos\$1;
#X obj 670 69 route filtercutoff\$1 filtercutoffchaos\$1 filterresonance\$1
filterresonancechaos\$1;
#X obj 54 228 route delaysend\$1 delaysendchaos\$1 delaytime\$1 delaytimechaos\$1
delayfeedback\$1 delayfeedbackchaos\$1;
#X obj 439 232 route amfreqdepth\$1 amfreqdepthchaos\$1 amwave\$1 amwavechaos\$1
;
#X obj 1263 223 route fxpostpre\$1 fxsend\$1 fxsendchaos\$1;
#X connect 0 0 36 0;
#X connect 2 0 28 0;
#X connect 2 1 28 1;
#X connect 2 2 29 0;
#X connect 2 3 29 1;
#X connect 2 4 30 0;
#X connect 2 5 30 1;
#X connect 2 6 31 0;
#X connect 2 7 31 1;
#X connect 2 8 41 0;
#X connect 3 0 15 0;
#X connect 3 1 14 0;
#X connect 4 0 18 1;
#X connect 4 1 19 1;
#X connect 6 0 5 0;
#X connect 9 0 15 1;
#X connect 10 0 14 1;
#X connect 11 0 34 0;
#X connect 11 1 33 0;
#X connect 14 0 19 0;
#X connect 15 0 18 0;
#X connect 16 0 17 0;
#X connect 17 0 21 0;
#X connect 18 0 7 0;
#X connect 18 3 6 0;
#X connect 19 3 6 0;
#X connect 33 0 13 0;
#X connect 34 0 12 0;
#X connect 36 0 20 0;
#X connect 36 1 20 1;
#X connect 36 2 21 0;
#X connect 36 3 21 1;
#X connect 36 4 22 0;
#X connect 36 5 22 1;
#X connect 36 6 37 0;
#X connect 37 0 23 0;
#X connect 37 1 23 1;
#X connect 37 2 38 0;
#X connect 38 0 11 0;
#X connect 38 1 33 1;
#X connect 38 2 35 0;
#X connect 38 3 35 1;
#X connect 38 4 39 0;
#X connect 39 0 24 0;
#X connect 39 1 24 1;
#X connect 39 2 25 0;
#X connect 39 3 25 1;
#X connect 39 4 26 0;
#X connect 39 5 26 1;
#X connect 39 6 40 0;
#X connect 40 0 3 0;
#X connect 40 1 4 0;
#X connect 40 2 27 0;
#X connect 40 3 27 1;
#X connect 40 4 2 0;
#X connect 41 0 8 0;
#X connect 41 1 32 0;
#X connect 41 2 32 1;
#X connect 41 3 1 0;
#X restore 22 131 pd FX____________________;
#N canvas 447 253 1309 746 SEQ___________________ 0;
#X obj 43 8 inlet;
#X obj 1211 727 outlet;
#X msg 118 187 \$1;
#X msg 42 302 \$1;
#X obj 602 216 s \$0-seq-random-vel;
#X obj 877 182 s \$0-seq-swing;
#X obj 264 158 s \$0-sequencer-gui;
#X obj 1072 38 r \$0-reset;
#X obj 118 268 i;
#X obj 448 559 pow 2.7;
#X obj 448 580 * 100;
#X obj 865 104 s \$0-seq-inv;
#X obj 1087 531 s \$0-seq-trigger;
#X obj 1087 491 change;
#X msg 42 426 timebase \$1;
#X obj 42 447 s \$0-seq-messages;
#X msg 118 288 seqlength \$1;
#X obj 118 309 s \$0-seq-messages;
#X obj 265 137 s \$0-seq-messages;
#X obj 191 201 s \$0-seq-messages;
#X msg 481 318 randomadd \$1;
#X obj 481 339 s \$0-seq-messages;
#X msg 541 257 randomdrop \$1;
#X obj 541 278 s \$0-seq-messages;
#X msg 662 154 swing \$1;
#X obj 662 175 s \$0-seq-messages;
#X msg 723 91 seqinvert \$1;
#X obj 723 112 s \$0-seq-messages;
#X msg 448 601 delay \$1;
#X obj 448 622 s \$0-seq-messages;
#X msg 518 496 warp \$1;
#X obj 518 517 s \$0-seq-messages;
#X msg 729 487 beatsync \$1;
#X obj 729 508 s \$0-seq-messages;
#X msg 963 640 timebasemultiplier \$1;
#X obj 963 661 s \$0-seq-messages;
#X msg 1072 60 reset bang;
#X obj 1072 81 s \$0-seq-messages;
#X obj 963 600 i;
#X msg 191 180 seqwrite \$1 \$2;
#X obj 1087 511 sel 0;
#X obj 1087 471 spigot;
#X obj 271 71 tgl 15 0 empty empty empty 17 7 0 10 -262144 -1 -1 0
1;
#X msg 265 116 seqon \$1;
#X obj 963 579 * 4;
#X obj 1120 429 r \$0-seq-messages;
#X obj 1120 450 route seqon;
#X obj 265 93 f.seq.automater \$0 \$0-seq-on 0 0;
#X obj 723 71 f.seq.automater \$0 \$0-seq-inv;
#X obj 662 133 f.seq.automater \$0 \$0-seq-swing;
#X obj 602 195 f.seq.automater \$0 \$0-seq-random-vel;
#X obj 541 237 f.seq.automater \$0 \$0-seq-random-drop;
#X obj 481 299 f.seq.automater \$0 \$0-seq-random-add 0 0;
#X obj 518 475 f.seq.automater \$0 \$0-seq-warp;
#X obj 448 538 f.seq.automater \$0 \$0-seq-delay;
#X obj 729 465 f.seq.automater \$0 \$0-async;
#X obj 1087 408 f.seq.automater \$0 \$0-seq-trigger 0 1;
#X obj 118 206 / 64;
#X obj 118 247 * 64;
#X obj 118 225 f.seq.automater \$0 \$0-seq-length 1 1;
#X obj 963 536 / 4;
#X obj 191 134 list;
#X obj 191 90 fudiformat;
#X obj 191 111 fudiparse;
#X obj 448 454 route seqdelay\$1 seqwarp\$1;
#X obj 729 439 route async\$1;
#X obj 963 379 route seqtimebasemultiplier\$1 seqtrigger\$1;
#X obj 43 51 route seqtimebase\$1 seqlength\$1 seqwrite\$1 seqon\$1
;
#X msg 191 155 \$1 \$2;
#X msg 323 303 chaos \$1;
#X obj 42 385 i;
#X obj 985 455 r \$0-reset;
#X msg 989 479 1;
#X obj 319 323 r \$0-value-send;
#X msg 312 386 chaostrig \$1;
#X obj 42 323 / 8;
#X obj 42 406 clip 1 8;
#X obj 42 365 * 8;
#X obj 42 344 f.seq.automater \$0 \$0-seq-time-base 0;
#X obj 963 559 f.seq.automater \$0 \$0-seq-time-base-multiplier 0 0
;
#X obj 963 621 clip 1 4;
#X msg 319 344 ctrig bang;
#X msg 494 173 chaos \$1;
#X obj 312 365 r \$0-seqtimebase-chaos-trig;
#X obj 323 282 route seqtimebasechaos\$1;
#X obj 612 345 s seq-messages-\$1;
#X msg 615 323 seqrandomadd \$1;
#X obj 481 40 route seqrandomadd\$1 seqrandomaddchaos\$1 seqrandomvel\$1
seqswing\$1 seqinv\$1;
#X connect 0 0 67 0;
#X connect 2 0 57 0;
#X connect 3 0 75 0;
#X connect 7 0 36 0;
#X connect 8 0 16 0;
#X connect 9 0 10 0;
#X connect 10 0 28 0;
#X connect 13 0 40 0;
#X connect 14 0 15 0;
#X connect 16 0 17 0;
#X connect 20 0 21 0;
#X connect 22 0 23 0;
#X connect 24 0 25 0;
#X connect 26 0 27 0;
#X connect 28 0 29 0;
#X connect 30 0 31 0;
#X connect 32 0 33 0;
#X connect 34 0 35 0;
#X connect 36 0 37 0;
#X connect 38 0 80 0;
#X connect 39 0 19 0;
#X connect 40 1 12 0;
#X connect 41 0 13 0;
#X connect 42 0 47 0;
#X connect 43 0 18 0;
#X connect 44 0 38 0;
#X connect 45 0 46 0;
#X connect 46 0 41 1;
#X connect 47 0 43 0;
#X connect 48 0 26 0;
#X connect 49 0 24 0;
#X connect 50 0 4 0;
#X connect 51 0 22 0;
#X connect 52 0 20 0;
#X connect 52 0 86 0;
#X connect 53 0 30 0;
#X connect 54 0 9 0;
#X connect 55 0 32 0;
#X connect 56 0 41 0;
#X connect 57 0 59 0;
#X connect 58 0 8 0;
#X connect 59 0 58 0;
#X connect 60 0 79 0;
#X connect 61 0 68 0;
#X connect 62 0 63 0;
#X connect 63 0 61 0;
#X connect 64 0 54 0;
#X connect 64 1 53 0;
#X connect 64 2 65 0;
#X connect 65 0 55 0;
#X connect 65 1 66 0;
#X connect 66 0 60 0;
#X connect 66 1 56 0;
#X connect 66 2 1 0;
#X connect 67 0 3 0;
#X connect 67 1 2 0;
#X connect 67 2 6 0;
#X connect 67 2 62 0;
#X connect 67 3 47 0;
#X connect 67 4 84 0;
#X connect 67 4 87 0;
#X connect 68 0 39 0;
#X connect 69 0 78 0;
#X connect 70 0 76 0;
#X connect 71 0 72 0;
#X connect 73 0 81 0;
#X connect 74 0 78 0;
#X connect 75 0 78 0;
#X connect 76 0 14 0;
#X connect 77 0 70 0;
#X connect 78 0 77 0;
#X connect 79 0 44 0;
#X connect 80 0 34 0;
#X connect 81 0 78 0;
#X connect 82 0 52 0;
#X connect 83 0 74 0;
#X connect 84 0 69 0;
#X connect 86 0 85 0;
#X connect 87 0 52 0;
#X connect 87 1 82 0;
#X connect 87 2 50 0;
#X connect 87 3 49 0;
#X connect 87 4 48 0;
#X connect 87 5 64 0;
#X restore 22 109 pd SEQ___________________;
#N canvas 315 172 701 439 ADSR_VEL_TRIG_________ 0;
#X obj 37 17 inlet;
#X obj 464 404 outlet;
#X obj 37 122 t a a;
#X obj 38 332 f.util.oscformat \$0 \$1 adsron - 0;
#X obj 62 308 f.util.oscformat \$0 \$1 attack a 0;
#X obj 153 260 f.util.oscformat \$0 \$1 sustain s 1;
#X obj 198 237 f.util.oscformat \$0 \$1 release r 0;
#X obj 272 191 f.util.oscformat \$0 \$1 velocity v 1;
#X obj 313 168 f.util.oscformat \$0 \$1 threshold th 1;
#X obj 106 283 f.util.oscformat \$0 \$1 decay d 0;
#X obj 360 146 f.util.oscformat \$0 \$1 triggerx - 0;
#X obj 244 214 f.util.oscformat \$0 \$1 polyphonic - 0;
#X obj 64 142 sel 0 1;
#X msg 84 161 0;
#X obj 244 194 f;
#X obj 283 142 sel 1;
#X obj 434 77 r \$0-reset;
#X msg 434 98 0;
#X obj 426 120 s \$1-keyboard-active;
#X obj 37 60 route adsron\$1 attack\$1 attackchaos\$1 decay\$1 decaychaos\$1
sustain\$1 sustainchaos\$1 release\$1 releasechaos\$1 polyphonic\$1
velocity\$1 velocitychaos\$1 threshold\$1 thresholdchaos\$1 triggerx\$1
keyboard\$1;
#X connect 0 0 19 0;
#X connect 2 0 3 0;
#X connect 2 1 12 0;
#X connect 10 0 15 0;
#X connect 12 1 13 0;
#X connect 14 0 11 0;
#X connect 15 0 7 0;
#X connect 16 0 17 0;
#X connect 17 0 18 0;
#X connect 19 0 2 0;
#X connect 19 1 4 0;
#X connect 19 2 4 1;
#X connect 19 3 9 0;
#X connect 19 4 9 1;
#X connect 19 5 5 0;
#X connect 19 6 5 1;
#X connect 19 7 6 0;
#X connect 19 8 6 1;
#X connect 19 9 14 0;
#X connect 19 10 7 0;
#X connect 19 11 7 1;
#X connect 19 12 8 0;
#X connect 19 13 8 1;
#X connect 19 14 10 0;
#X connect 19 15 18 0;
#X connect 19 16 1 0;
#X restore 22 87 pd ADSR_VEL_TRIG_________;
#N canvas 598 39 584 723 GEN_EUC_______________ 0;
#X obj 37 38 inlet;
#X obj 504 666 outlet;
#N canvas 486 23 570 804 GENERATIVE__________ 0;
#X obj 37 3 inlet;
#X obj 37 756 s \$0-gen-range;
#X obj 497 782 outlet;
#X obj 259 182 s \$0-gen-on-off;
#X msg 222 245 \$1;
#X obj 111 634 i;
#X obj 148 554 i;
#X obj 185 454 s \$0-gen-repeat;
#X obj 185 432 f;
#X obj 222 344 i;
#X obj 222 366 s \$0-gen-direction;
#X obj 300 116 s \$0-gen-invert;
#X obj 37 698 pow 1.5;
#X obj 37 736 f;
#X obj 37 717 * 3;
#X obj 37 35 route gen-range gen-range-16 gen-min-fixed gen-min gen-repeat
gen-direction gen-on-off gen-invert;
#X obj 148 576 s \$0-gen-min;
#X obj 111 656 s \$0-gen-min-fixed;
#X obj 148 534 + 1;
#X obj 148 513 * 7;
#X obj 222 267 / 4;
#X obj 222 326 * 4;
#X obj 185 392 f.seq.automater \$0 \$0-gen-repeat 0;
#X obj 148 475 f.seq.automater \$0 \$0-gen-min 0;
#X obj 111 594 f.seq.automater \$0 \$0-gen-min-fixed 0;
#X obj 37 676 f.seq.automater \$0 \$0-gen-range 0;
#X obj 222 287 f.seq.automater \$0 \$0-gen-direction 0;
#X obj 259 140 f.seq.automater \$0 \$0-gen-on-off 0;
#X obj 300 75 f.seq.automater \$0 \$0-gen-invert;
#X connect 0 0 15 0;
#X connect 4 0 20 0;
#X connect 5 0 17 0;
#X connect 6 0 16 0;
#X connect 8 0 7 0;
#X connect 9 0 10 0;
#X connect 12 0 14 0;
#X connect 13 0 1 0;
#X connect 14 0 13 0;
#X connect 15 0 25 0;
#X connect 15 2 24 0;
#X connect 15 3 23 0;
#X connect 15 4 22 0;
#X connect 15 5 4 0;
#X connect 15 6 27 0;
#X connect 15 7 28 0;
#X connect 15 8 2 0;
#X connect 18 0 6 0;
#X connect 19 0 18 0;
#X connect 20 0 26 0;
#X connect 21 0 9 0;
#X connect 22 0 8 0;
#X connect 23 0 19 0;
#X connect 24 0 5 0;
#X connect 25 0 12 0;
#X connect 26 0 21 0;
#X connect 27 0 3 0;
#X connect 28 0 11 0;
#X restore 404 65 pd GENERATIVE__________;
#X obj 36 552 s \$0-gen-range;
#X obj 36 532 f;
#X obj 36 472 f.seq.automater \$0 \$0-gen-range 0;
#X msg 72 448 chaos \$1;
#X obj 107 396 i;
#X obj 107 418 s \$0-gen-min;
#X obj 107 356 f.seq.automater \$0 \$0-gen-min 0;
#X obj 37 446 / 24;
#X obj 36 513 * 24;
#X obj 36 494 f;
#X obj 318 147 s \$0-gen-on-off;
#X obj 318 125 f.seq.automater \$0 \$0-gen-on-off 0;
#X obj 107 375 * 8;
#X obj 108 331 / 8;
#X msg 142 331 chaos \$1;
#X obj 178 285 f.seq.automater \$0 \$0-gen-direction 0;
#X obj 178 264 / 4;
#X msg 213 263 chaos \$1;
#N canvas 0 23 450 300 GEN-MAPPING 0;
#X obj 37 37 inlet;
#X obj 37 79 * 4;
#X obj 37 100 i;
#X obj 38 121 + 1;
#X obj 38 142 mod 4;
#X floatatom 38 163 5 0 0 0 - - -;
#X obj 38 183 s \$0-gen-direction;
#X connect 0 0 1 0;
#X connect 1 0 2 0;
#X connect 2 0 3 0;
#X connect 3 0 4 0;
#X connect 4 0 5 0;
#X connect 5 0 6 0;
#X restore 178 306 pd GEN-MAPPING;
#X obj 247 192 f.seq.automater \$0 \$0-gen-repeat 0;
#X obj 247 233 s \$0-gen-repeat;
#X msg 283 171 chaos \$1;
#X obj 247 168 / 8;
#X obj 247 213 * 8;
#X obj 318 319 r \$0-value-send;
#X msg 311 382 chaostrig \$1;
#X obj 311 361 r \$0-genstep-chaos-trig;
#X msg 196 446 chaostrig \$1;
#X obj 196 425 r \$0-genrange-chaos-trig;
#X obj 141 556 s \$1-gen-messages;
#X msg 143 534 genrange \$1;
#X obj 359 450 s \$1-gen-messages;
#X msg 361 428 gensteps \$1;
#X msg 318 340 ctrig bang;
#X floatatom 229 507 5 0 0 0 - - -;
#X floatatom 112 517 5 0 0 0 - - -;
#X obj 38 76 route genrange\$1 genrangechaos\$1 genstepsize\$1 genstepsizechaos\$1
gendirection\$1 gdchaos\$1 genrepeat\$1 genrepeatchaos\$1 genon\$1
;
#X connect 0 0 39 0;
#X connect 4 0 3 0;
#X connect 4 0 33 0;
#X connect 5 0 12 0;
#X connect 6 0 5 0;
#X connect 7 0 8 0;
#X connect 7 0 35 0;
#X connect 9 0 15 0;
#X connect 10 0 37 0;
#X connect 10 0 5 0;
#X connect 11 0 4 0;
#X connect 11 0 38 0;
#X connect 12 0 11 0;
#X connect 14 0 13 0;
#X connect 15 0 7 0;
#X connect 16 0 9 0;
#X connect 17 0 9 0;
#X connect 18 0 21 0;
#X connect 19 0 18 0;
#X connect 20 0 18 0;
#X connect 22 0 26 0;
#X connect 24 0 22 0;
#X connect 25 0 22 0;
#X connect 26 0 23 0;
#X connect 27 0 36 0;
#X connect 28 0 9 0;
#X connect 29 0 28 0;
#X connect 30 0 5 0;
#X connect 31 0 30 0;
#X connect 33 0 32 0;
#X connect 35 0 34 0;
#X connect 36 0 9 0;
#X connect 36 0 5 0;
#X connect 39 0 10 0;
#X connect 39 1 6 0;
#X connect 39 2 16 0;
#X connect 39 3 17 0;
#X connect 39 4 19 0;
#X connect 39 5 20 0;
#X connect 39 6 25 0;
#X connect 39 7 24 0;
#X connect 39 8 14 0;
#X connect 39 9 1 0;
#X restore 22 66 pd GEN_EUC_______________;
#N canvas 117 222 1160 654 OP1_OP2_NOISE_________ 0;
#X obj 6 20 inlet;
#X obj 7 380 unpack f f;
#X obj 232 404 unpack f f;
#X obj 426 81 unpack f f;
#X obj 663 99 unpack f f;
#X obj 782 56 unpack f f;
#X obj 1003 73 unpack f f;
#X obj 782 33 route noise\$1 noisechaos\$1;
#X obj 1066 629 outlet;
#X obj 657 211 oscformat op2act\$1;
#X obj 971 188 oscformat noiseact\$1;
#X obj 289 469 s to-o-s-c-interface;
#X obj 657 233 s to-o-s-c-interface;
#X obj 972 210 s to-o-s-c-interface;
#X obj 206 221 unpack f f;
#X obj 461 246 unpack f f;
#X obj 70 451 r xglobal;
#X obj 126 388 r yglobal;
#X obj 272 288 r xglobal;
#X obj 325 230 r yglobal;
#X obj 488 148 r xglobal;
#X obj 545 85 r yglobal;
#X obj 289 447 oscformat op1act\$1;
#X obj 7 468 f.util.switch;
#X obj 64 406 f.util.switch;
#X obj 206 306 f.util.switch;
#X obj 263 248 f.util.switch;
#X obj 426 166 f.util.switch;
#X obj 483 103 f.util.switch;
#X obj 839 82 f.util.switch;
#X obj 782 144 f.util.switch;
#X obj 87 490 r \$0-op1f-act;
#X msg 87 511 active \$1;
#X msg 7 580 op1freq \$1;
#X obj 7 601 s formuls\$1;
#X obj 142 601 s to-o-s-c-interface;
#X obj 142 580 oscformat op1pitchgui\$1;
#X obj 259 149 s \$0-op1-freq-snap;
#X obj 20 489 pow 2.7;
#X obj 104 354 f.util.oscformat \$0 \$1 extmodulation ext 0;
#X obj 64 427 f.util.oscformat \$0 \$1 waveshape w 0 4;
#X obj 206 325 f.util.oscformat \$0 \$1 op1sliderange op1sr 0;
#X obj 263 269 f.util.oscformat \$0 \$1 op1slidetime op1st 0;
#X obj 426 186 f.util.oscformat \$0 \$1 op2freq op2f 0 8;
#X obj 483 123 f.util.oscformat \$0 \$1 op2depth op2d 0 8;
#X obj 839 101 f.util.oscformat \$0 \$1 noise n 0;
#X obj 782 163 f.util.oscformat \$0 \$1 noisefilterfreq nf 0;
#X msg 21 509 chaos \$1;
#X obj 7 534 f.seq.automater \$0 \$0-op1freq 0 0;
#N canvas 799 310 337 312 FREQ_SNAP_NOTE_GEN__ 0;
#X obj 62 139 mtof;
#X obj 62 117 t f f;
#X obj 107 172 i;
#X obj 62 20 inlet;
#X obj 62 268 outlet;
#X obj 107 269 outlet;
#X obj 107 195 pack f s;
#X msg 107 221 symbol \$2:\$1Hz;
#X obj 62 63 t f b b;
#N canvas 563 94 390 784 NOTE_SNAP 0;
#X obj 51 17 inlet;
#X obj 51 736 outlet;
#X obj 158 336 +;
#X obj 139 205 r \$0-value-send;
#X obj 181 429 spigot;
#X obj 87 207 t f f;
#X msg 198 80 stop;
#X obj 214 406 == 0;
#X msg 188 122 1;
#X obj 188 101 del 50;
#X obj 245 258 r \$0-op1-freq-snap;
#X obj 139 226 t b b b;
#X obj 188 16 inlet;
#X obj 233 17 inlet;
#X obj 181 452 f.util.keyselector \$0;
#X obj 158 364 f.util.keyselector \$0;
#X obj 158 278 f.util.floatint;
#X obj 158 494 spigot;
#X obj 191 472 r \$0-op1-freq-snap;
#X msg 96 577 0;
#X obj 96 556 sel 1 0;
#X obj 124 577 del 50;
#X msg 124 598 1;
#X obj 96 620 t a;
#X obj 96 535 r \$0-\$1-reset;
#X obj 51 642 spigot 1;
#N canvas 0 23 450 300 PITCH_LENGTH_CALCULATE 0;
#X obj 41 155 * 127;
#X obj 56 93 r pitch-gamut-length;
#X text 104 133 <- "* 11": total number of octaves covered by the pitch
range;
#X text 87 161 <- total number of pitches covered by the 11 octave
pitch range;
#X obj 68 135 * 10;
#X obj 56 114 t b f;
#X obj 41 135 f;
#X obj 41 30 inlet;
#X obj 41 236 outlet;
#X connect 0 0 8 0;
#X connect 1 0 5 0;
#X connect 4 0 0 1;
#X connect 5 0 6 0;
#X connect 5 1 4 0;
#X connect 6 0 0 0;
#X connect 7 0 6 0;
#X restore 87 181 pd PITCH_LENGTH_CALCULATE;
#X obj 51 145 t f f;
#X obj 188 143 t f f;
#N canvas 0 23 335 382 FREQ_SNAP___ 0;
#X obj 78 189 spigot;
#X obj 125 131 spigot;
#X obj 78 168 f;
#X obj 78 132 * 115;
#X obj 158 103 == 0;
#X obj 158 82 r \$0-op1-freq-snap;
#X obj 78 231 line 0 1;
#X msg 78 210 \$1 20;
#X obj 77 252 change;
#X obj 77 17 inlet;
#X obj 125 17 inlet;
#X obj 77 313 outlet;
#X connect 0 0 7 0;
#X connect 1 0 2 0;
#X connect 2 0 0 0;
#X connect 3 0 2 0;
#X connect 4 0 0 1;
#X connect 4 0 1 1;
#X connect 5 0 4 0;
#X connect 6 0 8 0;
#X connect 7 0 6 0;
#X connect 8 0 11 0;
#X connect 9 0 3 0;
#X connect 10 0 1 0;
#X restore 51 282 pd FREQ_SNAP___;
#N canvas 160 90 303 400 NOTE_GEN______ 0;
#X obj 123 144 r \$0-gen-direction;
#X obj 80 326 outlet;
#X obj 81 43 inlet;
#X obj 113 123 r \$0-gen-min;
#X obj 95 213 r \$0-gen-invert;
#X obj 95 234 sel 0 1;
#X msg 95 255 1;
#X msg 127 253 -1;
#X obj 80 283 * 1;
#X obj 81 186 f.gen.drunk;
#X obj 81 70 t b;
#X obj 93 103 r \$0-gen-range;
#X obj 133 165 r \$0-gen-repeat;
#X connect 0 0 9 4;
#X connect 2 0 10 0;
#X connect 3 0 9 2;
#X connect 3 0 9 3;
#X connect 4 0 5 0;
#X connect 5 0 6 0;
#X connect 5 1 7 0;
#X connect 6 0 8 1;
#X connect 7 0 8 1;
#X connect 8 0 1 0;
#X connect 9 0 8 0;
#X connect 10 0 9 0;
#X connect 11 0 9 0;
#X connect 12 0 9 5;
#X restore 178 314 pd NOTE_GEN______;
#X msg 233 120 1;
#X obj 158 391 spigot 1;
#X connect 0 0 27 0;
#X connect 2 0 15 0;
#X connect 3 0 11 0;
#X connect 4 0 14 0;
#X connect 5 0 16 0;
#X connect 5 1 4 0;
#X connect 6 0 9 0;
#X connect 7 0 4 1;
#X connect 8 0 28 0;
#X connect 9 0 8 0;
#X connect 10 0 16 2;
#X connect 11 0 29 1;
#X connect 11 1 16 0;
#X connect 11 2 30 0;
#X connect 12 0 9 0;
#X connect 13 0 6 0;
#X connect 13 0 31 0;
#X connect 14 0 17 0;
#X connect 15 0 32 0;
#X connect 16 0 2 0;
#X connect 17 0 25 0;
#X connect 18 0 17 1;
#X connect 19 0 23 0;
#X connect 20 0 19 0;
#X connect 20 1 21 0;
#X connect 21 0 22 0;
#X connect 22 0 23 0;
#X connect 23 0 25 1;
#X connect 24 0 20 0;
#X connect 25 0 1 0;
#X connect 26 0 5 0;
#X connect 27 0 29 0;
#X connect 27 1 26 0;
#X connect 28 0 32 1;
#X connect 28 1 7 0;
#X connect 29 0 25 0;
#X connect 30 0 2 1;
#X connect 31 0 28 0;
#X connect 32 0 17 0;
#X restore 62 96 pd NOTE_SNAP;
#X obj 152 172 f.util.midi2notename;
#X connect 0 0 2 0;
#X connect 0 0 4 0;
#X connect 1 0 0 0;
#X connect 1 1 10 0;
#X connect 2 0 6 0;
#X connect 3 0 8 0;
#X connect 6 0 7 0;
#X connect 7 0 5 0;
#X connect 8 0 9 0;
#X connect 9 0 1 0;
#X connect 10 0 6 1;
#X restore 7 557 pd FREQ_SNAP_NOTE_GEN__;
#X obj 259 104 loadbang;
#X msg 259 125 0;
#X obj 317 91 r \$0-reset;
#X obj 317 112 del 50;
#X obj 244 170 oscformat freqsnap\$1;
#X obj 244 191 s to-o-s-c-interface;
#X obj 183 486 r \$0-value-send;
#X msg 183 507 trig bang;
#X msg 287 512 chaostrig \$1;
#X obj 288 491 r \$0-op1-chaos-trig;
#X obj 844 126 r xglobal;
#X obj 901 64 r yglobal;
#X obj 6 53 route op1\$1 op1chaos\$1 extmod\$1 extmodchaos\$1 slide\$1
slidechaos\$1 freqsnap\$1;
#X obj 426 49 route op2\$1 op2chaos\$1;
#X connect 0 0 62 0;
#X connect 1 0 23 0;
#X connect 1 1 24 0;
#X connect 2 0 38 0;
#X connect 2 1 40 1;
#X connect 3 0 27 0;
#X connect 3 1 28 0;
#X connect 4 0 43 1;
#X connect 4 1 44 1;
#X connect 5 0 30 0;
#X connect 5 1 29 0;
#X connect 6 0 46 1;
#X connect 6 1 45 1;
#X connect 7 0 5 0;
#X connect 7 1 6 0;
#X connect 7 2 8 0;
#X connect 9 0 12 0;
#X connect 10 0 13 0;
#X connect 14 0 25 0;
#X connect 14 1 26 0;
#X connect 15 0 41 1;
#X connect 15 1 42 1;
#X connect 16 0 23 1;
#X connect 17 0 24 1;
#X connect 18 0 25 1;
#X connect 19 0 26 1;
#X connect 20 0 27 1;
#X connect 21 0 28 1;
#X connect 22 0 11 0;
#X connect 23 0 48 0;
#X connect 24 0 40 0;
#X connect 25 0 41 0;
#X connect 26 0 42 0;
#X connect 27 0 43 0;
#X connect 28 0 44 0;
#X connect 29 0 45 0;
#X connect 30 0 46 0;
#X connect 31 0 32 0;
#X connect 32 0 48 0;
#X connect 33 0 34 0;
#X connect 36 0 35 0;
#X connect 38 0 47 0;
#X connect 40 3 22 0;
#X connect 43 3 9 0;
#X connect 44 3 9 0;
#X connect 45 3 10 0;
#X connect 46 3 10 0;
#X connect 47 0 48 0;
#X connect 48 0 49 0;
#X connect 49 0 33 0;
#X connect 49 1 36 0;
#X connect 50 0 51 0;
#X connect 51 0 37 0;
#X connect 51 0 54 0;
#X connect 52 0 53 0;
#X connect 53 0 51 0;
#X connect 54 0 55 0;
#X connect 56 0 57 0;
#X connect 57 0 48 0;
#X connect 58 0 48 0;
#X connect 59 0 58 0;
#X connect 60 0 30 1;
#X connect 61 0 29 1;
#X connect 62 0 1 0;
#X connect 62 1 2 0;
#X connect 62 2 39 0;
#X connect 62 3 39 1;
#X connect 62 4 14 0;
#X connect 62 5 15 0;
#X connect 62 6 37 0;
#X connect 62 7 63 0;
#X connect 63 0 3 0;
#X connect 63 1 4 0;
#X connect 63 2 7 0;
#X restore 22 45 pd OP1_OP2_NOISE_________;
#X connect 0 0 22 0;
#X connect 2 0 11 0;
#X connect 3 0 9 0;
#X connect 9 0 5 0;
#X connect 9 1 6 0;
#X connect 9 2 7 0;
#X connect 10 0 22 0;
#X connect 11 0 12 0;
#X connect 12 0 1 0;
#X connect 13 0 6 0;
#X connect 15 0 14 0;
#X connect 16 0 15 0;
#X connect 17 0 16 0;
#X connect 18 0 17 0;
#X connect 19 0 18 0;
#X connect 20 0 19 0;
#X connect 21 0 20 0;
#X connect 22 0 21 0;
