#N canvas 521 296 339 446 10;
#X obj 22 22 r o-s-c-messages;
#X obj 22 404 outlet;
#X obj 22 324 r formuls\$1;
#X obj 147 328 r \$0-mod-routing;
#X obj 147 405 outlet~;
#X obj 199 406 outlet~;
#X obj 252 407 outlet~;
#N canvas 328 46 257 186 OSC_COLLECT_MANIPULATE 0;
#X obj 42 26 r \$0-OSC-collect-\$1;
#X obj 42 49 oscparse;
#X obj 52 94 r \$0-OSC-collect-2-\$1;
#X obj 42 135 s formuls\$1;
#X obj 42 71 list trim;
#X connect 0 0 1 0;
#X connect 1 0 4 0;
#X connect 2 0 3 0;
#X connect 4 0 3 0;
#X restore 22 278 pd OSC_COLLECT_MANIPULATE;
#X obj 147 348 f.audio.modroute~;
#X msg 129 23 reset1;
#X obj 22 345 list prepend f-in;
#X obj 22 366 list trim;
#X obj 214 374 r~ \$0-trig-sig;
#N canvas 0 23 999 938 ACT_TRIG_CHAOS_TRIG___ 0;
#X obj 30 18 inlet;
#X obj 39 122 t b f;
#X obj 30 147 f;
#X obj 30 171 +;
#X obj 30 196 +;
#X obj 79 122 t b f;
#X obj 30 220 > 0;
#X obj 30 243 change;
#X obj 30 264 s modeselect\$1;
#X obj 220 74 s chaostrig\$1;
#X obj 125 74 s trig\$1;
#X obj 39 74 s act\$1;
#X obj 30 49 route actglobal\$1 trigglobal\$1 chaostrigglobal\$1;
#X obj 334 203 route velocitylabel\$1 thresholdlabel\$1 seqrandomaddlabel\$1
attacklabel\$1 decaylabel\$1 sustainlabel\$1 releaselabel\$1;
#X obj 331 406 route saturationlabel\$1 bitcrushlabel\$1 pitchshiftlabel\$1
filtercutofflabel\$1 filterresonancelabel\$1 delaysendlabel\$1 delaytimelabel\$1
delayfeedbacklabel\$1 amfreqdepthlabel\$1 amwavelabel\$1 gatethreshlabel\$1
gateattacklabel\$1 gateholdlabel\$1 gatereleaselabel\$1;
#X obj 329 767 route fxsendlabel\$1 reverblabel\$1 panninglabel\$1
genrangelabel\$1 genstepsizelabel\$1 seqtimebaselabel\$1;
#X obj 561 902 s \$0-reverb-chaos-trig;
#X obj 671 874 s \$0-genrange-chaos-trig;
#X obj 739 848 s \$0-genstep-chaos-trig;
#X obj 788 825 s \$0-seqtimebase-chaos-trig;
#X obj 336 173 f.util.xywidgetparse \$0 \$1 op1 op1freq waveshape;
#X obj 399 154 f.util.xywidgetparse \$0 \$1 op2 op2freq op2depth;
#X obj 462 133 f.util.xywidgetparse \$0 \$1 noise noise noisefilterfreq
;
#X obj 588 83 f.util.widgetparse \$0 \$1 extmodulation;
#X obj 336 48 route op1label\$1 op2label\$1 noiselabel\$1 slidelabel\$1
extmodulationlabel\$1;
#X obj 334 357 f.util.widgetparse \$0 \$1 velocity;
#X obj 383 338 f.util.widgetparse \$0 \$1 threshold;
#X obj 432 317 f.util.widgetparse \$0 \$1 seqrandomadd;
#X obj 481 298 f.util.widgetparse \$0 \$1 attack;
#X obj 531 279 f.util.widgetparse \$0 \$1 decay;
#X obj 580 258 f.util.widgetparse \$0 \$1 sustain;
#X obj 629 239 f.util.widgetparse \$0 \$1 release;
#X obj 331 728 f.util.widgetparse \$0 \$1 saturation;
#X obj 356 709 f.util.widgetparse \$0 \$1 bitcrush;
#X obj 381 688 f.util.widgetparse \$0 \$1 pitchshift;
#X obj 406 669 f.util.widgetparse \$0 \$1 filtercutoff highpass lowpass
;
#X obj 431 650 f.util.widgetparse \$0 \$1 filterresonance filterresonance
;
#X obj 456 629 f.util.widgetparse \$0 \$1 delaysend;
#X obj 481 610 f.util.widgetparse \$0 \$1 delaytime;
#X obj 506 590 f.util.widgetparse \$0 \$1 delayfeedback;
#X obj 531 571 f.util.widgetparse \$0 \$1 amfreqdepth amfreq amdepth
;
#X obj 556 550 f.util.xywidgetparse \$0 \$1 amwave;
#X obj 581 531 f.util.widgetparse \$0 \$1 gatethresh;
#X obj 606 512 f.util.widgetparse \$0 \$1 gateattack;
#X obj 631 491 f.util.widgetparse \$0 \$1 gatehold;
#X obj 656 472 f.util.widgetparse \$0 \$1 gaterelease;
#X obj 329 901 f.util.widgetparse \$0 \$1 fxsend;
#X obj 378 882 f.util.widgetparse \$0 \$1 reverb;
#X obj 429 861 f.util.widgetparse \$0 \$1 panning;
#X obj 476 842 f.util.widgetparse \$0 \$1 genrange;
#X obj 526 823 f.util.widgetparse \$0 \$1 genstepsize;
#X obj 575 802 f.util.widgetparse \$0 \$1 seqtimebase;
#X obj 525 102 f.util.xywidgetparse \$0 \$1 op1slide op1sliderange
op1slidetime;
#X connect 0 0 12 0;
#X connect 1 0 2 0;
#X connect 1 1 3 1;
#X connect 2 0 3 0;
#X connect 3 0 4 0;
#X connect 4 0 6 0;
#X connect 5 0 2 0;
#X connect 5 1 4 1;
#X connect 6 0 7 0;
#X connect 7 0 8 0;
#X connect 12 0 2 0;
#X connect 12 0 11 0;
#X connect 12 1 1 0;
#X connect 12 1 10 0;
#X connect 12 2 5 0;
#X connect 12 2 9 0;
#X connect 12 3 24 0;
#X connect 13 0 25 0;
#X connect 13 1 26 0;
#X connect 13 2 27 0;
#X connect 13 3 28 0;
#X connect 13 4 29 0;
#X connect 13 5 30 0;
#X connect 13 6 31 0;
#X connect 13 7 14 0;
#X connect 14 0 32 0;
#X connect 14 1 33 0;
#X connect 14 2 34 0;
#X connect 14 3 35 0;
#X connect 14 4 36 0;
#X connect 14 5 37 0;
#X connect 14 6 38 0;
#X connect 14 7 39 0;
#X connect 14 8 40 0;
#X connect 14 9 41 0;
#X connect 14 10 42 0;
#X connect 14 11 43 0;
#X connect 14 12 44 0;
#X connect 14 13 45 0;
#X connect 14 14 15 0;
#X connect 15 0 46 0;
#X connect 15 1 47 0;
#X connect 15 2 48 0;
#X connect 15 3 49 0;
#X connect 15 4 50 0;
#X connect 15 5 51 0;
#X connect 24 0 20 0;
#X connect 24 1 21 0;
#X connect 24 2 22 0;
#X connect 24 3 52 0;
#X connect 24 4 23 0;
#X connect 24 5 13 0;
#X connect 47 2 16 0;
#X connect 49 2 17 0;
#X connect 50 2 18 0;
#X connect 51 2 19 0;
#X restore 22 216 pd ACT_TRIG_CHAOS_TRIG___;
#N canvas 295 150 575 543 FLOOPER_______________ 0;
#X obj 52 27 inlet;
#X obj 420 489 outlet;
#X obj 49 262 route speed\$1 spechaos\$1 duration\$1 durchaos\$1 readoffset\$1
offchaos\$1 envelope\$1 envchaos\$1 dropout\$1 drochaos\$1;
#X obj 52 67 route record\$1 play\$1 loop\$1 reverse\$1 level\$1 audioinput\$1
;
#N canvas 585 436 291 279 INPUT_PARSE 0;
#X obj 43 8 inlet;
#X msg 100 173 symbol \$2-audio-in-\$1;
#X obj 43 130 unpack f f;
#X obj 100 152 pack f \$2;
#X obj 100 194 symbol;
#X obj 43 221 s;
#X obj 43 87 list;
#X obj 43 43 fudiformat;
#X obj 43 64 fudiparse;
#X msg 43 108 \$2 \$1;
#X connect 0 0 7 0;
#X connect 1 0 4 0;
#X connect 2 0 5 0;
#X connect 2 1 3 0;
#X connect 3 0 1 0;
#X connect 4 0 5 1;
#X connect 6 0 9 0;
#X connect 7 0 8 0;
#X connect 8 0 6 0;
#X connect 9 0 2 0;
#X restore 344 93 pd INPUT_PARSE;
#N canvas 19 26 450 300 RECORD____ 0;
#X obj 106 79 sel 1;
#X obj 106 167 del;
#X msg 106 188 0;
#X msg 136 189 1;
#X obj 121 147 r recordtime;
#X obj 106 209 t a;
#X obj 106 100 t b b b;
#X msg 145 126 stop;
#X obj 229 196 tgl 15 0 empty empty empty 17 7 0 10 -262144 -1 -1 0
1;
#X obj 114 31 inlet;
#X obj 204 243 s flooperrecord\$1;
#X obj 106 230 outlet;
#X connect 0 0 6 0;
#X connect 1 0 2 0;
#X connect 2 0 5 0;
#X connect 3 0 5 0;
#X connect 4 0 1 1;
#X connect 5 0 8 0;
#X connect 5 0 10 0;
#X connect 5 0 11 0;
#X connect 6 0 1 0;
#X connect 6 1 3 0;
#X connect 6 2 7 0;
#X connect 7 0 1 0;
#X connect 9 0 0 0;
#X restore 52 143 pd RECORD____;
#X obj 49 382 f.util.oscformat \$0 \$1 speed 1;
#X obj 119 361 f.util.oscformat \$0 \$1 duration 0;
#X obj 189 341 f.util.oscformat \$0 \$1 readoffset 0;
#X obj 259 321 f.util.oscformat \$0 \$1 envelope 0;
#X obj 329 301 f.util.oscformat \$0 \$1 dropout 0;
#X obj 286 113 f.util.oscformat \$0 \$1 level 0;
#X obj 227 132 f.util.oscformat \$0 \$1 reverse 0;
#X obj 169 151 f.util.oscformat \$0 \$1 loop 0;
#X obj 110 170 f.util.oscformat \$0 \$1 play 0;
#X obj 52 189 f.util.oscformat \$0 \$1 record 0;
#X connect 0 0 3 0;
#X connect 2 0 6 0;
#X connect 2 1 6 1;
#X connect 2 2 7 0;
#X connect 2 3 7 1;
#X connect 2 4 8 0;
#X connect 2 5 8 1;
#X connect 2 6 9 0;
#X connect 2 7 9 1;
#X connect 2 8 10 0;
#X connect 2 9 10 1;
#X connect 2 10 1 0;
#X connect 3 0 5 0;
#X connect 3 1 14 0;
#X connect 3 2 13 0;
#X connect 3 3 12 0;
#X connect 3 4 11 0;
#X connect 3 5 4 0;
#X connect 3 6 2 0;
#X connect 5 0 15 0;
#X restore 22 195 pd FLOOPER_______________;
#N canvas 681 306 385 363 MOD_INPUT_____________ 0;
#X obj 51 22 inlet;
#X obj 188 276 t a;
#X obj 316 333 outlet;
#X obj 188 297 s \$0-mod-routing;
#X obj 51 76 route f1 f2 f3 f4 f5 f6;
#X obj 51 233 f.util.modparse 1;
#X obj 73 211 f.util.modparse 2;
#X obj 96 189 f.util.modparse 3;
#X obj 118 166 f.util.modparse 4;
#X obj 141 144 f.util.modparse 5;
#X obj 163 121 f.util.modparse 6;
#X obj 51 53 route modulationinput\$1;
#X connect 0 0 11 0;
#X connect 1 0 3 0;
#X connect 4 0 5 0;
#X connect 4 1 6 0;
#X connect 4 2 7 0;
#X connect 4 3 8 0;
#X connect 4 4 9 0;
#X connect 4 5 10 0;
#X connect 5 0 1 0;
#X connect 6 0 1 0;
#X connect 7 0 1 0;
#X connect 8 0 1 0;
#X connect 9 0 1 0;
#X connect 10 0 1 0;
#X connect 11 0 4 0;
#X connect 11 1 2 0;
#X restore 22 175 pd MOD_INPUT_____________;
#N canvas 102 380 1264 432 ENV_MASTER_PAN________ 0;
#X obj 17 27 inlet;
#X obj 1213 373 outlet;
#X obj 755 170 > 0;
#X obj 802 192 s \$0-volume;
#X msg 776 129 1;
#X obj 250 265 s reverb\$1;
#X msg 264 202 chaos \$1;
#X msg 323 201 active \$1;
#X obj 250 244 f.seq.automater \$0 \$0-reverb 0;
#X obj 755 211 moses 1;
#X obj 755 232 pipe 10;
#X obj 755 253 t a;
#X msg 755 274 active \$1;
#X obj 755 295 s formuls\$1;
#X obj 755 191 change;
#X obj 1083 70 route reset\$1;
#X obj 1083 131 bng 15 250 50 0 empty empty empty 17 7 0 10 -262144
-1 -1;
#X obj 1083 181 s \$0-reset;
#X obj 1092 161 s \$1-reset;
#X obj 1083 112 sel 1;
#X obj 1090 91 s \$0-\$1-reset;
#X obj 819 119 s formuls\$1;
#X msg 819 99 mute \$1;
#X obj 563 178 r \$0-value-send;
#X msg 563 199 trig bang;
#X msg 419 201 chaostrig \$1;
#X obj 419 180 r \$0-reverb-chaos-trig;
#X obj 17 76 route enveloperelease\$1 envelopereleasechaos\$1 envelopedepth\$1
envelopedepthchaos\$1 envside\$1 reverb\$1 reverbchaos\$1;
#X obj 627 73 route panning\$1 panningchaos\$1 volume\$1 mute\$1 drive\$1
;
#X obj 18 342 f.util.oscformat \$0 \$1 enveloperelease 0;
#X obj 110 314 f.util.oscformat \$0 \$1 envelopedepth 0;
#X obj 203 289 f.util.oscformat \$0 \$1 envelopeside 0;
#X obj 323 179 r \$0-reverbact;
#X obj 883 97 f.util.oscformat \$0 \$1 drive 0;
#X obj 755 150 f.util.oscformat \$0 \$1 volume 0;
#X obj 627 316 f.util.oscformat \$0 \$1 panning 0.5;
#X connect 0 0 27 0;
#X connect 2 0 3 0;
#X connect 4 0 34 0;
#X connect 6 0 8 0;
#X connect 7 0 8 0;
#X connect 8 0 5 0;
#X connect 9 0 10 0;
#X connect 9 1 11 0;
#X connect 10 0 11 0;
#X connect 11 0 12 0;
#X connect 12 0 13 0;
#X connect 14 0 9 0;
#X connect 15 0 19 0;
#X connect 15 0 20 0;
#X connect 15 1 1 0;
#X connect 16 0 17 0;
#X connect 16 0 18 0;
#X connect 19 0 16 0;
#X connect 22 0 21 0;
#X connect 23 0 24 0;
#X connect 24 0 8 0;
#X connect 25 0 8 0;
#X connect 26 0 25 0;
#X connect 27 0 29 0;
#X connect 27 1 29 1;
#X connect 27 2 30 0;
#X connect 27 3 30 1;
#X connect 27 4 31 0;
#X connect 27 5 8 0;
#X connect 27 6 6 0;
#X connect 27 7 28 0;
#X connect 28 0 35 0;
#X connect 28 1 35 1;
#X connect 28 2 34 0;
#X connect 28 3 22 0;
#X connect 28 4 33 0;
#X connect 28 5 15 0;
#X connect 32 0 7 0;
#X connect 34 0 2 0;
#X restore 22 153 pd ENV_MASTER_PAN________;
#N canvas 210 175 1306 724 FX____________________ 0;
#X obj 17 7 inlet;
#X obj 1110 675 outlet;
#X obj 490 342 route gatethresh\$1 gatethreshchaos\$1 gateattack\$1
gateattackchaos\$1 gatehold\$1 gateholdchaos\$1 gaterelease\$1 gatereleasechaos\$1
;
#X obj 140 447 unpack f f;
#X obj 329 469 unpack f f;
#X obj 335 603 s formuls\$1;
#X obj 335 581 oscformat amact\$1;
#N canvas 785 321 530 512 AM_QUANTISE 0;
#X floatatom 294 58 5 0 0 0 - - -;
#X text 385 90 bpm to hz;
#X text 383 157 99.9 + 0.1;
#X obj 294 105 /;
#X floatatom 294 129 5 0 0 0 - - -;
#X obj 294 177 /;
#X floatatom 294 201 5 0 0 0 - - -;
#X msg 294 81 60 \$1;
#X msg 294 153 0.5 \$1;
#X obj 282 281 *;
#X obj 282 255 f;
#X obj 294 224 t b f;
#X obj 147 152 sel 0 1 2 3;
#X msg 147 188 1;
#X msg 179 188 2;
#X msg 212 188 4;
#X msg 244 188 8;
#X obj 147 229 t a;
#X msg 335 270 1 3.1;
#X obj 335 294 /;
#X obj 305 345 pow;
#X floatatom 335 318 5 0 0 0 - - -;
#X floatatom 305 373 5 0 0 0 - - -;
#X obj 288 308 / 100;
#X text 31 32 from interface (0-1 / number_of_steps);
#X obj 35 9 inlet;
#X obj 148 112 * 4;
#X obj 148 133 int;
#X obj 294 32 r bpmglobal;
#X obj 338 247 loadbang;
#X obj 148 66 r evenglobal;
#X obj 35 90 f.util.switch;
#X obj 124 431 outlet;
#X floatatom 230 313 5 0 0 0 - - -;
#X obj 232 429 oscformat amfreq;
#X obj 232 450 s \$0-OSC-collect-\$1;
#X connect 0 0 7 0;
#X connect 3 0 4 0;
#X connect 4 0 8 0;
#X connect 5 0 6 0;
#X connect 6 0 11 0;
#X connect 7 0 3 0;
#X connect 8 0 5 0;
#X connect 9 0 23 0;
#X connect 9 0 33 0;
#X connect 10 0 9 0;
#X connect 11 0 10 0;
#X connect 11 1 9 1;
#X connect 12 0 13 0;
#X connect 12 1 14 0;
#X connect 12 2 15 0;
#X connect 12 3 16 0;
#X connect 13 0 17 0;
#X connect 14 0 17 0;
#X connect 15 0 17 0;
#X connect 16 0 17 0;
#X connect 17 0 10 0;
#X connect 18 0 19 0;
#X connect 19 0 21 0;
#X connect 20 0 22 0;
#X connect 21 0 20 1;
#X connect 22 0 34 0;
#X connect 23 0 20 0;
#X connect 25 0 31 0;
#X connect 26 0 27 0;
#X connect 27 0 12 0;
#X connect 28 0 0 0;
#X connect 29 0 18 0;
#X connect 30 0 31 1;
#X connect 31 0 34 0;
#X connect 31 1 26 0;
#X connect 34 0 35 0;
#X restore 140 579 pd AM_QUANTISE;
#X obj 873 530 s fx-routing-\$1;
#X obj 202 515 r xglobal;
#X obj 259 453 r yglobal;
#X obj 426 92 unpack f f;
#X obj 426 172 s highpass\$1;
#X obj 483 132 s lowpass\$1;
#X obj 197 471 f.util.switch;
#X obj 140 533 f.util.switch;
#X obj 426 40 route filtercutoff\$1 filtercutoffchaos\$1 filterresonance\$1
filterresonancechaos\$1;
#X obj 823 36 route delaysend\$1 delaysendchaos\$1 delaytime\$1 delaytimechaos\$1
delayfeedback\$1 delayfeedbackchaos\$1;
#X obj 140 354 route amfreqdepth\$1 amfreqdepthchaos\$1 amwave\$1 amwavechaos\$1
;
#X obj 873 475 route fxpostpre\$1 fxsend\$1 fxsendchaos\$1;
#X obj 17 286 f.util.oscformat \$0 \$1 saturation 0;
#X obj 97 266 f.util.oscformat \$0 \$1 bitcrush 0;
#X obj 177 246 f.util.oscformat \$0 \$1 bitcrushwetdry 1;
#X obj 257 224 f.util.oscformat \$0 \$1 pitchshift 0.5;
#X obj 426 151 f.util.oscformat \$0 \$1 highpass 0;
#X obj 483 112 f.util.oscformat \$0 \$1 lowpass 1;
#X obj 598 80 f.util.oscformat \$0 \$1 resonance 0;
#X obj 823 122 f.util.oscformat \$0 \$1 delaysend 0;
#X obj 928 102 f.util.oscformat \$0 \$1 delaytime 0;
#X obj 1033 82 f.util.oscformat \$0 \$1 delayfeedback 0;
#X obj 140 553 f.util.oscformat \$0 \$1 amfreq 0 1;
#X obj 197 491 f.util.oscformat \$0 \$1 amdepth 0;
#X obj 279 393 f.util.oscformat \$0 \$1 amwave 0 4;
#X obj 491 459 f.util.oscformat \$0 \$1 gatethresh 0;
#X obj 576 438 f.util.oscformat \$0 \$1 gateattack 0;
#X obj 662 418 f.util.oscformat \$0 \$1 gatehold 0;
#X obj 748 398 f.util.oscformat \$0 \$1 gaterelease 0;
#X obj 952 509 f.util.oscformat \$0 \$1 fxsend 1;
#X obj 17 40 route saturation\$1 saturationchaos\$1 bitcrush\$1 bitcrushchaos\$1
bitcrushwetdry\$1 bitcrushwetdrychaos\$1 pitchshift\$1 pitchshiftchaos\$1
;
#X connect 0 0 38 0;
#X connect 2 0 33 0;
#X connect 2 1 33 1;
#X connect 2 2 34 0;
#X connect 2 3 34 1;
#X connect 2 4 35 0;
#X connect 2 5 35 1;
#X connect 2 6 36 0;
#X connect 2 7 36 1;
#X connect 2 8 19 0;
#X connect 3 0 15 0;
#X connect 3 1 14 0;
#X connect 4 0 30 1;
#X connect 4 1 31 1;
#X connect 6 0 5 0;
#X connect 9 0 15 1;
#X connect 10 0 14 1;
#X connect 11 0 24 0;
#X connect 11 1 25 0;
#X connect 14 0 31 0;
#X connect 15 0 30 0;
#X connect 16 0 11 0;
#X connect 16 1 25 1;
#X connect 16 2 26 0;
#X connect 16 3 26 1;
#X connect 16 4 17 0;
#X connect 17 0 27 0;
#X connect 17 1 27 1;
#X connect 17 2 28 0;
#X connect 17 3 28 1;
#X connect 17 4 29 0;
#X connect 17 5 29 1;
#X connect 17 6 18 0;
#X connect 18 0 3 0;
#X connect 18 1 4 0;
#X connect 18 2 32 0;
#X connect 18 3 32 1;
#X connect 18 4 2 0;
#X connect 19 0 8 0;
#X connect 19 1 37 0;
#X connect 19 2 37 1;
#X connect 19 3 1 0;
#X connect 24 0 12 0;
#X connect 25 0 13 0;
#X connect 30 0 7 0;
#X connect 30 3 6 0;
#X connect 31 3 6 0;
#X connect 38 0 20 0;
#X connect 38 1 20 1;
#X connect 38 2 21 0;
#X connect 38 3 21 1;
#X connect 38 4 22 0;
#X connect 38 5 22 1;
#X connect 38 6 23 0;
#X connect 38 7 23 1;
#X connect 38 8 16 0;
#X restore 22 131 pd FX____________________;
#N canvas 458 122 1238 800 SEQ___________________ 0;
#X obj 43 8 inlet;
#X obj 1089 753 outlet;
#X msg 44 394 \$1;
#X obj 611 216 s \$0-seq-random-vel;
#X obj 1072 38 r \$0-reset;
#X obj 478 599 pow 2.7;
#X obj 478 620 * 100;
#X obj 927 571 s \$0-seq-trigger;
#X obj 927 531 change;
#X msg 44 522 timebase \$1;
#X obj 44 543 s \$0-seq-messages;
#X msg 481 364 randomadd \$1;
#X obj 481 385 s \$0-seq-messages;
#X msg 561 257 randomdrop \$1;
#X obj 561 278 s \$0-seq-messages;
#X msg 677 154 swing \$1;
#X obj 677 175 s \$0-seq-messages;
#X msg 742 91 seqinvert \$1;
#X obj 742 112 s \$0-seq-messages;
#X msg 478 641 delay \$1;
#X obj 478 662 s \$0-seq-messages;
#X msg 545 536 warp \$1;
#X obj 545 557 s \$0-seq-messages;
#X msg 612 471 beatsync \$1;
#X obj 612 492 s \$0-seq-messages;
#X msg 803 680 timebasemultiplier \$1;
#X obj 803 701 s \$0-seq-messages;
#X msg 1072 60 reset bang;
#X obj 1072 81 s \$0-seq-messages;
#X obj 803 640 i;
#X obj 927 551 sel 0;
#X obj 927 511 spigot;
#X obj 803 619 * 4;
#X obj 960 469 r \$0-seq-messages;
#X obj 960 490 route seqon;
#X obj 742 71 f.seq.automater \$0 \$0-seq-inv;
#X obj 677 133 f.seq.automater \$0 \$0-seq-swing;
#X obj 611 195 f.seq.automater \$0 \$0-seq-random-vel;
#X obj 561 237 f.seq.automater \$0 \$0-seq-random-drop;
#X obj 481 299 f.seq.automater \$0 \$0-seq-random-add 0 0;
#X obj 545 515 f.seq.automater \$0 \$0-seq-warp;
#X obj 478 578 f.seq.automater \$0 \$0-seq-delay;
#X obj 612 449 f.seq.automater \$0 \$0-async;
#X obj 927 448 f.seq.automater \$0 \$0-seq-trigger 0 1;
#X obj 803 576 / 4;
#X obj 803 419 route seqtimebasemultiplier\$1 seqtrigger\$1;
#X msg 75 413 chaos \$1;
#X obj 44 481 i;
#X obj 825 495 r \$0-reset;
#X msg 829 519 1;
#X obj 308 393 r \$0-value-send;
#X msg 137 414 chaostrig \$1;
#X obj 44 415 / 8;
#X obj 44 502 clip 1 8;
#X obj 44 461 * 8;
#X obj 44 440 f.seq.automater \$0 \$0-seq-time-base 0;
#X obj 803 599 f.seq.automater \$0 \$0-seq-time-base-multiplier 0 0
;
#X obj 803 661 clip 1 4;
#X msg 308 414 ctrig bang;
#X msg 494 273 chaos \$1;
#X obj 137 394 r \$0-seqtimebase-chaos-trig;
#X obj 490 343 s seq-messages-\$1;
#X msg 490 322 seqrandomadd \$1;
#X obj 481 40 route seqrandomadd\$1 seqrandomaddchaos\$1 seqrandomvel\$1
seqswing\$1 seqinv\$1;
#X obj 44 51 route seqtimebase\$1 seqtimebasechaos\$1 seqlength\$1
seqwrite\$1 seqon\$1;
#X msg 162 248 \$1;
#X obj 284 218 s \$0-sequencer-gui;
#X obj 162 329 i;
#X msg 162 349 seqlength \$1;
#X obj 162 370 s \$0-seq-messages;
#X obj 281 127 s \$0-seq-messages;
#X obj 222 263 s \$0-seq-messages;
#X msg 222 242 seqwrite \$1 \$2;
#X msg 281 106 seqon \$1;
#X obj 281 83 f.seq.automater \$0 \$0-seq-on 0 0;
#X obj 162 267 / 64;
#X obj 162 308 * 64;
#X obj 162 286 f.seq.automater \$0 \$0-seq-length 1 1;
#X obj 222 196 list;
#X obj 222 152 fudiformat;
#X obj 222 173 fudiparse;
#X msg 222 217 \$1 \$2;
#X obj 478 424 route seqdelay\$1 seqwarp\$1 async\$1;
#X connect 0 0 64 0;
#X connect 2 0 52 0;
#X connect 4 0 27 0;
#X connect 5 0 6 0;
#X connect 6 0 19 0;
#X connect 8 0 30 0;
#X connect 9 0 10 0;
#X connect 11 0 12 0;
#X connect 13 0 14 0;
#X connect 15 0 16 0;
#X connect 17 0 18 0;
#X connect 19 0 20 0;
#X connect 21 0 22 0;
#X connect 23 0 24 0;
#X connect 25 0 26 0;
#X connect 27 0 28 0;
#X connect 29 0 57 0;
#X connect 30 1 7 0;
#X connect 31 0 8 0;
#X connect 32 0 29 0;
#X connect 33 0 34 0;
#X connect 34 0 31 1;
#X connect 35 0 17 0;
#X connect 36 0 15 0;
#X connect 37 0 3 0;
#X connect 38 0 13 0;
#X connect 39 0 11 0;
#X connect 39 0 62 0;
#X connect 40 0 21 0;
#X connect 41 0 5 0;
#X connect 42 0 23 0;
#X connect 43 0 31 0;
#X connect 44 0 56 0;
#X connect 45 0 44 0;
#X connect 45 1 43 0;
#X connect 45 2 1 0;
#X connect 46 0 55 0;
#X connect 47 0 53 0;
#X connect 48 0 49 0;
#X connect 50 0 58 0;
#X connect 51 0 55 0;
#X connect 52 0 55 0;
#X connect 53 0 9 0;
#X connect 54 0 47 0;
#X connect 55 0 54 0;
#X connect 56 0 32 0;
#X connect 57 0 25 0;
#X connect 58 0 55 0;
#X connect 59 0 39 0;
#X connect 60 0 51 0;
#X connect 62 0 61 0;
#X connect 63 0 39 0;
#X connect 63 1 59 0;
#X connect 63 2 37 0;
#X connect 63 3 36 0;
#X connect 63 4 35 0;
#X connect 63 5 82 0;
#X connect 64 0 2 0;
#X connect 64 1 46 0;
#X connect 64 2 65 0;
#X connect 64 3 79 0;
#X connect 64 4 74 0;
#X connect 64 5 63 0;
#X connect 65 0 75 0;
#X connect 67 0 68 0;
#X connect 68 0 69 0;
#X connect 72 0 71 0;
#X connect 73 0 70 0;
#X connect 74 0 73 0;
#X connect 75 0 77 0;
#X connect 76 0 67 0;
#X connect 77 0 76 0;
#X connect 78 0 81 0;
#X connect 79 0 80 0;
#X connect 80 0 78 0;
#X connect 81 0 72 0;
#X connect 82 0 41 0;
#X connect 82 1 40 0;
#X connect 82 2 42 0;
#X connect 82 3 45 0;
#X restore 22 109 pd SEQ___________________;
#N canvas 315 172 550 464 ADSR_VEL_TRIG_________ 0;
#X obj 37 17 inlet;
#X obj 454 424 outlet;
#X obj 231 250 f;
#X obj 257 206 sel 1;
#X obj 368 116 r \$0-reset;
#X msg 368 137 0;
#X obj 360 159 s \$1-keyboard-active;
#X obj 37 60 route adsron\$1 attack\$1 attackchaos\$1 decay\$1 decaychaos\$1
sustain\$1 sustainchaos\$1 release\$1 releasechaos\$1 polyphonic\$1
velocity\$1 velocitychaos\$1 threshold\$1 thresholdchaos\$1 triggerx\$1
keyboard\$1;
#X obj 58 360 f.util.oscformat \$0 \$1 attack 0;
#X obj 37 382 f.util.oscformat \$0 \$1 adsron 0;
#X obj 101 339 f.util.oscformat \$0 \$1 decay 0;
#X obj 144 316 f.util.oscformat \$0 \$1 sustain 1;
#X obj 187 293 f.util.oscformat \$0 \$1 release 0;
#X obj 231 270 f.util.oscformat \$0 \$1 polyphonic 0;
#X obj 252 230 f.util.oscformat \$0 \$1 velocity 1;
#X obj 295 207 f.util.oscformat \$0 \$1 threshold 1;
#X obj 338 183 f.util.oscformat \$0 \$1 triggerx 0;
#X connect 0 0 7 0;
#X connect 2 0 13 0;
#X connect 3 0 14 0;
#X connect 4 0 5 0;
#X connect 5 0 6 0;
#X connect 7 0 9 0;
#X connect 7 1 8 0;
#X connect 7 2 8 1;
#X connect 7 3 10 0;
#X connect 7 4 10 1;
#X connect 7 5 11 0;
#X connect 7 6 11 1;
#X connect 7 7 12 0;
#X connect 7 8 12 1;
#X connect 7 9 2 0;
#X connect 7 10 14 0;
#X connect 7 11 14 1;
#X connect 7 12 15 0;
#X connect 7 13 15 1;
#X connect 7 14 16 0;
#X connect 7 15 6 0;
#X connect 7 16 1 0;
#X connect 16 0 3 0;
#X restore 22 87 pd ADSR_VEL_TRIG_________;
#N canvas 598 39 584 757 GEN_EUC_______________ 0;
#X obj 37 38 inlet;
#X obj 464 726 outlet;
#X obj 38 692 s \$0-gen-range;
#X obj 38 622 f;
#X obj 38 562 f.seq.automater \$0 \$0-gen-range 0;
#X msg 74 538 chaos \$1;
#X obj 110 426 i;
#X obj 110 488 s \$0-gen-min;
#X obj 110 386 f.seq.automater \$0 \$0-gen-min 0;
#X obj 38 536 / 24;
#X obj 38 603 * 24;
#X obj 38 584 f;
#X obj 328 147 s \$0-gen-on-off;
#X obj 328 125 f.seq.automater \$0 \$0-gen-on-off 0;
#X obj 110 405 * 8;
#X obj 110 361 / 8;
#X msg 147 361 chaos \$1;
#X obj 183 295 f.seq.automater \$0 \$0-gen-direction 0;
#X obj 183 274 / 4;
#X msg 219 273 chaos \$1;
#N canvas 0 23 450 300 GEN-MAPPING 0;
#X obj 37 37 inlet;
#X obj 37 79 * 4;
#X obj 37 100 i;
#X obj 38 121 + 1;
#X obj 38 142 mod 4;
#X floatatom 38 163 5 0 0 0 - - -;
#X obj 38 183 s \$0-gen-direction;
#X connect 0 0 1 0;
#X connect 1 0 2 0;
#X connect 2 0 3 0;
#X connect 3 0 4 0;
#X connect 4 0 5 0;
#X connect 5 0 6 0;
#X restore 183 316 pd GEN-MAPPING;
#X obj 256 202 f.seq.automater \$0 \$0-gen-repeat 0;
#X obj 256 243 s \$0-gen-repeat;
#X msg 292 181 chaos \$1;
#X obj 256 178 / 8;
#X obj 256 223 * 8;
#X obj 55 309 r \$0-value-send;
#X msg 208 362 chaostrig \$1;
#X obj 208 341 r \$0-genstep-chaos-trig;
#X msg 133 539 chaostrig \$1;
#X obj 133 518 r \$0-genrange-chaos-trig;
#X obj 50 670 s \$1-gen-messages;
#X msg 50 648 genrange \$1;
#X obj 119 468 s \$1-gen-messages;
#X msg 119 446 gensteps \$1;
#X msg 55 330 ctrig bang;
#X obj 38 76 route genrange\$1 genrangechaos\$1 genstepsize\$1 genstepsizechaos\$1
gendirection\$1 gdchaos\$1 genrepeat\$1 genrepeatchaos\$1 genon\$1
;
#X connect 0 0 36 0;
#X connect 3 0 2 0;
#X connect 3 0 32 0;
#X connect 4 0 11 0;
#X connect 5 0 4 0;
#X connect 6 0 7 0;
#X connect 6 0 34 0;
#X connect 8 0 14 0;
#X connect 9 0 4 0;
#X connect 10 0 3 0;
#X connect 11 0 10 0;
#X connect 13 0 12 0;
#X connect 14 0 6 0;
#X connect 15 0 8 0;
#X connect 16 0 8 0;
#X connect 17 0 20 0;
#X connect 18 0 17 0;
#X connect 19 0 17 0;
#X connect 21 0 25 0;
#X connect 23 0 21 0;
#X connect 24 0 21 0;
#X connect 25 0 22 0;
#X connect 26 0 35 0;
#X connect 27 0 8 0;
#X connect 28 0 27 0;
#X connect 29 0 4 0;
#X connect 30 0 29 0;
#X connect 32 0 31 0;
#X connect 34 0 33 0;
#X connect 35 0 8 0;
#X connect 35 0 4 0;
#X connect 36 0 9 0;
#X connect 36 1 5 0;
#X connect 36 2 15 0;
#X connect 36 3 16 0;
#X connect 36 4 18 0;
#X connect 36 5 19 0;
#X connect 36 6 24 0;
#X connect 36 7 23 0;
#X connect 36 8 13 0;
#X connect 36 9 1 0;
#X restore 22 66 pd GEN_EUC_______________;
#N canvas 299 222 1024 652 OP1_OP2_NOISE_________ 0;
#X obj 7 10 inlet;
#X obj 7 390 unpack f f;
#X obj 220 414 unpack f f;
#X obj 516 220 unpack f f;
#X obj 723 238 unpack f f;
#X obj 643 87 unpack f f;
#X obj 832 104 unpack f f;
#X obj 821 626 outlet;
#X obj 717 350 oscformat op2act\$1;
#X obj 880 219 oscformat noiseact\$1;
#X obj 277 479 s to-o-s-c-interface;
#X obj 717 372 s to-o-s-c-interface;
#X obj 881 241 s to-o-s-c-interface;
#X obj 206 231 unpack f f;
#X obj 431 256 unpack f f;
#X obj 70 471 r xglobal;
#X obj 126 398 r yglobal;
#X obj 272 298 r xglobal;
#X obj 325 240 r yglobal;
#X obj 578 287 r xglobal;
#X obj 635 224 r yglobal;
#X obj 277 457 oscformat op1act\$1;
#X obj 7 488 f.util.switch;
#X obj 64 416 f.util.switch;
#X obj 206 316 f.util.switch;
#X obj 263 258 f.util.switch;
#X obj 516 305 f.util.switch;
#X obj 573 242 f.util.switch;
#X obj 701 113 f.util.switch;
#X obj 643 175 f.util.switch;
#X obj 87 510 r \$0-op1f-act;
#X msg 87 531 active \$1;
#X msg 7 600 op1freq \$1;
#X obj 7 621 s formuls\$1;
#X obj 142 621 s to-o-s-c-interface;
#X obj 142 600 oscformat op1pitchgui\$1;
#X obj 307 208 s \$0-op1-freq-snap;
#X obj 20 509 pow 2.7;
#X msg 21 529 chaos \$1;
#X obj 7 554 f.seq.automater \$0 \$0-op1freq 0 0;
#N canvas 799 310 337 312 FREQ_SNAP_NOTE_GEN__ 0;
#X obj 62 139 mtof;
#X obj 62 117 t f f;
#X obj 107 172 i;
#X obj 62 20 inlet;
#X obj 62 268 outlet;
#X obj 107 268 outlet;
#X obj 107 195 pack f s;
#X msg 107 221 symbol \$2:\$1Hz;
#N canvas 563 94 390 784 NOTE_SNAP 0;
#X obj 51 17 inlet;
#X obj 51 736 outlet;
#X obj 158 336 +;
#X obj 139 205 r \$0-value-send;
#X obj 181 429 spigot;
#X obj 87 207 t f f;
#X msg 198 80 stop;
#X obj 214 406 == 0;
#X msg 188 122 1;
#X obj 188 101 del 50;
#X obj 245 258 r \$0-op1-freq-snap;
#X obj 139 226 t b b b;
#X obj 188 16 inlet;
#X obj 233 17 inlet;
#X obj 181 452 f.util.keyselector \$0;
#X obj 158 364 f.util.keyselector \$0;
#X obj 158 278 f.util.floatint;
#X obj 158 494 spigot;
#X obj 191 472 r \$0-op1-freq-snap;
#X msg 96 577 0;
#X obj 96 556 sel 1 0;
#X obj 124 577 del 50;
#X msg 124 598 1;
#X obj 96 620 t a;
#X obj 96 535 r \$0-\$1-reset;
#X obj 51 642 spigot 1;
#N canvas 0 23 450 300 PITCH_LENGTH_CALCULATE 0;
#X obj 41 155 * 127;
#X obj 56 93 r pitch-gamut-length;
#X text 104 133 <- "* 11": total number of octaves covered by the pitch
range;
#X text 87 161 <- total number of pitches covered by the 11 octave
pitch range;
#X obj 68 135 * 10;
#X obj 56 114 t b f;
#X obj 41 135 f;
#X obj 41 30 inlet;
#X obj 41 236 outlet;
#X connect 0 0 8 0;
#X connect 1 0 5 0;
#X connect 4 0 0 1;
#X connect 5 0 6 0;
#X connect 5 1 4 0;
#X connect 6 0 0 0;
#X connect 7 0 6 0;
#X restore 87 181 pd PITCH_LENGTH_CALCULATE;
#X obj 51 145 t f f;
#X obj 188 143 t f f;
#N canvas 0 23 335 382 FREQ_SNAP___ 0;
#X obj 78 189 spigot;
#X obj 125 131 spigot;
#X obj 78 168 f;
#X obj 78 132 * 115;
#X obj 158 103 == 0;
#X obj 158 82 r \$0-op1-freq-snap;
#X obj 78 231 line 0 1;
#X msg 78 210 \$1 20;
#X obj 77 252 change;
#X obj 77 17 inlet;
#X obj 125 17 inlet;
#X obj 77 313 outlet;
#X connect 0 0 7 0;
#X connect 1 0 2 0;
#X connect 2 0 0 0;
#X connect 3 0 2 0;
#X connect 4 0 0 1;
#X connect 4 0 1 1;
#X connect 5 0 4 0;
#X connect 6 0 8 0;
#X connect 7 0 6 0;
#X connect 8 0 11 0;
#X connect 9 0 3 0;
#X connect 10 0 1 0;
#X restore 51 282 pd FREQ_SNAP___;
#N canvas 160 90 303 400 NOTE_GEN______ 0;
#X obj 123 144 r \$0-gen-direction;
#X obj 80 326 outlet;
#X obj 81 43 inlet;
#X obj 113 123 r \$0-gen-min;
#X obj 95 213 r \$0-gen-invert;
#X obj 95 234 sel 0 1;
#X msg 95 255 1;
#X msg 127 253 -1;
#X obj 80 283 * 1;
#X obj 81 186 f.gen.drunk;
#X obj 81 70 t b;
#X obj 93 103 r \$0-gen-range;
#X obj 133 165 r \$0-gen-repeat;
#X connect 0 0 9 4;
#X connect 2 0 10 0;
#X connect 3 0 9 2;
#X connect 3 0 9 3;
#X connect 4 0 5 0;
#X connect 5 0 6 0;
#X connect 5 1 7 0;
#X connect 6 0 8 1;
#X connect 7 0 8 1;
#X connect 8 0 1 0;
#X connect 9 0 8 0;
#X connect 10 0 9 0;
#X connect 11 0 9 0;
#X connect 12 0 9 5;
#X restore 178 314 pd NOTE_GEN______;
#X msg 233 120 1;
#X obj 158 391 spigot 1;
#X connect 0 0 27 0;
#X connect 2 0 15 0;
#X connect 3 0 11 0;
#X connect 4 0 14 0;
#X connect 5 0 16 0;
#X connect 5 1 4 0;
#X connect 6 0 9 0;
#X connect 7 0 4 1;
#X connect 8 0 28 0;
#X connect 9 0 8 0;
#X connect 10 0 16 2;
#X connect 11 0 29 1;
#X connect 11 1 16 0;
#X connect 11 2 30 0;
#X connect 12 0 9 0;
#X connect 13 0 6 0;
#X connect 13 0 31 0;
#X connect 14 0 17 0;
#X connect 15 0 32 0;
#X connect 16 0 2 0;
#X connect 17 0 25 0;
#X connect 18 0 17 1;
#X connect 19 0 23 0;
#X connect 20 0 19 0;
#X connect 20 1 21 0;
#X connect 21 0 22 0;
#X connect 22 0 23 0;
#X connect 23 0 25 1;
#X connect 24 0 20 0;
#X connect 25 0 1 0;
#X connect 26 0 5 0;
#X connect 27 0 29 0;
#X connect 27 1 26 0;
#X connect 28 0 32 1;
#X connect 28 1 7 0;
#X connect 29 0 25 0;
#X connect 30 0 2 1;
#X connect 31 0 28 0;
#X connect 32 0 17 0;
#X restore 62 96 pd NOTE_SNAP;
#X obj 152 172 f.util.midi2notename;
#X connect 0 0 2 0;
#X connect 0 0 4 0;
#X connect 1 0 0 0;
#X connect 1 1 9 0;
#X connect 2 0 6 0;
#X connect 3 0 8 0;
#X connect 6 0 7 0;
#X connect 7 0 5 0;
#X connect 8 0 1 0;
#X connect 9 0 6 1;
#X restore 7 577 pd FREQ_SNAP_NOTE_GEN__;
#X obj 317 84 loadbang;
#X msg 317 146 0;
#X obj 324 103 r \$0-reset;
#X obj 324 124 del 50;
#X obj 318 168 oscformat freqsnap\$1;
#X obj 318 189 s to-o-s-c-interface;
#X obj 178 510 r \$0-value-send;
#X msg 178 531 trig bang;
#X msg 279 531 chaostrig \$1;
#X obj 705 157 r xglobal;
#X obj 763 95 r yglobal;
#X obj 516 325 f.util.oscformat \$0 \$1 op2freq 0 8;
#X obj 573 262 f.util.oscformat \$0 \$1 op2depth 0 8;
#X obj 206 335 f.util.oscformat \$0 \$1 op1sliderange 0;
#X obj 263 279 f.util.oscformat \$0 \$1 op1slidetime 0;
#X obj 104 364 f.util.oscformat \$0 \$1 extmodulation 0;
#X obj 280 510 r \$0-op1-chaos-trig;
#X obj 64 437 f.util.oscformat \$0 \$1 waveshape 0 4;
#X obj 702 132 f.util.oscformat \$0 \$1 noise 0;
#X obj 643 194 f.util.oscformat \$0 \$1 noisefilterfreq 0;
#X obj 7 53 route op1\$1 op1chaos\$1 extmodulation\$1 extmodulationchaos\$1
op1slide\$1 op1slidechaos\$1 freqsnap\$1;
#X obj 516 59 route op2\$1 op2chaos\$1 noise\$1 noisechaos\$1;
#X obj 431 382 s to-o-s-c-interface;
#X obj 431 360 oscformat op1slideact\$1;
#X connect 0 0 61 0;
#X connect 1 0 22 0;
#X connect 1 1 23 0;
#X connect 2 0 37 0;
#X connect 2 1 58 1;
#X connect 3 0 26 0;
#X connect 3 1 27 0;
#X connect 4 0 52 1;
#X connect 4 1 53 1;
#X connect 5 0 29 0;
#X connect 5 1 28 0;
#X connect 6 0 60 1;
#X connect 6 1 59 1;
#X connect 8 0 11 0;
#X connect 9 0 12 0;
#X connect 13 0 24 0;
#X connect 13 1 25 0;
#X connect 14 0 54 1;
#X connect 14 1 55 1;
#X connect 15 0 22 1;
#X connect 16 0 23 1;
#X connect 17 0 24 1;
#X connect 18 0 25 1;
#X connect 19 0 26 1;
#X connect 20 0 27 1;
#X connect 21 0 10 0;
#X connect 22 0 39 0;
#X connect 23 0 58 0;
#X connect 24 0 54 0;
#X connect 25 0 55 0;
#X connect 26 0 52 0;
#X connect 27 0 53 0;
#X connect 28 0 59 0;
#X connect 29 0 60 0;
#X connect 30 0 31 0;
#X connect 31 0 39 0;
#X connect 32 0 33 0;
#X connect 35 0 34 0;
#X connect 37 0 38 0;
#X connect 38 0 39 0;
#X connect 39 0 40 0;
#X connect 40 0 32 0;
#X connect 40 1 35 0;
#X connect 41 0 42 0;
#X connect 42 0 36 0;
#X connect 42 0 45 0;
#X connect 43 0 44 0;
#X connect 44 0 42 0;
#X connect 45 0 46 0;
#X connect 47 0 48 0;
#X connect 48 0 39 0;
#X connect 49 0 39 0;
#X connect 50 0 29 1;
#X connect 51 0 28 1;
#X connect 52 3 8 0;
#X connect 53 3 8 0;
#X connect 54 3 64 0;
#X connect 55 3 64 0;
#X connect 57 0 49 0;
#X connect 58 3 21 0;
#X connect 59 3 9 0;
#X connect 60 3 9 0;
#X connect 61 0 1 0;
#X connect 61 1 2 0;
#X connect 61 2 56 0;
#X connect 61 3 56 1;
#X connect 61 4 13 0;
#X connect 61 5 14 0;
#X connect 61 6 36 0;
#X connect 61 7 62 0;
#X connect 62 0 3 0;
#X connect 62 1 4 0;
#X connect 62 2 5 0;
#X connect 62 3 6 0;
#X connect 62 4 7 0;
#X connect 64 0 63 0;
#X restore 22 45 pd OP1_OP2_NOISE_________;
#N canvas 137 483 295 252 SEQUENCER_BEAT________ 0;
#X obj 64 51 r \$0-seq-messages;
#X obj 55 96 f.seq.sequencer;
#X obj 55 20 r link;
#X msg 55 181 triggerx \$1;
#X obj 55 202 s formuls\$1;
#X obj 64 117 s \$0-value-send;
#N canvas 0 32 233 291 TRIG________ 0;
#X obj 70 95 t b b;
#X obj 70 116 del 2;
#X msg 70 137 0;
#X obj 70 158 t a;
#X msg 106 134 1;
#X obj 70 229 outlet;
#X obj 70 42 inlet;
#X obj 117 231 outlet~;
#X obj 117 186 sig~;
#X connect 0 0 1 0;
#X connect 0 1 4 0;
#X connect 1 0 2 0;
#X connect 2 0 3 0;
#X connect 3 0 5 0;
#X connect 3 0 8 0;
#X connect 4 0 3 0;
#X connect 6 0 0 0;
#X connect 8 0 7 0;
#X restore 55 139 pd TRIG________;
#X obj 142 203 s~ \$0-trig-sig;
#X obj 73 73 s seq-messages-\$1;
#X connect 0 0 1 0;
#X connect 0 0 8 0;
#X connect 1 0 6 0;
#X connect 1 0 5 0;
#X connect 2 0 1 0;
#X connect 3 0 4 0;
#X connect 6 0 3 0;
#X connect 6 1 7 0;
#X restore 22 258 pd SEQUENCER_BEAT________;
#X connect 0 0 21 0;
#X connect 2 0 10 0;
#X connect 3 0 8 0;
#X connect 8 0 4 0;
#X connect 8 1 5 0;
#X connect 8 2 6 0;
#X connect 9 0 21 0;
#X connect 10 0 11 0;
#X connect 11 0 1 0;
#X connect 12 0 5 0;
#X connect 14 0 13 0;
#X connect 15 0 14 0;
#X connect 16 0 15 0;
#X connect 17 0 16 0;
#X connect 18 0 17 0;
#X connect 19 0 18 0;
#X connect 20 0 19 0;
#X connect 21 0 20 0;
