#N canvas 820 357 589 361 10;
#X text 219 27 \$1 = \$0;
#X obj 92 248 r \$0-out;
#X obj 8 331 outlet;
#X obj 7 82 s \$0-value;
#N canvas 0 23 457 472 _unimplemented 0;
#X obj 45 40 r evolution-active;
#X obj 37 68 r evolution-time;
#X obj 130 186 t f f;
#X obj 83 267 spigot 0;
#X msg 60 183 0;
#X obj 60 161 sel 1 0;
#X obj 162 210 change;
#X msg 162 232 1;
#X obj 83 417 line 0 5;
#X obj 83 360 pack f f 16000;
#X obj 130 162 r \$0-input-1;
#X obj 60 139 r \$0-evolve;
#X obj 178 337 r \$0-evolve-time;
#X obj 83 291 t b;
#X obj 83 337 f;
#X msg 83 387 \$1 \, \$2 \$3;
#X obj 212 271 r \$0-value;
#X obj 212 292 spigot;
#X connect 2 0 9 1;
#X connect 2 1 6 0;
#X connect 3 0 13 0;
#X connect 4 0 3 1;
#X connect 5 0 4 0;
#X connect 5 1 3 0;
#X connect 6 0 7 0;
#X connect 7 0 3 1;
#X connect 9 0 15 0;
#X connect 10 0 2 0;
#X connect 11 0 5 0;
#X connect 12 0 9 2;
#X connect 13 0 14 0;
#X connect 14 0 9 0;
#X connect 15 0 8 0;
#X connect 16 0 17 0;
#X restore 441 193 pd _unimplemented;
#X obj 209 331 outlet;
#X obj 8 248 r \$0-value;
#N canvas 758 79 1071 418 VALUE_RECORD_&_AUTO_PLAYBACK 0;
#X obj 611 73 r automateRecord;
#X msg 262 211 0;
#X obj 611 263 f;
#X obj 254 277 f;
#X obj 262 166 r \$1-reset;
#X obj 626 243 r \$0-1;
#X obj 269 257 r \$0-1;
#X msg 624 173 0;
#X obj 624 153 r \$1-reset;
#X obj 26 59 r \$0-1;
#X obj 26 344 s \$0-out;
#X obj 611 354 s \$0-out;
#X obj 254 346 s \$0-out;
#X obj 26 293 t a;
#X obj 882 110 spigot;
#X obj 882 71 r \$1-trigger;
#X obj 882 154 s \$0-out;
#X obj 641 284 == 0;
#X obj 611 304 spigot 1;
#X text 21 33 activate recording of incoming values;
#X text 255 37 playback back recorded automation (loop or trig need
to be active;
#X text 611 40 activate loop (or if unselected \, trigger);
#X text 875 37 trigger automation playback;
#X obj 261 301 s \$0-act-internal;
#X obj 386 322 s to-o-s-c-interface;
#X obj 611 137 spigot;
#X obj 724 72 r \$0-value;
#X obj 724 93 t b;
#X msg 724 114 1;
#X obj 611 114 moses 1;
#X obj 611 93 t f b;
#X obj 254 78 r automateRecord;
#X obj 254 142 spigot;
#X obj 357 77 r \$0-value;
#X obj 357 98 t b;
#X msg 357 119 1;
#X obj 254 119 moses 1;
#X obj 254 98 t f b;
#X obj 123 85 r automateRecord;
#X obj 123 106 sel 0;
#X msg 42 202 0;
#X obj 109 243 spigot;
#X msg 70 202 1;
#X msg 123 130 0;
#X obj 42 158 r \$0-value;
#X obj 123 152 t f f f;
#X obj 42 181 f.util.onebang;
#X obj 675 237 s to-o-s-c-interface;
#X obj 624 194 t f f f f;
#X obj 386 300 oscformat \$3act\$2;
#X obj 675 215 oscformat \$3trig\$2;
#X obj 26 320 oscformat \$3record;
#X obj 254 322 oscformat \$3act;
#X obj 270 233 r \$1-\$3-act;
#X obj 611 329 oscformat \$3loop;
#X obj 647 262 r \$1-\$3-trig;
#X obj 916 91 r \$1-\$3-trig;
#X obj 882 132 oscformat \$3trig;
#X obj 270 187 r \$0-evo-act;
#X connect 0 0 30 0;
#X connect 1 0 3 0;
#X connect 2 0 18 0;
#X connect 3 0 23 0;
#X connect 3 0 49 0;
#X connect 3 0 52 0;
#X connect 4 0 1 0;
#X connect 5 0 2 1;
#X connect 6 0 3 1;
#X connect 7 0 48 0;
#X connect 8 0 7 0;
#X connect 9 0 13 0;
#X connect 13 0 51 0;
#X connect 14 0 57 0;
#X connect 15 0 14 0;
#X connect 17 0 18 1;
#X connect 17 0 54 0;
#X connect 18 0 54 0;
#X connect 25 0 2 0;
#X connect 26 0 27 0;
#X connect 27 0 28 0;
#X connect 28 0 25 1;
#X connect 29 0 25 1;
#X connect 30 0 29 0;
#X connect 30 1 25 0;
#X connect 31 0 37 0;
#X connect 32 0 3 0;
#X connect 33 0 34 0;
#X connect 34 0 35 0;
#X connect 35 0 32 1;
#X connect 36 0 32 1;
#X connect 37 0 36 0;
#X connect 37 1 32 0;
#X connect 38 0 39 0;
#X connect 39 0 43 0;
#X connect 40 0 13 0;
#X connect 41 0 13 0;
#X connect 42 0 41 1;
#X connect 43 0 45 0;
#X connect 44 0 46 0;
#X connect 45 0 46 1;
#X connect 45 1 41 1;
#X connect 45 2 41 0;
#X connect 46 0 40 0;
#X connect 46 0 42 0;
#X connect 48 0 2 0;
#X connect 48 1 17 0;
#X connect 48 2 14 1;
#X connect 48 3 50 0;
#X connect 49 0 24 0;
#X connect 50 0 47 0;
#X connect 51 0 10 0;
#X connect 52 0 12 0;
#X connect 53 0 3 0;
#X connect 54 0 11 0;
#X connect 55 0 17 0;
#X connect 56 0 14 1;
#X connect 57 0 16 0;
#X connect 58 0 1 0;
#X restore 9 173 pd VALUE_RECORD_&_AUTO_PLAYBACK;
#N canvas 72 105 357 256 INCOMING_PARAM_VALUE________ 0;
#X obj 42 93 r \$0-value;
#X obj 42 177 s \$0-out;
#X text 44 40 incoming value from GUI;
#X obj 165 171 s \$0-out;
#X obj 165 127 r \$0-chaos;
#N canvas 76 333 190 210 SEND_BYPASS 0;
#X obj 35 22 inlet;
#X obj 35 133 spigot;
#X obj 35 174 outlet;
#X obj 87 66 loadbang;
#X obj 87 108 == 0;
#X obj 87 87 \$6;
#X connect 0 0 1 0;
#X connect 1 0 2 0;
#X connect 3 0 5 0;
#X connect 4 0 1 1;
#X connect 5 0 4 0;
#X restore 42 117 pd SEND_BYPASS;
#X obj 142 76 r \$1-reset;
#X obj 42 156 oscformat \$3;
#X msg 180 95 0;
#X obj 142 97 f \$4;
#X obj 165 150 oscformat \$3chaos;
#X connect 0 0 5 0;
#X connect 4 0 10 0;
#X connect 5 0 7 0;
#X connect 6 0 8 0;
#X connect 6 0 9 0;
#X connect 7 0 1 0;
#X connect 8 0 10 0;
#X connect 9 0 7 0;
#X connect 10 0 3 0;
#X restore 9 130 pd INCOMING_PARAM_VALUE________;
#N canvas 315 23 243 241 SEND_VALUE_TO_AUTO_RECORD___ 0;
#X obj 39 68 spigot;
#X msg 39 116 1;
#X obj 39 92 t b b;
#X msg 83 117 0;
#X obj 72 48 r automateRecord;
#X obj 83 140 s \$0-0;
#X obj 39 140 s \$0-1;
#X obj 39 28 r \$0-value;
#X connect 0 0 2 0;
#X connect 1 0 6 0;
#X connect 2 0 1 0;
#X connect 2 1 3 0;
#X connect 3 0 5 0;
#X connect 4 0 0 1;
#X connect 7 0 0 0;
#X restore 9 152 pd SEND_VALUE_TO_AUTO_RECORD___;
#X text 219 42 \$2 = synth instance (only used in Pd \, not faust external)
;
#X obj 114 309 s \$1-OSC-collect-\$2;
#X obj 131 21 inlet chaos;
#X obj 7 21 inlet value;
#X obj 131 52 s \$0-chaos;
#X obj 277 248 r \$0-out-2;
#X obj 277 331 outlet;
#X obj 287 310 s \$1-OSC-collect-2-\$2;
#X obj 446 248 r \$0-act-internal;
#X obj 446 331 outlet;
#N canvas 0 23 341 336 QUANTISATION 0;
#X obj 37 37 inlet;
#X obj 37 288 outlet;
#X obj 235 49 loadbang;
#X msg 235 114 0;
#X msg 266 117 1;
#X obj 235 135 t a;
#X obj 150 114 r evenglobal;
#X obj 150 135 moses 1;
#X obj 189 157 ==;
#X obj 150 229 int;
#X obj 235 93 sel 0;
#X obj 37 175 f.util.switch;
#X obj 235 72 \$5;
#X obj 150 208 * \$5;
#X obj 150 250 / \$5;
#X connect 0 0 11 0;
#X connect 2 0 12 0;
#X connect 3 0 5 0;
#X connect 4 0 5 0;
#X connect 5 0 8 1;
#X connect 6 0 7 0;
#X connect 7 0 11 1;
#X connect 7 1 8 0;
#X connect 8 0 11 1;
#X connect 9 0 14 0;
#X connect 10 0 3 0;
#X connect 10 1 4 0;
#X connect 11 0 1 0;
#X connect 11 1 13 0;
#X connect 12 0 10 0;
#X connect 13 0 9 0;
#X connect 14 0 1 0;
#X restore 7 42 pd QUANTISATION;
#X text 219 60 \$3 = external name;
#X text 219 78 \$4 = parameter name;
#X obj 92 280 route -act\$1 -trig\$1;
#X text 219 95 \$5 = quantisation steps;
#X text 219 112 eg: \$0 0 fsynth waveshape 4;
#N canvas 735 322 351 428 READ_VALUE_FROM_FAUST_______ 0;
#X obj 48 38 r faust-value-read;
#X obj 25 147 bng 15 250 50 0 empty empty empty 17 7 0 10 -262144 -1
-1;
#X obj 48 389 s \$0-out-2;
#X obj 82 63 r \$0-act-internal;
#X obj 48 286 spigot;
#X obj 81 266 >= 1;
#X obj 82 126 f;
#X obj 88 84 r \$0-chaos;
#X obj 82 147 +;
#X obj 125 125 > 0;
#X obj 259 54 r evenglobal;
#X obj 226 156 spigot;
#X obj 226 33 r \$0-value;
#X obj 226 177 t b;
#X obj 226 198 del 10;
#X obj 259 115 f;
#X obj 259 136 *;
#X obj 270 74 r \$0-volume;
#X obj 270 95 t b f;
#X obj 88 105 t b b f;
#X obj 48 316 t b;
#X msg 48 364 \$1O;
#X obj 48 339 symbol \$3;
#X obj 81 246 +;
#X obj 81 226 f;
#X obj 90 196 t b f;
#N canvas 1041 439 268 501 EVOLUTION_ACTIVE 0;
#X obj 91 94 r evolution-active;
#X obj 58 115 spigot;
#X obj 58 27 r \$0-input-1;
#X obj 58 48 change;
#X msg 58 69 1;
#X obj 43 211 f;
#X msg 68 186 0;
#X obj 122 217 r evolution-time;
#X obj 107 237 f;
#X obj 43 232 sel 1;
#X msg 62 320 0;
#X obj 62 435 outlet;
#X obj 62 299 del 16000;
#X msg 82 276 stop;
#X msg 43 361 0;
#X obj 70 387 spigot 1;
#X obj 68 139 sel 0;
#X obj 43 340 t b b;
#X msg 70 361 1;
#X obj 43 253 t b b b;
#X obj 68 163 t b b b;
#X connect 0 0 1 1;
#X connect 0 0 16 0;
#X connect 1 0 5 1;
#X connect 2 0 3 0;
#X connect 3 0 4 0;
#X connect 4 0 1 0;
#X connect 4 0 15 1;
#X connect 5 0 9 0;
#X connect 6 0 5 1;
#X connect 7 0 8 1;
#X connect 8 0 12 1;
#X connect 9 0 19 0;
#X connect 10 0 11 0;
#X connect 12 0 10 0;
#X connect 13 0 12 0;
#X connect 14 0 15 1;
#X connect 15 0 11 0;
#X connect 16 0 20 0;
#X connect 17 0 14 0;
#X connect 17 1 18 0;
#X connect 18 0 15 0;
#X connect 19 0 17 0;
#X connect 19 1 12 0;
#X connect 19 2 13 0;
#X connect 20 0 6 0;
#X connect 20 1 5 0;
#X connect 20 2 8 0;
#X restore 90 176 pd EVOLUTION_ACTIVE;
#X connect 0 0 4 0;
#X connect 1 0 20 0;
#X connect 3 0 6 0;
#X connect 4 0 20 0;
#X connect 5 0 4 1;
#X connect 6 0 8 0;
#X connect 7 0 19 0;
#X connect 8 0 24 0;
#X connect 9 0 8 1;
#X connect 10 0 15 0;
#X connect 11 0 13 0;
#X connect 12 0 11 0;
#X connect 13 0 14 0;
#X connect 14 0 20 0;
#X connect 15 0 16 0;
#X connect 16 0 11 1;
#X connect 17 0 18 0;
#X connect 18 0 15 0;
#X connect 18 1 16 1;
#X connect 19 0 20 0;
#X connect 19 1 6 0;
#X connect 19 2 9 0;
#X connect 20 0 22 0;
#X connect 21 0 2 0;
#X connect 22 0 21 0;
#X connect 23 0 5 0;
#X connect 24 0 23 0;
#X connect 25 0 24 0;
#X connect 25 1 23 1;
#X connect 26 0 25 0;
#X restore 9 194 pd READ_VALUE_FROM_FAUST_______;
#N canvas 418 366 294 545 EVOLUTION___ 0;
#X obj 63 122 r evolution-active;
#X obj 138 358 r evolution-time;
#X obj 97 251 t f f;
#X obj 57 316 spigot 0;
#X msg 38 252 0;
#X obj 38 230 sel 1 0;
#X obj 124 272 change;
#X msg 124 292 1;
#X obj 18 449 line 0 5;
#X obj 57 379 pack f f 16000;
#X obj 97 227 r \$0-input-1;
#X msg 57 400 \$1 \, \$2 \$3;
#X obj 18 36 inlet;
#X obj 18 57 s \$0-input-1;
#X obj 18 84 r \$0-input-1;
#X obj 18 494 outlet;
#X obj 18 165 spigot 1;
#X obj 63 142 == 0;
#X obj 57 339 f;
#X obj 38 208 r evolution-active;
#X obj 84 338 s \$0-evo-act;
#X connect 0 0 17 0;
#X connect 1 0 9 2;
#X connect 2 0 9 1;
#X connect 2 1 6 0;
#X connect 3 0 18 0;
#X connect 3 0 20 0;
#X connect 4 0 3 1;
#X connect 5 0 4 0;
#X connect 5 1 3 0;
#X connect 6 0 7 0;
#X connect 7 0 3 1;
#X connect 8 0 15 0;
#X connect 9 0 11 0;
#X connect 10 0 2 0;
#X connect 11 0 8 0;
#X connect 12 0 13 0;
#X connect 14 0 16 0;
#X connect 16 0 8 0;
#X connect 16 0 18 1;
#X connect 17 0 16 1;
#X connect 18 0 9 0;
#X connect 19 0 5 0;
#X restore 7 62 pd EVOLUTION___;
#X connect 1 0 23 0;
#X connect 6 0 2 0;
#X connect 12 0 14 0;
#X connect 13 0 20 0;
#X connect 15 0 16 0;
#X connect 15 0 17 0;
#X connect 18 0 19 0;
#X connect 20 0 27 0;
#X connect 23 2 5 0;
#X connect 23 2 11 0;
#X connect 27 0 3 0;
