#N canvas 767 383 411 225 10;
#X obj 33 12 inlet;
#X text 140 48 \$1 = instance;
#X text 140 62 \$2 = \$0;
#X text 137 32 Receive and parse OSC messages from synth;
#N canvas 421 322 669 556 MIX_BUS___ 1;
#X obj 123 37 inlet;
#X obj 176 452 s to-o-s-c-interface;
#X obj 176 429 oscformat panning\$1;
#X obj 244 409 s to-o-s-c-interface;
#X obj 244 386 oscformat enveloperelease\$1;
#X obj 304 366 s to-o-s-c-interface;
#X obj 304 343 oscformat envelopedepth\$1;
#X obj 365 320 s to-o-s-c-interface;
#X obj 365 297 oscformat envelopeside\$1;
#X obj 123 472 s \$2-volume-gui;
#X obj 392 253 oscformat fxsend\$1;
#X obj 392 274 s to-o-s-c-interface;
#X obj 435 232 s to-o-s-c-interface;
#X obj 435 211 oscformat reverb\$1;
#X obj 445 192 r reverb\$1;
#X obj 583 509 outlet;
#X obj 25 78 r \$1-reset;
#X msg 25 99 0;
#X msg 86 100 1;
#X msg 55 101 0.5;
#X obj 25 382 s to-o-s-c-interface;
#X obj 25 361 oscformat freqsnap\$1;
#X obj 157 516 s to-o-s-c-interface;
#X obj 157 493 oscformat volume\$1;
#X obj 443 171 s to-o-s-c-interface;
#X obj 123 86 route /\$3/volumeO /\$3/panningO /\$3/envelopereleaseO
/\$3/envelopedepthO /\$3/envelopesideO /\$3/fxsendO /\$3/reverbO /\$3/slew0
;
#X obj 443 150 oscformat slew\$1;
#X connect 0 0 25 0;
#X connect 2 0 1 0;
#X connect 4 0 3 0;
#X connect 6 0 5 0;
#X connect 8 0 7 0;
#X connect 10 0 11 0;
#X connect 13 0 12 0;
#X connect 14 0 13 0;
#X connect 16 0 17 0;
#X connect 16 0 18 0;
#X connect 16 0 19 0;
#X connect 17 0 4 0;
#X connect 17 0 6 0;
#X connect 17 0 8 0;
#X connect 17 0 13 0;
#X connect 17 0 21 0;
#X connect 17 0 23 0;
#X connect 17 0 26 0;
#X connect 18 0 10 0;
#X connect 18 0 9 0;
#X connect 19 0 2 0;
#X connect 21 0 20 0;
#X connect 23 0 22 0;
#X connect 25 0 9 0;
#X connect 25 0 23 0;
#X connect 25 1 2 0;
#X connect 25 2 4 0;
#X connect 25 3 6 0;
#X connect 25 4 8 0;
#X connect 25 5 10 0;
#X connect 25 6 13 0;
#X connect 25 7 26 0;
#X connect 25 8 15 0;
#X connect 26 0 24 0;
#X restore 33 63 pd MIX_BUS___;
#N canvas 621 89 802 789 SYNTHESIS_ 0;
#X obj 27 7 inlet;
#X obj 27 696 pack f f;
#X obj 27 742 s to-o-s-c-interface;
#X obj 86 570 s to-o-s-c-interface;
#X obj 143 412 s to-o-s-c-interface;
#X obj 45 649 t b f;
#X obj 172 369 s to-o-s-c-interface;
#X obj 172 346 oscformat genrange\$1;
#X obj 27 674 f;
#X obj 202 324 s to-o-s-c-interface;
#X obj 202 301 oscformat genstepsize\$1;
#X obj 92 697 s formuls\$1;
#X obj 95 652 s formuls\$1;
#X obj 46 628 change;
#X msg 94 631 waveshapeO;
#X msg 92 676 op1freqO;
#X obj 26 583 / 115;
#X obj 26 562 ftom;
#X obj 26 604 clip 0 1;
#X msg 332 504 0 0;
#X obj 86 501 pack f f;
#X obj 104 454 t b f;
#X obj 86 479 f;
#X obj 105 433 change;
#X obj 640 756 outlet;
#X obj 468 155 ftom;
#X obj 468 87 t a a;
#X obj 467 280 s to-o-s-c-interface;
#N canvas 0 23 358 494 MIDI2NOTE 0;
#X obj 47 27 inlet;
#X obj 47 48 mod 12;
#X obj 47 89 sel 0 1 2 3 4 5 6 7 8 9 10 11;
#X msg 47 370 C;
#X obj 257 441 t a;
#X obj 257 462 outlet;
#X msg 61 350 C#/Db;
#X msg 75 331 D;
#X msg 90 309 D#/Eb;
#X msg 102 289 E;
#X msg 115 267 F;
#X msg 136 245 F#/Gb;
#X msg 150 222 G;
#X msg 160 201 G#/Ab;
#X msg 175 177 A;
#X msg 188 155 A#/Bb;
#X msg 204 128 B;
#X obj 47 69 i;
#X connect 0 0 1 0;
#X connect 1 0 17 0;
#X connect 2 0 3 0;
#X connect 2 1 6 0;
#X connect 2 2 7 0;
#X connect 2 3 8 0;
#X connect 2 4 9 0;
#X connect 2 5 10 0;
#X connect 2 6 11 0;
#X connect 2 7 12 0;
#X connect 2 8 13 0;
#X connect 2 9 14 0;
#X connect 2 10 15 0;
#X connect 2 11 16 0;
#X connect 3 0 4 0;
#X connect 4 0 5 0;
#X connect 6 0 4 0;
#X connect 7 0 4 0;
#X connect 8 0 4 0;
#X connect 9 0 4 0;
#X connect 10 0 4 0;
#X connect 11 0 4 0;
#X connect 12 0 4 0;
#X connect 13 0 4 0;
#X connect 14 0 4 0;
#X connect 15 0 4 0;
#X connect 16 0 4 0;
#X connect 17 0 2 0;
#X restore 468 176 pd MIDI2NOTE;
#X obj 468 197 pack s f;
#X obj 468 239 symbol;
#X msg 468 218 \$1:\$2Hz;
#X obj 513 115 * 10;
#X obj 513 136 i;
#X obj 513 157 * 0.1;
#X obj 468 259 oscformat op1pitchgui\$1;
#X obj 468 130 change;
#X obj 27 49 route /\$3/op1freqO /\$3/waveshapeO /\$3/op1sliderangeO
/\$3/op1slidetimeO /\$3/extmodulationO /\$3/genrangeO /\$3/genstepsizeO
/\$3/op2freqO /\$3/op2depthO /\$3/noiseO /\$3/noisefilterfreqO;
#X obj 232 234 pack f f;
#X obj 232 280 s to-o-s-c-interface;
#X obj 297 140 pack f f;
#X obj 297 186 s to-o-s-c-interface;
#X obj 297 163 oscformat noise\$1;
#X obj 251 210 t b f;
#X obj 315 119 t b f;
#X obj 294 233 s formuls\$1;
#X obj 355 141 s formuls\$1;
#X msg 295 212 op2freqO;
#X obj 333 482 r \$1-reset;
#X msg 395 508 1;
#X msg 363 507 0;
#X obj 468 64 route op1pitchO;
#X obj 573 74 route genrange gensteps;
#X obj 577 39 r \$1-gen-messages;
#X obj 573 135 oscformat genrange\$1;
#X obj 638 107 oscformat genstepsize\$1;
#X obj 573 156 s to-o-s-c-interface;
#X msg 355 120 noisefilterfreqO;
#X obj 27 719 oscformat op1\$1;
#X obj 233 257 oscformat op2\$1;
#X obj 86 547 oscformat op1slide\$1;
#X obj 143 389 oscformat extmodulation\$1;
#X obj 395 564 s to-o-s-c-interface;
#X obj 395 543 oscformat chordsize\$1;
#X floatatom 594 104 5 0 0 0 - - -;
#X connect 0 0 37 0;
#X connect 1 0 58 0;
#X connect 5 0 8 0;
#X connect 5 0 15 0;
#X connect 5 1 1 1;
#X connect 7 0 6 0;
#X connect 8 0 1 0;
#X connect 10 0 9 0;
#X connect 13 0 5 0;
#X connect 14 0 12 0;
#X connect 15 0 11 0;
#X connect 16 0 18 0;
#X connect 17 0 16 0;
#X connect 18 0 8 0;
#X connect 19 0 42 0;
#X connect 19 0 58 0;
#X connect 19 0 59 0;
#X connect 19 0 60 0;
#X connect 20 0 60 0;
#X connect 21 0 22 0;
#X connect 21 1 20 1;
#X connect 22 0 20 0;
#X connect 23 0 21 0;
#X connect 25 0 28 0;
#X connect 26 0 36 0;
#X connect 26 1 32 0;
#X connect 28 0 29 0;
#X connect 29 0 31 0;
#X connect 30 0 35 0;
#X connect 31 0 30 0;
#X connect 32 0 33 0;
#X connect 33 0 34 0;
#X connect 34 0 29 1;
#X connect 35 0 27 0;
#X connect 36 0 25 0;
#X connect 37 0 14 0;
#X connect 37 0 17 0;
#X connect 37 1 13 0;
#X connect 37 2 22 0;
#X connect 37 3 23 0;
#X connect 37 4 61 0;
#X connect 37 5 7 0;
#X connect 37 6 10 0;
#X connect 37 7 38 0;
#X connect 37 8 43 0;
#X connect 37 9 44 0;
#X connect 37 10 40 0;
#X connect 37 11 51 0;
#X connect 38 0 59 0;
#X connect 40 0 42 0;
#X connect 42 0 41 0;
#X connect 43 0 38 0;
#X connect 43 0 47 0;
#X connect 43 1 38 1;
#X connect 44 0 40 0;
#X connect 44 0 57 0;
#X connect 44 1 40 1;
#X connect 47 0 45 0;
#X connect 48 0 19 0;
#X connect 48 0 49 0;
#X connect 48 0 50 0;
#X connect 49 0 10 0;
#X connect 49 0 7 0;
#X connect 49 0 63 0;
#X connect 50 0 61 0;
#X connect 51 0 26 0;
#X connect 51 1 24 0;
#X connect 52 0 54 0;
#X connect 52 0 64 0;
#X connect 52 1 55 0;
#X connect 53 0 52 0;
#X connect 54 0 56 0;
#X connect 55 0 56 0;
#X connect 57 0 46 0;
#X connect 58 0 2 0;
#X connect 59 0 39 0;
#X connect 60 0 3 0;
#X connect 61 0 4 0;
#X connect 63 0 62 0;
#X restore 33 84 pd SYNTHESIS_;
#N canvas 357 186 1083 692 SEQUENCER_ 0;
#X obj 97 37 inlet;
#X obj 212 424 s to-o-s-c-interface;
#X obj 212 401 oscformat attack\$1;
#X obj 251 382 s to-o-s-c-interface;
#X obj 251 359 oscformat decay\$1;
#X obj 290 338 s to-o-s-c-interface;
#X obj 290 315 oscformat sustain\$1;
#X obj 329 292 s to-o-s-c-interface;
#X obj 329 269 oscformat release\$1;
#X obj 96 567 s to-o-s-c-interface;
#X obj 96 544 oscformat velocity\$1;
#X obj 137 524 s to-o-s-c-interface;
#X obj 173 473 s to-o-s-c-interface;
#X obj 504 622 outlet;
#X obj 137 501 oscformat threshold\$1;
#X obj 173 450 oscformat seqrandomadd\$1;
#X obj 671 292 oscformat seqtimebase\$1;
#X obj 671 313 s to-o-s-c-interface;
#X obj 756 269 s to-o-s-c-interface;
#X obj 841 225 s to-o-s-c-interface;
#X obj 756 248 oscformat seqtimebasemultiplier\$1;
#X obj 841 204 oscformat seqlength\$1;
#X msg 579 134 1;
#X msg 614 134 64;
#X obj 566 97 r \$1-reset;
#X obj 921 177 s to-o-s-c-interface;
#X obj 672 112 route timebase timebasemultiplier seqlength seqrandomadd
;
#X obj 921 156 oscformat seqrandomadd\$1;
#X obj 408 198 s to-o-s-c-interface;
#X obj 369 246 s to-o-s-c-interface;
#X obj 28 89 r \$1-reset;
#X msg 28 119 0;
#X msg 60 119 1;
#X obj 369 223 oscformat adsron\$1;
#N canvas 0 23 318 363 SEQ_CLEAR____ 0;
#X obj 41 38 inlet;
#X obj 66 297 s to-o-s-c-interface;
#X msg 123 252 set seqwrite\$2 \$1;
#X obj 66 211 unpack f f;
#X obj 123 231 pack f \$1;
#X obj 66 276 oscformat;
#X obj 66 189 r \$2-seq-clear-\$1;
#X msg 41 72 64;
#X obj 41 117 until;
#X obj 41 138 i;
#X obj 66 138 + 1;
#X obj 41 93 t f b;
#X msg 79 113 0;
#X obj 41 159 t b f;
#X msg 41 180 0;
#X connect 0 0 7 0;
#X connect 2 0 5 0;
#X connect 3 0 5 0;
#X connect 3 1 4 0;
#X connect 4 0 2 0;
#X connect 5 0 1 0;
#X connect 6 0 3 0;
#X connect 7 0 11 0;
#X connect 8 0 9 0;
#X connect 9 0 10 0;
#X connect 9 0 13 0;
#X connect 10 0 9 1;
#X connect 11 0 8 0;
#X connect 11 1 12 0;
#X connect 12 0 9 1;
#X connect 13 0 14 0;
#X connect 13 1 4 0;
#X connect 14 0 5 0;
#X restore 566 168 pd SEQ_CLEAR____;
#X msg 648 132 0;
#X obj 408 175 oscformat polyphonic\$1;
#X obj 96 88 route /\$3/velocityO /\$3/thresholdO /\$3/seqrandomaddO
/\$3/attackO /\$3/decayO /\$3/sustainO /\$3/releaseO /\$3/adsron /\$3/polyphonicO
;
#X obj 345 202 pipe 50;
#X obj 672 93 r seq-messages-\$1;
#X obj 638 358 s to-o-s-c-interface;
#X obj 638 337 oscformat seqon\$1;
#X connect 0 0 37 0;
#X connect 2 0 1 0;
#X connect 4 0 3 0;
#X connect 6 0 5 0;
#X connect 8 0 7 0;
#X connect 10 0 9 0;
#X connect 14 0 11 0;
#X connect 15 0 12 0;
#X connect 16 0 17 0;
#X connect 20 0 18 0;
#X connect 21 0 19 0;
#X connect 22 0 20 0;
#X connect 22 0 16 0;
#X connect 23 0 21 0;
#X connect 24 0 23 0;
#X connect 24 0 22 0;
#X connect 24 0 34 0;
#X connect 24 0 35 0;
#X connect 26 0 16 0;
#X connect 26 1 20 0;
#X connect 26 2 21 0;
#X connect 26 3 27 0;
#X connect 27 0 25 0;
#X connect 30 0 31 0;
#X connect 30 0 32 0;
#X connect 31 0 8 0;
#X connect 31 0 4 0;
#X connect 31 0 2 0;
#X connect 31 0 15 0;
#X connect 31 0 36 0;
#X connect 31 0 38 0;
#X connect 31 0 10 0;
#X connect 31 0 6 0;
#X connect 32 0 14 0;
#X connect 33 0 29 0;
#X connect 35 0 27 0;
#X connect 35 0 41 0;
#X connect 36 0 28 0;
#X connect 37 0 10 0;
#X connect 37 1 14 0;
#X connect 37 2 15 0;
#X connect 37 3 2 0;
#X connect 37 4 4 0;
#X connect 37 5 6 0;
#X connect 37 6 8 0;
#X connect 37 7 33 0;
#X connect 37 8 36 0;
#X connect 37 9 13 0;
#X connect 38 0 33 0;
#X connect 39 0 26 0;
#X connect 41 0 40 0;
#X restore 33 105 pd SEQUENCER_;
#N canvas 224 97 1137 724 FX________ 0;
#X obj 134 17 inlet;
#X obj 683 280 pack f f;
#X obj 683 366 s to-o-s-c-interface;
#X obj 683 343 oscformat amfreqdepth\$1;
#X obj 779 319 s to-o-s-c-interface;
#X obj 701 260 t b f;
#X obj 779 296 oscformat amwave\$1;
#X obj 700 322 s formuls\$1;
#X obj 692 215 s formuls\$1;
#X obj 701 238 change;
#X msg 700 301 amfreqO;
#X msg 692 194 amdepthO;
#X obj 829 269 s to-o-s-c-interface;
#X obj 829 246 oscformat gatethresh\$1;
#X obj 876 219 s to-o-s-c-interface;
#X obj 876 196 oscformat gateattack\$1;
#X obj 925 169 s to-o-s-c-interface;
#X obj 925 146 oscformat gatehold\$1;
#X obj 973 119 s to-o-s-c-interface;
#X obj 973 96 oscformat gaterelease\$1;
#X obj 135 701 s to-o-s-c-interface;
#X obj 135 678 oscformat saturation\$1;
#X obj 167 657 s to-o-s-c-interface;
#X obj 167 634 oscformat bitcrush\$1;
#X obj 200 610 s to-o-s-c-interface;
#X obj 201 586 oscformat pitchshift\$1;
#X obj 240 567 s to-o-s-c-interface;
#X obj 240 544 oscformat delaysend\$1;
#X obj 270 521 s to-o-s-c-interface;
#X obj 270 498 oscformat delaytime\$1;
#X obj 302 475 s to-o-s-c-interface;
#X obj 302 452 oscformat delayfeedback\$1;
#X obj 336 427 s to-o-s-c-interface;
#X obj 336 405 oscformat filtercutoff\$1;
#X obj 403 141 s to-o-s-c-interface;
#X obj 403 118 oscformat filterresonance\$1;
#X obj 336 378 pack f f;
#X obj 336 356 f;
#X obj 336 334 t b f;
#X obj 336 312 clip 0 1;
#X obj 379 173 r highpass\$1;
#X obj 369 224 t f f;
#X obj 134 56 route /\$3/saturationO /\$3/bitcrushO /\$3/pitchshiftO
/\$3/delaysendO /\$3/delaytimeO /\$3/delayfeedbackO /\$3/lowpassO /\$3/highpassO
/\$3/resonanceO;
#X obj 39 64 r \$1-reset;
#X msg 39 85 0;
#X msg 99 85 1;
#X msg 69 86 0.5;
#X obj 611 51 r \$1-reset;
#X msg 611 72 0;
#X obj 1039 666 outlet;
#X msg 91 125 0 1;
#X obj 683 56 route /\$3/amfreqO /\$3/amdepthO /\$3/amwaveO /\$3/gatethreshO
/\$3/gateattackO /\$3/gateholdO /\$3/gatereleaseO;
#X obj 379 192 change;
#X obj 361 267 r lowpass\$1;
#X obj 346 286 f;
#X obj 346 247 t b;
#X connect 0 0 42 0;
#X connect 1 0 3 0;
#X connect 3 0 2 0;
#X connect 5 0 1 0;
#X connect 5 0 10 0;
#X connect 5 1 1 1;
#X connect 6 0 4 0;
#X connect 9 0 5 0;
#X connect 10 0 7 0;
#X connect 11 0 8 0;
#X connect 13 0 12 0;
#X connect 15 0 14 0;
#X connect 17 0 16 0;
#X connect 19 0 18 0;
#X connect 21 0 20 0;
#X connect 23 0 22 0;
#X connect 25 0 24 0;
#X connect 27 0 26 0;
#X connect 29 0 28 0;
#X connect 31 0 30 0;
#X connect 33 0 32 0;
#X connect 35 0 34 0;
#X connect 36 0 33 0;
#X connect 37 0 36 0;
#X connect 38 0 37 0;
#X connect 38 1 36 1;
#X connect 39 0 38 0;
#X connect 40 0 52 0;
#X connect 41 0 37 0;
#X connect 41 1 39 1;
#X connect 42 0 21 0;
#X connect 42 1 23 0;
#X connect 42 2 25 0;
#X connect 42 3 27 0;
#X connect 42 4 29 0;
#X connect 42 5 31 0;
#X connect 42 6 39 0;
#X connect 42 7 41 0;
#X connect 42 8 35 0;
#X connect 42 9 51 0;
#X connect 43 0 44 0;
#X connect 43 0 45 0;
#X connect 43 0 46 0;
#X connect 43 0 50 0;
#X connect 44 0 21 0;
#X connect 44 0 23 0;
#X connect 44 0 27 0;
#X connect 44 0 29 0;
#X connect 44 0 31 0;
#X connect 44 0 35 0;
#X connect 46 0 25 0;
#X connect 47 0 48 0;
#X connect 48 0 11 0;
#X connect 48 0 5 0;
#X connect 48 0 1 0;
#X connect 48 0 6 0;
#X connect 48 0 13 0;
#X connect 48 0 15 0;
#X connect 48 0 17 0;
#X connect 48 0 19 0;
#X connect 50 0 33 0;
#X connect 51 0 1 0;
#X connect 51 0 11 0;
#X connect 51 1 9 0;
#X connect 51 2 6 0;
#X connect 51 3 13 0;
#X connect 51 4 15 0;
#X connect 51 5 17 0;
#X connect 51 6 19 0;
#X connect 51 7 49 0;
#X connect 52 0 41 0;
#X connect 52 0 55 0;
#X connect 53 0 54 1;
#X connect 54 0 39 0;
#X connect 55 0 54 0;
#X restore 33 126 pd FX________;
#N canvas 100 94 578 327 FLOOPER___ 0;
#X obj 96 31 inlet;
#X obj 96 268 s to-o-s-c-interface;
#X obj 96 247 oscformat speed\$1;
#X obj 187 222 s to-o-s-c-interface;
#X obj 187 201 oscformat duration\$1;
#X obj 278 182 s to-o-s-c-interface;
#X obj 278 161 oscformat readoffset\$1;
#X obj 421 100 r flooperrecord\$1;
#X obj 421 121 oscformat record\$1;
#X obj 421 142 s to-o-s-c-interface;
#X msg 24 111 0;
#X msg 55 111 1;
#X obj 24 83 r \$1-reset;
#X obj 448 304 outlet;
#X obj 96 106 route /flooper/speedO /flooper/durationO /flooper/readoffsetO
;
#X connect 0 0 14 0;
#X connect 2 0 1 0;
#X connect 4 0 3 0;
#X connect 6 0 5 0;
#X connect 7 0 8 0;
#X connect 8 0 9 0;
#X connect 10 0 6 0;
#X connect 11 0 4 0;
#X connect 11 0 2 0;
#X connect 12 0 10 0;
#X connect 12 0 11 0;
#X connect 14 0 2 0;
#X connect 14 1 4 0;
#X connect 14 2 6 0;
#X connect 14 3 13 0;
#X restore 33 147 pd FLOOPER___;
#X text 141 78 \$3 = formuls;
#X text 141 94 \$4 = flooper;
#N canvas 342 60 1014 763 CHAOS_____ 0;
#X obj 37 37 inlet;
#X obj 36 283 oscformat op1chaos\$1;
#X msg 36 93 0 0;
#X obj 36 71 r \$1-reset;
#X obj 36 304 s to-o-s-c-interface;
#X obj 55 263 s to-o-s-c-interface;
#X obj 55 242 oscformat op2chaos\$1;
#X obj 71 218 s to-o-s-c-interface;
#X obj 71 197 oscformat noisechaos\$1;
#X obj 84 175 s to-o-s-c-interface;
#X obj 84 154 oscformat slidechaos\$1;
#X obj 94 135 s to-o-s-c-interface;
#X msg 66 93 0;
#X obj 266 67 r \$1-reset;
#X obj 266 230 s to-o-s-c-interface;
#X obj 285 189 s to-o-s-c-interface;
#X obj 301 144 s to-o-s-c-interface;
#X msg 266 89 0;
#X obj 465 56 r \$1-reset;
#X obj 465 509 s to-o-s-c-interface;
#X obj 484 468 s to-o-s-c-interface;
#X obj 500 423 s to-o-s-c-interface;
#X obj 513 380 s to-o-s-c-interface;
#X obj 523 340 s to-o-s-c-interface;
#X msg 465 78 0;
#X obj 465 488 oscformat velocitychaos\$1;
#X obj 484 447 oscformat threshchaos\$1;
#X obj 533 298 s to-o-s-c-interface;
#X obj 543 258 s to-o-s-c-interface;
#X obj 729 50 r \$1-reset;
#X obj 729 433 s to-o-s-c-interface;
#X obj 748 392 s to-o-s-c-interface;
#X obj 764 347 s to-o-s-c-interface;
#X obj 777 304 s to-o-s-c-interface;
#X obj 787 264 s to-o-s-c-interface;
#X msg 729 72 0;
#X obj 797 222 s to-o-s-c-interface;
#X obj 807 182 s to-o-s-c-interface;
#X obj 817 142 s to-o-s-c-interface;
#X obj 42 376 r \$1-reset;
#X obj 70 673 s to-o-s-c-interface;
#X obj 79 632 s to-o-s-c-interface;
#X obj 95 587 s to-o-s-c-interface;
#X obj 108 544 s to-o-s-c-interface;
#X obj 118 504 s to-o-s-c-interface;
#X msg 56 402 0;
#X obj 128 462 s to-o-s-c-interface;
#X msg 42 602 0 0;
#X obj 95 566 oscformat gatethreshchaos\$1;
#X obj 108 523 oscformat gateattackchaos\$1;
#X obj 118 483 oscformat gateholdchaos\$1;
#X obj 128 441 oscformat gatereleasechaos\$1;
#X obj 94 114 oscformat extmodchaos\$1;
#X obj 286 167 oscformat genstepsizechaos\$1;
#X obj 266 209 oscformat genrangechaos\$1;
#X obj 500 402 oscformat seqrandomaddchaos\$1;
#X obj 513 359 oscformat attackchaos\$1;
#X obj 523 319 oscformat decaychaos\$1;
#X obj 533 277 oscformat sustainchaos\$1;
#X obj 543 237 oscformat releasechaos\$1;
#X obj 729 412 oscformat saturationchaos\$1;
#X obj 748 371 oscformat bitcrushchaos\$1;
#X obj 778 283 oscformat delaysendchaos\$1;
#X obj 787 243 oscformat delaytimechaos\$1;
#X obj 798 201 oscformat delayfeedbackchaos\$1;
#X obj 807 161 oscformat filtercutoffchaos\$1;
#X obj 817 121 oscformat filterresonancechaos\$1;
#X obj 70 652 oscformat amfreqdepthchaos\$1;
#X obj 79 611 oscformat amwavechaos\$1;
#X obj 764 326 oscformat pitchshiftchaos\$1;
#X obj 553 218 s to-o-s-c-interface;
#X obj 553 197 oscformat reverbchaos\$1;
#X obj 563 178 s to-o-s-c-interface;
#X obj 563 157 oscformat fxsendchaos\$1;
#X obj 573 138 s to-o-s-c-interface;
#X obj 573 117 oscformat panningchaos\$1;
#X obj 301 123 oscformat seqtimebasechaos\$1;
#X obj 929 721 outlet;
#X connect 1 0 4 0;
#X connect 2 0 1 0;
#X connect 2 0 6 0;
#X connect 2 0 8 0;
#X connect 2 0 10 0;
#X connect 3 0 2 0;
#X connect 3 0 12 0;
#X connect 6 0 5 0;
#X connect 8 0 7 0;
#X connect 10 0 9 0;
#X connect 12 0 52 0;
#X connect 13 0 17 0;
#X connect 17 0 53 0;
#X connect 17 0 54 0;
#X connect 17 0 76 0;
#X connect 18 0 24 0;
#X connect 24 0 25 0;
#X connect 24 0 26 0;
#X connect 24 0 55 0;
#X connect 24 0 56 0;
#X connect 24 0 57 0;
#X connect 24 0 58 0;
#X connect 24 0 59 0;
#X connect 24 0 71 0;
#X connect 24 0 73 0;
#X connect 24 0 75 0;
#X connect 25 0 19 0;
#X connect 26 0 20 0;
#X connect 29 0 35 0;
#X connect 35 0 60 0;
#X connect 35 0 61 0;
#X connect 35 0 62 0;
#X connect 35 0 63 0;
#X connect 35 0 64 0;
#X connect 35 0 65 0;
#X connect 35 0 66 0;
#X connect 35 0 69 0;
#X connect 39 0 45 0;
#X connect 39 0 47 0;
#X connect 45 0 48 0;
#X connect 45 0 49 0;
#X connect 45 0 50 0;
#X connect 45 0 51 0;
#X connect 45 0 68 0;
#X connect 47 0 67 0;
#X connect 48 0 42 0;
#X connect 49 0 43 0;
#X connect 50 0 44 0;
#X connect 51 0 46 0;
#X connect 52 0 11 0;
#X connect 53 0 15 0;
#X connect 54 0 14 0;
#X connect 55 0 21 0;
#X connect 56 0 22 0;
#X connect 57 0 23 0;
#X connect 58 0 27 0;
#X connect 59 0 28 0;
#X connect 60 0 30 0;
#X connect 61 0 31 0;
#X connect 62 0 33 0;
#X connect 63 0 34 0;
#X connect 64 0 36 0;
#X connect 65 0 37 0;
#X connect 66 0 38 0;
#X connect 67 0 40 0;
#X connect 68 0 41 0;
#X connect 69 0 32 0;
#X connect 71 0 70 0;
#X connect 73 0 72 0;
#X connect 75 0 74 0;
#X connect 76 0 16 0;
#X restore 33 168 pd CHAOS_____;
#N canvas 0 23 348 626 MOD_______ 0;
#X obj 39 11 inlet;
#X obj 40 128 until;
#X msg 40 105 6;
#X obj 40 150 i;
#X obj 40 171 + 1;
#X obj 40 61 r \$1-reset;
#X obj 40 82 t b b;
#X msg 67 105 0;
#X obj 40 192 t f f f;
#X obj 40 481 pack f \$1;
#X obj 40 522 t b a;
#X msg 40 543 0;
#X obj 40 564 oscformat;
#X obj 113 370 pack f \$1;
#X obj 113 411 t b a;
#X msg 113 432 0;
#X msg 114 390 set thresholdinput\$2 \$1;
#X msg 40 501 set extmodulationinput\$2 \$1;
#X obj 113 453 oscformat;
#X obj 180 263 pack f \$1;
#X obj 180 304 t b a;
#X msg 180 325 0;
#X obj 180 346 oscformat;
#X msg 180 283 set envsideinput\$2 \$1;
#X obj 40 585 s to-o-s-c-interface;
#X obj 113 474 s to-o-s-c-interface;
#X obj 180 367 s to-o-s-c-interface;
#X connect 1 0 3 0;
#X connect 2 0 1 0;
#X connect 3 0 4 0;
#X connect 4 0 3 1;
#X connect 4 0 8 0;
#X connect 5 0 6 0;
#X connect 6 0 2 0;
#X connect 6 1 7 0;
#X connect 7 0 3 1;
#X connect 8 0 9 0;
#X connect 8 1 13 0;
#X connect 8 2 19 0;
#X connect 9 0 17 0;
#X connect 10 0 11 0;
#X connect 10 1 12 0;
#X connect 11 0 12 0;
#X connect 12 0 24 0;
#X connect 13 0 16 0;
#X connect 14 0 15 0;
#X connect 14 1 18 0;
#X connect 15 0 18 0;
#X connect 16 0 14 0;
#X connect 17 0 10 0;
#X connect 18 0 25 0;
#X connect 19 0 23 0;
#X connect 20 0 21 0;
#X connect 20 1 22 0;
#X connect 21 0 22 0;
#X connect 22 0 26 0;
#X connect 23 0 20 0;
#X restore 33 189 pd MOD_______;
#X connect 0 0 4 0;
#X connect 4 0 5 0;
#X connect 5 0 6 0;
#X connect 6 0 7 0;
#X connect 7 0 8 0;
#X connect 8 0 11 0;
#X connect 11 0 12 0;
