#N canvas 307 125 339 494 10;
#N canvas 0 23 586 510 ADSR_VEL_TRIG___ 0;
#X obj 37 17 inlet;
#X obj 464 404 outlet;
#X obj 37 462 f.util.oscformat \$0 \$1 adsron - 0;
#X obj 59 438 f.util.oscformat \$0 \$1 attack a 0;
#X obj 148 350 f.util.oscformat \$0 \$1 sustain s 1;
#X obj 193 307 f.util.oscformat \$0 \$1 release r 0;
#X obj 260 243 f.util.oscformat \$0 \$1 velocity v 1;
#X obj 304 199 f.util.oscformat \$0 \$1 threshold th 1;
#X obj 103 395 f.util.oscformat \$0 \$1 decay d 0;
#X obj 360 142 f.util.oscformat \$0 \$1 triggerx - 0;
#X obj 237 264 f.util.oscformat \$0 \$1 polyphonic - 0;
#X obj 247 197 sel 1;
#X obj 411 78 r \$0-reset;
#X msg 411 99 0;
#X obj 403 121 s \$1-keyboard-active;
#X obj 37 60 route adsron\$1 attack\$1 null decay\$1 null sustain\$1
null release\$1 null polyphonic\$1 velocity\$1 null threshold\$1 null
triggerx\$1 keyboard\$1;
#X obj 59 417 f.util.widgetparse \$0 \$1 attack a;
#X obj 148 327 f.util.widgetparse \$0 \$1 sustain s;
#X obj 103 373 f.util.widgetparse \$0 \$1 decay d;
#X obj 193 285 f.util.widgetparse \$0 \$1 release r;
#X obj 260 221 f.util.widgetparse \$0 \$1 velocity v;
#X obj 304 177 f.util.widgetparse \$0 \$1 threshold th;
#X connect 0 0 15 0;
#X connect 9 0 11 0;
#X connect 11 0 6 0;
#X connect 12 0 13 0;
#X connect 13 0 14 0;
#X connect 15 0 2 0;
#X connect 15 1 16 0;
#X connect 15 3 18 0;
#X connect 15 5 17 0;
#X connect 15 7 19 0;
#X connect 15 9 10 0;
#X connect 15 10 20 0;
#X connect 15 12 21 0;
#X connect 15 14 9 0;
#X connect 15 15 14 0;
#X connect 15 16 1 0;
#X connect 16 0 3 0;
#X connect 16 1 3 1;
#X connect 17 0 4 0;
#X connect 17 1 4 1;
#X connect 18 0 8 0;
#X connect 18 1 8 1;
#X connect 19 0 5 0;
#X connect 19 1 5 1;
#X connect 20 0 6 0;
#X connect 20 1 6 1;
#X connect 21 0 7 0;
#X connect 21 1 7 1;
#X restore 22 104 pd ADSR_VEL_TRIG___;
#N canvas 611 297 1309 746 SEQ_____________ 0;
#X obj 43 8 inlet;
#X obj 1211 727 outlet;
#X msg 117 287 \$1;
#X msg 42 472 \$1;
#X obj 602 216 s \$0-seq-random-vel;
#X obj 877 182 s \$0-seq-swing;
#X obj 204 166 s \$0-sequencer-gui;
#X obj 1072 38 r \$0-reset;
#X obj 117 368 i;
#X obj 448 559 pow 2.7;
#X obj 448 580 * 100;
#X obj 865 104 s \$0-seq-inv;
#X obj 1087 531 s \$0-seq-trigger;
#X obj 1087 491 change;
#X msg 42 596 timebase \$1;
#X obj 42 617 s \$0-seq-messages;
#X msg 117 388 seqlength \$1;
#X obj 117 409 s \$0-seq-messages;
#X obj 265 137 s \$0-seq-messages;
#X obj 191 301 s \$0-seq-messages;
#X msg 481 368 randomadd \$1;
#X obj 481 389 s \$0-seq-messages;
#X msg 541 257 randomdrop \$1;
#X obj 541 278 s \$0-seq-messages;
#X msg 662 154 swing \$1;
#X obj 662 175 s \$0-seq-messages;
#X msg 723 91 seqinvert \$1;
#X obj 723 112 s \$0-seq-messages;
#X msg 448 601 delay \$1;
#X obj 448 622 s \$0-seq-messages;
#X msg 518 496 warp \$1;
#X obj 518 517 s \$0-seq-messages;
#X msg 729 487 beatsync \$1;
#X obj 729 508 s \$0-seq-messages;
#X msg 963 640 timebasemultiplier \$1;
#X obj 963 661 s \$0-seq-messages;
#X msg 1072 60 reset bang;
#X obj 1072 81 s \$0-seq-messages;
#X obj 963 600 i;
#X msg 191 280 seqwrite \$1 \$2;
#X obj 1087 511 sel 0;
#X obj 1087 471 spigot;
#X obj 271 71 tgl 15 0 empty empty empty 17 7 0 10 -262144 -1 -1 0
1;
#X msg 265 116 seqon \$1;
#X obj 963 579 * 4;
#X obj 1120 429 r \$0-seq-messages;
#X obj 1120 450 route seqon;
#X obj 265 93 f.seq.automater \$0 \$0-seq-on 0 0;
#X obj 723 71 f.seq.automater \$0 \$0-seq-inv;
#X obj 662 133 f.seq.automater \$0 \$0-seq-swing;
#X obj 602 195 f.seq.automater \$0 \$0-seq-random-vel;
#X obj 541 237 f.seq.automater \$0 \$0-seq-random-drop;
#X obj 481 349 f.seq.automater \$0 \$0-seq-random-add 0 0;
#X obj 518 475 f.seq.automater \$0 \$0-seq-warp;
#X obj 448 538 f.seq.automater \$0 \$0-seq-delay;
#X obj 729 465 f.seq.automater \$0 \$0-async;
#X obj 1087 408 f.seq.automater \$0 \$0-seq-trigger 0 1;
#X obj 117 306 / 64;
#X obj 117 347 * 64;
#X obj 117 325 f.seq.automater \$0 \$0-seq-length 1 1;
#X obj 963 536 / 4;
#X obj 191 234 list;
#X obj 191 190 fudiformat;
#X obj 191 211 fudiparse;
#X obj 481 40 route seqrandomadd\$1 seqrandomdrop\$1 seqrandomvel\$1
seqswing\$1 seqinv\$1;
#X obj 448 454 route seqdelay\$1 seqwarp\$1;
#X obj 729 439 route async\$1;
#X obj 963 379 route seqtimebasemultiplier\$1 seqtrigger\$1;
#X obj 43 51 route seqtimebase\$1 seqlength\$1 seqwrite\$1 seqon\$1
;
#X msg 191 255 \$1 \$2;
#X msg 75 490 chaos \$1;
#X obj 42 555 i;
#X obj 985 455 r \$0-reset;
#X msg 989 479 1;
#X obj 145 469 r \$0-value-send;
#X msg 222 493 chaostrig \$1;
#X obj 42 493 / 8;
#X obj 42 576 clip 1 8;
#X obj 42 535 * 8;
#X obj 42 514 f.seq.automater \$0 \$0-seq-time-base 0;
#X obj 963 559 f.seq.automater \$0 \$0-seq-time-base-multiplier 0 0
;
#X obj 963 621 clip 1 4;
#X msg 145 490 ctrig bang;
#X obj 43 444 f.util.widgetparse \$0 \$1 seqtimebase stb;
#X obj 481 299 f.util.widgetparse \$0 \$1 seqrandomadd seqrandomadd
;
#X msg 499 326 chaos \$1;
#X obj 590 391 s to-o-s-c-interface;
#X obj 590 370 oscformat seqrandomaddmain\$1;
#X obj 110 558 s to-o-s-c-interface;
#X obj 110 537 oscformat seqtimebasemain\$1;
#X msg 306 494 active \$1;
#X msg 570 324 active \$1;
#X connect 0 0 68 0;
#X connect 2 0 57 0;
#X connect 3 0 76 0;
#X connect 7 0 36 0;
#X connect 8 0 16 0;
#X connect 9 0 10 0;
#X connect 10 0 28 0;
#X connect 13 0 40 0;
#X connect 14 0 15 0;
#X connect 16 0 17 0;
#X connect 20 0 21 0;
#X connect 22 0 23 0;
#X connect 24 0 25 0;
#X connect 26 0 27 0;
#X connect 28 0 29 0;
#X connect 30 0 31 0;
#X connect 32 0 33 0;
#X connect 34 0 35 0;
#X connect 36 0 37 0;
#X connect 38 0 81 0;
#X connect 39 0 19 0;
#X connect 40 1 12 0;
#X connect 41 0 13 0;
#X connect 42 0 47 0;
#X connect 43 0 18 0;
#X connect 44 0 38 0;
#X connect 45 0 46 0;
#X connect 46 0 41 1;
#X connect 47 0 43 0;
#X connect 48 0 26 0;
#X connect 49 0 24 0;
#X connect 50 0 4 0;
#X connect 51 0 22 0;
#X connect 52 0 20 0;
#X connect 52 0 87 0;
#X connect 53 0 30 0;
#X connect 54 0 9 0;
#X connect 55 0 32 0;
#X connect 56 0 41 0;
#X connect 57 0 59 0;
#X connect 58 0 8 0;
#X connect 59 0 58 0;
#X connect 60 0 80 0;
#X connect 61 0 69 0;
#X connect 62 0 63 0;
#X connect 63 0 61 0;
#X connect 64 0 84 0;
#X connect 64 1 51 0;
#X connect 64 2 50 0;
#X connect 64 3 49 0;
#X connect 64 4 48 0;
#X connect 64 5 65 0;
#X connect 65 0 54 0;
#X connect 65 1 53 0;
#X connect 65 2 66 0;
#X connect 66 0 55 0;
#X connect 66 1 67 0;
#X connect 67 0 60 0;
#X connect 67 1 56 0;
#X connect 67 2 1 0;
#X connect 68 0 83 0;
#X connect 68 1 2 0;
#X connect 68 2 6 0;
#X connect 68 2 62 0;
#X connect 68 3 47 0;
#X connect 68 4 64 0;
#X connect 69 0 39 0;
#X connect 70 0 79 0;
#X connect 71 0 77 0;
#X connect 72 0 73 0;
#X connect 74 0 82 0;
#X connect 75 0 79 0;
#X connect 76 0 79 0;
#X connect 77 0 14 0;
#X connect 78 0 71 0;
#X connect 79 0 78 0;
#X connect 79 0 89 0;
#X connect 80 0 44 0;
#X connect 81 0 34 0;
#X connect 82 0 79 0;
#X connect 83 0 3 0;
#X connect 83 1 70 0;
#X connect 83 2 90 0;
#X connect 83 4 75 0;
#X connect 84 0 52 0;
#X connect 84 1 85 0;
#X connect 84 2 91 0;
#X connect 85 0 52 0;
#X connect 87 0 86 0;
#X connect 89 0 88 0;
#X connect 90 0 79 0;
#X connect 91 0 52 0;
#X restore 22 126 pd SEQ_____________;
#N canvas 175 228 1486 559 FX______________ 0;
#X obj 17 27 inlet;
#X obj 1278 531 outlet;
#X obj 669 492 s formuls\$1;
#X obj 669 470 oscformat amact\$1;
#N canvas 785 321 530 512 AM_QUANTISE 0;
#X floatatom 294 58 5 0 0 0 - - -;
#X text 385 90 bpm to hz;
#X text 383 157 99.9 + 0.1;
#X obj 294 105 /;
#X floatatom 294 129 5 0 0 0 - - -;
#X obj 294 177 /;
#X floatatom 294 201 5 0 0 0 - - -;
#X msg 294 81 60 \$1;
#X msg 294 153 0.5 \$1;
#X obj 282 281 *;
#X obj 282 255 f;
#X obj 294 224 t b f;
#X obj 147 152 sel 0 1 2 3;
#X msg 147 188 1;
#X msg 179 188 2;
#X msg 212 188 4;
#X msg 244 188 8;
#X obj 147 229 t a;
#X msg 335 270 1 3.1;
#X obj 335 294 /;
#X obj 305 345 pow;
#X floatatom 335 318 5 0 0 0 - - -;
#X floatatom 305 373 5 0 0 0 - - -;
#X obj 288 308 / 100;
#X text 31 32 from interface (0-1 / number_of_steps);
#X obj 35 9 inlet;
#X obj 148 112 * 4;
#X obj 148 133 int;
#X obj 294 32 r bpmglobal;
#X obj 338 247 loadbang;
#X obj 148 66 r evenglobal;
#X obj 35 90 f.util.switch;
#X obj 124 431 outlet;
#X floatatom 230 313 5 0 0 0 - - -;
#X obj 232 429 oscformat amfreq;
#X obj 232 450 s \$0-OSC-collect-\$1;
#X connect 0 0 7 0;
#X connect 3 0 4 0;
#X connect 4 0 8 0;
#X connect 5 0 6 0;
#X connect 6 0 11 0;
#X connect 7 0 3 0;
#X connect 8 0 5 0;
#X connect 9 0 23 0;
#X connect 9 0 33 0;
#X connect 10 0 9 0;
#X connect 11 0 10 0;
#X connect 11 1 9 1;
#X connect 12 0 13 0;
#X connect 12 1 14 0;
#X connect 12 2 15 0;
#X connect 12 3 16 0;
#X connect 13 0 17 0;
#X connect 14 0 17 0;
#X connect 15 0 17 0;
#X connect 16 0 17 0;
#X connect 17 0 10 0;
#X connect 18 0 19 0;
#X connect 19 0 21 0;
#X connect 20 0 22 0;
#X connect 21 0 20 1;
#X connect 22 0 34 0;
#X connect 23 0 20 0;
#X connect 25 0 31 0;
#X connect 26 0 27 0;
#X connect 27 0 12 0;
#X connect 28 0 0 0;
#X connect 29 0 18 0;
#X connect 30 0 31 1;
#X connect 31 0 34 0;
#X connect 31 1 26 0;
#X connect 34 0 35 0;
#X restore 450 467 pd AM_QUANTISE;
#X obj 961 404 s fx-routing-\$1;
#X obj 512 403 r xglobal;
#X obj 569 341 r yglobal;
#X obj 17 444 unpack f f;
#X obj 17 524 s highpass\$1;
#X obj 961 330 route fxpostpre\$1 fxsend\$1 fxschaos\$1;
#X obj 74 484 s lowpass\$1;
#X obj 507 359 f.util.switch;
#X obj 450 421 f.util.switch;
#X obj 58 94 r \$0-reset;
#X msg 58 115 0;
#X obj 450 441 f.util.oscformat \$0 \$1 amfreq amf 0 1;
#X obj 507 379 f.util.oscformat \$0 \$1 amdepth amd 0;
#X obj 17 161 f.util.oscformat \$0 \$1 saturation sat 0;
#X obj 128 114 f.util.oscformat \$0 \$1 bitcrush bit 0;
#X obj 19 271 f.util.oscformat \$0 \$1 pitchshift pit 0.5;
#X obj 454 178 f.util.oscformat \$0 \$1 delaysend ds 0;
#X obj 573 132 f.util.oscformat \$0 \$1 delaytime dt 0;
#X obj 692 90 f.util.oscformat \$0 \$1 delayfeedback df 0;
#X obj 562 288 f.util.oscformat \$0 \$1 amwave amw 0 4;
#X obj 974 269 f.util.oscformat \$0 \$1 gatethresh gt 0;
#X obj 1059 223 f.util.oscformat \$0 \$1 gateattack ga 0;
#X obj 1144 174 f.util.oscformat \$0 \$1 gatehold gh 0;
#X obj 1229 131 f.util.oscformat \$0 \$1 gaterelease gr 0;
#X obj 1034 384 f.util.oscformat \$0 \$1 fxsend fxs 1;
#X obj 74 464 f.util.oscformat \$0 \$1 lowpass lop 1;
#X obj 17 503 f.util.oscformat \$0 \$1 highpass hip 0;
#X obj 174 388 f.util.oscformat \$0 \$1 resonance fr 0;
#X obj 17 138 f.util.widgetparse \$0 \$1 saturation sat;
#X obj 128 93 f.util.widgetparse \$0 \$1 bitcrush;
#X obj 17 60 route saturation\$1 null bitcrush\$1 null bitcrushwetdry\$1
bitcrushwetdrychaos\$1;
#X obj 174 366 f.util.widgetparse \$0 \$1 filterresonance fr;
#X obj 454 155 f.util.widgetparse \$0 \$1 delaysend ds;
#X obj 454 42 route delaysend\$1 null delaytime\$1 null delayfeedback\$1
null;
#X obj 573 111 f.util.widgetparse \$0 \$1 delaytime dt;
#X obj 692 67 f.util.widgetparse \$0 \$1 delayfeedback df;
#X obj 450 232 route amfreqdepth\$1 null amwave\$1 null;
#X obj 451 315 f.util.widgetxyparse \$0 \$1 amfreqdepth amfreqdepth
;
#X obj 562 263 f.util.widgetparse \$0 \$1 amwave amw;
#X obj 974 244 f.util.widgetparse \$0 \$1 gatethresh gt;
#X obj 975 29 route gatethresh\$1 null gateattack\$1 null gatehold\$1
null gaterelease\$1 null;
#X obj 1059 196 f.util.widgetparse \$0 \$1 gateattack ga;
#X obj 1144 153 f.util.widgetparse \$0 \$1 gatehold gh;
#X obj 1229 107 f.util.widgetparse \$0 \$1 gaterelease gr;
#X obj 1034 364 f.util.widgetparse \$0 \$1 fxsend fxs;
#X obj 19 213 route pitchshift\$1 pitchshiftchaos\$1 pitchshiftbutton\$1
;
#X obj 52 245 f.util.widgetparse \$0 \$1 pitchshift;
#X obj 17 332 route filtercutoff\$1 filtercutoffchaos\$1 filtercutoffbutton\$1
filterresonance\$1 null;
#X obj 110 432 f.util.widgetparse \$0 \$1 filtercutoff fc;
#X connect 0 0 35 0;
#X connect 3 0 2 0;
#X connect 6 0 13 1;
#X connect 7 0 12 1;
#X connect 8 0 31 0;
#X connect 8 1 30 0;
#X connect 10 0 5 0;
#X connect 10 1 49 0;
#X connect 10 3 1 0;
#X connect 12 0 17 0;
#X connect 13 0 16 0;
#X connect 14 0 15 0;
#X connect 15 0 19 0;
#X connect 16 0 4 0;
#X connect 16 3 3 0;
#X connect 17 3 3 0;
#X connect 30 0 11 0;
#X connect 31 0 9 0;
#X connect 33 0 18 0;
#X connect 33 1 18 1;
#X connect 34 0 19 0;
#X connect 35 0 33 0;
#X connect 35 2 34 0;
#X connect 35 6 50 0;
#X connect 36 0 32 0;
#X connect 36 1 32 1;
#X connect 37 0 21 0;
#X connect 37 1 21 1;
#X connect 38 0 37 0;
#X connect 38 2 39 0;
#X connect 38 4 40 0;
#X connect 38 6 41 0;
#X connect 39 0 22 0;
#X connect 39 1 22 1;
#X connect 40 0 23 0;
#X connect 40 1 23 1;
#X connect 41 0 42 0;
#X connect 41 2 43 0;
#X connect 41 4 45 0;
#X connect 42 0 13 0;
#X connect 42 1 12 0;
#X connect 42 2 16 1;
#X connect 42 3 17 1;
#X connect 42 4 17 2;
#X connect 42 4 16 2;
#X connect 42 5 17 3;
#X connect 42 5 16 3;
#X connect 42 6 17 4;
#X connect 42 6 16 4;
#X connect 43 0 24 0;
#X connect 43 1 24 1;
#X connect 44 0 25 0;
#X connect 44 1 25 1;
#X connect 45 0 44 0;
#X connect 45 2 46 0;
#X connect 45 4 47 0;
#X connect 45 6 48 0;
#X connect 45 8 10 0;
#X connect 46 0 26 0;
#X connect 46 1 26 1;
#X connect 47 0 27 0;
#X connect 48 0 28 0;
#X connect 48 1 28 1;
#X connect 49 0 29 0;
#X connect 49 1 29 1;
#X connect 50 0 20 0;
#X connect 50 1 20 1;
#X connect 50 2 51 1;
#X connect 50 3 52 0;
#X connect 51 2 20 2;
#X connect 51 3 20 3;
#X connect 51 4 20 4;
#X connect 52 0 8 0;
#X connect 52 1 30 1;
#X connect 52 2 53 1;
#X connect 52 3 36 0;
#X connect 52 5 38 0;
#X connect 53 2 31 2;
#X connect 53 3 31 3;
#X connect 53 4 31 4;
#X restore 22 148 pd FX______________;
#N canvas 102 380 1088 402 ENV_MASTER_PAN__ 0;
#X obj 37 27 inlet;
#X obj 967 340 outlet;
#X obj 633 210 > 0;
#X obj 680 232 s \$0-volume;
#X msg 646 169 1;
#X obj 270 207 s reverb\$1;
#X msg 283 154 chaos \$1;
#X obj 688 265 loadbang;
#X msg 688 286 0;
#X obj 633 251 moses 1;
#X obj 633 272 pipe 10;
#X obj 633 293 t a;
#X msg 633 314 active \$1;
#X obj 633 335 s formuls\$1;
#X obj 633 231 change;
#X obj 799 73 route reset\$1;
#X obj 799 113 bng 15 250 50 0 empty empty empty 17 7 0 10 -262144
-1 -1;
#X obj 799 153 s \$0-reset;
#X obj 828 133 s \$1-reset;
#X obj 37 342 f.util.oscformat \$0 \$1 enveloperelease er 0;
#X obj 130 311 f.util.oscformat \$0 \$1 envelopedepth ed 0;
#X obj 223 281 f.util.oscformat \$0 \$1 envelopeside es 0;
#X obj 497 356 f.util.oscformat \$0 \$1 panning pan 0.5;
#X obj 633 190 f.util.oscformat \$0 \$1 volume - 0;
#X obj 799 94 sel 1;
#X obj 829 113 s \$0-\$1-reset;
#X obj 681 162 s formuls\$1;
#X msg 681 142 mute \$1;
#X obj 37 76 route enveloperelease\$1 envelopereleasechaos\$1 envelopedepth\$1
envelopedepthchaos\$1 envside\$1 reverb\$1 revchaos\$1;
#X obj 545 133 r \$0-value-send;
#X msg 545 154 trig bang;
#X msg 455 155 chaostrig \$1;
#X obj 270 129 f.util.widgetparse \$0 \$1 reverb rev;
#X obj 497 73 route panning\$1 panningchaos\$1 volume\$1 mute\$1;
#X obj 365 250 s to-o-s-c-interface;
#X obj 365 229 oscformat reverbmain\$1;
#N canvas 0 458 278 322 FILTER 0;
#X obj 84 61 inlet;
#X obj 129 97 t b b b;
#X obj 129 141 del 50;
#X msg 129 165 1;
#X msg 168 118 stop;
#X msg 158 165 0;
#X obj 84 191 spigot 1;
#X obj 84 252 outlet;
#X obj 138 54 inlet;
#X connect 0 0 6 0;
#X connect 1 0 2 0;
#X connect 1 1 5 0;
#X connect 1 2 4 0;
#X connect 2 0 3 0;
#X connect 3 0 6 1;
#X connect 4 0 2 0;
#X connect 5 0 6 1;
#X connect 6 0 7 0;
#X connect 8 0 1 0;
#X restore 365 208 pd FILTER;
#X msg 479 182 looptrig \$1;
#X msg 345 156 active \$1;
#X obj 270 186 f.seq.automater \$0 \$0-reverb 0;
#X connect 0 0 28 0;
#X connect 2 0 3 0;
#X connect 4 0 23 0;
#X connect 6 0 39 0;
#X connect 7 0 8 0;
#X connect 9 0 10 0;
#X connect 9 1 11 0;
#X connect 10 0 11 0;
#X connect 11 0 12 0;
#X connect 12 0 13 0;
#X connect 14 0 9 0;
#X connect 15 0 24 0;
#X connect 15 0 25 0;
#X connect 15 1 1 0;
#X connect 16 0 17 0;
#X connect 16 0 18 0;
#X connect 23 0 2 0;
#X connect 24 0 16 0;
#X connect 27 0 26 0;
#X connect 28 0 19 0;
#X connect 28 1 19 1;
#X connect 28 2 20 0;
#X connect 28 3 20 1;
#X connect 28 4 21 0;
#X connect 28 5 32 0;
#X connect 28 7 33 0;
#X connect 29 0 30 0;
#X connect 30 0 39 0;
#X connect 31 0 39 0;
#X connect 32 0 36 1;
#X connect 32 0 39 0;
#X connect 32 1 6 0;
#X connect 32 2 38 0;
#X connect 32 3 37 0;
#X connect 32 4 31 0;
#X connect 33 0 22 0;
#X connect 33 1 22 1;
#X connect 33 2 23 0;
#X connect 33 3 27 0;
#X connect 33 4 15 0;
#X connect 35 0 34 0;
#X connect 36 0 35 0;
#X connect 37 0 39 0;
#X connect 38 0 39 0;
#X connect 39 0 5 0;
#X connect 39 0 36 0;
#X restore 22 170 pd ENV_MASTER_PAN__;
#X obj 22 14 r o-s-c-messages;
#X obj 22 444 outlet;
#X obj 22 364 r formuls\$1;
#N canvas 681 306 449 455 MOD_INPUT_______ 0;
#X obj 41 2 inlet;
#X obj 270 348 t a;
#X obj 392 418 outlet;
#X obj 270 369 s \$0-mod-routing;
#X obj 41 56 route f1 f2 f3 f4 f5 f6;
#X obj 43 263 f.util.modparse 1;
#X obj 64 241 f.util.modparse 2;
#X obj 101 219 f.util.modparse 3;
#X obj 122 196 f.util.modparse 4;
#X obj 146 174 f.util.modparse 5;
#X obj 167 151 f.util.modparse 6;
#X obj 41 33 route modulationinput\$1;
#X connect 0 0 11 0;
#X connect 1 0 3 0;
#X connect 4 0 5 0;
#X connect 4 1 6 0;
#X connect 4 2 7 0;
#X connect 4 3 8 0;
#X connect 4 4 9 0;
#X connect 4 5 10 0;
#X connect 5 0 1 0;
#X connect 6 0 1 0;
#X connect 7 0 1 0;
#X connect 8 0 1 0;
#X connect 9 0 1 0;
#X connect 10 0 1 0;
#X connect 11 0 4 0;
#X connect 11 1 2 0;
#X restore 22 192 pd MOD_INPUT_______;
#X obj 147 368 r \$0-mod-routing;
#N canvas 137 483 295 252 SEQUENCER_BEAT__ 0;
#X obj 166 96 s \$0-seq-length;
#X obj 64 51 r \$0-seq-messages;
#X obj 55 76 f.seq.sequencer;
#X obj 55 20 r link;
#X msg 55 161 triggerx \$1;
#X obj 55 182 s formuls\$1;
#X obj 64 97 s \$0-value-send;
#N canvas 0 32 233 291 TRIG________ 0;
#X obj 70 99 t b b;
#X obj 70 120 del 2;
#X msg 70 141 0;
#X obj 70 162 t a;
#X msg 106 138 1;
#X obj 70 213 outlet;
#X obj 70 46 inlet;
#X obj 137 215 outlet~;
#X obj 137 182 sig~;
#X connect 0 0 1 0;
#X connect 0 1 4 0;
#X connect 1 0 2 0;
#X connect 2 0 3 0;
#X connect 3 0 5 0;
#X connect 3 0 8 0;
#X connect 4 0 3 0;
#X connect 6 0 0 0;
#X connect 8 0 7 0;
#X restore 55 119 pd TRIG________;
#X obj 142 183 s~ \$0-trig-sig;
#X obj 153 76 s seq-messages-\$1;
#X connect 1 0 2 0;
#X connect 1 0 9 0;
#X connect 2 0 7 0;
#X connect 2 0 6 0;
#X connect 3 0 2 0;
#X connect 4 0 5 0;
#X connect 7 0 4 0;
#X connect 7 1 8 0;
#X restore 22 298 pd SEQUENCER_BEAT__;
#N canvas 295 150 784 547 FLOOPER_________ 0;
#X obj 52 27 inlet;
#X obj 420 489 outlet;
#X obj 49 262 route speed\$1 spechaos\$1 duration\$1 durchaos\$1 readoffset\$1
offchaos\$1 envelope\$1 envchaos\$1 dropout\$1 drochaos\$1;
#X obj 52 189 f.util.oscformat \$0 \$1 record -;
#X obj 110 170 f.util.oscformat \$0 \$1 play - 0;
#X obj 169 151 f.util.oscformat \$0 \$1 loop - 0;
#X obj 227 132 f.util.oscformat \$0 \$1 reverse - 0;
#X obj 286 113 f.util.oscformat \$0 \$1 level - 0;
#X obj 49 382 f.util.oscformat \$0 \$1 speed spe 1;
#X obj 259 321 f.util.oscformat \$0 \$1 envelope env 0;
#X obj 329 301 f.util.oscformat \$0 \$1 dropout dro 0;
#X obj 52 67 route record\$1 play\$1 loop\$1 reverse\$1 level\$1 audioinput\$1
;
#N canvas 585 436 291 279 INPUT_PARSE 0;
#X obj 43 8 inlet;
#X msg 100 173 symbol \$2-audio-in-\$1;
#X obj 43 130 unpack f f;
#X obj 100 152 pack f \$2;
#X obj 100 194 symbol;
#X obj 43 221 s;
#X obj 43 87 list;
#X obj 43 43 fudiformat;
#X obj 43 64 fudiparse;
#X msg 43 108 \$2 \$1;
#X connect 0 0 7 0;
#X connect 1 0 4 0;
#X connect 2 0 5 0;
#X connect 2 1 3 0;
#X connect 3 0 1 0;
#X connect 4 0 5 1;
#X connect 6 0 9 0;
#X connect 7 0 8 0;
#X connect 8 0 6 0;
#X connect 9 0 2 0;
#X restore 344 93 pd INPUT_PARSE;
#X obj 119 361 f.util.oscformat \$0 \$1 duration dur 0;
#X obj 189 341 f.util.oscformat \$0 \$1 readoffset rea 0;
#N canvas 19 26 450 300 RECORD____ 0;
#X obj 106 79 sel 1;
#X obj 106 167 del;
#X msg 106 188 0;
#X msg 136 189 1;
#X obj 121 147 r recordtime;
#X obj 106 209 t a;
#X obj 106 100 t b b b;
#X msg 145 126 stop;
#X obj 229 196 tgl 15 0 empty empty empty 17 7 0 10 -262144 -1 -1 0
1;
#X obj 114 31 inlet;
#X obj 204 243 s flooperrecord\$1;
#X obj 106 230 outlet;
#X connect 0 0 6 0;
#X connect 1 0 2 0;
#X connect 2 0 5 0;
#X connect 3 0 5 0;
#X connect 4 0 1 1;
#X connect 5 0 8 0;
#X connect 5 0 10 0;
#X connect 5 0 11 0;
#X connect 6 0 1 0;
#X connect 6 1 3 0;
#X connect 6 2 7 0;
#X connect 7 0 1 0;
#X connect 9 0 0 0;
#X restore 30 217 pd RECORD____;
#X connect 0 0 11 0;
#X connect 2 0 8 0;
#X connect 2 1 8 1;
#X connect 2 2 13 0;
#X connect 2 3 13 1;
#X connect 2 4 14 0;
#X connect 2 5 14 1;
#X connect 2 6 9 0;
#X connect 2 7 9 1;
#X connect 2 8 10 0;
#X connect 2 9 10 1;
#X connect 2 10 1 0;
#X connect 11 0 15 0;
#X connect 11 1 4 0;
#X connect 11 2 5 0;
#X connect 11 3 6 0;
#X connect 11 4 7 0;
#X connect 11 5 12 0;
#X connect 11 6 2 0;
#X connect 15 0 3 0;
#X restore 22 212 pd FLOOPER_________;
#N canvas 417 578 1194 342 TRIG____________ 0;
#X obj 34 15 inlet;
#X obj 34 38 route op1freqwavetrig\$1 exttrig\$1 op2trig\$1 noisetrig\$1
amtrig\$1 amwtrig\$1;
#X obj 34 289 s \$0-op1f-trig;
#X obj 54 268 s \$0-w-trig;
#X obj 97 247 s \$0-ext-trig;
#X obj 182 204 s \$0-op2d-trig;
#X obj 161 225 s \$0-op2f-trig;
#X obj 226 178 s \$0-n-trig;
#X obj 242 156 s \$0-nf-trig;
#X obj 288 134 s \$0-amf-trig;
#X obj 299 112 s \$0-amd-trig;
#X obj 352 87 s \$0-amw-trig;
#X obj 445 263 s \$0-sat-trig;
#X obj 496 241 s \$0-bit-trig;
#X obj 548 220 s \$0-pit-trig;
#X obj 598 198 s \$0-ds-trig;
#X obj 651 176 s \$0-dt-trig;
#X obj 681 155 s \$0-df-trig;
#X obj 727 108 s \$0-fr-trig;
#X obj 1084 284 outlet;
#X obj 877 42 route revtrig\$1 fxsendtrig\$1;
#X obj 877 98 s \$0-revtrig;
#X obj 959 76 s \$0-fxstrig;
#X obj 445 37 route sattrig\$1 bittrig\$1 pittrig\$1 dstrig$ dttrig\$1
dftrig\$1 fctrig\$1 frtrig\$1 pantrig\$1;
#X obj 765 85 s \$0-pan-trig;
#X obj 704 131 s \$0-lop-trig;
#X connect 0 0 1 0;
#X connect 1 0 2 0;
#X connect 1 0 3 0;
#X connect 1 1 4 0;
#X connect 1 2 6 0;
#X connect 1 2 5 0;
#X connect 1 3 7 0;
#X connect 1 3 8 0;
#X connect 1 4 9 0;
#X connect 1 4 10 0;
#X connect 1 5 11 0;
#X connect 1 6 23 0;
#X connect 20 0 21 0;
#X connect 20 1 22 0;
#X connect 20 2 19 0;
#X connect 23 0 12 0;
#X connect 23 1 13 0;
#X connect 23 2 14 0;
#X connect 23 3 15 0;
#X connect 23 4 16 0;
#X connect 23 5 17 0;
#X connect 23 6 25 0;
#X connect 23 7 18 0;
#X connect 23 8 24 0;
#X connect 23 9 20 0;
#X restore 22 252 pd TRIG____________;
#N canvas 0 348 1780 342 ACT_____________ 0;
#X obj 34 15 inlet;
#X obj 34 289 s \$0-op1f-act;
#X obj 54 268 s \$0-w-act;
#X obj 97 247 s \$0-ext-act;
#X obj 161 225 s \$0-op2f-act;
#X obj 182 204 s \$0-op2d-act;
#X obj 226 178 s \$0-n-act;
#X obj 242 156 s \$0-nf-act;
#X obj 445 263 s \$0-sat-act;
#X obj 497 241 s \$0-bit-act;
#X obj 548 220 s \$0-pit-act;
#X obj 599 198 s \$0-ds-act;
#X obj 651 176 s \$0-dt-act;
#X obj 681 155 s \$0-df-act;
#X obj 727 108 s \$0-fr-act;
#X obj 875 225 s \$0-a-act;
#X obj 927 203 s \$0-d-act;
#X obj 976 182 s \$0-s-act;
#X obj 1029 160 s \$0-r-act;
#X obj 1081 138 s \$0-op1sr-act;
#X obj 1111 117 s \$0-op1st-act;
#X obj 1221 48 route seqlact\$1 seqtbact\$1 seqtbmact\$1;
#X obj 1221 144 s \$0-seql-act;
#X obj 1273 122 s \$0-seqtb-act;
#X obj 1322 101 s \$0-seqtbm-act;
#X obj 1468 40 route reverbact\$1 fxsendact\$1 enract\$1 endact\$1
;
#X obj 875 59 route aact\$1 dact\$1 sact\$1 ract$ slideact\$1;
#X obj 34 38 route op1act\$1 extact\$1 op2act\$1 noiseact\$1 slideact\$1
amact\$1 amwact\$1;
#X obj 354 70 s \$0-amw-act;
#X obj 331 91 s \$0-amd-act;
#X obj 299 112 s \$0-amf-act;
#X obj 288 134 s \$0-slide-act;
#X obj 445 37 route satact\$1 bitact\$1 pitact\$1 dsact\$1 dtact\$1
dfact\$1 fcact\$1 fract\$1 panact\$1;
#X obj 765 85 s \$0-pan-act;
#X obj 1424 176 route speact\$1 duract\$1 offact\$1 envact\$1;
#X obj 1422 272 s \$0-spe-act;
#X obj 1472 250 s \$0-dur-act;
#X obj 1524 229 s \$0-off-act;
#X obj 1593 201 s \$0-env-act;
#X obj 1467 136 s \$0-rev-act;
#X obj 1518 114 s \$0-fxs-act;
#X obj 1568 93 s \$0-enr-act;
#X obj 1636 65 s \$0-end-act;
#X obj 704 131 s \$0-lop-act;
#X connect 0 0 27 0;
#X connect 21 0 22 0;
#X connect 21 1 23 0;
#X connect 21 2 24 0;
#X connect 21 3 25 0;
#X connect 25 0 39 0;
#X connect 25 1 40 0;
#X connect 25 2 41 0;
#X connect 25 3 42 0;
#X connect 25 4 34 0;
#X connect 26 0 15 0;
#X connect 26 1 16 0;
#X connect 26 2 17 0;
#X connect 26 3 18 0;
#X connect 26 4 19 0;
#X connect 26 4 20 0;
#X connect 26 5 21 0;
#X connect 27 0 1 0;
#X connect 27 0 2 0;
#X connect 27 1 3 0;
#X connect 27 2 4 0;
#X connect 27 2 5 0;
#X connect 27 3 6 0;
#X connect 27 3 7 0;
#X connect 27 4 31 0;
#X connect 27 5 29 0;
#X connect 27 5 30 0;
#X connect 27 6 28 0;
#X connect 27 7 32 0;
#X connect 32 0 8 0;
#X connect 32 1 9 0;
#X connect 32 2 10 0;
#X connect 32 3 11 0;
#X connect 32 4 12 0;
#X connect 32 5 13 0;
#X connect 32 6 43 0;
#X connect 32 7 14 0;
#X connect 32 8 33 0;
#X connect 32 9 26 0;
#X connect 34 0 35 0;
#X connect 34 1 36 0;
#X connect 34 2 37 0;
#X connect 34 3 38 0;
#X restore 22 274 pd ACT_____________;
#N canvas 855 169 996 750 OP1_OP2_NOISE___ 0;
#X obj 6 10 inlet;
#X obj 871 696 outlet;
#X obj 69 541 r xglobal;
#X obj 102 469 r yglobal;
#X obj 255 308 r xglobal;
#X obj 308 250 r yglobal;
#X obj 508 158 r xglobal;
#X obj 541 95 r yglobal;
#X obj 6 558 f.util.switch;
#X obj 40 487 f.util.switch;
#X obj 189 326 f.util.switch;
#X obj 246 268 f.util.switch;
#X obj 446 176 f.util.switch;
#X obj 479 113 f.util.switch;
#X obj 660 370 f.util.switch;
#X obj 603 432 f.util.switch;
#X msg 86 611 active \$1;
#X msg 6 680 op1freq \$1;
#X obj 6 701 s formuls\$1;
#X obj 141 701 s to-o-s-c-interface;
#X obj 141 680 oscformat op1pitchgui\$1;
#X obj 279 149 s \$0-op1-freq-snap;
#X obj 19 589 pow 2.7;
#X obj 97 406 f.util.oscformat \$0 \$1 extmodulation ext 0;
#X obj 40 510 f.util.oscformat \$0 \$1 waveshape w 0 4;
#X obj 189 345 f.util.oscformat \$0 \$1 op1sliderange op1sr 0;
#X obj 246 289 f.util.oscformat \$0 \$1 op1slidetime op1st 0;
#X obj 446 196 f.util.oscformat \$0 \$1 op2freq op2f 0 8;
#X obj 479 133 f.util.oscformat \$0 \$1 op2depth op2d 0 8;
#X obj 660 389 f.util.oscformat \$0 \$1 noise n 0;
#X obj 603 451 f.util.oscformat \$0 \$1 noisefilterfreq nf 0;
#X msg 20 609 chaos \$1;
#X obj 6 634 f.seq.automater \$0 \$0-op1freq 0 0;
#N canvas 799 310 337 312 FREQ_SNAP_NOTE_GEN__ 0;
#X obj 62 139 mtof;
#X obj 62 117 t f f;
#X obj 107 172 i;
#X obj 62 20 inlet;
#X obj 62 268 outlet;
#X obj 107 269 outlet;
#X obj 107 195 pack f s;
#X msg 107 221 symbol \$2:\$1Hz;
#X obj 62 63 t f b b;
#N canvas 1171 213 390 784 NOTE_SNAP 0;
#X obj 51 17 inlet;
#X obj 51 736 outlet;
#X obj 158 336 +;
#X obj 139 205 r \$0-value-send;
#X obj 181 429 spigot;
#X obj 87 207 t f f;
#X msg 198 80 stop;
#X obj 214 406 == 0;
#X msg 188 122 1;
#X obj 188 101 del 50;
#X obj 245 258 r \$0-op1-freq-snap;
#X obj 139 226 t b b b;
#X obj 188 16 inlet;
#X obj 233 17 inlet;
#X obj 181 452 f.util.keyselector \$0;
#X obj 158 364 f.util.keyselector \$0;
#X obj 158 278 f.util.floatint;
#X obj 158 494 spigot;
#X obj 191 472 r \$0-op1-freq-snap;
#X msg 96 577 0;
#X obj 96 556 sel 1 0;
#X obj 124 577 del 50;
#X msg 124 598 1;
#X obj 96 620 t a;
#X obj 96 535 r \$0-\$1-reset;
#X obj 51 642 spigot 1;
#N canvas 0 23 450 300 PITCH_LENGTH_CALCULATE 0;
#X obj 41 155 * 127;
#X obj 56 93 r pitch-gamut-length;
#X text 104 133 <- "* 11": total number of octaves covered by the pitch
range;
#X text 87 161 <- total number of pitches covered by the 11 octave
pitch range;
#X obj 68 135 * 10;
#X obj 56 114 t b f;
#X obj 41 135 f;
#X obj 41 30 inlet;
#X obj 41 236 outlet;
#X connect 0 0 8 0;
#X connect 1 0 5 0;
#X connect 4 0 0 1;
#X connect 5 0 6 0;
#X connect 5 1 4 0;
#X connect 6 0 0 0;
#X connect 7 0 6 0;
#X restore 87 181 pd PITCH_LENGTH_CALCULATE;
#X obj 51 145 t f f;
#X obj 188 143 t f f;
#N canvas 0 23 335 382 FREQ_SNAP___ 0;
#X obj 78 189 spigot;
#X obj 125 131 spigot;
#X obj 78 168 f;
#X obj 78 132 * 115;
#X obj 158 103 == 0;
#X obj 158 82 r \$0-op1-freq-snap;
#X obj 78 231 line 0 1;
#X msg 78 210 \$1 20;
#X obj 77 252 change;
#X obj 77 17 inlet;
#X obj 125 17 inlet;
#X obj 77 313 outlet;
#X connect 0 0 7 0;
#X connect 1 0 2 0;
#X connect 2 0 0 0;
#X connect 3 0 2 0;
#X connect 4 0 0 1;
#X connect 4 0 1 1;
#X connect 5 0 4 0;
#X connect 6 0 8 0;
#X connect 7 0 6 0;
#X connect 8 0 11 0;
#X connect 9 0 3 0;
#X connect 10 0 1 0;
#X restore 51 282 pd FREQ_SNAP___;
#N canvas 160 90 303 400 NOTE_GEN______ 0;
#X obj 123 144 r \$0-gen-direction;
#X obj 80 326 outlet;
#X obj 81 43 inlet;
#X obj 113 123 r \$0-gen-min;
#X obj 95 213 r \$0-gen-invert;
#X obj 95 234 sel 0 1;
#X msg 95 255 1;
#X msg 127 253 -1;
#X obj 80 283 * 1;
#X obj 81 186 f.gen.drunk;
#X obj 81 70 t b;
#X obj 93 103 r \$0-gen-range;
#X obj 133 165 r \$0-gen-repeat;
#X connect 0 0 9 4;
#X connect 2 0 10 0;
#X connect 3 0 9 2;
#X connect 3 0 9 3;
#X connect 4 0 5 0;
#X connect 5 0 6 0;
#X connect 5 1 7 0;
#X connect 6 0 8 1;
#X connect 7 0 8 1;
#X connect 8 0 1 0;
#X connect 9 0 8 0;
#X connect 10 0 9 0;
#X connect 11 0 9 0;
#X connect 12 0 9 5;
#X restore 178 314 pd NOTE_GEN______;
#X msg 233 120 1;
#X obj 158 391 spigot 1;
#X connect 0 0 27 0;
#X connect 2 0 15 0;
#X connect 3 0 11 0;
#X connect 4 0 14 0;
#X connect 5 0 16 0;
#X connect 5 1 4 0;
#X connect 6 0 9 0;
#X connect 7 0 4 1;
#X connect 8 0 28 0;
#X connect 9 0 8 0;
#X connect 10 0 16 2;
#X connect 11 0 29 1;
#X connect 11 1 16 0;
#X connect 11 2 30 0;
#X connect 12 0 9 0;
#X connect 13 0 6 0;
#X connect 13 0 31 0;
#X connect 14 0 17 0;
#X connect 15 0 32 0;
#X connect 16 0 2 0;
#X connect 17 0 25 0;
#X connect 18 0 17 1;
#X connect 19 0 23 0;
#X connect 20 0 19 0;
#X connect 20 1 21 0;
#X connect 21 0 22 0;
#X connect 22 0 23 0;
#X connect 23 0 25 1;
#X connect 24 0 20 0;
#X connect 25 0 1 0;
#X connect 26 0 5 0;
#X connect 27 0 29 0;
#X connect 27 1 26 0;
#X connect 28 0 32 1;
#X connect 28 1 7 0;
#X connect 29 0 25 0;
#X connect 30 0 2 1;
#X connect 31 0 28 0;
#X connect 32 0 17 0;
#X restore 62 96 pd NOTE_SNAP;
#X obj 152 172 f.util.midi2notename;
#X connect 0 0 2 0;
#X connect 0 0 4 0;
#X connect 1 0 0 0;
#X connect 1 1 10 0;
#X connect 2 0 6 0;
#X connect 3 0 8 0;
#X connect 6 0 7 0;
#X connect 7 0 5 0;
#X connect 8 0 9 0;
#X connect 9 0 1 0;
#X connect 10 0 6 1;
#X restore 6 657 pd FREQ_SNAP_NOTE_GEN__;
#X obj 289 104 loadbang;
#X msg 289 125 0;
#X obj 347 91 r \$0-reset;
#X obj 347 112 del 50;
#X obj 283 170 oscformat freqsnap\$1;
#X obj 283 191 s to-o-s-c-interface;
#X obj 182 590 r \$0-value-send;
#X msg 182 611 trig bang;
#X msg 286 612 chaostrig \$1;
#X obj 287 591 r \$0-op1-chaos-trig;
#X obj 665 414 r xglobal;
#X obj 722 352 r yglobal;
#X obj 86 590 r \$0-op1-act;
#X obj 6 440 f.util.widgetxyparse \$0 \$1 op1 op1;
#X obj 189 229 f.util.widgetxyparse \$0 \$1 slide slide;
#X obj 6 53 route op1\$1 null extmod\$1 null slide\$1 null freqsnap\$1
;
#X obj 603 301 route noise\$1;
#X obj 446 73 f.util.widgetxyparse \$0 \$1 op2 op2;
#X obj 97 384 f.util.widgetparse \$0 \$1 extmod ext;
#X obj 446 44 route op2\$1;
#X obj 603 324 f.util.widgetxyparse \$0 \$1 noise noise;
#X obj 454 589 bng 15 250 50 0 empty empty empty 17 7 0 10 -262144
-1 -1;
#X obj 454 609 s noteread\$1;
#X obj 499 476 t b b b;
#X obj 499 520 del 50;
#X msg 499 544 1;
#X msg 538 497 stop;
#X msg 528 544 0;
#X obj 454 570 spigot 1;
#X connect 0 0 49 0;
#X connect 2 0 8 1;
#X connect 3 0 9 1;
#X connect 4 0 10 1;
#X connect 5 0 11 1;
#X connect 6 0 12 1;
#X connect 7 0 13 1;
#X connect 8 0 32 0;
#X connect 9 0 24 0;
#X connect 10 0 25 0;
#X connect 11 0 26 0;
#X connect 12 0 27 0;
#X connect 13 0 28 0;
#X connect 14 0 29 0;
#X connect 15 0 30 0;
#X connect 16 0 32 0;
#X connect 17 0 18 0;
#X connect 20 0 19 0;
#X connect 22 0 31 0;
#X connect 31 0 32 0;
#X connect 32 0 33 0;
#X connect 33 0 17 0;
#X connect 33 0 62 0;
#X connect 33 1 20 0;
#X connect 34 0 35 0;
#X connect 35 0 21 0;
#X connect 35 0 38 0;
#X connect 36 0 37 0;
#X connect 37 0 35 0;
#X connect 38 0 39 0;
#X connect 40 0 41 0;
#X connect 41 0 32 0;
#X connect 42 0 32 0;
#X connect 43 0 42 0;
#X connect 44 0 15 1;
#X connect 45 0 14 1;
#X connect 46 0 16 0;
#X connect 47 0 8 0;
#X connect 47 1 9 0;
#X connect 47 2 22 0;
#X connect 47 3 24 1;
#X connect 47 4 24 2;
#X connect 47 4 16 0;
#X connect 47 5 24 3;
#X connect 47 6 24 4;
#X connect 47 6 42 0;
#X connect 48 0 10 0;
#X connect 48 1 11 0;
#X connect 48 2 25 1;
#X connect 48 3 26 1;
#X connect 48 4 26 2;
#X connect 48 4 25 2;
#X connect 48 5 26 3;
#X connect 48 5 25 3;
#X connect 48 6 25 4;
#X connect 48 6 26 4;
#X connect 49 0 47 0;
#X connect 49 0 57 0;
#X connect 49 2 52 0;
#X connect 49 4 48 0;
#X connect 49 6 21 0;
#X connect 49 7 53 0;
#X connect 50 0 54 0;
#X connect 50 1 1 0;
#X connect 51 0 12 0;
#X connect 51 1 13 0;
#X connect 51 2 27 1;
#X connect 51 3 28 1;
#X connect 51 4 28 2;
#X connect 51 4 27 2;
#X connect 51 5 28 3;
#X connect 51 5 27 3;
#X connect 51 6 28 4;
#X connect 51 6 27 4;
#X connect 52 0 23 0;
#X connect 52 1 23 1;
#X connect 53 0 51 0;
#X connect 53 1 50 0;
#X connect 54 0 15 0;
#X connect 54 1 14 0;
#X connect 54 2 30 1;
#X connect 54 3 29 1;
#X connect 54 4 29 2;
#X connect 54 4 30 2;
#X connect 54 5 29 3;
#X connect 54 5 30 3;
#X connect 54 6 29 4;
#X connect 54 6 30 4;
#X connect 55 0 56 0;
#X connect 57 0 58 0;
#X connect 57 1 61 0;
#X connect 57 2 60 0;
#X connect 58 0 59 0;
#X connect 59 0 62 1;
#X connect 60 0 58 0;
#X connect 61 0 62 1;
#X connect 62 0 55 0;
#X restore 22 62 pd OP1_OP2_NOISE___;
#X obj 147 445 outlet~;
#X obj 199 446 outlet~;
#X obj 252 447 outlet~;
#N canvas 328 46 257 259 OSC_COLLECT_MANIPULATE 0;
#X obj 42 26 r \$0-OSC-collect-\$1;
#X obj 42 49 oscparse;
#N canvas 78 433 450 300 list-manipulate 0;
#X obj 174 119 inlet;
#X obj 174 165 outlet;
#X msg 174 142 \$1 \$2;
#X connect 0 0 2 0;
#X connect 2 0 1 0;
#X restore 42 71 pd list-manipulate;
#X obj 52 94 r \$0-OSC-collect-2-\$1;
#X obj 42 165 s formuls\$1;
#X connect 0 0 1 0;
#X connect 1 0 2 0;
#X connect 2 0 4 0;
#X connect 3 0 4 0;
#X restore 22 318 pd OSC_COLLECT_MANIPULATE;
#X obj 147 388 f.audio.modroute~;
#X msg 129 15 reset1;
#N canvas 598 39 584 753 GEN_EUC_________ 0;
#X obj 38 37 inlet;
#X obj 451 727 outlet;
#X obj 36 691 s \$0-gen-range;
#X obj 36 564 f.seq.automater \$0 \$0-gen-range 0;
#X msg 72 540 chaos \$1;
#X obj 116 426 i;
#X obj 116 488 s \$0-gen-min;
#X obj 116 386 f.seq.automater \$0 \$0-gen-min 0;
#X obj 37 538 / 24;
#X obj 36 605 * 24;
#X obj 36 586 f;
#X obj 355 143 s \$0-gen-on-off;
#X obj 355 121 f.seq.automater \$0 \$0-gen-on-off 0;
#X obj 116 405 * 8;
#X obj 117 361 / 8;
#X obj 196 275 f.seq.automater \$0 \$0-gen-direction 0;
#X obj 196 254 / 4;
#X msg 231 253 chaos \$1;
#N canvas 0 23 450 300 GEN-MAPPING 0;
#X obj 37 37 inlet;
#X obj 37 79 * 4;
#X obj 37 100 i;
#X obj 38 121 + 1;
#X obj 38 142 mod 4;
#X floatatom 38 163 5 0 0 0 - - -;
#X obj 38 183 s \$0-gen-direction;
#X connect 0 0 1 0;
#X connect 1 0 2 0;
#X connect 2 0 3 0;
#X connect 3 0 4 0;
#X connect 4 0 5 0;
#X connect 5 0 6 0;
#X restore 196 296 pd GEN-MAPPING;
#X obj 276 192 f.seq.automater \$0 \$0-gen-repeat 0;
#X obj 276 233 s \$0-gen-repeat;
#X msg 315 170 chaos \$1;
#X obj 276 168 / 8;
#X obj 276 213 * 8;
#X obj 51 272 r \$0-value-send;
#X msg 315 363 chaostrig \$1;
#X obj 44 669 s \$1-gen-messages;
#X msg 44 647 genrange \$1;
#X obj 125 468 s \$1-gen-messages;
#X msg 125 446 gensteps \$1;
#X msg 51 293 ctrig bang;
#X obj 37 512 f.util.widgetparse \$0 \$1 genrange genrange;
#X obj 117 329 f.util.widgetparse \$0 \$1 genstepsize genstepsize;
#X msg 139 538 active \$1;
#X obj 36 624 i;
#X msg 213 362 active \$1;
#X obj 39 76 route genrange\$1 genrangechaos\$1 genstepsize\$1 genstepsizechaos\$1
gendirection\$1 null genrepeat\$1 null genon\$1;
#X msg 152 361 chaos \$1;
#X msg 228 538 chaostrig \$1;
#X connect 0 0 36 0;
#X connect 3 0 10 0;
#X connect 4 0 3 0;
#X connect 5 0 6 0;
#X connect 5 0 29 0;
#X connect 7 0 13 0;
#X connect 8 0 3 0;
#X connect 9 0 34 0;
#X connect 10 0 9 0;
#X connect 12 0 11 0;
#X connect 13 0 5 0;
#X connect 14 0 7 0;
#X connect 15 0 18 0;
#X connect 16 0 15 0;
#X connect 17 0 15 0;
#X connect 19 0 23 0;
#X connect 21 0 19 0;
#X connect 22 0 19 0;
#X connect 23 0 20 0;
#X connect 24 0 30 0;
#X connect 25 0 7 0;
#X connect 27 0 26 0;
#X connect 29 0 28 0;
#X connect 30 0 7 0;
#X connect 30 0 3 0;
#X connect 31 0 8 0;
#X connect 31 2 33 0;
#X connect 31 4 38 0;
#X connect 32 0 14 0;
#X connect 32 2 35 0;
#X connect 32 4 25 0;
#X connect 33 0 3 0;
#X connect 34 0 2 0;
#X connect 34 0 27 0;
#X connect 35 0 7 0;
#X connect 36 0 31 0;
#X connect 36 1 4 0;
#X connect 36 2 32 0;
#X connect 36 3 37 0;
#X connect 36 4 16 0;
#X connect 36 6 22 0;
#X connect 36 7 21 0;
#X connect 36 8 12 0;
#X connect 36 9 1 0;
#X connect 37 0 7 0;
#X connect 38 0 3 0;
#X restore 22 83 pd GEN_EUC_________;
#X obj 22 385 list prepend f-in;
#X obj 22 406 list trim;
#N canvas 547 311 1351 730 CHAOS_TRIG______ 0;
#X obj 37 27 inlet;
#X obj 37 671 s \$0-OSC-collect-2-\$1;
#X msg 37 650 thchaostrig \$1;
#X obj 72 629 s \$0-OSC-collect-2-\$1;
#X msg 72 608 extchaostrig \$1;
#X obj 108 585 s \$0-OSC-collect-2-\$1;
#X msg 108 564 wchaostrig \$1;
#X obj 144 520 s \$0-OSC-collect-2-\$1;
#X msg 144 476 op1srchaostrig \$1;
#X msg 161 498 op1stchaostrig \$1;
#X obj 215 434 s \$0-OSC-collect-2-\$1;
#X msg 215 393 op2fchaostrig \$1;
#X msg 231 412 op2dchaostrig \$1;
#X obj 287 372 s \$0-OSC-collect-2-\$1;
#X msg 287 332 nchaostrig \$1;
#X msg 302 351 nfchaostrig \$1;
#X obj 359 290 s \$0-OSC-collect-2-\$1;
#X msg 359 271 achaostrig \$1;
#X obj 394 251 s \$0-OSC-collect-2-\$1;
#X msg 394 232 dchaostrig \$1;
#X obj 430 212 s \$0-OSC-collect-2-\$1;
#X msg 430 193 schaostrig \$1;
#X obj 466 174 s \$0-OSC-collect-2-\$1;
#X msg 466 155 rchaostrig \$1;
#X obj 502 135 s \$0-OSC-collect-2-\$1;
#X msg 502 116 vchaostrig \$1;
#X obj 662 629 s \$0-OSC-collect-2-\$1;
#X obj 688 587 s \$0-OSC-collect-2-\$1;
#X obj 717 543 s \$0-OSC-collect-2-\$1;
#X obj 773 460 s \$0-OSC-collect-2-\$1;
#X obj 801 418 s \$0-OSC-collect-2-\$1;
#X obj 828 376 s \$0-OSC-collect-2-\$1;
#X obj 856 336 s \$0-OSC-collect-2-\$1;
#X obj 884 295 s \$0-OSC-collect-2-\$1;
#X obj 912 254 s \$0-OSC-collect-2-\$1;
#X obj 940 215 s \$0-OSC-collect-2-\$1;
#X obj 968 176 s \$0-OSC-collect-2-\$1;
#X obj 996 138 s \$0-OSC-collect-2-\$1;
#X obj 1061 383 s \$0-OSC-collect-2-\$1;
#X obj 1219 685 outlet;
#X msg 662 608 fxschaostrig \$1;
#X msg 689 566 amwchaostrig \$1;
#X msg 717 502 amfchaostrig \$1;
#X msg 731 523 amdchaostrig \$1;
#X msg 773 439 satchaostrig \$1;
#X msg 801 397 bitchaostrig \$1;
#X msg 829 356 pitchaostrig \$1;
#X msg 856 316 hipchaostrig \$1;
#X msg 884 275 lopchaostrig \$1;
#X msg 912 234 frchaostrig \$1;
#X msg 940 196 dschaostrig \$1;
#X msg 968 157 dtchaostrig \$1;
#X msg 996 119 dfchaostrig \$1;
#X msg 1061 364 gtchaostrig \$1;
#X obj 1075 343 s \$0-OSC-collect-2-\$1;
#X msg 1075 324 gachaostrig \$1;
#X obj 1092 305 s \$0-OSC-collect-2-\$1;
#X msg 1092 286 ghchaostrig \$1;
#X obj 1108 265 s \$0-OSC-collect-2-\$1;
#X msg 1108 246 grchaostrig \$1;
#X obj 1120 226 s \$0-OSC-collect-2-\$1;
#X msg 1120 207 panchaostrig \$1;
#X obj 323 310 s \$0-seqtb-chaos-trig;
#X obj 118 543 s \$0-op1-chaos-trig;
#X obj 37 57 route thchaostrig\$1 extchaostrig\$1 op1chaostrig\$1 op1lidechaostrig\$1
null op2chaostrig\$1 op2dchaostrig\$1 noisechaostrig\$1 seqtbchaostrig\$1
achaostrig\$1 dchaostrig\$1 schaostrig\$1 rchaostrig\$1 vchaostrig\$1
, f 84;
#X obj 662 56 route fxschaostrig\$1 amwchaostrig\$1 amchaostrig\$1
null satchaostrig\$1 bitchaostrig\$1 pitchaostrig\$1 hipchaostrig\$1
fcchaostrig\$1 frchaostrig\$1 dschaostrig\$1 dtchaostrig\$1 dfchaostrig\$1
gtchaostrig\$1 gachaostrig\$1 ghchaostrig\$1 grchaostrig\$1 panchaostrig\$1
revchaostrig\$1, f 84;
#X obj 1144 161 s \$0-reverb-chaos-trig;
#X obj 949 596 route grchaostrig\$1 gschaostrig\$1;
#X obj 949 647 s \$0-genrange-chaos-trig;
#X obj 1045 621 s \$0-genstep-chaos-trig;
#X connect 0 0 64 0;
#X connect 2 0 1 0;
#X connect 4 0 3 0;
#X connect 6 0 5 0;
#X connect 8 0 7 0;
#X connect 9 0 7 0;
#X connect 11 0 10 0;
#X connect 12 0 10 0;
#X connect 14 0 13 0;
#X connect 15 0 13 0;
#X connect 17 0 16 0;
#X connect 19 0 18 0;
#X connect 21 0 20 0;
#X connect 23 0 22 0;
#X connect 25 0 24 0;
#X connect 40 0 26 0;
#X connect 41 0 27 0;
#X connect 42 0 28 0;
#X connect 43 0 28 0;
#X connect 44 0 29 0;
#X connect 45 0 30 0;
#X connect 46 0 31 0;
#X connect 47 0 32 0;
#X connect 48 0 33 0;
#X connect 49 0 34 0;
#X connect 50 0 35 0;
#X connect 51 0 36 0;
#X connect 52 0 37 0;
#X connect 53 0 38 0;
#X connect 55 0 54 0;
#X connect 57 0 56 0;
#X connect 59 0 58 0;
#X connect 61 0 60 0;
#X connect 64 0 2 0;
#X connect 64 1 4 0;
#X connect 64 2 6 0;
#X connect 64 2 63 0;
#X connect 64 3 8 0;
#X connect 64 3 9 0;
#X connect 64 5 11 0;
#X connect 64 5 12 0;
#X connect 64 7 14 0;
#X connect 64 7 15 0;
#X connect 64 8 62 0;
#X connect 64 9 17 0;
#X connect 64 10 19 0;
#X connect 64 11 21 0;
#X connect 64 12 23 0;
#X connect 64 13 25 0;
#X connect 64 14 65 0;
#X connect 65 0 40 0;
#X connect 65 1 41 0;
#X connect 65 2 42 0;
#X connect 65 2 43 0;
#X connect 65 4 44 0;
#X connect 65 5 45 0;
#X connect 65 6 46 0;
#X connect 65 7 47 0;
#X connect 65 8 48 0;
#X connect 65 9 49 0;
#X connect 65 10 50 0;
#X connect 65 11 51 0;
#X connect 65 12 52 0;
#X connect 65 13 53 0;
#X connect 65 14 55 0;
#X connect 65 15 57 0;
#X connect 65 16 59 0;
#X connect 65 17 61 0;
#X connect 65 18 66 0;
#X connect 65 19 39 0;
#X connect 65 19 67 0;
#X connect 67 0 68 0;
#X connect 67 1 69 0;
#X restore 22 233 pd CHAOS_TRIG______;
#X obj 214 414 r~ \$0-trig-sig;
#N canvas 645 560 481 440 SYNTH_GLOBAL____ 0;
#X obj 54 19 inlet;
#X obj 120 153 t b f;
#X obj 54 192 f;
#X obj 54 216 +;
#X obj 54 241 +;
#X obj 187 151 t b f;
#X obj 54 265 > 0;
#X obj 54 288 change;
#X obj 54 309 s modeselect\$1;
#X obj 218 120 s chaostrig\$1;
#X obj 320 117 s chaos\$1;
#X obj 129 122 s trig\$1;
#X obj 67 122 s act\$1;
#X obj 395 369 outlet;
#X obj 168 316 oscformat buttonglobal1i;
#X obj 168 288 pipe 50;
#X obj 167 347 s to-o-s-c-interface;
#X obj 54 84 route actglobal1 trigglobal1 chaostrigglobal1 chaosglobal1
;
#X connect 0 0 17 0;
#X connect 1 0 2 0;
#X connect 1 1 3 1;
#X connect 2 0 3 0;
#X connect 3 0 4 0;
#X connect 4 0 6 0;
#X connect 5 0 2 0;
#X connect 5 1 4 1;
#X connect 6 0 7 0;
#X connect 7 0 8 0;
#X connect 7 0 15 0;
#X connect 14 0 16 0;
#X connect 15 0 14 0;
#X connect 17 0 2 0;
#X connect 17 0 12 0;
#X connect 17 1 1 0;
#X connect 17 1 11 0;
#X connect 17 2 5 0;
#X connect 17 2 9 0;
#X connect 17 3 10 0;
#X connect 17 4 13 0;
#X restore 22 42 pd SYNTH_GLOBAL____;
#X connect 0 0 1 0;
#X connect 1 0 2 0;
#X connect 2 0 3 0;
#X connect 3 0 7 0;
#X connect 4 0 25 0;
#X connect 6 0 21 0;
#X connect 7 0 10 0;
#X connect 8 0 18 0;
#X connect 11 0 12 0;
#X connect 13 0 20 0;
#X connect 18 0 14 0;
#X connect 18 1 15 0;
#X connect 18 2 16 0;
#X connect 19 0 13 0;
#X connect 20 0 0 0;
#X connect 21 0 22 0;
#X connect 22 0 5 0;
#X connect 23 0 11 0;
#X connect 24 0 15 0;
#X connect 25 0 13 0;
