#N canvas 257 309 422 228 10;
#X obj 43 22 inlet;
#X text 150 58 \$1 = instance;
#X text 150 72 \$2 = \$0;
#X text 147 42 Receive and parse OSC messages from synth;
#N canvas 0 186 669 556 MIX_BUS___ 0;
#X obj 123 37 inlet;
#X obj 176 452 s to-o-s-c-interface;
#X obj 176 429 oscformat panning\$1;
#X obj 244 409 s to-o-s-c-interface;
#X obj 244 386 oscformat enveloperelease\$1;
#X obj 304 366 s to-o-s-c-interface;
#X obj 304 343 oscformat envelopedepth\$1;
#X obj 365 320 s to-o-s-c-interface;
#X obj 365 297 oscformat envelopeside\$1;
#X obj 123 472 s \$2-volume-gui;
#X obj 392 253 oscformat fxsend\$1;
#X obj 392 274 s to-o-s-c-interface;
#X obj 435 232 s to-o-s-c-interface;
#X obj 435 211 oscformat reverb\$1;
#X obj 445 192 r reverb\$1;
#X obj 583 509 outlet;
#X obj 25 78 r \$1-reset;
#X msg 25 99 0;
#X msg 86 100 1;
#X msg 55 101 0.5;
#X obj 25 382 s to-o-s-c-interface;
#X obj 25 361 oscformat freqsnap\$1;
#X obj 157 516 s to-o-s-c-interface;
#X obj 157 493 oscformat volume\$1;
#X obj 123 86 route /\$3/volumeO /\$3/panningO /\$3/envelopereleaseO
/\$3/envelopedepthO /\$3/envelopesideO /\$3/fxsendO /\$3/reverbO /\$3/drive0
;
#X obj 443 161 s to-o-s-c-interface;
#X obj 443 140 oscformat drive\$1;
#X connect 0 0 24 0;
#X connect 2 0 1 0;
#X connect 4 0 3 0;
#X connect 6 0 5 0;
#X connect 8 0 7 0;
#X connect 10 0 11 0;
#X connect 13 0 12 0;
#X connect 14 0 13 0;
#X connect 16 0 17 0;
#X connect 16 0 18 0;
#X connect 16 0 19 0;
#X connect 17 0 4 0;
#X connect 17 0 6 0;
#X connect 17 0 8 0;
#X connect 17 0 13 0;
#X connect 17 0 21 0;
#X connect 17 0 23 0;
#X connect 18 0 10 0;
#X connect 18 0 9 0;
#X connect 19 0 2 0;
#X connect 21 0 20 0;
#X connect 23 0 22 0;
#X connect 24 0 9 0;
#X connect 24 0 23 0;
#X connect 24 1 2 0;
#X connect 24 2 4 0;
#X connect 24 3 6 0;
#X connect 24 4 8 0;
#X connect 24 5 10 0;
#X connect 24 6 13 0;
#X connect 24 7 26 0;
#X connect 24 8 15 0;
#X connect 26 0 25 0;
#X restore 43 73 pd MIX_BUS___;
#N canvas 986 93 815 789 SYNTHESIS_ 0;
#X obj 57 17 inlet;
#X obj 57 696 pack f f;
#X obj 57 742 s to-o-s-c-interface;
#X obj 57 719 oscformat op1freqwave\$1;
#X obj 116 570 s to-o-s-c-interface;
#X obj 173 412 s to-o-s-c-interface;
#X obj 173 389 oscformat extmod\$1;
#X obj 75 649 t b f;
#X obj 202 369 s to-o-s-c-interface;
#X obj 202 346 oscformat genrange\$1;
#X obj 57 674 f;
#X obj 232 324 s to-o-s-c-interface;
#X obj 232 301 oscformat genstepsize\$1;
#X obj 122 697 s formuls\$1;
#X obj 125 652 s formuls\$1;
#X obj 76 628 change;
#X msg 124 631 waveshapeO;
#X msg 122 676 op1freqO;
#X obj 56 583 / 115;
#X obj 56 562 ftom;
#X obj 56 604 clip 0 1;
#X msg 362 504 0 0;
#X obj 116 547 oscformat slide\$1;
#X obj 116 501 pack f f;
#X obj 134 454 t b f;
#X obj 116 479 f;
#X obj 135 433 change;
#X obj 670 756 outlet;
#X obj 503 155 ftom;
#X obj 503 87 t a a;
#X obj 502 280 s to-o-s-c-interface;
#N canvas 0 23 358 494 MIDI2NOTE 0;
#X obj 47 27 inlet;
#X obj 47 48 mod 12;
#X obj 47 89 sel 0 1 2 3 4 5 6 7 8 9 10 11;
#X msg 47 370 C;
#X obj 257 441 t a;
#X obj 257 462 outlet;
#X msg 61 350 C#/Db;
#X msg 75 331 D;
#X msg 90 309 D#/Eb;
#X msg 102 289 E;
#X msg 115 267 F;
#X msg 136 245 F#/Gb;
#X msg 150 222 G;
#X msg 160 201 G#/Ab;
#X msg 175 177 A;
#X msg 188 155 A#/Bb;
#X msg 204 128 B;
#X obj 47 69 i;
#X connect 0 0 1 0;
#X connect 1 0 17 0;
#X connect 2 0 3 0;
#X connect 2 1 6 0;
#X connect 2 2 7 0;
#X connect 2 3 8 0;
#X connect 2 4 9 0;
#X connect 2 5 10 0;
#X connect 2 6 11 0;
#X connect 2 7 12 0;
#X connect 2 8 13 0;
#X connect 2 9 14 0;
#X connect 2 10 15 0;
#X connect 2 11 16 0;
#X connect 3 0 4 0;
#X connect 4 0 5 0;
#X connect 6 0 4 0;
#X connect 7 0 4 0;
#X connect 8 0 4 0;
#X connect 9 0 4 0;
#X connect 10 0 4 0;
#X connect 11 0 4 0;
#X connect 12 0 4 0;
#X connect 13 0 4 0;
#X connect 14 0 4 0;
#X connect 15 0 4 0;
#X connect 16 0 4 0;
#X connect 17 0 2 0;
#X restore 503 176 pd MIDI2NOTE;
#X obj 503 197 pack s f;
#X obj 503 239 symbol;
#X msg 503 218 \$1:\$2Hz;
#X obj 548 115 * 10;
#X obj 548 136 i;
#X obj 548 157 * 0.1;
#X obj 503 259 oscformat op1pitchgui\$1;
#X obj 503 130 change;
#X obj 57 49 route /\$3/op1freqO /\$3/waveshapeO /\$3/op1sliderangeO
/\$3/op1slidetimeO /\$3/extmodulationO /\$3/genrangeO /\$3/genstepsizeO
/\$3/op2freqO /\$3/op2depthO /\$3/noiseO /\$3/noisefilterfreqO;
#X obj 262 234 pack f f;
#X obj 262 280 s to-o-s-c-interface;
#X obj 262 257 oscformat op2freqdepth\$1;
#X obj 327 140 pack f f;
#X obj 327 186 s to-o-s-c-interface;
#X obj 327 163 oscformat noise\$1;
#X obj 281 210 t b f;
#X obj 345 119 t b f;
#X obj 324 233 s formuls\$1;
#X obj 385 141 s formuls\$1;
#X msg 324 212 op2freqO;
#X obj 363 482 r \$1-reset;
#X msg 425 508 1;
#X msg 393 507 0;
#X obj 503 64 route op1pitchO;
#X obj 638 74 route genrange gensteps;
#X obj 642 39 r \$1-gen-messages;
#X obj 638 135 oscformat genrange\$1;
#X obj 703 107 oscformat genstepsize\$1;
#X obj 638 156 s to-o-s-c-interface;
#X msg 385 120 noisefilterfreqO;
#X floatatom 251 128 5 0 0 0 - - -;
#X floatatom 283 113 5 0 0 0 - - -;
#X obj 552 468 hsl 128 15 0 1 0 0 empty empty empty -2 -8 0 10 -262144
-1 -1 0 1;
#X obj 554 336 vsl 15 128 0 1 0 0 empty empty empty 0 -9 0 10 -262144
-1 -1 0 1;
#X connect 0 0 40 0;
#X connect 1 0 3 0;
#X connect 3 0 2 0;
#X connect 6 0 5 0;
#X connect 7 0 10 0;
#X connect 7 0 17 0;
#X connect 7 1 1 1;
#X connect 9 0 8 0;
#X connect 10 0 1 0;
#X connect 12 0 11 0;
#X connect 15 0 7 0;
#X connect 16 0 14 0;
#X connect 17 0 13 0;
#X connect 18 0 20 0;
#X connect 19 0 18 0;
#X connect 20 0 10 0;
#X connect 21 0 22 0;
#X connect 21 0 3 0;
#X connect 21 0 46 0;
#X connect 21 0 43 0;
#X connect 22 0 4 0;
#X connect 23 0 22 0;
#X connect 24 0 25 0;
#X connect 24 1 23 1;
#X connect 25 0 23 0;
#X connect 26 0 24 0;
#X connect 28 0 31 0;
#X connect 29 0 39 0;
#X connect 29 1 35 0;
#X connect 31 0 32 0;
#X connect 32 0 34 0;
#X connect 33 0 38 0;
#X connect 34 0 33 0;
#X connect 35 0 36 0;
#X connect 36 0 37 0;
#X connect 37 0 32 1;
#X connect 38 0 30 0;
#X connect 39 0 28 0;
#X connect 40 0 16 0;
#X connect 40 0 19 0;
#X connect 40 1 15 0;
#X connect 40 2 25 0;
#X connect 40 3 26 0;
#X connect 40 4 6 0;
#X connect 40 5 9 0;
#X connect 40 6 12 0;
#X connect 40 7 41 0;
#X connect 40 7 62 0;
#X connect 40 7 64 0;
#X connect 40 8 47 0;
#X connect 40 8 63 0;
#X connect 40 9 48 0;
#X connect 40 10 44 0;
#X connect 40 11 55 0;
#X connect 41 0 43 0;
#X connect 43 0 42 0;
#X connect 44 0 46 0;
#X connect 46 0 45 0;
#X connect 47 0 41 0;
#X connect 47 0 51 0;
#X connect 47 1 41 1;
#X connect 48 0 44 0;
#X connect 48 0 61 0;
#X connect 48 1 44 1;
#X connect 51 0 49 0;
#X connect 52 0 21 0;
#X connect 52 0 53 0;
#X connect 52 0 54 0;
#X connect 53 0 12 0;
#X connect 53 0 9 0;
#X connect 54 0 6 0;
#X connect 55 0 29 0;
#X connect 55 1 27 0;
#X connect 56 0 58 0;
#X connect 56 1 59 0;
#X connect 57 0 56 0;
#X connect 58 0 60 0;
#X connect 59 0 60 0;
#X connect 61 0 50 0;
#X connect 63 0 65 0;
#X restore 43 94 pd SYNTHESIS_;
#N canvas 54 294 1083 692 SEQUENCER_ 0;
#X obj 97 37 inlet;
#X obj 212 424 s to-o-s-c-interface;
#X obj 212 401 oscformat attack\$1;
#X obj 251 382 s to-o-s-c-interface;
#X obj 251 359 oscformat decay\$1;
#X obj 290 338 s to-o-s-c-interface;
#X obj 290 315 oscformat sustain\$1;
#X obj 329 292 s to-o-s-c-interface;
#X obj 329 269 oscformat release\$1;
#X obj 96 567 s to-o-s-c-interface;
#X obj 96 544 oscformat velocity\$1;
#X obj 137 524 s to-o-s-c-interface;
#X obj 173 473 s to-o-s-c-interface;
#X obj 504 622 outlet;
#X obj 137 501 oscformat threshold\$1;
#X obj 173 450 oscformat seqrandomadd\$1;
#X obj 671 292 oscformat seqtimebase\$1;
#X obj 671 313 s to-o-s-c-interface;
#X obj 756 269 s to-o-s-c-interface;
#X obj 841 225 s to-o-s-c-interface;
#X obj 756 248 oscformat seqtimebasemultiplier\$1;
#X obj 841 204 oscformat seqlength\$1;
#X msg 579 134 1;
#X msg 614 134 64;
#X obj 566 97 r \$1-reset;
#X obj 921 177 s to-o-s-c-interface;
#X obj 672 112 route timebase timebasemultiplier seqlength seqrandomadd
;
#X obj 921 156 oscformat seqrandomadd\$1;
#X obj 408 198 s to-o-s-c-interface;
#X obj 369 246 s to-o-s-c-interface;
#X obj 28 89 r \$1-reset;
#X msg 28 119 0;
#X msg 60 119 1;
#X obj 369 223 oscformat adsron\$1;
#N canvas 0 23 318 363 SEQ_CLEAR____ 0;
#X obj 42 38 inlet;
#X obj 66 297 s to-o-s-c-interface;
#X msg 123 252 set seqwrite\$2 \$1;
#X obj 66 211 unpack f f;
#X obj 123 231 pack f \$1;
#X obj 66 276 oscformat;
#X obj 66 189 r \$2-seq-clear-\$1;
#X msg 41 72 64;
#X obj 41 117 until;
#X obj 41 138 i;
#X obj 66 138 + 1;
#X obj 41 93 t f b;
#X msg 79 113 0;
#X obj 41 159 t b f;
#X msg 41 180 0;
#X connect 0 0 7 0;
#X connect 2 0 5 0;
#X connect 3 0 5 0;
#X connect 3 1 4 0;
#X connect 4 0 2 0;
#X connect 5 0 1 0;
#X connect 6 0 3 0;
#X connect 7 0 11 0;
#X connect 8 0 9 0;
#X connect 9 0 10 0;
#X connect 9 0 13 0;
#X connect 10 0 9 1;
#X connect 11 0 8 0;
#X connect 11 1 12 0;
#X connect 12 0 9 1;
#X connect 13 0 14 0;
#X connect 13 1 4 0;
#X connect 14 0 5 0;
#X restore 566 168 pd SEQ_CLEAR____;
#X msg 648 132 0;
#X obj 408 175 oscformat polyphonic\$1;
#X obj 96 88 route /\$3/velocityO /\$3/thresholdO /\$3/seqrandomaddO
/\$3/attackO /\$3/decayO /\$3/sustainO /\$3/releaseO /\$3/adsron /\$3/polyphonicO
;
#X obj 345 202 pipe 50;
#X obj 672 93 r seq-messages-\$1;
#X connect 0 0 37 0;
#X connect 2 0 1 0;
#X connect 4 0 3 0;
#X connect 6 0 5 0;
#X connect 8 0 7 0;
#X connect 10 0 9 0;
#X connect 14 0 11 0;
#X connect 15 0 12 0;
#X connect 16 0 17 0;
#X connect 20 0 18 0;
#X connect 21 0 19 0;
#X connect 22 0 20 0;
#X connect 22 0 16 0;
#X connect 23 0 21 0;
#X connect 24 0 23 0;
#X connect 24 0 22 0;
#X connect 24 0 34 0;
#X connect 24 0 35 0;
#X connect 26 0 16 0;
#X connect 26 1 20 0;
#X connect 26 2 21 0;
#X connect 26 3 27 0;
#X connect 27 0 25 0;
#X connect 30 0 31 0;
#X connect 30 0 32 0;
#X connect 31 0 8 0;
#X connect 31 0 4 0;
#X connect 31 0 2 0;
#X connect 31 0 15 0;
#X connect 31 0 36 0;
#X connect 31 0 38 0;
#X connect 32 0 14 0;
#X connect 32 0 10 0;
#X connect 32 0 6 0;
#X connect 33 0 29 0;
#X connect 35 0 27 0;
#X connect 36 0 28 0;
#X connect 37 0 10 0;
#X connect 37 1 14 0;
#X connect 37 2 15 0;
#X connect 37 3 2 0;
#X connect 37 4 4 0;
#X connect 37 5 6 0;
#X connect 37 6 8 0;
#X connect 37 7 33 0;
#X connect 37 8 36 0;
#X connect 37 9 13 0;
#X connect 38 0 33 0;
#X connect 39 0 26 0;
#X restore 43 115 pd SEQUENCER_;
#N canvas 0 129 1137 705 FX________ 0;
#X obj 134 17 inlet;
#X obj 683 280 pack f f;
#X obj 683 366 s to-o-s-c-interface;
#X obj 683 343 oscformat amfreqdepth\$1;
#X obj 779 319 s to-o-s-c-interface;
#X obj 701 260 t b f;
#X obj 779 296 oscformat amwave\$1;
#X obj 700 322 s formuls\$1;
#X obj 692 215 s formuls\$1;
#X obj 701 238 change;
#X msg 700 301 amfreqO;
#X msg 692 194 amdepthO;
#X obj 683 56 route /\$3/amfreqO /\$3/amdepthO /\$3/amwaveO /\$3/gatethresh
/\$3/gateattack /\$3/gatehold /\$3/gaterelease;
#X obj 829 269 s to-o-s-c-interface;
#X obj 829 246 oscformat gatethresh\$1;
#X obj 876 219 s to-o-s-c-interface;
#X obj 876 196 oscformat gateattack\$1;
#X obj 925 169 s to-o-s-c-interface;
#X obj 925 146 oscformat gatehold\$1;
#X obj 973 119 s to-o-s-c-interface;
#X obj 973 96 oscformat gaterelease\$1;
#X obj 135 621 s to-o-s-c-interface;
#X obj 135 598 oscformat saturation\$1;
#X obj 167 577 s to-o-s-c-interface;
#X obj 167 554 oscformat bitcrush\$1;
#X obj 200 530 s to-o-s-c-interface;
#X obj 201 506 oscformat pitchshift\$1;
#X obj 240 487 s to-o-s-c-interface;
#X obj 240 464 oscformat delaysend\$1;
#X obj 270 441 s to-o-s-c-interface;
#X obj 270 418 oscformat delaytime\$1;
#X obj 302 395 s to-o-s-c-interface;
#X obj 302 372 oscformat delayfeedback\$1;
#X obj 336 348 s to-o-s-c-interface;
#X obj 336 325 oscformat filtercutoff\$1;
#X obj 403 141 s to-o-s-c-interface;
#X obj 403 118 oscformat filterresonance\$1;
#X obj 336 298 pack f f;
#X obj 336 276 f;
#X obj 336 254 t b f;
#X obj 336 232 clip 0 1;
#X obj 379 163 r highpass\$1;
#X obj 369 184 t f f;
#X obj 134 56 route /\$3/saturationO /\$3/bitcrushO /\$3/pitchshiftO
/\$3/delaysendO /\$3/delaytimeO /\$3/delayfeedbackO /\$3/lowpassO /\$3/highpassO
/\$3/resonanceO;
#X obj 39 64 r \$1-reset;
#X msg 39 85 0;
#X msg 99 85 1;
#X msg 69 86 0.5;
#X obj 611 51 r \$1-reset;
#X msg 611 72 0;
#X obj 1039 666 outlet;
#X msg 91 125 0 1;
#X obj 345 210 r lowpass\$1;
#X connect 0 0 43 0;
#X connect 1 0 3 0;
#X connect 3 0 2 0;
#X connect 5 0 1 0;
#X connect 5 0 10 0;
#X connect 5 1 1 1;
#X connect 6 0 4 0;
#X connect 9 0 5 0;
#X connect 10 0 7 0;
#X connect 11 0 8 0;
#X connect 12 0 1 0;
#X connect 12 0 11 0;
#X connect 12 1 9 0;
#X connect 12 2 6 0;
#X connect 12 3 14 0;
#X connect 12 4 16 0;
#X connect 12 5 18 0;
#X connect 12 6 20 0;
#X connect 12 7 50 0;
#X connect 14 0 13 0;
#X connect 16 0 15 0;
#X connect 18 0 17 0;
#X connect 20 0 19 0;
#X connect 22 0 21 0;
#X connect 24 0 23 0;
#X connect 26 0 25 0;
#X connect 28 0 27 0;
#X connect 30 0 29 0;
#X connect 32 0 31 0;
#X connect 34 0 33 0;
#X connect 36 0 35 0;
#X connect 37 0 34 0;
#X connect 38 0 37 0;
#X connect 39 0 38 0;
#X connect 39 1 37 1;
#X connect 40 0 39 0;
#X connect 41 0 42 0;
#X connect 42 0 38 0;
#X connect 42 1 40 1;
#X connect 43 0 22 0;
#X connect 43 1 24 0;
#X connect 43 2 26 0;
#X connect 43 3 28 0;
#X connect 43 4 30 0;
#X connect 43 5 32 0;
#X connect 43 6 40 0;
#X connect 43 7 42 0;
#X connect 43 8 36 0;
#X connect 43 9 12 0;
#X connect 44 0 45 0;
#X connect 44 0 46 0;
#X connect 44 0 47 0;
#X connect 44 0 51 0;
#X connect 45 0 22 0;
#X connect 45 0 24 0;
#X connect 45 0 28 0;
#X connect 45 0 30 0;
#X connect 45 0 32 0;
#X connect 45 0 36 0;
#X connect 47 0 26 0;
#X connect 48 0 49 0;
#X connect 49 0 11 0;
#X connect 49 0 5 0;
#X connect 49 0 1 0;
#X connect 49 0 6 0;
#X connect 49 0 14 0;
#X connect 49 0 16 0;
#X connect 49 0 18 0;
#X connect 49 0 20 0;
#X connect 51 0 34 0;
#X connect 52 0 40 0;
#X restore 43 136 pd FX________;
#N canvas 100 94 578 327 FLOOPER___ 0;
#X obj 96 31 inlet;
#X obj 96 268 s to-o-s-c-interface;
#X obj 96 247 oscformat speed\$1;
#X obj 187 222 s to-o-s-c-interface;
#X obj 187 201 oscformat duration\$1;
#X obj 278 182 s to-o-s-c-interface;
#X obj 278 161 oscformat readoffset\$1;
#X obj 421 100 r flooperrecord\$1;
#X obj 421 121 oscformat record\$1;
#X obj 421 142 s to-o-s-c-interface;
#X obj 548 122 tgl 15 0 empty empty empty 17 7 0 10 -262144 -1 -1 0
1;
#X msg 24 111 0;
#X msg 55 111 1;
#X obj 24 83 r \$1-reset;
#X obj 448 304 outlet;
#X obj 96 106 route /flooper/speedO /flooper/durationO /flooper/readoffsetO
;
#X connect 0 0 15 0;
#X connect 2 0 1 0;
#X connect 4 0 3 0;
#X connect 6 0 5 0;
#X connect 7 0 8 0;
#X connect 7 0 10 0;
#X connect 8 0 9 0;
#X connect 11 0 6 0;
#X connect 12 0 4 0;
#X connect 12 0 2 0;
#X connect 13 0 11 0;
#X connect 13 0 12 0;
#X connect 15 0 2 0;
#X connect 15 1 4 0;
#X connect 15 2 6 0;
#X connect 15 3 14 0;
#X restore 43 157 pd FLOOPER___;
#X text 151 88 \$3 = formuls;
#X text 151 104 \$4 = flooper;
#N canvas 342 60 1014 763 CHAOS_____ 0;
#X obj 37 37 inlet;
#X obj 36 283 oscformat op1chaos\$1;
#X msg 36 93 0 0;
#X obj 36 71 r \$1-reset;
#X obj 36 304 s to-o-s-c-interface;
#X obj 55 263 s to-o-s-c-interface;
#X obj 55 242 oscformat op2chaos\$1;
#X obj 71 218 s to-o-s-c-interface;
#X obj 71 197 oscformat noisechaos\$1;
#X obj 84 175 s to-o-s-c-interface;
#X obj 84 154 oscformat slidechaos\$1;
#X obj 94 135 s to-o-s-c-interface;
#X obj 94 114 oscformat extchaos\$1;
#X msg 66 93 0;
#X obj 266 67 r \$1-reset;
#X obj 266 230 s to-o-s-c-interface;
#X obj 285 189 s to-o-s-c-interface;
#X obj 301 144 s to-o-s-c-interface;
#X msg 266 89 0;
#X obj 266 209 oscformat grchaos\$1;
#X obj 285 168 oscformat gschaos\$1;
#X obj 301 123 oscformat seqtbchaos\$1;
#X obj 465 56 r \$1-reset;
#X obj 465 399 s to-o-s-c-interface;
#X obj 484 358 s to-o-s-c-interface;
#X obj 500 313 s to-o-s-c-interface;
#X obj 513 270 s to-o-s-c-interface;
#X obj 523 230 s to-o-s-c-interface;
#X msg 465 78 0;
#X obj 465 378 oscformat velocitychaos\$1;
#X obj 484 337 oscformat threshchaos\$1;
#X obj 500 292 oscformat randomchaos\$1;
#X obj 513 249 oscformat achaos\$1;
#X obj 533 188 s to-o-s-c-interface;
#X obj 543 148 s to-o-s-c-interface;
#X obj 523 209 oscformat dchaos\$1;
#X obj 533 167 oscformat schaos\$1;
#X obj 543 127 oscformat rchaos\$1;
#X obj 729 50 r \$1-reset;
#X obj 729 433 s to-o-s-c-interface;
#X obj 748 392 s to-o-s-c-interface;
#X obj 764 347 s to-o-s-c-interface;
#X obj 777 304 s to-o-s-c-interface;
#X obj 787 264 s to-o-s-c-interface;
#X msg 729 72 0;
#X obj 797 222 s to-o-s-c-interface;
#X obj 807 182 s to-o-s-c-interface;
#X obj 729 412 oscformat vsatchaos\$1;
#X obj 748 371 oscformat bitchaos\$1;
#X obj 764 326 oscformat pithaos\$1;
#X obj 777 283 oscformat dschaos\$1;
#X obj 787 243 oscformat dtchaos\$1;
#X obj 797 201 oscformat dfchaos\$1;
#X obj 807 161 oscformat fcchaos\$1;
#X obj 817 142 s to-o-s-c-interface;
#X obj 817 121 oscformat frchaos\$1;
#X obj 42 376 r \$1-reset;
#X obj 70 673 s to-o-s-c-interface;
#X obj 79 632 s to-o-s-c-interface;
#X obj 95 587 s to-o-s-c-interface;
#X obj 108 544 s to-o-s-c-interface;
#X obj 118 504 s to-o-s-c-interface;
#X msg 56 402 0;
#X obj 128 462 s to-o-s-c-interface;
#X msg 42 602 0 0;
#X obj 70 652 oscformat amchaos\$1;
#X obj 79 611 oscformat amwchaos\$1;
#X obj 95 566 oscformat gatethreshchaos\$1;
#X obj 108 523 oscformat gateattackchaos\$1;
#X obj 118 483 oscformat gateholdchaos\$1;
#X obj 128 441 oscformat gatereleasechaos\$1;
#X connect 1 0 4 0;
#X connect 2 0 1 0;
#X connect 2 0 6 0;
#X connect 2 0 8 0;
#X connect 2 0 10 0;
#X connect 3 0 2 0;
#X connect 3 0 13 0;
#X connect 6 0 5 0;
#X connect 8 0 7 0;
#X connect 10 0 9 0;
#X connect 12 0 11 0;
#X connect 13 0 12 0;
#X connect 14 0 18 0;
#X connect 18 0 19 0;
#X connect 18 0 20 0;
#X connect 18 0 21 0;
#X connect 19 0 15 0;
#X connect 20 0 16 0;
#X connect 21 0 17 0;
#X connect 22 0 28 0;
#X connect 28 0 29 0;
#X connect 28 0 30 0;
#X connect 28 0 31 0;
#X connect 28 0 32 0;
#X connect 28 0 35 0;
#X connect 28 0 36 0;
#X connect 28 0 37 0;
#X connect 29 0 23 0;
#X connect 30 0 24 0;
#X connect 31 0 25 0;
#X connect 32 0 26 0;
#X connect 35 0 27 0;
#X connect 36 0 33 0;
#X connect 37 0 34 0;
#X connect 38 0 44 0;
#X connect 44 0 47 0;
#X connect 44 0 48 0;
#X connect 44 0 49 0;
#X connect 44 0 50 0;
#X connect 44 0 51 0;
#X connect 44 0 52 0;
#X connect 44 0 53 0;
#X connect 44 0 55 0;
#X connect 47 0 39 0;
#X connect 48 0 40 0;
#X connect 49 0 41 0;
#X connect 50 0 42 0;
#X connect 51 0 43 0;
#X connect 52 0 45 0;
#X connect 53 0 46 0;
#X connect 55 0 54 0;
#X connect 56 0 62 0;
#X connect 56 0 64 0;
#X connect 62 0 66 0;
#X connect 62 0 67 0;
#X connect 62 0 68 0;
#X connect 62 0 69 0;
#X connect 62 0 70 0;
#X connect 64 0 65 0;
#X connect 65 0 57 0;
#X connect 66 0 58 0;
#X connect 67 0 59 0;
#X connect 68 0 60 0;
#X connect 69 0 61 0;
#X connect 70 0 63 0;
#X restore 43 178 pd CHAOS_____;
#X connect 0 0 4 0;
#X connect 4 0 5 0;
#X connect 5 0 6 0;
#X connect 6 0 7 0;
#X connect 7 0 8 0;
#X connect 8 0 11 0;
