#N canvas 287 40 775 583 10;
#X obj 168 366 spigot;
#X obj 85 344 == 0;
#X obj 40 365 spigot 1;
#X obj 85 135 == 0;
#X obj 40 157 spigot 1;
#X obj 346 140 spigot;
#X obj 346 162 t b b b;
#X obj 346 206 del 50;
#X msg 346 230 1;
#X obj 313 256 spigot;
#X msg 385 183 stop;
#X msg 375 230 0;
#X obj 313 371 i;
#X obj 313 392 + 1;
#X obj 313 413 mod 2;
#X obj 328 330 r \$1-reset;
#X msg 328 351 0;
#X obj 40 74 t a;
#X obj 40 22 inlet;
#X obj 85 116 r modeselect\$2;
#X obj 379 118 r modeselect\$2;
#X obj 85 324 r chaos\$2;
#X obj 201 346 r chaos\$2;
#X obj 313 310 spigot;
#X obj 346 289 r act\$2;
#X obj 407 369 i;
#X obj 407 390 + 1;
#X obj 407 411 mod 2;
#X obj 422 328 r \$1-reset;
#X msg 422 349 0;
#X obj 407 308 spigot;
#X obj 440 287 r trig\$2;
#X obj 518 369 i;
#X obj 518 390 + 1;
#X obj 518 411 mod 2;
#X obj 533 328 r \$1-reset;
#X msg 533 349 0;
#X obj 518 308 spigot;
#X obj 551 287 r chaostrig\$2;
#X obj 168 531 outlet;
#X obj 40 532 outlet;
#X obj 323 434 s \$1-\$4-act;
#X obj 417 432 s \$1-\$4-trig;
#X obj 528 432 s \$1-\$4-chaostrig;
#X obj 313 528 outlet;
#X obj 407 529 outlet;
#X obj 518 529 outlet;
#X obj 55 413 s to-o-s-c-interface;
#X obj 183 414 s to-o-s-c-interface;
#X text 159 28 \$1 = \$0 \; \$2 = \$1 \; \$3 = GUI parameter name \;
\$4 = parameter short name;
#X obj 40 499 unpack f f;
#X obj 94 532 outlet;
#X obj 169 503 unpack f f;
#X obj 226 537 outlet;
#X obj 56 389 oscformat \$3main\$2;
#X obj 183 390 oscformat \$3chaos\$2;
#X obj 321 488 s to-o-s-c-interface;
#X obj 321 464 oscformat \$3act\$2;
#X obj 454 486 s to-o-s-c-interface;
#X obj 596 489 s to-o-s-c-interface;
#X obj 454 462 oscformat \$3trig\$2;
#X obj 596 465 oscformat \$3chaostrig\$2;
#X connect 0 0 52 0;
#X connect 0 0 55 0;
#X connect 1 0 2 1;
#X connect 2 0 50 0;
#X connect 2 0 54 0;
#X connect 3 0 4 1;
#X connect 4 0 0 0;
#X connect 4 0 2 0;
#X connect 5 0 6 0;
#X connect 6 0 7 0;
#X connect 6 1 11 0;
#X connect 6 2 9 0;
#X connect 6 2 10 0;
#X connect 7 0 8 0;
#X connect 8 0 9 1;
#X connect 9 0 23 0;
#X connect 9 0 30 0;
#X connect 9 0 37 0;
#X connect 10 0 7 0;
#X connect 11 0 9 1;
#X connect 12 0 13 0;
#X connect 13 0 12 1;
#X connect 13 0 14 0;
#X connect 14 0 41 0;
#X connect 14 0 44 0;
#X connect 14 0 57 0;
#X connect 15 0 16 0;
#X connect 16 0 12 1;
#X connect 17 0 4 0;
#X connect 17 0 5 0;
#X connect 18 0 17 0;
#X connect 19 0 3 0;
#X connect 20 0 5 1;
#X connect 21 0 1 0;
#X connect 22 0 0 1;
#X connect 23 0 12 0;
#X connect 24 0 23 1;
#X connect 25 0 26 0;
#X connect 26 0 25 1;
#X connect 26 0 27 0;
#X connect 27 0 42 0;
#X connect 27 0 45 0;
#X connect 27 0 60 0;
#X connect 28 0 29 0;
#X connect 29 0 25 1;
#X connect 30 0 25 0;
#X connect 31 0 30 1;
#X connect 32 0 33 0;
#X connect 33 0 32 1;
#X connect 33 0 34 0;
#X connect 34 0 43 0;
#X connect 34 0 46 0;
#X connect 34 0 61 0;
#X connect 35 0 36 0;
#X connect 36 0 32 1;
#X connect 37 0 32 0;
#X connect 38 0 37 1;
#X connect 50 0 40 0;
#X connect 50 1 51 0;
#X connect 52 0 39 0;
#X connect 52 1 53 0;
#X connect 54 0 47 0;
#X connect 55 0 48 0;
#X connect 57 0 56 0;
#X connect 60 0 58 0;
#X connect 61 0 59 0;
