#N canvas 379 171 301 488 10;
#N canvas 0 23 701 439 ADSR_VEL_TRIG___ 0;
#X obj 37 17 inlet;
#X obj 464 404 outlet;
#X obj 37 122 t a a;
#X obj 64 142 == 0;
#X obj 37 60 route adsron\$1 attack\$1 achaos\$1 decay\$1 dchaos\$1
sustain\$1 schaos\$1 release\$1 rchaos\$1 monophonic\$1 velocity\$1
velocitychaos\$1 threshold\$1 thresholdchaos\$1 triggerx\$1;
#X obj 37 332 f.util.oscformat \$0 \$1 fsynth adsron -;
#X obj 60 308 f.util.oscformat \$0 \$1 fsynth attack a;
#X obj 106 283 f.util.oscformat \$0 \$1 fsynth decay d;
#X obj 153 260 f.util.oscformat \$0 \$1 fsynth sustain s;
#X obj 198 237 f.util.oscformat \$0 \$1 fsynth release r;
#X obj 244 213 f.util.oscformat \$0 \$1 fsynth monophonic -;
#X obj 268 191 f.util.oscformat \$0 \$1 fsynth velocity v;
#X obj 313 169 f.util.oscformat \$0 \$1 fsynth threshold th;
#X obj 359 146 f.util.oscformat \$0 \$1 fsynth triggerx -;
#X connect 0 0 4 0;
#X connect 2 0 5 0;
#X connect 2 1 3 0;
#X connect 3 0 10 0;
#X connect 4 0 2 0;
#X connect 4 1 6 0;
#X connect 4 2 6 1;
#X connect 4 3 7 0;
#X connect 4 4 7 1;
#X connect 4 5 8 0;
#X connect 4 6 8 1;
#X connect 4 7 9 0;
#X connect 4 8 9 1;
#X connect 4 9 10 0;
#X connect 4 10 11 0;
#X connect 4 11 11 1;
#X connect 4 12 12 0;
#X connect 4 13 12 1;
#X connect 4 14 13 0;
#X connect 4 15 1 0;
#X restore 22 87 pd ADSR_VEL_TRIG___;
#N canvas 628 331 1309 746 SEQ_____________ 0;
#X obj 107 8 inlet;
#X obj 1211 727 outlet;
#X msg 118 187 \$1;
#X msg 42 302 \$1;
#X obj 602 216 s \$0-seq-random-vel;
#X obj 877 182 s \$0-seq-swing;
#X obj 264 158 s \$0-sequencer-gui;
#X obj 1072 38 r \$0-reset;
#X obj 118 268 i;
#X obj 448 559 pow 2.7;
#X obj 448 580 * 100;
#X obj 865 104 s \$0-seq-inv;
#X obj 42 385 f;
#X obj 1087 531 s \$0-seq-trigger;
#X obj 1087 491 change;
#X msg 42 406 timebase \$1;
#X obj 42 427 s \$0-seq-messages;
#X msg 118 288 seqlength \$1;
#X obj 118 309 s \$0-seq-messages;
#X obj 253 137 s \$0-seq-messages;
#X obj 191 201 s \$0-seq-messages;
#X msg 481 318 randomadd \$1;
#X obj 481 339 s \$0-seq-messages;
#X msg 541 257 randomdrop \$1;
#X obj 541 278 s \$0-seq-messages;
#X msg 662 154 swing \$1;
#X obj 662 175 s \$0-seq-messages;
#X msg 723 91 seqinvert \$1;
#X obj 723 112 s \$0-seq-messages;
#X msg 448 601 delay \$1;
#X obj 448 622 s \$0-seq-messages;
#X msg 518 496 warp \$1;
#X obj 518 517 s \$0-seq-messages;
#X msg 729 487 beatsync \$1;
#X obj 729 508 s \$0-seq-messages;
#X msg 963 620 timebasemultiplier \$1;
#X obj 963 641 s \$0-seq-messages;
#X msg 1072 60 reset bang;
#X obj 1072 81 s \$0-seq-messages;
#X obj 42 323 / 5;
#X obj 42 365 * 5;
#X obj 963 600 i;
#X floatatom 67 385 5 0 0 0 - - -;
#X msg 191 180 seqwrite \$1 \$2;
#X obj 1087 511 sel 0;
#X obj 1087 471 spigot;
#X obj 259 71 tgl 15 0 empty empty empty 17 7 0 10 -262144 -1 -1 0
1;
#X msg 253 116 seqon \$1;
#X obj 963 579 * 4;
#X obj 1120 429 r \$0-seq-messages;
#X obj 1120 450 route seqon;
#X obj 42 344 f.seq.automater \$0 \$0-seq-time-base 0;
#X obj 253 93 f.seq.automater \$0 \$0-seq-on 0 0;
#X obj 723 71 f.seq.automater \$0 \$0-seq-inv;
#X obj 662 133 f.seq.automater \$0 \$0-seq-swing;
#X obj 602 195 f.seq.automater \$0 \$0-seq-random-vel;
#X obj 541 237 f.seq.automater \$0 \$0-seq-random-drop;
#X obj 481 299 f.seq.automater \$0 \$0-seq-random-add 0 0;
#X obj 518 475 f.seq.automater \$0 \$0-seq-warp;
#X obj 448 538 f.seq.automater \$0 \$0-seq-delay;
#X obj 729 465 f.seq.automater \$0 \$0-async;
#X obj 1087 408 f.seq.automater \$0 \$0-seq-trigger 0 1;
#X obj 963 559 f.seq.automater \$0 \$0-seq-time-base-multiplier 0 0
;
#X obj 118 206 / 64;
#X obj 118 247 * 64;
#X obj 118 225 f.seq.automater \$0 \$0-seq-length 1 1;
#X obj 963 536 / 4;
#X obj 191 134 list;
#X obj 191 90 fudiformat;
#X obj 191 111 fudiparse;
#X obj 481 40 route seqrandomadd\$1 seqrandomdrop\$1 seqrandomvel\$1
seqswing\$1 seqinv\$1;
#X obj 448 454 route seqdelay\$1 seqwarp\$1;
#X obj 729 439 route async\$1;
#X obj 963 379 route seqtimebasemultiplier\$1 seqtrigger\$1;
#X obj 43 51 route seqtimebase\$1 seqlength\$1 seqwrite\$1 seqon\$1
;
#X msg 191 155 \$1 \$2;
#X connect 0 0 74 0;
#X connect 2 0 63 0;
#X connect 3 0 39 0;
#X connect 7 0 37 0;
#X connect 8 0 17 0;
#X connect 9 0 10 0;
#X connect 10 0 29 0;
#X connect 12 0 15 0;
#X connect 14 0 44 0;
#X connect 15 0 16 0;
#X connect 17 0 18 0;
#X connect 21 0 22 0;
#X connect 23 0 24 0;
#X connect 25 0 26 0;
#X connect 27 0 28 0;
#X connect 29 0 30 0;
#X connect 31 0 32 0;
#X connect 33 0 34 0;
#X connect 35 0 36 0;
#X connect 37 0 38 0;
#X connect 39 0 51 0;
#X connect 40 0 12 0;
#X connect 41 0 35 0;
#X connect 43 0 20 0;
#X connect 44 1 13 0;
#X connect 45 0 14 0;
#X connect 46 0 52 0;
#X connect 47 0 19 0;
#X connect 48 0 41 0;
#X connect 49 0 50 0;
#X connect 50 0 45 1;
#X connect 51 0 40 0;
#X connect 52 0 47 0;
#X connect 53 0 27 0;
#X connect 54 0 25 0;
#X connect 55 0 4 0;
#X connect 56 0 23 0;
#X connect 57 0 21 0;
#X connect 58 0 31 0;
#X connect 59 0 9 0;
#X connect 60 0 33 0;
#X connect 61 0 45 0;
#X connect 62 0 48 0;
#X connect 63 0 65 0;
#X connect 64 0 8 0;
#X connect 65 0 64 0;
#X connect 66 0 62 0;
#X connect 67 0 75 0;
#X connect 68 0 69 0;
#X connect 69 0 67 0;
#X connect 70 0 57 0;
#X connect 70 1 56 0;
#X connect 70 2 55 0;
#X connect 70 3 54 0;
#X connect 70 4 53 0;
#X connect 70 5 71 0;
#X connect 71 0 59 0;
#X connect 71 1 58 0;
#X connect 71 2 72 0;
#X connect 72 0 60 0;
#X connect 72 1 73 0;
#X connect 73 0 66 0;
#X connect 73 1 61 0;
#X connect 73 2 1 0;
#X connect 74 0 3 0;
#X connect 74 1 2 0;
#X connect 74 2 6 0;
#X connect 74 2 68 0;
#X connect 74 3 52 0;
#X connect 74 4 70 0;
#X connect 75 0 43 0;
#X restore 22 109 pd SEQ_____________;
#N canvas 0 361 1440 517 FX______________ 0;
#X obj 17 27 inlet;
#X obj 1338 454 outlet;
#X obj 852 230 route gatethresh\$1 gatethreshchaos\$1 gateattack\$1
gateattackchaos\$1 gatehold\$1 gateholdchaos\$1 gaterelease\$1 gatereleasechaos\$1
;
#X obj 440 335 unpack f f;
#X obj 689 357 unpack f f;
#X obj 695 487 s formuls\$1;
#X obj 695 465 oscformat amact\$1;
#N canvas 785 321 530 512 AM_QUANTISE 0;
#X floatatom 294 58 5 0 0 0 - - -;
#X text 385 90 bpm to hz;
#X text 383 157 99.9 + 0.1;
#X obj 294 105 /;
#X floatatom 294 129 5 0 0 0 - - -;
#X obj 294 177 /;
#X floatatom 294 201 5 0 0 0 - - -;
#X msg 294 81 60 \$1;
#X msg 294 153 0.5 \$1;
#X obj 282 281 *;
#X obj 282 255 f;
#X obj 294 224 t b f;
#X obj 147 152 sel 0 1 2 3;
#X msg 147 188 1;
#X msg 179 188 2;
#X msg 212 188 4;
#X msg 244 188 8;
#X obj 147 229 t a;
#X msg 335 270 1 3.1;
#X obj 335 294 /;
#X obj 305 345 pow;
#X floatatom 335 318 5 0 0 0 - - -;
#X floatatom 305 373 5 0 0 0 - - -;
#X obj 288 308 / 100;
#X text 31 32 from interface (0-1 / number_of_steps);
#X obj 35 9 inlet;
#X obj 148 112 * 4;
#X obj 148 133 int;
#X obj 294 32 r bpmglobal;
#X obj 338 247 loadbang;
#X obj 148 66 r evenglobal;
#X obj 35 90 f.util.switch;
#X obj 124 431 outlet;
#X floatatom 230 313 5 0 0 0 - - -;
#X obj 232 429 oscformat amfreq;
#X obj 232 450 s \$0-OSC-collect-\$1;
#X connect 0 0 7 0;
#X connect 3 0 4 0;
#X connect 4 0 8 0;
#X connect 5 0 6 0;
#X connect 6 0 11 0;
#X connect 7 0 3 0;
#X connect 8 0 5 0;
#X connect 9 0 23 0;
#X connect 9 0 33 0;
#X connect 10 0 9 0;
#X connect 11 0 10 0;
#X connect 11 1 9 1;
#X connect 12 0 13 0;
#X connect 12 1 14 0;
#X connect 12 2 15 0;
#X connect 12 3 16 0;
#X connect 13 0 17 0;
#X connect 14 0 17 0;
#X connect 15 0 17 0;
#X connect 16 0 17 0;
#X connect 17 0 10 0;
#X connect 18 0 19 0;
#X connect 19 0 21 0;
#X connect 20 0 22 0;
#X connect 21 0 20 1;
#X connect 22 0 34 0;
#X connect 23 0 20 0;
#X connect 25 0 31 0;
#X connect 26 0 27 0;
#X connect 27 0 12 0;
#X connect 28 0 0 0;
#X connect 29 0 18 0;
#X connect 30 0 31 1;
#X connect 31 0 34 0;
#X connect 31 1 26 0;
#X connect 34 0 35 0;
#X restore 440 467 pd AM_QUANTISE;
#X obj 1263 287 s fx-routing-\$1;
#X obj 502 403 r xglobal;
#X obj 559 341 r yglobal;
#X obj 670 121 unpack f f;
#X obj 670 201 s highpass\$1;
#X obj 379 75 route pitchshift\$1 pitchaos\$1;
#X obj 17 60 route saturation\$1 satchaos\$1 bitcrush\$1 bitchaos\$1
bitcrushwetdry\$1 bitcrushwetdrychaos\$1;
#X obj 103 233 route delaysend\$1 dschaos\$1 delaytime\$1 dtchaos\$1
delayfeedback\$1 dfchaos\$1;
#X obj 440 232 route amfreqdepth\$1 amchaos\$1 amwave\$1 amwchaos\$1
;
#X obj 1263 223 route fxpostpre\$1 fxsend\$1 fxschaos\$1;
#X obj 17 146 f.util.oscformat \$0 \$1 ffx saturation sat;
#X obj 27 126 f.util.oscformat \$0 \$1 ffx bitcrush bit;
#X obj 67 106 f.util.oscformat \$0 \$1 ffx bitcrushwetdry bitwd;
#X obj 379 103 f.util.oscformat \$0 \$1 ffx pitchshift pit 4;
#X obj 670 180 f.util.oscformat \$0 \$1 ffx highpass hip;
#X obj 103 319 f.util.oscformat \$0 \$1 ffx delaysend ds;
#X obj 440 441 f.util.oscformat \$0 \$1 ffx amfreq amf 0 1;
#X obj 497 379 f.util.oscformat \$0 \$1 ffx amdepth amd 0;
#X obj 579 279 f.util.oscformat \$0 \$1 ffx amwave amw 4;
#X obj 852 347 f.util.oscformat \$0 \$1 ffx gatethresh gt;
#X obj 862 326 f.util.oscformat \$0 \$1 ffx gateattack ga;
#X obj 902 306 f.util.oscformat \$0 \$1 ffx gatehold gh;
#X obj 972 286 f.util.oscformat \$0 \$1 ffx gaterelease gr;
#X obj 727 141 f.util.oscformat \$0 \$1 ffx lowpass lop;
#X obj 727 161 s lowpass\$1;
#X obj 834 109 f.util.oscformat \$0 \$1 ffx resonance res;
#X obj 1337 267 f.util.oscformat \$0 \$1 ffx fxsend fxs;
#X obj 113 299 f.util.oscformat \$0 \$1 ffx delaytime dt;
#X obj 153 279 f.util.oscformat \$0 \$1 ffx delayfeedback df;
#X obj 497 359 f.util.switch;
#X obj 440 421 f.util.switch;
#X obj 670 69 route filtercutoff\$1 fcchaos\$1 filterresonance\$1 frchaos\$1
;
#X connect 0 0 14 0;
#X connect 2 0 27 0;
#X connect 2 1 27 1;
#X connect 2 2 28 0;
#X connect 2 3 28 1;
#X connect 2 4 29 0;
#X connect 2 5 29 1;
#X connect 2 6 30 0;
#X connect 2 7 30 1;
#X connect 2 8 17 0;
#X connect 3 0 38 0;
#X connect 3 1 37 0;
#X connect 4 0 24 1;
#X connect 4 1 25 1;
#X connect 6 0 5 0;
#X connect 9 0 38 1;
#X connect 10 0 37 1;
#X connect 11 0 22 0;
#X connect 11 1 31 0;
#X connect 13 0 21 0;
#X connect 13 1 21 1;
#X connect 13 2 39 0;
#X connect 14 0 18 0;
#X connect 14 1 18 1;
#X connect 14 2 19 0;
#X connect 14 3 19 1;
#X connect 14 4 20 0;
#X connect 14 5 20 1;
#X connect 14 6 13 0;
#X connect 15 0 23 0;
#X connect 15 1 23 1;
#X connect 15 2 35 0;
#X connect 15 3 35 1;
#X connect 15 4 36 0;
#X connect 15 5 36 1;
#X connect 15 6 16 0;
#X connect 16 0 3 0;
#X connect 16 1 4 0;
#X connect 16 2 26 0;
#X connect 16 3 26 1;
#X connect 16 4 2 0;
#X connect 17 0 8 0;
#X connect 17 1 34 0;
#X connect 17 2 34 1;
#X connect 17 3 1 0;
#X connect 22 0 12 0;
#X connect 24 0 7 0;
#X connect 24 3 6 0;
#X connect 25 3 6 0;
#X connect 31 0 32 0;
#X connect 37 0 25 0;
#X connect 38 0 24 0;
#X connect 39 0 11 0;
#X connect 39 1 31 1;
#X connect 39 2 33 0;
#X connect 39 3 33 1;
#X connect 39 4 15 0;
#X restore 22 131 pd FX______________;
#N canvas 36 93 1338 411 ENV_MASTER_PAN__ 0;
#X obj 37 37 inlet;
#X obj 1027 300 outlet;
#X obj 881 120 > 0;
#X obj 928 142 s \$0-volume;
#X msg 996 59 1;
#X obj 292 205 s reverb\$1;
#X msg 304 162 chaos \$1;
#X obj 380 140 r \$0-revact;
#X msg 380 161 active \$1;
#X floatatom 340 134 5 0 0 0 - - -;
#X obj 37 76 route enveloperelease\$1 envelopereleasechaos\$1 envelopedepth\$1
envelopedepthchaos\$1 envelopeside\$1 reverb\$1 revchaos\$1;
#X obj 727 73 route panning\$1 panchaos\$1 volume\$1;
#X obj 936 175 loadbang;
#X msg 936 196 0;
#X obj 86 282 f.util.oscformat \$0 \$1 fmix envelopeside es;
#X obj 47 312 f.util.oscformat \$0 \$1 fmix envelopedepth ed;
#X obj 37 342 f.util.oscformat \$0 \$1 fmix enveloperelease er;
#X obj 292 184 f.seq.automater \$0 \$0-reverb 0;
#X obj 727 296 f.util.oscformat \$0 \$1 fmix panning pan;
#X obj 881 100 f.util.oscformat \$0 \$1 fmix volume -;
#X obj 881 161 moses 1;
#X obj 881 182 pipe 10;
#X obj 881 203 t a;
#X msg 881 224 active \$1;
#X obj 881 245 s formuls\$1;
#X obj 881 141 change;
#X connect 0 0 10 0;
#X connect 2 0 3 0;
#X connect 4 0 19 0;
#X connect 6 0 17 0;
#X connect 7 0 8 0;
#X connect 8 0 17 0;
#X connect 10 0 16 0;
#X connect 10 1 16 1;
#X connect 10 2 15 0;
#X connect 10 3 15 1;
#X connect 10 4 14 0;
#X connect 10 5 17 0;
#X connect 10 6 6 0;
#X connect 10 6 9 0;
#X connect 10 7 11 0;
#X connect 11 0 18 0;
#X connect 11 1 18 1;
#X connect 11 2 19 0;
#X connect 11 3 1 0;
#X connect 12 0 13 0;
#X connect 17 0 5 0;
#X connect 19 0 2 0;
#X connect 20 0 21 0;
#X connect 20 1 22 0;
#X connect 21 0 22 0;
#X connect 22 0 23 0;
#X connect 23 0 24 0;
#X connect 25 0 20 0;
#X restore 22 153 pd ENV_MASTER_PAN__;
#N canvas 0 33 584 723 GEN_EUC_________ 0;
#X obj 37 38 inlet;
#X obj 491 383 outlet;
#X obj 38 76 route genrange\$1 grchaos\$1 genstepsize\$1 gschaos\$1
gendirection\$1 gdchaos\$1 genrepeat\$1 genrepeatchaos\$1 genon\$1
;
#X obj 156 201 f.util.oscformat \$0 \$1 fsynth genrepeat gr;
#X obj 206 172 f.util.oscformat \$0 \$1 fsynth genon -;
#N canvas 486 23 570 804 GENERATIVE__________ 0;
#X obj 37 3 inlet;
#X obj 37 756 s \$0-gen-range;
#X obj 497 782 outlet;
#X obj 259 182 s \$0-gen-on-off;
#X msg 222 245 \$1;
#X obj 111 634 i;
#X obj 148 554 i;
#X obj 185 454 s \$0-gen-repeat;
#X obj 185 432 f;
#X obj 222 344 i;
#X obj 222 366 s \$0-gen-direction;
#X obj 300 116 s \$0-gen-invert;
#X obj 37 698 pow 1.5;
#X obj 37 736 f;
#X obj 37 717 * 3;
#X obj 37 35 route gen-range gen-range-16 gen-min-fixed gen-min gen-repeat
gen-direction gen-on-off gen-invert;
#X obj 148 576 s \$0-gen-min;
#X obj 111 656 s \$0-gen-min-fixed;
#X obj 148 534 + 1;
#X obj 148 513 * 7;
#X obj 222 267 / 4;
#X obj 222 326 * 4;
#X obj 185 392 f.seq.automater \$0 \$0-gen-repeat 0;
#X obj 148 475 f.seq.automater \$0 \$0-gen-min 0;
#X obj 111 594 f.seq.automater \$0 \$0-gen-min-fixed 0;
#X obj 37 676 f.seq.automater \$0 \$0-gen-range 0;
#X obj 222 287 f.seq.automater \$0 \$0-gen-direction 0;
#X obj 259 140 f.seq.automater \$0 \$0-gen-on-off 0;
#X obj 300 75 f.seq.automater \$0 \$0-gen-invert;
#X connect 0 0 15 0;
#X connect 4 0 20 0;
#X connect 5 0 17 0;
#X connect 6 0 16 0;
#X connect 8 0 7 0;
#X connect 9 0 10 0;
#X connect 12 0 14 0;
#X connect 13 0 1 0;
#X connect 14 0 13 0;
#X connect 15 0 25 0;
#X connect 15 2 24 0;
#X connect 15 3 23 0;
#X connect 15 4 22 0;
#X connect 15 5 4 0;
#X connect 15 6 27 0;
#X connect 15 7 28 0;
#X connect 15 8 2 0;
#X connect 18 0 6 0;
#X connect 19 0 18 0;
#X connect 20 0 26 0;
#X connect 21 0 9 0;
#X connect 22 0 8 0;
#X connect 23 0 19 0;
#X connect 24 0 5 0;
#X connect 25 0 12 0;
#X connect 26 0 21 0;
#X connect 27 0 3 0;
#X connect 28 0 11 0;
#X restore 404 65 pd GENERATIVE__________;
#X obj 33 646 s \$0-gen-range;
#X obj 33 626 f;
#X obj 33 566 f.seq.automater \$0 \$0-gen-range 0;
#X msg 51 542 chaos \$1;
#X obj 134 496 i;
#X obj 171 416 i;
#X obj 171 438 s \$0-gen-min;
#X obj 134 518 s \$0-gen-min-fixed;
#X obj 171 396 + 1;
#X obj 171 356 f.seq.automater \$0 \$0-gen-min 0;
#X obj 134 456 f.seq.automater \$0 \$0-gen-min-fixed 0;
#X obj 34 418 / 24;
#X obj 33 607 * 24;
#X obj 33 588 f;
#X obj 380 298 s \$0-gen-on-off;
#X obj 380 256 f.seq.automater \$0 \$0-gen-on-off 0;
#X obj 171 375 * 8;
#X obj 168 326 / 8;
#X obj 134 477 * 8;
#X msg 223 320 chaos \$1;
#X obj 123 264 f.seq.automater \$0 \$0-gen-direction 0;
#X obj 123 243 / 4;
#X msg 164 242 chaos \$1;
#N canvas 0 23 450 300 GEN-MAPPING 0;
#X obj 37 37 inlet;
#X obj 37 79 * 4;
#X obj 37 100 i;
#X obj 38 121 + 1;
#X obj 38 142 mod 4;
#X floatatom 38 163 5 0 0 0 - - -;
#X obj 38 183 s \$0-gen-direction;
#X connect 0 0 1 0;
#X connect 1 0 2 0;
#X connect 2 0 3 0;
#X connect 3 0 4 0;
#X connect 4 0 5 0;
#X connect 5 0 6 0;
#X restore 123 285 pd GEN-MAPPING;
#X connect 0 0 2 0;
#X connect 2 0 17 0;
#X connect 2 1 9 0;
#X connect 2 2 23 0;
#X connect 2 3 25 0;
#X connect 2 4 27 0;
#X connect 2 5 28 0;
#X connect 2 6 3 0;
#X connect 2 7 3 1;
#X connect 2 8 4 0;
#X connect 2 8 21 0;
#X connect 2 9 1 0;
#X connect 7 0 6 0;
#X connect 8 0 19 0;
#X connect 9 0 8 0;
#X connect 10 0 13 0;
#X connect 11 0 12 0;
#X connect 11 0 16 0;
#X connect 14 0 11 0;
#X connect 15 0 22 0;
#X connect 16 0 24 0;
#X connect 17 0 8 0;
#X connect 18 0 7 0;
#X connect 19 0 18 0;
#X connect 21 0 20 0;
#X connect 22 0 14 0;
#X connect 23 0 15 0;
#X connect 24 0 10 0;
#X connect 25 0 15 0;
#X connect 26 0 29 0;
#X connect 27 0 26 0;
#X connect 28 0 26 0;
#X restore 22 175 pd GEN_EUC_________;
#X obj 22 42 r o-s-c-messages;
#X obj 32 444 outlet;
#X obj 32 394 r formuls\$1;
#N canvas 407 232 449 455 MOD_INPUT_______ 0;
#X obj 41 12 inlet;
#X obj 270 348 t a;
#X obj 392 418 outlet;
#X obj 270 369 s \$0-mod-routing;
#X obj 41 33 route modulationinput\$1;
#X obj 41 56 route f1 f2 f3 f4 f5 f6;
#X obj 43 263 f.util.modparse 1;
#X obj 64 241 f.util.modparse 2;
#X obj 101 219 f.util.modparse 3;
#X obj 122 196 f.util.modparse 4;
#X obj 146 174 f.util.modparse 5;
#X obj 167 151 f.util.modparse 6;
#X connect 0 0 4 0;
#X connect 1 0 3 0;
#X connect 4 0 5 0;
#X connect 4 1 2 0;
#X connect 5 0 6 0;
#X connect 5 1 7 0;
#X connect 5 2 8 0;
#X connect 5 3 9 0;
#X connect 5 4 10 0;
#X connect 5 5 11 0;
#X connect 6 0 1 0;
#X connect 7 0 1 0;
#X connect 8 0 1 0;
#X connect 9 0 1 0;
#X connect 10 0 1 0;
#X connect 11 0 1 0;
#X restore 22 195 pd MOD_INPUT_______;
#X obj 137 368 r \$0-mod-routing;
#N canvas 137 483 295 347 SEQUENCER_BEAT__ 0;
#X obj 166 156 s \$0-seq-length;
#X obj 64 111 r \$0-seq-messages;
#X obj 55 136 f.seq.sequencer;
#X obj 55 80 r link;
#N canvas 0 32 233 291 TRIG 0;
#X obj 70 99 t b b;
#X obj 70 120 del 2;
#X msg 70 141 0;
#X obj 70 162 t a;
#X msg 106 138 1;
#X obj 70 213 outlet;
#X obj 70 46 inlet;
#X connect 0 0 1 0;
#X connect 0 1 4 0;
#X connect 1 0 2 0;
#X connect 2 0 3 0;
#X connect 3 0 5 0;
#X connect 4 0 3 0;
#X connect 6 0 0 0;
#X restore 55 179 pd TRIG;
#X msg 55 221 triggerx \$1;
#X obj 55 242 s formuls\$1;
#X obj 64 157 s \$0-value-send;
#X connect 1 0 2 0;
#X connect 2 0 4 0;
#X connect 2 0 7 0;
#X connect 3 0 2 0;
#X connect 4 0 5 0;
#X connect 5 0 6 0;
#X restore 22 281 pd SEQUENCER_BEAT__;
#N canvas 295 150 784 650 FLOOPER_________ 0;
#X obj 52 27 inlet;
#X obj 52 67 route record\$1 play\$1 loop\$1 reverse\$1 level\$1;
#X obj 390 579 outlet;
#X obj 49 352 route speed\$1 spechaos\$1 duration\$1 durchaos\$1 readoffset\$1
offchaos\$1 envelope\$1 envchaos\$1 dropout\$1 drochaos\$1;
#X obj 52 177 f.util.oscformat \$0 \$1 flooper record -;
#X obj 106 157 f.util.oscformat \$0 \$1 flooper play -;
#X obj 161 138 f.util.oscformat \$0 \$1 flooper loop -;
#X obj 215 119 f.util.oscformat \$0 \$1 flooper reverse -;
#X obj 270 100 f.util.oscformat \$0 \$1 flooper level -;
#X obj 49 492 f.util.oscformat \$0 \$1 flooper speed spe;
#X obj 116 471 f.util.oscformat \$0 \$1 flooper duration dur;
#X obj 184 451 f.util.oscformat \$0 \$1 flooper readoffset rea;
#X obj 252 431 f.util.oscformat \$0 \$1 flooper envelope env;
#X obj 320 411 f.util.oscformat \$0 \$1 flooper dropout dro;
#X connect 0 0 1 0;
#X connect 1 0 4 0;
#X connect 1 1 5 0;
#X connect 1 2 6 0;
#X connect 1 3 7 0;
#X connect 1 4 8 0;
#X connect 1 5 3 0;
#X connect 3 0 9 0;
#X connect 3 1 9 1;
#X connect 3 2 10 0;
#X connect 3 3 10 1;
#X connect 3 4 11 0;
#X connect 3 5 11 1;
#X connect 3 6 12 0;
#X connect 3 7 12 1;
#X connect 3 8 13 0;
#X connect 3 9 13 1;
#X connect 3 10 2 0;
#X restore 22 215 pd FLOOPER_________;
#N canvas 246 435 1194 342 TRIG____________ 0;
#X obj 34 15 inlet;
#X obj 34 38 route op1freqwavetrig\$1 exttrig\$1 op2trig\$1 noisetrig\$1
amtrig\$1 amwtrig\$1;
#X obj 34 289 s \$0-op1f-trig;
#X obj 54 268 s \$0-w-trig;
#X obj 97 247 s \$0-ext-trig;
#X obj 182 204 s \$0-op2d-trig;
#X obj 161 225 s \$0-op2f-trig;
#X obj 226 178 s \$0-n-trig;
#X obj 242 156 s \$0-nf-trig;
#X obj 288 134 s \$0-amf-trig;
#X obj 299 112 s \$0-amd-trig;
#X obj 352 87 s \$0-amw-trig;
#X obj 445 263 s \$0-sat-trig;
#X obj 496 241 s \$0-bit-trig;
#X obj 548 220 s \$0-pit-trig;
#X obj 598 198 s \$0-ds-trig;
#X obj 651 176 s \$0-dt-trig;
#X obj 681 155 s \$0-df-trig;
#X obj 704 132 s \$0-fc-trig;
#X obj 727 108 s \$0-fr-trig;
#X obj 1084 284 outlet;
#X obj 877 42 route revtrig\$1 fxsendtrig\$1;
#X obj 877 98 s \$0-revtrig;
#X obj 959 76 s \$0-fxstrig;
#X obj 445 37 route sattrig\$1 bittrig\$1 pittrig\$1 dstrig$ dttrig\$1
dftrig\$1 fctrig\$1 frtrig\$1 pantrig\$1;
#X obj 765 85 s \$0-pan-trig;
#X connect 0 0 1 0;
#X connect 1 0 2 0;
#X connect 1 0 3 0;
#X connect 1 1 4 0;
#X connect 1 2 6 0;
#X connect 1 2 5 0;
#X connect 1 3 7 0;
#X connect 1 3 8 0;
#X connect 1 4 9 0;
#X connect 1 4 10 0;
#X connect 1 5 11 0;
#X connect 1 6 24 0;
#X connect 21 0 22 0;
#X connect 21 1 23 0;
#X connect 21 2 20 0;
#X connect 24 0 12 0;
#X connect 24 1 13 0;
#X connect 24 2 14 0;
#X connect 24 3 15 0;
#X connect 24 4 16 0;
#X connect 24 5 17 0;
#X connect 24 6 18 0;
#X connect 24 7 19 0;
#X connect 24 8 25 0;
#X connect 24 9 21 0;
#X restore 22 235 pd TRIG____________;
#N canvas 0 348 1440 342 ACT_____________ 0;
#X obj 34 15 inlet;
#X obj 34 289 s \$0-op1f-act;
#X obj 54 268 s \$0-w-act;
#X obj 97 247 s \$0-ext-act;
#X obj 161 225 s \$0-op2f-act;
#X obj 182 204 s \$0-op2d-act;
#X obj 226 178 s \$0-n-act;
#X obj 242 156 s \$0-nf-act;
#X obj 445 263 s \$0-sat-act;
#X obj 497 241 s \$0-bit-act;
#X obj 548 220 s \$0-pit-act;
#X obj 599 198 s \$0-ds-act;
#X obj 651 176 s \$0-dt-act;
#X obj 681 155 s \$0-df-act;
#X obj 704 133 s \$0-fc-act;
#X obj 727 108 s \$0-fr-act;
#X obj 875 225 s \$0-a-act;
#X obj 927 203 s \$0-d-act;
#X obj 976 182 s \$0-s-act;
#X obj 1029 160 s \$0-r-act;
#X obj 1081 138 s \$0-op1sr-act;
#X obj 1111 117 s \$0-op1st-act;
#X obj 1221 48 route seqlact\$1 seqtbact\$1 seqtbmact\$1;
#X obj 1221 144 s \$0-seql-act;
#X obj 1273 122 s \$0-seqtb-act;
#X obj 1322 101 s \$0-seqtbm-act;
#X obj 1467 136 s \$0-revact;
#X obj 1636 65 s \$0-endact;
#X obj 1568 93 s \$0-enract;
#X obj 1518 114 s \$0-fxsact;
#X obj 1468 40 route reverbact\$1 fxsendact\$1 enract\$1 endact\$1
;
#X obj 875 59 route aact\$1 dact\$1 sact\$1 ract$ slideact\$1;
#X obj 34 38 route op1act\$1 extact\$1 op2act\$1 noiseact\$1 slideact\$1
amact\$1 amwact\$1;
#X obj 354 70 s \$0-amw-act;
#X obj 331 91 s \$0-amd-act;
#X obj 299 112 s \$0-amf-act;
#X obj 288 134 s \$0-slide-act;
#X obj 445 37 route satact\$1 bitact\$1 pitact\$1 dsact\$1 dtact\$1
dfact\$1 fcact\$1 fract\$1 panact\$1;
#X obj 765 85 s \$0-pan-act;
#X connect 0 0 32 0;
#X connect 22 0 23 0;
#X connect 22 1 24 0;
#X connect 22 2 25 0;
#X connect 22 3 30 0;
#X connect 30 0 26 0;
#X connect 30 1 29 0;
#X connect 30 2 28 0;
#X connect 30 3 27 0;
#X connect 31 0 16 0;
#X connect 31 1 17 0;
#X connect 31 2 18 0;
#X connect 31 3 19 0;
#X connect 31 4 20 0;
#X connect 31 4 21 0;
#X connect 31 5 22 0;
#X connect 32 0 1 0;
#X connect 32 0 2 0;
#X connect 32 1 3 0;
#X connect 32 2 4 0;
#X connect 32 2 5 0;
#X connect 32 3 6 0;
#X connect 32 3 7 0;
#X connect 32 4 36 0;
#X connect 32 5 34 0;
#X connect 32 5 35 0;
#X connect 32 6 33 0;
#X connect 32 7 37 0;
#X connect 37 0 8 0;
#X connect 37 1 9 0;
#X connect 37 2 10 0;
#X connect 37 3 11 0;
#X connect 37 4 12 0;
#X connect 37 5 13 0;
#X connect 37 6 14 0;
#X connect 37 7 15 0;
#X connect 37 8 38 0;
#X connect 37 9 31 0;
#X restore 22 257 pd ACT_____________;
#N canvas 690 281 1160 654 OP1_OP2_NOISE___ 0;
#X obj 6 20 inlet;
#X obj 7 400 unpack f f;
#X obj 274 420 unpack f f;
#X obj 376 81 unpack f f;
#X obj 665 99 unpack f f;
#X obj 742 66 unpack f f;
#X obj 1037 69 unpack f f;
#X obj 742 33 route noise\$1 noisechaos\$1;
#X obj 1096 589 outlet;
#X obj 649 213 oscformat op2act\$1;
#X obj 969 192 oscformat noiseact\$1;
#X obj 196 497 s to-o-s-c-interface;
#X obj 649 235 s to-o-s-c-interface;
#X obj 970 214 s to-o-s-c-interface;
#X obj 197 241 unpack f f;
#X obj 494 266 unpack f f;
#X obj 70 472 r xglobal;
#X obj 126 408 r yglobal;
#X obj 804 125 r xglobal;
#X obj 861 67 r yglobal;
#X obj 263 308 r xglobal;
#X obj 316 250 r yglobal;
#X obj 438 148 r xglobal;
#X obj 505 85 r yglobal;
#X obj 376 49 route op2freqdepth\$1 op2chaos\$1;
#X obj 196 475 oscformat op1act\$1;
#X obj 6 53 route op1freqwave\$1 op1chaos\$1 extmod\$1 extchaos\$1
slide\$1 slidechaos\$1;
#X obj 121 384 f.util.oscformat \$0 \$1 fsynth extmodulation ext;
#X obj 197 345 f.util.oscformat \$0 \$1 fsynth op1sliderange op1sr
;
#X obj 254 289 f.util.oscformat \$0 \$1 fsynth op1slidetime op1st;
#X obj 376 186 f.util.oscformat \$0 \$1 fsynth op2freq op2f 8;
#X obj 443 123 f.util.oscformat \$0 \$1 fsynth op2depth op2d 8;
#X obj 742 162 f.util.oscformat \$0 \$1 fsynth noise n;
#X obj 799 104 f.util.oscformat \$0 \$1 fsynth noisefilterfreq nf;
#X obj 7 489 f.util.switch;
#X obj 64 426 f.util.switch;
#X obj 197 326 f.util.switch;
#X obj 254 268 f.util.switch;
#X obj 376 166 f.util.switch;
#X obj 443 103 f.util.switch;
#X obj 742 143 f.util.switch;
#X obj 799 85 f.util.switch;
#N canvas 631 400 375 455 GEN 0;
#N canvas 775 459 481 332 noteNameConverter 0;
#X obj 101 19 inlet;
#X obj 101 61 mod 12;
#X obj 101 242 symbol;
#X obj 101 294 outlet;
#X obj 101 105 t b f b;
#X msg 140 132 set;
#X msg 120 160 adddollar \$1;
#X msg 101 219 \$2;
#X obj 101 83 + 1;
#X msg 101 184 list C C#/Db D D#/Eb E F F#/Gb G G#/Ab A A#/Bb B;
#X obj 101 40 i;
#X connect 0 0 10 0;
#X connect 1 0 8 0;
#X connect 2 0 3 0;
#X connect 4 0 9 0;
#X connect 4 1 6 0;
#X connect 4 2 5 0;
#X connect 5 0 7 0;
#X connect 6 0 7 0;
#X connect 7 0 2 0;
#X connect 8 0 4 0;
#X connect 9 0 7 0;
#X connect 10 0 1 0;
#X restore 154 282 pd noteNameConverter;
#X obj 123 270 mtof;
#X obj 123 247 t f f;
#N canvas 385 93 719 855 operator-note-snap 0;
#X obj 139 680 + 0;
#X obj 51 7 inlet;
#X obj 51 726 outlet;
#X obj 139 725 outlet;
#X obj 154 658 r scale-root-note;
#X obj 51 291 * 127;
#X obj 66 229 r pitch-gamut-length;
#X text 170 679 <- transposes the whole gamut of pitchs n steps;
#X text 114 269 <- "* 11": total number of octaves covered by the pitch
range;
#X text 97 297 <- total number of pitches covered by the 11 octave
pitch range;
#N canvas 994 146 446 732 GENERATOR_______ 0;
#X obj 125 331 r \$0-gen-direction;
#X obj 70 112 r \$0-gen-range;
#X obj 60 686 outlet;
#X obj 61 23 inlet;
#X obj 249 285 r \$0-gen-max;
#X obj 93 267 r \$0-gen-min;
#X obj 75 573 r \$0-gen-invert;
#X obj 75 594 sel 0 1;
#X msg 75 615 1;
#X msg 107 613 -1;
#X obj 60 643 * 1;
#X obj 169 25 inlet value_set;
#X msg 169 46 set \$1;
#X obj 80 135 r pitch-gamut-length;
#X obj 80 156 t b f;
#X obj 70 177 f;
#X obj 70 198 *;
#X obj 70 219 i;
#X obj 75 241 s \$0-gen-range-display;
#X obj 229 222 r \$0-gen-min-fixed;
#X obj 110 290 f;
#X obj 229 243 sel 0 1;
#X msg 229 264 1;
#X obj 122 311 s \$0-gen-min-display;
#X obj 142 442 f;
#X obj 197 413 r \$0-gen-repeat;
#X obj 167 442 + 1;
#X obj 142 463 mod 1;
#X obj 142 484 sel 0;
#X msg 142 505 0;
#X obj 142 526 t a;
#X msg 173 505 100;
#X obj 197 434 * 10;
#X obj 197 455 i;
#X obj 197 476 + 1;
#X obj 61 50 t b b;
#X obj 61 546 f.gen.drunk;
#X floatatom 233 595 5 0 0 0 - - -;
#X obj 224 135 bng 15 250 50 0 empty empty empty 17 7 0 10 -262144
-1 -1;
#X obj 26 53 bng 15 250 50 0 empty empty empty 17 7 0 10 -262144 -1
-1;
#X floatatom 22 199 5 0 0 0 - - -;
#X floatatom 226 355 5 0 0 0 - - -;
#X connect 0 0 41 0;
#X connect 0 0 36 4;
#X connect 1 0 15 0;
#X connect 1 0 36 0;
#X connect 3 0 35 0;
#X connect 5 0 20 0;
#X connect 5 0 36 2;
#X connect 6 0 7 0;
#X connect 7 0 8 0;
#X connect 7 1 9 0;
#X connect 8 0 10 1;
#X connect 9 0 10 1;
#X connect 10 0 2 0;
#X connect 11 0 12 0;
#X connect 12 0 36 0;
#X connect 13 0 14 0;
#X connect 14 0 15 0;
#X connect 14 1 16 1;
#X connect 14 1 40 0;
#X connect 15 0 16 0;
#X connect 16 0 17 0;
#X connect 17 0 18 0;
#X connect 19 0 21 0;
#X connect 20 0 23 0;
#X connect 20 0 36 3;
#X connect 21 0 22 0;
#X connect 21 1 20 0;
#X connect 22 0 36 3;
#X connect 24 0 26 0;
#X connect 24 0 27 0;
#X connect 25 0 32 0;
#X connect 26 0 24 1;
#X connect 27 0 28 0;
#X connect 28 0 29 0;
#X connect 28 1 31 0;
#X connect 29 0 30 0;
#X connect 30 0 36 5;
#X connect 31 0 30 0;
#X connect 32 0 33 0;
#X connect 33 0 34 0;
#X connect 34 0 27 1;
#X connect 35 0 36 0;
#X connect 35 0 38 0;
#X connect 35 1 24 0;
#X connect 36 0 10 0;
#X connect 36 0 37 0;
#X connect 39 0 35 0;
#X restore 106 469 pd GENERATOR_______;
#X obj 51 496 +;
#X obj 62 517 s \$0-pitch~update;
#X obj 113 376 r \$0-pitch-update;
#X obj 63 337 r \$0-value-send;
#X text 187 511 <- send and store generated value for next iteration
of the cylce;
#X obj 258 422 spigot;
#X obj 51 312 t f f;
#X obj 51 615 spigot;
#X msg 91 70 stop;
#X msg 122 111 0;
#X obj 291 399 == 0;
#X msg 81 112 1;
#X obj 81 133 t a;
#X obj 81 91 del 50;
#X obj 78 271 * 10;
#X obj 66 250 t b f;
#X obj 51 271 f;
#X obj 156 398 r \$0-op1-freq-snap;
#X obj 156 418 == 0;
#X obj 63 358 t b b b;
#X obj 526 568 r \$0-op1-freq-snap;
#X obj 139 638 f;
#X obj 60 181 * 127;
#X obj 466 636 spigot;
#X obj 465 732 s \$0-clone-in;
#X obj 465 690 line 1 1;
#X msg 465 670 \$1 20;
#X obj 169 605 +;
#X obj 475 590 spigot;
#X floatatom 15 472 5 0 0 0 - - -;
#X floatatom 13 405 5 0 0 0 - - -;
#X obj 468 612 f;
#X msg 465 711 op1freq \$1;
#X obj 455 766 outlet;
#X obj 95 6 inlet;
#X obj 140 7 inlet;
#X obj 51 155 f;
#X obj 258 450 f.util.keyselector \$0;
#X obj 51 548 f.util.keyselector \$0;
#X obj 51 438 f.util.floatint;
#X floatatom 9 580 5 0 0 0 - - -;
#X obj 656 561 f.util.keyselector \$0;
#X floatatom 656 582 5 0 0 0 - - -;
#X obj 656 772 outlet;
#X connect 0 0 3 0;
#X connect 1 0 47 0;
#X connect 4 0 0 1;
#X connect 5 0 17 0;
#X connect 5 0 52 0;
#X connect 6 0 26 0;
#X connect 10 0 11 1;
#X connect 10 0 38 1;
#X connect 11 0 12 0;
#X connect 11 0 49 0;
#X connect 11 0 51 0;
#X connect 13 0 50 1;
#X connect 14 0 30 0;
#X connect 16 0 48 0;
#X connect 17 0 41 0;
#X connect 17 0 50 0;
#X connect 17 1 16 0;
#X connect 18 0 2 0;
#X connect 19 0 24 0;
#X connect 20 0 23 0;
#X connect 21 0 16 1;
#X connect 22 0 23 0;
#X connect 23 0 21 0;
#X connect 23 0 18 1;
#X connect 24 0 22 0;
#X connect 25 0 5 1;
#X connect 26 0 27 0;
#X connect 26 1 25 0;
#X connect 27 0 5 0;
#X connect 28 0 29 0;
#X connect 29 0 50 2;
#X connect 30 0 32 0;
#X connect 30 0 39 0;
#X connect 30 1 50 0;
#X connect 30 2 10 0;
#X connect 31 0 34 1;
#X connect 31 0 39 1;
#X connect 32 0 0 0;
#X connect 33 0 42 0;
#X connect 34 0 37 0;
#X connect 36 0 43 0;
#X connect 36 0 44 0;
#X connect 37 0 36 0;
#X connect 38 0 32 0;
#X connect 39 0 42 0;
#X connect 42 0 34 0;
#X connect 42 0 38 0;
#X connect 43 0 35 0;
#X connect 45 0 24 0;
#X connect 46 0 19 0;
#X connect 46 0 20 0;
#X connect 47 0 33 0;
#X connect 47 0 27 0;
#X connect 48 0 2 0;
#X connect 49 0 18 0;
#X connect 49 0 32 1;
#X connect 50 0 11 0;
#X connect 50 0 40 0;
#X connect 52 0 53 0;
#X connect 53 0 54 0;
#X restore 123 147 pd operator-note-snap;
#X obj 42 224 r \$0-param-update;
#X obj 123 292 i;
#X obj 184 198 v \$0-freq;
#X obj 184 177 mtof;
#X obj 255 196 v \$0-freq;
#X obj 246 219 s \$0-freq;
#X obj 246 168 mtof;
#X obj 133 71 inlet;
#X obj 38 364 outlet;
#X obj 123 369 outlet;
#X obj 123 315 pack f s;
#X msg 123 341 symbol \$2:\$1Hz;
#X floatatom 129 173 5 0 0 0 - - -;
#X obj 123 114 t f b b f;
#X obj 240 369 print me;
#X connect 0 0 14 1;
#X connect 1 0 5 0;
#X connect 2 0 1 0;
#X connect 2 1 0 0;
#X connect 3 1 7 0;
#X connect 3 2 10 0;
#X connect 3 3 2 0;
#X connect 5 0 14 0;
#X connect 7 0 6 0;
#X connect 7 0 12 0;
#X connect 10 0 8 0;
#X connect 10 0 9 0;
#X connect 11 0 17 0;
#X connect 14 0 15 0;
#X connect 15 0 13 0;
#X connect 15 0 18 0;
#X connect 17 0 3 0;
#X connect 17 1 3 1;
#X connect 17 2 3 2;
#X restore 17 577 pd GEN;
#X obj 64 447 f.util.oscformat \$0 \$1 fsynth waveshape w 4;
#X obj 19 554 f.seq.automater \$0 \$0-op1freq 0 0;
#X msg 20 528 chaos \$1;
#X obj 87 510 r \$0-op1f-act;
#X msg 87 531 active \$1;
#X msg 12 605 op1freq \$1;
#X obj 12 626 s formuls\$1;
#X obj 89 626 s to-o-s-c-interface;
#X obj 89 605 oscformat op1pitchgui\$1;
#X connect 0 0 26 0;
#X connect 1 0 34 0;
#X connect 1 1 35 0;
#X connect 2 0 45 0;
#X connect 2 1 43 1;
#X connect 3 0 38 0;
#X connect 3 1 39 0;
#X connect 4 0 30 1;
#X connect 4 1 31 1;
#X connect 5 0 40 0;
#X connect 5 1 41 0;
#X connect 6 0 32 1;
#X connect 6 1 33 1;
#X connect 7 0 5 0;
#X connect 7 1 6 0;
#X connect 7 2 8 0;
#X connect 9 0 12 0;
#X connect 10 0 13 0;
#X connect 14 0 36 0;
#X connect 14 1 37 0;
#X connect 15 0 28 1;
#X connect 15 1 29 1;
#X connect 16 0 34 1;
#X connect 17 0 35 1;
#X connect 18 0 40 1;
#X connect 19 0 41 1;
#X connect 20 0 36 1;
#X connect 21 0 37 1;
#X connect 22 0 38 1;
#X connect 23 0 39 1;
#X connect 24 0 3 0;
#X connect 24 1 4 0;
#X connect 24 2 7 0;
#X connect 25 0 11 0;
#X connect 26 0 1 0;
#X connect 26 1 2 0;
#X connect 26 2 27 0;
#X connect 26 3 27 1;
#X connect 26 4 14 0;
#X connect 26 5 15 0;
#X connect 26 6 24 0;
#X connect 30 3 9 0;
#X connect 31 3 9 0;
#X connect 32 3 10 0;
#X connect 33 3 10 0;
#X connect 34 0 44 0;
#X connect 35 0 43 0;
#X connect 36 0 28 0;
#X connect 37 0 29 0;
#X connect 38 0 30 0;
#X connect 39 0 31 0;
#X connect 40 0 32 0;
#X connect 41 0 33 0;
#X connect 42 0 48 0;
#X connect 42 1 51 0;
#X connect 43 3 25 0;
#X connect 44 0 42 0;
#X connect 45 0 44 0;
#X connect 46 0 47 0;
#X connect 47 0 44 0;
#X connect 48 0 49 0;
#X connect 51 0 50 0;
#X restore 22 65 pd OP1_OP2_NOISE___;
#X obj 137 445 outlet~;
#X obj 189 446 outlet~;
#X obj 242 447 outlet~;
#N canvas 0 23 257 259 OSC_COLLECT_MANIPULATE 0;
#X obj 42 26 r \$0-OSC-collect-\$1;
#X obj 42 49 oscparse;
#N canvas 78 433 450 300 list-manipulate 0;
#X obj 174 119 inlet;
#X obj 174 165 outlet;
#X msg 174 142 \$1 \$2;
#X connect 0 0 2 0;
#X connect 2 0 1 0;
#X restore 42 71 pd list-manipulate;
#X obj 52 94 r \$0-OSC-collect-2-\$1;
#X obj 42 165 s formuls\$1;
#X connect 0 0 1 0;
#X connect 1 0 2 0;
#X connect 2 0 4 0;
#X connect 3 0 4 0;
#X restore 22 308 pd OSC_COLLECT_MANIPULATE;
#X obj 137 388 f.audio.modroute~;
#X connect 0 0 1 0;
#X connect 1 0 2 0;
#X connect 2 0 3 0;
#X connect 3 0 4 0;
#X connect 4 0 8 0;
#X connect 5 0 14 0;
#X connect 7 0 6 0;
#X connect 8 0 11 0;
#X connect 9 0 19 0;
#X connect 11 0 12 0;
#X connect 12 0 13 0;
#X connect 14 0 0 0;
#X connect 19 0 15 0;
#X connect 19 1 16 0;
#X connect 19 2 17 0;
