#N canvas 146 23 1265 855 10;
#X obj 43 42 inlet;
#X text 160 -22 \$1 = instance;
#X text 160 -8 \$2 = \$0;
#X text 157 -38 Receive and parse OSC messages from synth;
#X obj 455 272 pack f f;
#X obj 455 318 s to-o-s-c-interface;
#X obj 455 295 oscformat op1freqwave\$1;
#X obj 35 418 pack f f;
#X obj 35 464 s to-o-s-c-interface;
#X obj 35 441 oscformat op2freqdepth\$1;
#X obj 209 419 pack f f;
#X obj 209 465 s to-o-s-c-interface;
#X obj 209 442 oscformat noise\$1;
#X obj 546 276 s to-o-s-c-interface;
#X obj 546 253 oscformat op1sliderange\$1;
#X obj 604 230 s to-o-s-c-interface;
#X obj 604 207 oscformat op1slidetime\$1;
#X obj 41 814 pack f f;
#X obj 41 860 s to-o-s-c-interface;
#X obj 41 837 oscformat amfreqdepth\$1;
#X obj 122 813 s to-o-s-c-interface;
#X obj 173 763 s to-o-s-c-interface;
#X obj 173 740 oscformat saturation\$1;
#X obj 193 716 s to-o-s-c-interface;
#X obj 193 693 oscformat filtercutoff\$1;
#X obj 257 669 s to-o-s-c-interface;
#X obj 257 646 oscformat filterresonance\$1;
#X obj 294 620 s to-o-s-c-interface;
#X obj 294 597 oscformat bitcrush\$1;
#X obj 330 574 s to-o-s-c-interface;
#X obj 331 550 oscformat pitchshift\$1;
#X obj 103 282 s to-o-s-c-interface;
#X obj 103 259 oscformat panning\$1;
#X obj 537 732 s to-o-s-c-interface;
#X obj 537 709 oscformat delaysend\$1;
#X obj 627 686 s to-o-s-c-interface;
#X obj 627 663 oscformat delaytime\$1;
#X obj 716 640 s to-o-s-c-interface;
#X obj 716 617 oscformat delayfeedback\$1;
#X obj 658 188 s to-o-s-c-interface;
#X obj 658 165 oscformat extmod\$1;
#X obj 476 215 t b f;
#X obj 59 794 t b f;
#X obj 54 394 t b f;
#X obj 227 398 t b f;
#N canvas 171 427 412 361 VOICE_PITCH_READ__ 0;
#X obj 202 250 s formuls\$1;
#X obj 202 142 loadbang;
#X obj 29 153 ftom;
#X obj 29 20 inlet;
#X obj 312 326 outlet;
#X obj 29 85 t a a;
#X obj 272 153 tgl 15 0 empty empty empty 17 7 0 10 -262144 -1 -1 0
1;
#X obj 29 278 s to-o-s-c-interface;
#N canvas 0 23 358 494 MIDI2NOTE 0;
#X obj 47 27 inlet;
#X obj 47 48 mod 12;
#X obj 47 89 sel 0 1 2 3 4 5 6 7 8 9 10 11;
#X msg 47 370 C;
#X obj 257 441 t a;
#X obj 257 462 outlet;
#X msg 61 350 C#/Db;
#X msg 75 331 D;
#X msg 90 309 D#/Eb;
#X msg 102 289 E;
#X msg 115 267 F;
#X msg 136 245 F#/Gb;
#X msg 150 222 G;
#X msg 160 201 G#/Ab;
#X msg 175 177 A;
#X msg 188 155 A#/Bb;
#X msg 204 128 B;
#X obj 47 69 i;
#X connect 0 0 1 0;
#X connect 1 0 17 0;
#X connect 2 0 3 0;
#X connect 2 1 6 0;
#X connect 2 2 7 0;
#X connect 2 3 8 0;
#X connect 2 4 9 0;
#X connect 2 5 10 0;
#X connect 2 6 11 0;
#X connect 2 7 12 0;
#X connect 2 8 13 0;
#X connect 2 9 14 0;
#X connect 2 10 15 0;
#X connect 2 11 16 0;
#X connect 3 0 4 0;
#X connect 4 0 5 0;
#X connect 6 0 4 0;
#X connect 7 0 4 0;
#X connect 8 0 4 0;
#X connect 9 0 4 0;
#X connect 10 0 4 0;
#X connect 11 0 4 0;
#X connect 12 0 4 0;
#X connect 13 0 4 0;
#X connect 14 0 4 0;
#X connect 15 0 4 0;
#X connect 16 0 4 0;
#X connect 17 0 2 0;
#X restore 29 174 pd MIDI2NOTE;
#X obj 29 195 pack s f;
#X obj 29 237 symbol;
#X msg 29 216 \$1:\$2Hz;
#X obj 74 113 * 10;
#X obj 74 134 i;
#X obj 74 155 * 0.1;
#X obj 29 257 oscformat op1pitchgui\$1;
#X obj 202 173 metro 20;
#X obj 202 194 t b b;
#N canvas 0 23 450 300 deprecated 0;
#X msg 107 222 /fsynth/voicenumberO;
#X obj 35 48 route /\$3/op1pitchO0 /\$3/op1pitchO1 /\$3/op1pitchO2
/\$3/op1pitchO3 /\$3/op1pitchO4 /\$3/op1pitchO5 /\$3/op1pitchO6 /\$3/op1pitchO7
/\$3/op1pitchO8 /\$3/op1pitchO9 /\$3/op1pitchO10 /\$3/op1pitchO11 /\$3/op1pitchO12
/\$3/op1pitchO13 /\$3/op1pitchO14 /\$3/op1pitchO15 /\$3/op1pitchO;
#X restore 257 54 pd deprecated;
#X obj 29 128 change;
#X obj 29 62 route op1pitchO;
#X msg 202 224 op1pitchO;
#X connect 2 0 8 0;
#X connect 3 0 20 0;
#X connect 5 0 19 0;
#X connect 5 1 12 0;
#X connect 6 0 16 0;
#X connect 8 0 9 0;
#X connect 9 0 11 0;
#X connect 10 0 15 0;
#X connect 11 0 10 0;
#X connect 12 0 13 0;
#X connect 13 0 14 0;
#X connect 14 0 9 1;
#X connect 15 0 7 0;
#X connect 16 0 17 0;
#X connect 17 0 21 0;
#X connect 19 0 2 0;
#X connect 20 0 5 0;
#X connect 20 1 4 0;
#X connect 21 0 0 0;
#X restore 537 781 pd VOICE_PITCH_READ__;
#X obj 680 145 s to-o-s-c-interface;
#X obj 681 122 oscformat genrange\$1;
#X obj 122 790 oscformat amwave\$1;
#X obj 486 546 s to-o-s-c-interface;
#X obj 486 523 oscformat attack\$1;
#X obj 553 504 s to-o-s-c-interface;
#X obj 553 481 oscformat decay\$1;
#X obj 621 460 s to-o-s-c-interface;
#X obj 621 437 oscformat sustain\$1;
#X obj 687 414 s to-o-s-c-interface;
#X obj 687 391 oscformat release\$1;
#X obj 752 460 s to-o-s-c-interface;
#X obj 752 437 oscformat monophonic\$1;
#X obj 164 239 s to-o-s-c-interface;
#X obj 164 216 oscformat enveloperelease\$1;
#X obj 224 196 s to-o-s-c-interface;
#X obj 224 173 oscformat envelopedepth\$1;
#X obj 285 150 s to-o-s-c-interface;
#X obj 285 127 oscformat envelopeside\$1;
#X text 161 8 \$3 = fsynth;
#X text 161 24 \$4 = ffx;
#X text 160 38 \$5 = fmix;
#X text 162 51 \$6 = flooper;
#X obj 43 302 s \$2-volume-gui;
#X obj 455 250 f;
#X obj 723 100 s to-o-s-c-interface;
#X obj 724 77 oscformat genstepsize\$1;
#N canvas 0 23 450 300 random 0;
#X obj 77 23 inlet;
#X obj 77 44 route /\$3/velocityO /\$3/thresholdO /\$3/seqrandomaddO
;
#X obj 76 195 s to-o-s-c-interface;
#X obj 77 172 oscformat velocity\$1;
#X obj 177 152 s to-o-s-c-interface;
#X obj 280 101 s to-o-s-c-interface;
#X obj 323 253 outlet;
#X obj 178 129 oscformat threshold\$1;
#X obj 281 78 oscformat seqrandomadd\$1;
#X connect 0 0 1 0;
#X connect 1 0 3 0;
#X connect 1 1 7 0;
#X connect 1 2 8 0;
#X connect 1 3 6 0;
#X connect 3 0 2 0;
#X connect 7 0 4 0;
#X connect 8 0 5 0;
#X restore 219 309 pd random;
#X obj 850 868 s to-o-s-c-interface;
#X obj 850 847 oscformat speed\$1;
#X obj 887 822 s to-o-s-c-interface;
#X obj 887 801 oscformat duration\$1;
#X obj 944 782 s to-o-s-c-interface;
#X obj 944 761 oscformat readoffset\$1;
#X obj 348 321 s formuls\$1;
#X obj 97 417 s formuls\$1;
#X obj 282 422 s formuls\$1;
#X obj 204 862 s formuls\$1;
#N canvas 0 23 630 282 SEQ-OSC-MESSAGES 0;
#X obj 33 27 r \$2-seq-messages-\$1;
#X obj 33 48 route timebase timebasemultiplier seqlength;
#X obj 33 177 oscformat seqtimebase\$1;
#X obj 402 173 s to-o-s-c-interface;
#X msg 459 128 set seqwrite\$2 \$1;
#X obj 402 87 unpack f f;
#X obj 459 107 pack f \$1;
#X obj 402 152 oscformat;
#X obj 402 65 r \$2-seq-clear-\$1;
#X obj 33 198 s to-o-s-c-interface;
#X obj 118 154 s to-o-s-c-interface;
#X obj 203 110 s to-o-s-c-interface;
#X obj 118 133 oscformat seqtimebasemultiplier\$1;
#X obj 203 89 oscformat seqlength\$1;
#X connect 0 0 1 0;
#X connect 1 0 2 0;
#X connect 1 1 12 0;
#X connect 1 2 13 0;
#X connect 2 0 9 0;
#X connect 4 0 7 0;
#X connect 5 0 7 0;
#X connect 5 1 6 0;
#X connect 6 0 4 0;
#X connect 7 0 3 0;
#X connect 8 0 5 0;
#X connect 12 0 10 0;
#X connect 13 0 11 0;
#X restore 1071 597 pd SEQ-OSC-MESSAGES;
#X obj 958 423 oscformat fxsend\$1;
#X obj 958 444 s to-o-s-c-interface;
#X obj 1048 511 s to-o-s-c-interface;
#X obj 1048 490 oscformat reverb\$1;
#X obj 1048 471 r reverb\$1;
#X obj 325 267 s formuls\$1;
#X obj 477 194 change;
#X obj 315 860 s formuls\$1;
#X obj 59 772 change;
#X obj 1012 269 r flooperrecord\$1;
#X obj 1012 290 oscformat record\$1;
#X obj 1012 311 s to-o-s-c-interface;
#X obj 1139 291 tgl 15 0 empty empty empty 17 7 0 10 -262144 -1 -1
0 1;
#X obj 193 666 pack f f;
#X obj 193 644 f;
#X obj 193 622 t b f;
#X obj 193 600 clip 0 1;
#X obj 180 551 r highpass\$1;
#X obj 180 572 t f f;
#X obj 43 86 route volumeO panningO envelopereleaseO envelopedepthO
envelopesideO;
#X obj 455 45 route op1freqO waveshapeO op1sliderangeO op1slidetimeO
extmodulationO genrangeO genstepsizeO;
#X obj 37 343 route op2freqO op2depthO noiseO noisefilterfreqO;
#X obj 488 353 route attackO decayO sustainO releaseO monophonicO;
#X obj 538 574 route delaysendO delaytimeO delayfeedbackO;
#X obj 851 666 route speedO durationO readoffsetO;
#X obj 958 402 route fxsendO reverbO;
#X msg 282 401 noiseO;
#X msg 97 396 op2freqO;
#X msg 324 246 waveshapeO;
#X msg 348 300 op1freqO;
#X msg 204 841 amfreqO;
#X msg 316 839 amdepthO;
#X obj 42 498 route amfreqO amdepthO amwaveO saturationO lowpassO resonanceO
bitcrushO pitchshiftO filtercutoffO;
#X obj 143 528 r lowpass1;
#X connect 0 0 104 0;
#X connect 4 0 6 0;
#X connect 6 0 5 0;
#X connect 7 0 9 0;
#X connect 9 0 8 0;
#X connect 10 0 12 0;
#X connect 12 0 11 0;
#X connect 14 0 13 0;
#X connect 16 0 15 0;
#X connect 17 0 19 0;
#X connect 19 0 18 0;
#X connect 22 0 21 0;
#X connect 24 0 23 0;
#X connect 26 0 25 0;
#X connect 28 0 27 0;
#X connect 30 0 29 0;
#X connect 32 0 31 0;
#X connect 34 0 33 0;
#X connect 36 0 35 0;
#X connect 38 0 37 0;
#X connect 40 0 39 0;
#X connect 41 0 70 0;
#X connect 41 0 114 0;
#X connect 41 1 4 1;
#X connect 42 0 17 0;
#X connect 42 0 115 0;
#X connect 42 1 17 1;
#X connect 43 0 7 0;
#X connect 43 0 112 0;
#X connect 43 1 7 1;
#X connect 44 0 10 0;
#X connect 44 0 111 0;
#X connect 44 1 10 1;
#X connect 47 0 46 0;
#X connect 48 0 20 0;
#X connect 50 0 49 0;
#X connect 52 0 51 0;
#X connect 54 0 53 0;
#X connect 56 0 55 0;
#X connect 58 0 57 0;
#X connect 60 0 59 0;
#X connect 62 0 61 0;
#X connect 64 0 63 0;
#X connect 70 0 4 0;
#X connect 72 0 71 0;
#X connect 73 0 106 0;
#X connect 75 0 74 0;
#X connect 77 0 76 0;
#X connect 79 0 78 0;
#X connect 85 0 86 0;
#X connect 88 0 87 0;
#X connect 89 0 88 0;
#X connect 91 0 41 0;
#X connect 93 0 42 0;
#X connect 94 0 95 0;
#X connect 94 0 97 0;
#X connect 95 0 96 0;
#X connect 98 0 24 0;
#X connect 99 0 98 0;
#X connect 100 0 99 0;
#X connect 100 1 98 1;
#X connect 101 0 100 0;
#X connect 102 0 103 0;
#X connect 103 0 99 0;
#X connect 103 1 101 1;
#X connect 104 0 69 0;
#X connect 104 1 32 0;
#X connect 104 2 60 0;
#X connect 104 3 62 0;
#X connect 104 4 64 0;
#X connect 104 5 105 0;
#X connect 105 0 70 0;
#X connect 105 0 113 0;
#X connect 105 1 91 0;
#X connect 105 2 14 0;
#X connect 105 3 16 0;
#X connect 105 4 40 0;
#X connect 105 5 47 0;
#X connect 105 6 72 0;
#X connect 105 7 73 0;
#X connect 106 0 7 0;
#X connect 106 1 43 0;
#X connect 106 2 10 0;
#X connect 106 3 44 0;
#X connect 106 4 107 0;
#X connect 107 0 50 0;
#X connect 107 1 52 0;
#X connect 107 2 54 0;
#X connect 107 3 56 0;
#X connect 107 4 58 0;
#X connect 107 5 117 0;
#X connect 108 0 34 0;
#X connect 108 1 36 0;
#X connect 108 2 38 0;
#X connect 108 3 45 0;
#X connect 108 3 109 0;
#X connect 109 0 75 0;
#X connect 109 1 77 0;
#X connect 109 2 79 0;
#X connect 109 3 110 0;
#X connect 110 0 85 0;
#X connect 111 0 82 0;
#X connect 112 0 81 0;
#X connect 113 0 90 0;
#X connect 114 0 80 0;
#X connect 115 0 83 0;
#X connect 116 0 92 0;
#X connect 117 0 17 0;
#X connect 117 0 116 0;
#X connect 117 1 93 0;
#X connect 117 2 48 0;
#X connect 117 3 22 0;
#X connect 117 4 101 0;
#X connect 117 5 26 0;
#X connect 117 6 28 0;
#X connect 117 7 30 0;
#X connect 117 9 108 0;
#X connect 118 0 101 0;
