#N canvas 255 23 1090 855 12;
#X floatatom 23 48 5 0 0 0 - - -;
#X obj 799 339 tgl 15 0 empty empty empty 17 7 0 10 -262144 -1 -1 0
1;
#X obj 882 278 t b b f;
#X obj 882 354 t a;
#X obj 882 145 tgl 15 0 empty empty empty 17 7 0 10 -262144 -1 -1 1
1;
#X obj 831 148 bng 15 250 50 0 empty empty empty 17 7 0 10 -262144
-1 -1;
#X obj 978 184 + 1;
#X obj 978 160 random 3;
#X obj 866 527 tgl 15 0 empty empty empty 17 7 0 10 -262144 -1 -1 0
1;
#X obj 882 302 del 2;
#X msg 913 327 1;
#X msg 882 325 0;
#X obj 24 26 f;
#X obj 882 170 metro 200;
#X obj 978 208 * 100;
#X obj 882 199 random 16;
#X obj 882 224 * 100;
#X floatatom 971 129 5 0 0 0 - - -;
#X obj 882 254 + 100;
#X obj 865 380 random 100;
#X obj 865 404 moses 30;
#X obj 865 426 t b b f;
#X obj 865 502 t a;
#X obj 865 450 del 2;
#X msg 896 475 1;
#X msg 865 473 0;
#X obj 956 259 random 100;
#X obj 956 283 moses 50;
#X obj 957 332 t a;
#X msg 957 307 50;
#X floatatom 978 232 5 0 0 0 - - -;
#X obj 800 317 spigot;
#X obj 854 319 tgl 15 0 empty empty empty 17 7 0 10 -262144 -1 -1 1
1;
#N canvas 0 23 1072 721 FOOPER_____ 0;
#X msg 323 108 formuls/fooperrecord0 \$1;
#X obj 323 132 s \$0-out;
#X obj 329 156 tgl 15 0 empty empty empty 17 7 0 10 -262144 -1 -1 0
1;
#X obj 329 201 s \$0-out;
#X msg 329 177 formuls/play0 \$1;
#X obj 329 352 s \$0-out;
#X msg 329 328 formuls/speed0 \$1;
#X floatatom 329 306 5 0 1 0 - - -;
#X obj 477 261 s \$0-out;
#X floatatom 477 215 5 0 1 0 - - -;
#X msg 477 237 formuls/readoffset0 \$1;
#X obj 322 278 s \$0-out;
#X floatatom 322 232 5 0.001 1 0 - - -;
#X msg 322 254 formuls/duration0 \$1;
#X obj 330 432 s \$0-out;
#X floatatom 330 386 5 0 1 0 - - -;
#X msg 330 408 formuls/envelope0 \$1;
#X obj 495 346 s \$0-out;
#X floatatom 495 300 5 0 1 0 - - -;
#X msg 495 322 formuls/dropout0 \$1;
#X obj 506 431 s \$0-out;
#X floatatom 506 385 5 0 1 0 - - -;
#X msg 506 407 formuls/level0 \$1;
#X obj 519 143 s \$0-out;
#X msg 519 119 formuls/reverse0 \$1;
#X obj 685 250 tgl 15 0 empty empty empty 17 7 0 10 -262144 -1 -1 0
1;
#X obj 685 297 s \$0-out;
#X obj 656 370 tgl 15 0 empty empty empty 17 7 0 10 -262144 -1 -1 0
1;
#X obj 656 417 s \$0-out;
#X obj 662 300 tgl 15 0 empty empty empty 17 7 0 10 -262144 -1 -1 0
1;
#X obj 662 347 s \$0-out;
#X msg 687 274 formuls/rearecord0 \$1;
#X msg 664 323 formuls/reaact0 \$1;
#X msg 658 393 formuls/realoop0 \$1;
#X obj 112 221 s \$0-out;
#X obj 112 178 tgl 15 0 empty empty empty 17 7 0 10 -262144 -1 -1 0
1;
#X obj 142 298 s \$0-out;
#X floatatom 142 252 5 0 1 0 - - -;
#X msg 142 274 formuls/durchaos0 \$1;
#X obj 130 389 s \$0-out;
#X floatatom 130 343 5 0 1 0 - - -;
#X msg 130 365 formuls/reachaos0 \$1;
#X obj 137 464 s \$0-out;
#X floatatom 137 418 5 0 1 0 - - -;
#X msg 137 441 formuls/spechaos0 \$1;
#N canvas 0 22 450 300 record 0;
#X obj 106 109 bng 15 250 50 0 empty empty empty 17 7 0 10 -262144
-1 -1;
#X obj 162 109 tgl 15 0 empty empty empty 17 7 0 10 -262144 -1 -1 0
1;
#X obj 105 140 t b b b;
#X msg 151 165 stop;
#X msg 105 218 0;
#X msg 139 219 1;
#X obj 105 244 t a;
#X obj 105 268 outlet;
#X obj 105 194 del 6400;
#X connect 0 0 2 0;
#X connect 2 0 8 0;
#X connect 2 1 5 0;
#X connect 2 2 3 0;
#X connect 3 0 8 0;
#X connect 4 0 6 0;
#X connect 5 0 6 0;
#X connect 6 0 7 0;
#X connect 6 0 1 0;
#X connect 8 0 4 0;
#X coords 0 -1 1 1 85 30 2 100 100;
#X restore 323 76 pd record;
#X obj 472 145 tgl 15 0 empty empty empty 17 7 0 10 -262144 -1 -1 0
1;
#X obj 472 190 s \$0-out;
#N canvas 0 23 521 173 fooperADSR 0;
#X obj 26 91 s \$0-out;
#X obj 135 94 s \$0-out;
#X floatatom 135 48 5 0 1 0 - - -;
#X obj 242 93 s \$0-out;
#X floatatom 242 47 5 0.001 1 0 - - -;
#X obj 357 91 s \$0-out;
#X floatatom 357 45 5 0 1 0 - - -;
#X msg 26 67 formuls/a0 \$1;
#X msg 135 70 formuls/d0 \$1;
#X msg 242 69 formuls/s0 \$1;
#X msg 357 67 formuls/r0 \$1;
#X floatatom 25 44 5 0 1 0 - - -;
#X connect 2 0 8 0;
#X connect 4 0 9 0;
#X connect 6 0 10 0;
#X connect 7 0 0 0;
#X connect 8 0 1 0;
#X connect 9 0 3 0;
#X connect 10 0 5 0;
#X connect 11 0 7 0;
#X restore 392 469 pd fooperADSR;
#X text 378 383 <------------->;
#X text 373 302 <------------->;
#X text 360 225 <------------->;
#X obj 238 306 hradio 15 1 0 4 empty empty empty 0 -8 0 10 -262144
-1 -1 3;
#N canvas 0 22 450 300 s 0;
#X obj 137 44 inlet;
#X obj 134 72 sel 0 1 2 3;
#X msg 137 140 0.125;
#X obj 137 163 outlet;
#X msg 176 114 0.25;
#X msg 226 119 0.5;
#X msg 268 119 1;
#X connect 0 0 1 0;
#X connect 1 0 2 0;
#X connect 1 1 4 0;
#X connect 1 2 5 0;
#X connect 1 3 6 0;
#X connect 2 0 3 0;
#X connect 4 0 3 0;
#X connect 5 0 3 0;
#X connect 6 0 3 0;
#X restore 245 328 pd s;
#X obj 182 225 hradio 15 1 0 8 empty empty empty 0 -8 0 10 -262144
-1 -1 1;
#N canvas 0 22 525 300 s 0;
#X obj 137 44 inlet;
#X obj 299 193 outlet;
#X obj 119 83 sel 0 1 2 3 4 5 6 7;
#X msg 464 106 1;
#X msg 430 107 0.5;
#X msg 396 108 0.25;
#X msg 355 109 0.125;
#X msg 305 111 0.0625;
#X msg 243 110 0.03125;
#X msg 179 111 0.015625;
#X msg 103 113 0.0078125;
#X connect 0 0 2 0;
#X connect 2 0 10 0;
#X connect 2 1 9 0;
#X connect 2 2 8 0;
#X connect 2 3 7 0;
#X connect 2 4 6 0;
#X connect 2 5 5 0;
#X connect 2 6 4 0;
#X connect 2 7 3 0;
#X connect 3 0 1 0;
#X connect 4 0 1 0;
#X connect 5 0 1 0;
#X connect 6 0 1 0;
#X connect 7 0 1 0;
#X connect 8 0 1 0;
#X connect 9 0 1 0;
#X connect 10 0 1 0;
#X restore 189 247 pd s;
#X msg 472 166 formuls/oneshot0 \$1;
#X msg 112 197 formuls-dev/envelopeside0 \$1;
#X connect 0 0 1 0;
#X connect 2 0 4 0;
#X connect 4 0 3 0;
#X connect 6 0 5 0;
#X connect 7 0 6 0;
#X connect 9 0 10 0;
#X connect 10 0 8 0;
#X connect 12 0 13 0;
#X connect 13 0 11 0;
#X connect 15 0 16 0;
#X connect 16 0 14 0;
#X connect 18 0 19 0;
#X connect 19 0 17 0;
#X connect 21 0 22 0;
#X connect 22 0 20 0;
#X connect 24 0 23 0;
#X connect 25 0 31 0;
#X connect 27 0 33 0;
#X connect 29 0 32 0;
#X connect 31 0 26 0;
#X connect 32 0 30 0;
#X connect 33 0 28 0;
#X connect 35 0 57 0;
#X connect 37 0 38 0;
#X connect 38 0 36 0;
#X connect 40 0 41 0;
#X connect 41 0 39 0;
#X connect 43 0 44 0;
#X connect 44 0 42 0;
#X connect 45 0 0 0;
#X connect 46 0 56 0;
#X connect 52 0 53 0;
#X connect 53 0 7 0;
#X connect 54 0 55 0;
#X connect 55 0 12 0;
#X connect 56 0 47 0;
#X connect 57 0 34 0;
#X restore 903 47 pd FOOPER_____;
#X obj 837 645 s formuls-dev;
#X floatatom 1027 204 5 0 0 0 - - -;
#X msg 995 308 150;
#X obj 23 70 specific.message formulsdev op1freq op1 0;
#X obj 23 113 specific.message formulsdev extfeed ext 0;
#X obj 23 156 specific.message formulsdev waveshape w 0;
#X obj 23 203 specific.message formulsdev op1sliderange op1sr 0;
#X obj 23 250 specific.message formulsdev op1slidetime op1st 0;
#X obj 25 298 specific.message formulsdev op2freq op2f 0;
#X obj 25 348 specific.message formulsdev op2depth op2d 0;
#X obj 25 395 specific.message formulsdev noise n 0;
#X obj 25 443 specific.message formulsdev noisefilterfreq nf 0;
#X obj 25 493 specific.message formulsdev attack a 0;
#X obj 25 539 specific.message formulsdev decay d 0;
#X obj 25 583 specific.message formulsdev sustain s 0;
#X obj 25 626 specific.message formulsdev release r 0;
#X obj 25 672 specific.message formulsdev voiceamp v 0;
#X obj 25 717 specific.message formulsdev monophonic m 0;
#X obj 25 760 specific.message formulsdev adsron ao 0;
#X obj 25 802 specific.message formulsdev threshold th 0;
#X obj 401 792 specific.message formulsdev delfeedback df 0;
#X obj 401 742 specific.message formulsdev deltime dt 0;
#X obj 401 699 specific.message formulsdev delsend ds 0;
#X obj 401 652 specific.message formulsdev masteramp ma 0;
#X obj 404 608 specific.message formulsdev panning p 0;
#X obj 402 563 specific.message formulsdev amdepth amd 0;
#X obj 402 520 specific.message formulsdev amfreq amf 0;
#X obj 402 475 specific.message formulsdev amwave amw 0;
#X obj 402 427 specific.message formulsdev filterresonance fr 0;
#X obj 402 384 specific.message formulsdev filtercutoff fc 0;
#X obj 403 340 specific.message formulsdev pitchshift pit 0;
#X obj 403 295 specific.message formulsdev bitcrush bit 0;
#X obj 403 249 specific.message formulsdev saturation sat 0;
#X obj 403 205 specific.message formulsdev envelopeside er 0;
#X obj 403 162 specific.message formulsdev envelopedepth er 0;
#X obj 403 112 specific.message formulsdev enveloperelease er 0;
#X obj 397 61 specific.message formulsdev triggerx tr 0;
#X obj 866 567 s formulsdev;
#N canvas 559 297 744 551 AUDIO_PROCESSING 0;
#X obj 66 489 writesf~ 2;
#X msg 69 409 start;
#X msg 78 431 stop;
#X msg 82 453 open test2.wav;
#X obj 411 89 bng 15 250 50 0 empty empty empty 17 7 0 10 -262144 -1
-1;
#X floatatom 599 335 5 0 0 0 - - -;
#X floatatom 543 340 5 0 100 0 - - -;
#X floatatom 656 301 5 0 0 0 - - -;
#X obj 327 380 s~ rev;
#X obj 482 340 *~;
#X obj 512 316 *~;
#X obj 512 241 tgl 15 0 empty empty freeze 17 7 0 10 -262144 -1 -1
0 1;
#X obj 510 342 *~;
#X obj 512 268 == 0;
#X obj 604 253 sel 0 1;
#X msg 612 308 20;
#X msg 674 274 0;
#X msg 662 251 100;
#X msg 600 285 95;
#X obj 512 292 lop~ 200;
#X obj 413 138 line~;
#X obj 413 162 *~;
#X obj 172 492 dac~ 1 2;
#X obj 298 132 *~ 1;
#X obj 298 109 osc~ 1;
#X obj 298 155 +~ 0.4;
#X obj 26 153 r~ rev;
#X obj 297 202 *~ 1;
#X obj 297 179 phasor~ 0.4;
#X obj 394 35 inlet;
#X obj 131 66 inlet;
#X msg 413 114 1 \, 0 1000;
#X obj 484 367 rev3~ 93 90 3000 20;
#X obj 395 305 print;
#X obj 171 241 faustgen~ formulsdev, f 34;
#X msg 512 142 formulsdev/waveshapeO0;
#X obj 185 119 r formulsdev;
#X connect 1 0 0 0;
#X connect 2 0 0 0;
#X connect 3 0 0 0;
#X connect 4 0 31 0;
#X connect 5 0 32 3;
#X connect 6 0 32 2;
#X connect 7 0 32 5;
#X connect 9 0 32 0;
#X connect 10 0 9 1;
#X connect 10 0 12 1;
#X connect 11 0 13 0;
#X connect 11 0 14 0;
#X connect 12 0 32 1;
#X connect 13 0 19 0;
#X connect 14 0 18 0;
#X connect 14 0 15 0;
#X connect 14 1 17 0;
#X connect 14 1 16 0;
#X connect 15 0 7 0;
#X connect 16 0 7 0;
#X connect 17 0 5 0;
#X connect 18 0 5 0;
#X connect 19 0 10 0;
#X connect 19 0 10 1;
#X connect 20 0 21 0;
#X connect 20 0 21 1;
#X connect 21 0 34 2;
#X connect 23 0 25 0;
#X connect 24 0 23 0;
#X connect 25 0 28 0;
#X connect 26 0 34 0;
#X connect 27 0 34 1;
#X connect 28 0 27 0;
#X connect 29 0 4 0;
#X connect 30 0 34 0;
#X connect 31 0 20 0;
#X connect 32 0 22 0;
#X connect 32 1 22 1;
#X connect 34 0 0 0;
#X connect 34 0 8 0;
#X connect 34 0 22 0;
#X connect 34 1 0 1;
#X connect 34 1 8 0;
#X connect 34 1 22 1;
#X connect 34 2 33 0;
#X connect 35 0 34 0;
#X connect 36 0 34 0;
#X restore 943 511 pd AUDIO_PROCESSING;
#X msg 943 486 compile;
#X msg 866 545 formulsdev/trigx0 \$1;
#X floatatom 834 593 5 0 0 0 - - -;
#X msg 836 621 formulsdev/tempo0 \$1;
#X connect 0 0 37 0;
#X connect 1 0 70 0;
#X connect 2 0 9 0;
#X connect 2 1 10 0;
#X connect 2 1 19 0;
#X connect 2 2 12 0;
#X connect 3 0 31 0;
#X connect 4 0 13 0;
#X connect 5 0 15 0;
#X connect 6 0 14 0;
#X connect 7 0 6 0;
#X connect 8 0 74 0;
#X connect 9 0 11 0;
#X connect 10 0 3 0;
#X connect 11 0 3 0;
#X connect 12 0 0 0;
#X connect 13 0 7 0;
#X connect 13 0 15 0;
#X connect 13 0 26 0;
#X connect 14 0 13 1;
#X connect 14 0 30 0;
#X connect 15 0 16 0;
#X connect 16 0 18 0;
#X connect 17 0 15 1;
#X connect 18 0 2 0;
#X connect 19 0 20 0;
#X connect 20 0 21 0;
#X connect 21 0 23 0;
#X connect 21 1 24 0;
#X connect 21 2 72 1;
#X connect 22 0 8 0;
#X connect 23 0 25 0;
#X connect 24 0 22 0;
#X connect 25 0 22 0;
#X connect 26 0 27 0;
#X connect 27 0 29 0;
#X connect 27 1 36 0;
#X connect 28 0 18 1;
#X connect 28 0 16 1;
#X connect 29 0 28 0;
#X connect 31 0 1 0;
#X connect 32 0 31 1;
#X connect 35 0 14 1;
#X connect 36 0 28 0;
#X connect 73 0 72 0;
#X connect 74 0 71 0;
#X connect 75 0 76 0;
#X connect 76 0 34 0;
