#N canvas 188 263 351 500 10;
#N canvas 500 297 642 340 PITCH 0;
#X floatatom 275 105 5 0 12 0 - - -;
#X floatatom 173 104 5 0 0 0 - - -;
#X floatatom 70 105 5 0 0 0 - - -;
#N canvas 523 65 558 806 PITCHGAMUT 0;
#X obj 52 113 t b a;
#X msg 108 71 1 1 \, 3 1 \, 4 1 \, 8 1 \, 9 1;
#X obj 79 140 unpack f f;
#X obj 79 202 f;
#X obj 79 182 t b f;
#X obj 52 326 until;
#X obj 52 426 list store;
#X obj 52 351 f;
#X obj 79 351 + 1;
#X msg 79 299 0;
#X msg 52 404 get \$1 1;
#X obj 52 381 t f f;
#X obj 52 475 f;
#X obj 52 447 sel 1;
#X obj 52 275 t b b l b, f 12;
#X obj 51 550 list;
#X obj 120 460 del 1;
#X obj 52 500 list prepend;
#X obj 52 521 t a a;
#X obj 151 754 outlet index;
#X obj 51 755 outlet value;
#X obj 253 755 outlet length;
#X obj 151 702 i;
#X obj 179 702 + 1;
#X msg 169 675 0;
#X obj 51 600 list;
#X obj 51 631 list split 1;
#X obj 270 673 list length;
#X obj 52 13 inlet;
#X obj 51 574 t a a b;
#X obj 253 697 t b;
#X obj 253 724 f;
#X obj 91 658 t b b a;
#X obj 108 14 inlet;
#X obj 79 225 array set \$0-master-pitch-gamut;
#X obj 289 225 array define \$0-master-pitch-gamut 12;
#X obj 52 250 array get \$0-master-pitch-gamut;
#X obj 79 160 f;
#X obj 91 687 del 5;
#X connect 0 0 36 0;
#X connect 0 1 2 0;
#X connect 1 0 0 0;
#X connect 2 0 37 0;
#X connect 2 1 3 1;
#X connect 3 0 34 0;
#X connect 4 0 3 0;
#X connect 4 1 34 1;
#X connect 5 0 7 0;
#X connect 6 0 13 0;
#X connect 6 1 5 1;
#X connect 6 1 16 0;
#X connect 7 0 8 0;
#X connect 7 0 11 0;
#X connect 8 0 7 1;
#X connect 9 0 7 1;
#X connect 10 0 6 0;
#X connect 11 0 10 0;
#X connect 11 1 12 1;
#X connect 12 0 17 0;
#X connect 13 0 12 0;
#X connect 14 0 5 0;
#X connect 14 1 9 0;
#X connect 14 2 6 1;
#X connect 14 3 17 1;
#X connect 15 0 29 0;
#X connect 16 0 15 0;
#X connect 17 0 18 0;
#X connect 18 0 15 1;
#X connect 18 1 17 1;
#X connect 22 0 23 0;
#X connect 22 0 19 0;
#X connect 23 0 22 1;
#X connect 24 0 22 1;
#X connect 25 0 26 0;
#X connect 26 0 20 0;
#X connect 26 1 32 0;
#X connect 26 2 30 0;
#X connect 27 0 31 1;
#X connect 28 0 0 0;
#X connect 29 0 25 0;
#X connect 29 1 27 0;
#X connect 29 2 24 0;
#X connect 30 0 31 0;
#X connect 31 0 21 0;
#X connect 32 0 38 0;
#X connect 32 1 22 0;
#X connect 32 2 25 1;
#X connect 33 0 1 0;
#X connect 36 0 14 0;
#X connect 37 0 4 0;
#X connect 38 0 25 0;
#X restore 70 76 pd PITCHGAMUT;
#X obj 146 10 inlet;
#X obj 70 55 r masterpitchgamut;
#X obj 72 148 specific.message fsynth scalevalue tr \$1;
#X obj 180 207 specific.message fsynth scalewrite tr \$1;
#X obj 287 269 specific.message fsynth scalelength tr \$1;
#X obj 267 62 pack f f;
#X obj 267 83 print;
#X connect 0 0 8 0;
#X connect 1 0 7 0;
#X connect 2 0 6 0;
#X connect 3 0 2 0;
#X connect 3 0 9 0;
#X connect 3 1 1 0;
#X connect 3 1 9 1;
#X connect 3 2 0 0;
#X connect 4 0 3 1;
#X connect 5 0 3 0;
#X connect 9 0 10 0;
#X restore 158 283 pd PITCH;
#X obj 158 264 bng 15 250 50 0 empty empty empty 17 7 0 10 -262144
-1 -1;
#X obj 21 320 r \$0-OSC-collect-\$1;
#X obj 21 343 oscparse;
#X obj 21 409 s formuls\$1;
#N canvas 78 433 450 300 list-manipulate 0;
#X obj 174 119 inlet;
#X obj 174 165 outlet;
#X msg 174 142 /\$1/\$2 \$3;
#X connect 0 0 2 0;
#X connect 2 0 1 0;
#X restore 21 365 pd list-manipulate;
#N canvas 0 23 701 439 ADSR_VEL_TRIG___ 0;
#X obj 37 17 inlet;
#X obj 464 404 outlet;
#X obj 37 60 route adsron\$1 attack\$1 attackchaos\$1 decay\$1 decaychaos\$1
sustain\$1 sustainchaos\$1 release\$1 releasechaos\$1 monophonic\$1
velocity\$1 velocitychaos\$1 threshold\$1 thresholdchaos\$1 triggerx\$1
;
#X obj 37 332 specific.oscformat \$0 \$1 fsynth adsron -;
#X obj 60 308 specific.oscformat \$0 \$1 fsynth attack a;
#X obj 106 283 specific.oscformat \$0 \$1 fsynth decay d;
#X obj 153 260 specific.oscformat \$0 \$1 fsynth sustain s;
#X obj 198 237 specific.oscformat \$0 \$1 fsynth release r;
#X obj 244 213 specific.oscformat \$0 \$1 fsynth monophonic -;
#X obj 268 191 specific.oscformat \$0 \$1 fsynth velocity v;
#X obj 313 169 specific.oscformat \$0 \$1 fsynth threshold th;
#X obj 359 146 specific.oscformat \$0 \$1 fsynth triggerx -;
#X obj 37 122 t a a;
#X obj 64 142 == 0;
#X connect 0 0 2 0;
#X connect 2 0 12 0;
#X connect 2 1 4 0;
#X connect 2 2 4 1;
#X connect 2 3 5 0;
#X connect 2 4 5 1;
#X connect 2 5 6 0;
#X connect 2 6 6 1;
#X connect 2 7 7 0;
#X connect 2 8 7 1;
#X connect 2 9 8 0;
#X connect 2 10 9 0;
#X connect 2 11 9 1;
#X connect 2 12 10 0;
#X connect 2 13 10 1;
#X connect 2 14 11 0;
#X connect 2 15 1 0;
#X connect 12 0 3 0;
#X connect 12 1 13 0;
#X connect 13 0 8 0;
#X restore 22 87 pd ADSR_VEL_TRIG___;
#N canvas 119 225 557 450 SEQ_____________ 0;
#X obj 37 37 inlet;
#X obj 36 218 unpack f f;
#X msg 36 189 \$2 \$1;
#X obj 390 375 outlet;
#N canvas 469 50 1420 818 SEQUENCER___________ 0;
#X obj 18 10 inlet;
#X msg 19 205 \$1;
#X obj 1310 712 outlet;
#X obj 1230 40 r \$0-reset;
#X obj 636 471 pow 2.7;
#X obj 636 492 * 100;
#X obj 1155 289 s \$0-seq-trigger;
#X obj 1155 249 change;
#X msg 19 314 timebase \$1;
#X obj 19 335 s \$0-seq-messages;
#X msg 797 141 seqinvert \$1;
#X obj 797 162 s \$0-seq-messages;
#X msg 636 513 delay \$1;
#X obj 636 534 s \$0-seq-messages;
#X msg 746 348 warp \$1;
#X obj 746 369 s \$0-seq-messages;
#X msg 800 283 beatsync \$1;
#X obj 800 304 s \$0-seq-messages;
#X msg 633 742 euclid \$1;
#X obj 633 763 s \$0-seq-messages;
#X msg 734 679 euclidoffset \$1;
#X obj 734 700 s \$0-seq-messages;
#X msg 835 617 euclidsteps \$1;
#X obj 835 638 s \$0-seq-messages;
#X msg 1230 62 reset bang;
#X obj 1230 83 s \$0-seq-messages;
#X obj 1155 269 sel 0;
#X obj 1155 229 spigot;
#X obj 1188 209 r \$0-seq-on;
#X text 75 22 All controlled in Pd;
#X msg 687 411 swing \$1;
#X obj 687 432 s \$0-seq-messages;
#X msg 18 416 \$1;
#X msg 317 415 \$1;
#X obj 18 539 t b f;
#X obj 18 563 f 1;
#X obj 18 585 -;
#X obj 18 607 i;
#X msg 18 627 seqlength \$1;
#X obj 18 648 s \$0-seq-messages;
#X obj 18 142 s \$0-seq-messages;
#X obj 18 435 / 8;
#X obj 18 472 * 8;
#X obj 317 436 / 8;
#X obj 317 485 * 64;
#X obj 24 76 tgl 15 0 empty empty empty 17 7 0 10 -262144 -1 -1 0 1
;
#X msg 18 121 seqon \$1;
#X msg 302 222 \$1;
#X msg 302 346 timebasemultiplier \$1;
#X obj 302 367 s \$0-seq-messages;
#X obj 302 243 / 5;
#X obj 302 326 i;
#X obj 302 306 + 1;
#X obj 302 285 * 4;
#X obj 639 92 route seqrandomdrop\$1 seq-inv\$1;
#X obj 636 236 route seqdelay\$1 seqswing\$1 seqwarp\$1 async\$1;
#X obj 633 575 route seq-euclid\$1 seq-euclid-offset\$1 seq-euclid-steps\$1
;
#X obj 1031 151 route seq-time-base-multiplier seq-trigger\$1;
#X obj 17 42 route seqon\$1 seqtimebase\$1 seqtimebasemultiplier\$1
seqlengthx\$1 seqlengthy\$1;
#X obj 19 226 / 8;
#X obj 19 268 * 8;
#X obj 19 293 i;
#X msg 18 494 8 \$1;
#X obj 18 516 -;
#X obj 19 183 specific.oscformat \$0 \$1 fsynth seqtimebase -;
#X obj 18 394 specific.oscformat \$0 \$1 fsynth seqlengthx\$1;
#X obj 318 393 specific.oscformat \$0 \$1 fsynth seqlengthy\$1;
#X obj 302 200 specific.oscformat \$0 \$1 fsynth seqtimebasemultiplier\$1
;
#X obj 719 186 specific.oscformat \$0 \$1 fsynth seqrandomdrop srd
;
#X obj 18 98 specific.automater \$0 \$0-seq-on 0 0;
#X obj 19 247 specific.automater \$0 \$0-seq-time-base 0;
#X obj 18 454 specific.automater \$0 \$0-seq-length-x 1 1;
#X obj 317 457 specific.automater \$0 \$0-seq-length-y 1 1;
#X obj 302 266 specific.automater \$0 \$0-seq-time-base-multiplier
0 0;
#X obj 633 721 specific.automater \$0 \$0-seq-euclid;
#X obj 734 658 specific.automater \$0 \$0-seq-euclid-offset;
#X obj 835 596 specific.automater \$0 \$0-seq-euclid-steps;
#X obj 1155 180 specific.automater \$0 \$0-seq-trigger 0 1;
#X obj 798 120 specific.automater \$0 \$0-seq-inv;
#X obj 800 262 specific.automater \$0 \$0-async;
#X obj 746 327 specific.automater \$0 \$0-seq-warp;
#X obj 687 389 specific.automater \$0 \$0-seq-swing;
#X obj 636 450 specific.automater \$0 \$0-seq-delay;
#X connect 0 0 58 0;
#X connect 1 0 59 0;
#X connect 3 0 24 0;
#X connect 4 0 5 0;
#X connect 5 0 12 0;
#X connect 7 0 26 0;
#X connect 8 0 9 0;
#X connect 10 0 11 0;
#X connect 12 0 13 0;
#X connect 14 0 15 0;
#X connect 16 0 17 0;
#X connect 18 0 19 0;
#X connect 20 0 21 0;
#X connect 22 0 23 0;
#X connect 24 0 25 0;
#X connect 26 1 6 0;
#X connect 27 0 7 0;
#X connect 28 0 27 1;
#X connect 30 0 31 0;
#X connect 32 0 41 0;
#X connect 33 0 43 0;
#X connect 34 0 35 0;
#X connect 34 1 36 1;
#X connect 35 0 36 0;
#X connect 36 0 37 0;
#X connect 37 0 38 0;
#X connect 38 0 39 0;
#X connect 41 0 71 0;
#X connect 42 0 62 0;
#X connect 43 0 72 0;
#X connect 44 0 35 0;
#X connect 45 0 69 0;
#X connect 46 0 40 0;
#X connect 47 0 50 0;
#X connect 48 0 49 0;
#X connect 50 0 73 0;
#X connect 51 0 48 0;
#X connect 52 0 51 0;
#X connect 53 0 52 0;
#X connect 54 0 68 0;
#X connect 54 1 78 0;
#X connect 54 2 55 0;
#X connect 55 0 82 0;
#X connect 55 1 81 0;
#X connect 55 2 80 0;
#X connect 55 3 79 0;
#X connect 55 4 56 0;
#X connect 56 0 74 0;
#X connect 56 1 75 0;
#X connect 56 2 76 0;
#X connect 56 3 57 0;
#X connect 57 1 77 0;
#X connect 57 2 2 0;
#X connect 58 0 69 0;
#X connect 58 1 64 0;
#X connect 58 2 67 0;
#X connect 58 3 65 0;
#X connect 58 4 66 0;
#X connect 58 5 54 0;
#X connect 59 0 70 0;
#X connect 60 0 61 0;
#X connect 61 0 8 0;
#X connect 62 0 63 0;
#X connect 63 0 34 0;
#X connect 64 0 1 0;
#X connect 65 0 32 0;
#X connect 66 0 33 0;
#X connect 67 0 47 0;
#X connect 69 0 46 0;
#X connect 70 0 60 0;
#X connect 71 0 42 0;
#X connect 72 0 44 0;
#X connect 73 0 53 0;
#X connect 74 0 18 0;
#X connect 75 0 20 0;
#X connect 76 0 22 0;
#X connect 77 0 27 0;
#X connect 78 0 10 0;
#X connect 79 0 16 0;
#X connect 80 0 14 0;
#X connect 81 0 30 0;
#X connect 82 0 4 0;
#X restore 389 292 pd SEQUENCER___________;
#X obj 36 60 route seqwrite\$1 seqrandomadd\$1 seqrandomaddchaos\$1
;
#X obj 36 166 specific.matrixunpack;
#X obj 138 126 specific.oscformat \$0 \$1 fsynth seqrandomadd sra;
#X obj 93 244 specific.oscformat \$0 \$1 fsynth seqwrite -;
#X obj 36 271 specific.oscformat \$0 \$1 fsynth seqvalue -;
#X connect 0 0 5 0;
#X connect 1 0 9 0;
#X connect 1 1 8 0;
#X connect 2 0 1 0;
#X connect 4 0 3 0;
#X connect 5 0 6 0;
#X connect 5 1 7 0;
#X connect 5 2 7 1;
#X connect 5 3 4 0;
#X connect 6 0 2 0;
#X restore 22 109 pd SEQ_____________;
#N canvas 375 459 1406 517 FX______________ 0;
#X obj 17 27 inlet;
#X obj 670 69 route filtercutoff\$1 filtercutoffchaos\$1 filterresonance\$1
filterresonancechaos\$1;
#X obj 103 233 route delaysend\$1 delaysendchaos\$1 delaytime\$1 delaytimechaos\$1
delayfeedback\$1 delayfeedbackchaos\$1;
#X obj 1338 454 outlet;
#X obj 379 75 route pitchshift\$1 pitchshiftchaos\$1;
#X obj 17 60 route saturation\$1 saturationchaos\$1 bitcrush\$1 bitcrushchaos\$1
bitcrushwetdry\$1 bitcrushwetdrychaos\$1;
#X obj 17 146 specific.oscformat \$0 \$1 ffx saturation sat;
#X obj 27 126 specific.oscformat \$0 \$1 ffx bitcrush bit;
#X obj 67 106 specific.oscformat \$0 \$1 ffx bitcrushwetdry bitwd;
#X obj 680 116 specific.oscformat \$0 \$1 ffx filterresonance fr;
#X obj 670 135 specific.oscformat \$0 \$1 ffx filtercutoff fc;
#X obj 153 279 specific.oscformat \$0 \$1 ffx delayfeedback df;
#X obj 113 299 specific.oscformat \$0 \$1 ffx delaytime dt;
#X obj 103 319 specific.oscformat \$0 \$1 ffx delaysend ds;
#X obj 852 230 route gatethresh\$1 gatethreshchaos\$1 gateattack\$1
gateattackchaos\$1 gatehold\$1 gateholdchaos\$1 gaterelease\$1 gatereleasechaos\$1
;
#X obj 852 347 specific.oscformat \$0 \$1 ffx gatethresh gt;
#X obj 862 326 specific.oscformat \$0 \$1 ffx gateattack ga;
#X obj 902 306 specific.oscformat \$0 \$1 ffx gatehold gh;
#X obj 972 286 specific.oscformat \$0 \$1 ffx gaterelease gr;
#X obj 440 305 unpack f f;
#X obj 509 305 unpack f f;
#X obj 440 232 route amfreqdepth\$1 amfreqdepthchaos\$1 amwave\$1 amwavechaos\$1
;
#X obj 671 399 s formuls\$1;
#X obj 671 377 oscformat amact\$1;
#X obj 579 279 specific.oscformat \$0 \$1 ffx amwave amw 4;
#N canvas 785 321 530 512 AM_QUANTISE 0;
#X floatatom 294 58 5 0 0 0 - - -;
#X text 385 90 bpm to hz;
#X text 383 157 99.9 + 0.1;
#X obj 294 105 /;
#X floatatom 294 129 5 0 0 0 - - -;
#X obj 294 177 /;
#X floatatom 294 201 5 0 0 0 - - -;
#X msg 294 81 60 \$1;
#X msg 294 153 0.5 \$1;
#X obj 282 281 *;
#X obj 282 255 f;
#X obj 294 224 t b f;
#X obj 147 152 sel 0 1 2 3;
#X msg 147 188 1;
#X msg 179 188 2;
#X msg 212 188 4;
#X msg 244 188 8;
#X obj 147 229 t a;
#X msg 335 270 1 3.1;
#X obj 335 294 /;
#X obj 305 345 pow;
#X floatatom 335 318 5 0 0 0 - - -;
#X floatatom 305 373 5 0 0 0 - - -;
#X obj 288 308 / 100;
#X text 31 32 from interface (0-1 / number_of_steps);
#X obj 35 9 inlet;
#X obj 148 112 * 4;
#X obj 148 133 int;
#X obj 294 32 r bpmglobal;
#X obj 338 247 loadbang;
#X obj 232 429 oscformat ffx amfreq;
#X obj 232 450 s \$0-OSC-collect-1;
#X obj 148 66 r evenglobal;
#X obj 35 90 specific.switch;
#X connect 0 0 7 0;
#X connect 3 0 4 0;
#X connect 4 0 8 0;
#X connect 5 0 6 0;
#X connect 6 0 11 0;
#X connect 7 0 3 0;
#X connect 8 0 5 0;
#X connect 9 0 23 0;
#X connect 10 0 9 0;
#X connect 11 0 10 0;
#X connect 11 1 9 1;
#X connect 12 0 13 0;
#X connect 12 1 14 0;
#X connect 12 2 15 0;
#X connect 12 3 16 0;
#X connect 13 0 17 0;
#X connect 14 0 17 0;
#X connect 15 0 17 0;
#X connect 16 0 17 0;
#X connect 17 0 10 0;
#X connect 18 0 19 0;
#X connect 19 0 21 0;
#X connect 20 0 22 0;
#X connect 21 0 20 1;
#X connect 22 0 30 0;
#X connect 23 0 20 0;
#X connect 25 0 33 0;
#X connect 26 0 27 0;
#X connect 27 0 12 0;
#X connect 28 0 0 0;
#X connect 29 0 18 0;
#X connect 30 0 31 0;
#X connect 32 0 33 1;
#X connect 33 0 30 0;
#X connect 33 1 26 0;
#X restore 440 377 pd AM_QUANTISE;
#X obj 440 351 specific.oscformat \$0 \$1 ffx amfreq amf 0 1;
#X obj 508 329 specific.oscformat \$0 \$1 ffx amdepth amd 0;
#X obj 1212 100 route fxpostpre\$1;
#X obj 1214 126 s fx-routing-\$1;
#X obj 379 103 specific.oscformat \$0 \$1 ffx pitchshift pit 4;
#X connect 0 0 5 0;
#X connect 1 0 10 0;
#X connect 1 1 10 1;
#X connect 1 2 9 0;
#X connect 1 3 9 1;
#X connect 1 4 2 0;
#X connect 2 0 13 0;
#X connect 2 1 13 1;
#X connect 2 2 12 0;
#X connect 2 3 12 1;
#X connect 2 4 11 0;
#X connect 2 5 11 1;
#X connect 2 6 21 0;
#X connect 4 0 30 0;
#X connect 4 1 30 1;
#X connect 4 2 1 0;
#X connect 5 0 6 0;
#X connect 5 1 6 1;
#X connect 5 2 7 0;
#X connect 5 3 7 1;
#X connect 5 4 8 0;
#X connect 5 5 8 1;
#X connect 5 6 4 0;
#X connect 14 0 15 0;
#X connect 14 1 15 1;
#X connect 14 2 16 0;
#X connect 14 3 16 1;
#X connect 14 4 17 0;
#X connect 14 5 17 1;
#X connect 14 6 18 0;
#X connect 14 7 18 1;
#X connect 14 8 28 0;
#X connect 19 0 26 0;
#X connect 19 1 27 0;
#X connect 20 0 26 1;
#X connect 20 1 27 1;
#X connect 21 0 19 0;
#X connect 21 1 20 0;
#X connect 21 2 24 0;
#X connect 21 3 24 1;
#X connect 21 4 14 0;
#X connect 23 0 22 0;
#X connect 26 0 25 0;
#X connect 26 3 23 0;
#X connect 27 3 23 0;
#X connect 28 0 29 0;
#X connect 28 1 3 0;
#X restore 22 131 pd FX______________;
#N canvas 0 23 802 342 ENV_MASTER_PAN__ 0;
#X obj 37 37 inlet;
#X obj 37 76 route enveloperelease\$1 envelopereleasechaos\$1 envelopedepth\$1
envelopedepthchaos\$1 envelopeside\$1;
#X obj 672 300 outlet;
#X obj 37 192 specific.oscformat \$0 \$1 fmix enveloperelease er;
#X obj 47 162 specific.oscformat \$0 \$1 fmix envelopedepth ed;
#X obj 86 132 specific.oscformat \$0 \$1 fmix envelopeside es;
#X obj 372 296 specific.oscformat \$0 \$1 fmix panning p;
#X obj 526 100 specific.oscformat \$0 \$1 fmix volume -;
#X obj 372 73 route panning\$1 panningchaos\$1 volume\$1;
#X obj 526 120 > 0;
#X obj 526 161 moses 1;
#X obj 526 182 pipe 10;
#X obj 526 203 t a;
#X msg 526 224 active \$1;
#X obj 581 175 loadbang;
#X msg 581 196 0;
#X obj 526 245 s formuls\$1;
#X obj 526 141 change;
#X obj 573 142 s \$0-volume;
#X connect 0 0 1 0;
#X connect 1 0 3 0;
#X connect 1 1 3 1;
#X connect 1 2 4 0;
#X connect 1 3 4 1;
#X connect 1 4 5 0;
#X connect 1 5 8 0;
#X connect 7 0 9 0;
#X connect 8 0 6 0;
#X connect 8 1 6 1;
#X connect 8 2 7 0;
#X connect 8 3 2 0;
#X connect 9 0 17 0;
#X connect 9 0 18 0;
#X connect 10 0 11 0;
#X connect 10 1 12 0;
#X connect 11 0 12 0;
#X connect 12 0 13 0;
#X connect 13 0 16 0;
#X connect 14 0 15 0;
#X connect 15 0 13 0;
#X connect 17 0 10 0;
#X restore 22 153 pd ENV_MASTER_PAN__;
#N canvas 0 320 955 436 GEN_EUC_________ 0;
#X obj 37 38 inlet;
#X obj 37 76 route genrange\$1 genrangechaos\$1 genstepsize\$1 genstepsizechaos\$1
gendirection\$1 gendirectionchaos\$1 genrepeat\$1 genrepeatchaos\$1
genon\$1;
#X obj 471 85 route euclidon\$1 euclidbeats\$1 euclidbar\$1 euclidoffset\$1
;
#X obj 863 370 outlet;
#X obj 540 172 * 2;
#X obj 38 292 specific.oscformat \$0 \$1 fsynth genrange gr;
#X obj 47 262 specific.oscformat \$0 \$1 fsynth genstepsize gs;
#X obj 87 232 specific.oscformat \$0 \$1 fsynth gendirection gd;
#X obj 156 201 specific.oscformat \$0 \$1 fsynth genrepeat gr;
#X obj 206 172 specific.oscformat \$0 \$1 fsynth genon -;
#X obj 471 237 specific.oscformat \$0 \$1 fsynth euclidon -;
#X obj 491 208 specific.oscformat \$0 \$1 fsynth euclidbeats -;
#X obj 541 148 specific.oscformat \$0 \$1 fsynth euclidbar -;
#X obj 640 118 specific.oscformat \$0 \$1 fsynth euclidoffset -;
#X connect 0 0 1 0;
#X connect 1 0 5 0;
#X connect 1 1 5 1;
#X connect 1 2 6 0;
#X connect 1 3 6 1;
#X connect 1 4 7 0;
#X connect 1 5 7 1;
#X connect 1 6 8 0;
#X connect 1 7 8 1;
#X connect 1 8 9 0;
#X connect 1 9 2 0;
#X connect 2 0 10 0;
#X connect 2 1 11 0;
#X connect 2 2 12 0;
#X connect 2 3 13 0;
#X connect 2 4 3 0;
#X connect 12 0 4 0;
#X restore 22 175 pd GEN_EUC_________;
#X obj 22 43 r o-s-c-messages;
#X obj 32 474 outlet;
#X obj 32 456 r formuls\$1;
#N canvas 25 90 449 455 MOD_INPUT_______ 0;
#X obj 41 12 inlet;
#X obj 43 264 specific.modparse 1;
#X obj 64 241 specific.modparse 2;
#X obj 41 56 route f1 f2 f3 f4 f5 f6 f7 f8;
#X obj 101 219 specific.modparse 3;
#X obj 122 196 specific.modparse 4;
#X obj 146 174 specific.modparse 5;
#X obj 167 151 specific.modparse 6;
#X obj 204 129 specific.modparse 7;
#X obj 225 106 specific.modparse 8;
#X obj 270 348 t a;
#X obj 392 418 outlet;
#X obj 41 33 route modularinput\$1;
#X obj 270 369 s \$0-mod-routing;
#X connect 0 0 12 0;
#X connect 1 0 10 0;
#X connect 2 0 10 0;
#X connect 3 0 1 0;
#X connect 3 1 2 0;
#X connect 3 2 4 0;
#X connect 3 3 5 0;
#X connect 3 4 6 0;
#X connect 3 5 7 0;
#X connect 3 6 8 0;
#X connect 3 7 9 0;
#X connect 4 0 10 0;
#X connect 5 0 10 0;
#X connect 6 0 10 0;
#X connect 7 0 10 0;
#X connect 8 0 10 0;
#X connect 9 0 10 0;
#X connect 10 0 13 0;
#X connect 12 0 3 0;
#X connect 12 1 11 0;
#X restore 22 195 pd MOD_INPUT_______;
#X obj 144 455 r \$0-mod-routing;
#X obj 144 476 outlet;
#N canvas 59 28 1273 855 UI_OLD__________ 0;
#X floatatom 23 38 5 0 0 0 - - -;
#X obj 24 16 r \$0-op1f-;
#X obj 23 60 specific.message formuls op1freq op1f \$1;
#X obj 23 103 specific.message formuls extfeed ext \$1;
#X obj 23 146 specific.message formuls waveshape w \$1;
#X obj 23 193 specific.message formuls op1sliderange op1sr \$1;
#X obj 23 240 specific.message formuls op1slidetime op1st \$1;
#X obj 25 288 specific.message formuls op2freq op2f \$1;
#X obj 25 338 specific.message formuls op2depth op2d \$1;
#X obj 25 433 specific.message formuls noisefilterfreq nf \$1;
#X obj 24 385 specific.message formuls noise n \$1;
#X obj 25 483 specific.message formuls attack a \$1;
#X obj 25 528 specific.message formuls decay d \$1;
#X obj 25 573 specific.message formuls sustain s \$1;
#X obj 25 616 specific.message formuls release r \$1;
#X obj 26 658 specific.message formuls monophonic m \$1;
#X obj 26 700 specific.message formuls adsron ao \$1;
#X obj 26 742 specific.message formuls velocity v \$1;
#X obj 25 792 specific.message formuls threshold th \$1;
#X obj 382 715 specific.message formuls amwave amw \$1;
#X obj 382 760 specific.message formuls amfreq amf \$1;
#X obj 381 802 specific.message formuls amdepth amd \$1;
#X obj 718 42 specific.message formuls seqwrite tr \$1;
#X obj 719 87 specific.message formuls seqvalue tr \$1;
#X obj 390 485 specific.message formuls saturation sat \$1;
#X obj 389 531 specific.message formuls bitcrush bit \$1;
#X obj 389 575 specific.message formuls pitchshift pit \$1;
#X obj 388 620 specific.message formuls filtercutoff fc \$1;
#X obj 388 663 specific.message formuls filterresonance fr \$1;
#X obj 748 499 specific.message formuls delsend ds \$1;
#X obj 748 542 specific.message formuls deltime dt \$1;
#X obj 748 592 specific.message formuls delfeedback df \$1;
#X obj 427 259 specific.message formuls enveloperelease er \$1;
#X obj 427 309 specific.message formuls envelopedepth er \$1;
#X obj 427 352 specific.message formuls envelopeside er \$1;
#X obj 745 722 specific.message formuls masteramp ma \$1;
#X floatatom 367 61 5 0 64 0 - - -;
#X floatatom 366 127 5 0 0 0 - - -;
#X obj 408 16 specific.message formuls euclidon tr \$1;
#X obj 408 67 specific.message formuls euclidbeats tr \$1;
#X obj 407 109 specific.message formuls euclidbar tr \$1;
#X obj 408 152 specific.message formuls euclidoffset tr \$1;
#X obj 760 182 specific.message formuls genstepsize tr \$1;
#X obj 760 232 specific.message formuls gendirection tr \$1;
#X obj 760 277 specific.message formuls genrepeat tr \$1;
#X obj 367 170 * 2;
#X obj 761 321 specific.message formuls genon tr \$1;
#X obj 377 214 specific.message formuls seqrandomadd tr \$1;
#X obj 760 132 specific.message formuls genrange tr \$1;
#X obj 791 428 specific.message formuls triggerx tr \$1;
#N canvas 0 23 559 607 chord 0;
#X obj 103 123 bng 15 250 50 0 empty empty empty 17 7 0 10 -262144
-1 -1;
#X floatatom 121 121 5 1 8 1 chord_size - -;
#X obj 361 576 outlet;
#X obj 163 295 del 2;
#X msg 163 318 0;
#X msg 209 299 1;
#X obj 209 363 t f;
#X obj 163 340 t b f;
#X obj 163 429 i;
#X obj 192 429 + 1;
#X msg 181 407 0;
#X obj 163 249 t b b;
#X obj 163 272 t b b;
#X obj 108 205 r \$0-recursion;
#X obj 122 147 s \$0-chord-size;
#X obj 103 169 s \$0-chord-trig;
#X obj 163 227 r \$0-chord-trig;
#X obj 209 452 r \$0-chord-size;
#X obj 163 496 moses 0;
#X obj 209 475 - 1;
#X obj 163 522 t b;
#X obj 163 545 del 1;
#X obj 163 568 s \$0-recursion;
#X connect 0 0 15 0;
#X connect 1 0 14 0;
#X connect 3 0 4 0;
#X connect 4 0 7 0;
#X connect 5 0 6 0;
#X connect 6 0 2 0;
#X connect 7 0 8 0;
#X connect 7 1 6 0;
#X connect 8 0 9 0;
#X connect 8 0 18 0;
#X connect 9 0 8 1;
#X connect 10 0 8 1;
#X connect 11 0 12 0;
#X connect 11 1 10 0;
#X connect 12 0 3 0;
#X connect 12 1 5 0;
#X connect 13 0 12 0;
#X connect 16 0 11 0;
#X connect 17 0 19 0;
#X connect 18 0 20 0;
#X connect 19 0 18 1;
#X connect 20 0 21 0;
#X connect 21 0 22 0;
#X coords 0 -1 1 1 130 40 1 100 100;
#X restore 791 384 pd chord;
#X connect 0 0 2 0;
#X connect 1 0 0 0;
#X connect 36 0 39 0;
#X connect 37 0 45 0;
#X connect 37 0 40 0;
#X connect 50 0 49 0;
#X restore 23 12 pd UI_OLD__________;
#N canvas 116 23 380 600 SEQUENCER_BEAT__ 0;
#X floatatom 83 246 5 0 0 0 - - -;
#N canvas 0 23 485 528 beat 0;
#X obj 21 449 outlet;
#X obj 48 158 i;
#X obj 48 179 change;
#X obj 48 200 t b;
#X obj 21 359 / 1;
#X obj 36 267 f 4;
#X obj 36 337 f 1;
#X obj 21 134 t f f;
#X obj 21 36 inlet beat-in;
#X text 73 4 BEAT SUBDIVISION/EXPANSION;
#X obj 125 98 s \$0-timebase;
#X obj 173 77 s \$0-timebase-multiplier;
#X obj 50 246 r \$0-timebase;
#X obj 51 318 r \$0-timebase-multiplier;
#X obj 21 290 * 4;
#X obj 125 36 inlet;
#X obj 173 36 inlet;
#X obj 21 386 i;
#X obj 21 407 change;
#X connect 1 0 2 0;
#X connect 2 0 3 0;
#X connect 3 0 5 0;
#X connect 3 0 6 0;
#X connect 4 0 17 0;
#X connect 5 0 14 1;
#X connect 6 0 4 1;
#X connect 7 0 14 0;
#X connect 7 1 1 0;
#X connect 8 0 7 0;
#X connect 12 0 5 1;
#X connect 13 0 6 1;
#X connect 14 0 4 0;
#X connect 15 0 10 0;
#X connect 16 0 11 0;
#X connect 17 0 18 0;
#X connect 18 0 0 0;
#X restore 83 200 pd beat;
#X floatatom 102 154 5 0 0 0 - - -;
#X floatatom 122 173 5 0 0 0 - - -;
#X obj 83 40 r link;
#X obj 116 106 tgl 15 0 empty empty empty 17 7 0 10 -262144 -1 -1 0
1;
#X obj 83 125 spigot;
#N canvas 971 171 577 396 seqmessages____ 0;
#X obj 93 45 inlet;
#X obj 90 240 outlet;
#X obj 179 234 outlet;
#X obj 253 237 outlet;
#X obj 319 240 outlet;
#X obj 320 202 * 2;
#X obj 385 245 outlet;
#X obj 93 68 route seqon timebase timebasemultiplier seqlength warp
delay swing;
#X obj 434 242 outlet;
#X obj 519 259 outlet;
#X connect 0 0 7 0;
#X connect 5 0 4 0;
#X connect 7 0 1 0;
#X connect 7 1 2 0;
#X connect 7 2 3 0;
#X connect 7 3 5 0;
#X connect 7 4 6 0;
#X connect 7 5 8 0;
#X connect 7 6 9 0;
#X restore 116 83 pd seqmessages____;
#X obj 116 62 r \$0-seq-messages;
#X floatatom 137 198 5 0 0 0 - - -;
#X obj 83 421 s formuls\$1;
#X obj 83 223 mod 128;
#X msg 83 398 /fsynth/seqread \$1;
#N canvas 0 23 418 502 warp 0;
#X obj 29 45 inlet;
#X obj 29 408 pipe;
#X obj 48 325 * 1;
#X obj 68 159 sel 0;
#X obj 29 133 t f f f;
#X msg 68 180 clear;
#X obj 48 251 pow 2.7;
#X obj 29 439 outlet;
#X obj 63 281 r \$0-seq-warp;
#X obj 48 224 / 16;
#X obj 69 203 r \$0-seq-length;
#X obj 63 302 * 5000;
#X obj 29 360 pack f f;
#X obj 29 381 unpack f f;
#X obj 85 44 inlet warp-amount;
#X obj 203 41 inlet seq-length;
#X obj 85 65 clip 0 1;
#X obj 85 86 s \$0-seq-warp;
#X obj 203 62 max 1;
#X obj 203 83 s \$0-seq-length;
#X text 24 8 warp: gradually increase the time period between incoming
beats;
#X connect 0 0 4 0;
#X connect 1 0 7 0;
#X connect 2 0 12 1;
#X connect 3 0 5 0;
#X connect 4 0 12 0;
#X connect 4 1 9 0;
#X connect 4 2 3 0;
#X connect 5 0 1 0;
#X connect 6 0 2 0;
#X connect 8 0 11 0;
#X connect 9 0 6 0;
#X connect 10 0 9 1;
#X connect 11 0 2 1;
#X connect 12 0 13 0;
#X connect 13 0 1 0;
#X connect 13 1 1 1;
#X connect 14 0 16 0;
#X connect 15 0 18 0;
#X connect 16 0 17 0;
#X connect 18 0 19 0;
#X restore 83 340 pd warp;
#N canvas 0 23 450 300 delay 0;
#X obj 109 151 == 0;
#X obj 209 151 spigot;
#X obj 209 194 pipe;
#X obj 227 98 t f f;
#X obj 64 223 t a;
#X obj 64 172 spigot 1;
#X obj 209 130 pack f f;
#X obj 209 172 unpack f f;
#X obj 64 23 inlet;
#X obj 64 274 outlet;
#X obj 155 18 inlet;
#X text 284 38 delay;
#X connect 0 0 5 1;
#X connect 1 0 7 0;
#X connect 2 0 4 0;
#X connect 3 0 1 1;
#X connect 3 1 6 1;
#X connect 4 0 9 0;
#X connect 5 0 4 0;
#X connect 6 0 1 0;
#X connect 7 0 2 0;
#X connect 7 1 2 1;
#X connect 8 0 5 0;
#X connect 8 0 6 0;
#X connect 10 0 3 0;
#X connect 10 0 0 0;
#X restore 83 300 pd delay;
#N canvas 601 89 337 627 swing 0;
#X obj 49 564 outlet;
#X obj 49 31 inlet;
#X obj 184 388 -;
#X obj 184 346 t f f;
#X obj 210 365 i;
#X obj 184 327 spigot;
#X obj 49 213 t f f;
#X obj 49 495 f;
#X msg 216 304 0;
#X obj 49 130 i;
#X obj 49 151 change;
#X obj 49 109 t f f;
#X obj 49 172 t f f;
#X obj 49 235 sel 0 1;
#X obj 184 409 > 0;
#X obj 127 209 moses 0.1;
#X msg 127 230 0;
#X obj 127 357 == 0;
#X obj 184 430 change;
#X obj 184 451 sel 1;
#X obj 184 279 spigot;
#X obj 217 259 > 0;
#X obj 178 229 t f f f;
#X obj 127 31 inlet swing-amount;
#X obj 94 384 spigot 1;
#X obj 49 193 mod 2;
#X connect 1 0 11 0;
#X connect 2 0 14 0;
#X connect 3 0 2 0;
#X connect 3 1 4 0;
#X connect 4 0 2 1;
#X connect 5 0 3 0;
#X connect 6 0 13 0;
#X connect 6 1 5 1;
#X connect 7 0 0 0;
#X connect 8 0 5 1;
#X connect 9 0 10 0;
#X connect 10 0 12 0;
#X connect 11 0 9 0;
#X connect 11 1 20 0;
#X connect 12 0 25 0;
#X connect 12 1 7 1;
#X connect 13 0 7 0;
#X connect 13 0 8 0;
#X connect 13 1 24 0;
#X connect 14 0 18 0;
#X connect 15 0 16 0;
#X connect 15 1 22 0;
#X connect 16 0 17 0;
#X connect 16 0 21 0;
#X connect 17 0 24 1;
#X connect 18 0 19 0;
#X connect 19 0 7 0;
#X connect 20 0 5 0;
#X connect 21 0 20 1;
#X connect 22 0 17 0;
#X connect 22 1 14 1;
#X connect 22 2 21 0;
#X connect 23 0 15 0;
#X connect 24 0 7 0;
#X connect 25 0 6 0;
#X restore 83 274 pd swing;
#X connect 0 0 15 0;
#X connect 1 0 11 0;
#X connect 2 0 1 1;
#X connect 3 0 1 2;
#X connect 4 0 6 0;
#X connect 5 0 6 1;
#X connect 6 0 1 0;
#X connect 7 0 5 0;
#X connect 7 1 2 0;
#X connect 7 2 3 0;
#X connect 7 3 9 0;
#X connect 7 3 13 2;
#X connect 7 4 13 1;
#X connect 7 5 14 1;
#X connect 7 6 15 1;
#X connect 8 0 7 0;
#X connect 9 0 11 1;
#X connect 11 0 0 0;
#X connect 12 0 10 0;
#X connect 13 0 12 0;
#X connect 14 0 13 0;
#X connect 15 0 14 0;
#X restore 22 281 pd SEQUENCER_BEAT__;
#X obj 31 388 r \$0-OSC-collect-2-\$1;
#N canvas 360 378 659 500 FLOOPER_________ 0;
#X obj 52 27 inlet;
#X obj 52 67 route record\$1 play\$1 loop\$1 reverse\$1 level\$1;
#X obj 52 177 specific.oscformat \$0 \$1 flooper record -;
#X obj 106 157 specific.oscformat \$0 \$1 flooper play -;
#X obj 161 138 specific.oscformat \$0 \$1 flooper loop -;
#X obj 215 119 specific.oscformat \$0 \$1 flooper reverse -;
#X obj 270 100 specific.oscformat \$0 \$1 flooper level -;
#X obj 49 382 specific.oscformat \$0 \$1 flooper speed spe;
#X obj 116 361 specific.oscformat \$0 \$1 flooper duration dur;
#X obj 184 341 specific.oscformat \$0 \$1 flooper readoffset rea;
#X obj 252 321 specific.oscformat \$0 \$1 flooper envelope env;
#X obj 320 301 specific.oscformat \$0 \$1 flooper dropout dro;
#X obj 390 469 outlet;
#X obj 49 242 route speed\$1 spechaos\$1 duration\$1 durchaos\$1 readoffset\$1
reachaos\$1 envelope\$1 envchaos\$1 dropout\$1 drochaos\$1;
#X connect 0 0 1 0;
#X connect 1 0 2 0;
#X connect 1 1 3 0;
#X connect 1 2 4 0;
#X connect 1 3 5 0;
#X connect 1 4 6 0;
#X connect 1 5 13 0;
#X connect 13 0 7 0;
#X connect 13 1 7 1;
#X connect 13 2 8 0;
#X connect 13 3 8 1;
#X connect 13 4 9 0;
#X connect 13 5 9 1;
#X connect 13 6 10 0;
#X connect 13 7 10 1;
#X connect 13 8 11 0;
#X connect 13 9 11 1;
#X connect 13 10 12 0;
#X restore 22 215 pd FLOOPER_________;
#N canvas 289 435 936 342 TRIG____________ 0;
#X obj 34 15 inlet;
#X obj 34 38 route op1freqwavetrig\$1 exttrig\$1 op2trig\$1 noisetrig\$1
amtrig\$1 amwtrig\$1;
#X obj 34 289 s \$0-op1f-trig;
#X obj 54 268 s \$0-w-trig;
#X obj 97 247 s \$0-ext-trig;
#X obj 182 204 s \$0-op2d-trig;
#X obj 161 225 s \$0-op2f-trig;
#X obj 226 178 s \$0-n-trig;
#X obj 242 156 s \$0-nf-trig;
#X obj 288 134 s \$0-amf-trig;
#X obj 299 112 s \$0-amd-trig;
#X obj 352 87 s \$0-amw-trig;
#X obj 765 85 s \$0-p-trig;
#X obj 445 263 s \$0-sat-trig;
#X obj 496 241 s \$0-bit-trig;
#X obj 548 220 s \$0-pit-trig;
#X obj 598 198 s \$0-ds-trig;
#X obj 651 176 s \$0-dt-trig;
#X obj 681 155 s \$0-df-trig;
#X obj 704 132 s \$0-fc-trig;
#X obj 727 108 s \$0-fr-trig;
#X obj 445 37 route sattrig\$1 bittrig\$1 pittrig\$1 dstrig$ dttrig\$1
dftrig\$1 fctrig\$1 frtrig\$1 ptrig\$1;
#X obj 827 313 outlet;
#X connect 0 0 1 0;
#X connect 1 0 2 0;
#X connect 1 0 3 0;
#X connect 1 1 4 0;
#X connect 1 2 6 0;
#X connect 1 2 5 0;
#X connect 1 3 7 0;
#X connect 1 3 8 0;
#X connect 1 4 9 0;
#X connect 1 4 10 0;
#X connect 1 5 11 0;
#X connect 1 6 21 0;
#X connect 21 0 13 0;
#X connect 21 1 14 0;
#X connect 21 2 15 0;
#X connect 21 3 16 0;
#X connect 21 4 17 0;
#X connect 21 5 18 0;
#X connect 21 6 19 0;
#X connect 21 7 20 0;
#X connect 21 8 12 0;
#X connect 21 9 22 0;
#X restore 22 235 pd TRIG____________;
#N canvas 289 435 1510 342 ACT_____________ 0;
#X obj 34 15 inlet;
#X obj 34 289 s \$0-op1f-act;
#X obj 54 268 s \$0-w-act;
#X obj 97 247 s \$0-ext-act;
#X obj 161 225 s \$0-op2f-act;
#X obj 182 204 s \$0-op2d-act;
#X obj 226 178 s \$0-n-act;
#X obj 242 156 s \$0-nf-act;
#X obj 288 134 s \$0-amf-act;
#X obj 299 112 s \$0-amd-act;
#X obj 352 87 s \$0-amw-act;
#X obj 445 263 s \$0-sat-act;
#X obj 497 241 s \$0-bit-act;
#X obj 548 220 s \$0-pit-act;
#X obj 599 198 s \$0-ds-act;
#X obj 651 176 s \$0-dt-act;
#X obj 681 155 s \$0-df-act;
#X obj 704 133 s \$0-fc-act;
#X obj 727 108 s \$0-fr-act;
#X obj 765 85 s \$0-p-act;
#X obj 34 38 route op1freqwaveact\$1 extact\$1 op2act\$1 noiseact\$1
amact\$1 amwact\$1;
#X obj 445 37 route satact\$1 bitact\$1 pitact\$1 dsact$ dtact\$1 dfact\$1
fcact\$1 fract\$1 pact\$1;
#X obj 1144 145 s \$0-fc-act;
#X obj 1167 120 s \$0-fr-act;
#X obj 1205 97 s \$0-p-act;
#X obj 875 285 s \$0-a-act;
#X obj 927 263 s \$0-d-act;
#X obj 976 242 s \$0-s-act;
#X obj 1029 220 s \$0-r-act;
#X obj 875 59 route aact\$1 dact\$1 sact\$1 ract$ op1sr\$1 op1st\$1
fract\$1 pact\$1;
#X obj 1081 198 s \$0-op1sr-act;
#X obj 1111 177 s \$0-op1st-act;
#X connect 0 0 20 0;
#X connect 20 0 1 0;
#X connect 20 0 2 0;
#X connect 20 1 3 0;
#X connect 20 2 4 0;
#X connect 20 2 5 0;
#X connect 20 3 6 0;
#X connect 20 3 7 0;
#X connect 20 4 8 0;
#X connect 20 4 9 0;
#X connect 20 5 10 0;
#X connect 20 6 21 0;
#X connect 21 0 11 0;
#X connect 21 1 12 0;
#X connect 21 2 13 0;
#X connect 21 3 14 0;
#X connect 21 4 15 0;
#X connect 21 5 16 0;
#X connect 21 6 17 0;
#X connect 21 7 18 0;
#X connect 21 8 19 0;
#X connect 21 9 29 0;
#X connect 29 0 25 0;
#X connect 29 1 26 0;
#X connect 29 2 27 0;
#X connect 29 3 28 0;
#X connect 29 4 30 0;
#X connect 29 5 31 0;
#X connect 29 6 22 0;
#X connect 29 7 23 0;
#X restore 22 257 pd ACT_____________;
#N canvas 644 413 1276 490 OP1_OP2_NOISE___ 0;
#X obj 6 20 inlet;
#X obj 7 186 unpack f f;
#X obj 85 186 unpack f f;
#X obj 458 202 unpack f f;
#X obj 576 200 unpack f f;
#X obj 6 53 route op1freqwave\$1 op1freqwavechaos\$1 extmod\$1 extmodchaos\$1
op1sliderange\$1 op1sliderangechaos\$1 op1slidetime\$1 op1slidetimechaos\$1
;
#X obj 458 169 route op2freqdepth\$1 op2freqdepthchaos\$1;
#X obj 835 231 unpack f f;
#X obj 911 231 unpack f f;
#X obj 835 198 route noise\$1 noisechaos\$1;
#X obj 946 447 outlet;
#X obj 731 299 oscformat op2act\$1;
#X obj 1061 307 oscformat noiseact\$1;
#X obj 267 284 s to-o-s-c-interface;
#X obj 731 321 s to-o-s-c-interface;
#X obj 1062 329 s to-o-s-c-interface;
#X obj 267 262 oscformat op1freqwaveact\$1;
#X obj 7 235 specific.oscformat \$0 \$1 fsynth op1freq op1f;
#X obj 74 207 specific.oscformat \$0 \$1 fsynth waveshape w 4;
#X obj 80 151 specific.oscformat \$0 \$1 fsynth extmodulation ext;
#X obj 154 131 specific.oscformat \$0 \$1 fsynth op1sliderange op1sr
;
#X obj 228 111 specific.oscformat \$0 \$1 fsynth op1slidetime op1st
;
#X obj 834 277 specific.oscformat \$0 \$1 fsynth noise n;
#X obj 902 253 specific.oscformat \$0 \$1 fsynth noisefilterfreq nf
;
#X obj 458 247 specific.oscformat \$0 \$1 fsynth op2freq op2f 8;
#X obj 525 224 specific.oscformat \$0 \$1 fsynth op2depth op2d 8;
#X connect 0 0 5 0;
#X connect 1 0 17 0;
#X connect 1 1 18 0;
#X connect 2 0 17 1;
#X connect 2 1 18 1;
#X connect 3 0 24 0;
#X connect 3 1 25 0;
#X connect 4 0 24 1;
#X connect 4 1 25 1;
#X connect 5 0 1 0;
#X connect 5 1 2 0;
#X connect 5 2 19 0;
#X connect 5 3 19 1;
#X connect 5 4 20 0;
#X connect 5 5 20 1;
#X connect 5 6 21 0;
#X connect 5 7 21 1;
#X connect 5 8 6 0;
#X connect 6 0 3 0;
#X connect 6 1 4 0;
#X connect 6 2 9 0;
#X connect 7 0 22 0;
#X connect 7 1 23 0;
#X connect 8 0 22 1;
#X connect 8 1 23 1;
#X connect 9 0 7 0;
#X connect 9 1 8 0;
#X connect 9 2 10 0;
#X connect 11 0 14 0;
#X connect 12 0 15 0;
#X connect 16 0 13 0;
#X connect 17 3 16 0;
#X connect 18 3 16 0;
#X connect 22 3 12 0;
#X connect 23 3 12 0;
#X connect 24 3 11 0;
#X connect 25 3 11 0;
#X restore 22 65 pd OP1_OP2_NOISE___;
#X connect 1 0 0 0;
#X connect 2 0 3 0;
#X connect 3 0 5 0;
#X connect 5 0 4 0;
#X connect 6 0 7 0;
#X connect 7 0 8 0;
#X connect 8 0 9 0;
#X connect 9 0 10 0;
#X connect 10 0 14 0;
#X connect 11 0 23 0;
#X connect 13 0 12 0;
#X connect 14 0 20 0;
#X connect 15 0 16 0;
#X connect 19 0 4 0;
#X connect 20 0 21 0;
#X connect 21 0 22 0;
#X connect 23 0 6 0;
