#N canvas 174 640 319 244 10;
#X obj 27 10 inlet;
#X obj 91 72 r f-loadbang;
#X obj 27 162 - 1;
#X msg 160 102 7;
#X obj 27 206 s scale-root-note;
#X msg 91 94 1;
#X obj 27 184 specific.automater \$1 \$1-scale-root-note;
#X connect 0 0 2 0;
#X connect 1 0 5 0;
#X connect 2 0 6 0;
#X connect 3 0 2 0;
#X connect 5 0 2 0;
#X connect 6 0 4 0;
