#N canvas 713 149 559 312 10;
#X text 274 114 \$1 = \$0 \; \$2 = instance;
#X obj 98 65 s~ \$0-ext-feed;
#X obj 147 46 s~ \$0-adsr-trig;
#X obj 196 27 s~ \$0-env-fol;
#X obj 49 84 s \$0-formuls-param-in;
#X obj 49 241 r \$0-formuls-param-out;
#X obj 49 6 specific.oscinparse \$2 \$1;
#X obj 49 263 specific.oscoutparse \$2 \$1 fsynth ffx fmix flooper
;
#N canvas 0 64 403 259 SYNTH__________ 0;
#X text 175 129 <- sends automrec trigger;
#X text 181 150 <- sends fsynth audio signal;
#X obj 30 15 r \$0-formuls-param-in;
#X obj 30 172 s \$0-formuls-param-out;
#X obj 58 66 r~ \$0-ext-feed;
#X obj 87 88 r~ \$0-adsr-trig;
#X obj 58 151 s~ \$0-fynth-1;
#X obj 30 109 fsynth~, f 10;
#X obj 87 131 s~ \$0-trig;
#X obj 30 38 route active;
#X connect 2 0 9 0;
#X connect 4 0 7 1;
#X connect 5 0 7 2;
#X connect 7 0 3 0;
#X connect 7 1 6 0;
#X connect 7 2 8 0;
#X connect 9 1 7 0;
#X restore 48 126 pd SYNTH__________;
#N canvas 0 84 281 239 LOOPER_________ 0;
#X obj 34 37 r \$0-formuls-param-in;
#X obj 34 168 s \$0-formuls-param-out;
#X obj 97 148 s~ \$0-flooper-out-1;
#N canvas 0 23 450 300 RECORDPARSE 0;
#X obj 106 79 sel 1;
#X obj 106 161 del;
#X msg 106 182 0;
#X msg 136 183 1;
#X obj 121 141 r recordtime;
#X obj 106 203 t a;
#X msg 106 224 /flooper/record \$1;
#X obj 106 58 route /flooper/record;
#X obj 106 275 outlet;
#X obj 106 10 inlet;
#X obj 106 100 t b b b;
#X msg 145 120 stop;
#X obj 282 140 tgl 15 0 empty empty empty 17 7 0 10 -262144 -1 -1 0
1;
#X obj 233 226 s flooperrecord\$2;
#X connect 0 0 10 0;
#X connect 1 0 2 0;
#X connect 2 0 5 0;
#X connect 3 0 5 0;
#X connect 4 0 1 1;
#X connect 5 0 6 0;
#X connect 5 0 12 0;
#X connect 5 0 13 0;
#X connect 6 0 8 0;
#X connect 7 0 0 0;
#X connect 7 1 8 0;
#X connect 9 0 7 0;
#X connect 10 0 1 0;
#X connect 10 1 3 0;
#X connect 10 2 11 0;
#X connect 11 0 1 0;
#X restore 34 58 pd RECORDPARSE;
#X obj 34 124 flooper~, f 11;
#X obj 97 101 r~ \$0-trig;
#X obj 65 80 r~ \$0-fynth-1;
#X connect 0 0 3 0;
#X connect 3 0 4 0;
#X connect 4 0 1 0;
#X connect 4 1 2 0;
#X connect 5 0 4 2;
#X connect 6 0 4 1;
#X restore 48 148 pd LOOPER_________;
#N canvas 0 77 368 246 FX_____________ 0;
#X obj 74 143 s~ \$0-fx-out-1;
#X obj 35 37 r \$0-formuls-param-in;
#X obj 35 165 s \$0-formuls-param-out;
#X obj 35 119 ffx~, f 7;
#X obj 74 98 r~ \$0-trig;
#X obj 54 57 r~ \$0-fynth-1;
#X obj 62 77 r~ \$0-flooper-out-1;
#X connect 1 0 3 0;
#X connect 3 0 2 0;
#X connect 3 1 0 0;
#X connect 4 0 3 2;
#X connect 5 0 3 1;
#X connect 6 0 3 1;
#X restore 48 169 pd FX_____________;
#N canvas 0 129 378 279 MIX____________ 0;
#X obj 40 36 r \$0-formuls-param-in;
#X obj 40 218 s \$0-formuls-param-out;
#X obj 62 196 s~ \$2-l;
#X obj 85 176 s~ \$2-r;
#X obj 93 156 s~ \$2-m;
#X obj 70 81 r~ \$0-env-fol;
#X obj 40 124 fmix~, f 8;
#N canvas 0 23 301 286 REVERB_SEND__ 0;
#X obj 41 202 throw~ \$1-rev-l;
#X obj 40 28 inlet~;
#X obj 40 179 *~;
#X obj 55 111 sig~;
#X obj 55 132 lop~ 100;
#X obj 55 153 *~;
#X obj 160 29 inlet~;
#X obj 160 180 *~;
#X obj 175 112 sig~;
#X obj 175 133 lop~ 100;
#X obj 175 154 *~;
#X obj 161 203 throw~ \$1-rev-r;
#X obj 55 90 r reverb\$2;
#X obj 175 91 r reverb\$2;
#X connect 1 0 2 0;
#X connect 2 0 0 0;
#X connect 3 0 4 0;
#X connect 4 0 5 0;
#X connect 4 0 5 1;
#X connect 5 0 2 1;
#X connect 6 0 7 0;
#X connect 7 0 11 0;
#X connect 8 0 9 0;
#X connect 9 0 10 0;
#X connect 9 0 10 1;
#X connect 10 0 7 1;
#X connect 12 0 3 0;
#X connect 13 0 8 0;
#X restore 197 217 pd REVERB_SEND__;
#X obj 85 102 r~ \$0-trig;
#X obj 55 60 r~ \$0-fx-out-1;
#X obj 197 195 r~ \$2-l;
#X obj 248 195 r~ \$2-r;
#X connect 0 0 6 0;
#X connect 5 0 6 2;
#X connect 6 0 1 0;
#X connect 6 1 2 0;
#X connect 6 1 4 0;
#X connect 6 2 3 0;
#X connect 6 2 4 0;
#X connect 8 0 6 3;
#X connect 9 0 6 1;
#X connect 10 0 7 0;
#X connect 11 0 7 1;
#X restore 49 191 pd MIX____________;
#X text 218 6 <- parse incoming messages;
#X text 188 236 <- retreive parameter value from faust DSP then format
and send to GUI;
#X connect 5 0 7 0;
#X connect 6 0 4 0;
#X connect 6 1 1 0;
#X connect 6 2 2 0;
#X connect 6 3 3 0;
