#N canvas 819 65 621 807 10;
#X text 443 37 \$1 = \$0 \; \$2 = instance;
#X obj 450 118 hradio 25 1 0 2 empty empty POST_PRE 0 -8 0 10 -262144
-1 -1 0;
#X obj 450 148 s \$0-fx-routing;
#X text 191 177 <- sends automrec trigger;
#X text 197 198 <- sends fsynth audio signal;
#X obj 79 328 catch~ \$0-flooper-in-1;
#X obj 321 388 s~ \$0-fx-out-1;
#X obj 57 525 catch~ \$0-fmix-in-1;
#X obj 218 107 s~ \$0-ext-feed;
#X obj 270 88 s~ \$0-adsr-trig;
#X obj 323 69 s~ \$0-env-fol;
#X obj 49 49 s \$0-formuls-param-in;
#X obj 46 93 r \$0-formuls-param-in;
#X obj 48 285 r \$0-formuls-param-in;
#X obj 282 302 r \$0-formuls-param-in;
#X obj 42 501 r \$0-formuls-param-in;
#X obj 41 718 r \$0-formuls-param-out;
#X obj 42 683 s \$0-formuls-param-out;
#X obj 48 416 s \$0-formuls-param-out;
#X obj 282 410 s \$0-formuls-param-out;
#X obj 46 220 s \$0-formuls-param-out;
#X obj 64 661 s~ \$2-l;
#X obj 87 641 s~ \$2-r;
#X obj 95 621 s~ \$2-m;
#X obj 74 114 r~ \$0-ext-feed;
#X obj 103 136 r~ \$0-adsr-trig;
#X obj 72 546 r~ \$0-env-fol;
#N canvas 0 23 450 300 ROUTING_1 0;
#N canvas 0 23 319 300 ROUTING 0;
#X obj 54 35 inlet~;
#X obj 55 224 outlet~;
#X obj 149 225 outlet~;
#X obj 167 31 inlet;
#X obj 73 126 == 0;
#X obj 55 200 *~;
#X obj 73 175 lop~ 200;
#X obj 167 154 sig~;
#X obj 149 202 *~;
#X obj 167 177 lop~ 200;
#X obj 73 152 sig~ 1;
#X connect 0 0 8 0;
#X connect 0 0 5 0;
#X connect 3 0 4 0;
#X connect 3 0 7 0;
#X connect 4 0 10 0;
#X connect 5 0 1 0;
#X connect 6 0 5 1;
#X connect 7 0 9 0;
#X connect 8 0 2 0;
#X connect 9 0 8 1;
#X connect 10 0 6 0;
#X restore 19 117 pd ROUTING;
#X obj 86 94 r \$0-fx-routing;
#X obj 76 141 throw~ \$0-fx-in-1;
#X obj 19 163 throw~ \$0-flooper-in-1;
#X text 103 119 <- first level FX pre-post flooper routing;
#X obj 19 70 r~ \$0-fynth-1;
#X connect 0 0 3 0;
#X connect 0 0 2 0;
#X connect 0 1 2 0;
#X connect 1 0 0 1;
#X connect 5 0 0 0;
#X restore 43 251 pd ROUTING_1;
#N canvas 38 525 531 233 ROUTING_2 0;
#N canvas 0 23 319 300 ROUTING 0;
#X obj 54 35 inlet~;
#X obj 55 224 outlet~;
#X obj 149 225 outlet~;
#X obj 167 31 inlet;
#X obj 73 126 == 0;
#X obj 55 200 *~;
#X obj 73 175 lop~ 200;
#X obj 167 154 sig~;
#X obj 149 202 *~;
#X obj 167 177 lop~ 200;
#X obj 73 152 sig~ 1;
#X connect 0 0 8 0;
#X connect 0 0 5 0;
#X connect 3 0 4 0;
#X connect 3 0 7 0;
#X connect 4 0 10 0;
#X connect 5 0 1 0;
#X connect 6 0 5 1;
#X connect 7 0 9 0;
#X connect 8 0 2 0;
#X connect 9 0 8 1;
#X connect 10 0 6 0;
#X restore 280 95 pd ROUTING;
#N canvas 0 23 319 300 ROUTING 0;
#X obj 54 35 inlet~;
#X obj 55 224 outlet~;
#X obj 149 225 outlet~;
#X obj 167 31 inlet;
#X obj 73 126 == 0;
#X obj 55 200 *~;
#X obj 73 175 lop~ 200;
#X obj 167 154 sig~;
#X obj 149 202 *~;
#X obj 167 177 lop~ 200;
#X obj 73 152 sig~ 1;
#X connect 0 0 8 0;
#X connect 0 0 5 0;
#X connect 3 0 4 0;
#X connect 3 0 7 0;
#X connect 4 0 10 0;
#X connect 5 0 1 0;
#X connect 6 0 5 1;
#X connect 7 0 9 0;
#X connect 8 0 2 0;
#X connect 9 0 8 1;
#X connect 10 0 6 0;
#X restore 64 97 pd ROUTING;
#X obj 131 74 r \$0-fx-routing;
#X obj 347 74 r \$0-fx-routing;
#X obj 64 140 throw~ \$0-fx-in-1;
#X obj 131 119 throw~ \$0-fmix-in-1;
#X obj 64 51 r~ \$0-flooper-out-1;
#X obj 280 138 throw~ \$0-fmix-in-1;
#X obj 280 52 r~ \$0-fx-out-1;
#X obj 347 118 throw~ \$0-flooper-in-1;
#X connect 0 0 7 0;
#X connect 0 1 9 0;
#X connect 0 1 7 0;
#X connect 1 0 4 0;
#X connect 1 1 5 0;
#X connect 2 0 1 1;
#X connect 3 0 0 1;
#X connect 6 0 1 0;
#X connect 8 0 0 0;
#X restore 49 463 pd ROUTING_2;
#X text 146 464 <- 2nd level FX pre-post flooper routing;
#X text 140 250 <- 1st level FX pre-post flooper routing;
#X obj 49 26 specific.oscinparse \$2 \$1;
#X obj 218 50 specific.modroute~;
#X obj 111 396 s~ \$0-flooper-out-1;
#X obj 301 322 catch~ \$0-fx-in-1;
#X obj 74 199 s~ \$0-fynth-1;
#X obj 41 740 specific.oscoutparse \$2 \$1 fsynth ffx fmix flooper
;
#N canvas 0 23 450 300 RECORDPARSE 0;
#X obj 106 79 sel 1;
#X obj 106 161 del;
#X msg 106 182 0;
#X msg 136 183 1;
#X obj 121 141 r recordtime;
#X obj 106 203 t a;
#X msg 106 224 /flooper/record \$1;
#X obj 106 58 route /flooper/record;
#X obj 106 275 outlet;
#X obj 106 10 inlet;
#X obj 106 100 t b b b;
#X msg 145 120 stop;
#X obj 282 140 tgl 15 0 empty empty empty 17 7 0 10 -262144 -1 -1 0
1;
#X connect 0 0 10 0;
#X connect 1 0 2 0;
#X connect 2 0 5 0;
#X connect 3 0 5 0;
#X connect 4 0 1 1;
#X connect 5 0 6 0;
#X connect 5 0 12 0;
#X connect 6 0 8 0;
#X connect 7 0 0 0;
#X connect 7 1 8 0;
#X connect 9 0 7 0;
#X connect 10 0 1 0;
#X connect 10 1 3 0;
#X connect 10 2 11 0;
#X connect 11 0 1 0;
#X restore 48 306 pd RECORDPARSE;
#X obj 450 82 r fx-routing-\$2;
#X obj 42 589 fmix~, f 8;
#X obj 48 372 flooper~, f 11;
#X obj 282 364 ffx~, f 7;
#X obj 46 157 fsynth~, f 10;
#N canvas 0 23 301 286 REVERB_SEND__ 0;
#X obj 41 202 throw~ \$1-rev-l;
#X obj 40 28 inlet~;
#X obj 40 179 *~;
#X obj 55 111 sig~;
#X obj 55 132 lop~ 100;
#X obj 55 153 *~;
#X obj 160 29 inlet~;
#X obj 160 180 *~;
#X obj 175 112 sig~;
#X obj 175 133 lop~ 100;
#X obj 175 154 *~;
#X obj 161 203 throw~ \$1-rev-r;
#X obj 55 90 r reverb\$2;
#X obj 175 91 r reverb\$2;
#X connect 1 0 2 0;
#X connect 2 0 0 0;
#X connect 3 0 4 0;
#X connect 4 0 5 0;
#X connect 4 0 5 1;
#X connect 5 0 2 1;
#X connect 6 0 7 0;
#X connect 7 0 11 0;
#X connect 8 0 9 0;
#X connect 9 0 10 0;
#X connect 9 0 10 1;
#X connect 10 0 7 1;
#X connect 12 0 3 0;
#X connect 13 0 8 0;
#X restore 145 620 pd REVERB_SEND__;
#X obj 103 179 s~ \$0-trig;
#X obj 111 349 r~ \$0-trig;
#X obj 321 343 r~ \$0-trig;
#X obj 87 567 r~ \$0-trig;
#X connect 1 0 2 0;
#X connect 5 0 40 1;
#X connect 7 0 39 1;
#X connect 12 0 42 0;
#X connect 13 0 37 0;
#X connect 14 0 41 0;
#X connect 15 0 39 0;
#X connect 16 0 36 0;
#X connect 24 0 42 1;
#X connect 25 0 42 2;
#X connect 26 0 39 2;
#X connect 31 0 11 0;
#X connect 31 1 32 0;
#X connect 32 0 8 0;
#X connect 32 1 9 0;
#X connect 32 2 10 0;
#X connect 34 0 41 1;
#X connect 37 0 40 0;
#X connect 38 0 1 0;
#X connect 39 0 17 0;
#X connect 39 1 21 0;
#X connect 39 1 23 0;
#X connect 39 1 43 0;
#X connect 39 2 22 0;
#X connect 39 2 23 0;
#X connect 39 2 43 1;
#X connect 40 0 18 0;
#X connect 40 1 33 0;
#X connect 41 0 19 0;
#X connect 41 1 6 0;
#X connect 42 0 20 0;
#X connect 42 1 35 0;
#X connect 42 2 44 0;
#X connect 45 0 40 2;
#X connect 46 0 41 2;
#X connect 47 0 39 3;
