#N canvas 423 166 482 712 10;
#X obj 37 11 inlet;
#X obj 37 272 s \$0-record;
#X obj 141 218 s \$0-tempo;
#X obj 193 175 s \$0-reverse;
#X obj 245 153 s \$0-trigger;
#X obj 89 246 s \$0-value;
#N canvas 2 58 326 300 RECORD_MODULE_______ 0;
#X obj 45 232 tabwrite \$0-this;
#X obj 45 134 f;
#X obj 45 61 tgl 15 0 empty empty empty 17 7 0 10 -262144 -1 -1 0 1
;
#X obj 45 156 t a b;
#X obj 77 179 i;
#X obj 106 178 + 1;
#X msg 95 156 0;
#X obj 45 81 metro 10;
#X obj 45 18 r \$0-record;
#X obj 45 40 t f b;
#X obj 63 112 r \$0-value;
#X obj 166 231 s \$0-length;
#X obj 77 200 min \$1;
#X obj 45 259 array define \$0-this \$2;
#X connect 1 0 3 0;
#X connect 2 0 7 0;
#X connect 3 0 0 0;
#X connect 3 1 4 0;
#X connect 4 0 5 0;
#X connect 4 0 12 0;
#X connect 5 0 4 1;
#X connect 6 0 4 1;
#X connect 7 0 1 0;
#X connect 8 0 9 0;
#X connect 9 0 2 0;
#X connect 9 1 6 0;
#X connect 10 0 1 1;
#X connect 12 0 0 1;
#X connect 12 0 11 0;
#X restore 38 319 pd RECORD_MODULE_______;
#N canvas 2 90 343 788 PLAYBACK_MODULE_____ 0;
#X obj 39 246 i 0;
#X obj 69 246 + 1;
#X msg 71 386 0;
#X obj 39 365 moses;
#X obj 39 491 spigot 1;
#X obj 107 491 spigot 0;
#X obj 107 533 pack f f;
#X obj 107 577 -;
#X obj 92 468 == 0;
#X obj 39 609 t a;
#X msg 107 555 \$2 \$1;
#X obj 39 318 * 1;
#X obj 152 432 r \$0-reverse;
#X obj 152 512 r \$0-length;
#X obj 39 631 tabread4 \$0-this;
#X obj 39 753 outlet;
#X obj 71 340 r \$0-length;
#X obj 57 296 r \$0-tempo;
#X obj 71 409 s \$0-zeros;
#X obj 57 224 r \$0-zeros;
#X obj 156 55 t b b;
#X msg 156 77 1;
#X msg 228 77 0;
#X obj 156 29 r \$0-trigger;
#X obj 228 99 s \$0-zeros;
#X obj 113 751 outlet seq_done;
#X obj 113 703 change;
#X obj 113 676 r \$0-zeros;
#X obj 113 725 sel 0;
#X obj 95 149 r \$0-zeros;
#X obj 39 202 spigot 0;
#X obj 156 99 s \$0-ones;
#X obj 85 126 r \$0-ones;
#X obj 191 677 r \$0-ones;
#X obj 110 170 r \$0-stop;
#X obj 39 27 r \$1-throttle;
#X connect 0 0 1 0;
#X connect 0 0 11 0;
#X connect 1 0 0 1;
#X connect 2 0 18 0;
#X connect 3 0 4 0;
#X connect 3 0 5 0;
#X connect 3 1 2 0;
#X connect 4 0 9 0;
#X connect 5 0 6 0;
#X connect 6 0 10 0;
#X connect 7 0 9 0;
#X connect 8 0 4 1;
#X connect 9 0 14 0;
#X connect 10 0 7 0;
#X connect 11 0 3 0;
#X connect 12 0 8 0;
#X connect 12 0 5 1;
#X connect 13 0 6 1;
#X connect 14 0 15 0;
#X connect 16 0 3 1;
#X connect 17 0 11 1;
#X connect 19 0 0 1;
#X connect 20 0 21 0;
#X connect 20 1 22 0;
#X connect 21 0 31 0;
#X connect 22 0 24 0;
#X connect 23 0 20 0;
#X connect 26 0 28 0;
#X connect 27 0 26 0;
#X connect 28 0 25 0;
#X connect 29 0 30 1;
#X connect 30 0 0 0;
#X connect 32 0 30 1;
#X connect 33 0 26 0;
#X connect 34 0 30 1;
#X connect 35 0 30 0;
#X restore 38 351 pd PLAYBACK_MODULE_____;
#X obj 141 197 max 0.01;
#X text 36 502 receives tick in from "master-time-in" \, spaced at
10ms apart;
#N canvas 2 63 450 614 TEST_UNIT___ 0;
#X obj 115 55 tgl 15 0 empty empty empty 17 7 0 10 -262144 -1 -1 0
1;
#X msg 115 75 record \$1;
#X obj 113 144 hsl 128 15 0 127 0 0 empty empty empty -2 -8 0 10 -262144
-1 -1 0 1;
#X msg 110 164 value \$1;
#X floatatom 111 231 5 0 0 0 - - -;
#X msg 111 250 tempo \$1;
#X obj 111 318 tgl 15 0 empty empty empty 17 7 0 10 -262144 -1 -1 0
1;
#X msg 111 338 reverse \$1;
#X obj 111 388 tgl 15 0 empty empty empty 17 7 0 10 -262144 -1 -1 0
1;
#X msg 111 408 note-trigger-on \$1;
#X obj 111 489 bng 15 250 50 0 empty empty empty 17 7 0 10 -262144
-1 -1;
#X msg 111 508 trigger bang;
#X obj 115 97 s \$0-test-u;
#X obj 110 186 s \$0-test-u;
#X obj 111 272 s \$0-test-u;
#X obj 111 360 s \$0-test-u;
#X obj 111 430 s \$0-test-u;
#X obj 111 530 s \$0-test-u;
#X connect 0 0 1 0;
#X connect 1 0 12 0;
#X connect 2 0 3 0;
#X connect 3 0 13 0;
#X connect 4 0 5 0;
#X connect 5 0 14 0;
#X connect 6 0 7 0;
#X connect 7 0 15 0;
#X connect 8 0 9 0;
#X connect 9 0 16 0;
#X connect 10 0 11 0;
#X connect 11 0 17 0;
#X restore 306 324 pd TEST_UNIT___;
#X obj 60 56 r \$0-test-u;
#X obj 38 397 outlet;
#X obj 245 131 t b;
#X obj 196 396 outlet;
#X obj 297 130 s \$0-stop;
#X msg 297 109 0;
#X text 39 539 \$1 = \$0 \; \$2 = array size \; record (0/1) = activates
sequencer recording \; value = value to be stored to sequencer array
\; tempo (0.001+) = controls sequencer array read speed \; reverse
(0/1) = reverses the sequencer array read direction \; note-trigger-on
(0/1) = activates "note triggering" of sequencer array \; trigger (bang)
= triggers one pass through the sequencer array \; float (0/1) = controls
master on/off of sequencer;
#X obj 37 83 route record value tempo reverse trigger stop active;
#X obj 360 107 t f f;
#X obj 360 128 sel 1;
#X connect 0 0 18 0;
#X connect 7 0 12 0;
#X connect 7 1 14 0;
#X connect 8 0 2 0;
#X connect 11 0 18 0;
#X connect 13 0 4 0;
#X connect 16 0 15 0;
#X connect 18 0 1 0;
#X connect 18 1 5 0;
#X connect 18 2 8 0;
#X connect 18 3 3 0;
#X connect 18 4 13 0;
#X connect 18 5 16 0;
#X connect 18 6 19 0;
#X connect 19 0 20 0;
#X connect 19 1 15 0;
#X connect 20 0 13 0;
