#N canvas 1059 212 588 309 10;
#X text 229 17 \$1 = \$0;
#X obj 102 218 r \$0-out;
#X obj 12 261 outlet;
#X obj 7 62 s \$0-value;
#N canvas 0 23 457 472 _unimplemented 0;
#X obj 45 40 r evolution-active;
#X obj 37 68 r evolution-time;
#X obj 130 186 t f f;
#X obj 83 267 spigot 0;
#X msg 60 183 0;
#X obj 60 161 sel 1 0;
#X obj 162 210 change;
#X msg 162 232 1;
#X obj 83 417 line 0 5;
#X obj 83 360 pack f f 16000;
#X obj 130 162 r \$0-input-1;
#X obj 60 139 r \$0-evolve;
#X obj 178 337 r \$0-evolve-time;
#X obj 83 291 t b;
#X obj 83 337 f;
#X msg 83 387 \$1 \, \$2 \$3;
#X obj 212 271 r \$0-value;
#X obj 212 292 spigot;
#X connect 2 0 9 1;
#X connect 2 1 6 0;
#X connect 3 0 13 0;
#X connect 4 0 3 1;
#X connect 5 0 4 0;
#X connect 5 1 3 0;
#X connect 6 0 7 0;
#X connect 7 0 3 1;
#X connect 9 0 15 0;
#X connect 10 0 2 0;
#X connect 11 0 5 0;
#X connect 12 0 9 2;
#X connect 13 0 14 0;
#X connect 14 0 9 0;
#X connect 15 0 8 0;
#X connect 16 0 17 0;
#X restore 416 152 pd _unimplemented;
#X obj 102 264 outlet;
#X obj 12 218 r \$0-value;
#N canvas 651 458 1071 418 VALUE_RECORD_&_AUTO_PLAYBACK 0;
#X obj 611 73 r automateRecord;
#X msg 33 102 0;
#X msg 262 187 0;
#X obj 611 255 f;
#X obj 254 227 f;
#X obj 262 166 r \$1-reset;
#X obj 626 235 r \$0-1;
#X obj 269 207 r \$0-1;
#X obj 628 212 r \$0-0;
#X msg 622 192 0;
#X obj 622 172 r \$1-reset;
#X obj 20 59 r \$0-1;
#X obj 33 79 r automateRecord;
#X obj 20 173 s \$0-out;
#X obj 611 336 s \$0-out;
#X obj 254 296 s \$0-out;
#X obj 20 122 t a;
#X obj 882 110 spigot;
#X obj 882 71 r \$1-trigger;
#X obj 882 154 s \$0-out;
#X obj 703 241 == 0;
#X obj 611 276 spigot 1;
#X text 21 33 activate recording of incoming values;
#X text 255 37 playback back recorded automation (loop or trig need
to be active;
#X text 611 40 activate loop (or if unselected \, trigger);
#X text 875 37 trigger automation playback;
#X obj 271 248 s \$0-act-internal;
#X obj 406 272 s to-o-s-c-interface;
#X obj 20 149 oscformat \$3 \$5record;
#X obj 254 272 oscformat \$3 \$5act;
#X obj 611 312 oscformat \$3 \$5loop;
#X obj 882 133 oscformat \$3 \$5trig;
#X obj 332 162 r \$1-\$5-act;
#X obj 703 220 r \$1-\$5-trig;
#X obj 916 91 r \$1-\$5-trig;
#X obj 611 137 spigot;
#X obj 724 72 r \$0-value;
#X obj 724 93 t b;
#X msg 724 114 1;
#X obj 611 114 moses 1;
#X obj 611 93 t f b;
#X obj 254 78 r automateRecord;
#X obj 254 142 spigot;
#X obj 357 77 r \$0-value;
#X obj 357 98 t b;
#X msg 357 119 1;
#X obj 254 119 moses 1;
#X obj 254 98 t f b;
#X obj 406 250 oscformat \$5act\$2;
#X connect 0 0 40 0;
#X connect 1 0 16 0;
#X connect 2 0 4 0;
#X connect 3 0 21 0;
#X connect 4 0 26 0;
#X connect 4 0 29 0;
#X connect 4 0 48 0;
#X connect 5 0 2 0;
#X connect 6 0 3 1;
#X connect 7 0 4 1;
#X connect 9 0 3 0;
#X connect 10 0 9 0;
#X connect 11 0 16 0;
#X connect 12 0 1 0;
#X connect 16 0 28 0;
#X connect 17 0 31 0;
#X connect 18 0 17 0;
#X connect 20 0 21 1;
#X connect 20 0 30 0;
#X connect 21 0 30 0;
#X connect 28 0 13 0;
#X connect 29 0 15 0;
#X connect 30 0 14 0;
#X connect 31 0 19 0;
#X connect 32 0 4 0;
#X connect 33 0 20 0;
#X connect 34 0 17 1;
#X connect 35 0 3 0;
#X connect 36 0 37 0;
#X connect 37 0 38 0;
#X connect 38 0 35 1;
#X connect 39 0 35 1;
#X connect 40 0 39 0;
#X connect 40 1 35 0;
#X connect 41 0 47 0;
#X connect 42 0 4 0;
#X connect 43 0 44 0;
#X connect 44 0 45 0;
#X connect 45 0 42 1;
#X connect 46 0 42 1;
#X connect 47 0 46 0;
#X connect 47 1 42 0;
#X connect 48 0 27 0;
#X restore 9 173 pd VALUE_RECORD_&_AUTO_PLAYBACK;
#N canvas 0 79 410 244 INCOMING_PARAM_VALUE________ 0;
#X obj 23 69 r \$0-value;
#X obj 23 143 s \$0-out;
#X text 25 41 incoming value from GUI;
#X obj 165 114 s \$0-out;
#X obj 165 70 r \$0-chaos;
#X obj 23 122 oscformat \$3 \$4;
#X obj 165 93 oscformat \$3 \$5chaos;
#N canvas 0 113 190 210 SEND_BYPASS 0;
#X obj 35 22 inlet;
#X obj 35 133 spigot;
#X obj 35 174 outlet;
#X obj 87 66 loadbang;
#X obj 87 87 \$7;
#X obj 87 108 == 0;
#X connect 0 0 1 0;
#X connect 1 0 2 0;
#X connect 3 0 4 0;
#X connect 4 0 5 0;
#X connect 5 0 1 1;
#X restore 23 93 pd SEND_BYPASS;
#X connect 0 0 7 0;
#X connect 4 0 6 0;
#X connect 5 0 1 0;
#X connect 6 0 3 0;
#X connect 7 0 5 0;
#X restore 9 130 pd INCOMING_PARAM_VALUE________;
#N canvas 315 23 243 241 SEND_VALUE_TO_AUTO_RECORD___ 0;
#X obj 39 68 spigot;
#X msg 39 116 1;
#X obj 39 92 t b b;
#X msg 83 117 0;
#X obj 72 48 r automateRecord;
#X obj 83 140 s \$0-0;
#X obj 39 140 s \$0-1;
#X obj 39 28 r \$0-value;
#X connect 0 0 2 0;
#X connect 1 0 6 0;
#X connect 2 0 1 0;
#X connect 2 1 3 0;
#X connect 3 0 5 0;
#X connect 4 0 0 1;
#X connect 7 0 0 0;
#X restore 9 152 pd SEND_VALUE_TO_AUTO_RECORD___;
#X text 229 32 \$2 = synth instance (only used in Pd \, not faust external)
;
#X obj 114 241 s \$1-OSC-collect-\$2;
#X obj 131 21 inlet chaos;
#X obj 7 21 inlet value;
#X obj 131 52 s \$0-chaos;
#N canvas 825 201 368 351 READ_VALUE_FROM_FAUST__ 0;
#X obj 66 23 r faust-value-read;
#X obj 20 87 bng 15 250 50 0 empty empty empty 17 7 0 10 -262144 -1
-1;
#X obj 66 294 s \$0-out-2;
#X obj 100 48 r \$0-act-internal;
#X obj 66 171 spigot;
#X obj 100 152 >= 1;
#X obj 100 111 f;
#X obj 116 69 r \$0-chaos;
#X obj 116 90 t b f;
#X obj 100 132 +;
#X obj 143 110 > 0;
#X obj 110 231 symbol \$4;
#X obj 66 213 symbol \$3;
#X obj 66 250 pack s s;
#X msg 66 269 /\$1/\$2O;
#X obj 66 191 t b b;
#X obj 247 39 r evenglobal;
#X obj 214 139 spigot;
#X obj 214 18 r \$0-value;
#X obj 214 160 t b;
#X obj 214 181 del 10;
#X obj 247 100 f;
#X obj 247 121 *;
#X obj 258 59 r \$0-volume;
#X obj 258 80 t b f;
#X connect 0 0 4 0;
#X connect 1 0 15 0;
#X connect 3 0 6 0;
#X connect 4 0 15 0;
#X connect 5 0 4 1;
#X connect 6 0 9 0;
#X connect 7 0 8 0;
#X connect 8 0 6 0;
#X connect 8 1 10 0;
#X connect 9 0 5 0;
#X connect 10 0 9 1;
#X connect 11 0 13 1;
#X connect 12 0 13 0;
#X connect 13 0 14 0;
#X connect 14 0 2 0;
#X connect 15 0 12 0;
#X connect 15 1 11 0;
#X connect 16 0 21 0;
#X connect 17 0 19 0;
#X connect 18 0 17 0;
#X connect 19 0 20 0;
#X connect 20 0 15 0;
#X connect 21 0 22 0;
#X connect 22 0 17 1;
#X connect 23 0 24 0;
#X connect 24 0 21 0;
#X connect 24 1 22 1;
#X restore 214 173 pd READ_VALUE_FROM_FAUST__;
#X obj 247 213 r \$0-out-2;
#X obj 247 264 outlet;
#X obj 257 234 s \$1-OSC-collect-2-\$2;
#X obj 416 216 r \$0-act-internal;
#X obj 416 262 outlet;
#N canvas 0 23 341 336 QUANTISATION 0;
#X obj 37 37 inlet;
#X obj 37 288 outlet;
#X obj 235 49 loadbang;
#X msg 235 114 0;
#X msg 266 117 1;
#X obj 235 135 t a;
#X obj 150 114 r evenglobal;
#X obj 150 135 moses 1;
#X obj 189 157 ==;
#X obj 150 229 int;
#X obj 235 93 sel 0;
#X obj 235 72 \$6;
#X obj 150 208 * \$6;
#X obj 150 250 / \$6;
#X obj 37 175 specific.switch;
#X connect 0 0 14 0;
#X connect 2 0 11 0;
#X connect 3 0 5 0;
#X connect 4 0 5 0;
#X connect 5 0 8 1;
#X connect 6 0 7 0;
#X connect 7 0 14 1;
#X connect 7 1 8 0;
#X connect 8 0 14 1;
#X connect 9 0 13 0;
#X connect 10 0 3 0;
#X connect 10 1 4 0;
#X connect 11 0 10 0;
#X connect 12 0 9 0;
#X connect 13 0 1 0;
#X connect 14 0 1 0;
#X connect 14 1 12 0;
#X restore 7 42 pd QUANTISATION;
#X text 229 52 \$3 = external name;
#X text 230 114 eg: \$0 0 fsynth waveshape w 4;
#X text 229 70 \$4 = parameter name;
#X text 229 87 \$5 = parameter record name \$5 = quantisation steps
;
#X connect 1 0 5 0;
#X connect 1 0 11 0;
#X connect 6 0 2 0;
#X connect 12 0 14 0;
#X connect 13 0 21 0;
#X connect 16 0 17 0;
#X connect 16 0 18 0;
#X connect 19 0 20 0;
#X connect 21 0 3 0;
