#N canvas 478 23 962 855 10;
#X obj 43 42 inlet;
#X text 160 -22 \$1 = instance;
#X text 160 -8 \$2 = \$0;
#X text 157 -38 Receive and parse OSC messages from synth;
#X obj 455 272 pack f f;
#X obj 455 318 s to-o-s-c-interface;
#X obj 455 295 oscformat op1freqwave\$1;
#X obj 35 418 pack f f;
#X obj 35 464 s to-o-s-c-interface;
#X obj 35 441 oscformat op2freqdepth\$1;
#X obj 209 419 pack f f;
#X obj 209 465 s to-o-s-c-interface;
#X obj 209 442 oscformat noise\$1;
#X obj 546 276 s to-o-s-c-interface;
#X obj 546 253 oscformat op1sliderange\$1;
#X obj 604 230 s to-o-s-c-interface;
#X obj 604 207 oscformat op1slidetime\$1;
#X obj 41 814 pack f f;
#X obj 41 860 s to-o-s-c-interface;
#X obj 41 837 oscformat amfreqdepth\$1;
#X obj 122 813 s to-o-s-c-interface;
#X obj 173 763 s to-o-s-c-interface;
#X obj 173 740 oscformat saturation\$1;
#X obj 203 716 s to-o-s-c-interface;
#X obj 203 693 oscformat filtercutoff\$1;
#X obj 247 669 s to-o-s-c-interface;
#X obj 247 646 oscformat filterresonance\$1;
#X obj 294 620 s to-o-s-c-interface;
#X obj 294 597 oscformat bitcrush\$1;
#X obj 330 574 s to-o-s-c-interface;
#X obj 331 550 oscformat pitchshift\$1;
#X obj 103 282 s to-o-s-c-interface;
#X obj 103 259 oscformat panning\$1;
#X obj 537 732 s to-o-s-c-interface;
#X obj 537 709 oscformat delaysend\$1;
#X obj 627 686 s to-o-s-c-interface;
#X obj 627 663 oscformat delaytime\$1;
#X obj 716 640 s to-o-s-c-interface;
#X obj 716 617 oscformat delayfeedback\$1;
#X obj 658 188 s to-o-s-c-interface;
#X obj 658 165 oscformat extmod\$1;
#X obj 473 229 t b f;
#X obj 59 794 t b f;
#X obj 54 394 t b f;
#X obj 227 398 t b f;
#N canvas 171 427 680 327 VOICE_PITCH_READ__ 0;
#X obj 29 247 s formuls\$1;
#X obj 49 115 r formuls\$1;
#X obj 49 136 route /formuls/seqread;
#X obj 49 157 mod 2;
#X obj 49 178 sel 0;
#X msg 163 221 /formuls/voicenumberO;
#X obj 163 196 metro 10;
#X msg 29 221 /formuls/op1pitchO\$1;
#X obj 29 201 f;
#X obj 163 175 loadbang;
#X obj 356 239 ftom;
#X obj 29 84 change;
#X obj 29 62 route /formuls/voicenumberO;
#X obj 285 100 route /formuls/op1pitchO0 /formuls/op1pitchO1 /formuls/op1pitchO2
/formuls/op1pitchO3 /formuls/op1pitchO4 /formuls/op1pitchO5 /formuls/op1pitchO6
/formuls/op1pitchO7 /formuls/op1pitchO8 /formuls/op1pitchO9 /formuls/op1pitchO10
/formuls/op1pitchO11 /formuls/op1pitchO12 /formuls/op1pitchO13 /formuls/op1pitchO14
/formuls/op1pitchO15;
#X obj 29 20 inlet;
#X obj 607 246 outlet;
#X obj 356 261 pack f f;
#X obj 356 211 t a a;
#X obj 233 166 tgl 15 0 empty empty empty 17 7 0 10 -262144 -1 -1 0
1;
#X obj 356 288 print formuls \$1 Pitch:;
#X connect 1 0 2 0;
#X connect 2 0 3 0;
#X connect 3 0 4 0;
#X connect 4 0 8 0;
#X connect 5 0 0 0;
#X connect 6 0 5 0;
#X connect 7 0 0 0;
#X connect 8 0 7 0;
#X connect 9 0 6 0;
#X connect 10 0 16 0;
#X connect 11 0 8 0;
#X connect 12 0 11 0;
#X connect 12 1 13 0;
#X connect 13 0 17 0;
#X connect 13 1 17 0;
#X connect 13 2 17 0;
#X connect 13 3 17 0;
#X connect 13 4 17 0;
#X connect 13 5 17 0;
#X connect 13 6 17 0;
#X connect 13 7 17 0;
#X connect 13 8 17 0;
#X connect 13 9 17 0;
#X connect 13 10 17 0;
#X connect 13 11 17 0;
#X connect 13 12 17 0;
#X connect 13 13 17 0;
#X connect 13 14 17 0;
#X connect 13 15 17 0;
#X connect 13 16 15 0;
#X connect 14 0 12 0;
#X connect 17 0 10 0;
#X connect 17 1 16 1;
#X connect 18 0 6 0;
#X restore 537 781 pd VOICE_PITCH_READ__;
#X obj 680 145 s to-o-s-c-interface;
#X obj 681 122 oscformat genrange\$1;
#X obj 122 790 oscformat amwave\$1;
#X obj 486 546 s to-o-s-c-interface;
#X obj 486 523 oscformat attack\$1;
#X obj 553 504 s to-o-s-c-interface;
#X obj 553 481 oscformat decay\$1;
#X obj 621 460 s to-o-s-c-interface;
#X obj 621 437 oscformat sustain\$1;
#X obj 687 414 s to-o-s-c-interface;
#X obj 687 391 oscformat release\$1;
#X obj 752 460 s to-o-s-c-interface;
#X obj 752 437 oscformat monophonic\$1;
#X obj 164 239 s to-o-s-c-interface;
#X obj 164 216 oscformat enveloperelease\$1;
#X obj 224 196 s to-o-s-c-interface;
#X obj 224 173 oscformat envelopedepth\$1;
#X obj 285 150 s to-o-s-c-interface;
#X obj 285 127 oscformat envelopeside\$1;
#X text 161 8 \$3 = fsynth;
#X text 161 24 \$4 = ffx;
#X text 160 38 \$5 = fmix;
#X text 162 51 \$6 = flooper;
#X obj 455 75 route /\$3/op1freqO /\$3/waveshapeO /\$3/op1sliderangeO
/\$3/op1slidetimeO /\$3/extmodulationO /\$3/genrangeO;
#X obj 37 343 route /\$3/op2freqO /\$3/op2depthO /\$3/noiseO /\$3/noisefilterfreqO
;
#X obj 488 353 route /\$3/attackO /\$3/decayO /\$3/sustainO /\$3/releaseO
/\$3/monophonicO;
#X obj 42 498 route /\$4/amfreqO /\$4/amdepthO /\$4/amwaveO /\$4/saturationO
/\$4/filtercutoffO /\$4/filterresonanceO /\$4/bitcrushO /\$4/pitchshiftO
;
#X obj 538 574 route /\$4/delaysendO /\$4/delaytimeO /\$4/delayfeedbackO
;
#X obj 43 86 route volumeO /fmix/panningO envelopereleaseO envelopedepthO
envelopesideO;
#X obj 43 302 s \$2-volume-gui;
#X obj 455 250 f;
#X connect 0 0 74 0;
#X connect 4 0 6 0;
#X connect 6 0 5 0;
#X connect 7 0 9 0;
#X connect 9 0 8 0;
#X connect 10 0 12 0;
#X connect 12 0 11 0;
#X connect 14 0 13 0;
#X connect 16 0 15 0;
#X connect 17 0 19 0;
#X connect 19 0 18 0;
#X connect 22 0 21 0;
#X connect 24 0 23 0;
#X connect 26 0 25 0;
#X connect 28 0 27 0;
#X connect 30 0 29 0;
#X connect 32 0 31 0;
#X connect 34 0 33 0;
#X connect 36 0 35 0;
#X connect 38 0 37 0;
#X connect 40 0 39 0;
#X connect 41 0 76 0;
#X connect 41 1 4 1;
#X connect 42 0 17 0;
#X connect 42 1 17 1;
#X connect 43 0 7 0;
#X connect 43 1 7 1;
#X connect 44 0 10 0;
#X connect 44 1 10 1;
#X connect 47 0 46 0;
#X connect 48 0 20 0;
#X connect 50 0 49 0;
#X connect 52 0 51 0;
#X connect 54 0 53 0;
#X connect 56 0 55 0;
#X connect 58 0 57 0;
#X connect 60 0 59 0;
#X connect 62 0 61 0;
#X connect 64 0 63 0;
#X connect 69 0 76 0;
#X connect 69 1 41 0;
#X connect 69 2 14 0;
#X connect 69 3 16 0;
#X connect 69 4 40 0;
#X connect 69 5 47 0;
#X connect 69 6 70 0;
#X connect 70 0 7 0;
#X connect 70 1 43 0;
#X connect 70 2 10 0;
#X connect 70 3 44 0;
#X connect 70 4 71 0;
#X connect 71 0 50 0;
#X connect 71 1 52 0;
#X connect 71 2 54 0;
#X connect 71 3 56 0;
#X connect 71 4 58 0;
#X connect 71 5 72 0;
#X connect 72 0 17 0;
#X connect 72 1 42 0;
#X connect 72 2 48 0;
#X connect 72 3 22 0;
#X connect 72 4 24 0;
#X connect 72 5 26 0;
#X connect 72 6 28 0;
#X connect 72 7 30 0;
#X connect 72 8 73 0;
#X connect 73 0 34 0;
#X connect 73 1 36 0;
#X connect 73 2 38 0;
#X connect 73 3 45 0;
#X connect 74 0 75 0;
#X connect 74 1 32 0;
#X connect 74 2 60 0;
#X connect 74 3 62 0;
#X connect 74 4 64 0;
#X connect 74 5 69 0;
#X connect 76 0 4 0;
