#N canvas 0 23 330 355 12;
#X obj 61 225 *~;
#X obj 79 176 sig~;
#X obj 79 200 lop~ 100;
#X obj 79 103 unpack f f f;
#X obj 136 228 *~;
#X obj 154 179 sig~;
#X obj 154 203 lop~ 100;
#X obj 209 232 *~;
#X obj 227 183 sig~;
#X obj 227 207 lop~ 100;
#X obj 80 21 inlet;
#X obj 79 79 route \$1;
#X obj 19 127 r~ \$1-m;
#X obj 61 269 outlet~;
#X obj 136 272 outlet~;
#X obj 209 276 outlet~;
#X connect 0 0 13 0;
#X connect 1 0 2 0;
#X connect 2 0 0 1;
#X connect 3 0 1 0;
#X connect 3 1 5 0;
#X connect 3 2 8 0;
#X connect 4 0 14 0;
#X connect 5 0 6 0;
#X connect 6 0 4 1;
#X connect 7 0 15 0;
#X connect 8 0 9 0;
#X connect 9 0 7 1;
#X connect 10 0 11 0;
#X connect 11 0 3 0;
#X connect 12 0 0 0;
#X connect 12 0 4 0;
#X connect 12 0 7 0;
