#N canvas 32 668 483 304 12;
#X obj 172 235 dac~;
#X msg 76 60 open dubby.wav;
#X msg 87 84 start;
#X msg 135 85 stop;
#X obj 75 113 readsf~ 2;
#X obj 75 137 +~;
#X floatatom 174 107 5 0 1 0 - - -;
#X msg 174 130 thresh \$1;
#X floatatom 258 107 5 0 1 0 - - -;
#X floatatom 339 105 5 0 1 0 - - -;
#X floatatom 420 107 5 0 1 0 - - -;
#X msg 258 130 att \$1;
#X msg 339 128 hold \$1;
#X msg 408 140 rel \$1;
#X obj 285 237 throw~ out;
#X obj 272 261 throw~ out2;
#N canvas 40 650 799 300 test 0;
#X obj 132 160 bar~;
#X obj 147 38 tgl 15 0 empty empty empty 17 7 0 10 -262144 -1 -1 0
1;
#X msg 147 62 fooperrecord \$1;
#X obj 132 184 env~;
#X obj 132 208 dbtorms;
#X floatatom 132 232 5 0 0 0 - - -;
#X obj 147 86 s \$0-bar;
#X obj 135 135 r \$0-bar;
#X obj 266 35 tgl 15 0 empty empty empty 17 7 0 10 -262144 -1 -1 0
1;
#X obj 266 83 s \$0-bar;
#X msg 266 59 play \$1;
#X obj 407 36 tgl 15 0 empty empty empty 17 7 0 10 -262144 -1 -1 0
1;
#X obj 407 84 s \$0-bar;
#X msg 407 59 loop \$1;
#X obj 515 30 tgl 15 0 empty empty empty 17 7 0 10 -262144 -1 -1 0
1;
#X obj 515 78 s \$0-bar;
#X msg 515 53 trigger \$1;
#X obj 636 84 s \$0-bar;
#X floatatom 637 36 5 0 1 0 - - -;
#X msg 636 59 speed \$1;
#X obj 637 169 s \$0-bar;
#X floatatom 638 121 5 0 1 0 - - -;
#X msg 637 144 readoffset \$1;
#X obj 516 161 s \$0-bar;
#X floatatom 517 113 5 0 1 0 - - -;
#X msg 516 136 duration \$1;
#X connect 0 0 3 0;
#X connect 1 0 2 0;
#X connect 2 0 6 0;
#X connect 3 0 4 0;
#X connect 4 0 5 0;
#X connect 7 0 0 0;
#X connect 8 0 10 0;
#X connect 10 0 9 0;
#X connect 11 0 13 0;
#X connect 13 0 12 0;
#X connect 14 0 16 0;
#X connect 16 0 15 0;
#X connect 18 0 19 0;
#X connect 19 0 17 0;
#X connect 21 0 22 0;
#X connect 22 0 20 0;
#X connect 24 0 25 0;
#X connect 25 0 23 0;
#X restore 333 30 pd test;
#X obj 172 192 faustgen~ gate;
#X obj 22 162 flooper~;
#X obj 76 199 dac~;
#N canvas 346 340 479 616 FLOOPER_UI____ 1;
#N canvas 0 23 450 397 record 0;
#X obj 106 109 bng 15 250 50 0 empty empty empty 17 7 0 10 -262144
-1 -1;
#X obj 162 109 tgl 15 0 empty empty empty 17 7 0 10 -262144 -1 -1 0
1;
#X obj 105 140 t b b b;
#X msg 151 165 stop;
#X msg 105 218 0;
#X msg 139 219 1;
#X obj 105 274 t a;
#X obj 105 298 outlet;
#X obj 105 194 del 24000;
#X connect 0 0 2 0;
#X connect 1 0 6 0;
#X connect 2 0 8 0;
#X connect 2 1 5 0;
#X connect 2 2 3 0;
#X connect 3 0 8 0;
#X connect 4 0 1 0;
#X connect 5 0 1 0;
#X connect 6 0 7 0;
#X connect 8 0 4 0;
#X coords 0 -1 1 1 85 30 2 100 100;
#X restore 32 20 pd record;
#N canvas 0 23 521 173 fooperADSR 0;
#X obj 26 91 s \$0-out;
#X obj 135 94 s \$0-out;
#X floatatom 135 48 5 0 1 0 - - -;
#X obj 242 93 s \$0-out;
#X floatatom 242 47 5 0.001 1 0 - - -;
#X obj 357 91 s \$0-out;
#X floatatom 357 45 5 0 1 0 - - -;
#X msg 26 67 formuls/a0 \$1;
#X msg 135 70 formuls/d0 \$1;
#X msg 242 69 formuls/s0 \$1;
#X msg 357 67 formuls/r0 \$1;
#X floatatom 25 44 5 0 1 0 - - -;
#X connect 2 0 8 0;
#X connect 4 0 9 0;
#X connect 6 0 10 0;
#X connect 7 0 0 0;
#X connect 8 0 1 0;
#X connect 9 0 3 0;
#X connect 10 0 5 0;
#X connect 11 0 7 0;
#X restore 251 26 pd fooperADSR;
#X obj 295 285 hradio 15 1 0 4 empty empty empty 0 -8 0 10 -262144
-1 -1 3;
#N canvas 0 22 450 300 s 0;
#X obj 137 44 inlet;
#X obj 134 72 sel 0 1 2 3;
#X msg 137 140 0.125;
#X obj 137 163 outlet;
#X msg 176 114 0.25;
#X msg 226 119 0.5;
#X msg 268 119 1;
#X connect 0 0 1 0;
#X connect 1 0 2 0;
#X connect 1 1 4 0;
#X connect 1 2 5 0;
#X connect 1 3 6 0;
#X connect 2 0 3 0;
#X connect 4 0 3 0;
#X connect 5 0 3 0;
#X connect 6 0 3 0;
#X restore 296 302 pd s;
#X obj 324 331 hradio 15 1 0 8 empty empty empty 0 -8 0 10 -262144
-1 -1 4;
#N canvas 0 22 525 300 s 0;
#X obj 137 44 inlet;
#X obj 299 193 outlet;
#X obj 119 83 sel 0 1 2 3 4 5 6 7;
#X msg 464 106 1;
#X msg 430 107 0.5;
#X msg 396 108 0.25;
#X msg 355 109 0.125;
#X msg 305 111 0.0625;
#X msg 243 110 0.03125;
#X msg 179 111 0.015625;
#X msg 103 113 0.0078125;
#X connect 0 0 2 0;
#X connect 2 0 10 0;
#X connect 2 1 9 0;
#X connect 2 2 8 0;
#X connect 2 3 7 0;
#X connect 2 4 6 0;
#X connect 2 5 5 0;
#X connect 2 6 4 0;
#X connect 2 7 3 0;
#X connect 3 0 1 0;
#X connect 4 0 1 0;
#X connect 5 0 1 0;
#X connect 6 0 1 0;
#X connect 7 0 1 0;
#X connect 8 0 1 0;
#X connect 9 0 1 0;
#X connect 10 0 1 0;
#X restore 324 350 pd s;
#X floatatom 329 516 5 -24 24 0 - - -;
#X obj 329 563 / 48;
#X obj 329 539 + 24;
#X obj 32 55 specific.message flooper record - \$0;
#X obj 33 100 specific.message flooper play - \$0;
#X obj 26 284 specific.message flooper speed spe \$0;
#X obj 27 335 specific.message flooper duration dur \$0;
#X obj 26 385 specific.message flooper readoffset rea \$0;
#X obj 27 437 specific.message flooper level - \$0;
#X obj 25 494 specific.message flooper envelope - \$0;
#X obj 25 544 specific.message flooper pitchshift pit \$0;
#X obj 32 147 specific.message flooper loop - \$0;
#X obj 31 191 specific.message flooper reverse - \$0;
#X obj 31 235 specific.message flooper dropout - \$0;
#X connect 0 0 9 0;
#X connect 2 0 3 0;
#X connect 3 0 11 0;
#X connect 4 0 5 0;
#X connect 5 0 12 0;
#X connect 6 0 8 0;
#X connect 7 0 16 0;
#X connect 8 0 7 0;
#X restore 24 14 pd FLOOPER_UI____;
#X obj 23 39 r flooper\$0;
#X connect 1 0 4 0;
#X connect 2 0 4 0;
#X connect 3 0 4 0;
#X connect 4 0 5 0;
#X connect 4 1 5 1;
#X connect 5 0 18 1;
#X connect 6 0 7 0;
#X connect 7 0 17 0;
#X connect 8 0 11 0;
#X connect 9 0 12 0;
#X connect 10 0 13 0;
#X connect 11 0 17 0;
#X connect 12 0 17 0;
#X connect 13 0 17 0;
#X connect 17 0 0 0;
#X connect 17 0 14 0;
#X connect 17 0 0 1;
#X connect 17 0 15 0;
#X connect 18 1 17 0;
#X connect 18 1 19 0;
#X connect 21 0 18 0;
